<?xml version="1.0" encoding="utf-8"?>
<svg xmlns="http://www.w3.org/2000/svg" xmlns:xlink="http://www.w3.org/1999/xlink" width="528" height="336" viewBox="0 0 2112 1344">
<defs>
  <clipPath id="clip660">
    <rect x="0" y="0" width="2112" height="1344"/>
  </clipPath>
</defs>
<path clip-path="url(#clip660)" d="M0 1344 L2112 1344 L2112 2.13163e-14 L0 2.13163e-14  Z" fill="#ffffff" fill-rule="evenodd" fill-opacity="1"/>
<defs>
  <clipPath id="clip661">
    <rect x="422" y="0" width="1479" height="1344"/>
  </clipPath>
</defs>
<path clip-path="url(#clip660)" d="M244.502 1173.47 L2064.76 1173.47 L2064.76 120.723 L244.502 120.723  Z" fill="#ffffff" fill-rule="evenodd" fill-opacity="1"/>
<defs>
  <clipPath id="clip662">
    <rect x="244" y="120" width="1821" height="1054"/>
  </clipPath>
</defs>
<polyline clip-path="url(#clip662)" style="stroke:#000000; stroke-linecap:round; stroke-linejoin:round; stroke-width:2; stroke-opacity:0.1; fill:none" points="259.355,1173.47 259.355,120.723 "/>
<polyline clip-path="url(#clip662)" style="stroke:#000000; stroke-linecap:round; stroke-linejoin:round; stroke-width:2; stroke-opacity:0.1; fill:none" points="685.676,1173.47 685.676,120.723 "/>
<polyline clip-path="url(#clip662)" style="stroke:#000000; stroke-linecap:round; stroke-linejoin:round; stroke-width:2; stroke-opacity:0.1; fill:none" points="1112,1173.47 1112,120.723 "/>
<polyline clip-path="url(#clip662)" style="stroke:#000000; stroke-linecap:round; stroke-linejoin:round; stroke-width:2; stroke-opacity:0.1; fill:none" points="1538.32,1173.47 1538.32,120.723 "/>
<polyline clip-path="url(#clip662)" style="stroke:#000000; stroke-linecap:round; stroke-linejoin:round; stroke-width:2; stroke-opacity:0.1; fill:none" points="1964.64,1173.47 1964.64,120.723 "/>
<polyline clip-path="url(#clip662)" style="stroke:#000000; stroke-linecap:round; stroke-linejoin:round; stroke-width:2; stroke-opacity:0.1; fill:none" points="244.502,1173.47 2064.76,1173.47 "/>
<polyline clip-path="url(#clip662)" style="stroke:#000000; stroke-linecap:round; stroke-linejoin:round; stroke-width:2; stroke-opacity:0.1; fill:none" points="244.502,928.565 2064.76,928.565 "/>
<polyline clip-path="url(#clip662)" style="stroke:#000000; stroke-linecap:round; stroke-linejoin:round; stroke-width:2; stroke-opacity:0.1; fill:none" points="244.502,683.66 2064.76,683.66 "/>
<polyline clip-path="url(#clip662)" style="stroke:#000000; stroke-linecap:round; stroke-linejoin:round; stroke-width:2; stroke-opacity:0.1; fill:none" points="244.502,438.755 2064.76,438.755 "/>
<polyline clip-path="url(#clip662)" style="stroke:#000000; stroke-linecap:round; stroke-linejoin:round; stroke-width:2; stroke-opacity:0.1; fill:none" points="244.502,193.849 2064.76,193.849 "/>
<polyline clip-path="url(#clip660)" style="stroke:#000000; stroke-linecap:round; stroke-linejoin:round; stroke-width:4; stroke-opacity:1; fill:none" points="244.502,1173.47 2064.76,1173.47 "/>
<polyline clip-path="url(#clip660)" style="stroke:#000000; stroke-linecap:round; stroke-linejoin:round; stroke-width:4; stroke-opacity:1; fill:none" points="259.355,1173.47 259.355,1154.57 "/>
<polyline clip-path="url(#clip660)" style="stroke:#000000; stroke-linecap:round; stroke-linejoin:round; stroke-width:4; stroke-opacity:1; fill:none" points="685.676,1173.47 685.676,1154.57 "/>
<polyline clip-path="url(#clip660)" style="stroke:#000000; stroke-linecap:round; stroke-linejoin:round; stroke-width:4; stroke-opacity:1; fill:none" points="1112,1173.47 1112,1154.57 "/>
<polyline clip-path="url(#clip660)" style="stroke:#000000; stroke-linecap:round; stroke-linejoin:round; stroke-width:4; stroke-opacity:1; fill:none" points="1538.32,1173.47 1538.32,1154.57 "/>
<polyline clip-path="url(#clip660)" style="stroke:#000000; stroke-linecap:round; stroke-linejoin:round; stroke-width:4; stroke-opacity:1; fill:none" points="1964.64,1173.47 1964.64,1154.57 "/>
<path clip-path="url(#clip660)" d="M259.355 1202.09 Q255.744 1202.09 253.915 1205.65 Q252.11 1209.19 252.11 1216.32 Q252.11 1223.43 253.915 1226.99 Q255.744 1230.53 259.355 1230.53 Q262.989 1230.53 264.795 1226.99 Q266.624 1223.43 266.624 1216.32 Q266.624 1209.19 264.795 1205.65 Q262.989 1202.09 259.355 1202.09 M259.355 1198.38 Q265.165 1198.38 268.221 1202.99 Q271.299 1207.57 271.299 1216.32 Q271.299 1225.05 268.221 1229.65 Q265.165 1234.24 259.355 1234.24 Q253.545 1234.24 250.466 1229.65 Q247.411 1225.05 247.411 1216.32 Q247.411 1207.57 250.466 1202.99 Q253.545 1198.38 259.355 1198.38 Z" fill="#000000" fill-rule="nonzero" fill-opacity="1" /><path clip-path="url(#clip660)" d="M675.954 1199.01 L694.31 1199.01 L694.31 1202.94 L680.236 1202.94 L680.236 1211.41 Q681.255 1211.07 682.273 1210.9 Q683.292 1210.72 684.31 1210.72 Q690.097 1210.72 693.477 1213.89 Q696.856 1217.06 696.856 1222.48 Q696.856 1228.06 693.384 1231.16 Q689.912 1234.24 683.593 1234.24 Q681.417 1234.24 679.148 1233.87 Q676.903 1233.5 674.495 1232.76 L674.495 1228.06 Q676.579 1229.19 678.801 1229.75 Q681.023 1230.3 683.5 1230.3 Q687.505 1230.3 689.843 1228.2 Q692.181 1226.09 692.181 1222.48 Q692.181 1218.87 689.843 1216.76 Q687.505 1214.65 683.5 1214.65 Q681.625 1214.65 679.75 1215.07 Q677.898 1215.49 675.954 1216.37 L675.954 1199.01 Z" fill="#000000" fill-rule="nonzero" fill-opacity="1" /><path clip-path="url(#clip660)" d="M1086.68 1229.63 L1094.32 1229.63 L1094.32 1203.27 L1086.01 1204.93 L1086.01 1200.67 L1094.28 1199.01 L1098.95 1199.01 L1098.95 1229.63 L1106.59 1229.63 L1106.59 1233.57 L1086.68 1233.57 L1086.68 1229.63 Z" fill="#000000" fill-rule="nonzero" fill-opacity="1" /><path clip-path="url(#clip660)" d="M1126.04 1202.09 Q1122.43 1202.09 1120.6 1205.65 Q1118.79 1209.19 1118.79 1216.32 Q1118.79 1223.43 1120.6 1226.99 Q1122.43 1230.53 1126.04 1230.53 Q1129.67 1230.53 1131.48 1226.99 Q1133.3 1223.43 1133.3 1216.32 Q1133.3 1209.19 1131.48 1205.65 Q1129.67 1202.09 1126.04 1202.09 M1126.04 1198.38 Q1131.85 1198.38 1134.9 1202.99 Q1137.98 1207.57 1137.98 1216.32 Q1137.98 1225.05 1134.9 1229.65 Q1131.85 1234.24 1126.04 1234.24 Q1120.23 1234.24 1117.15 1229.65 Q1114.09 1225.05 1114.09 1216.32 Q1114.09 1207.57 1117.15 1202.99 Q1120.23 1198.38 1126.04 1198.38 Z" fill="#000000" fill-rule="nonzero" fill-opacity="1" /><path clip-path="url(#clip660)" d="M1513.5 1229.63 L1521.14 1229.63 L1521.14 1203.27 L1512.83 1204.93 L1512.83 1200.67 L1521.1 1199.01 L1525.77 1199.01 L1525.77 1229.63 L1533.41 1229.63 L1533.41 1233.57 L1513.5 1233.57 L1513.5 1229.63 Z" fill="#000000" fill-rule="nonzero" fill-opacity="1" /><path clip-path="url(#clip660)" d="M1542.9 1199.01 L1561.26 1199.01 L1561.26 1202.94 L1547.18 1202.94 L1547.18 1211.41 Q1548.2 1211.07 1549.22 1210.9 Q1550.24 1210.72 1551.26 1210.72 Q1557.04 1210.72 1560.42 1213.89 Q1563.8 1217.06 1563.8 1222.48 Q1563.8 1228.06 1560.33 1231.16 Q1556.86 1234.24 1550.54 1234.24 Q1548.36 1234.24 1546.1 1233.87 Q1543.85 1233.5 1541.44 1232.76 L1541.44 1228.06 Q1543.53 1229.19 1545.75 1229.75 Q1547.97 1230.3 1550.45 1230.3 Q1554.45 1230.3 1556.79 1228.2 Q1559.13 1226.09 1559.13 1222.48 Q1559.13 1218.87 1556.79 1216.76 Q1554.45 1214.65 1550.45 1214.65 Q1548.57 1214.65 1546.7 1215.07 Q1544.85 1215.49 1542.9 1216.37 L1542.9 1199.01 Z" fill="#000000" fill-rule="nonzero" fill-opacity="1" /><path clip-path="url(#clip660)" d="M1943.41 1229.63 L1959.73 1229.63 L1959.73 1233.57 L1937.79 1233.57 L1937.79 1229.63 Q1940.45 1226.88 1945.03 1222.25 Q1949.64 1217.59 1950.82 1216.25 Q1953.06 1213.73 1953.94 1211.99 Q1954.85 1210.23 1954.85 1208.54 Q1954.85 1205.79 1952.9 1204.05 Q1950.98 1202.32 1947.88 1202.32 Q1945.68 1202.32 1943.23 1203.08 Q1940.8 1203.84 1938.02 1205.4 L1938.02 1200.67 Q1940.84 1199.54 1943.3 1198.96 Q1945.75 1198.38 1947.79 1198.38 Q1953.16 1198.38 1956.35 1201.07 Q1959.55 1203.75 1959.55 1208.24 Q1959.55 1210.37 1958.74 1212.29 Q1957.95 1214.19 1955.84 1216.78 Q1955.26 1217.46 1952.16 1220.67 Q1949.06 1223.87 1943.41 1229.63 Z" fill="#000000" fill-rule="nonzero" fill-opacity="1" /><path clip-path="url(#clip660)" d="M1979.55 1202.09 Q1975.93 1202.09 1974.11 1205.65 Q1972.3 1209.19 1972.3 1216.32 Q1972.3 1223.43 1974.11 1226.99 Q1975.93 1230.53 1979.55 1230.53 Q1983.18 1230.53 1984.99 1226.99 Q1986.81 1223.43 1986.81 1216.32 Q1986.81 1209.19 1984.99 1205.65 Q1983.18 1202.09 1979.55 1202.09 M1979.55 1198.38 Q1985.36 1198.38 1988.41 1202.99 Q1991.49 1207.57 1991.49 1216.32 Q1991.49 1225.05 1988.41 1229.65 Q1985.36 1234.24 1979.55 1234.24 Q1973.74 1234.24 1970.66 1229.65 Q1967.6 1225.05 1967.6 1216.32 Q1967.6 1207.57 1970.66 1202.99 Q1973.74 1198.38 1979.55 1198.38 Z" fill="#000000" fill-rule="nonzero" fill-opacity="1" /><path clip-path="url(#clip660)" d="M1054.93 1272.73 Q1051.68 1270.51 1044.07 1270.51 Q1036.02 1270.51 1036.02 1274.23 Q1036.02 1277.16 1044.42 1278.69 Q1051.04 1279.86 1054.77 1283.43 Q1059.29 1287.72 1059.29 1296.54 Q1059.29 1304.98 1054.93 1309.94 Q1050.57 1314.94 1042.93 1314.94 Q1035.32 1314.94 1030.93 1309.94 Q1026.57 1304.98 1026.57 1296.22 Q1026.57 1289.73 1030.93 1284.48 Q1032.61 1282.44 1035 1281.3 Q1030.04 1278.78 1030.04 1274.29 Q1030.04 1265.64 1044.07 1265.64 Q1051.11 1265.64 1054.93 1267.86 L1054.93 1272.73 M1039.39 1282.89 Q1037.23 1283.81 1035.48 1286.13 Q1032.74 1289.73 1032.74 1296.22 Q1032.74 1302.68 1035.45 1306.31 Q1038.18 1309.97 1042.93 1309.97 Q1047.61 1309.97 1050.34 1306.28 Q1053.08 1302.59 1053.08 1296.54 Q1053.08 1290.21 1050.18 1287.15 Q1047.1 1283.87 1043.09 1283.52 Q1041.05 1283.33 1039.39 1282.89 Z" fill="#000000" fill-rule="nonzero" fill-opacity="1" /><path clip-path="url(#clip660)" d="M1103.78 1264.55 Q1099.52 1271.87 1097.45 1279.04 Q1095.38 1286.2 1095.38 1293.55 Q1095.38 1300.9 1097.45 1308.13 Q1099.55 1315.32 1103.78 1322.61 L1098.69 1322.61 Q1093.92 1315.13 1091.53 1307.9 Q1089.17 1300.68 1089.17 1293.55 Q1089.17 1286.45 1091.53 1279.26 Q1093.88 1272.06 1098.69 1264.55 L1103.78 1264.55 Z" fill="#000000" fill-rule="nonzero" fill-opacity="1" /><path clip-path="url(#clip660)" d="M1138.6 1283.78 L1138.6 1264.49 L1144.46 1264.49 L1144.46 1314.01 L1138.6 1314.01 L1138.6 1308.67 Q1136.76 1311.85 1133.92 1313.41 Q1131.12 1314.94 1127.18 1314.94 Q1120.72 1314.94 1116.64 1309.78 Q1112.6 1304.63 1112.6 1296.22 Q1112.6 1287.82 1116.64 1282.66 Q1120.72 1277.51 1127.18 1277.51 Q1131.12 1277.51 1133.92 1279.07 Q1136.76 1280.59 1138.6 1283.78 M1118.65 1296.22 Q1118.65 1302.68 1121.29 1306.38 Q1123.96 1310.04 1128.61 1310.04 Q1133.26 1310.04 1135.93 1306.38 Q1138.6 1302.68 1138.6 1296.22 Q1138.6 1289.76 1135.93 1286.1 Q1133.26 1282.41 1128.61 1282.41 Q1123.96 1282.41 1121.29 1286.1 Q1118.65 1289.76 1118.65 1296.22 Z" fill="#000000" fill-rule="nonzero" fill-opacity="1" /><path clip-path="url(#clip660)" d="M1172.72 1296.1 Q1165.63 1296.1 1162.89 1297.72 Q1160.15 1299.34 1160.15 1303.26 Q1160.15 1306.38 1162.19 1308.22 Q1164.26 1310.04 1167.79 1310.04 Q1172.66 1310.04 1175.59 1306.6 Q1178.55 1303.13 1178.55 1297.4 L1178.55 1296.1 L1172.72 1296.1 M1184.4 1293.68 L1184.4 1314.01 L1178.55 1314.01 L1178.55 1308.6 Q1176.54 1311.85 1173.55 1313.41 Q1170.56 1314.94 1166.23 1314.94 Q1160.76 1314.94 1157.51 1311.88 Q1154.29 1308.79 1154.29 1303.64 Q1154.29 1297.62 1158.31 1294.57 Q1162.35 1291.51 1170.34 1291.51 L1178.55 1291.51 L1178.55 1290.94 Q1178.55 1286.9 1175.87 1284.7 Q1173.23 1282.47 1168.43 1282.47 Q1165.37 1282.47 1162.47 1283.2 Q1159.58 1283.94 1156.9 1285.4 L1156.9 1279.99 Q1160.12 1278.75 1163.14 1278.14 Q1166.17 1277.51 1169.03 1277.51 Q1176.77 1277.51 1180.59 1281.52 Q1184.4 1285.53 1184.4 1293.68 Z" fill="#000000" fill-rule="nonzero" fill-opacity="1" /><path clip-path="url(#clip660)" d="M1211.3 1317.32 Q1208.82 1323.69 1206.46 1325.63 Q1204.11 1327.57 1200.16 1327.57 L1195.48 1327.57 L1195.48 1322.67 L1198.92 1322.67 Q1201.34 1322.67 1202.67 1321.53 Q1204.01 1320.38 1205.63 1316.12 L1206.68 1313.44 L1192.27 1278.37 L1198.47 1278.37 L1209.61 1306.25 L1220.75 1278.37 L1226.96 1278.37 L1211.3 1317.32 Z" fill="#000000" fill-rule="nonzero" fill-opacity="1" /><path clip-path="url(#clip660)" d="M1257.77 1279.42 L1257.77 1284.96 Q1255.29 1283.68 1252.61 1283.05 Q1249.94 1282.41 1247.07 1282.41 Q1242.71 1282.41 1240.52 1283.75 Q1238.35 1285.08 1238.35 1287.76 Q1238.35 1289.79 1239.91 1290.97 Q1241.47 1292.12 1246.18 1293.17 L1248.19 1293.61 Q1254.43 1294.95 1257.04 1297.4 Q1259.68 1299.82 1259.68 1304.18 Q1259.68 1309.14 1255.73 1312.04 Q1251.82 1314.94 1244.94 1314.94 Q1242.08 1314.94 1238.96 1314.36 Q1235.87 1313.82 1232.43 1312.71 L1232.43 1306.66 Q1235.68 1308.35 1238.83 1309.21 Q1241.98 1310.04 1245.07 1310.04 Q1249.21 1310.04 1251.44 1308.64 Q1253.66 1307.2 1253.66 1304.63 Q1253.66 1302.24 1252.04 1300.97 Q1250.45 1299.69 1245.01 1298.51 L1242.97 1298.04 Q1237.53 1296.89 1235.11 1294.54 Q1232.69 1292.15 1232.69 1288.01 Q1232.69 1282.98 1236.25 1280.24 Q1239.82 1277.51 1246.37 1277.51 Q1249.62 1277.51 1252.49 1277.98 Q1255.35 1278.46 1257.77 1279.42 Z" fill="#000000" fill-rule="nonzero" fill-opacity="1" /><path clip-path="url(#clip660)" d="M1268.08 1264.55 L1273.17 1264.55 Q1277.95 1272.06 1280.3 1279.26 Q1282.69 1286.45 1282.69 1293.55 Q1282.69 1300.68 1280.3 1307.9 Q1277.95 1315.13 1273.17 1322.61 L1268.08 1322.61 Q1272.31 1315.32 1274.38 1308.13 Q1276.48 1300.9 1276.48 1293.55 Q1276.48 1286.2 1274.38 1279.04 Q1272.31 1271.87 1268.08 1264.55 Z" fill="#000000" fill-rule="nonzero" fill-opacity="1" /><polyline clip-path="url(#clip660)" style="stroke:#000000; stroke-linecap:round; stroke-linejoin:round; stroke-width:4; stroke-opacity:1; fill:none" points="244.502,1173.47 244.502,120.723 "/>
<polyline clip-path="url(#clip660)" style="stroke:#000000; stroke-linecap:round; stroke-linejoin:round; stroke-width:4; stroke-opacity:1; fill:none" points="244.502,1173.47 263.4,1173.47 "/>
<polyline clip-path="url(#clip660)" style="stroke:#000000; stroke-linecap:round; stroke-linejoin:round; stroke-width:4; stroke-opacity:1; fill:none" points="244.502,928.565 263.4,928.565 "/>
<polyline clip-path="url(#clip660)" style="stroke:#000000; stroke-linecap:round; stroke-linejoin:round; stroke-width:4; stroke-opacity:1; fill:none" points="244.502,683.66 263.4,683.66 "/>
<polyline clip-path="url(#clip660)" style="stroke:#000000; stroke-linecap:round; stroke-linejoin:round; stroke-width:4; stroke-opacity:1; fill:none" points="244.502,438.755 263.4,438.755 "/>
<polyline clip-path="url(#clip660)" style="stroke:#000000; stroke-linecap:round; stroke-linejoin:round; stroke-width:4; stroke-opacity:1; fill:none" points="244.502,193.849 263.4,193.849 "/>
<path clip-path="url(#clip660)" d="M125.485 1159.27 Q121.873 1159.27 120.045 1162.83 Q118.239 1166.38 118.239 1173.51 Q118.239 1180.61 120.045 1184.18 Q121.873 1187.72 125.485 1187.72 Q129.119 1187.72 130.924 1184.18 Q132.753 1180.61 132.753 1173.51 Q132.753 1166.38 130.924 1162.83 Q129.119 1159.27 125.485 1159.27 M125.485 1155.57 Q131.295 1155.57 134.35 1160.17 Q137.429 1164.76 137.429 1173.51 Q137.429 1182.23 134.35 1186.84 Q131.295 1191.42 125.485 1191.42 Q119.674 1191.42 116.596 1186.84 Q113.54 1182.23 113.54 1173.51 Q113.54 1164.76 116.596 1160.17 Q119.674 1155.57 125.485 1155.57 Z" fill="#000000" fill-rule="nonzero" fill-opacity="1" /><path clip-path="url(#clip660)" d="M145.646 1184.87 L150.531 1184.87 L150.531 1190.75 L145.646 1190.75 L145.646 1184.87 Z" fill="#000000" fill-rule="nonzero" fill-opacity="1" /><path clip-path="url(#clip660)" d="M170.716 1159.27 Q167.105 1159.27 165.276 1162.83 Q163.47 1166.38 163.47 1173.51 Q163.47 1180.61 165.276 1184.18 Q167.105 1187.72 170.716 1187.72 Q174.35 1187.72 176.156 1184.18 Q177.984 1180.61 177.984 1173.51 Q177.984 1166.38 176.156 1162.83 Q174.35 1159.27 170.716 1159.27 M170.716 1155.57 Q176.526 1155.57 179.581 1160.17 Q182.66 1164.76 182.66 1173.51 Q182.66 1182.23 179.581 1186.84 Q176.526 1191.42 170.716 1191.42 Q164.906 1191.42 161.827 1186.84 Q158.771 1182.23 158.771 1173.51 Q158.771 1164.76 161.827 1160.17 Q164.906 1155.57 170.716 1155.57 Z" fill="#000000" fill-rule="nonzero" fill-opacity="1" /><path clip-path="url(#clip660)" d="M200.878 1159.27 Q197.267 1159.27 195.438 1162.83 Q193.632 1166.38 193.632 1173.51 Q193.632 1180.61 195.438 1184.18 Q197.267 1187.72 200.878 1187.72 Q204.512 1187.72 206.317 1184.18 Q208.146 1180.61 208.146 1173.51 Q208.146 1166.38 206.317 1162.83 Q204.512 1159.27 200.878 1159.27 M200.878 1155.57 Q206.688 1155.57 209.743 1160.17 Q212.822 1164.76 212.822 1173.51 Q212.822 1182.23 209.743 1186.84 Q206.688 1191.42 200.878 1191.42 Q195.067 1191.42 191.989 1186.84 Q188.933 1182.23 188.933 1173.51 Q188.933 1164.76 191.989 1160.17 Q195.067 1155.57 200.878 1155.57 Z" fill="#000000" fill-rule="nonzero" fill-opacity="1" /><path clip-path="url(#clip660)" d="M126.48 914.364 Q122.869 914.364 121.04 917.929 Q119.235 921.471 119.235 928.6 Q119.235 935.707 121.04 939.271 Q122.869 942.813 126.48 942.813 Q130.114 942.813 131.92 939.271 Q133.748 935.707 133.748 928.6 Q133.748 921.471 131.92 917.929 Q130.114 914.364 126.48 914.364 M126.48 910.66 Q132.29 910.66 135.346 915.267 Q138.424 919.85 138.424 928.6 Q138.424 937.327 135.346 941.933 Q132.29 946.517 126.48 946.517 Q120.67 946.517 117.591 941.933 Q114.536 937.327 114.536 928.6 Q114.536 919.85 117.591 915.267 Q120.67 910.66 126.48 910.66 Z" fill="#000000" fill-rule="nonzero" fill-opacity="1" /><path clip-path="url(#clip660)" d="M146.642 939.966 L151.526 939.966 L151.526 945.845 L146.642 945.845 L146.642 939.966 Z" fill="#000000" fill-rule="nonzero" fill-opacity="1" /><path clip-path="url(#clip660)" d="M171.711 914.364 Q168.1 914.364 166.271 917.929 Q164.466 921.471 164.466 928.6 Q164.466 935.707 166.271 939.271 Q168.1 942.813 171.711 942.813 Q175.345 942.813 177.151 939.271 Q178.98 935.707 178.98 928.6 Q178.98 921.471 177.151 917.929 Q175.345 914.364 171.711 914.364 M171.711 910.66 Q177.521 910.66 180.577 915.267 Q183.656 919.85 183.656 928.6 Q183.656 937.327 180.577 941.933 Q177.521 946.517 171.711 946.517 Q165.901 946.517 162.822 941.933 Q159.767 937.327 159.767 928.6 Q159.767 919.85 162.822 915.267 Q165.901 910.66 171.711 910.66 Z" fill="#000000" fill-rule="nonzero" fill-opacity="1" /><path clip-path="url(#clip660)" d="M191.919 911.285 L210.276 911.285 L210.276 915.221 L196.202 915.221 L196.202 923.693 Q197.22 923.346 198.239 923.183 Q199.257 922.998 200.276 922.998 Q206.063 922.998 209.442 926.17 Q212.822 929.341 212.822 934.757 Q212.822 940.336 209.35 943.438 Q205.878 946.517 199.558 946.517 Q197.382 946.517 195.114 946.146 Q192.868 945.776 190.461 945.035 L190.461 940.336 Q192.544 941.47 194.767 942.026 Q196.989 942.582 199.466 942.582 Q203.47 942.582 205.808 940.475 Q208.146 938.369 208.146 934.757 Q208.146 931.146 205.808 929.04 Q203.47 926.933 199.466 926.933 Q197.591 926.933 195.716 927.35 Q193.864 927.767 191.919 928.646 L191.919 911.285 Z" fill="#000000" fill-rule="nonzero" fill-opacity="1" /><path clip-path="url(#clip660)" d="M125.485 669.459 Q121.873 669.459 120.045 673.024 Q118.239 676.565 118.239 683.695 Q118.239 690.801 120.045 694.366 Q121.873 697.908 125.485 697.908 Q129.119 697.908 130.924 694.366 Q132.753 690.801 132.753 683.695 Q132.753 676.565 130.924 673.024 Q129.119 669.459 125.485 669.459 M125.485 665.755 Q131.295 665.755 134.35 670.362 Q137.429 674.945 137.429 683.695 Q137.429 692.422 134.35 697.028 Q131.295 701.611 125.485 701.611 Q119.674 701.611 116.596 697.028 Q113.54 692.422 113.54 683.695 Q113.54 674.945 116.596 670.362 Q119.674 665.755 125.485 665.755 Z" fill="#000000" fill-rule="nonzero" fill-opacity="1" /><path clip-path="url(#clip660)" d="M145.646 695.06 L150.531 695.06 L150.531 700.94 L145.646 700.94 L145.646 695.06 Z" fill="#000000" fill-rule="nonzero" fill-opacity="1" /><path clip-path="url(#clip660)" d="M161.526 697.005 L169.165 697.005 L169.165 670.639 L160.855 672.306 L160.855 668.047 L169.119 666.38 L173.794 666.38 L173.794 697.005 L181.433 697.005 L181.433 700.94 L161.526 700.94 L161.526 697.005 Z" fill="#000000" fill-rule="nonzero" fill-opacity="1" /><path clip-path="url(#clip660)" d="M200.878 669.459 Q197.267 669.459 195.438 673.024 Q193.632 676.565 193.632 683.695 Q193.632 690.801 195.438 694.366 Q197.267 697.908 200.878 697.908 Q204.512 697.908 206.317 694.366 Q208.146 690.801 208.146 683.695 Q208.146 676.565 206.317 673.024 Q204.512 669.459 200.878 669.459 M200.878 665.755 Q206.688 665.755 209.743 670.362 Q212.822 674.945 212.822 683.695 Q212.822 692.422 209.743 697.028 Q206.688 701.611 200.878 701.611 Q195.067 701.611 191.989 697.028 Q188.933 692.422 188.933 683.695 Q188.933 674.945 191.989 670.362 Q195.067 665.755 200.878 665.755 Z" fill="#000000" fill-rule="nonzero" fill-opacity="1" /><path clip-path="url(#clip660)" d="M126.48 424.553 Q122.869 424.553 121.04 428.118 Q119.235 431.66 119.235 438.789 Q119.235 445.896 121.04 449.461 Q122.869 453.002 126.48 453.002 Q130.114 453.002 131.92 449.461 Q133.748 445.896 133.748 438.789 Q133.748 431.66 131.92 428.118 Q130.114 424.553 126.48 424.553 M126.48 420.85 Q132.29 420.85 135.346 425.456 Q138.424 430.039 138.424 438.789 Q138.424 447.516 135.346 452.123 Q132.29 456.706 126.48 456.706 Q120.67 456.706 117.591 452.123 Q114.536 447.516 114.536 438.789 Q114.536 430.039 117.591 425.456 Q120.67 420.85 126.48 420.85 Z" fill="#000000" fill-rule="nonzero" fill-opacity="1" /><path clip-path="url(#clip660)" d="M146.642 450.155 L151.526 450.155 L151.526 456.035 L146.642 456.035 L146.642 450.155 Z" fill="#000000" fill-rule="nonzero" fill-opacity="1" /><path clip-path="url(#clip660)" d="M162.521 452.1 L170.16 452.1 L170.16 425.734 L161.85 427.401 L161.85 423.141 L170.114 421.475 L174.79 421.475 L174.79 452.1 L182.429 452.1 L182.429 456.035 L162.521 456.035 L162.521 452.1 Z" fill="#000000" fill-rule="nonzero" fill-opacity="1" /><path clip-path="url(#clip660)" d="M191.919 421.475 L210.276 421.475 L210.276 425.41 L196.202 425.41 L196.202 433.882 Q197.22 433.535 198.239 433.373 Q199.257 433.188 200.276 433.188 Q206.063 433.188 209.442 436.359 Q212.822 439.53 212.822 444.947 Q212.822 450.525 209.35 453.627 Q205.878 456.706 199.558 456.706 Q197.382 456.706 195.114 456.336 Q192.868 455.965 190.461 455.225 L190.461 450.525 Q192.544 451.66 194.767 452.215 Q196.989 452.771 199.466 452.771 Q203.47 452.771 205.808 450.664 Q208.146 448.558 208.146 444.947 Q208.146 441.336 205.808 439.229 Q203.47 437.123 199.466 437.123 Q197.591 437.123 195.716 437.539 Q193.864 437.956 191.919 438.836 L191.919 421.475 Z" fill="#000000" fill-rule="nonzero" fill-opacity="1" /><path clip-path="url(#clip660)" d="M125.485 179.648 Q121.873 179.648 120.045 183.213 Q118.239 186.754 118.239 193.884 Q118.239 200.991 120.045 204.555 Q121.873 208.097 125.485 208.097 Q129.119 208.097 130.924 204.555 Q132.753 200.991 132.753 193.884 Q132.753 186.754 130.924 183.213 Q129.119 179.648 125.485 179.648 M125.485 175.944 Q131.295 175.944 134.35 180.551 Q137.429 185.134 137.429 193.884 Q137.429 202.611 134.35 207.217 Q131.295 211.801 125.485 211.801 Q119.674 211.801 116.596 207.217 Q113.54 202.611 113.54 193.884 Q113.54 185.134 116.596 180.551 Q119.674 175.944 125.485 175.944 Z" fill="#000000" fill-rule="nonzero" fill-opacity="1" /><path clip-path="url(#clip660)" d="M145.646 205.25 L150.531 205.25 L150.531 211.129 L145.646 211.129 L145.646 205.25 Z" fill="#000000" fill-rule="nonzero" fill-opacity="1" /><path clip-path="url(#clip660)" d="M164.744 207.194 L181.063 207.194 L181.063 211.129 L159.119 211.129 L159.119 207.194 Q161.781 204.44 166.364 199.81 Q170.97 195.157 172.151 193.815 Q174.396 191.291 175.276 189.555 Q176.179 187.796 176.179 186.106 Q176.179 183.352 174.234 181.616 Q172.313 179.88 169.211 179.88 Q167.012 179.88 164.558 180.643 Q162.128 181.407 159.35 182.958 L159.35 178.236 Q162.174 177.102 164.628 176.523 Q167.082 175.944 169.119 175.944 Q174.489 175.944 177.683 178.63 Q180.878 181.315 180.878 185.805 Q180.878 187.935 180.068 189.856 Q179.281 191.754 177.174 194.347 Q176.595 195.018 173.494 198.236 Q170.392 201.43 164.744 207.194 Z" fill="#000000" fill-rule="nonzero" fill-opacity="1" /><path clip-path="url(#clip660)" d="M200.878 179.648 Q197.267 179.648 195.438 183.213 Q193.632 186.754 193.632 193.884 Q193.632 200.991 195.438 204.555 Q197.267 208.097 200.878 208.097 Q204.512 208.097 206.317 204.555 Q208.146 200.991 208.146 193.884 Q208.146 186.754 206.317 183.213 Q204.512 179.648 200.878 179.648 M200.878 175.944 Q206.688 175.944 209.743 180.551 Q212.822 185.134 212.822 193.884 Q212.822 202.611 209.743 207.217 Q206.688 211.801 200.878 211.801 Q195.067 211.801 191.989 207.217 Q188.933 202.611 188.933 193.884 Q188.933 185.134 191.989 180.551 Q195.067 175.944 200.878 175.944 Z" fill="#000000" fill-rule="nonzero" fill-opacity="1" /><path clip-path="url(#clip660)" d="M25.3677 808.786 L43.2235 808.786 L43.2235 800.701 Q43.2235 796.214 40.9 793.763 Q38.5765 791.312 34.2797 791.312 Q30.0147 791.312 27.6912 793.763 Q25.3677 796.214 25.3677 800.701 L25.3677 808.786 M20.0842 815.215 L20.0842 800.701 Q20.0842 792.712 23.7126 788.638 Q27.3092 784.532 34.2797 784.532 Q41.3138 784.532 44.9104 788.638 Q48.507 792.712 48.507 800.701 L48.507 808.786 L67.6042 808.786 L67.6042 815.215 L20.0842 815.215 Z" fill="#000000" fill-rule="nonzero" fill-opacity="1" /><path clip-path="url(#clip660)" d="M37.4307 756.651 Q36.8578 757.637 36.6032 758.815 Q36.3167 759.961 36.3167 761.361 Q36.3167 766.327 39.5632 769 Q42.7779 771.642 48.8253 771.642 L67.6042 771.642 L67.6042 777.53 L31.9562 777.53 L31.9562 771.642 L37.4944 771.642 Q34.2479 769.796 32.6883 766.836 Q31.0968 763.876 31.0968 759.643 Q31.0968 759.038 31.1923 758.306 Q31.256 757.574 31.4151 756.683 L37.4307 756.651 Z" fill="#000000" fill-rule="nonzero" fill-opacity="1" /><path clip-path="url(#clip660)" d="M36.0621 738.126 Q36.0621 742.837 39.7542 745.574 Q43.4145 748.312 49.812 748.312 Q56.2095 748.312 59.9017 745.606 Q63.5619 742.869 63.5619 738.126 Q63.5619 733.448 59.8698 730.71 Q56.1777 727.973 49.812 727.973 Q43.4781 727.973 39.786 730.71 Q36.0621 733.448 36.0621 738.126 M31.0968 738.126 Q31.0968 730.488 36.0621 726.127 Q41.0273 721.767 49.812 721.767 Q58.5649 721.767 63.5619 726.127 Q68.5272 730.488 68.5272 738.126 Q68.5272 745.797 63.5619 750.158 Q58.5649 754.486 49.812 754.486 Q41.0273 754.486 36.0621 750.158 Q31.0968 745.797 31.0968 738.126 Z" fill="#000000" fill-rule="nonzero" fill-opacity="1" /><path clip-path="url(#clip660)" d="M49.812 686.469 Q43.3508 686.469 39.6905 689.142 Q35.9984 691.784 35.9984 696.431 Q35.9984 701.078 39.6905 703.752 Q43.3508 706.393 49.812 706.393 Q56.2732 706.393 59.9653 703.752 Q63.6256 701.078 63.6256 696.431 Q63.6256 691.784 59.9653 689.142 Q56.2732 686.469 49.812 686.469 M37.3671 706.393 Q34.1842 704.547 32.6564 701.746 Q31.0968 698.914 31.0968 694.999 Q31.0968 688.506 36.2531 684.464 Q41.4093 680.39 49.812 680.39 Q58.2147 680.39 63.371 684.464 Q68.5272 688.506 68.5272 694.999 Q68.5272 698.914 66.9994 701.746 Q65.4398 704.547 62.257 706.393 L67.6042 706.393 L67.6042 712.282 L18.079 712.282 L18.079 706.393 L37.3671 706.393 Z" fill="#000000" fill-rule="nonzero" fill-opacity="1" /><path clip-path="url(#clip660)" d="M49.6847 654.481 Q49.6847 661.579 51.3079 664.316 Q52.9312 667.053 56.8461 667.053 Q59.9653 667.053 61.8114 665.016 Q63.6256 662.948 63.6256 659.415 Q63.6256 654.545 60.1881 651.617 Q56.7188 648.656 50.9897 648.656 L49.6847 648.656 L49.6847 654.481 M47.2657 642.8 L67.6042 642.8 L67.6042 648.656 L62.1933 648.656 Q65.4398 650.662 66.9994 653.654 Q68.5272 656.645 68.5272 660.974 Q68.5272 666.449 65.4716 669.695 Q62.3843 672.91 57.2281 672.91 Q51.2125 672.91 48.1569 668.899 Q45.1014 664.857 45.1014 656.868 L45.1014 648.656 L44.5285 648.656 Q40.4862 648.656 38.2901 651.33 Q36.0621 653.972 36.0621 658.778 Q36.0621 661.834 36.7941 664.73 Q37.5262 667.626 38.9903 670.3 L33.5795 670.3 Q32.3381 667.085 31.7334 664.062 Q31.0968 661.038 31.0968 658.173 Q31.0968 650.439 35.1072 646.619 Q39.1176 642.8 47.2657 642.8 Z" fill="#000000" fill-rule="nonzero" fill-opacity="1" /><path clip-path="url(#clip660)" d="M49.812 605.147 Q43.3508 605.147 39.6905 607.82 Q35.9984 610.462 35.9984 615.109 Q35.9984 619.756 39.6905 622.43 Q43.3508 625.072 49.812 625.072 Q56.2732 625.072 59.9653 622.43 Q63.6256 619.756 63.6256 615.109 Q63.6256 610.462 59.9653 607.82 Q56.2732 605.147 49.812 605.147 M37.3671 625.072 Q34.1842 623.225 32.6564 620.425 Q31.0968 617.592 31.0968 613.677 Q31.0968 607.184 36.2531 603.142 Q41.4093 599.068 49.812 599.068 Q58.2147 599.068 63.371 603.142 Q68.5272 607.184 68.5272 613.677 Q68.5272 617.592 66.9994 620.425 Q65.4398 623.225 62.257 625.072 L67.6042 625.072 L67.6042 630.96 L18.079 630.96 L18.079 625.072 L37.3671 625.072 Z" fill="#000000" fill-rule="nonzero" fill-opacity="1" /><path clip-path="url(#clip660)" d="M31.9562 589.36 L31.9562 583.503 L67.6042 583.503 L67.6042 589.36 L31.9562 589.36 M18.079 589.36 L18.079 583.503 L25.495 583.503 L25.495 589.36 L18.079 589.36 Z" fill="#000000" fill-rule="nonzero" fill-opacity="1" /><path clip-path="url(#clip660)" d="M18.079 571.249 L18.079 565.393 L67.6042 565.393 L67.6042 571.249 L18.079 571.249 Z" fill="#000000" fill-rule="nonzero" fill-opacity="1" /><path clip-path="url(#clip660)" d="M31.9562 553.139 L31.9562 547.283 L67.6042 547.283 L67.6042 553.139 L31.9562 553.139 M18.079 553.139 L18.079 547.283 L25.495 547.283 L25.495 553.139 L18.079 553.139 Z" fill="#000000" fill-rule="nonzero" fill-opacity="1" /><path clip-path="url(#clip660)" d="M21.8347 529.236 L31.9562 529.236 L31.9562 517.173 L36.5077 517.173 L36.5077 529.236 L55.8594 529.236 Q60.2199 529.236 61.4613 528.058 Q62.7026 526.849 62.7026 523.188 L62.7026 517.173 L67.6042 517.173 L67.6042 523.188 Q67.6042 529.968 65.0897 532.546 Q62.5434 535.124 55.8594 535.124 L36.5077 535.124 L36.5077 539.421 L31.9562 539.421 L31.9562 535.124 L21.8347 535.124 L21.8347 529.236 Z" fill="#000000" fill-rule="nonzero" fill-opacity="1" /><path clip-path="url(#clip660)" d="M70.9143 494.638 Q77.28 497.121 79.2216 499.476 Q81.1631 501.831 81.1631 505.778 L81.1631 510.457 L76.2615 510.457 L76.2615 507.02 Q76.2615 504.601 75.1157 503.264 Q73.9699 501.927 69.7048 500.304 L67.0312 499.253 L31.9562 513.672 L31.9562 507.465 L59.838 496.325 L31.9562 485.185 L31.9562 478.979 L70.9143 494.638 Z" fill="#000000" fill-rule="nonzero" fill-opacity="1" /><path clip-path="url(#clip660)" d="M477.237 12.096 L485.501 12.096 L498.22 63.2184 L510.9 12.096 L520.095 12.096 L532.815 63.2184 L545.495 12.096 L553.799 12.096 L538.608 72.576 L528.319 72.576 L515.558 20.0763 L502.676 72.576 L492.387 72.576 L477.237 12.096 Z" fill="#000000" fill-rule="nonzero" fill-opacity="1" /><path clip-path="url(#clip660)" d="M579.644 49.7694 Q570.61 49.7694 567.126 51.8354 Q563.643 53.9013 563.643 58.8839 Q563.643 62.8538 566.235 65.2034 Q568.868 67.5124 573.365 67.5124 Q579.563 67.5124 583.289 63.1374 Q587.057 58.7219 587.057 51.4303 L587.057 49.7694 L579.644 49.7694 M594.51 46.6907 L594.51 72.576 L587.057 72.576 L587.057 65.6895 Q584.505 69.8214 580.697 71.8063 Q576.889 73.7508 571.38 73.7508 Q564.412 73.7508 560.28 69.8619 Q556.189 65.9325 556.189 59.3701 Q556.189 51.7138 561.293 47.825 Q566.438 43.9361 576.605 43.9361 L587.057 43.9361 L587.057 43.2069 Q587.057 38.0623 583.654 35.2672 Q580.292 32.4315 574.175 32.4315 Q570.286 32.4315 566.6 33.3632 Q562.913 34.295 559.511 36.1584 L559.511 29.2718 Q563.602 27.692 567.45 26.9223 Q571.299 26.1121 574.945 26.1121 Q584.788 26.1121 589.649 31.2163 Q594.51 36.3204 594.51 46.6907 Z" fill="#000000" fill-rule="nonzero" fill-opacity="1" /><path clip-path="url(#clip660)" d="M604.516 27.2059 L612.415 27.2059 L626.594 65.2844 L640.772 27.2059 L648.671 27.2059 L631.657 72.576 L621.53 72.576 L604.516 27.2059 Z" fill="#000000" fill-rule="nonzero" fill-opacity="1" /><path clip-path="url(#clip660)" d="M697.768 48.0275 L697.768 51.6733 L663.497 51.6733 Q663.983 59.3701 668.115 63.421 Q672.288 67.4314 679.701 67.4314 Q683.995 67.4314 688.005 66.3781 Q692.056 65.3249 696.026 63.2184 L696.026 70.267 Q692.016 71.9684 687.803 72.8596 Q683.59 73.7508 679.255 73.7508 Q668.399 73.7508 662.039 67.4314 Q655.72 61.1119 655.72 50.3365 Q655.72 39.1965 661.715 32.6746 Q667.751 26.1121 677.959 26.1121 Q687.114 26.1121 692.421 32.0264 Q697.768 37.9003 697.768 48.0275 M690.314 45.84 Q690.233 39.7232 686.871 36.0774 Q683.549 32.4315 678.04 32.4315 Q671.802 32.4315 668.034 35.9558 Q664.308 39.4801 663.74 45.8805 L690.314 45.84 Z" fill="#000000" fill-rule="nonzero" fill-opacity="1" /><path clip-path="url(#clip660)" d="M762.218 39.9662 Q768.092 41.222 771.373 45.1919 Q774.695 49.1618 774.695 54.9951 Q774.695 63.9476 768.537 68.8492 Q762.38 73.7508 751.037 73.7508 Q747.23 73.7508 743.179 72.9811 Q739.168 72.2519 734.874 70.7531 L734.874 62.8538 Q738.277 64.8388 742.328 65.8515 Q746.379 66.8642 750.794 66.8642 Q758.491 66.8642 762.501 63.826 Q766.552 60.7879 766.552 54.9951 Q766.552 49.6479 762.785 46.6502 Q759.058 43.612 752.374 43.612 L745.326 43.612 L745.326 36.8875 L752.698 36.8875 Q758.734 36.8875 761.934 34.4975 Q765.135 32.067 765.135 27.5299 Q765.135 22.8714 761.813 20.4004 Q758.532 17.8888 752.374 17.8888 Q749.012 17.8888 745.164 18.618 Q741.315 19.3471 736.697 20.8865 L736.697 13.5948 Q741.356 12.2985 745.407 11.6504 Q749.498 11.0023 753.103 11.0023 Q762.42 11.0023 767.849 15.2557 Q773.277 19.4686 773.277 26.6793 Q773.277 31.7024 770.401 35.1862 Q767.525 38.6294 762.218 39.9662 Z" fill="#000000" fill-rule="nonzero" fill-opacity="1" /><path clip-path="url(#clip660)" d="M791.06 62.2867 L799.608 62.2867 L799.608 72.576 L791.06 72.576 L791.06 62.2867 M791.06 29.6769 L799.608 29.6769 L799.608 39.9662 L791.06 39.9662 L791.06 29.6769 Z" fill="#000000" fill-rule="nonzero" fill-opacity="1" /><path clip-path="url(#clip660)" d="M872.483 44.2197 Q875.117 45.1109 877.588 48.0275 Q880.099 50.9442 882.611 56.0483 L890.915 72.576 L882.125 72.576 L874.387 57.061 Q871.39 50.9847 868.554 48.9997 Q865.759 47.0148 860.898 47.0148 L851.986 47.0148 L851.986 72.576 L843.803 72.576 L843.803 12.096 L862.275 12.096 Q872.646 12.096 877.75 16.4305 Q882.854 20.7649 882.854 29.5149 Q882.854 35.2267 880.18 38.994 Q877.547 42.7613 872.483 44.2197 M851.986 18.8205 L851.986 40.2903 L862.275 40.2903 Q868.19 40.2903 871.187 37.5762 Q874.225 34.8216 874.225 29.5149 Q874.225 24.2082 871.187 21.5346 Q868.19 18.8205 862.275 18.8205 L851.986 18.8205 Z" fill="#000000" fill-rule="nonzero" fill-opacity="1" /><path clip-path="url(#clip660)" d="M936.204 48.0275 L936.204 51.6733 L901.934 51.6733 Q902.42 59.3701 906.552 63.421 Q910.724 67.4314 918.137 67.4314 Q922.431 67.4314 926.442 66.3781 Q930.492 65.3249 934.462 63.2184 L934.462 70.267 Q930.452 71.9684 926.239 72.8596 Q922.026 73.7508 917.692 73.7508 Q906.835 73.7508 900.475 67.4314 Q894.156 61.1119 894.156 50.3365 Q894.156 39.1965 900.151 32.6746 Q906.187 26.1121 916.395 26.1121 Q925.55 26.1121 930.857 32.0264 Q936.204 37.9003 936.204 48.0275 M928.751 45.84 Q928.67 39.7232 925.307 36.0774 Q921.986 32.4315 916.476 32.4315 Q910.238 32.4315 906.471 35.9558 Q902.744 39.4801 902.177 45.8805 L928.751 45.84 Z" fill="#000000" fill-rule="nonzero" fill-opacity="1" /><path clip-path="url(#clip660)" d="M981.088 28.9478 L981.088 35.9153 Q977.929 34.1734 974.728 33.3227 Q971.569 32.4315 968.328 32.4315 Q961.077 32.4315 957.066 37.0496 Q953.056 41.6271 953.056 49.9314 Q953.056 58.2358 957.066 62.8538 Q961.077 67.4314 968.328 67.4314 Q971.569 67.4314 974.728 66.5807 Q977.929 65.6895 981.088 63.9476 L981.088 70.8341 Q977.969 72.2924 974.607 73.0216 Q971.285 73.7508 967.518 73.7508 Q957.269 73.7508 951.233 67.3098 Q945.197 60.8689 945.197 49.9314 Q945.197 38.832 951.274 32.472 Q957.39 26.1121 968.004 26.1121 Q971.447 26.1121 974.728 26.8413 Q978.01 27.5299 981.088 28.9478 Z" fill="#000000" fill-rule="nonzero" fill-opacity="1" /><path clip-path="url(#clip660)" d="M1011.63 32.4315 Q1005.64 32.4315 1002.15 37.1306 Q998.669 41.7891 998.669 49.9314 Q998.669 58.0738 1002.11 62.7728 Q1005.6 67.4314 1011.63 67.4314 Q1017.59 67.4314 1021.07 62.7323 Q1024.55 58.0333 1024.55 49.9314 Q1024.55 41.8701 1021.07 37.1711 Q1017.59 32.4315 1011.63 32.4315 M1011.63 26.1121 Q1021.35 26.1121 1026.9 32.4315 Q1032.45 38.7509 1032.45 49.9314 Q1032.45 61.0714 1026.9 67.4314 Q1021.35 73.7508 1011.63 73.7508 Q1001.87 73.7508 996.32 67.4314 Q990.81 61.0714 990.81 49.9314 Q990.81 38.7509 996.32 32.4315 Q1001.87 26.1121 1011.63 26.1121 Z" fill="#000000" fill-rule="nonzero" fill-opacity="1" /><path clip-path="url(#clip660)" d="M1039.46 27.2059 L1047.36 27.2059 L1061.54 65.2844 L1075.72 27.2059 L1083.62 27.2059 L1066.6 72.576 L1056.48 72.576 L1039.46 27.2059 Z" fill="#000000" fill-rule="nonzero" fill-opacity="1" /><path clip-path="url(#clip660)" d="M1132.71 48.0275 L1132.71 51.6733 L1098.44 51.6733 Q1098.93 59.3701 1103.06 63.421 Q1107.23 67.4314 1114.65 67.4314 Q1118.94 67.4314 1122.95 66.3781 Q1127 65.3249 1130.97 63.2184 L1130.97 70.267 Q1126.96 71.9684 1122.75 72.8596 Q1118.54 73.7508 1114.2 73.7508 Q1103.34 73.7508 1096.98 67.4314 Q1090.67 61.1119 1090.67 50.3365 Q1090.67 39.1965 1096.66 32.6746 Q1102.7 26.1121 1112.9 26.1121 Q1122.06 26.1121 1127.37 32.0264 Q1132.71 37.9003 1132.71 48.0275 M1125.26 45.84 Q1125.18 39.7232 1121.82 36.0774 Q1118.49 32.4315 1112.99 32.4315 Q1106.75 32.4315 1102.98 35.9558 Q1099.25 39.4801 1098.69 45.8805 L1125.26 45.84 Z" fill="#000000" fill-rule="nonzero" fill-opacity="1" /><path clip-path="url(#clip660)" d="M1171.24 34.1734 Q1169.98 33.4443 1168.48 33.1202 Q1167.02 32.7556 1165.24 32.7556 Q1158.92 32.7556 1155.52 36.8875 Q1152.16 40.9789 1152.16 48.6757 L1152.16 72.576 L1144.66 72.576 L1144.66 27.2059 L1152.16 27.2059 L1152.16 34.2544 Q1154.51 30.1225 1158.27 28.1376 Q1162.04 26.1121 1167.43 26.1121 Q1168.2 26.1121 1169.13 26.2337 Q1170.06 26.3147 1171.2 26.5172 L1171.24 34.1734 Z" fill="#000000" fill-rule="nonzero" fill-opacity="1" /><path clip-path="url(#clip660)" d="M1197.93 76.7889 Q1194.77 84.8907 1191.78 87.3618 Q1188.78 89.8329 1183.75 89.8329 L1177.8 89.8329 L1177.8 83.5945 L1182.18 83.5945 Q1185.25 83.5945 1186.96 82.1361 Q1188.66 80.6778 1190.72 75.2496 L1192.06 71.8468 L1173.71 27.2059 L1181.61 27.2059 L1195.79 62.6918 L1209.96 27.2059 L1217.86 27.2059 L1197.93 76.7889 Z" fill="#000000" fill-rule="nonzero" fill-opacity="1" /><path clip-path="url(#clip660)" d="M1254.52 27.2059 L1261.98 27.2059 L1261.98 72.576 L1254.52 72.576 L1254.52 27.2059 M1254.52 9.54393 L1261.98 9.54393 L1261.98 18.9825 L1254.52 18.9825 L1254.52 9.54393 Z" fill="#000000" fill-rule="nonzero" fill-opacity="1" /><path clip-path="url(#clip660)" d="M1315.29 45.1919 L1315.29 72.576 L1307.83 72.576 L1307.83 45.4349 Q1307.83 38.994 1305.32 35.7938 Q1302.81 32.5936 1297.79 32.5936 Q1291.75 32.5936 1288.27 36.4419 Q1284.78 40.2903 1284.78 46.9338 L1284.78 72.576 L1277.29 72.576 L1277.29 27.2059 L1284.78 27.2059 L1284.78 34.2544 Q1287.46 30.163 1291.06 28.1376 Q1294.71 26.1121 1299.45 26.1121 Q1307.27 26.1121 1311.28 30.9732 Q1315.29 35.7938 1315.29 45.1919 Z" fill="#000000" fill-rule="nonzero" fill-opacity="1" /><path clip-path="url(#clip660)" d="M1337.53 14.324 L1337.53 27.2059 L1352.88 27.2059 L1352.88 32.9987 L1337.53 32.9987 L1337.53 57.6282 Q1337.53 63.1779 1339.03 64.7578 Q1340.57 66.3376 1345.22 66.3376 L1352.88 66.3376 L1352.88 72.576 L1345.22 72.576 Q1336.6 72.576 1333.31 69.3758 Q1330.03 66.1351 1330.03 57.6282 L1330.03 32.9987 L1324.56 32.9987 L1324.56 27.2059 L1330.03 27.2059 L1330.03 14.324 L1337.53 14.324 Z" fill="#000000" fill-rule="nonzero" fill-opacity="1" /><path clip-path="url(#clip660)" d="M1401.49 48.0275 L1401.49 51.6733 L1367.22 51.6733 Q1367.71 59.3701 1371.84 63.421 Q1376.01 67.4314 1383.42 67.4314 Q1387.72 67.4314 1391.73 66.3781 Q1395.78 65.3249 1399.75 63.2184 L1399.75 70.267 Q1395.74 71.9684 1391.53 72.8596 Q1387.31 73.7508 1382.98 73.7508 Q1372.12 73.7508 1365.76 67.4314 Q1359.44 61.1119 1359.44 50.3365 Q1359.44 39.1965 1365.44 32.6746 Q1371.47 26.1121 1381.68 26.1121 Q1390.84 26.1121 1396.14 32.0264 Q1401.49 37.9003 1401.49 48.0275 M1394.04 45.84 Q1393.96 39.7232 1390.59 36.0774 Q1387.27 32.4315 1381.76 32.4315 Q1375.52 32.4315 1371.76 35.9558 Q1368.03 39.4801 1367.46 45.8805 L1394.04 45.84 Z" fill="#000000" fill-rule="nonzero" fill-opacity="1" /><path clip-path="url(#clip660)" d="M1440.02 34.1734 Q1438.76 33.4443 1437.26 33.1202 Q1435.8 32.7556 1434.02 32.7556 Q1427.7 32.7556 1424.3 36.8875 Q1420.94 40.9789 1420.94 48.6757 L1420.94 72.576 L1413.44 72.576 L1413.44 27.2059 L1420.94 27.2059 L1420.94 34.2544 Q1423.28 30.1225 1427.05 28.1376 Q1430.82 26.1121 1436.21 26.1121 Q1436.98 26.1121 1437.91 26.2337 Q1438.84 26.3147 1439.97 26.5172 L1440.02 34.1734 Z" fill="#000000" fill-rule="nonzero" fill-opacity="1" /><path clip-path="url(#clip660)" d="M1442.49 27.2059 L1450.39 27.2059 L1464.56 65.2844 L1478.74 27.2059 L1486.64 27.2059 L1469.63 72.576 L1459.5 72.576 L1442.49 27.2059 Z" fill="#000000" fill-rule="nonzero" fill-opacity="1" /><path clip-path="url(#clip660)" d="M1517.55 49.7694 Q1508.52 49.7694 1505.03 51.8354 Q1501.55 53.9013 1501.55 58.8839 Q1501.55 62.8538 1504.14 65.2034 Q1506.77 67.5124 1511.27 67.5124 Q1517.47 67.5124 1521.2 63.1374 Q1524.96 58.7219 1524.96 51.4303 L1524.96 49.7694 L1517.55 49.7694 M1532.42 46.6907 L1532.42 72.576 L1524.96 72.576 L1524.96 65.6895 Q1522.41 69.8214 1518.6 71.8063 Q1514.79 73.7508 1509.29 73.7508 Q1502.32 73.7508 1498.19 69.8619 Q1494.09 65.9325 1494.09 59.3701 Q1494.09 51.7138 1499.2 47.825 Q1504.34 43.9361 1514.51 43.9361 L1524.96 43.9361 L1524.96 43.2069 Q1524.96 38.0623 1521.56 35.2672 Q1518.2 32.4315 1512.08 32.4315 Q1508.19 32.4315 1504.51 33.3632 Q1500.82 34.295 1497.42 36.1584 L1497.42 29.2718 Q1501.51 27.692 1505.36 26.9223 Q1509.2 26.1121 1512.85 26.1121 Q1522.69 26.1121 1527.56 31.2163 Q1532.42 36.3204 1532.42 46.6907 Z" fill="#000000" fill-rule="nonzero" fill-opacity="1" /><path clip-path="url(#clip660)" d="M1547.77 9.54393 L1555.22 9.54393 L1555.22 72.576 L1547.77 72.576 L1547.77 9.54393 Z" fill="#000000" fill-rule="nonzero" fill-opacity="1" /><path clip-path="url(#clip660)" d="M1629.84 28.9478 L1629.84 35.9153 Q1626.68 34.1734 1623.48 33.3227 Q1620.32 32.4315 1617.08 32.4315 Q1609.83 32.4315 1605.82 37.0496 Q1601.81 41.6271 1601.81 49.9314 Q1601.81 58.2358 1605.82 62.8538 Q1609.83 67.4314 1617.08 67.4314 Q1620.32 67.4314 1623.48 66.5807 Q1626.68 65.6895 1629.84 63.9476 L1629.84 70.8341 Q1626.72 72.2924 1623.36 73.0216 Q1620.04 73.7508 1616.27 73.7508 Q1606.02 73.7508 1599.99 67.3098 Q1593.95 60.8689 1593.95 49.9314 Q1593.95 38.832 1600.03 32.472 Q1606.14 26.1121 1616.76 26.1121 Q1620.2 26.1121 1623.48 26.8413 Q1626.76 27.5299 1629.84 28.9478 Z" fill="#000000" fill-rule="nonzero" fill-opacity="1" /><path clip-path="url(#clip660)" d="M1680.52 45.1919 L1680.52 72.576 L1673.06 72.576 L1673.06 45.4349 Q1673.06 38.994 1670.55 35.7938 Q1668.04 32.5936 1663.02 32.5936 Q1656.98 32.5936 1653.5 36.4419 Q1650.01 40.2903 1650.01 46.9338 L1650.01 72.576 L1642.52 72.576 L1642.52 9.54393 L1650.01 9.54393 L1650.01 34.2544 Q1652.69 30.163 1656.29 28.1376 Q1659.94 26.1121 1664.68 26.1121 Q1672.5 26.1121 1676.51 30.9732 Q1680.52 35.7938 1680.52 45.1919 Z" fill="#000000" fill-rule="nonzero" fill-opacity="1" /><path clip-path="url(#clip660)" d="M1734.19 48.0275 L1734.19 51.6733 L1699.92 51.6733 Q1700.41 59.3701 1704.54 63.421 Q1708.71 67.4314 1716.12 67.4314 Q1720.42 67.4314 1724.43 66.3781 Q1728.48 65.3249 1732.45 63.2184 L1732.45 70.267 Q1728.44 71.9684 1724.23 72.8596 Q1720.01 73.7508 1715.68 73.7508 Q1704.82 73.7508 1698.46 67.4314 Q1692.14 61.1119 1692.14 50.3365 Q1692.14 39.1965 1698.14 32.6746 Q1704.17 26.1121 1714.38 26.1121 Q1723.54 26.1121 1728.84 32.0264 Q1734.19 37.9003 1734.19 48.0275 M1726.74 45.84 Q1726.66 39.7232 1723.29 36.0774 Q1719.97 32.4315 1714.46 32.4315 Q1708.23 32.4315 1704.46 35.9558 Q1700.73 39.4801 1700.16 45.8805 L1726.74 45.84 Z" fill="#000000" fill-rule="nonzero" fill-opacity="1" /><path clip-path="url(#clip660)" d="M1779.08 28.9478 L1779.08 35.9153 Q1775.92 34.1734 1772.72 33.3227 Q1769.56 32.4315 1766.32 32.4315 Q1759.06 32.4315 1755.05 37.0496 Q1751.04 41.6271 1751.04 49.9314 Q1751.04 58.2358 1755.05 62.8538 Q1759.06 67.4314 1766.32 67.4314 Q1769.56 67.4314 1772.72 66.5807 Q1775.92 65.6895 1779.08 63.9476 L1779.08 70.8341 Q1775.96 72.2924 1772.59 73.0216 Q1769.27 73.7508 1765.51 73.7508 Q1755.26 73.7508 1749.22 67.3098 Q1743.18 60.8689 1743.18 49.9314 Q1743.18 38.832 1749.26 32.472 Q1755.38 26.1121 1765.99 26.1121 Q1769.43 26.1121 1772.72 26.8413 Q1776 27.5299 1779.08 28.9478 Z" fill="#000000" fill-rule="nonzero" fill-opacity="1" /><path clip-path="url(#clip660)" d="M1791.76 9.54393 L1799.25 9.54393 L1799.25 46.7717 L1821.49 27.2059 L1831.01 27.2059 L1806.95 48.4326 L1832.02 72.576 L1822.3 72.576 L1799.25 50.4176 L1799.25 72.576 L1791.76 72.576 L1791.76 9.54393 Z" fill="#000000" fill-rule="nonzero" fill-opacity="1" /><path clip-path="url(#clip662)" d="M344.619 260.821 L344.619 1173.47 L429.883 1173.47 L429.883 260.821 L344.619 260.821 L344.619 260.821  Z" fill="#009af9" fill-rule="evenodd" fill-opacity="0.5"/>
<polyline clip-path="url(#clip662)" style="stroke:#000000; stroke-linecap:round; stroke-linejoin:round; stroke-width:4; stroke-opacity:0.5; fill:none" points="344.619,260.821 344.619,1173.47 429.883,1173.47 429.883,260.821 344.619,260.821 "/>
<path clip-path="url(#clip662)" d="M429.883 523.454 L429.883 1173.47 L515.148 1173.47 L515.148 523.454 L429.883 523.454 L429.883 523.454  Z" fill="#009af9" fill-rule="evenodd" fill-opacity="0.5"/>
<polyline clip-path="url(#clip662)" style="stroke:#000000; stroke-linecap:round; stroke-linejoin:round; stroke-width:4; stroke-opacity:0.5; fill:none" points="429.883,523.454 429.883,1173.47 515.148,1173.47 515.148,523.454 429.883,523.454 "/>
<path clip-path="url(#clip662)" d="M515.148 536.586 L515.148 1173.47 L600.412 1173.47 L600.412 536.586 L515.148 536.586 L515.148 536.586  Z" fill="#009af9" fill-rule="evenodd" fill-opacity="0.5"/>
<polyline clip-path="url(#clip662)" style="stroke:#000000; stroke-linecap:round; stroke-linejoin:round; stroke-width:4; stroke-opacity:0.5; fill:none" points="515.148,536.586 515.148,1173.47 600.412,1173.47 600.412,536.586 515.148,536.586 "/>
<path clip-path="url(#clip662)" d="M600.412 615.375 L600.412 1173.47 L685.676 1173.47 L685.676 615.375 L600.412 615.375 L600.412 615.375  Z" fill="#009af9" fill-rule="evenodd" fill-opacity="0.5"/>
<polyline clip-path="url(#clip662)" style="stroke:#000000; stroke-linecap:round; stroke-linejoin:round; stroke-width:4; stroke-opacity:0.5; fill:none" points="600.412,615.375 600.412,1173.47 685.676,1173.47 685.676,615.375 600.412,615.375 "/>
<path clip-path="url(#clip662)" d="M685.676 700.731 L685.676 1173.47 L770.94 1173.47 L770.94 700.731 L685.676 700.731 L685.676 700.731  Z" fill="#009af9" fill-rule="evenodd" fill-opacity="0.5"/>
<polyline clip-path="url(#clip662)" style="stroke:#000000; stroke-linecap:round; stroke-linejoin:round; stroke-width:4; stroke-opacity:0.5; fill:none" points="685.676,700.731 685.676,1173.47 770.94,1173.47 770.94,700.731 685.676,700.731 "/>
<path clip-path="url(#clip662)" d="M770.94 779.521 L770.94 1173.47 L856.204 1173.47 L856.204 779.521 L770.94 779.521 L770.94 779.521  Z" fill="#009af9" fill-rule="evenodd" fill-opacity="0.5"/>
<polyline clip-path="url(#clip662)" style="stroke:#000000; stroke-linecap:round; stroke-linejoin:round; stroke-width:4; stroke-opacity:0.5; fill:none" points="770.94,779.521 770.94,1173.47 856.204,1173.47 856.204,779.521 770.94,779.521 "/>
<path clip-path="url(#clip662)" d="M856.204 779.521 L856.204 1173.47 L941.469 1173.47 L941.469 779.521 L856.204 779.521 L856.204 779.521  Z" fill="#009af9" fill-rule="evenodd" fill-opacity="0.5"/>
<polyline clip-path="url(#clip662)" style="stroke:#000000; stroke-linecap:round; stroke-linejoin:round; stroke-width:4; stroke-opacity:0.5; fill:none" points="856.204,779.521 856.204,1173.47 941.469,1173.47 941.469,779.521 856.204,779.521 "/>
<path clip-path="url(#clip662)" d="M941.469 923.969 L941.469 1173.47 L1026.73 1173.47 L1026.73 923.969 L941.469 923.969 L941.469 923.969  Z" fill="#009af9" fill-rule="evenodd" fill-opacity="0.5"/>
<polyline clip-path="url(#clip662)" style="stroke:#000000; stroke-linecap:round; stroke-linejoin:round; stroke-width:4; stroke-opacity:0.5; fill:none" points="941.469,923.969 941.469,1173.47 1026.73,1173.47 1026.73,923.969 941.469,923.969 "/>
<path clip-path="url(#clip662)" d="M1026.73 989.628 L1026.73 1173.47 L1112 1173.47 L1112 989.628 L1026.73 989.628 L1026.73 989.628  Z" fill="#009af9" fill-rule="evenodd" fill-opacity="0.5"/>
<polyline clip-path="url(#clip662)" style="stroke:#000000; stroke-linecap:round; stroke-linejoin:round; stroke-width:4; stroke-opacity:0.5; fill:none" points="1026.73,989.628 1026.73,1173.47 1112,1173.47 1112,989.628 1026.73,989.628 "/>
<path clip-path="url(#clip662)" d="M1112 1002.76 L1112 1173.47 L1197.26 1173.47 L1197.26 1002.76 L1112 1002.76 L1112 1002.76  Z" fill="#009af9" fill-rule="evenodd" fill-opacity="0.5"/>
<polyline clip-path="url(#clip662)" style="stroke:#000000; stroke-linecap:round; stroke-linejoin:round; stroke-width:4; stroke-opacity:0.5; fill:none" points="1112,1002.76 1112,1173.47 1197.26,1173.47 1197.26,1002.76 1112,1002.76 "/>
<path clip-path="url(#clip662)" d="M1197.26 1114.38 L1197.26 1173.47 L1282.53 1173.47 L1282.53 1114.38 L1197.26 1114.38 L1197.26 1114.38  Z" fill="#009af9" fill-rule="evenodd" fill-opacity="0.5"/>
<polyline clip-path="url(#clip662)" style="stroke:#000000; stroke-linecap:round; stroke-linejoin:round; stroke-width:4; stroke-opacity:0.5; fill:none" points="1197.26,1114.38 1197.26,1173.47 1282.53,1173.47 1282.53,1114.38 1197.26,1114.38 "/>
<path clip-path="url(#clip662)" d="M1282.53 1107.81 L1282.53 1173.47 L1367.79 1173.47 L1367.79 1107.81 L1282.53 1107.81 L1282.53 1107.81  Z" fill="#009af9" fill-rule="evenodd" fill-opacity="0.5"/>
<polyline clip-path="url(#clip662)" style="stroke:#000000; stroke-linecap:round; stroke-linejoin:round; stroke-width:4; stroke-opacity:0.5; fill:none" points="1282.53,1107.81 1282.53,1173.47 1367.79,1173.47 1367.79,1107.81 1282.53,1107.81 "/>
<path clip-path="url(#clip662)" d="M1367.79 1120.94 L1367.79 1173.47 L1453.05 1173.47 L1453.05 1120.94 L1367.79 1120.94 L1367.79 1120.94  Z" fill="#009af9" fill-rule="evenodd" fill-opacity="0.5"/>
<polyline clip-path="url(#clip662)" style="stroke:#000000; stroke-linecap:round; stroke-linejoin:round; stroke-width:4; stroke-opacity:0.5; fill:none" points="1367.79,1120.94 1367.79,1173.47 1453.05,1173.47 1453.05,1120.94 1367.79,1120.94 "/>
<path clip-path="url(#clip662)" d="M1453.05 1160.34 L1453.05 1173.47 L1538.32 1173.47 L1538.32 1160.34 L1453.05 1160.34 L1453.05 1160.34  Z" fill="#009af9" fill-rule="evenodd" fill-opacity="0.5"/>
<polyline clip-path="url(#clip662)" style="stroke:#000000; stroke-linecap:round; stroke-linejoin:round; stroke-width:4; stroke-opacity:0.5; fill:none" points="1453.05,1160.34 1453.05,1173.47 1538.32,1173.47 1538.32,1160.34 1453.05,1160.34 "/>
<path clip-path="url(#clip662)" d="M1538.32 1134.08 L1538.32 1173.47 L1623.58 1173.47 L1623.58 1134.08 L1538.32 1134.08 L1538.32 1134.08  Z" fill="#009af9" fill-rule="evenodd" fill-opacity="0.5"/>
<polyline clip-path="url(#clip662)" style="stroke:#000000; stroke-linecap:round; stroke-linejoin:round; stroke-width:4; stroke-opacity:0.5; fill:none" points="1538.32,1134.08 1538.32,1173.47 1623.58,1173.47 1623.58,1134.08 1538.32,1134.08 "/>
<path clip-path="url(#clip662)" d="M1623.58 1140.64 L1623.58 1173.47 L1708.85 1173.47 L1708.85 1140.64 L1623.58 1140.64 L1623.58 1140.64  Z" fill="#009af9" fill-rule="evenodd" fill-opacity="0.5"/>
<polyline clip-path="url(#clip662)" style="stroke:#000000; stroke-linecap:round; stroke-linejoin:round; stroke-width:4; stroke-opacity:0.5; fill:none" points="1623.58,1140.64 1623.58,1173.47 1708.85,1173.47 1708.85,1140.64 1623.58,1140.64 "/>
<path clip-path="url(#clip662)" d="M1708.85 1166.9 L1708.85 1173.47 L1794.11 1173.47 L1794.11 1166.9 L1708.85 1166.9 L1708.85 1166.9  Z" fill="#009af9" fill-rule="evenodd" fill-opacity="0.5"/>
<polyline clip-path="url(#clip662)" style="stroke:#000000; stroke-linecap:round; stroke-linejoin:round; stroke-width:4; stroke-opacity:0.5; fill:none" points="1708.85,1166.9 1708.85,1173.47 1794.11,1173.47 1794.11,1166.9 1708.85,1166.9 "/>
<path clip-path="url(#clip662)" d="M1794.11 1166.9 L1794.11 1173.47 L1879.37 1173.47 L1879.37 1166.9 L1794.11 1166.9 L1794.11 1166.9  Z" fill="#009af9" fill-rule="evenodd" fill-opacity="0.5"/>
<polyline clip-path="url(#clip662)" style="stroke:#000000; stroke-linecap:round; stroke-linejoin:round; stroke-width:4; stroke-opacity:0.5; fill:none" points="1794.11,1166.9 1794.11,1173.47 1879.37,1173.47 1879.37,1166.9 1794.11,1166.9 "/>
<path clip-path="url(#clip662)" d="M1879.37 1173.47 L1879.37 1173.47 L1964.64 1173.47 L1964.64 1173.47 L1879.37 1173.47 L1879.37 1173.47  Z" fill="#009af9" fill-rule="evenodd" fill-opacity="0.5"/>
<polyline clip-path="url(#clip662)" style="stroke:#000000; stroke-linecap:round; stroke-linejoin:round; stroke-width:4; stroke-opacity:0.5; fill:none" points="1879.37,1173.47 1879.37,1173.47 1964.64,1173.47 1879.37,1173.47 "/>
<circle clip-path="url(#clip662)" style="fill:#009af9; stroke:none; fill-opacity:0" cx="387.251" cy="260.821" r="2"/>
<circle clip-path="url(#clip662)" style="fill:#009af9; stroke:none; fill-opacity:0" cx="472.516" cy="523.454" r="2"/>
<circle clip-path="url(#clip662)" style="fill:#009af9; stroke:none; fill-opacity:0" cx="557.78" cy="536.586" r="2"/>
<circle clip-path="url(#clip662)" style="fill:#009af9; stroke:none; fill-opacity:0" cx="643.044" cy="615.375" r="2"/>
<circle clip-path="url(#clip662)" style="fill:#009af9; stroke:none; fill-opacity:0" cx="728.308" cy="700.731" r="2"/>
<circle clip-path="url(#clip662)" style="fill:#009af9; stroke:none; fill-opacity:0" cx="813.572" cy="779.521" r="2"/>
<circle clip-path="url(#clip662)" style="fill:#009af9; stroke:none; fill-opacity:0" cx="898.836" cy="779.521" r="2"/>
<circle clip-path="url(#clip662)" style="fill:#009af9; stroke:none; fill-opacity:0" cx="984.101" cy="923.969" r="2"/>
<circle clip-path="url(#clip662)" style="fill:#009af9; stroke:none; fill-opacity:0" cx="1069.36" cy="989.628" r="2"/>
<circle clip-path="url(#clip662)" style="fill:#009af9; stroke:none; fill-opacity:0" cx="1154.63" cy="1002.76" r="2"/>
<circle clip-path="url(#clip662)" style="fill:#009af9; stroke:none; fill-opacity:0" cx="1239.89" cy="1114.38" r="2"/>
<circle clip-path="url(#clip662)" style="fill:#009af9; stroke:none; fill-opacity:0" cx="1325.16" cy="1107.81" r="2"/>
<circle clip-path="url(#clip662)" style="fill:#009af9; stroke:none; fill-opacity:0" cx="1410.42" cy="1120.94" r="2"/>
<circle clip-path="url(#clip662)" style="fill:#009af9; stroke:none; fill-opacity:0" cx="1495.69" cy="1160.34" r="2"/>
<circle clip-path="url(#clip662)" style="fill:#009af9; stroke:none; fill-opacity:0" cx="1580.95" cy="1134.08" r="2"/>
<circle clip-path="url(#clip662)" style="fill:#009af9; stroke:none; fill-opacity:0" cx="1666.21" cy="1140.64" r="2"/>
<circle clip-path="url(#clip662)" style="fill:#009af9; stroke:none; fill-opacity:0" cx="1751.48" cy="1166.9" r="2"/>
<circle clip-path="url(#clip662)" style="fill:#009af9; stroke:none; fill-opacity:0" cx="1836.74" cy="1166.9" r="2"/>
<circle clip-path="url(#clip662)" style="fill:#009af9; stroke:none; fill-opacity:0" cx="1922.01" cy="1173.47" r="2"/>
<polyline clip-path="url(#clip662)" style="stroke:#ff0000; stroke-linecap:round; stroke-linejoin:round; stroke-width:8; stroke-opacity:1; fill:none" points="344.619,120.723 429.883,346.99 515.148,524.625 600.412,664.081 685.676,773.564 770.94,859.516 856.204,926.994 941.469,979.969 1026.73,1021.56 1112,1054.21 1197.26,1079.84 1282.53,1099.97 1367.79,1115.76 1453.05,1128.17 1538.32,1137.9 1623.58,1145.55 1708.85,1151.55 1794.11,1156.26 1879.37,1159.96 1964.64,1162.86 "/>
<path clip-path="url(#clip660)" d="M1101.67 311.335 L2004.08 311.335 L2004.08 155.815 L1101.67 155.815  Z" fill="#ffffff" fill-rule="evenodd" fill-opacity="1"/>
<polyline clip-path="url(#clip660)" style="stroke:#000000; stroke-linecap:round; stroke-linejoin:round; stroke-width:4; stroke-opacity:1; fill:none" points="1101.67,311.335 2004.08,311.335 2004.08,155.815 1101.67,155.815 1101.67,311.335 "/>
<path clip-path="url(#clip660)" d="M1121.89 228.391 L1243.24 228.391 L1243.24 186.919 L1121.89 186.919 L1121.89 228.391  Z" fill="#009af9" fill-rule="evenodd" fill-opacity="0.5"/>
<polyline clip-path="url(#clip660)" style="stroke:#000000; stroke-linecap:round; stroke-linejoin:round; stroke-width:4; stroke-opacity:1; fill:none" points="1121.89,228.391 1243.24,228.391 1243.24,186.919 1121.89,186.919 1121.89,228.391 "/>
<path clip-path="url(#clip660)" d="M1263.47 190.375 L1285.32 190.375 L1285.32 194.31 L1268.14 194.31 L1268.14 204.541 L1284.6 204.541 L1284.6 208.476 L1268.14 208.476 L1268.14 220.999 L1285.73 220.999 L1285.73 224.935 L1263.47 224.935 L1263.47 190.375 Z" fill="#000000" fill-rule="nonzero" fill-opacity="1" /><path clip-path="url(#clip660)" d="M1313.42 203.986 Q1315.02 201.115 1317.24 199.75 Q1319.46 198.384 1322.47 198.384 Q1326.52 198.384 1328.72 201.231 Q1330.92 204.055 1330.92 209.287 L1330.92 224.935 L1326.64 224.935 L1326.64 209.425 Q1326.64 205.699 1325.32 203.893 Q1324 202.088 1321.29 202.088 Q1317.98 202.088 1316.06 204.287 Q1314.14 206.486 1314.14 210.282 L1314.14 224.935 L1309.85 224.935 L1309.85 209.425 Q1309.85 205.675 1308.54 203.893 Q1307.22 202.088 1304.46 202.088 Q1301.2 202.088 1299.28 204.31 Q1297.35 206.509 1297.35 210.282 L1297.35 224.935 L1293.07 224.935 L1293.07 199.009 L1297.35 199.009 L1297.35 203.037 Q1298.81 200.652 1300.85 199.518 Q1302.89 198.384 1305.69 198.384 Q1308.51 198.384 1310.48 199.819 Q1312.47 201.254 1313.42 203.986 Z" fill="#000000" fill-rule="nonzero" fill-opacity="1" /><path clip-path="url(#clip660)" d="M1343.54 221.046 L1343.54 234.796 L1339.25 234.796 L1339.25 199.009 L1343.54 199.009 L1343.54 202.944 Q1344.88 200.629 1346.91 199.518 Q1348.97 198.384 1351.82 198.384 Q1356.54 198.384 1359.48 202.134 Q1362.45 205.884 1362.45 211.995 Q1362.45 218.106 1359.48 221.856 Q1356.54 225.606 1351.82 225.606 Q1348.97 225.606 1346.91 224.495 Q1344.88 223.361 1343.54 221.046 M1358.03 211.995 Q1358.03 207.296 1356.08 204.634 Q1354.16 201.949 1350.78 201.949 Q1347.4 201.949 1345.46 204.634 Q1343.54 207.296 1343.54 211.995 Q1343.54 216.694 1345.46 219.379 Q1347.4 222.041 1350.78 222.041 Q1354.16 222.041 1356.08 219.379 Q1358.03 216.694 1358.03 211.995 Z" fill="#000000" fill-rule="nonzero" fill-opacity="1" /><path clip-path="url(#clip660)" d="M1369.51 199.009 L1373.77 199.009 L1373.77 224.935 L1369.51 224.935 L1369.51 199.009 M1369.51 188.916 L1373.77 188.916 L1373.77 194.31 L1369.51 194.31 L1369.51 188.916 Z" fill="#000000" fill-rule="nonzero" fill-opacity="1" /><path clip-path="url(#clip660)" d="M1397.7 202.99 Q1396.98 202.574 1396.13 202.388 Q1395.29 202.18 1394.28 202.18 Q1390.66 202.18 1388.72 204.541 Q1386.8 206.879 1386.8 211.277 L1386.8 224.935 L1382.52 224.935 L1382.52 199.009 L1386.8 199.009 L1386.8 203.037 Q1388.14 200.675 1390.29 199.541 Q1392.45 198.384 1395.53 198.384 Q1395.97 198.384 1396.5 198.453 Q1397.03 198.5 1397.68 198.615 L1397.7 202.99 Z" fill="#000000" fill-rule="nonzero" fill-opacity="1" /><path clip-path="url(#clip660)" d="M1402.17 199.009 L1406.43 199.009 L1406.43 224.935 L1402.17 224.935 L1402.17 199.009 M1402.17 188.916 L1406.43 188.916 L1406.43 194.31 L1402.17 194.31 L1402.17 188.916 Z" fill="#000000" fill-rule="nonzero" fill-opacity="1" /><path clip-path="url(#clip660)" d="M1434 200.004 L1434 203.986 Q1432.19 202.99 1430.36 202.504 Q1428.56 201.995 1426.71 201.995 Q1422.56 201.995 1420.27 204.634 Q1417.98 207.25 1417.98 211.995 Q1417.98 216.74 1420.27 219.379 Q1422.56 221.995 1426.71 221.995 Q1428.56 221.995 1430.36 221.509 Q1432.19 220.999 1434 220.004 L1434 223.939 Q1432.22 224.773 1430.29 225.189 Q1428.4 225.606 1426.24 225.606 Q1420.39 225.606 1416.94 221.925 Q1413.49 218.245 1413.49 211.995 Q1413.49 205.652 1416.96 202.018 Q1420.46 198.384 1426.52 198.384 Q1428.49 198.384 1430.36 198.801 Q1432.24 199.194 1434 200.004 Z" fill="#000000" fill-rule="nonzero" fill-opacity="1" /><path clip-path="url(#clip660)" d="M1453.19 211.902 Q1448.03 211.902 1446.03 213.083 Q1444.04 214.263 1444.04 217.111 Q1444.04 219.379 1445.53 220.722 Q1447.03 222.041 1449.6 222.041 Q1453.14 222.041 1455.27 219.541 Q1457.42 217.018 1457.42 212.851 L1457.42 211.902 L1453.19 211.902 M1461.68 210.143 L1461.68 224.935 L1457.42 224.935 L1457.42 220.999 Q1455.97 223.361 1453.79 224.495 Q1451.61 225.606 1448.47 225.606 Q1444.48 225.606 1442.12 223.384 Q1439.78 221.138 1439.78 217.388 Q1439.78 213.013 1442.7 210.791 Q1445.64 208.569 1451.45 208.569 L1457.42 208.569 L1457.42 208.152 Q1457.42 205.213 1455.48 203.615 Q1453.56 201.995 1450.06 201.995 Q1447.84 201.995 1445.73 202.527 Q1443.63 203.06 1441.68 204.125 L1441.68 200.189 Q1444.02 199.287 1446.22 198.847 Q1448.42 198.384 1450.5 198.384 Q1456.13 198.384 1458.9 201.3 Q1461.68 204.217 1461.68 210.143 Z" fill="#000000" fill-rule="nonzero" fill-opacity="1" /><path clip-path="url(#clip660)" d="M1470.46 188.916 L1474.71 188.916 L1474.71 224.935 L1470.46 224.935 L1470.46 188.916 Z" fill="#000000" fill-rule="nonzero" fill-opacity="1" /><path clip-path="url(#clip660)" d="M1517.47 194.912 Q1515.11 193.291 1509.58 193.291 Q1503.72 193.291 1503.72 196 Q1503.72 198.129 1509.83 199.24 Q1514.65 200.097 1517.35 202.689 Q1520.64 205.814 1520.64 212.226 Q1520.64 218.361 1517.47 221.972 Q1514.3 225.606 1508.74 225.606 Q1503.21 225.606 1500.02 221.972 Q1496.84 218.361 1496.84 211.995 Q1496.84 207.273 1500.02 203.453 Q1501.24 201.972 1502.98 201.138 Q1499.37 199.31 1499.37 196.046 Q1499.37 189.75 1509.58 189.75 Q1514.69 189.75 1517.47 191.37 L1517.47 194.912 M1506.17 202.296 Q1504.6 202.967 1503.33 204.657 Q1501.34 207.273 1501.34 211.995 Q1501.34 216.694 1503.3 219.333 Q1505.29 221.995 1508.74 221.995 Q1512.15 221.995 1514.14 219.31 Q1516.13 216.624 1516.13 212.226 Q1516.13 207.62 1514.02 205.398 Q1511.77 203.013 1508.86 202.759 Q1507.38 202.62 1506.17 202.296 Z" fill="#000000" fill-rule="nonzero" fill-opacity="1" /><path clip-path="url(#clip660)" d="M1553 188.963 Q1549.9 194.287 1548.4 199.495 Q1546.89 204.703 1546.89 210.05 Q1546.89 215.398 1548.4 220.652 Q1549.92 225.884 1553 231.185 L1549.3 231.185 Q1545.83 225.745 1544.09 220.49 Q1542.38 215.236 1542.38 210.05 Q1542.38 204.888 1544.09 199.657 Q1545.8 194.426 1549.3 188.963 L1553 188.963 Z" fill="#000000" fill-rule="nonzero" fill-opacity="1" /><path clip-path="url(#clip660)" d="M1579.92 200.004 L1579.92 203.986 Q1578.12 202.99 1576.29 202.504 Q1574.48 201.995 1572.63 201.995 Q1568.49 201.995 1566.2 204.634 Q1563.9 207.25 1563.9 211.995 Q1563.9 216.74 1566.2 219.379 Q1568.49 221.995 1572.63 221.995 Q1574.48 221.995 1576.29 221.509 Q1578.12 220.999 1579.92 220.004 L1579.92 223.939 Q1578.14 224.773 1576.22 225.189 Q1574.32 225.606 1572.17 225.606 Q1566.31 225.606 1562.86 221.925 Q1559.41 218.245 1559.41 211.995 Q1559.41 205.652 1562.89 202.018 Q1566.38 198.384 1572.45 198.384 Q1574.41 198.384 1576.29 198.801 Q1578.16 199.194 1579.92 200.004 Z" fill="#000000" fill-rule="nonzero" fill-opacity="1" /><path clip-path="url(#clip660)" d="M1597.38 201.995 Q1593.95 201.995 1591.96 204.68 Q1589.97 207.342 1589.97 211.995 Q1589.97 216.648 1591.94 219.333 Q1593.93 221.995 1597.38 221.995 Q1600.78 221.995 1602.77 219.31 Q1604.76 216.624 1604.76 211.995 Q1604.76 207.388 1602.77 204.703 Q1600.78 201.995 1597.38 201.995 M1597.38 198.384 Q1602.93 198.384 1606.1 201.995 Q1609.27 205.606 1609.27 211.995 Q1609.27 218.361 1606.1 221.995 Q1602.93 225.606 1597.38 225.606 Q1591.8 225.606 1588.63 221.995 Q1585.48 218.361 1585.48 211.995 Q1585.48 205.606 1588.63 201.995 Q1591.8 198.384 1597.38 198.384 Z" fill="#000000" fill-rule="nonzero" fill-opacity="1" /><path clip-path="url(#clip660)" d="M1636.52 203.986 Q1638.12 201.115 1640.34 199.75 Q1642.56 198.384 1645.57 198.384 Q1649.62 198.384 1651.82 201.231 Q1654.02 204.055 1654.02 209.287 L1654.02 224.935 L1649.74 224.935 L1649.74 209.425 Q1649.74 205.699 1648.42 203.893 Q1647.1 202.088 1644.39 202.088 Q1641.08 202.088 1639.16 204.287 Q1637.24 206.486 1637.24 210.282 L1637.24 224.935 L1632.95 224.935 L1632.95 209.425 Q1632.95 205.675 1631.64 203.893 Q1630.32 202.088 1627.56 202.088 Q1624.3 202.088 1622.38 204.31 Q1620.45 206.509 1620.45 210.282 L1620.45 224.935 L1616.17 224.935 L1616.17 199.009 L1620.45 199.009 L1620.45 203.037 Q1621.91 200.652 1623.95 199.518 Q1625.99 198.384 1628.79 198.384 Q1631.61 198.384 1633.58 199.819 Q1635.57 201.254 1636.52 203.986 Z" fill="#000000" fill-rule="nonzero" fill-opacity="1" /><path clip-path="url(#clip660)" d="M1666.64 221.046 L1666.64 234.796 L1662.35 234.796 L1662.35 199.009 L1666.64 199.009 L1666.64 202.944 Q1667.98 200.629 1670.01 199.518 Q1672.07 198.384 1674.92 198.384 Q1679.64 198.384 1682.58 202.134 Q1685.55 205.884 1685.55 211.995 Q1685.55 218.106 1682.58 221.856 Q1679.64 225.606 1674.92 225.606 Q1672.07 225.606 1670.01 224.495 Q1667.98 223.361 1666.64 221.046 M1681.13 211.995 Q1681.13 207.296 1679.18 204.634 Q1677.26 201.949 1673.88 201.949 Q1670.5 201.949 1668.56 204.634 Q1666.64 207.296 1666.64 211.995 Q1666.64 216.694 1668.56 219.379 Q1670.5 222.041 1673.88 222.041 Q1677.26 222.041 1679.18 219.379 Q1681.13 216.694 1681.13 211.995 Z" fill="#000000" fill-rule="nonzero" fill-opacity="1" /><path clip-path="url(#clip660)" d="M1692.61 188.916 L1696.87 188.916 L1696.87 224.935 L1692.61 224.935 L1692.61 188.916 Z" fill="#000000" fill-rule="nonzero" fill-opacity="1" /><path clip-path="url(#clip660)" d="M1727.95 210.907 L1727.95 212.99 L1708.37 212.99 Q1708.65 217.388 1711.01 219.703 Q1713.39 221.995 1717.63 221.995 Q1720.08 221.995 1722.38 221.393 Q1724.69 220.791 1726.96 219.587 L1726.96 223.615 Q1724.67 224.587 1722.26 225.097 Q1719.85 225.606 1717.38 225.606 Q1711.17 225.606 1707.54 221.995 Q1703.93 218.384 1703.93 212.226 Q1703.93 205.861 1707.35 202.134 Q1710.8 198.384 1716.63 198.384 Q1721.87 198.384 1724.9 201.763 Q1727.95 205.12 1727.95 210.907 M1723.7 209.657 Q1723.65 206.162 1721.73 204.078 Q1719.83 201.995 1716.68 201.995 Q1713.12 201.995 1710.96 204.009 Q1708.83 206.023 1708.51 209.68 L1723.7 209.657 Z" fill="#000000" fill-rule="nonzero" fill-opacity="1" /><path clip-path="url(#clip660)" d="M1739.16 191.648 L1739.16 199.009 L1747.93 199.009 L1747.93 202.319 L1739.16 202.319 L1739.16 216.393 Q1739.16 219.564 1740.01 220.467 Q1740.89 221.37 1743.56 221.37 L1747.93 221.37 L1747.93 224.935 L1743.56 224.935 Q1738.63 224.935 1736.75 223.106 Q1734.88 221.254 1734.88 216.393 L1734.88 202.319 L1731.75 202.319 L1731.75 199.009 L1734.88 199.009 L1734.88 191.648 L1739.16 191.648 Z" fill="#000000" fill-rule="nonzero" fill-opacity="1" /><path clip-path="url(#clip660)" d="M1775.71 210.907 L1775.71 212.99 L1756.13 212.99 Q1756.4 217.388 1758.76 219.703 Q1761.15 221.995 1765.38 221.995 Q1767.84 221.995 1770.13 221.393 Q1772.44 220.791 1774.71 219.587 L1774.71 223.615 Q1772.42 224.587 1770.01 225.097 Q1767.61 225.606 1765.13 225.606 Q1758.93 225.606 1755.29 221.995 Q1751.68 218.384 1751.68 212.226 Q1751.68 205.861 1755.11 202.134 Q1758.56 198.384 1764.39 198.384 Q1769.62 198.384 1772.65 201.763 Q1775.71 205.12 1775.71 210.907 M1771.45 209.657 Q1771.4 206.162 1769.48 204.078 Q1767.58 201.995 1764.44 201.995 Q1760.87 201.995 1758.72 204.009 Q1756.59 206.023 1756.26 209.68 L1771.45 209.657 Z" fill="#000000" fill-rule="nonzero" fill-opacity="1" /><path clip-path="url(#clip660)" d="M1812.79 202.99 Q1812.07 202.574 1811.22 202.388 Q1810.38 202.18 1809.37 202.18 Q1805.75 202.18 1803.81 204.541 Q1801.89 206.879 1801.89 211.277 L1801.89 224.935 L1797.61 224.935 L1797.61 199.009 L1801.89 199.009 L1801.89 203.037 Q1803.23 200.675 1805.38 199.541 Q1807.54 198.384 1810.62 198.384 Q1811.06 198.384 1811.59 198.453 Q1812.12 198.5 1812.77 198.615 L1812.79 202.99 Z" fill="#000000" fill-rule="nonzero" fill-opacity="1" /><path clip-path="url(#clip660)" d="M1838.39 210.907 L1838.39 212.99 L1818.81 212.99 Q1819.09 217.388 1821.45 219.703 Q1823.83 221.995 1828.07 221.995 Q1830.52 221.995 1832.81 221.393 Q1835.13 220.791 1837.4 219.587 L1837.4 223.615 Q1835.11 224.587 1832.7 225.097 Q1830.29 225.606 1827.81 225.606 Q1821.61 225.606 1817.98 221.995 Q1814.37 218.384 1814.37 212.226 Q1814.37 205.861 1817.79 202.134 Q1821.24 198.384 1827.07 198.384 Q1832.31 198.384 1835.34 201.763 Q1838.39 205.12 1838.39 210.907 M1834.13 209.657 Q1834.09 206.162 1832.17 204.078 Q1830.27 201.995 1827.12 201.995 Q1823.56 201.995 1821.4 204.009 Q1819.27 206.023 1818.95 209.68 L1834.13 209.657 Z" fill="#000000" fill-rule="nonzero" fill-opacity="1" /><path clip-path="url(#clip660)" d="M1864.04 200.004 L1864.04 203.986 Q1862.24 202.99 1860.41 202.504 Q1858.6 201.995 1856.75 201.995 Q1852.61 201.995 1850.31 204.634 Q1848.02 207.25 1848.02 211.995 Q1848.02 216.74 1850.31 219.379 Q1852.61 221.995 1856.75 221.995 Q1858.6 221.995 1860.41 221.509 Q1862.24 220.999 1864.04 220.004 L1864.04 223.939 Q1862.26 224.773 1860.34 225.189 Q1858.44 225.606 1856.29 225.606 Q1850.43 225.606 1846.98 221.925 Q1843.53 218.245 1843.53 211.995 Q1843.53 205.652 1847 202.018 Q1850.5 198.384 1856.56 198.384 Q1858.53 198.384 1860.41 198.801 Q1862.28 199.194 1864.04 200.004 Z" fill="#000000" fill-rule="nonzero" fill-opacity="1" /><path clip-path="url(#clip660)" d="M1881.5 201.995 Q1878.07 201.995 1876.08 204.68 Q1874.09 207.342 1874.09 211.995 Q1874.09 216.648 1876.06 219.333 Q1878.05 221.995 1881.5 221.995 Q1884.9 221.995 1886.89 219.31 Q1888.88 216.624 1888.88 211.995 Q1888.88 207.388 1886.89 204.703 Q1884.9 201.995 1881.5 201.995 M1881.5 198.384 Q1887.05 198.384 1890.22 201.995 Q1893.39 205.606 1893.39 211.995 Q1893.39 218.361 1890.22 221.995 Q1887.05 225.606 1881.5 225.606 Q1875.92 225.606 1872.75 221.995 Q1869.6 218.361 1869.6 211.995 Q1869.6 205.606 1872.75 201.995 Q1875.92 198.384 1881.5 198.384 Z" fill="#000000" fill-rule="nonzero" fill-opacity="1" /><path clip-path="url(#clip660)" d="M1915.48 202.99 Q1914.76 202.574 1913.9 202.388 Q1913.07 202.18 1912.05 202.18 Q1908.44 202.18 1906.5 204.541 Q1904.57 206.879 1904.57 211.277 L1904.57 224.935 L1900.29 224.935 L1900.29 199.009 L1904.57 199.009 L1904.57 203.037 Q1905.92 200.675 1908.07 199.541 Q1910.22 198.384 1913.3 198.384 Q1913.74 198.384 1914.27 198.453 Q1914.81 198.5 1915.45 198.615 L1915.48 202.99 Z" fill="#000000" fill-rule="nonzero" fill-opacity="1" /><path clip-path="url(#clip660)" d="M1936.17 202.944 L1936.17 188.916 L1940.43 188.916 L1940.43 224.935 L1936.17 224.935 L1936.17 221.046 Q1934.83 223.361 1932.77 224.495 Q1930.73 225.606 1927.86 225.606 Q1923.16 225.606 1920.2 221.856 Q1917.26 218.106 1917.26 211.995 Q1917.26 205.884 1920.2 202.134 Q1923.16 198.384 1927.86 198.384 Q1930.73 198.384 1932.77 199.518 Q1934.83 200.629 1936.17 202.944 M1921.66 211.995 Q1921.66 216.694 1923.58 219.379 Q1925.52 222.041 1928.9 222.041 Q1932.28 222.041 1934.23 219.379 Q1936.17 216.694 1936.17 211.995 Q1936.17 207.296 1934.23 204.634 Q1932.28 201.949 1928.9 201.949 Q1925.52 201.949 1923.58 204.634 Q1921.66 207.296 1921.66 211.995 Z" fill="#000000" fill-rule="nonzero" fill-opacity="1" /><path clip-path="url(#clip660)" d="M1965.73 199.773 L1965.73 203.8 Q1963.93 202.875 1961.98 202.412 Q1960.04 201.949 1957.95 201.949 Q1954.78 201.949 1953.18 202.921 Q1951.61 203.893 1951.61 205.838 Q1951.61 207.319 1952.74 208.175 Q1953.88 209.009 1957.3 209.773 L1958.76 210.097 Q1963.3 211.069 1965.2 212.851 Q1967.12 214.611 1967.12 217.782 Q1967.12 221.393 1964.25 223.499 Q1961.4 225.606 1956.4 225.606 Q1954.32 225.606 1952.05 225.189 Q1949.8 224.796 1947.31 223.986 L1947.31 219.587 Q1949.67 220.814 1951.96 221.439 Q1954.25 222.041 1956.49 222.041 Q1959.5 222.041 1961.12 221.023 Q1962.74 219.981 1962.74 218.106 Q1962.74 216.37 1961.56 215.444 Q1960.41 214.518 1956.45 213.662 L1954.97 213.314 Q1951.01 212.481 1949.25 210.768 Q1947.49 209.032 1947.49 206.023 Q1947.49 202.365 1950.08 200.375 Q1952.68 198.384 1957.44 198.384 Q1959.8 198.384 1961.89 198.731 Q1963.97 199.078 1965.73 199.773 Z" fill="#000000" fill-rule="nonzero" fill-opacity="1" /><path clip-path="url(#clip660)" d="M1973.23 188.963 L1976.93 188.963 Q1980.41 194.426 1982.12 199.657 Q1983.86 204.888 1983.86 210.05 Q1983.86 215.236 1982.12 220.49 Q1980.41 225.745 1976.93 231.185 L1973.23 231.185 Q1976.31 225.884 1977.81 220.652 Q1979.34 215.398 1979.34 210.05 Q1979.34 204.703 1977.81 199.495 Q1976.31 194.287 1973.23 188.963 Z" fill="#000000" fill-rule="nonzero" fill-opacity="1" /><polyline clip-path="url(#clip660)" style="stroke:#ff0000; stroke-linecap:round; stroke-linejoin:round; stroke-width:8; stroke-opacity:1; fill:none" points="1121.89,259.495 1243.24,259.495 "/>
<path clip-path="url(#clip660)" d="M1263.47 242.215 L1283.33 242.215 L1283.33 246.15 L1268.14 246.15 L1268.14 256.335 L1281.85 256.335 L1281.85 260.27 L1268.14 260.27 L1268.14 276.775 L1263.47 276.775 L1263.47 242.215 Z" fill="#000000" fill-rule="nonzero" fill-opacity="1" /><path clip-path="url(#clip660)" d="M1287.1 250.849 L1291.36 250.849 L1291.36 276.775 L1287.1 276.775 L1287.1 250.849 M1287.1 240.756 L1291.36 240.756 L1291.36 246.15 L1287.1 246.15 L1287.1 240.756 Z" fill="#000000" fill-rule="nonzero" fill-opacity="1" /><path clip-path="url(#clip660)" d="M1304.48 243.488 L1304.48 250.849 L1313.26 250.849 L1313.26 254.159 L1304.48 254.159 L1304.48 268.233 Q1304.48 271.404 1305.34 272.307 Q1306.22 273.21 1308.88 273.21 L1313.26 273.21 L1313.26 276.775 L1308.88 276.775 Q1303.95 276.775 1302.08 274.946 Q1300.2 273.094 1300.2 268.233 L1300.2 254.159 L1297.08 254.159 L1297.08 250.849 L1300.2 250.849 L1300.2 243.488 L1304.48 243.488 Z" fill="#000000" fill-rule="nonzero" fill-opacity="1" /><path clip-path="url(#clip660)" d="M1323.07 243.488 L1323.07 250.849 L1331.85 250.849 L1331.85 254.159 L1323.07 254.159 L1323.07 268.233 Q1323.07 271.404 1323.93 272.307 Q1324.81 273.21 1327.47 273.21 L1331.85 273.21 L1331.85 276.775 L1327.47 276.775 Q1322.54 276.775 1320.66 274.946 Q1318.79 273.094 1318.79 268.233 L1318.79 254.159 L1315.66 254.159 L1315.66 250.849 L1318.79 250.849 L1318.79 243.488 L1323.07 243.488 Z" fill="#000000" fill-rule="nonzero" fill-opacity="1" /><path clip-path="url(#clip660)" d="M1359.62 262.747 L1359.62 264.83 L1340.04 264.83 Q1340.32 269.228 1342.68 271.543 Q1345.06 273.835 1349.3 273.835 Q1351.75 273.835 1354.04 273.233 Q1356.36 272.631 1358.63 271.427 L1358.63 275.455 Q1356.34 276.427 1353.93 276.937 Q1351.52 277.446 1349.04 277.446 Q1342.84 277.446 1339.21 273.835 Q1335.6 270.224 1335.6 264.066 Q1335.6 257.701 1339.02 253.974 Q1342.47 250.224 1348.3 250.224 Q1353.54 250.224 1356.57 253.603 Q1359.62 256.96 1359.62 262.747 M1355.36 261.497 Q1355.32 258.002 1353.4 255.918 Q1351.5 253.835 1348.35 253.835 Q1344.79 253.835 1342.63 255.849 Q1340.5 257.863 1340.18 261.52 L1355.36 261.497 Z" fill="#000000" fill-rule="nonzero" fill-opacity="1" /><path clip-path="url(#clip660)" d="M1383.67 254.784 L1383.67 240.756 L1387.93 240.756 L1387.93 276.775 L1383.67 276.775 L1383.67 272.886 Q1382.33 275.201 1380.27 276.335 Q1378.23 277.446 1375.36 277.446 Q1370.66 277.446 1367.7 273.696 Q1364.76 269.946 1364.76 263.835 Q1364.76 257.724 1367.7 253.974 Q1370.66 250.224 1375.36 250.224 Q1378.23 250.224 1380.27 251.358 Q1382.33 252.469 1383.67 254.784 M1369.16 263.835 Q1369.16 268.534 1371.08 271.219 Q1373.03 273.881 1376.41 273.881 Q1379.78 273.881 1381.73 271.219 Q1383.67 268.534 1383.67 263.835 Q1383.67 259.136 1381.73 256.474 Q1379.78 253.789 1376.41 253.789 Q1373.03 253.789 1371.08 256.474 Q1369.16 259.136 1369.16 263.835 Z" fill="#000000" fill-rule="nonzero" fill-opacity="1" /><path clip-path="url(#clip660)" d="M1435.53 271.844 L1435.53 262.562 L1427.89 262.562 L1427.89 258.719 L1440.15 258.719 L1440.15 273.557 Q1437.45 275.478 1434.18 276.474 Q1430.92 277.446 1427.22 277.446 Q1419.11 277.446 1414.53 272.724 Q1409.97 267.978 1409.97 259.529 Q1409.97 251.057 1414.53 246.335 Q1419.11 241.59 1427.22 241.59 Q1430.59 241.59 1433.63 242.423 Q1436.68 243.256 1439.25 244.877 L1439.25 249.853 Q1436.66 247.654 1433.74 246.543 Q1430.83 245.432 1427.61 245.432 Q1421.27 245.432 1418.07 248.974 Q1414.9 252.515 1414.9 259.529 Q1414.9 266.52 1418.07 270.062 Q1421.27 273.603 1427.61 273.603 Q1430.09 273.603 1432.03 273.187 Q1433.97 272.747 1435.53 271.844 Z" fill="#000000" fill-rule="nonzero" fill-opacity="1" /><path clip-path="url(#clip660)" d="M1470.69 262.747 L1470.69 264.83 L1451.1 264.83 Q1451.38 269.228 1453.74 271.543 Q1456.13 273.835 1460.36 273.835 Q1462.82 273.835 1465.11 273.233 Q1467.42 272.631 1469.69 271.427 L1469.69 275.455 Q1467.4 276.427 1464.99 276.937 Q1462.59 277.446 1460.11 277.446 Q1453.9 277.446 1450.27 273.835 Q1446.66 270.224 1446.66 264.066 Q1446.66 257.701 1450.09 253.974 Q1453.53 250.224 1459.37 250.224 Q1464.6 250.224 1467.63 253.603 Q1470.69 256.96 1470.69 262.747 M1466.43 261.497 Q1466.38 258.002 1464.46 255.918 Q1462.56 253.835 1459.41 253.835 Q1455.85 253.835 1453.7 255.849 Q1451.57 257.863 1451.24 261.52 L1466.43 261.497 Z" fill="#000000" fill-rule="nonzero" fill-opacity="1" /><path clip-path="url(#clip660)" d="M1487.72 253.835 Q1484.3 253.835 1482.31 256.52 Q1480.32 259.182 1480.32 263.835 Q1480.32 268.488 1482.28 271.173 Q1484.28 273.835 1487.72 273.835 Q1491.13 273.835 1493.12 271.15 Q1495.11 268.464 1495.11 263.835 Q1495.11 259.228 1493.12 256.543 Q1491.13 253.835 1487.72 253.835 M1487.72 250.224 Q1493.28 250.224 1496.45 253.835 Q1499.62 257.446 1499.62 263.835 Q1499.62 270.201 1496.45 273.835 Q1493.28 277.446 1487.72 277.446 Q1482.15 277.446 1478.97 273.835 Q1475.83 270.201 1475.83 263.835 Q1475.83 257.446 1478.97 253.835 Q1482.15 250.224 1487.72 250.224 Z" fill="#000000" fill-rule="nonzero" fill-opacity="1" /><path clip-path="url(#clip660)" d="M1526.87 255.826 Q1528.46 252.955 1530.69 251.59 Q1532.91 250.224 1535.92 250.224 Q1539.97 250.224 1542.17 253.071 Q1544.37 255.895 1544.37 261.127 L1544.37 276.775 L1540.08 276.775 L1540.08 261.265 Q1540.08 257.539 1538.77 255.733 Q1537.45 253.928 1534.74 253.928 Q1531.43 253.928 1529.51 256.127 Q1527.59 258.326 1527.59 262.122 L1527.59 276.775 L1523.3 276.775 L1523.3 261.265 Q1523.3 257.515 1521.98 255.733 Q1520.66 253.928 1517.91 253.928 Q1514.65 253.928 1512.72 256.15 Q1510.8 258.349 1510.8 262.122 L1510.8 276.775 L1506.52 276.775 L1506.52 250.849 L1510.8 250.849 L1510.8 254.877 Q1512.26 252.492 1514.3 251.358 Q1516.34 250.224 1519.14 250.224 Q1521.96 250.224 1523.93 251.659 Q1525.92 253.094 1526.87 255.826 Z" fill="#000000" fill-rule="nonzero" fill-opacity="1" /><path clip-path="url(#clip660)" d="M1575.04 262.747 L1575.04 264.83 L1555.46 264.83 Q1555.73 269.228 1558.09 271.543 Q1560.48 273.835 1564.71 273.835 Q1567.17 273.835 1569.46 273.233 Q1571.77 272.631 1574.04 271.427 L1574.04 275.455 Q1571.75 276.427 1569.34 276.937 Q1566.94 277.446 1564.46 277.446 Q1558.26 277.446 1554.62 273.835 Q1551.01 270.224 1551.01 264.066 Q1551.01 257.701 1554.44 253.974 Q1557.89 250.224 1563.72 250.224 Q1568.95 250.224 1571.98 253.603 Q1575.04 256.96 1575.04 262.747 M1570.78 261.497 Q1570.73 258.002 1568.81 255.918 Q1566.91 253.835 1563.77 253.835 Q1560.2 253.835 1558.05 255.849 Q1555.92 257.863 1555.59 261.52 L1570.78 261.497 Z" fill="#000000" fill-rule="nonzero" fill-opacity="1" /><path clip-path="url(#clip660)" d="M1586.24 243.488 L1586.24 250.849 L1595.02 250.849 L1595.02 254.159 L1586.24 254.159 L1586.24 268.233 Q1586.24 271.404 1587.1 272.307 Q1587.98 273.21 1590.64 273.21 L1595.02 273.21 L1595.02 276.775 L1590.64 276.775 Q1585.71 276.775 1583.83 274.946 Q1581.96 273.094 1581.96 268.233 L1581.96 254.159 L1578.83 254.159 L1578.83 250.849 L1581.96 250.849 L1581.96 243.488 L1586.24 243.488 Z" fill="#000000" fill-rule="nonzero" fill-opacity="1" /><path clip-path="url(#clip660)" d="M1615.64 254.83 Q1614.92 254.414 1614.07 254.228 Q1613.23 254.02 1612.21 254.02 Q1608.6 254.02 1606.66 256.381 Q1604.74 258.719 1604.74 263.117 L1604.74 276.775 L1600.46 276.775 L1600.46 250.849 L1604.74 250.849 L1604.74 254.877 Q1606.08 252.515 1608.23 251.381 Q1610.39 250.224 1613.46 250.224 Q1613.9 250.224 1614.44 250.293 Q1614.97 250.34 1615.62 250.455 L1615.64 254.83 Z" fill="#000000" fill-rule="nonzero" fill-opacity="1" /><path clip-path="url(#clip660)" d="M1620.11 250.849 L1624.37 250.849 L1624.37 276.775 L1620.11 276.775 L1620.11 250.849 M1620.11 240.756 L1624.37 240.756 L1624.37 246.15 L1620.11 246.15 L1620.11 240.756 Z" fill="#000000" fill-rule="nonzero" fill-opacity="1" /><path clip-path="url(#clip660)" d="M1651.94 251.844 L1651.94 255.826 Q1650.13 254.83 1648.3 254.344 Q1646.5 253.835 1644.64 253.835 Q1640.5 253.835 1638.21 256.474 Q1635.92 259.09 1635.92 263.835 Q1635.92 268.58 1638.21 271.219 Q1640.5 273.835 1644.64 273.835 Q1646.5 273.835 1648.3 273.349 Q1650.13 272.839 1651.94 271.844 L1651.94 275.779 Q1650.15 276.613 1648.23 277.029 Q1646.33 277.446 1644.18 277.446 Q1638.33 277.446 1634.88 273.765 Q1631.43 270.085 1631.43 263.835 Q1631.43 257.492 1634.9 253.858 Q1638.39 250.224 1644.46 250.224 Q1646.43 250.224 1648.3 250.641 Q1650.18 251.034 1651.94 251.844 Z" fill="#000000" fill-rule="nonzero" fill-opacity="1" /><path clip-path="url(#clip660)" d="M1669.58 240.803 Q1666.47 246.127 1664.97 251.335 Q1663.46 256.543 1663.46 261.89 Q1663.46 267.238 1664.97 272.492 Q1666.5 277.724 1669.58 283.025 L1665.87 283.025 Q1662.4 277.585 1660.66 272.33 Q1658.95 267.076 1658.95 261.89 Q1658.95 256.728 1660.66 251.497 Q1662.38 246.266 1665.87 240.803 L1669.58 240.803 Z" fill="#000000" fill-rule="nonzero" fill-opacity="1" /><path clip-path="url(#clip660)" d="M1681.96 272.886 L1681.96 286.636 L1677.68 286.636 L1677.68 250.849 L1681.96 250.849 L1681.96 254.784 Q1683.3 252.469 1685.34 251.358 Q1687.4 250.224 1690.25 250.224 Q1694.97 250.224 1697.91 253.974 Q1700.87 257.724 1700.87 263.835 Q1700.87 269.946 1697.91 273.696 Q1694.97 277.446 1690.25 277.446 Q1687.4 277.446 1685.34 276.335 Q1683.3 275.201 1681.96 272.886 M1696.45 263.835 Q1696.45 259.136 1694.51 256.474 Q1692.58 253.789 1689.2 253.789 Q1685.82 253.789 1683.88 256.474 Q1681.96 259.136 1681.96 263.835 Q1681.96 268.534 1683.88 271.219 Q1685.82 273.881 1689.2 273.881 Q1692.58 273.881 1694.51 271.219 Q1696.45 268.534 1696.45 263.835 Z" fill="#000000" fill-rule="nonzero" fill-opacity="1" /><path clip-path="url(#clip660)" d="M1711.82 254.923 L1717.49 270.941 L1725.59 250.849 L1730.11 250.849 L1719.62 276.775 L1719.62 286.636 L1715.36 286.636 L1715.36 276.775 L1708.56 257.423 Q1707.54 254.506 1705.34 254.506 L1704.2 254.506 L1704.2 250.849 L1705.82 250.849 Q1710.38 250.849 1711.82 254.923 Z" fill="#000000" fill-rule="nonzero" fill-opacity="1" /><path clip-path="url(#clip660)" d="M1735.32 240.803 L1739.02 240.803 Q1742.49 246.266 1744.2 251.497 Q1745.94 256.728 1745.94 261.89 Q1745.94 267.076 1744.2 272.33 Q1742.49 277.585 1739.02 283.025 L1735.32 283.025 Q1738.39 277.724 1739.9 272.492 Q1741.43 267.238 1741.43 261.89 Q1741.43 256.543 1739.9 251.335 Q1738.39 246.127 1735.32 240.803 Z" fill="#000000" fill-rule="nonzero" fill-opacity="1" /></svg>
