<?xml version="1.0" encoding="utf-8"?>
<svg xmlns="http://www.w3.org/2000/svg" xmlns:xlink="http://www.w3.org/1999/xlink" width="672" height="480" viewBox="0 0 2688 1920">
<defs>
  <clipPath id="clip300">
    <rect x="0" y="0" width="2688" height="1920"/>
  </clipPath>
</defs>
<path clip-path="url(#clip300)" d="M0 1920 L2688 1920 L2688 -4.26326e-14 L0 -4.26326e-14  Z" fill="#ffffff" fill-rule="evenodd" fill-opacity="1"/>
<defs>
  <clipPath id="clip301">
    <rect x="286" y="127" width="2355" height="1607"/>
  </clipPath>
</defs>
<path clip-path="url(#clip300)" d="M286.464 1734.12 L2640.76 1734.12 L2640.76 127.792 L286.464 127.792  Z" fill="#ffffff" fill-rule="evenodd" fill-opacity="1"/>
<polyline clip-path="url(#clip301)" style="stroke:#000000; stroke-linecap:round; stroke-linejoin:round; stroke-width:2; stroke-opacity:0.1; fill:none" points="286.464,1734.12 286.464,127.792 "/>
<polyline clip-path="url(#clip301)" style="stroke:#000000; stroke-linecap:round; stroke-linejoin:round; stroke-width:2; stroke-opacity:0.1; fill:none" points="757.323,1734.12 757.323,127.792 "/>
<polyline clip-path="url(#clip301)" style="stroke:#000000; stroke-linecap:round; stroke-linejoin:round; stroke-width:2; stroke-opacity:0.1; fill:none" points="1228.18,1734.12 1228.18,127.792 "/>
<polyline clip-path="url(#clip301)" style="stroke:#000000; stroke-linecap:round; stroke-linejoin:round; stroke-width:2; stroke-opacity:0.1; fill:none" points="1699.04,1734.12 1699.04,127.792 "/>
<polyline clip-path="url(#clip301)" style="stroke:#000000; stroke-linecap:round; stroke-linejoin:round; stroke-width:2; stroke-opacity:0.1; fill:none" points="2169.9,1734.12 2169.9,127.792 "/>
<polyline clip-path="url(#clip301)" style="stroke:#000000; stroke-linecap:round; stroke-linejoin:round; stroke-width:2; stroke-opacity:0.1; fill:none" points="2640.76,1734.12 2640.76,127.792 "/>
<polyline clip-path="url(#clip301)" style="stroke:#000000; stroke-linecap:round; stroke-linejoin:round; stroke-width:2; stroke-opacity:0.1; fill:none" points="286.464,1734.12 2640.76,1734.12 "/>
<polyline clip-path="url(#clip301)" style="stroke:#000000; stroke-linecap:round; stroke-linejoin:round; stroke-width:2; stroke-opacity:0.1; fill:none" points="286.464,1388.97 2640.76,1388.97 "/>
<polyline clip-path="url(#clip301)" style="stroke:#000000; stroke-linecap:round; stroke-linejoin:round; stroke-width:2; stroke-opacity:0.1; fill:none" points="286.464,1043.83 2640.76,1043.83 "/>
<polyline clip-path="url(#clip301)" style="stroke:#000000; stroke-linecap:round; stroke-linejoin:round; stroke-width:2; stroke-opacity:0.1; fill:none" points="286.464,698.683 2640.76,698.683 "/>
<polyline clip-path="url(#clip301)" style="stroke:#000000; stroke-linecap:round; stroke-linejoin:round; stroke-width:2; stroke-opacity:0.1; fill:none" points="286.464,353.538 2640.76,353.538 "/>
<polyline clip-path="url(#clip300)" style="stroke:#000000; stroke-linecap:round; stroke-linejoin:round; stroke-width:4; stroke-opacity:1; fill:none" points="286.464,1734.12 2640.76,1734.12 "/>
<polyline clip-path="url(#clip300)" style="stroke:#000000; stroke-linecap:round; stroke-linejoin:round; stroke-width:4; stroke-opacity:1; fill:none" points="286.464,1734.12 286.464,1715.22 "/>
<polyline clip-path="url(#clip300)" style="stroke:#000000; stroke-linecap:round; stroke-linejoin:round; stroke-width:4; stroke-opacity:1; fill:none" points="757.323,1734.12 757.323,1715.22 "/>
<polyline clip-path="url(#clip300)" style="stroke:#000000; stroke-linecap:round; stroke-linejoin:round; stroke-width:4; stroke-opacity:1; fill:none" points="1228.18,1734.12 1228.18,1715.22 "/>
<polyline clip-path="url(#clip300)" style="stroke:#000000; stroke-linecap:round; stroke-linejoin:round; stroke-width:4; stroke-opacity:1; fill:none" points="1699.04,1734.12 1699.04,1715.22 "/>
<polyline clip-path="url(#clip300)" style="stroke:#000000; stroke-linecap:round; stroke-linejoin:round; stroke-width:4; stroke-opacity:1; fill:none" points="2169.9,1734.12 2169.9,1715.22 "/>
<polyline clip-path="url(#clip300)" style="stroke:#000000; stroke-linecap:round; stroke-linejoin:round; stroke-width:4; stroke-opacity:1; fill:none" points="2640.76,1734.12 2640.76,1715.22 "/>
<path clip-path="url(#clip300)" d="M235.076 1794.89 L251.395 1794.89 L251.395 1798.82 L229.451 1798.82 L229.451 1794.89 Q232.113 1792.13 236.696 1787.5 Q241.303 1782.85 242.483 1781.51 Q244.728 1778.98 245.608 1777.25 Q246.511 1775.49 246.511 1773.8 Q246.511 1771.04 244.566 1769.31 Q242.645 1767.57 239.543 1767.57 Q237.344 1767.57 234.891 1768.34 Q232.46 1769.1 229.682 1770.65 L229.682 1765.93 Q232.506 1764.79 234.96 1764.21 Q237.414 1763.64 239.451 1763.64 Q244.821 1763.64 248.015 1766.32 Q251.21 1769.01 251.21 1773.5 Q251.21 1775.63 250.4 1777.55 Q249.613 1779.45 247.506 1782.04 Q246.927 1782.71 243.826 1785.93 Q240.724 1789.12 235.076 1794.89 Z" fill="#000000" fill-rule="nonzero" fill-opacity="1" /><path clip-path="url(#clip300)" d="M271.21 1767.34 Q267.599 1767.34 265.77 1770.9 Q263.964 1774.45 263.964 1781.58 Q263.964 1788.68 265.77 1792.25 Q267.599 1795.79 271.21 1795.79 Q274.844 1795.79 276.65 1792.25 Q278.478 1788.68 278.478 1781.58 Q278.478 1774.45 276.65 1770.9 Q274.844 1767.34 271.21 1767.34 M271.21 1763.64 Q277.02 1763.64 280.075 1768.24 Q283.154 1772.83 283.154 1781.58 Q283.154 1790.3 280.075 1794.91 Q277.02 1799.49 271.21 1799.49 Q265.4 1799.49 262.321 1794.91 Q259.265 1790.3 259.265 1781.58 Q259.265 1772.83 262.321 1768.24 Q265.4 1763.64 271.21 1763.64 Z" fill="#000000" fill-rule="nonzero" fill-opacity="1" /><path clip-path="url(#clip300)" d="M301.372 1767.34 Q297.761 1767.34 295.932 1770.9 Q294.126 1774.45 294.126 1781.58 Q294.126 1788.68 295.932 1792.25 Q297.761 1795.79 301.372 1795.79 Q305.006 1795.79 306.811 1792.25 Q308.64 1788.68 308.64 1781.58 Q308.64 1774.45 306.811 1770.9 Q305.006 1767.34 301.372 1767.34 M301.372 1763.64 Q307.182 1763.64 310.237 1768.24 Q313.316 1772.83 313.316 1781.58 Q313.316 1790.3 310.237 1794.91 Q307.182 1799.49 301.372 1799.49 Q295.561 1799.49 292.483 1794.91 Q289.427 1790.3 289.427 1781.58 Q289.427 1772.83 292.483 1768.24 Q295.561 1763.64 301.372 1763.64 Z" fill="#000000" fill-rule="nonzero" fill-opacity="1" /><path clip-path="url(#clip300)" d="M331.534 1767.34 Q327.922 1767.34 326.094 1770.9 Q324.288 1774.45 324.288 1781.58 Q324.288 1788.68 326.094 1792.25 Q327.922 1795.79 331.534 1795.79 Q335.168 1795.79 336.973 1792.25 Q338.802 1788.68 338.802 1781.58 Q338.802 1774.45 336.973 1770.9 Q335.168 1767.34 331.534 1767.34 M331.534 1763.64 Q337.344 1763.64 340.399 1768.24 Q343.478 1772.83 343.478 1781.58 Q343.478 1790.3 340.399 1794.91 Q337.344 1799.49 331.534 1799.49 Q325.723 1799.49 322.645 1794.91 Q319.589 1790.3 319.589 1781.58 Q319.589 1772.83 322.645 1768.24 Q325.723 1763.64 331.534 1763.64 Z" fill="#000000" fill-rule="nonzero" fill-opacity="1" /><path clip-path="url(#clip300)" d="M705.934 1794.89 L722.253 1794.89 L722.253 1798.82 L700.309 1798.82 L700.309 1794.89 Q702.971 1792.13 707.554 1787.5 Q712.161 1782.85 713.341 1781.51 Q715.587 1778.98 716.466 1777.25 Q717.369 1775.49 717.369 1773.8 Q717.369 1771.04 715.425 1769.31 Q713.503 1767.57 710.402 1767.57 Q708.203 1767.57 705.749 1768.34 Q703.318 1769.1 700.541 1770.65 L700.541 1765.93 Q703.365 1764.79 705.818 1764.21 Q708.272 1763.64 710.309 1763.64 Q715.679 1763.64 718.874 1766.32 Q722.068 1769.01 722.068 1773.5 Q722.068 1775.63 721.258 1777.55 Q720.471 1779.45 718.364 1782.04 Q717.786 1782.71 714.684 1785.93 Q711.582 1789.12 705.934 1794.89 Z" fill="#000000" fill-rule="nonzero" fill-opacity="1" /><path clip-path="url(#clip300)" d="M732.878 1794.89 L740.517 1794.89 L740.517 1768.52 L732.207 1770.19 L732.207 1765.93 L740.471 1764.26 L745.147 1764.26 L745.147 1794.89 L752.786 1794.89 L752.786 1798.82 L732.878 1798.82 L732.878 1794.89 Z" fill="#000000" fill-rule="nonzero" fill-opacity="1" /><path clip-path="url(#clip300)" d="M772.23 1767.34 Q768.619 1767.34 766.79 1770.9 Q764.985 1774.45 764.985 1781.58 Q764.985 1788.68 766.79 1792.25 Q768.619 1795.79 772.23 1795.79 Q775.864 1795.79 777.67 1792.25 Q779.498 1788.68 779.498 1781.58 Q779.498 1774.45 777.67 1770.9 Q775.864 1767.34 772.23 1767.34 M772.23 1763.64 Q778.04 1763.64 781.096 1768.24 Q784.174 1772.83 784.174 1781.58 Q784.174 1790.3 781.096 1794.91 Q778.04 1799.49 772.23 1799.49 Q766.42 1799.49 763.341 1794.91 Q760.286 1790.3 760.286 1781.58 Q760.286 1772.83 763.341 1768.24 Q766.42 1763.64 772.23 1763.64 Z" fill="#000000" fill-rule="nonzero" fill-opacity="1" /><path clip-path="url(#clip300)" d="M802.392 1767.34 Q798.781 1767.34 796.952 1770.9 Q795.146 1774.45 795.146 1781.58 Q795.146 1788.68 796.952 1792.25 Q798.781 1795.79 802.392 1795.79 Q806.026 1795.79 807.832 1792.25 Q809.66 1788.68 809.66 1781.58 Q809.66 1774.45 807.832 1770.9 Q806.026 1767.34 802.392 1767.34 M802.392 1763.64 Q808.202 1763.64 811.258 1768.24 Q814.336 1772.83 814.336 1781.58 Q814.336 1790.3 811.258 1794.91 Q808.202 1799.49 802.392 1799.49 Q796.582 1799.49 793.503 1794.91 Q790.447 1790.3 790.447 1781.58 Q790.447 1772.83 793.503 1768.24 Q796.582 1763.64 802.392 1763.64 Z" fill="#000000" fill-rule="nonzero" fill-opacity="1" /><path clip-path="url(#clip300)" d="M1176.79 1794.89 L1193.11 1794.89 L1193.11 1798.82 L1171.17 1798.82 L1171.17 1794.89 Q1173.83 1792.13 1178.41 1787.5 Q1183.02 1782.85 1184.2 1781.51 Q1186.45 1778.98 1187.32 1777.25 Q1188.23 1775.49 1188.23 1773.8 Q1188.23 1771.04 1186.28 1769.31 Q1184.36 1767.57 1181.26 1767.57 Q1179.06 1767.57 1176.61 1768.34 Q1174.18 1769.1 1171.4 1770.65 L1171.4 1765.93 Q1174.22 1764.79 1176.68 1764.21 Q1179.13 1763.64 1181.17 1763.64 Q1186.54 1763.64 1189.73 1766.32 Q1192.93 1769.01 1192.93 1773.5 Q1192.93 1775.63 1192.12 1777.55 Q1191.33 1779.45 1189.22 1782.04 Q1188.64 1782.71 1185.54 1785.93 Q1182.44 1789.12 1176.79 1794.89 Z" fill="#000000" fill-rule="nonzero" fill-opacity="1" /><path clip-path="url(#clip300)" d="M1206.95 1794.89 L1223.27 1794.89 L1223.27 1798.82 L1201.33 1798.82 L1201.33 1794.89 Q1203.99 1792.13 1208.57 1787.5 Q1213.18 1782.85 1214.36 1781.51 Q1216.61 1778.98 1217.49 1777.25 Q1218.39 1775.49 1218.39 1773.8 Q1218.39 1771.04 1216.44 1769.31 Q1214.52 1767.57 1211.42 1767.57 Q1209.22 1767.57 1206.77 1768.34 Q1204.34 1769.1 1201.56 1770.65 L1201.56 1765.93 Q1204.38 1764.79 1206.84 1764.21 Q1209.29 1763.64 1211.33 1763.64 Q1216.7 1763.64 1219.89 1766.32 Q1223.09 1769.01 1223.09 1773.5 Q1223.09 1775.63 1222.28 1777.55 Q1221.49 1779.45 1219.38 1782.04 Q1218.81 1782.71 1215.7 1785.93 Q1212.6 1789.12 1206.95 1794.89 Z" fill="#000000" fill-rule="nonzero" fill-opacity="1" /><path clip-path="url(#clip300)" d="M1243.09 1767.34 Q1239.48 1767.34 1237.65 1770.9 Q1235.84 1774.45 1235.84 1781.58 Q1235.84 1788.68 1237.65 1792.25 Q1239.48 1795.79 1243.09 1795.79 Q1246.72 1795.79 1248.53 1792.25 Q1250.36 1788.68 1250.36 1781.58 Q1250.36 1774.45 1248.53 1770.9 Q1246.72 1767.34 1243.09 1767.34 M1243.09 1763.64 Q1248.9 1763.64 1251.95 1768.24 Q1255.03 1772.83 1255.03 1781.58 Q1255.03 1790.3 1251.95 1794.91 Q1248.9 1799.49 1243.09 1799.49 Q1237.28 1799.49 1234.2 1794.91 Q1231.14 1790.3 1231.14 1781.58 Q1231.14 1772.83 1234.2 1768.24 Q1237.28 1763.64 1243.09 1763.64 Z" fill="#000000" fill-rule="nonzero" fill-opacity="1" /><path clip-path="url(#clip300)" d="M1273.25 1767.34 Q1269.64 1767.34 1267.81 1770.9 Q1266 1774.45 1266 1781.58 Q1266 1788.68 1267.81 1792.25 Q1269.64 1795.79 1273.25 1795.79 Q1276.88 1795.79 1278.69 1792.25 Q1280.52 1788.68 1280.52 1781.58 Q1280.52 1774.45 1278.69 1770.9 Q1276.88 1767.34 1273.25 1767.34 M1273.25 1763.64 Q1279.06 1763.64 1282.12 1768.24 Q1285.19 1772.83 1285.19 1781.58 Q1285.19 1790.3 1282.12 1794.91 Q1279.06 1799.49 1273.25 1799.49 Q1267.44 1799.49 1264.36 1794.91 Q1261.31 1790.3 1261.31 1781.58 Q1261.31 1772.83 1264.36 1768.24 Q1267.44 1763.64 1273.25 1763.64 Z" fill="#000000" fill-rule="nonzero" fill-opacity="1" /><path clip-path="url(#clip300)" d="M1647.65 1794.89 L1663.97 1794.89 L1663.97 1798.82 L1642.03 1798.82 L1642.03 1794.89 Q1644.69 1792.13 1649.27 1787.5 Q1653.88 1782.85 1655.06 1781.51 Q1657.3 1778.98 1658.18 1777.25 Q1659.09 1775.49 1659.09 1773.8 Q1659.09 1771.04 1657.14 1769.31 Q1655.22 1767.57 1652.12 1767.57 Q1649.92 1767.57 1647.47 1768.34 Q1645.03 1769.1 1642.26 1770.65 L1642.26 1765.93 Q1645.08 1764.79 1647.53 1764.21 Q1649.99 1763.64 1652.03 1763.64 Q1657.4 1763.64 1660.59 1766.32 Q1663.78 1769.01 1663.78 1773.5 Q1663.78 1775.63 1662.97 1777.55 Q1662.19 1779.45 1660.08 1782.04 Q1659.5 1782.71 1656.4 1785.93 Q1653.3 1789.12 1647.65 1794.89 Z" fill="#000000" fill-rule="nonzero" fill-opacity="1" /><path clip-path="url(#clip300)" d="M1687.95 1780.19 Q1691.31 1780.9 1693.18 1783.17 Q1695.08 1785.44 1695.08 1788.77 Q1695.08 1793.89 1691.56 1796.69 Q1688.04 1799.49 1681.56 1799.49 Q1679.39 1799.49 1677.07 1799.05 Q1674.78 1798.64 1672.33 1797.78 L1672.33 1793.27 Q1674.27 1794.4 1676.59 1794.98 Q1678.9 1795.56 1681.42 1795.56 Q1685.82 1795.56 1688.11 1793.82 Q1690.43 1792.08 1690.43 1788.77 Q1690.43 1785.72 1688.28 1784.01 Q1686.15 1782.27 1682.33 1782.27 L1678.3 1782.27 L1678.3 1778.43 L1682.51 1778.43 Q1685.96 1778.43 1687.79 1777.06 Q1689.62 1775.67 1689.62 1773.08 Q1689.62 1770.42 1687.72 1769.01 Q1685.84 1767.57 1682.33 1767.57 Q1680.41 1767.57 1678.21 1767.99 Q1676.01 1768.4 1673.37 1769.28 L1673.37 1765.12 Q1676.03 1764.38 1678.34 1764.01 Q1680.68 1763.64 1682.74 1763.64 Q1688.07 1763.64 1691.17 1766.07 Q1694.27 1768.47 1694.27 1772.59 Q1694.27 1775.46 1692.63 1777.46 Q1690.98 1779.42 1687.95 1780.19 Z" fill="#000000" fill-rule="nonzero" fill-opacity="1" /><path clip-path="url(#clip300)" d="M1713.95 1767.34 Q1710.34 1767.34 1708.51 1770.9 Q1706.7 1774.45 1706.7 1781.58 Q1706.7 1788.68 1708.51 1792.25 Q1710.34 1795.79 1713.95 1795.79 Q1717.58 1795.79 1719.39 1792.25 Q1721.22 1788.68 1721.22 1781.58 Q1721.22 1774.45 1719.39 1770.9 Q1717.58 1767.34 1713.95 1767.34 M1713.95 1763.64 Q1719.76 1763.64 1722.81 1768.24 Q1725.89 1772.83 1725.89 1781.58 Q1725.89 1790.3 1722.81 1794.91 Q1719.76 1799.49 1713.95 1799.49 Q1708.14 1799.49 1705.06 1794.91 Q1702 1790.3 1702 1781.58 Q1702 1772.83 1705.06 1768.24 Q1708.14 1763.64 1713.95 1763.64 Z" fill="#000000" fill-rule="nonzero" fill-opacity="1" /><path clip-path="url(#clip300)" d="M1744.11 1767.34 Q1740.5 1767.34 1738.67 1770.9 Q1736.86 1774.45 1736.86 1781.58 Q1736.86 1788.68 1738.67 1792.25 Q1740.5 1795.79 1744.11 1795.79 Q1747.74 1795.79 1749.55 1792.25 Q1751.38 1788.68 1751.38 1781.58 Q1751.38 1774.45 1749.55 1770.9 Q1747.74 1767.34 1744.11 1767.34 M1744.11 1763.64 Q1749.92 1763.64 1752.97 1768.24 Q1756.05 1772.83 1756.05 1781.58 Q1756.05 1790.3 1752.97 1794.91 Q1749.92 1799.49 1744.11 1799.49 Q1738.3 1799.49 1735.22 1794.91 Q1732.16 1790.3 1732.16 1781.58 Q1732.16 1772.83 1735.22 1768.24 Q1738.3 1763.64 1744.11 1763.64 Z" fill="#000000" fill-rule="nonzero" fill-opacity="1" /><path clip-path="url(#clip300)" d="M2118.51 1794.89 L2134.83 1794.89 L2134.83 1798.82 L2112.88 1798.82 L2112.88 1794.89 Q2115.55 1792.13 2120.13 1787.5 Q2124.74 1782.85 2125.92 1781.51 Q2128.16 1778.98 2129.04 1777.25 Q2129.94 1775.49 2129.94 1773.8 Q2129.94 1771.04 2128 1769.31 Q2126.08 1767.57 2122.98 1767.57 Q2120.78 1767.57 2118.32 1768.34 Q2115.89 1769.1 2113.12 1770.65 L2113.12 1765.93 Q2115.94 1764.79 2118.39 1764.21 Q2120.85 1763.64 2122.88 1763.64 Q2128.25 1763.64 2131.45 1766.32 Q2134.64 1769.01 2134.64 1773.5 Q2134.64 1775.63 2133.83 1777.55 Q2133.05 1779.45 2130.94 1782.04 Q2130.36 1782.71 2127.26 1785.93 Q2124.16 1789.12 2118.51 1794.89 Z" fill="#000000" fill-rule="nonzero" fill-opacity="1" /><path clip-path="url(#clip300)" d="M2157.49 1768.34 L2145.68 1786.78 L2157.49 1786.78 L2157.49 1768.34 M2156.26 1764.26 L2162.14 1764.26 L2162.14 1786.78 L2167.07 1786.78 L2167.07 1790.67 L2162.14 1790.67 L2162.14 1798.82 L2157.49 1798.82 L2157.49 1790.67 L2141.89 1790.67 L2141.89 1786.16 L2156.26 1764.26 Z" fill="#000000" fill-rule="nonzero" fill-opacity="1" /><path clip-path="url(#clip300)" d="M2184.8 1767.34 Q2181.19 1767.34 2179.37 1770.9 Q2177.56 1774.45 2177.56 1781.58 Q2177.56 1788.68 2179.37 1792.25 Q2181.19 1795.79 2184.8 1795.79 Q2188.44 1795.79 2190.24 1792.25 Q2192.07 1788.68 2192.07 1781.58 Q2192.07 1774.45 2190.24 1770.9 Q2188.44 1767.34 2184.8 1767.34 M2184.8 1763.64 Q2190.62 1763.64 2193.67 1768.24 Q2196.75 1772.83 2196.75 1781.58 Q2196.75 1790.3 2193.67 1794.91 Q2190.62 1799.49 2184.8 1799.49 Q2178.99 1799.49 2175.92 1794.91 Q2172.86 1790.3 2172.86 1781.58 Q2172.86 1772.83 2175.92 1768.24 Q2178.99 1763.64 2184.8 1763.64 Z" fill="#000000" fill-rule="nonzero" fill-opacity="1" /><path clip-path="url(#clip300)" d="M2214.97 1767.34 Q2211.36 1767.34 2209.53 1770.9 Q2207.72 1774.45 2207.72 1781.58 Q2207.72 1788.68 2209.53 1792.25 Q2211.36 1795.79 2214.97 1795.79 Q2218.6 1795.79 2220.41 1792.25 Q2222.24 1788.68 2222.24 1781.58 Q2222.24 1774.45 2220.41 1770.9 Q2218.6 1767.34 2214.97 1767.34 M2214.97 1763.64 Q2220.78 1763.64 2223.83 1768.24 Q2226.91 1772.83 2226.91 1781.58 Q2226.91 1790.3 2223.83 1794.91 Q2220.78 1799.49 2214.97 1799.49 Q2209.16 1799.49 2206.08 1794.91 Q2203.02 1790.3 2203.02 1781.58 Q2203.02 1772.83 2206.08 1768.24 Q2209.16 1763.64 2214.97 1763.64 Z" fill="#000000" fill-rule="nonzero" fill-opacity="1" /><path clip-path="url(#clip300)" d="M2589.37 1794.89 L2605.69 1794.89 L2605.69 1798.82 L2583.74 1798.82 L2583.74 1794.89 Q2586.4 1792.13 2590.99 1787.5 Q2595.59 1782.85 2596.77 1781.51 Q2599.02 1778.98 2599.9 1777.25 Q2600.8 1775.49 2600.8 1773.8 Q2600.8 1771.04 2598.86 1769.31 Q2596.94 1767.57 2593.83 1767.57 Q2591.64 1767.57 2589.18 1768.34 Q2586.75 1769.1 2583.97 1770.65 L2583.97 1765.93 Q2586.8 1764.79 2589.25 1764.21 Q2591.71 1763.64 2593.74 1763.64 Q2599.11 1763.64 2602.31 1766.32 Q2605.5 1769.01 2605.5 1773.5 Q2605.5 1775.63 2604.69 1777.55 Q2603.9 1779.45 2601.8 1782.04 Q2601.22 1782.71 2598.12 1785.93 Q2595.02 1789.12 2589.37 1794.89 Z" fill="#000000" fill-rule="nonzero" fill-opacity="1" /><path clip-path="url(#clip300)" d="M2615.55 1764.26 L2633.9 1764.26 L2633.9 1768.2 L2619.83 1768.2 L2619.83 1776.67 Q2620.85 1776.32 2621.87 1776.16 Q2622.89 1775.97 2623.9 1775.97 Q2629.69 1775.97 2633.07 1779.15 Q2636.45 1782.32 2636.45 1787.73 Q2636.45 1793.31 2632.98 1796.41 Q2629.51 1799.49 2623.19 1799.49 Q2621.01 1799.49 2618.74 1799.12 Q2616.5 1798.75 2614.09 1798.01 L2614.09 1793.31 Q2616.17 1794.45 2618.39 1795 Q2620.62 1795.56 2623.09 1795.56 Q2627.1 1795.56 2629.44 1793.45 Q2631.77 1791.34 2631.77 1787.73 Q2631.77 1784.12 2629.44 1782.02 Q2627.1 1779.91 2623.09 1779.91 Q2621.22 1779.91 2619.34 1780.33 Q2617.49 1780.74 2615.55 1781.62 L2615.55 1764.26 Z" fill="#000000" fill-rule="nonzero" fill-opacity="1" /><path clip-path="url(#clip300)" d="M2655.66 1767.34 Q2652.05 1767.34 2650.22 1770.9 Q2648.42 1774.45 2648.42 1781.58 Q2648.42 1788.68 2650.22 1792.25 Q2652.05 1795.79 2655.66 1795.79 Q2659.3 1795.79 2661.1 1792.25 Q2662.93 1788.68 2662.93 1781.58 Q2662.93 1774.45 2661.1 1770.9 Q2659.3 1767.34 2655.66 1767.34 M2655.66 1763.64 Q2661.47 1763.64 2664.53 1768.24 Q2667.61 1772.83 2667.61 1781.58 Q2667.61 1790.3 2664.53 1794.91 Q2661.47 1799.49 2655.66 1799.49 Q2649.85 1799.49 2646.77 1794.91 Q2643.72 1790.3 2643.72 1781.58 Q2643.72 1772.83 2646.77 1768.24 Q2649.85 1763.64 2655.66 1763.64 Z" fill="#000000" fill-rule="nonzero" fill-opacity="1" /><path clip-path="url(#clip300)" d="M2685.83 1767.34 Q2682.21 1767.34 2680.39 1770.9 Q2678.58 1774.45 2678.58 1781.58 Q2678.58 1788.68 2680.39 1792.25 Q2682.21 1795.79 2685.83 1795.79 Q2689.46 1795.79 2691.26 1792.25 Q2693.09 1788.68 2693.09 1781.58 Q2693.09 1774.45 2691.26 1770.9 Q2689.46 1767.34 2685.83 1767.34 M2685.83 1763.64 Q2691.64 1763.64 2694.69 1768.24 Q2697.77 1772.83 2697.77 1781.58 Q2697.77 1790.3 2694.69 1794.91 Q2691.64 1799.49 2685.83 1799.49 Q2680.01 1799.49 2676.94 1794.91 Q2673.88 1790.3 2673.88 1781.58 Q2673.88 1772.83 2676.94 1768.24 Q2680.01 1763.64 2685.83 1763.64 Z" fill="#000000" fill-rule="nonzero" fill-opacity="1" /><path clip-path="url(#clip300)" d="M1319.87 1835.78 L1347.18 1835.78 L1347.18 1841.19 L1326.3 1841.19 L1326.3 1855.2 L1345.14 1855.2 L1345.14 1860.61 L1326.3 1860.61 L1326.3 1883.3 L1319.87 1883.3 L1319.87 1835.78 Z" fill="#000000" fill-rule="nonzero" fill-opacity="1" /><path clip-path="url(#clip300)" d="M1352.37 1847.65 L1358.23 1847.65 L1358.23 1883.3 L1352.37 1883.3 L1352.37 1847.65 M1352.37 1833.78 L1358.23 1833.78 L1358.23 1841.19 L1352.37 1841.19 L1352.37 1833.78 Z" fill="#000000" fill-rule="nonzero" fill-opacity="1" /><path clip-path="url(#clip300)" d="M1400.11 1861.78 L1400.11 1883.3 L1394.26 1883.3 L1394.26 1861.98 Q1394.26 1856.92 1392.28 1854.4 Q1390.31 1851.89 1386.36 1851.89 Q1381.62 1851.89 1378.88 1854.91 Q1376.15 1857.93 1376.15 1863.15 L1376.15 1883.3 L1370.26 1883.3 L1370.26 1847.65 L1376.15 1847.65 L1376.15 1853.19 Q1378.25 1849.98 1381.08 1848.39 Q1383.94 1846.79 1387.67 1846.79 Q1393.81 1846.79 1396.96 1850.61 Q1400.11 1854.4 1400.11 1861.78 Z" fill="#000000" fill-rule="nonzero" fill-opacity="1" /><path clip-path="url(#clip300)" d="M1427.99 1865.38 Q1420.9 1865.38 1418.16 1867 Q1415.42 1868.63 1415.42 1872.54 Q1415.42 1875.66 1417.46 1877.51 Q1419.53 1879.32 1423.06 1879.32 Q1427.93 1879.32 1430.86 1875.88 Q1433.82 1872.42 1433.82 1866.69 L1433.82 1865.38 L1427.99 1865.38 M1439.68 1862.96 L1439.68 1883.3 L1433.82 1883.3 L1433.82 1877.89 Q1431.81 1881.14 1428.82 1882.7 Q1425.83 1884.22 1421.5 1884.22 Q1416.03 1884.22 1412.78 1881.17 Q1409.57 1878.08 1409.57 1872.92 Q1409.57 1866.91 1413.58 1863.85 Q1417.62 1860.8 1425.61 1860.8 L1433.82 1860.8 L1433.82 1860.23 Q1433.82 1856.18 1431.15 1853.99 Q1428.5 1851.76 1423.7 1851.76 Q1420.64 1851.76 1417.75 1852.49 Q1414.85 1853.22 1412.18 1854.69 L1412.18 1849.28 Q1415.39 1848.03 1418.41 1847.43 Q1421.44 1846.79 1424.3 1846.79 Q1432.04 1846.79 1435.86 1850.8 Q1439.68 1854.81 1439.68 1862.96 Z" fill="#000000" fill-rule="nonzero" fill-opacity="1" /><path clip-path="url(#clip300)" d="M1451.74 1833.78 L1457.59 1833.78 L1457.59 1883.3 L1451.74 1883.3 L1451.74 1833.78 Z" fill="#000000" fill-rule="nonzero" fill-opacity="1" /><path clip-path="url(#clip300)" d="M1513.29 1848.7 L1513.29 1854.24 Q1510.81 1852.97 1508.14 1852.33 Q1505.46 1851.7 1502.6 1851.7 Q1498.24 1851.7 1496.04 1853.03 Q1493.88 1854.37 1493.88 1857.04 Q1493.88 1859.08 1495.44 1860.26 Q1497 1861.4 1501.71 1862.45 L1503.71 1862.9 Q1509.95 1864.24 1512.56 1866.69 Q1515.2 1869.11 1515.2 1873.47 Q1515.2 1878.43 1511.26 1881.33 Q1507.34 1884.22 1500.47 1884.22 Q1497.6 1884.22 1494.48 1883.65 Q1491.4 1883.11 1487.96 1882 L1487.96 1875.95 Q1491.21 1877.64 1494.36 1878.49 Q1497.51 1879.32 1500.59 1879.32 Q1504.73 1879.32 1506.96 1877.92 Q1509.19 1876.49 1509.19 1873.91 Q1509.19 1871.52 1507.57 1870.25 Q1505.97 1868.98 1500.53 1867.8 L1498.49 1867.32 Q1493.05 1866.18 1490.63 1863.82 Q1488.21 1861.43 1488.21 1857.3 Q1488.21 1852.27 1491.78 1849.53 Q1495.34 1846.79 1501.9 1846.79 Q1505.15 1846.79 1508.01 1847.27 Q1510.88 1847.75 1513.29 1848.7 Z" fill="#000000" fill-rule="nonzero" fill-opacity="1" /><path clip-path="url(#clip300)" d="M1524.53 1847.65 L1530.39 1847.65 L1530.39 1883.3 L1524.53 1883.3 L1524.53 1847.65 M1524.53 1833.78 L1530.39 1833.78 L1530.39 1841.19 L1524.53 1841.19 L1524.53 1833.78 Z" fill="#000000" fill-rule="nonzero" fill-opacity="1" /><path clip-path="url(#clip300)" d="M1540.09 1847.65 L1567.91 1847.65 L1567.91 1853 L1545.89 1878.62 L1567.91 1878.62 L1567.91 1883.3 L1539.3 1883.3 L1539.3 1877.95 L1561.32 1852.33 L1540.09 1852.33 L1540.09 1847.65 Z" fill="#000000" fill-rule="nonzero" fill-opacity="1" /><path clip-path="url(#clip300)" d="M1607.35 1864.01 L1607.35 1866.88 L1580.42 1866.88 Q1580.8 1872.92 1584.05 1876.11 Q1587.33 1879.26 1593.15 1879.26 Q1596.53 1879.26 1599.68 1878.43 Q1602.86 1877.6 1605.98 1875.95 L1605.98 1881.49 Q1602.83 1882.82 1599.52 1883.52 Q1596.21 1884.22 1592.8 1884.22 Q1584.27 1884.22 1579.27 1879.26 Q1574.31 1874.29 1574.31 1865.83 Q1574.31 1857.07 1579.02 1851.95 Q1583.76 1846.79 1591.78 1846.79 Q1598.98 1846.79 1603.15 1851.44 Q1607.35 1856.06 1607.35 1864.01 M1601.49 1862.29 Q1601.43 1857.49 1598.79 1854.62 Q1596.18 1851.76 1591.85 1851.76 Q1586.95 1851.76 1583.99 1854.53 Q1581.06 1857.3 1580.61 1862.33 L1601.49 1862.29 Z" fill="#000000" fill-rule="nonzero" fill-opacity="1" /><polyline clip-path="url(#clip300)" style="stroke:#000000; stroke-linecap:round; stroke-linejoin:round; stroke-width:4; stroke-opacity:1; fill:none" points="286.464,1734.12 286.464,127.792 "/>
<polyline clip-path="url(#clip300)" style="stroke:#000000; stroke-linecap:round; stroke-linejoin:round; stroke-width:4; stroke-opacity:1; fill:none" points="286.464,1734.12 305.362,1734.12 "/>
<polyline clip-path="url(#clip300)" style="stroke:#000000; stroke-linecap:round; stroke-linejoin:round; stroke-width:4; stroke-opacity:1; fill:none" points="286.464,1388.97 305.362,1388.97 "/>
<polyline clip-path="url(#clip300)" style="stroke:#000000; stroke-linecap:round; stroke-linejoin:round; stroke-width:4; stroke-opacity:1; fill:none" points="286.464,1043.83 305.362,1043.83 "/>
<polyline clip-path="url(#clip300)" style="stroke:#000000; stroke-linecap:round; stroke-linejoin:round; stroke-width:4; stroke-opacity:1; fill:none" points="286.464,698.683 305.362,698.683 "/>
<polyline clip-path="url(#clip300)" style="stroke:#000000; stroke-linecap:round; stroke-linejoin:round; stroke-width:4; stroke-opacity:1; fill:none" points="286.464,353.538 305.362,353.538 "/>
<path clip-path="url(#clip300)" d="M128.645 1719.92 Q125.034 1719.92 123.205 1723.48 Q121.4 1727.02 121.4 1734.15 Q121.4 1741.26 123.205 1744.82 Q125.034 1748.36 128.645 1748.36 Q132.279 1748.36 134.085 1744.82 Q135.913 1741.26 135.913 1734.15 Q135.913 1727.02 134.085 1723.48 Q132.279 1719.92 128.645 1719.92 M128.645 1716.21 Q134.455 1716.21 137.511 1720.82 Q140.589 1725.4 140.589 1734.15 Q140.589 1742.88 137.511 1747.48 Q134.455 1752.07 128.645 1752.07 Q122.835 1752.07 119.756 1747.48 Q116.701 1742.88 116.701 1734.15 Q116.701 1725.4 119.756 1720.82 Q122.835 1716.21 128.645 1716.21 Z" fill="#000000" fill-rule="nonzero" fill-opacity="1" /><path clip-path="url(#clip300)" d="M148.807 1745.52 L153.691 1745.52 L153.691 1751.4 L148.807 1751.4 L148.807 1745.52 Z" fill="#000000" fill-rule="nonzero" fill-opacity="1" /><path clip-path="url(#clip300)" d="M173.876 1719.92 Q170.265 1719.92 168.436 1723.48 Q166.631 1727.02 166.631 1734.15 Q166.631 1741.26 168.436 1744.82 Q170.265 1748.36 173.876 1748.36 Q177.51 1748.36 179.316 1744.82 Q181.145 1741.26 181.145 1734.15 Q181.145 1727.02 179.316 1723.48 Q177.51 1719.92 173.876 1719.92 M173.876 1716.21 Q179.686 1716.21 182.742 1720.82 Q185.821 1725.4 185.821 1734.15 Q185.821 1742.88 182.742 1747.48 Q179.686 1752.07 173.876 1752.07 Q168.066 1752.07 164.987 1747.48 Q161.932 1742.88 161.932 1734.15 Q161.932 1725.4 164.987 1720.82 Q168.066 1716.21 173.876 1716.21 Z" fill="#000000" fill-rule="nonzero" fill-opacity="1" /><path clip-path="url(#clip300)" d="M204.038 1719.92 Q200.427 1719.92 198.598 1723.48 Q196.793 1727.02 196.793 1734.15 Q196.793 1741.26 198.598 1744.82 Q200.427 1748.36 204.038 1748.36 Q207.672 1748.36 209.478 1744.82 Q211.307 1741.26 211.307 1734.15 Q211.307 1727.02 209.478 1723.48 Q207.672 1719.92 204.038 1719.92 M204.038 1716.21 Q209.848 1716.21 212.904 1720.82 Q215.982 1725.4 215.982 1734.15 Q215.982 1742.88 212.904 1747.48 Q209.848 1752.07 204.038 1752.07 Q198.228 1752.07 195.149 1747.48 Q192.094 1742.88 192.094 1734.15 Q192.094 1725.4 195.149 1720.82 Q198.228 1716.21 204.038 1716.21 Z" fill="#000000" fill-rule="nonzero" fill-opacity="1" /><path clip-path="url(#clip300)" d="M234.2 1719.92 Q230.589 1719.92 228.76 1723.48 Q226.955 1727.02 226.955 1734.15 Q226.955 1741.26 228.76 1744.82 Q230.589 1748.36 234.2 1748.36 Q237.834 1748.36 239.64 1744.82 Q241.468 1741.26 241.468 1734.15 Q241.468 1727.02 239.64 1723.48 Q237.834 1719.92 234.2 1719.92 M234.2 1716.21 Q240.01 1716.21 243.066 1720.82 Q246.144 1725.4 246.144 1734.15 Q246.144 1742.88 243.066 1747.48 Q240.01 1752.07 234.2 1752.07 Q228.39 1752.07 225.311 1747.48 Q222.256 1742.88 222.256 1734.15 Q222.256 1725.4 225.311 1720.82 Q228.39 1716.21 234.2 1716.21 Z" fill="#000000" fill-rule="nonzero" fill-opacity="1" /><path clip-path="url(#clip300)" d="M130.242 1374.77 Q126.631 1374.77 124.802 1378.34 Q122.997 1381.88 122.997 1389.01 Q122.997 1396.11 124.802 1399.68 Q126.631 1403.22 130.242 1403.22 Q133.876 1403.22 135.682 1399.68 Q137.511 1396.11 137.511 1389.01 Q137.511 1381.88 135.682 1378.34 Q133.876 1374.77 130.242 1374.77 M130.242 1371.07 Q136.052 1371.07 139.108 1375.67 Q142.187 1380.26 142.187 1389.01 Q142.187 1397.73 139.108 1402.34 Q136.052 1406.92 130.242 1406.92 Q124.432 1406.92 121.353 1402.34 Q118.298 1397.73 118.298 1389.01 Q118.298 1380.26 121.353 1375.67 Q124.432 1371.07 130.242 1371.07 Z" fill="#000000" fill-rule="nonzero" fill-opacity="1" /><path clip-path="url(#clip300)" d="M150.404 1400.37 L155.288 1400.37 L155.288 1406.25 L150.404 1406.25 L150.404 1400.37 Z" fill="#000000" fill-rule="nonzero" fill-opacity="1" /><path clip-path="url(#clip300)" d="M175.473 1374.77 Q171.862 1374.77 170.034 1378.34 Q168.228 1381.88 168.228 1389.01 Q168.228 1396.11 170.034 1399.68 Q171.862 1403.22 175.473 1403.22 Q179.108 1403.22 180.913 1399.68 Q182.742 1396.11 182.742 1389.01 Q182.742 1381.88 180.913 1378.34 Q179.108 1374.77 175.473 1374.77 M175.473 1371.07 Q181.284 1371.07 184.339 1375.67 Q187.418 1380.26 187.418 1389.01 Q187.418 1397.73 184.339 1402.34 Q181.284 1406.92 175.473 1406.92 Q169.663 1406.92 166.585 1402.34 Q163.529 1397.73 163.529 1389.01 Q163.529 1380.26 166.585 1375.67 Q169.663 1371.07 175.473 1371.07 Z" fill="#000000" fill-rule="nonzero" fill-opacity="1" /><path clip-path="url(#clip300)" d="M205.635 1374.77 Q202.024 1374.77 200.195 1378.34 Q198.39 1381.88 198.39 1389.01 Q198.39 1396.11 200.195 1399.68 Q202.024 1403.22 205.635 1403.22 Q209.27 1403.22 211.075 1399.68 Q212.904 1396.11 212.904 1389.01 Q212.904 1381.88 211.075 1378.34 Q209.27 1374.77 205.635 1374.77 M205.635 1371.07 Q211.445 1371.07 214.501 1375.67 Q217.58 1380.26 217.58 1389.01 Q217.58 1397.73 214.501 1402.34 Q211.445 1406.92 205.635 1406.92 Q199.825 1406.92 196.746 1402.34 Q193.691 1397.73 193.691 1389.01 Q193.691 1380.26 196.746 1375.67 Q199.825 1371.07 205.635 1371.07 Z" fill="#000000" fill-rule="nonzero" fill-opacity="1" /><path clip-path="url(#clip300)" d="M229.825 1402.32 L246.144 1402.32 L246.144 1406.25 L224.2 1406.25 L224.2 1402.32 Q226.862 1399.56 231.445 1394.93 Q236.052 1390.28 237.232 1388.94 Q239.478 1386.41 240.357 1384.68 Q241.26 1382.92 241.26 1381.23 Q241.26 1378.47 239.316 1376.74 Q237.394 1375 234.293 1375 Q232.093 1375 229.64 1375.77 Q227.209 1376.53 224.431 1378.08 L224.431 1373.36 Q227.256 1372.22 229.709 1371.65 Q232.163 1371.07 234.2 1371.07 Q239.57 1371.07 242.765 1373.75 Q245.959 1376.44 245.959 1380.93 Q245.959 1383.06 245.149 1384.98 Q244.362 1386.88 242.255 1389.47 Q241.677 1390.14 238.575 1393.36 Q235.473 1396.55 229.825 1402.32 Z" fill="#000000" fill-rule="nonzero" fill-opacity="1" /><path clip-path="url(#clip300)" d="M128.159 1029.63 Q124.548 1029.63 122.719 1033.19 Q120.913 1036.73 120.913 1043.86 Q120.913 1050.97 122.719 1054.53 Q124.548 1058.08 128.159 1058.08 Q131.793 1058.08 133.599 1054.53 Q135.427 1050.97 135.427 1043.86 Q135.427 1036.73 133.599 1033.19 Q131.793 1029.63 128.159 1029.63 M128.159 1025.92 Q133.969 1025.92 137.025 1030.53 Q140.103 1035.11 140.103 1043.86 Q140.103 1052.59 137.025 1057.2 Q133.969 1061.78 128.159 1061.78 Q122.349 1061.78 119.27 1057.2 Q116.214 1052.59 116.214 1043.86 Q116.214 1035.11 119.27 1030.53 Q122.349 1025.92 128.159 1025.92 Z" fill="#000000" fill-rule="nonzero" fill-opacity="1" /><path clip-path="url(#clip300)" d="M148.321 1055.23 L153.205 1055.23 L153.205 1061.11 L148.321 1061.11 L148.321 1055.23 Z" fill="#000000" fill-rule="nonzero" fill-opacity="1" /><path clip-path="url(#clip300)" d="M173.39 1029.63 Q169.779 1029.63 167.95 1033.19 Q166.145 1036.73 166.145 1043.86 Q166.145 1050.97 167.95 1054.53 Q169.779 1058.08 173.39 1058.08 Q177.024 1058.08 178.83 1054.53 Q180.659 1050.97 180.659 1043.86 Q180.659 1036.73 178.83 1033.19 Q177.024 1029.63 173.39 1029.63 M173.39 1025.92 Q179.2 1025.92 182.256 1030.53 Q185.334 1035.11 185.334 1043.86 Q185.334 1052.59 182.256 1057.2 Q179.2 1061.78 173.39 1061.78 Q167.58 1061.78 164.501 1057.2 Q161.446 1052.59 161.446 1043.86 Q161.446 1035.11 164.501 1030.53 Q167.58 1025.92 173.39 1025.92 Z" fill="#000000" fill-rule="nonzero" fill-opacity="1" /><path clip-path="url(#clip300)" d="M203.552 1029.63 Q199.941 1029.63 198.112 1033.19 Q196.307 1036.73 196.307 1043.86 Q196.307 1050.97 198.112 1054.53 Q199.941 1058.08 203.552 1058.08 Q207.186 1058.08 208.992 1054.53 Q210.82 1050.97 210.82 1043.86 Q210.82 1036.73 208.992 1033.19 Q207.186 1029.63 203.552 1029.63 M203.552 1025.92 Q209.362 1025.92 212.418 1030.53 Q215.496 1035.11 215.496 1043.86 Q215.496 1052.59 212.418 1057.2 Q209.362 1061.78 203.552 1061.78 Q197.742 1061.78 194.663 1057.2 Q191.608 1052.59 191.608 1043.86 Q191.608 1035.11 194.663 1030.53 Q197.742 1025.92 203.552 1025.92 Z" fill="#000000" fill-rule="nonzero" fill-opacity="1" /><path clip-path="url(#clip300)" d="M236.561 1030.62 L224.756 1049.07 L236.561 1049.07 L236.561 1030.62 M235.334 1026.55 L241.214 1026.55 L241.214 1049.07 L246.144 1049.07 L246.144 1052.96 L241.214 1052.96 L241.214 1061.11 L236.561 1061.11 L236.561 1052.96 L220.959 1052.96 L220.959 1048.45 L235.334 1026.55 Z" fill="#000000" fill-rule="nonzero" fill-opacity="1" /><path clip-path="url(#clip300)" d="M128.483 684.482 Q124.872 684.482 123.043 688.046 Q121.238 691.588 121.238 698.718 Q121.238 705.824 123.043 709.389 Q124.872 712.931 128.483 712.931 Q132.117 712.931 133.923 709.389 Q135.751 705.824 135.751 698.718 Q135.751 691.588 133.923 688.046 Q132.117 684.482 128.483 684.482 M128.483 680.778 Q134.293 680.778 137.349 685.384 Q140.427 689.968 140.427 698.718 Q140.427 707.445 137.349 712.051 Q134.293 716.634 128.483 716.634 Q122.673 716.634 119.594 712.051 Q116.539 707.445 116.539 698.718 Q116.539 689.968 119.594 685.384 Q122.673 680.778 128.483 680.778 Z" fill="#000000" fill-rule="nonzero" fill-opacity="1" /><path clip-path="url(#clip300)" d="M148.645 710.083 L153.529 710.083 L153.529 715.963 L148.645 715.963 L148.645 710.083 Z" fill="#000000" fill-rule="nonzero" fill-opacity="1" /><path clip-path="url(#clip300)" d="M173.714 684.482 Q170.103 684.482 168.274 688.046 Q166.469 691.588 166.469 698.718 Q166.469 705.824 168.274 709.389 Q170.103 712.931 173.714 712.931 Q177.348 712.931 179.154 709.389 Q180.983 705.824 180.983 698.718 Q180.983 691.588 179.154 688.046 Q177.348 684.482 173.714 684.482 M173.714 680.778 Q179.524 680.778 182.58 685.384 Q185.659 689.968 185.659 698.718 Q185.659 707.445 182.58 712.051 Q179.524 716.634 173.714 716.634 Q167.904 716.634 164.825 712.051 Q161.77 707.445 161.77 698.718 Q161.77 689.968 164.825 685.384 Q167.904 680.778 173.714 680.778 Z" fill="#000000" fill-rule="nonzero" fill-opacity="1" /><path clip-path="url(#clip300)" d="M203.876 684.482 Q200.265 684.482 198.436 688.046 Q196.631 691.588 196.631 698.718 Q196.631 705.824 198.436 709.389 Q200.265 712.931 203.876 712.931 Q207.51 712.931 209.316 709.389 Q211.144 705.824 211.144 698.718 Q211.144 691.588 209.316 688.046 Q207.51 684.482 203.876 684.482 M203.876 680.778 Q209.686 680.778 212.742 685.384 Q215.82 689.968 215.82 698.718 Q215.82 707.445 212.742 712.051 Q209.686 716.634 203.876 716.634 Q198.066 716.634 194.987 712.051 Q191.932 707.445 191.932 698.718 Q191.932 689.968 194.987 685.384 Q198.066 680.778 203.876 680.778 Z" fill="#000000" fill-rule="nonzero" fill-opacity="1" /><path clip-path="url(#clip300)" d="M234.617 696.82 Q231.468 696.82 229.617 698.972 Q227.788 701.125 227.788 704.875 Q227.788 708.602 229.617 710.778 Q231.468 712.931 234.617 712.931 Q237.765 712.931 239.593 710.778 Q241.445 708.602 241.445 704.875 Q241.445 701.125 239.593 698.972 Q237.765 696.82 234.617 696.82 M243.899 682.167 L243.899 686.426 Q242.14 685.593 240.334 685.153 Q238.552 684.713 236.793 684.713 Q232.163 684.713 229.709 687.838 Q227.279 690.963 226.931 697.283 Q228.297 695.269 230.357 694.204 Q232.418 693.116 234.894 693.116 Q240.103 693.116 243.112 696.287 Q246.144 699.435 246.144 704.875 Q246.144 710.199 242.996 713.417 Q239.848 716.634 234.617 716.634 Q228.621 716.634 225.45 712.051 Q222.279 707.445 222.279 698.718 Q222.279 690.523 226.168 685.662 Q230.056 680.778 236.607 680.778 Q238.367 680.778 240.149 681.125 Q241.955 681.472 243.899 682.167 Z" fill="#000000" fill-rule="nonzero" fill-opacity="1" /><path clip-path="url(#clip300)" d="M128.738 339.337 Q125.126 339.337 123.298 342.902 Q121.492 346.443 121.492 353.573 Q121.492 360.679 123.298 364.244 Q125.126 367.786 128.738 367.786 Q132.372 367.786 134.177 364.244 Q136.006 360.679 136.006 353.573 Q136.006 346.443 134.177 342.902 Q132.372 339.337 128.738 339.337 M128.738 335.633 Q134.548 335.633 137.603 340.24 Q140.682 344.823 140.682 353.573 Q140.682 362.3 137.603 366.906 Q134.548 371.49 128.738 371.49 Q122.927 371.49 119.849 366.906 Q116.793 362.3 116.793 353.573 Q116.793 344.823 119.849 340.24 Q122.927 335.633 128.738 335.633 Z" fill="#000000" fill-rule="nonzero" fill-opacity="1" /><path clip-path="url(#clip300)" d="M148.899 364.939 L153.784 364.939 L153.784 370.818 L148.899 370.818 L148.899 364.939 Z" fill="#000000" fill-rule="nonzero" fill-opacity="1" /><path clip-path="url(#clip300)" d="M173.969 339.337 Q170.358 339.337 168.529 342.902 Q166.723 346.443 166.723 353.573 Q166.723 360.679 168.529 364.244 Q170.358 367.786 173.969 367.786 Q177.603 367.786 179.409 364.244 Q181.237 360.679 181.237 353.573 Q181.237 346.443 179.409 342.902 Q177.603 339.337 173.969 339.337 M173.969 335.633 Q179.779 335.633 182.834 340.24 Q185.913 344.823 185.913 353.573 Q185.913 362.3 182.834 366.906 Q179.779 371.49 173.969 371.49 Q168.159 371.49 165.08 366.906 Q162.024 362.3 162.024 353.573 Q162.024 344.823 165.08 340.24 Q168.159 335.633 173.969 335.633 Z" fill="#000000" fill-rule="nonzero" fill-opacity="1" /><path clip-path="url(#clip300)" d="M204.131 339.337 Q200.52 339.337 198.691 342.902 Q196.885 346.443 196.885 353.573 Q196.885 360.679 198.691 364.244 Q200.52 367.786 204.131 367.786 Q207.765 367.786 209.57 364.244 Q211.399 360.679 211.399 353.573 Q211.399 346.443 209.57 342.902 Q207.765 339.337 204.131 339.337 M204.131 335.633 Q209.941 335.633 212.996 340.24 Q216.075 344.823 216.075 353.573 Q216.075 362.3 212.996 366.906 Q209.941 371.49 204.131 371.49 Q198.32 371.49 195.242 366.906 Q192.186 362.3 192.186 353.573 Q192.186 344.823 195.242 340.24 Q198.32 335.633 204.131 335.633 Z" fill="#000000" fill-rule="nonzero" fill-opacity="1" /><path clip-path="url(#clip300)" d="M234.293 354.406 Q230.959 354.406 229.038 356.189 Q227.14 357.971 227.14 361.096 Q227.14 364.221 229.038 366.004 Q230.959 367.786 234.293 367.786 Q237.626 367.786 239.547 366.004 Q241.468 364.198 241.468 361.096 Q241.468 357.971 239.547 356.189 Q237.649 354.406 234.293 354.406 M229.617 352.416 Q226.607 351.675 224.918 349.615 Q223.251 347.555 223.251 344.592 Q223.251 340.448 226.191 338.041 Q229.154 335.633 234.293 335.633 Q239.455 335.633 242.394 338.041 Q245.334 340.448 245.334 344.592 Q245.334 347.555 243.644 349.615 Q241.978 351.675 238.992 352.416 Q242.371 353.203 244.246 355.494 Q246.144 357.786 246.144 361.096 Q246.144 366.119 243.066 368.804 Q240.01 371.49 234.293 371.49 Q228.575 371.49 225.496 368.804 Q222.441 366.119 222.441 361.096 Q222.441 357.786 224.339 355.494 Q226.237 353.203 229.617 352.416 M227.904 345.031 Q227.904 347.717 229.57 349.221 Q231.26 350.726 234.293 350.726 Q237.302 350.726 238.992 349.221 Q240.705 347.717 240.705 345.031 Q240.705 342.346 238.992 340.842 Q237.302 339.337 234.293 339.337 Q231.26 339.337 229.57 340.842 Q227.904 342.346 227.904 345.031 Z" fill="#000000" fill-rule="nonzero" fill-opacity="1" /><path clip-path="url(#clip300)" d="M19.402 1044.26 L56.3549 1044.26 L56.3549 1036.5 Q56.3549 1026.66 51.8989 1022.11 Q47.4429 1017.53 37.8307 1017.53 Q28.2821 1017.53 23.858 1022.11 Q19.402 1026.66 19.402 1036.5 L19.402 1044.26 M14.1184 1050.69 L14.1184 1037.48 Q14.1184 1023.67 19.8794 1017.21 Q25.6085 1010.75 37.8307 1010.75 Q50.1165 1010.75 55.8775 1017.24 Q61.6384 1023.73 61.6384 1037.48 L61.6384 1050.69 L14.1184 1050.69 Z" fill="#000000" fill-rule="nonzero" fill-opacity="1" /><path clip-path="url(#clip300)" d="M42.3504 970.263 L45.2149 970.263 L45.2149 997.19 Q51.2623 996.808 54.4452 993.561 Q57.5962 990.283 57.5962 984.458 Q57.5962 981.084 56.7687 977.933 Q55.9411 974.751 54.2861 971.631 L59.8242 971.631 Q61.161 974.782 61.8612 978.093 Q62.5615 981.403 62.5615 984.808 Q62.5615 993.338 57.5962 998.336 Q52.631 1003.3 44.1646 1003.3 Q35.4117 1003.3 30.2873 998.59 Q25.1311 993.848 25.1311 985.827 Q25.1311 978.634 29.7781 974.464 Q34.3932 970.263 42.3504 970.263 M40.6316 976.119 Q35.8255 976.183 32.9609 978.825 Q30.0964 981.435 30.0964 985.763 Q30.0964 990.665 32.8654 993.625 Q35.6345 996.553 40.6634 996.999 L40.6316 976.119 Z" fill="#000000" fill-rule="nonzero" fill-opacity="1" /><path clip-path="url(#clip300)" d="M40.1224 931.018 L61.6384 931.018 L61.6384 936.875 L40.3133 936.875 Q35.2526 936.875 32.7381 938.848 Q30.2237 940.821 30.2237 944.768 Q30.2237 949.511 33.2474 952.248 Q36.2711 954.985 41.491 954.985 L61.6384 954.985 L61.6384 960.873 L25.9905 960.873 L25.9905 954.985 L31.5287 954.985 Q28.314 952.884 26.7225 950.052 Q25.1311 947.187 25.1311 943.463 Q25.1311 937.32 28.9505 934.169 Q32.7381 931.018 40.1224 931.018 Z" fill="#000000" fill-rule="nonzero" fill-opacity="1" /><path clip-path="url(#clip300)" d="M27.0408 896.612 L32.579 896.612 Q31.3059 899.094 30.6693 901.768 Q30.0327 904.441 30.0327 907.306 Q30.0327 911.666 31.3695 913.863 Q32.7063 916.027 35.3799 916.027 Q37.4169 916.027 38.5946 914.467 Q39.7404 912.908 40.7908 908.197 L41.2364 906.192 Q42.5732 899.954 45.0239 897.344 Q47.4429 894.702 51.8034 894.702 Q56.7687 894.702 59.6651 898.649 Q62.5615 902.564 62.5615 909.438 Q62.5615 912.303 61.9886 915.422 Q61.4475 918.51 60.3335 921.947 L54.2861 921.947 Q55.973 918.701 56.8323 915.55 Q57.6599 912.399 57.6599 909.311 Q57.6599 905.173 56.2594 902.945 Q54.8271 900.717 52.249 900.717 Q49.8619 900.717 48.5887 902.341 Q47.3156 903.932 46.1379 909.375 L45.6605 911.412 Q44.5147 916.855 42.1594 919.273 Q39.7722 921.692 35.6345 921.692 Q30.6056 921.692 27.8684 918.128 Q25.1311 914.563 25.1311 908.006 Q25.1311 904.76 25.6085 901.895 Q26.086 899.031 27.0408 896.612 Z" fill="#000000" fill-rule="nonzero" fill-opacity="1" /><path clip-path="url(#clip300)" d="M25.9905 885.376 L25.9905 879.52 L61.6384 879.52 L61.6384 885.376 L25.9905 885.376 M12.1132 885.376 L12.1132 879.52 L19.5293 879.52 L19.5293 885.376 L12.1132 885.376 Z" fill="#000000" fill-rule="nonzero" fill-opacity="1" /><path clip-path="url(#clip300)" d="M15.869 861.473 L25.9905 861.473 L25.9905 849.41 L30.542 849.41 L30.542 861.473 L49.8937 861.473 Q54.2542 861.473 55.4955 860.295 Q56.7368 859.086 56.7368 855.425 L56.7368 849.41 L61.6384 849.41 L61.6384 855.425 Q61.6384 862.205 59.124 864.783 Q56.5777 867.361 49.8937 867.361 L30.542 867.361 L30.542 871.658 L25.9905 871.658 L25.9905 867.361 L15.869 867.361 L15.869 861.473 Z" fill="#000000" fill-rule="nonzero" fill-opacity="1" /><path clip-path="url(#clip300)" d="M64.9486 826.875 Q71.3143 829.358 73.2559 831.713 Q75.1974 834.069 75.1974 838.015 L75.1974 842.694 L70.2958 842.694 L70.2958 839.257 Q70.2958 836.838 69.15 835.501 Q68.0041 834.164 63.7391 832.541 L61.0655 831.49 L25.9905 845.909 L25.9905 839.702 L53.8723 828.562 L25.9905 817.422 L25.9905 811.216 L64.9486 826.875 Z" fill="#000000" fill-rule="nonzero" fill-opacity="1" /><path clip-path="url(#clip300)" d="M1077.52 12.096 L1112.28 12.096 L1112.28 18.9825 L1085.7 18.9825 L1085.7 36.8065 L1109.68 36.8065 L1109.68 43.6931 L1085.7 43.6931 L1085.7 72.576 L1077.52 72.576 L1077.52 12.096 Z" fill="#000000" fill-rule="nonzero" fill-opacity="1" /><path clip-path="url(#clip300)" d="M1118.88 27.2059 L1126.33 27.2059 L1126.33 72.576 L1118.88 72.576 L1118.88 27.2059 M1118.88 9.54393 L1126.33 9.54393 L1126.33 18.9825 L1118.88 18.9825 L1118.88 9.54393 Z" fill="#000000" fill-rule="nonzero" fill-opacity="1" /><path clip-path="url(#clip300)" d="M1179.64 45.1919 L1179.64 72.576 L1172.19 72.576 L1172.19 45.4349 Q1172.19 38.994 1169.68 35.7938 Q1167.16 32.5936 1162.14 32.5936 Q1156.11 32.5936 1152.62 36.4419 Q1149.14 40.2903 1149.14 46.9338 L1149.14 72.576 L1141.64 72.576 L1141.64 27.2059 L1149.14 27.2059 L1149.14 34.2544 Q1151.81 30.163 1155.42 28.1376 Q1159.06 26.1121 1163.8 26.1121 Q1171.62 26.1121 1175.63 30.9732 Q1179.64 35.7938 1179.64 45.1919 Z" fill="#000000" fill-rule="nonzero" fill-opacity="1" /><path clip-path="url(#clip300)" d="M1215.13 49.7694 Q1206.09 49.7694 1202.61 51.8354 Q1199.13 53.9013 1199.13 58.8839 Q1199.13 62.8538 1201.72 65.2034 Q1204.35 67.5124 1208.85 67.5124 Q1215.05 67.5124 1218.77 63.1374 Q1222.54 58.7219 1222.54 51.4303 L1222.54 49.7694 L1215.13 49.7694 M1229.99 46.6907 L1229.99 72.576 L1222.54 72.576 L1222.54 65.6895 Q1219.99 69.8214 1216.18 71.8063 Q1212.37 73.7508 1206.86 73.7508 Q1199.9 73.7508 1195.76 69.8619 Q1191.67 65.9325 1191.67 59.3701 Q1191.67 51.7138 1196.78 47.825 Q1201.92 43.9361 1212.09 43.9361 L1222.54 43.9361 L1222.54 43.2069 Q1222.54 38.0623 1219.14 35.2672 Q1215.78 32.4315 1209.66 32.4315 Q1205.77 32.4315 1202.08 33.3632 Q1198.4 34.295 1194.99 36.1584 L1194.99 29.2718 Q1199.09 27.692 1202.93 26.9223 Q1206.78 26.1121 1210.43 26.1121 Q1220.27 26.1121 1225.13 31.2163 Q1229.99 36.3204 1229.99 46.6907 Z" fill="#000000" fill-rule="nonzero" fill-opacity="1" /><path clip-path="url(#clip300)" d="M1245.35 9.54393 L1252.8 9.54393 L1252.8 72.576 L1245.35 72.576 L1245.35 9.54393 Z" fill="#000000" fill-rule="nonzero" fill-opacity="1" /><path clip-path="url(#clip300)" d="M1333.58 48.0275 L1333.58 51.6733 L1299.31 51.6733 Q1299.79 59.3701 1303.92 63.421 Q1308.1 67.4314 1315.51 67.4314 Q1319.8 67.4314 1323.81 66.3781 Q1327.86 65.3249 1331.83 63.2184 L1331.83 70.267 Q1327.82 71.9684 1323.61 72.8596 Q1319.4 73.7508 1315.06 73.7508 Q1304.21 73.7508 1297.85 67.4314 Q1291.53 61.1119 1291.53 50.3365 Q1291.53 39.1965 1297.52 32.6746 Q1303.56 26.1121 1313.77 26.1121 Q1322.92 26.1121 1328.23 32.0264 Q1333.58 37.9003 1333.58 48.0275 M1326.12 45.84 Q1326.04 39.7232 1322.68 36.0774 Q1319.36 32.4315 1313.85 32.4315 Q1307.61 32.4315 1303.84 35.9558 Q1300.12 39.4801 1299.55 45.8805 L1326.12 45.84 Z" fill="#000000" fill-rule="nonzero" fill-opacity="1" /><path clip-path="url(#clip300)" d="M1353.02 65.7705 L1353.02 89.8329 L1345.53 89.8329 L1345.53 27.2059 L1353.02 27.2059 L1353.02 34.0924 Q1355.37 30.0415 1358.93 28.0971 Q1362.54 26.1121 1367.52 26.1121 Q1375.79 26.1121 1380.93 32.6746 Q1386.12 39.2371 1386.12 49.9314 Q1386.12 60.6258 1380.93 67.1883 Q1375.79 73.7508 1367.52 73.7508 Q1362.54 73.7508 1358.93 71.8063 Q1355.37 69.8214 1353.02 65.7705 M1378.38 49.9314 Q1378.38 41.7081 1374.98 37.0496 Q1371.61 32.3505 1365.7 32.3505 Q1359.79 32.3505 1356.38 37.0496 Q1353.02 41.7081 1353.02 49.9314 Q1353.02 58.1548 1356.38 62.8538 Q1359.79 67.5124 1365.7 67.5124 Q1371.61 67.5124 1374.98 62.8538 Q1378.38 58.1548 1378.38 49.9314 Z" fill="#000000" fill-rule="nonzero" fill-opacity="1" /><path clip-path="url(#clip300)" d="M1398.47 27.2059 L1405.93 27.2059 L1405.93 72.576 L1398.47 72.576 L1398.47 27.2059 M1398.47 9.54393 L1405.93 9.54393 L1405.93 18.9825 L1398.47 18.9825 L1398.47 9.54393 Z" fill="#000000" fill-rule="nonzero" fill-opacity="1" /><path clip-path="url(#clip300)" d="M1451.38 34.0924 L1451.38 9.54393 L1458.83 9.54393 L1458.83 72.576 L1451.38 72.576 L1451.38 65.7705 Q1449.03 69.8214 1445.42 71.8063 Q1441.86 73.7508 1436.83 73.7508 Q1428.61 73.7508 1423.43 67.1883 Q1418.28 60.6258 1418.28 49.9314 Q1418.28 39.2371 1423.43 32.6746 Q1428.61 26.1121 1436.83 26.1121 Q1441.86 26.1121 1445.42 28.0971 Q1449.03 30.0415 1451.38 34.0924 M1425.98 49.9314 Q1425.98 58.1548 1429.34 62.8538 Q1432.74 67.5124 1438.66 67.5124 Q1444.57 67.5124 1447.97 62.8538 Q1451.38 58.1548 1451.38 49.9314 Q1451.38 41.7081 1447.97 37.0496 Q1444.57 32.3505 1438.66 32.3505 Q1432.74 32.3505 1429.34 37.0496 Q1425.98 41.7081 1425.98 49.9314 Z" fill="#000000" fill-rule="nonzero" fill-opacity="1" /><path clip-path="url(#clip300)" d="M1512.99 48.0275 L1512.99 51.6733 L1478.72 51.6733 Q1479.21 59.3701 1483.34 63.421 Q1487.51 67.4314 1494.92 67.4314 Q1499.22 67.4314 1503.23 66.3781 Q1507.28 65.3249 1511.25 63.2184 L1511.25 70.267 Q1507.24 71.9684 1503.03 72.8596 Q1498.81 73.7508 1494.48 73.7508 Q1483.62 73.7508 1477.26 67.4314 Q1470.94 61.1119 1470.94 50.3365 Q1470.94 39.1965 1476.94 32.6746 Q1482.97 26.1121 1493.18 26.1121 Q1502.34 26.1121 1507.64 32.0264 Q1512.99 37.9003 1512.99 48.0275 M1505.54 45.84 Q1505.46 39.7232 1502.09 36.0774 Q1498.77 32.4315 1493.26 32.4315 Q1487.02 32.4315 1483.26 35.9558 Q1479.53 39.4801 1478.96 45.8805 L1505.54 45.84 Z" fill="#000000" fill-rule="nonzero" fill-opacity="1" /><path clip-path="url(#clip300)" d="M1560.55 35.9153 Q1563.34 30.8922 1567.23 28.5022 Q1571.12 26.1121 1576.39 26.1121 Q1583.48 26.1121 1587.32 31.0947 Q1591.17 36.0368 1591.17 45.1919 L1591.17 72.576 L1583.68 72.576 L1583.68 45.4349 Q1583.68 38.913 1581.37 35.7533 Q1579.06 32.5936 1574.32 32.5936 Q1568.53 32.5936 1565.17 36.4419 Q1561.8 40.2903 1561.8 46.9338 L1561.8 72.576 L1554.31 72.576 L1554.31 45.4349 Q1554.31 38.8725 1552 35.7533 Q1549.69 32.5936 1544.87 32.5936 Q1539.16 32.5936 1535.8 36.4824 Q1532.43 40.3308 1532.43 46.9338 L1532.43 72.576 L1524.94 72.576 L1524.94 27.2059 L1532.43 27.2059 L1532.43 34.2544 Q1534.99 30.082 1538.55 28.0971 Q1542.12 26.1121 1547.02 26.1121 Q1551.96 26.1121 1555.4 28.6237 Q1558.89 31.1352 1560.55 35.9153 Z" fill="#000000" fill-rule="nonzero" fill-opacity="1" /><path clip-path="url(#clip300)" d="M1606.04 27.2059 L1613.49 27.2059 L1613.49 72.576 L1606.04 72.576 L1606.04 27.2059 M1606.04 9.54393 L1613.49 9.54393 L1613.49 18.9825 L1606.04 18.9825 L1606.04 9.54393 Z" fill="#000000" fill-rule="nonzero" fill-opacity="1" /><path clip-path="url(#clip300)" d="M1661.74 28.9478 L1661.74 35.9153 Q1658.58 34.1734 1655.38 33.3227 Q1652.22 32.4315 1648.98 32.4315 Q1641.73 32.4315 1637.72 37.0496 Q1633.71 41.6271 1633.71 49.9314 Q1633.71 58.2358 1637.72 62.8538 Q1641.73 67.4314 1648.98 67.4314 Q1652.22 67.4314 1655.38 66.5807 Q1658.58 65.6895 1661.74 63.9476 L1661.74 70.8341 Q1658.62 72.2924 1655.26 73.0216 Q1651.94 73.7508 1648.17 73.7508 Q1637.92 73.7508 1631.88 67.3098 Q1625.85 60.8689 1625.85 49.9314 Q1625.85 38.832 1631.93 32.472 Q1638.04 26.1121 1648.66 26.1121 Q1652.1 26.1121 1655.38 26.8413 Q1658.66 27.5299 1661.74 28.9478 Z" fill="#000000" fill-rule="nonzero" fill-opacity="1" /><path clip-path="url(#clip300)" d="M1730 28.5427 L1730 35.5912 Q1726.84 33.9709 1723.44 33.1607 Q1720.03 32.3505 1716.39 32.3505 Q1710.84 32.3505 1708.04 34.0519 Q1705.29 35.7533 1705.29 39.156 Q1705.29 41.7486 1707.27 43.2475 Q1709.26 44.7058 1715.25 46.0426 L1717.8 46.6097 Q1725.74 48.3111 1729.07 51.4303 Q1732.43 54.509 1732.43 60.0587 Q1732.43 66.3781 1727.4 70.0644 Q1722.42 73.7508 1713.67 73.7508 Q1710.03 73.7508 1706.06 73.0216 Q1702.13 72.3329 1697.75 70.9151 L1697.75 63.2184 Q1701.88 65.3654 1705.89 66.4591 Q1709.91 67.5124 1713.83 67.5124 Q1719.1 67.5124 1721.94 65.73 Q1724.77 63.9071 1724.77 60.6258 Q1724.77 57.5877 1722.71 55.9673 Q1720.68 54.3469 1713.75 52.8481 L1711.16 52.2405 Q1704.23 50.7821 1701.16 47.7845 Q1698.08 44.7463 1698.08 39.4801 Q1698.08 33.0797 1702.61 29.5959 Q1707.15 26.1121 1715.5 26.1121 Q1719.63 26.1121 1723.27 26.7198 Q1726.92 27.3274 1730 28.5427 Z" fill="#000000" fill-rule="nonzero" fill-opacity="1" /><path clip-path="url(#clip300)" d="M1744.3 27.2059 L1751.75 27.2059 L1751.75 72.576 L1744.3 72.576 L1744.3 27.2059 M1744.3 9.54393 L1751.75 9.54393 L1751.75 18.9825 L1744.3 18.9825 L1744.3 9.54393 Z" fill="#000000" fill-rule="nonzero" fill-opacity="1" /><path clip-path="url(#clip300)" d="M1764.11 27.2059 L1799.51 27.2059 L1799.51 34.0114 L1771.48 66.6212 L1799.51 66.6212 L1799.51 72.576 L1763.09 72.576 L1763.09 65.7705 L1791.13 33.1607 L1764.11 33.1607 L1764.11 27.2059 Z" fill="#000000" fill-rule="nonzero" fill-opacity="1" /><path clip-path="url(#clip300)" d="M1849.7 48.0275 L1849.7 51.6733 L1815.43 51.6733 Q1815.92 59.3701 1820.05 63.421 Q1824.22 67.4314 1831.63 67.4314 Q1835.93 67.4314 1839.94 66.3781 Q1843.99 65.3249 1847.96 63.2184 L1847.96 70.267 Q1843.95 71.9684 1839.74 72.8596 Q1835.52 73.7508 1831.19 73.7508 Q1820.33 73.7508 1813.97 67.4314 Q1807.65 61.1119 1807.65 50.3365 Q1807.65 39.1965 1813.65 32.6746 Q1819.68 26.1121 1829.89 26.1121 Q1839.05 26.1121 1844.35 32.0264 Q1849.7 37.9003 1849.7 48.0275 M1842.25 45.84 Q1842.17 39.7232 1838.8 36.0774 Q1835.48 32.4315 1829.97 32.4315 Q1823.74 32.4315 1819.97 35.9558 Q1816.24 39.4801 1815.67 45.8805 L1842.25 45.84 Z" fill="#000000" fill-rule="nonzero" fill-opacity="1" /><path clip-path="url(#clip301)" d="M-5599.26 1734.01 L-5599.26 1734.12 L-5363.84 1734.12 L-5363.84 1734.01 L-5599.26 1734.01 L-5599.26 1734.01  Z" fill="#0000ff" fill-rule="evenodd" fill-opacity="0.7"/>
<polyline clip-path="url(#clip301)" style="stroke:#000000; stroke-linecap:round; stroke-linejoin:round; stroke-width:4; stroke-opacity:0.7; fill:none" points="-5599.26,1734.01 -5599.26,1734.12 -5363.84,1734.12 -5363.84,1734.01 -5599.26,1734.01 "/>
<path clip-path="url(#clip301)" d="M-5363.84 1734.12 L-5363.84 1734.12 L-5128.41 1734.12 L-5128.41 1734.12 L-5363.84 1734.12 L-5363.84 1734.12  Z" fill="#0000ff" fill-rule="evenodd" fill-opacity="0.7"/>
<polyline clip-path="url(#clip301)" style="stroke:#000000; stroke-linecap:round; stroke-linejoin:round; stroke-width:4; stroke-opacity:0.7; fill:none" points="-5363.84,1734.12 -5363.84,1734.12 -5128.41,1734.12 -5363.84,1734.12 "/>
<path clip-path="url(#clip301)" d="M-5128.41 1734.12 L-5128.41 1734.12 L-4892.98 1734.12 L-4892.98 1734.12 L-5128.41 1734.12 L-5128.41 1734.12  Z" fill="#0000ff" fill-rule="evenodd" fill-opacity="0.7"/>
<polyline clip-path="url(#clip301)" style="stroke:#000000; stroke-linecap:round; stroke-linejoin:round; stroke-width:4; stroke-opacity:0.7; fill:none" points="-5128.41,1734.12 -5128.41,1734.12 -4892.98,1734.12 -5128.41,1734.12 "/>
<path clip-path="url(#clip301)" d="M-4892.98 1734.12 L-4892.98 1734.12 L-4657.55 1734.12 L-4657.55 1734.12 L-4892.98 1734.12 L-4892.98 1734.12  Z" fill="#0000ff" fill-rule="evenodd" fill-opacity="0.7"/>
<polyline clip-path="url(#clip301)" style="stroke:#000000; stroke-linecap:round; stroke-linejoin:round; stroke-width:4; stroke-opacity:0.7; fill:none" points="-4892.98,1734.12 -4892.98,1734.12 -4657.55,1734.12 -4892.98,1734.12 "/>
<path clip-path="url(#clip301)" d="M-4657.55 1734.12 L-4657.55 1734.12 L-4422.12 1734.12 L-4422.12 1734.12 L-4657.55 1734.12 L-4657.55 1734.12  Z" fill="#0000ff" fill-rule="evenodd" fill-opacity="0.7"/>
<polyline clip-path="url(#clip301)" style="stroke:#000000; stroke-linecap:round; stroke-linejoin:round; stroke-width:4; stroke-opacity:0.7; fill:none" points="-4657.55,1734.12 -4657.55,1734.12 -4422.12,1734.12 -4657.55,1734.12 "/>
<path clip-path="url(#clip301)" d="M-4422.12 1734.12 L-4422.12 1734.12 L-4186.69 1734.12 L-4186.69 1734.12 L-4422.12 1734.12 L-4422.12 1734.12  Z" fill="#0000ff" fill-rule="evenodd" fill-opacity="0.7"/>
<polyline clip-path="url(#clip301)" style="stroke:#000000; stroke-linecap:round; stroke-linejoin:round; stroke-width:4; stroke-opacity:0.7; fill:none" points="-4422.12,1734.12 -4422.12,1734.12 -4186.69,1734.12 -4422.12,1734.12 "/>
<path clip-path="url(#clip301)" d="M-4186.69 1734.12 L-4186.69 1734.12 L-3951.26 1734.12 L-3951.26 1734.12 L-4186.69 1734.12 L-4186.69 1734.12  Z" fill="#0000ff" fill-rule="evenodd" fill-opacity="0.7"/>
<polyline clip-path="url(#clip301)" style="stroke:#000000; stroke-linecap:round; stroke-linejoin:round; stroke-width:4; stroke-opacity:0.7; fill:none" points="-4186.69,1734.12 -4186.69,1734.12 -3951.26,1734.12 -4186.69,1734.12 "/>
<path clip-path="url(#clip301)" d="M-3951.26 1734.12 L-3951.26 1734.12 L-3715.83 1734.12 L-3715.83 1734.12 L-3951.26 1734.12 L-3951.26 1734.12  Z" fill="#0000ff" fill-rule="evenodd" fill-opacity="0.7"/>
<polyline clip-path="url(#clip301)" style="stroke:#000000; stroke-linecap:round; stroke-linejoin:round; stroke-width:4; stroke-opacity:0.7; fill:none" points="-3951.26,1734.12 -3951.26,1734.12 -3715.83,1734.12 -3951.26,1734.12 "/>
<path clip-path="url(#clip301)" d="M-3715.83 1734.12 L-3715.83 1734.12 L-3480.4 1734.12 L-3480.4 1734.12 L-3715.83 1734.12 L-3715.83 1734.12  Z" fill="#0000ff" fill-rule="evenodd" fill-opacity="0.7"/>
<polyline clip-path="url(#clip301)" style="stroke:#000000; stroke-linecap:round; stroke-linejoin:round; stroke-width:4; stroke-opacity:0.7; fill:none" points="-3715.83,1734.12 -3715.83,1734.12 -3480.4,1734.12 -3715.83,1734.12 "/>
<path clip-path="url(#clip301)" d="M-3480.4 1734.12 L-3480.4 1734.12 L-3244.97 1734.12 L-3244.97 1734.12 L-3480.4 1734.12 L-3480.4 1734.12  Z" fill="#0000ff" fill-rule="evenodd" fill-opacity="0.7"/>
<polyline clip-path="url(#clip301)" style="stroke:#000000; stroke-linecap:round; stroke-linejoin:round; stroke-width:4; stroke-opacity:0.7; fill:none" points="-3480.4,1734.12 -3480.4,1734.12 -3244.97,1734.12 -3480.4,1734.12 "/>
<path clip-path="url(#clip301)" d="M-3244.97 1734.12 L-3244.97 1734.12 L-3009.54 1734.12 L-3009.54 1734.12 L-3244.97 1734.12 L-3244.97 1734.12  Z" fill="#0000ff" fill-rule="evenodd" fill-opacity="0.7"/>
<polyline clip-path="url(#clip301)" style="stroke:#000000; stroke-linecap:round; stroke-linejoin:round; stroke-width:4; stroke-opacity:0.7; fill:none" points="-3244.97,1734.12 -3244.97,1734.12 -3009.54,1734.12 -3244.97,1734.12 "/>
<path clip-path="url(#clip301)" d="M-3009.54 1734.12 L-3009.54 1734.12 L-2774.11 1734.12 L-2774.11 1734.12 L-3009.54 1734.12 L-3009.54 1734.12  Z" fill="#0000ff" fill-rule="evenodd" fill-opacity="0.7"/>
<polyline clip-path="url(#clip301)" style="stroke:#000000; stroke-linecap:round; stroke-linejoin:round; stroke-width:4; stroke-opacity:0.7; fill:none" points="-3009.54,1734.12 -3009.54,1734.12 -2774.11,1734.12 -3009.54,1734.12 "/>
<path clip-path="url(#clip301)" d="M-2774.11 1734.12 L-2774.11 1734.12 L-2538.69 1734.12 L-2538.69 1734.12 L-2774.11 1734.12 L-2774.11 1734.12  Z" fill="#0000ff" fill-rule="evenodd" fill-opacity="0.7"/>
<polyline clip-path="url(#clip301)" style="stroke:#000000; stroke-linecap:round; stroke-linejoin:round; stroke-width:4; stroke-opacity:0.7; fill:none" points="-2774.11,1734.12 -2774.11,1734.12 -2538.69,1734.12 -2774.11,1734.12 "/>
<path clip-path="url(#clip301)" d="M-2538.69 1734.12 L-2538.69 1734.12 L-2303.26 1734.12 L-2303.26 1734.12 L-2538.69 1734.12 L-2538.69 1734.12  Z" fill="#0000ff" fill-rule="evenodd" fill-opacity="0.7"/>
<polyline clip-path="url(#clip301)" style="stroke:#000000; stroke-linecap:round; stroke-linejoin:round; stroke-width:4; stroke-opacity:0.7; fill:none" points="-2538.69,1734.12 -2538.69,1734.12 -2303.26,1734.12 -2538.69,1734.12 "/>
<path clip-path="url(#clip301)" d="M-2303.26 1734.12 L-2303.26 1734.12 L-2067.83 1734.12 L-2067.83 1734.12 L-2303.26 1734.12 L-2303.26 1734.12  Z" fill="#0000ff" fill-rule="evenodd" fill-opacity="0.7"/>
<polyline clip-path="url(#clip301)" style="stroke:#000000; stroke-linecap:round; stroke-linejoin:round; stroke-width:4; stroke-opacity:0.7; fill:none" points="-2303.26,1734.12 -2303.26,1734.12 -2067.83,1734.12 -2303.26,1734.12 "/>
<path clip-path="url(#clip301)" d="M-2067.83 1734.12 L-2067.83 1734.12 L-1832.4 1734.12 L-1832.4 1734.12 L-2067.83 1734.12 L-2067.83 1734.12  Z" fill="#0000ff" fill-rule="evenodd" fill-opacity="0.7"/>
<polyline clip-path="url(#clip301)" style="stroke:#000000; stroke-linecap:round; stroke-linejoin:round; stroke-width:4; stroke-opacity:0.7; fill:none" points="-2067.83,1734.12 -2067.83,1734.12 -1832.4,1734.12 -2067.83,1734.12 "/>
<path clip-path="url(#clip301)" d="M-1832.4 1734.12 L-1832.4 1734.12 L-1596.97 1734.12 L-1596.97 1734.12 L-1832.4 1734.12 L-1832.4 1734.12  Z" fill="#0000ff" fill-rule="evenodd" fill-opacity="0.7"/>
<polyline clip-path="url(#clip301)" style="stroke:#000000; stroke-linecap:round; stroke-linejoin:round; stroke-width:4; stroke-opacity:0.7; fill:none" points="-1832.4,1734.12 -1832.4,1734.12 -1596.97,1734.12 -1832.4,1734.12 "/>
<path clip-path="url(#clip301)" d="M-1596.97 1734.12 L-1596.97 1734.12 L-1361.54 1734.12 L-1361.54 1734.12 L-1596.97 1734.12 L-1596.97 1734.12  Z" fill="#0000ff" fill-rule="evenodd" fill-opacity="0.7"/>
<polyline clip-path="url(#clip301)" style="stroke:#000000; stroke-linecap:round; stroke-linejoin:round; stroke-width:4; stroke-opacity:0.7; fill:none" points="-1596.97,1734.12 -1596.97,1734.12 -1361.54,1734.12 -1596.97,1734.12 "/>
<path clip-path="url(#clip301)" d="M-1361.54 1734.12 L-1361.54 1734.12 L-1126.11 1734.12 L-1126.11 1734.12 L-1361.54 1734.12 L-1361.54 1734.12  Z" fill="#0000ff" fill-rule="evenodd" fill-opacity="0.7"/>
<polyline clip-path="url(#clip301)" style="stroke:#000000; stroke-linecap:round; stroke-linejoin:round; stroke-width:4; stroke-opacity:0.7; fill:none" points="-1361.54,1734.12 -1361.54,1734.12 -1126.11,1734.12 -1361.54,1734.12 "/>
<path clip-path="url(#clip301)" d="M-1126.11 1734.12 L-1126.11 1734.12 L-890.681 1734.12 L-890.681 1734.12 L-1126.11 1734.12 L-1126.11 1734.12  Z" fill="#0000ff" fill-rule="evenodd" fill-opacity="0.7"/>
<polyline clip-path="url(#clip301)" style="stroke:#000000; stroke-linecap:round; stroke-linejoin:round; stroke-width:4; stroke-opacity:0.7; fill:none" points="-1126.11,1734.12 -1126.11,1734.12 -890.681,1734.12 -1126.11,1734.12 "/>
<path clip-path="url(#clip301)" d="M-890.681 1734.01 L-890.681 1734.12 L-655.252 1734.12 L-655.252 1734.01 L-890.681 1734.01 L-890.681 1734.01  Z" fill="#0000ff" fill-rule="evenodd" fill-opacity="0.7"/>
<polyline clip-path="url(#clip301)" style="stroke:#000000; stroke-linecap:round; stroke-linejoin:round; stroke-width:4; stroke-opacity:0.7; fill:none" points="-890.681,1734.01 -890.681,1734.12 -655.252,1734.12 -655.252,1734.01 -890.681,1734.01 "/>
<path clip-path="url(#clip301)" d="M-655.252 1734.12 L-655.252 1734.12 L-419.823 1734.12 L-419.823 1734.12 L-655.252 1734.12 L-655.252 1734.12  Z" fill="#0000ff" fill-rule="evenodd" fill-opacity="0.7"/>
<polyline clip-path="url(#clip301)" style="stroke:#000000; stroke-linecap:round; stroke-linejoin:round; stroke-width:4; stroke-opacity:0.7; fill:none" points="-655.252,1734.12 -655.252,1734.12 -419.823,1734.12 -655.252,1734.12 "/>
<path clip-path="url(#clip301)" d="M-419.823 1734.12 L-419.823 1734.12 L-184.394 1734.12 L-184.394 1734.12 L-419.823 1734.12 L-419.823 1734.12  Z" fill="#0000ff" fill-rule="evenodd" fill-opacity="0.7"/>
<polyline clip-path="url(#clip301)" style="stroke:#000000; stroke-linecap:round; stroke-linejoin:round; stroke-width:4; stroke-opacity:0.7; fill:none" points="-419.823,1734.12 -419.823,1734.12 -184.394,1734.12 -419.823,1734.12 "/>
<path clip-path="url(#clip301)" d="M-184.394 1734.12 L-184.394 1734.12 L51.0351 1734.12 L51.0351 1734.12 L-184.394 1734.12 L-184.394 1734.12  Z" fill="#0000ff" fill-rule="evenodd" fill-opacity="0.7"/>
<polyline clip-path="url(#clip301)" style="stroke:#000000; stroke-linecap:round; stroke-linejoin:round; stroke-width:4; stroke-opacity:0.7; fill:none" points="-184.394,1734.12 -184.394,1734.12 51.0351,1734.12 -184.394,1734.12 "/>
<path clip-path="url(#clip301)" d="M51.0351 1734.12 L51.0351 1734.12 L286.464 1734.12 L286.464 1734.12 L51.0351 1734.12 L51.0351 1734.12  Z" fill="#0000ff" fill-rule="evenodd" fill-opacity="0.7"/>
<polyline clip-path="url(#clip301)" style="stroke:#000000; stroke-linecap:round; stroke-linejoin:round; stroke-width:4; stroke-opacity:0.7; fill:none" points="51.0351,1734.12 51.0351,1734.12 286.464,1734.12 51.0351,1734.12 "/>
<path clip-path="url(#clip301)" d="M286.464 1734.12 L286.464 1734.12 L521.893 1734.12 L521.893 1734.12 L286.464 1734.12 L286.464 1734.12  Z" fill="#0000ff" fill-rule="evenodd" fill-opacity="0.7"/>
<polyline clip-path="url(#clip301)" style="stroke:#000000; stroke-linecap:round; stroke-linejoin:round; stroke-width:4; stroke-opacity:0.7; fill:none" points="286.464,1734.12 286.464,1734.12 521.893,1734.12 286.464,1734.12 "/>
<path clip-path="url(#clip301)" d="M521.893 1734.01 L521.893 1734.12 L757.323 1734.12 L757.323 1734.01 L521.893 1734.01 L521.893 1734.01  Z" fill="#0000ff" fill-rule="evenodd" fill-opacity="0.7"/>
<polyline clip-path="url(#clip301)" style="stroke:#000000; stroke-linecap:round; stroke-linejoin:round; stroke-width:4; stroke-opacity:0.7; fill:none" points="521.893,1734.01 521.893,1734.12 757.323,1734.12 757.323,1734.01 521.893,1734.01 "/>
<path clip-path="url(#clip301)" d="M757.323 1730.99 L757.323 1734.12 L992.752 1734.12 L992.752 1730.99 L757.323 1730.99 L757.323 1730.99  Z" fill="#0000ff" fill-rule="evenodd" fill-opacity="0.7"/>
<polyline clip-path="url(#clip301)" style="stroke:#000000; stroke-linecap:round; stroke-linejoin:round; stroke-width:4; stroke-opacity:0.7; fill:none" points="757.323,1730.99 757.323,1734.12 992.752,1734.12 992.752,1730.99 757.323,1730.99 "/>
<path clip-path="url(#clip301)" d="M992.752 1634.24 L992.752 1734.12 L1228.18 1734.12 L1228.18 1634.24 L992.752 1634.24 L992.752 1634.24  Z" fill="#0000ff" fill-rule="evenodd" fill-opacity="0.7"/>
<polyline clip-path="url(#clip301)" style="stroke:#000000; stroke-linecap:round; stroke-linejoin:round; stroke-width:4; stroke-opacity:0.7; fill:none" points="992.752,1634.24 992.752,1734.12 1228.18,1734.12 1228.18,1634.24 992.752,1634.24 "/>
<path clip-path="url(#clip301)" d="M1228.18 951.933 L1228.18 1734.12 L1463.61 1734.12 L1463.61 951.933 L1228.18 951.933 L1228.18 951.933  Z" fill="#0000ff" fill-rule="evenodd" fill-opacity="0.7"/>
<polyline clip-path="url(#clip301)" style="stroke:#000000; stroke-linecap:round; stroke-linejoin:round; stroke-width:4; stroke-opacity:0.7; fill:none" points="1228.18,951.933 1228.18,1734.12 1463.61,1734.12 1463.61,951.933 1228.18,951.933 "/>
<path clip-path="url(#clip301)" d="M1463.61 127.792 L1463.61 1734.12 L1699.04 1734.12 L1699.04 127.792 L1463.61 127.792 L1463.61 127.792  Z" fill="#0000ff" fill-rule="evenodd" fill-opacity="0.7"/>
<polyline clip-path="url(#clip301)" style="stroke:#000000; stroke-linecap:round; stroke-linejoin:round; stroke-width:4; stroke-opacity:0.7; fill:none" points="1463.61,127.792 1463.61,1734.12 1699.04,1734.12 1699.04,127.792 1463.61,127.792 "/>
<path clip-path="url(#clip301)" d="M1699.04 905.23 L1699.04 1734.12 L1934.47 1734.12 L1934.47 905.23 L1699.04 905.23 L1699.04 905.23  Z" fill="#0000ff" fill-rule="evenodd" fill-opacity="0.7"/>
<polyline clip-path="url(#clip301)" style="stroke:#000000; stroke-linecap:round; stroke-linejoin:round; stroke-width:4; stroke-opacity:0.7; fill:none" points="1699.04,905.23 1699.04,1734.12 1934.47,1734.12 1934.47,905.23 1699.04,905.23 "/>
<path clip-path="url(#clip301)" d="M1934.47 1609.33 L1934.47 1734.12 L2169.9 1734.12 L2169.9 1609.33 L1934.47 1609.33 L1934.47 1609.33  Z" fill="#0000ff" fill-rule="evenodd" fill-opacity="0.7"/>
<polyline clip-path="url(#clip301)" style="stroke:#000000; stroke-linecap:round; stroke-linejoin:round; stroke-width:4; stroke-opacity:0.7; fill:none" points="1934.47,1609.33 1934.47,1734.12 2169.9,1734.12 2169.9,1609.33 1934.47,1609.33 "/>
<path clip-path="url(#clip301)" d="M2169.9 1729.26 L2169.9 1734.12 L2405.33 1734.12 L2405.33 1729.26 L2169.9 1729.26 L2169.9 1729.26  Z" fill="#0000ff" fill-rule="evenodd" fill-opacity="0.7"/>
<polyline clip-path="url(#clip301)" style="stroke:#000000; stroke-linecap:round; stroke-linejoin:round; stroke-width:4; stroke-opacity:0.7; fill:none" points="2169.9,1729.26 2169.9,1734.12 2405.33,1734.12 2405.33,1729.26 2169.9,1729.26 "/>
<path clip-path="url(#clip301)" d="M2405.33 1734.01 L2405.33 1734.12 L2640.76 1734.12 L2640.76 1734.01 L2405.33 1734.01 L2405.33 1734.01  Z" fill="#0000ff" fill-rule="evenodd" fill-opacity="0.7"/>
<polyline clip-path="url(#clip301)" style="stroke:#000000; stroke-linecap:round; stroke-linejoin:round; stroke-width:4; stroke-opacity:0.7; fill:none" points="2405.33,1734.01 2405.33,1734.12 2640.76,1734.12 2640.76,1734.01 2405.33,1734.01 "/>
<path clip-path="url(#clip301)" d="M2640.76 1734.01 L2640.76 1734.12 L2876.19 1734.12 L2876.19 1734.01 L2640.76 1734.01 L2640.76 1734.01  Z" fill="#0000ff" fill-rule="evenodd" fill-opacity="0.7"/>
<polyline clip-path="url(#clip301)" style="stroke:#000000; stroke-linecap:round; stroke-linejoin:round; stroke-width:4; stroke-opacity:0.7; fill:none" points="2640.76,1734.01 2640.76,1734.12 2876.19,1734.12 2876.19,1734.01 2640.76,1734.01 "/>
<path clip-path="url(#clip301)" d="M2876.19 1734.01 L2876.19 1734.12 L3111.61 1734.12 L3111.61 1734.01 L2876.19 1734.01 L2876.19 1734.01  Z" fill="#0000ff" fill-rule="evenodd" fill-opacity="0.7"/>
<polyline clip-path="url(#clip301)" style="stroke:#000000; stroke-linecap:round; stroke-linejoin:round; stroke-width:4; stroke-opacity:0.7; fill:none" points="2876.19,1734.01 2876.19,1734.12 3111.61,1734.12 3111.61,1734.01 2876.19,1734.01 "/>
<path clip-path="url(#clip301)" d="M3111.61 1733.9 L3111.61 1734.12 L3347.04 1734.12 L3347.04 1733.9 L3111.61 1733.9 L3111.61 1733.9  Z" fill="#0000ff" fill-rule="evenodd" fill-opacity="0.7"/>
<polyline clip-path="url(#clip301)" style="stroke:#000000; stroke-linecap:round; stroke-linejoin:round; stroke-width:4; stroke-opacity:0.7; fill:none" points="3111.61,1733.9 3111.61,1734.12 3347.04,1734.12 3347.04,1733.9 3111.61,1733.9 "/>
<path clip-path="url(#clip301)" d="M3347.04 1734.12 L3347.04 1734.12 L3582.47 1734.12 L3582.47 1734.12 L3347.04 1734.12 L3347.04 1734.12  Z" fill="#0000ff" fill-rule="evenodd" fill-opacity="0.7"/>
<polyline clip-path="url(#clip301)" style="stroke:#000000; stroke-linecap:round; stroke-linejoin:round; stroke-width:4; stroke-opacity:0.7; fill:none" points="3347.04,1734.12 3347.04,1734.12 3582.47,1734.12 3347.04,1734.12 "/>
<path clip-path="url(#clip301)" d="M3582.47 1734.01 L3582.47 1734.12 L3817.9 1734.12 L3817.9 1734.01 L3582.47 1734.01 L3582.47 1734.01  Z" fill="#0000ff" fill-rule="evenodd" fill-opacity="0.7"/>
<polyline clip-path="url(#clip301)" style="stroke:#000000; stroke-linecap:round; stroke-linejoin:round; stroke-width:4; stroke-opacity:0.7; fill:none" points="3582.47,1734.01 3582.47,1734.12 3817.9,1734.12 3817.9,1734.01 3582.47,1734.01 "/>
<path clip-path="url(#clip301)" d="M3817.9 1734.01 L3817.9 1734.12 L4053.33 1734.12 L4053.33 1734.01 L3817.9 1734.01 L3817.9 1734.01  Z" fill="#0000ff" fill-rule="evenodd" fill-opacity="0.7"/>
<polyline clip-path="url(#clip301)" style="stroke:#000000; stroke-linecap:round; stroke-linejoin:round; stroke-width:4; stroke-opacity:0.7; fill:none" points="3817.9,1734.01 3817.9,1734.12 4053.33,1734.12 4053.33,1734.01 3817.9,1734.01 "/>
<path clip-path="url(#clip301)" d="M4053.33 1734.01 L4053.33 1734.12 L4288.76 1734.12 L4288.76 1734.01 L4053.33 1734.01 L4053.33 1734.01  Z" fill="#0000ff" fill-rule="evenodd" fill-opacity="0.7"/>
<polyline clip-path="url(#clip301)" style="stroke:#000000; stroke-linecap:round; stroke-linejoin:round; stroke-width:4; stroke-opacity:0.7; fill:none" points="4053.33,1734.01 4053.33,1734.12 4288.76,1734.12 4288.76,1734.01 4053.33,1734.01 "/>
<path clip-path="url(#clip301)" d="M4288.76 1734.12 L4288.76 1734.12 L4524.19 1734.12 L4524.19 1734.12 L4288.76 1734.12 L4288.76 1734.12  Z" fill="#0000ff" fill-rule="evenodd" fill-opacity="0.7"/>
<polyline clip-path="url(#clip301)" style="stroke:#000000; stroke-linecap:round; stroke-linejoin:round; stroke-width:4; stroke-opacity:0.7; fill:none" points="4288.76,1734.12 4288.76,1734.12 4524.19,1734.12 4288.76,1734.12 "/>
<path clip-path="url(#clip301)" d="M4524.19 1734.12 L4524.19 1734.12 L4759.62 1734.12 L4759.62 1734.12 L4524.19 1734.12 L4524.19 1734.12  Z" fill="#0000ff" fill-rule="evenodd" fill-opacity="0.7"/>
<polyline clip-path="url(#clip301)" style="stroke:#000000; stroke-linecap:round; stroke-linejoin:round; stroke-width:4; stroke-opacity:0.7; fill:none" points="4524.19,1734.12 4524.19,1734.12 4759.62,1734.12 4524.19,1734.12 "/>
<path clip-path="url(#clip301)" d="M4759.62 1734.12 L4759.62 1734.12 L4995.05 1734.12 L4995.05 1734.12 L4759.62 1734.12 L4759.62 1734.12  Z" fill="#0000ff" fill-rule="evenodd" fill-opacity="0.7"/>
<polyline clip-path="url(#clip301)" style="stroke:#000000; stroke-linecap:round; stroke-linejoin:round; stroke-width:4; stroke-opacity:0.7; fill:none" points="4759.62,1734.12 4759.62,1734.12 4995.05,1734.12 4759.62,1734.12 "/>
<path clip-path="url(#clip301)" d="M4995.05 1734.12 L4995.05 1734.12 L5230.48 1734.12 L5230.48 1734.12 L4995.05 1734.12 L4995.05 1734.12  Z" fill="#0000ff" fill-rule="evenodd" fill-opacity="0.7"/>
<polyline clip-path="url(#clip301)" style="stroke:#000000; stroke-linecap:round; stroke-linejoin:round; stroke-width:4; stroke-opacity:0.7; fill:none" points="4995.05,1734.12 4995.05,1734.12 5230.48,1734.12 4995.05,1734.12 "/>
<path clip-path="url(#clip301)" d="M5230.48 1734.12 L5230.48 1734.12 L5465.91 1734.12 L5465.91 1734.12 L5230.48 1734.12 L5230.48 1734.12  Z" fill="#0000ff" fill-rule="evenodd" fill-opacity="0.7"/>
<polyline clip-path="url(#clip301)" style="stroke:#000000; stroke-linecap:round; stroke-linejoin:round; stroke-width:4; stroke-opacity:0.7; fill:none" points="5230.48,1734.12 5230.48,1734.12 5465.91,1734.12 5230.48,1734.12 "/>
<path clip-path="url(#clip301)" d="M5465.91 1734.12 L5465.91 1734.12 L5701.33 1734.12 L5701.33 1734.12 L5465.91 1734.12 L5465.91 1734.12  Z" fill="#0000ff" fill-rule="evenodd" fill-opacity="0.7"/>
<polyline clip-path="url(#clip301)" style="stroke:#000000; stroke-linecap:round; stroke-linejoin:round; stroke-width:4; stroke-opacity:0.7; fill:none" points="5465.91,1734.12 5465.91,1734.12 5701.33,1734.12 5465.91,1734.12 "/>
<path clip-path="url(#clip301)" d="M5701.33 1734.01 L5701.33 1734.12 L5936.76 1734.12 L5936.76 1734.01 L5701.33 1734.01 L5701.33 1734.01  Z" fill="#0000ff" fill-rule="evenodd" fill-opacity="0.7"/>
<polyline clip-path="url(#clip301)" style="stroke:#000000; stroke-linecap:round; stroke-linejoin:round; stroke-width:4; stroke-opacity:0.7; fill:none" points="5701.33,1734.01 5701.33,1734.12 5936.76,1734.12 5936.76,1734.01 5701.33,1734.01 "/>
<path clip-path="url(#clip301)" d="M5936.76 1734.12 L5936.76 1734.12 L6172.19 1734.12 L6172.19 1734.12 L5936.76 1734.12 L5936.76 1734.12  Z" fill="#0000ff" fill-rule="evenodd" fill-opacity="0.7"/>
<polyline clip-path="url(#clip301)" style="stroke:#000000; stroke-linecap:round; stroke-linejoin:round; stroke-width:4; stroke-opacity:0.7; fill:none" points="5936.76,1734.12 5936.76,1734.12 6172.19,1734.12 5936.76,1734.12 "/>
<path clip-path="url(#clip301)" d="M6172.19 1734.12 L6172.19 1734.12 L6407.62 1734.12 L6407.62 1734.12 L6172.19 1734.12 L6172.19 1734.12  Z" fill="#0000ff" fill-rule="evenodd" fill-opacity="0.7"/>
<polyline clip-path="url(#clip301)" style="stroke:#000000; stroke-linecap:round; stroke-linejoin:round; stroke-width:4; stroke-opacity:0.7; fill:none" points="6172.19,1734.12 6172.19,1734.12 6407.62,1734.12 6172.19,1734.12 "/>
<path clip-path="url(#clip301)" d="M6407.62 1734.12 L6407.62 1734.12 L6643.05 1734.12 L6643.05 1734.12 L6407.62 1734.12 L6407.62 1734.12  Z" fill="#0000ff" fill-rule="evenodd" fill-opacity="0.7"/>
<polyline clip-path="url(#clip301)" style="stroke:#000000; stroke-linecap:round; stroke-linejoin:round; stroke-width:4; stroke-opacity:0.7; fill:none" points="6407.62,1734.12 6407.62,1734.12 6643.05,1734.12 6407.62,1734.12 "/>
<path clip-path="url(#clip301)" d="M6643.05 1734.12 L6643.05 1734.12 L6878.48 1734.12 L6878.48 1734.12 L6643.05 1734.12 L6643.05 1734.12  Z" fill="#0000ff" fill-rule="evenodd" fill-opacity="0.7"/>
<polyline clip-path="url(#clip301)" style="stroke:#000000; stroke-linecap:round; stroke-linejoin:round; stroke-width:4; stroke-opacity:0.7; fill:none" points="6643.05,1734.12 6643.05,1734.12 6878.48,1734.12 6643.05,1734.12 "/>
<path clip-path="url(#clip301)" d="M6878.48 1734.12 L6878.48 1734.12 L7113.91 1734.12 L7113.91 1734.12 L6878.48 1734.12 L6878.48 1734.12  Z" fill="#0000ff" fill-rule="evenodd" fill-opacity="0.7"/>
<polyline clip-path="url(#clip301)" style="stroke:#000000; stroke-linecap:round; stroke-linejoin:round; stroke-width:4; stroke-opacity:0.7; fill:none" points="6878.48,1734.12 6878.48,1734.12 7113.91,1734.12 6878.48,1734.12 "/>
<path clip-path="url(#clip301)" d="M7113.91 1734.12 L7113.91 1734.12 L7349.34 1734.12 L7349.34 1734.12 L7113.91 1734.12 L7113.91 1734.12  Z" fill="#0000ff" fill-rule="evenodd" fill-opacity="0.7"/>
<polyline clip-path="url(#clip301)" style="stroke:#000000; stroke-linecap:round; stroke-linejoin:round; stroke-width:4; stroke-opacity:0.7; fill:none" points="7113.91,1734.12 7113.91,1734.12 7349.34,1734.12 7113.91,1734.12 "/>
<path clip-path="url(#clip301)" d="M7349.34 1734.12 L7349.34 1734.12 L7584.77 1734.12 L7584.77 1734.12 L7349.34 1734.12 L7349.34 1734.12  Z" fill="#0000ff" fill-rule="evenodd" fill-opacity="0.7"/>
<polyline clip-path="url(#clip301)" style="stroke:#000000; stroke-linecap:round; stroke-linejoin:round; stroke-width:4; stroke-opacity:0.7; fill:none" points="7349.34,1734.12 7349.34,1734.12 7584.77,1734.12 7349.34,1734.12 "/>
<path clip-path="url(#clip301)" d="M7584.77 1734.12 L7584.77 1734.12 L7820.2 1734.12 L7820.2 1734.12 L7584.77 1734.12 L7584.77 1734.12  Z" fill="#0000ff" fill-rule="evenodd" fill-opacity="0.7"/>
<polyline clip-path="url(#clip301)" style="stroke:#000000; stroke-linecap:round; stroke-linejoin:round; stroke-width:4; stroke-opacity:0.7; fill:none" points="7584.77,1734.12 7584.77,1734.12 7820.2,1734.12 7584.77,1734.12 "/>
<path clip-path="url(#clip301)" d="M7820.2 1734.12 L7820.2 1734.12 L8055.63 1734.12 L8055.63 1734.12 L7820.2 1734.12 L7820.2 1734.12  Z" fill="#0000ff" fill-rule="evenodd" fill-opacity="0.7"/>
<polyline clip-path="url(#clip301)" style="stroke:#000000; stroke-linecap:round; stroke-linejoin:round; stroke-width:4; stroke-opacity:0.7; fill:none" points="7820.2,1734.12 7820.2,1734.12 8055.63,1734.12 7820.2,1734.12 "/>
<path clip-path="url(#clip301)" d="M8055.63 1734.12 L8055.63 1734.12 L8291.06 1734.12 L8291.06 1734.12 L8055.63 1734.12 L8055.63 1734.12  Z" fill="#0000ff" fill-rule="evenodd" fill-opacity="0.7"/>
<polyline clip-path="url(#clip301)" style="stroke:#000000; stroke-linecap:round; stroke-linejoin:round; stroke-width:4; stroke-opacity:0.7; fill:none" points="8055.63,1734.12 8055.63,1734.12 8291.06,1734.12 8055.63,1734.12 "/>
<path clip-path="url(#clip301)" d="M8291.06 1734.12 L8291.06 1734.12 L8526.48 1734.12 L8526.48 1734.12 L8291.06 1734.12 L8291.06 1734.12  Z" fill="#0000ff" fill-rule="evenodd" fill-opacity="0.7"/>
<polyline clip-path="url(#clip301)" style="stroke:#000000; stroke-linecap:round; stroke-linejoin:round; stroke-width:4; stroke-opacity:0.7; fill:none" points="8291.06,1734.12 8291.06,1734.12 8526.48,1734.12 8291.06,1734.12 "/>
<path clip-path="url(#clip301)" d="M8526.48 1734.12 L8526.48 1734.12 L8761.91 1734.12 L8761.91 1734.12 L8526.48 1734.12 L8526.48 1734.12  Z" fill="#0000ff" fill-rule="evenodd" fill-opacity="0.7"/>
<polyline clip-path="url(#clip301)" style="stroke:#000000; stroke-linecap:round; stroke-linejoin:round; stroke-width:4; stroke-opacity:0.7; fill:none" points="8526.48,1734.12 8526.48,1734.12 8761.91,1734.12 8526.48,1734.12 "/>
<path clip-path="url(#clip301)" d="M8761.91 1734.12 L8761.91 1734.12 L8997.34 1734.12 L8997.34 1734.12 L8761.91 1734.12 L8761.91 1734.12  Z" fill="#0000ff" fill-rule="evenodd" fill-opacity="0.7"/>
<polyline clip-path="url(#clip301)" style="stroke:#000000; stroke-linecap:round; stroke-linejoin:round; stroke-width:4; stroke-opacity:0.7; fill:none" points="8761.91,1734.12 8761.91,1734.12 8997.34,1734.12 8761.91,1734.12 "/>
<path clip-path="url(#clip301)" d="M8997.34 1734.12 L8997.34 1734.12 L9232.77 1734.12 L9232.77 1734.12 L8997.34 1734.12 L8997.34 1734.12  Z" fill="#0000ff" fill-rule="evenodd" fill-opacity="0.7"/>
<polyline clip-path="url(#clip301)" style="stroke:#000000; stroke-linecap:round; stroke-linejoin:round; stroke-width:4; stroke-opacity:0.7; fill:none" points="8997.34,1734.12 8997.34,1734.12 9232.77,1734.12 8997.34,1734.12 "/>
<path clip-path="url(#clip301)" d="M9232.77 1734.01 L9232.77 1734.12 L9468.2 1734.12 L9468.2 1734.01 L9232.77 1734.01 L9232.77 1734.01  Z" fill="#0000ff" fill-rule="evenodd" fill-opacity="0.7"/>
<polyline clip-path="url(#clip301)" style="stroke:#000000; stroke-linecap:round; stroke-linejoin:round; stroke-width:4; stroke-opacity:0.7; fill:none" points="9232.77,1734.01 9232.77,1734.12 9468.2,1734.12 9468.2,1734.01 9232.77,1734.01 "/>
<circle clip-path="url(#clip301)" style="fill:#0000ff; stroke:none; fill-opacity:0" cx="404.179" cy="1734.12" r="2"/>
<circle clip-path="url(#clip301)" style="fill:#0000ff; stroke:none; fill-opacity:0" cx="639.608" cy="1734.01" r="2"/>
<circle clip-path="url(#clip301)" style="fill:#0000ff; stroke:none; fill-opacity:0" cx="875.037" cy="1730.99" r="2"/>
<circle clip-path="url(#clip301)" style="fill:#0000ff; stroke:none; fill-opacity:0" cx="1110.47" cy="1634.24" r="2"/>
<circle clip-path="url(#clip301)" style="fill:#0000ff; stroke:none; fill-opacity:0" cx="1345.9" cy="951.933" r="2"/>
<circle clip-path="url(#clip301)" style="fill:#0000ff; stroke:none; fill-opacity:0" cx="1581.32" cy="127.792" r="2"/>
<circle clip-path="url(#clip301)" style="fill:#0000ff; stroke:none; fill-opacity:0" cx="1816.75" cy="905.23" r="2"/>
<circle clip-path="url(#clip301)" style="fill:#0000ff; stroke:none; fill-opacity:0" cx="2052.18" cy="1609.33" r="2"/>
<circle clip-path="url(#clip301)" style="fill:#0000ff; stroke:none; fill-opacity:0" cx="2287.61" cy="1729.26" r="2"/>
<circle clip-path="url(#clip301)" style="fill:#0000ff; stroke:none; fill-opacity:0" cx="2523.04" cy="1734.01" r="2"/>
<polyline clip-path="url(#clip301)" style="stroke:#ff0000; stroke-linecap:round; stroke-linejoin:round; stroke-width:12; stroke-opacity:1; fill:none" stroke-dasharray="48, 30" points="1585.29,3340.44 1585.29,-1478.53 "/>
<polyline clip-path="url(#clip301)" style="stroke:#008000; stroke-linecap:round; stroke-linejoin:round; stroke-width:12; stroke-opacity:1; fill:none" stroke-dasharray="6, 12" points="1586.03,3340.44 1586.03,-1478.53 "/>
<path clip-path="url(#clip300)" d="M1913.91 336.856 L2562.28 336.856 L2562.28 181.336 L1913.91 181.336  Z" fill="#ffffff" fill-rule="evenodd" fill-opacity="1"/>
<polyline clip-path="url(#clip300)" style="stroke:#000000; stroke-linecap:round; stroke-linejoin:round; stroke-width:4; stroke-opacity:1; fill:none" points="1913.91,336.856 2562.28,336.856 2562.28,181.336 1913.91,181.336 1913.91,336.856 "/>
<polyline clip-path="url(#clip300)" style="stroke:#ff0000; stroke-linecap:round; stroke-linejoin:round; stroke-width:12; stroke-opacity:1; fill:none" stroke-dasharray="48, 30" points="1940.07,233.176 2097.02,233.176 "/>
<path clip-path="url(#clip300)" d="M2123.18 215.896 L2130.15 215.896 L2138.97 239.415 L2147.84 215.896 L2154.8 215.896 L2154.8 250.456 L2150.24 250.456 L2150.24 220.109 L2141.33 243.813 L2136.63 243.813 L2127.72 220.109 L2127.72 250.456 L2123.18 250.456 L2123.18 215.896 Z" fill="#000000" fill-rule="nonzero" fill-opacity="1" /><path clip-path="url(#clip300)" d="M2186.08 236.429 L2186.08 238.512 L2166.49 238.512 Q2166.77 242.91 2169.13 245.225 Q2171.52 247.516 2175.75 247.516 Q2178.21 247.516 2180.5 246.915 Q2182.81 246.313 2185.08 245.109 L2185.08 249.137 Q2182.79 250.109 2180.38 250.618 Q2177.97 251.128 2175.5 251.128 Q2169.29 251.128 2165.66 247.516 Q2162.05 243.905 2162.05 237.748 Q2162.05 231.382 2165.47 227.655 Q2168.92 223.906 2174.76 223.906 Q2179.99 223.906 2183.02 227.285 Q2186.08 230.642 2186.08 236.429 M2181.82 235.179 Q2181.77 231.683 2179.85 229.6 Q2177.95 227.517 2174.8 227.517 Q2171.24 227.517 2169.09 229.53 Q2166.96 231.544 2166.63 235.202 L2181.82 235.179 Z" fill="#000000" fill-rule="nonzero" fill-opacity="1" /><path clip-path="url(#clip300)" d="M2210.13 228.466 L2210.13 214.438 L2214.39 214.438 L2214.39 250.456 L2210.13 250.456 L2210.13 246.567 Q2208.78 248.882 2206.72 250.016 Q2204.69 251.128 2201.82 251.128 Q2197.12 251.128 2194.15 247.378 Q2191.22 243.628 2191.22 237.517 Q2191.22 231.405 2194.15 227.655 Q2197.12 223.906 2201.82 223.906 Q2204.69 223.906 2206.72 225.04 Q2208.78 226.151 2210.13 228.466 M2195.61 237.517 Q2195.61 242.216 2197.53 244.901 Q2199.48 247.563 2202.86 247.563 Q2206.24 247.563 2208.18 244.901 Q2210.13 242.216 2210.13 237.517 Q2210.13 232.817 2208.18 230.155 Q2206.24 227.47 2202.86 227.47 Q2199.48 227.47 2197.53 230.155 Q2195.61 232.817 2195.61 237.517 Z" fill="#000000" fill-rule="nonzero" fill-opacity="1" /><path clip-path="url(#clip300)" d="M2223.16 224.531 L2227.42 224.531 L2227.42 250.456 L2223.16 250.456 L2223.16 224.531 M2223.16 214.438 L2227.42 214.438 L2227.42 219.831 L2223.16 219.831 L2223.16 214.438 Z" fill="#000000" fill-rule="nonzero" fill-opacity="1" /><path clip-path="url(#clip300)" d="M2248.11 237.424 Q2242.95 237.424 2240.96 238.604 Q2238.97 239.785 2238.97 242.632 Q2238.97 244.901 2240.45 246.243 Q2241.96 247.563 2244.53 247.563 Q2248.07 247.563 2250.2 245.063 Q2252.35 242.54 2252.35 238.373 L2252.35 237.424 L2248.11 237.424 M2256.61 235.665 L2256.61 250.456 L2252.35 250.456 L2252.35 246.521 Q2250.89 248.882 2248.71 250.016 Q2246.54 251.128 2243.39 251.128 Q2239.41 251.128 2237.05 248.905 Q2234.71 246.66 2234.71 242.91 Q2234.71 238.535 2237.63 236.313 Q2240.57 234.091 2246.38 234.091 L2252.35 234.091 L2252.35 233.674 Q2252.35 230.734 2250.4 229.137 Q2248.48 227.517 2244.99 227.517 Q2242.77 227.517 2240.66 228.049 Q2238.55 228.581 2236.61 229.646 L2236.61 225.711 Q2238.95 224.808 2241.15 224.368 Q2243.34 223.906 2245.43 223.906 Q2251.05 223.906 2253.83 226.822 Q2256.61 229.739 2256.61 235.665 Z" fill="#000000" fill-rule="nonzero" fill-opacity="1" /><path clip-path="url(#clip300)" d="M2286.93 234.808 L2286.93 250.456 L2282.67 250.456 L2282.67 234.947 Q2282.67 231.267 2281.24 229.438 Q2279.8 227.609 2276.93 227.609 Q2273.48 227.609 2271.49 229.808 Q2269.5 232.007 2269.5 235.804 L2269.5 250.456 L2265.22 250.456 L2265.22 224.531 L2269.5 224.531 L2269.5 228.558 Q2271.03 226.22 2273.09 225.063 Q2275.17 223.906 2277.88 223.906 Q2282.35 223.906 2284.64 226.683 Q2286.93 229.438 2286.93 234.808 Z" fill="#000000" fill-rule="nonzero" fill-opacity="1" /><path clip-path="url(#clip300)" d="M2311.05 228.929 L2340.73 228.929 L2340.73 232.817 L2311.05 232.817 L2311.05 228.929 M2311.05 238.373 L2340.73 238.373 L2340.73 242.308 L2311.05 242.308 L2311.05 238.373 Z" fill="#000000" fill-rule="nonzero" fill-opacity="1" /><path clip-path="url(#clip300)" d="M2369.92 246.521 L2386.24 246.521 L2386.24 250.456 L2364.29 250.456 L2364.29 246.521 Q2366.95 243.767 2371.54 239.137 Q2376.14 234.484 2377.33 233.142 Q2379.57 230.618 2380.45 228.882 Q2381.35 227.123 2381.35 225.433 Q2381.35 222.679 2379.41 220.943 Q2377.49 219.206 2374.39 219.206 Q2372.19 219.206 2369.73 219.97 Q2367.3 220.734 2364.52 222.285 L2364.52 217.563 Q2367.35 216.429 2369.8 215.85 Q2372.26 215.271 2374.29 215.271 Q2379.66 215.271 2382.86 217.956 Q2386.05 220.642 2386.05 225.132 Q2386.05 227.262 2385.24 229.183 Q2384.45 231.081 2382.35 233.674 Q2381.77 234.345 2378.67 237.563 Q2375.57 240.757 2369.92 246.521 Z" fill="#000000" fill-rule="nonzero" fill-opacity="1" /><path clip-path="url(#clip300)" d="M2400.08 246.521 L2416.4 246.521 L2416.4 250.456 L2394.45 250.456 L2394.45 246.521 Q2397.12 243.767 2401.7 239.137 Q2406.31 234.484 2407.49 233.142 Q2409.73 230.618 2410.61 228.882 Q2411.51 227.123 2411.51 225.433 Q2411.51 222.679 2409.57 220.943 Q2407.65 219.206 2404.55 219.206 Q2402.35 219.206 2399.89 219.97 Q2397.46 220.734 2394.69 222.285 L2394.69 217.563 Q2397.51 216.429 2399.96 215.85 Q2402.42 215.271 2404.45 215.271 Q2409.83 215.271 2413.02 217.956 Q2416.21 220.642 2416.21 225.132 Q2416.21 227.262 2415.4 229.183 Q2414.62 231.081 2412.51 233.674 Q2411.93 234.345 2408.83 237.563 Q2405.73 240.757 2400.08 246.521 Z" fill="#000000" fill-rule="nonzero" fill-opacity="1" /><path clip-path="url(#clip300)" d="M2425.03 215.896 L2447.26 215.896 L2447.26 217.887 L2434.71 250.456 L2429.82 250.456 L2441.63 219.831 L2425.03 219.831 L2425.03 215.896 Z" fill="#000000" fill-rule="nonzero" fill-opacity="1" /><path clip-path="url(#clip300)" d="M2466.95 231.313 Q2463.81 231.313 2461.95 233.466 Q2460.13 235.618 2460.13 239.368 Q2460.13 243.095 2461.95 245.271 Q2463.81 247.424 2466.95 247.424 Q2470.1 247.424 2471.93 245.271 Q2473.78 243.095 2473.78 239.368 Q2473.78 235.618 2471.93 233.466 Q2470.1 231.313 2466.95 231.313 M2476.24 216.66 L2476.24 220.919 Q2474.48 220.086 2472.67 219.646 Q2470.89 219.206 2469.13 219.206 Q2464.5 219.206 2462.05 222.331 Q2459.62 225.456 2459.27 231.776 Q2460.64 229.762 2462.7 228.697 Q2464.76 227.609 2467.23 227.609 Q2472.44 227.609 2475.45 230.78 Q2478.48 233.929 2478.48 239.368 Q2478.48 244.692 2475.33 247.91 Q2472.19 251.128 2466.95 251.128 Q2460.96 251.128 2457.79 246.544 Q2454.62 241.938 2454.62 233.211 Q2454.62 225.017 2458.51 220.156 Q2462.39 215.271 2468.95 215.271 Q2470.7 215.271 2472.49 215.619 Q2474.29 215.966 2476.24 216.66 Z" fill="#000000" fill-rule="nonzero" fill-opacity="1" /><path clip-path="url(#clip300)" d="M2486.54 244.577 L2491.42 244.577 L2491.42 250.456 L2486.54 250.456 L2486.54 244.577 Z" fill="#000000" fill-rule="nonzero" fill-opacity="1" /><path clip-path="url(#clip300)" d="M2511.61 218.975 Q2508 218.975 2506.17 222.54 Q2504.36 226.081 2504.36 233.211 Q2504.36 240.317 2506.17 243.882 Q2508 247.424 2511.61 247.424 Q2515.24 247.424 2517.05 243.882 Q2518.88 240.317 2518.88 233.211 Q2518.88 226.081 2517.05 222.54 Q2515.24 218.975 2511.61 218.975 M2511.61 215.271 Q2517.42 215.271 2520.47 219.878 Q2523.55 224.461 2523.55 233.211 Q2523.55 241.938 2520.47 246.544 Q2517.42 251.128 2511.61 251.128 Q2505.8 251.128 2502.72 246.544 Q2499.66 241.938 2499.66 233.211 Q2499.66 224.461 2502.72 219.878 Q2505.8 215.271 2511.61 215.271 Z" fill="#000000" fill-rule="nonzero" fill-opacity="1" /><polyline clip-path="url(#clip300)" style="stroke:#008000; stroke-linecap:round; stroke-linejoin:round; stroke-width:12; stroke-opacity:1; fill:none" stroke-dasharray="6, 12" points="1940.07,285.016 2097.02,285.016 "/>
<path clip-path="url(#clip300)" d="M2139.2 270.908 Q2134.11 270.908 2131.1 274.704 Q2128.11 278.5 2128.11 285.051 Q2128.11 291.579 2131.1 295.375 Q2134.11 299.171 2139.2 299.171 Q2144.29 299.171 2147.26 295.375 Q2150.24 291.579 2150.24 285.051 Q2150.24 278.5 2147.26 274.704 Q2144.29 270.908 2139.2 270.908 M2139.2 267.111 Q2146.47 267.111 2150.82 271.996 Q2155.17 276.857 2155.17 285.051 Q2155.17 293.222 2150.82 298.106 Q2146.47 302.968 2139.2 302.968 Q2131.91 302.968 2127.53 298.106 Q2123.18 293.245 2123.18 285.051 Q2123.18 276.857 2127.53 271.996 Q2131.91 267.111 2139.2 267.111 Z" fill="#000000" fill-rule="nonzero" fill-opacity="1" /><path clip-path="url(#clip300)" d="M2180.91 289.357 Q2180.91 284.657 2178.97 281.995 Q2177.05 279.31 2173.67 279.31 Q2170.29 279.31 2168.34 281.995 Q2166.42 284.657 2166.42 289.357 Q2166.42 294.056 2168.34 296.741 Q2170.29 299.403 2173.67 299.403 Q2177.05 299.403 2178.97 296.741 Q2180.91 294.056 2180.91 289.357 M2166.42 280.306 Q2167.77 277.991 2169.8 276.88 Q2171.86 275.746 2174.71 275.746 Q2179.43 275.746 2182.37 279.495 Q2185.34 283.245 2185.34 289.357 Q2185.34 295.468 2182.37 299.218 Q2179.43 302.968 2174.71 302.968 Q2171.86 302.968 2169.8 301.856 Q2167.77 300.722 2166.42 298.407 L2166.42 302.296 L2162.14 302.296 L2162.14 266.278 L2166.42 266.278 L2166.42 280.306 Z" fill="#000000" fill-rule="nonzero" fill-opacity="1" /><path clip-path="url(#clip300)" d="M2208.92 277.134 L2208.92 281.162 Q2207.12 280.236 2205.17 279.773 Q2203.23 279.31 2201.15 279.31 Q2197.97 279.31 2196.38 280.283 Q2194.8 281.255 2194.8 283.199 Q2194.8 284.681 2195.94 285.537 Q2197.07 286.37 2200.5 287.134 L2201.96 287.458 Q2206.49 288.431 2208.39 290.213 Q2210.31 291.972 2210.31 295.144 Q2210.31 298.755 2207.44 300.861 Q2204.59 302.968 2199.59 302.968 Q2197.51 302.968 2195.24 302.551 Q2193 302.157 2190.5 301.347 L2190.5 296.949 Q2192.86 298.176 2195.15 298.801 Q2197.44 299.403 2199.69 299.403 Q2202.7 299.403 2204.32 298.384 Q2205.94 297.343 2205.94 295.468 Q2205.94 293.732 2204.76 292.806 Q2203.6 291.88 2199.64 291.023 L2198.16 290.676 Q2194.2 289.843 2192.44 288.13 Q2190.68 286.394 2190.68 283.384 Q2190.68 279.727 2193.28 277.736 Q2195.87 275.746 2200.64 275.746 Q2203 275.746 2205.08 276.093 Q2207.16 276.44 2208.92 277.134 Z" fill="#000000" fill-rule="nonzero" fill-opacity="1" /><path clip-path="url(#clip300)" d="M2239.27 288.269 L2239.27 290.352 L2219.69 290.352 Q2219.97 294.75 2222.33 297.065 Q2224.71 299.356 2228.95 299.356 Q2231.4 299.356 2233.69 298.755 Q2236.01 298.153 2238.28 296.949 L2238.28 300.977 Q2235.98 301.949 2233.58 302.458 Q2231.17 302.968 2228.69 302.968 Q2222.49 302.968 2218.85 299.356 Q2215.24 295.745 2215.24 289.588 Q2215.24 283.222 2218.67 279.495 Q2222.12 275.746 2227.95 275.746 Q2233.18 275.746 2236.21 279.125 Q2239.27 282.482 2239.27 288.269 M2235.01 287.019 Q2234.96 283.523 2233.04 281.44 Q2231.15 279.357 2228 279.357 Q2224.43 279.357 2222.28 281.37 Q2220.15 283.384 2219.83 287.042 L2235.01 287.019 Z" fill="#000000" fill-rule="nonzero" fill-opacity="1" /><path clip-path="url(#clip300)" d="M2261.28 280.352 Q2260.57 279.935 2259.71 279.75 Q2258.88 279.542 2257.86 279.542 Q2254.25 279.542 2252.3 281.903 Q2250.38 284.241 2250.38 288.639 L2250.38 302.296 L2246.1 302.296 L2246.1 276.371 L2250.38 276.371 L2250.38 280.398 Q2251.72 278.037 2253.88 276.903 Q2256.03 275.746 2259.11 275.746 Q2259.55 275.746 2260.08 275.815 Q2260.61 275.861 2261.26 275.977 L2261.28 280.352 Z" fill="#000000" fill-rule="nonzero" fill-opacity="1" /><path clip-path="url(#clip300)" d="M2262.7 276.371 L2267.21 276.371 L2275.31 298.13 L2283.41 276.371 L2287.93 276.371 L2278.21 302.296 L2272.42 302.296 L2262.7 276.371 Z" fill="#000000" fill-rule="nonzero" fill-opacity="1" /><path clip-path="url(#clip300)" d="M2315.98 288.269 L2315.98 290.352 L2296.4 290.352 Q2296.68 294.75 2299.04 297.065 Q2301.42 299.356 2305.66 299.356 Q2308.11 299.356 2310.4 298.755 Q2312.72 298.153 2314.99 296.949 L2314.99 300.977 Q2312.7 301.949 2310.29 302.458 Q2307.88 302.968 2305.4 302.968 Q2299.2 302.968 2295.57 299.356 Q2291.96 295.745 2291.96 289.588 Q2291.96 283.222 2295.38 279.495 Q2298.83 275.746 2304.66 275.746 Q2309.9 275.746 2312.93 279.125 Q2315.98 282.482 2315.98 288.269 M2311.72 287.019 Q2311.68 283.523 2309.76 281.44 Q2307.86 279.357 2304.71 279.357 Q2301.15 279.357 2298.99 281.37 Q2296.86 283.384 2296.54 287.042 L2311.72 287.019 Z" fill="#000000" fill-rule="nonzero" fill-opacity="1" /><path clip-path="url(#clip300)" d="M2340.03 280.306 L2340.03 266.278 L2344.29 266.278 L2344.29 302.296 L2340.03 302.296 L2340.03 298.407 Q2338.69 300.722 2336.63 301.856 Q2334.59 302.968 2331.72 302.968 Q2327.02 302.968 2324.06 299.218 Q2321.12 295.468 2321.12 289.357 Q2321.12 283.245 2324.06 279.495 Q2327.02 275.746 2331.72 275.746 Q2334.59 275.746 2336.63 276.88 Q2338.69 277.991 2340.03 280.306 M2325.52 289.357 Q2325.52 294.056 2327.44 296.741 Q2329.39 299.403 2332.77 299.403 Q2336.14 299.403 2338.09 296.741 Q2340.03 294.056 2340.03 289.357 Q2340.03 284.657 2338.09 281.995 Q2336.14 279.31 2332.77 279.31 Q2329.39 279.31 2327.44 281.995 Q2325.52 284.657 2325.52 289.357 Z" fill="#000000" fill-rule="nonzero" fill-opacity="1" /><path clip-path="url(#clip300)" d="M2368.69 280.769 L2398.37 280.769 L2398.37 284.657 L2368.69 284.657 L2368.69 280.769 M2368.69 290.213 L2398.37 290.213 L2398.37 294.148 L2368.69 294.148 L2368.69 290.213 Z" fill="#000000" fill-rule="nonzero" fill-opacity="1" /><path clip-path="url(#clip300)" d="M2427.56 298.361 L2443.88 298.361 L2443.88 302.296 L2421.93 302.296 L2421.93 298.361 Q2424.59 295.607 2429.18 290.977 Q2433.78 286.324 2434.96 284.982 Q2437.21 282.458 2438.09 280.722 Q2438.99 278.963 2438.99 277.273 Q2438.99 274.519 2437.05 272.783 Q2435.13 271.046 2432.02 271.046 Q2429.82 271.046 2427.37 271.81 Q2424.94 272.574 2422.16 274.125 L2422.16 269.403 Q2424.99 268.269 2427.44 267.69 Q2429.89 267.111 2431.93 267.111 Q2437.3 267.111 2440.5 269.796 Q2443.69 272.482 2443.69 276.972 Q2443.69 279.102 2442.88 281.023 Q2442.09 282.921 2439.99 285.514 Q2439.41 286.185 2436.31 289.403 Q2433.2 292.597 2427.56 298.361 Z" fill="#000000" fill-rule="nonzero" fill-opacity="1" /><path clip-path="url(#clip300)" d="M2457.72 298.361 L2474.04 298.361 L2474.04 302.296 L2452.09 302.296 L2452.09 298.361 Q2454.76 295.607 2459.34 290.977 Q2463.95 286.324 2465.13 284.982 Q2467.37 282.458 2468.25 280.722 Q2469.15 278.963 2469.15 277.273 Q2469.15 274.519 2467.21 272.783 Q2465.29 271.046 2462.19 271.046 Q2459.99 271.046 2457.53 271.81 Q2455.1 272.574 2452.32 274.125 L2452.32 269.403 Q2455.15 268.269 2457.6 267.69 Q2460.06 267.111 2462.09 267.111 Q2467.46 267.111 2470.66 269.796 Q2473.85 272.482 2473.85 276.972 Q2473.85 279.102 2473.04 281.023 Q2472.26 282.921 2470.15 285.514 Q2469.57 286.185 2466.47 289.403 Q2463.37 292.597 2457.72 298.361 Z" fill="#000000" fill-rule="nonzero" fill-opacity="1" /><path clip-path="url(#clip300)" d="M2482.67 267.736 L2504.89 267.736 L2504.89 269.727 L2492.35 302.296 L2487.46 302.296 L2499.27 271.671 L2482.67 271.671 L2482.67 267.736 Z" fill="#000000" fill-rule="nonzero" fill-opacity="1" /><path clip-path="url(#clip300)" d="M2524.59 283.153 Q2521.44 283.153 2519.59 285.306 Q2517.76 287.458 2517.76 291.208 Q2517.76 294.935 2519.59 297.111 Q2521.44 299.264 2524.59 299.264 Q2527.74 299.264 2529.57 297.111 Q2531.42 294.935 2531.42 291.208 Q2531.42 287.458 2529.57 285.306 Q2527.74 283.153 2524.59 283.153 M2533.88 268.5 L2533.88 272.759 Q2532.12 271.926 2530.31 271.486 Q2528.53 271.046 2526.77 271.046 Q2522.14 271.046 2519.69 274.171 Q2517.26 277.296 2516.91 283.616 Q2518.27 281.602 2520.33 280.537 Q2522.39 279.449 2524.87 279.449 Q2530.08 279.449 2533.09 282.62 Q2536.12 285.769 2536.12 291.208 Q2536.12 296.532 2532.97 299.75 Q2529.82 302.968 2524.59 302.968 Q2518.6 302.968 2515.43 298.384 Q2512.26 293.778 2512.26 285.051 Q2512.26 276.857 2516.14 271.996 Q2520.03 267.111 2526.58 267.111 Q2528.34 267.111 2530.13 267.459 Q2531.93 267.806 2533.88 268.5 Z" fill="#000000" fill-rule="nonzero" fill-opacity="1" /></svg>
