<?xml version="1.0" encoding="utf-8"?>
<svg xmlns="http://www.w3.org/2000/svg" xmlns:xlink="http://www.w3.org/1999/xlink" width="672" height="480" viewBox="0 0 2688 1920">
<defs>
  <clipPath id="clip270">
    <rect x="0" y="0" width="2688" height="1920"/>
  </clipPath>
</defs>
<path clip-path="url(#clip270)" d="M0 1920 L2688 1920 L2688 -4.26326e-14 L0 -4.26326e-14  Z" fill="#ffffff" fill-rule="evenodd" fill-opacity="1"/>
<defs>
  <clipPath id="clip271">
    <rect x="270" y="127" width="2371" height="1607"/>
  </clipPath>
</defs>
<path clip-path="url(#clip270)" d="M270.816 1734.12 L2640.76 1734.12 L2640.76 127.792 L270.816 127.792  Z" fill="#ffffff" fill-rule="evenodd" fill-opacity="1"/>
<polyline clip-path="url(#clip271)" style="stroke:#000000; stroke-linecap:round; stroke-linejoin:round; stroke-width:2; stroke-opacity:0.1; fill:none" points="337.89,1734.12 337.89,127.792 "/>
<polyline clip-path="url(#clip271)" style="stroke:#000000; stroke-linecap:round; stroke-linejoin:round; stroke-width:2; stroke-opacity:0.1; fill:none" points="870.221,1734.12 870.221,127.792 "/>
<polyline clip-path="url(#clip271)" style="stroke:#000000; stroke-linecap:round; stroke-linejoin:round; stroke-width:2; stroke-opacity:0.1; fill:none" points="1402.55,1734.12 1402.55,127.792 "/>
<polyline clip-path="url(#clip271)" style="stroke:#000000; stroke-linecap:round; stroke-linejoin:round; stroke-width:2; stroke-opacity:0.1; fill:none" points="1934.88,1734.12 1934.88,127.792 "/>
<polyline clip-path="url(#clip271)" style="stroke:#000000; stroke-linecap:round; stroke-linejoin:round; stroke-width:2; stroke-opacity:0.1; fill:none" points="2467.22,1734.12 2467.22,127.792 "/>
<polyline clip-path="url(#clip271)" style="stroke:#000000; stroke-linecap:round; stroke-linejoin:round; stroke-width:2; stroke-opacity:0.1; fill:none" points="270.816,1680.11 2640.76,1680.11 "/>
<polyline clip-path="url(#clip271)" style="stroke:#000000; stroke-linecap:round; stroke-linejoin:round; stroke-width:2; stroke-opacity:0.1; fill:none" points="270.816,1347.2 2640.76,1347.2 "/>
<polyline clip-path="url(#clip271)" style="stroke:#000000; stroke-linecap:round; stroke-linejoin:round; stroke-width:2; stroke-opacity:0.1; fill:none" points="270.816,1014.3 2640.76,1014.3 "/>
<polyline clip-path="url(#clip271)" style="stroke:#000000; stroke-linecap:round; stroke-linejoin:round; stroke-width:2; stroke-opacity:0.1; fill:none" points="270.816,681.387 2640.76,681.387 "/>
<polyline clip-path="url(#clip271)" style="stroke:#000000; stroke-linecap:round; stroke-linejoin:round; stroke-width:2; stroke-opacity:0.1; fill:none" points="270.816,348.478 2640.76,348.478 "/>
<polyline clip-path="url(#clip270)" style="stroke:#000000; stroke-linecap:round; stroke-linejoin:round; stroke-width:4; stroke-opacity:1; fill:none" points="270.816,1734.12 2640.76,1734.12 "/>
<polyline clip-path="url(#clip270)" style="stroke:#000000; stroke-linecap:round; stroke-linejoin:round; stroke-width:4; stroke-opacity:1; fill:none" points="337.89,1734.12 337.89,1715.22 "/>
<polyline clip-path="url(#clip270)" style="stroke:#000000; stroke-linecap:round; stroke-linejoin:round; stroke-width:4; stroke-opacity:1; fill:none" points="870.221,1734.12 870.221,1715.22 "/>
<polyline clip-path="url(#clip270)" style="stroke:#000000; stroke-linecap:round; stroke-linejoin:round; stroke-width:4; stroke-opacity:1; fill:none" points="1402.55,1734.12 1402.55,1715.22 "/>
<polyline clip-path="url(#clip270)" style="stroke:#000000; stroke-linecap:round; stroke-linejoin:round; stroke-width:4; stroke-opacity:1; fill:none" points="1934.88,1734.12 1934.88,1715.22 "/>
<polyline clip-path="url(#clip270)" style="stroke:#000000; stroke-linecap:round; stroke-linejoin:round; stroke-width:4; stroke-opacity:1; fill:none" points="2467.22,1734.12 2467.22,1715.22 "/>
<path clip-path="url(#clip270)" d="M337.89 1767.34 Q334.279 1767.34 332.45 1770.9 Q330.645 1774.45 330.645 1781.58 Q330.645 1788.68 332.45 1792.25 Q334.279 1795.79 337.89 1795.79 Q341.524 1795.79 343.33 1792.25 Q345.158 1788.68 345.158 1781.58 Q345.158 1774.45 343.33 1770.9 Q341.524 1767.34 337.89 1767.34 M337.89 1763.64 Q343.7 1763.64 346.756 1768.24 Q349.834 1772.83 349.834 1781.58 Q349.834 1790.3 346.756 1794.91 Q343.7 1799.49 337.89 1799.49 Q332.08 1799.49 329.001 1794.91 Q325.946 1790.3 325.946 1781.58 Q325.946 1772.83 329.001 1768.24 Q332.08 1763.64 337.89 1763.64 Z" fill="#000000" fill-rule="nonzero" fill-opacity="1" /><path clip-path="url(#clip270)" d="M849.492 1794.89 L865.812 1794.89 L865.812 1798.82 L843.867 1798.82 L843.867 1794.89 Q846.529 1792.13 851.113 1787.5 Q855.719 1782.85 856.9 1781.51 Q859.145 1778.98 860.025 1777.25 Q860.928 1775.49 860.928 1773.8 Q860.928 1771.04 858.983 1769.31 Q857.062 1767.57 853.96 1767.57 Q851.761 1767.57 849.307 1768.34 Q846.877 1769.1 844.099 1770.65 L844.099 1765.93 Q846.923 1764.79 849.377 1764.21 Q851.83 1763.64 853.867 1763.64 Q859.238 1763.64 862.432 1766.32 Q865.627 1769.01 865.627 1773.5 Q865.627 1775.63 864.816 1777.55 Q864.029 1779.45 861.923 1782.04 Q861.344 1782.71 858.242 1785.93 Q855.141 1789.12 849.492 1794.89 Z" fill="#000000" fill-rule="nonzero" fill-opacity="1" /><path clip-path="url(#clip270)" d="M875.673 1764.26 L894.029 1764.26 L894.029 1768.2 L879.955 1768.2 L879.955 1776.67 Q880.974 1776.32 881.992 1776.16 Q883.011 1775.97 884.029 1775.97 Q889.816 1775.97 893.196 1779.15 Q896.575 1782.32 896.575 1787.73 Q896.575 1793.31 893.103 1796.41 Q889.631 1799.49 883.312 1799.49 Q881.136 1799.49 878.867 1799.12 Q876.622 1798.75 874.214 1798.01 L874.214 1793.31 Q876.298 1794.45 878.52 1795 Q880.742 1795.56 883.219 1795.56 Q887.224 1795.56 889.562 1793.45 Q891.9 1791.34 891.9 1787.73 Q891.9 1784.12 889.562 1782.02 Q887.224 1779.91 883.219 1779.91 Q881.344 1779.91 879.469 1780.33 Q877.617 1780.74 875.673 1781.62 L875.673 1764.26 Z" fill="#000000" fill-rule="nonzero" fill-opacity="1" /><path clip-path="url(#clip270)" d="M1377.25 1764.26 L1395.61 1764.26 L1395.61 1768.2 L1381.53 1768.2 L1381.53 1776.67 Q1382.55 1776.32 1383.57 1776.16 Q1384.59 1775.97 1385.61 1775.97 Q1391.4 1775.97 1394.78 1779.15 Q1398.15 1782.32 1398.15 1787.73 Q1398.15 1793.31 1394.68 1796.41 Q1391.21 1799.49 1384.89 1799.49 Q1382.72 1799.49 1380.45 1799.12 Q1378.2 1798.75 1375.79 1798.01 L1375.79 1793.31 Q1377.88 1794.45 1380.1 1795 Q1382.32 1795.56 1384.8 1795.56 Q1388.8 1795.56 1391.14 1793.45 Q1393.48 1791.34 1393.48 1787.73 Q1393.48 1784.12 1391.14 1782.02 Q1388.8 1779.91 1384.8 1779.91 Q1382.92 1779.91 1381.05 1780.33 Q1379.2 1780.74 1377.25 1781.62 L1377.25 1764.26 Z" fill="#000000" fill-rule="nonzero" fill-opacity="1" /><path clip-path="url(#clip270)" d="M1417.37 1767.34 Q1413.76 1767.34 1411.93 1770.9 Q1410.12 1774.45 1410.12 1781.58 Q1410.12 1788.68 1411.93 1792.25 Q1413.76 1795.79 1417.37 1795.79 Q1421 1795.79 1422.81 1792.25 Q1424.64 1788.68 1424.64 1781.58 Q1424.64 1774.45 1422.81 1770.9 Q1421 1767.34 1417.37 1767.34 M1417.37 1763.64 Q1423.18 1763.64 1426.23 1768.24 Q1429.31 1772.83 1429.31 1781.58 Q1429.31 1790.3 1426.23 1794.91 Q1423.18 1799.49 1417.37 1799.49 Q1411.56 1799.49 1408.48 1794.91 Q1405.42 1790.3 1405.42 1781.58 Q1405.42 1772.83 1408.48 1768.24 Q1411.56 1763.64 1417.37 1763.64 Z" fill="#000000" fill-rule="nonzero" fill-opacity="1" /><path clip-path="url(#clip270)" d="M1908.74 1764.26 L1930.96 1764.26 L1930.96 1766.25 L1918.41 1798.82 L1913.53 1798.82 L1925.34 1768.2 L1908.74 1768.2 L1908.74 1764.26 Z" fill="#000000" fill-rule="nonzero" fill-opacity="1" /><path clip-path="url(#clip270)" d="M1940.13 1764.26 L1958.48 1764.26 L1958.48 1768.2 L1944.41 1768.2 L1944.41 1776.67 Q1945.43 1776.32 1946.45 1776.16 Q1947.47 1775.97 1948.48 1775.97 Q1954.27 1775.97 1957.65 1779.15 Q1961.03 1782.32 1961.03 1787.73 Q1961.03 1793.31 1957.56 1796.41 Q1954.09 1799.49 1947.77 1799.49 Q1945.59 1799.49 1943.32 1799.12 Q1941.08 1798.75 1938.67 1798.01 L1938.67 1793.31 Q1940.75 1794.45 1942.97 1795 Q1945.2 1795.56 1947.67 1795.56 Q1951.68 1795.56 1954.02 1793.45 Q1956.35 1791.34 1956.35 1787.73 Q1956.35 1784.12 1954.02 1782.02 Q1951.68 1779.91 1947.67 1779.91 Q1945.8 1779.91 1943.92 1780.33 Q1942.07 1780.74 1940.13 1781.62 L1940.13 1764.26 Z" fill="#000000" fill-rule="nonzero" fill-opacity="1" /><path clip-path="url(#clip270)" d="M2426.82 1794.89 L2434.46 1794.89 L2434.46 1768.52 L2426.15 1770.19 L2426.15 1765.93 L2434.42 1764.26 L2439.09 1764.26 L2439.09 1794.89 L2446.73 1794.89 L2446.73 1798.82 L2426.82 1798.82 L2426.82 1794.89 Z" fill="#000000" fill-rule="nonzero" fill-opacity="1" /><path clip-path="url(#clip270)" d="M2466.17 1767.34 Q2462.56 1767.34 2460.73 1770.9 Q2458.93 1774.45 2458.93 1781.58 Q2458.93 1788.68 2460.73 1792.25 Q2462.56 1795.79 2466.17 1795.79 Q2469.81 1795.79 2471.61 1792.25 Q2473.44 1788.68 2473.44 1781.58 Q2473.44 1774.45 2471.61 1770.9 Q2469.81 1767.34 2466.17 1767.34 M2466.17 1763.64 Q2471.98 1763.64 2475.04 1768.24 Q2478.12 1772.83 2478.12 1781.58 Q2478.12 1790.3 2475.04 1794.91 Q2471.98 1799.49 2466.17 1799.49 Q2460.36 1799.49 2457.29 1794.91 Q2454.23 1790.3 2454.23 1781.58 Q2454.23 1772.83 2457.29 1768.24 Q2460.36 1763.64 2466.17 1763.64 Z" fill="#000000" fill-rule="nonzero" fill-opacity="1" /><path clip-path="url(#clip270)" d="M2496.34 1767.34 Q2492.72 1767.34 2490.9 1770.9 Q2489.09 1774.45 2489.09 1781.58 Q2489.09 1788.68 2490.9 1792.25 Q2492.72 1795.79 2496.34 1795.79 Q2499.97 1795.79 2501.78 1792.25 Q2503.6 1788.68 2503.6 1781.58 Q2503.6 1774.45 2501.78 1770.9 Q2499.97 1767.34 2496.34 1767.34 M2496.34 1763.64 Q2502.15 1763.64 2505.2 1768.24 Q2508.28 1772.83 2508.28 1781.58 Q2508.28 1790.3 2505.2 1794.91 Q2502.15 1799.49 2496.34 1799.49 Q2490.53 1799.49 2487.45 1794.91 Q2484.39 1790.3 2484.39 1781.58 Q2484.39 1772.83 2487.45 1768.24 Q2490.53 1763.64 2496.34 1763.64 Z" fill="#000000" fill-rule="nonzero" fill-opacity="1" /><path clip-path="url(#clip270)" d="M1377.66 1835.78 L1417.86 1835.78 L1417.86 1841.19 L1400.99 1841.19 L1400.99 1883.3 L1394.53 1883.3 L1394.53 1841.19 L1377.66 1841.19 L1377.66 1835.78 Z" fill="#000000" fill-rule="nonzero" fill-opacity="1" /><path clip-path="url(#clip270)" d="M1421.81 1847.65 L1427.67 1847.65 L1427.67 1883.3 L1421.81 1883.3 L1421.81 1847.65 M1421.81 1833.78 L1427.67 1833.78 L1427.67 1841.19 L1421.81 1841.19 L1421.81 1833.78 Z" fill="#000000" fill-rule="nonzero" fill-opacity="1" /><path clip-path="url(#clip270)" d="M1467.67 1854.5 Q1469.87 1850.55 1472.93 1848.67 Q1475.98 1846.79 1480.12 1846.79 Q1485.69 1846.79 1488.71 1850.71 Q1491.74 1854.59 1491.74 1861.78 L1491.74 1883.3 L1485.85 1883.3 L1485.85 1861.98 Q1485.85 1856.85 1484.03 1854.37 Q1482.22 1851.89 1478.5 1851.89 Q1473.94 1851.89 1471.3 1854.91 Q1468.66 1857.93 1468.66 1863.15 L1468.66 1883.3 L1462.77 1883.3 L1462.77 1861.98 Q1462.77 1856.82 1460.96 1854.37 Q1459.14 1851.89 1455.36 1851.89 Q1450.87 1851.89 1448.23 1854.94 Q1445.59 1857.97 1445.59 1863.15 L1445.59 1883.3 L1439.7 1883.3 L1439.7 1847.65 L1445.59 1847.65 L1445.59 1853.19 Q1447.59 1849.91 1450.39 1848.35 Q1453.19 1846.79 1457.04 1846.79 Q1460.93 1846.79 1463.63 1848.77 Q1466.37 1850.74 1467.67 1854.5 Z" fill="#000000" fill-rule="nonzero" fill-opacity="1" /><path clip-path="url(#clip270)" d="M1533.91 1864.01 L1533.91 1866.88 L1506.98 1866.88 Q1507.36 1872.92 1510.61 1876.11 Q1513.89 1879.26 1519.71 1879.26 Q1523.09 1879.26 1526.24 1878.43 Q1529.42 1877.6 1532.54 1875.95 L1532.54 1881.49 Q1529.39 1882.82 1526.08 1883.52 Q1522.77 1884.22 1519.36 1884.22 Q1510.83 1884.22 1505.84 1879.26 Q1500.87 1874.29 1500.87 1865.83 Q1500.87 1857.07 1505.58 1851.95 Q1510.32 1846.79 1518.35 1846.79 Q1525.54 1846.79 1529.71 1851.44 Q1533.91 1856.06 1533.91 1864.01 M1528.05 1862.29 Q1527.99 1857.49 1525.35 1854.62 Q1522.74 1851.76 1518.41 1851.76 Q1513.51 1851.76 1510.55 1854.53 Q1507.62 1857.3 1507.17 1862.33 L1528.05 1862.29 Z" fill="#000000" fill-rule="nonzero" fill-opacity="1" /><polyline clip-path="url(#clip270)" style="stroke:#000000; stroke-linecap:round; stroke-linejoin:round; stroke-width:4; stroke-opacity:1; fill:none" points="270.816,1734.12 270.816,127.792 "/>
<polyline clip-path="url(#clip270)" style="stroke:#000000; stroke-linecap:round; stroke-linejoin:round; stroke-width:4; stroke-opacity:1; fill:none" points="270.816,1680.11 289.714,1680.11 "/>
<polyline clip-path="url(#clip270)" style="stroke:#000000; stroke-linecap:round; stroke-linejoin:round; stroke-width:4; stroke-opacity:1; fill:none" points="270.816,1347.2 289.714,1347.2 "/>
<polyline clip-path="url(#clip270)" style="stroke:#000000; stroke-linecap:round; stroke-linejoin:round; stroke-width:4; stroke-opacity:1; fill:none" points="270.816,1014.3 289.714,1014.3 "/>
<polyline clip-path="url(#clip270)" style="stroke:#000000; stroke-linecap:round; stroke-linejoin:round; stroke-width:4; stroke-opacity:1; fill:none" points="270.816,681.387 289.714,681.387 "/>
<polyline clip-path="url(#clip270)" style="stroke:#000000; stroke-linecap:round; stroke-linejoin:round; stroke-width:4; stroke-opacity:1; fill:none" points="270.816,348.478 289.714,348.478 "/>
<path clip-path="url(#clip270)" d="M128.645 1678.25 Q125.497 1678.25 123.645 1680.4 Q121.816 1682.56 121.816 1686.31 Q121.816 1690.03 123.645 1692.21 Q125.497 1694.36 128.645 1694.36 Q131.793 1694.36 133.622 1692.21 Q135.474 1690.03 135.474 1686.31 Q135.474 1682.56 133.622 1680.4 Q131.793 1678.25 128.645 1678.25 M137.927 1663.6 L137.927 1667.86 Q136.168 1667.02 134.362 1666.58 Q132.58 1666.14 130.821 1666.14 Q126.191 1666.14 123.738 1669.27 Q121.307 1672.39 120.96 1678.71 Q122.326 1676.7 124.386 1675.63 Q126.446 1674.55 128.923 1674.55 Q134.131 1674.55 137.14 1677.72 Q140.173 1680.87 140.173 1686.31 Q140.173 1691.63 137.025 1694.85 Q133.876 1698.06 128.645 1698.06 Q122.65 1698.06 119.478 1693.48 Q116.307 1688.88 116.307 1680.15 Q116.307 1671.95 120.196 1667.09 Q124.085 1662.21 130.636 1662.21 Q132.395 1662.21 134.177 1662.56 Q135.983 1662.9 137.927 1663.6 Z" fill="#000000" fill-rule="nonzero" fill-opacity="1" /><path clip-path="url(#clip270)" d="M148.274 1662.83 L166.631 1662.83 L166.631 1666.77 L152.557 1666.77 L152.557 1675.24 Q153.575 1674.89 154.594 1674.73 Q155.612 1674.55 156.631 1674.55 Q162.418 1674.55 165.798 1677.72 Q169.177 1680.89 169.177 1686.31 Q169.177 1691.88 165.705 1694.99 Q162.233 1698.06 155.913 1698.06 Q153.737 1698.06 151.469 1697.69 Q149.224 1697.32 146.816 1696.58 L146.816 1691.88 Q148.899 1693.02 151.122 1693.57 Q153.344 1694.13 155.821 1694.13 Q159.825 1694.13 162.163 1692.02 Q164.501 1689.92 164.501 1686.31 Q164.501 1682.69 162.163 1680.59 Q159.825 1678.48 155.821 1678.48 Q153.946 1678.48 152.071 1678.9 Q150.219 1679.31 148.274 1680.19 L148.274 1662.83 Z" fill="#000000" fill-rule="nonzero" fill-opacity="1" /><path clip-path="url(#clip270)" d="M188.39 1665.91 Q184.779 1665.91 182.95 1669.48 Q181.145 1673.02 181.145 1680.15 Q181.145 1687.25 182.95 1690.82 Q184.779 1694.36 188.39 1694.36 Q192.024 1694.36 193.83 1690.82 Q195.658 1687.25 195.658 1680.15 Q195.658 1673.02 193.83 1669.48 Q192.024 1665.91 188.39 1665.91 M188.39 1662.21 Q194.2 1662.21 197.256 1666.82 Q200.334 1671.4 200.334 1680.15 Q200.334 1688.88 197.256 1693.48 Q194.2 1698.06 188.39 1698.06 Q182.58 1698.06 179.501 1693.48 Q176.446 1688.88 176.446 1680.15 Q176.446 1671.4 179.501 1666.82 Q182.58 1662.21 188.39 1662.21 Z" fill="#000000" fill-rule="nonzero" fill-opacity="1" /><path clip-path="url(#clip270)" d="M218.552 1665.91 Q214.941 1665.91 213.112 1669.48 Q211.307 1673.02 211.307 1680.15 Q211.307 1687.25 213.112 1690.82 Q214.941 1694.36 218.552 1694.36 Q222.186 1694.36 223.992 1690.82 Q225.82 1687.25 225.82 1680.15 Q225.82 1673.02 223.992 1669.48 Q222.186 1665.91 218.552 1665.91 M218.552 1662.21 Q224.362 1662.21 227.418 1666.82 Q230.496 1671.4 230.496 1680.15 Q230.496 1688.88 227.418 1693.48 Q224.362 1698.06 218.552 1698.06 Q212.742 1698.06 209.663 1693.48 Q206.607 1688.88 206.607 1680.15 Q206.607 1671.4 209.663 1666.82 Q212.742 1662.21 218.552 1662.21 Z" fill="#000000" fill-rule="nonzero" fill-opacity="1" /><path clip-path="url(#clip270)" d="M116.886 1329.92 L139.108 1329.92 L139.108 1331.92 L126.562 1364.48 L121.677 1364.48 L133.483 1333.86 L116.886 1333.86 L116.886 1329.92 Z" fill="#000000" fill-rule="nonzero" fill-opacity="1" /><path clip-path="url(#clip270)" d="M158.228 1333 Q154.617 1333 152.788 1336.57 Q150.983 1340.11 150.983 1347.24 Q150.983 1354.35 152.788 1357.91 Q154.617 1361.45 158.228 1361.45 Q161.862 1361.45 163.668 1357.91 Q165.497 1354.35 165.497 1347.24 Q165.497 1340.11 163.668 1336.57 Q161.862 1333 158.228 1333 M158.228 1329.3 Q164.038 1329.3 167.094 1333.91 Q170.172 1338.49 170.172 1347.24 Q170.172 1355.97 167.094 1360.57 Q164.038 1365.16 158.228 1365.16 Q152.418 1365.16 149.339 1360.57 Q146.284 1355.97 146.284 1347.24 Q146.284 1338.49 149.339 1333.91 Q152.418 1329.3 158.228 1329.3 Z" fill="#000000" fill-rule="nonzero" fill-opacity="1" /><path clip-path="url(#clip270)" d="M188.39 1333 Q184.779 1333 182.95 1336.57 Q181.145 1340.11 181.145 1347.24 Q181.145 1354.35 182.95 1357.91 Q184.779 1361.45 188.39 1361.45 Q192.024 1361.45 193.83 1357.91 Q195.658 1354.35 195.658 1347.24 Q195.658 1340.11 193.83 1336.57 Q192.024 1333 188.39 1333 M188.39 1329.3 Q194.2 1329.3 197.256 1333.91 Q200.334 1338.49 200.334 1347.24 Q200.334 1355.97 197.256 1360.57 Q194.2 1365.16 188.39 1365.16 Q182.58 1365.16 179.501 1360.57 Q176.446 1355.97 176.446 1347.24 Q176.446 1338.49 179.501 1333.91 Q182.58 1329.3 188.39 1329.3 Z" fill="#000000" fill-rule="nonzero" fill-opacity="1" /><path clip-path="url(#clip270)" d="M218.552 1333 Q214.941 1333 213.112 1336.57 Q211.307 1340.11 211.307 1347.24 Q211.307 1354.35 213.112 1357.91 Q214.941 1361.45 218.552 1361.45 Q222.186 1361.45 223.992 1357.91 Q225.82 1354.35 225.82 1347.24 Q225.82 1340.11 223.992 1336.57 Q222.186 1333 218.552 1333 M218.552 1329.3 Q224.362 1329.3 227.418 1333.91 Q230.496 1338.49 230.496 1347.24 Q230.496 1355.97 227.418 1360.57 Q224.362 1365.16 218.552 1365.16 Q212.742 1365.16 209.663 1360.57 Q206.607 1355.97 206.607 1347.24 Q206.607 1338.49 209.663 1333.91 Q212.742 1329.3 218.552 1329.3 Z" fill="#000000" fill-rule="nonzero" fill-opacity="1" /><path clip-path="url(#clip270)" d="M116.886 997.016 L139.108 997.016 L139.108 999.007 L126.562 1031.58 L121.677 1031.58 L133.483 1000.95 L116.886 1000.95 L116.886 997.016 Z" fill="#000000" fill-rule="nonzero" fill-opacity="1" /><path clip-path="url(#clip270)" d="M148.274 997.016 L166.631 997.016 L166.631 1000.95 L152.557 1000.95 L152.557 1009.42 Q153.575 1009.08 154.594 1008.91 Q155.612 1008.73 156.631 1008.73 Q162.418 1008.73 165.798 1011.9 Q169.177 1015.07 169.177 1020.49 Q169.177 1026.07 165.705 1029.17 Q162.233 1032.25 155.913 1032.25 Q153.737 1032.25 151.469 1031.88 Q149.224 1031.51 146.816 1030.77 L146.816 1026.07 Q148.899 1027.2 151.122 1027.76 Q153.344 1028.31 155.821 1028.31 Q159.825 1028.31 162.163 1026.21 Q164.501 1024.1 164.501 1020.49 Q164.501 1016.88 162.163 1014.77 Q159.825 1012.66 155.821 1012.66 Q153.946 1012.66 152.071 1013.08 Q150.219 1013.5 148.274 1014.38 L148.274 997.016 Z" fill="#000000" fill-rule="nonzero" fill-opacity="1" /><path clip-path="url(#clip270)" d="M188.39 1000.09 Q184.779 1000.09 182.95 1003.66 Q181.145 1007.2 181.145 1014.33 Q181.145 1021.44 182.95 1025 Q184.779 1028.54 188.39 1028.54 Q192.024 1028.54 193.83 1025 Q195.658 1021.44 195.658 1014.33 Q195.658 1007.2 193.83 1003.66 Q192.024 1000.09 188.39 1000.09 M188.39 996.391 Q194.2 996.391 197.256 1001 Q200.334 1005.58 200.334 1014.33 Q200.334 1023.06 197.256 1027.66 Q194.2 1032.25 188.39 1032.25 Q182.58 1032.25 179.501 1027.66 Q176.446 1023.06 176.446 1014.33 Q176.446 1005.58 179.501 1001 Q182.58 996.391 188.39 996.391 Z" fill="#000000" fill-rule="nonzero" fill-opacity="1" /><path clip-path="url(#clip270)" d="M218.552 1000.09 Q214.941 1000.09 213.112 1003.66 Q211.307 1007.2 211.307 1014.33 Q211.307 1021.44 213.112 1025 Q214.941 1028.54 218.552 1028.54 Q222.186 1028.54 223.992 1025 Q225.82 1021.44 225.82 1014.33 Q225.82 1007.2 223.992 1003.66 Q222.186 1000.09 218.552 1000.09 M218.552 996.391 Q224.362 996.391 227.418 1001 Q230.496 1005.58 230.496 1014.33 Q230.496 1023.06 227.418 1027.66 Q224.362 1032.25 218.552 1032.25 Q212.742 1032.25 209.663 1027.66 Q206.607 1023.06 206.607 1014.33 Q206.607 1005.58 209.663 1001 Q212.742 996.391 218.552 996.391 Z" fill="#000000" fill-rule="nonzero" fill-opacity="1" /><path clip-path="url(#clip270)" d="M128.066 682.255 Q124.733 682.255 122.812 684.038 Q120.913 685.82 120.913 688.945 Q120.913 692.07 122.812 693.852 Q124.733 695.635 128.066 695.635 Q131.4 695.635 133.321 693.852 Q135.242 692.047 135.242 688.945 Q135.242 685.82 133.321 684.038 Q131.423 682.255 128.066 682.255 M123.39 680.265 Q120.381 679.524 118.691 677.464 Q117.025 675.403 117.025 672.44 Q117.025 668.297 119.964 665.89 Q122.927 663.482 128.066 663.482 Q133.228 663.482 136.168 665.89 Q139.108 668.297 139.108 672.44 Q139.108 675.403 137.418 677.464 Q135.751 679.524 132.765 680.265 Q136.145 681.052 138.02 683.343 Q139.918 685.635 139.918 688.945 Q139.918 693.968 136.839 696.653 Q133.784 699.338 128.066 699.338 Q122.349 699.338 119.27 696.653 Q116.214 693.968 116.214 688.945 Q116.214 685.635 118.113 683.343 Q120.011 681.052 123.39 680.265 M121.677 672.88 Q121.677 675.565 123.344 677.07 Q125.034 678.575 128.066 678.575 Q131.075 678.575 132.765 677.07 Q134.478 675.565 134.478 672.88 Q134.478 670.195 132.765 668.691 Q131.075 667.186 128.066 667.186 Q125.034 667.186 123.344 668.691 Q121.677 670.195 121.677 672.88 Z" fill="#000000" fill-rule="nonzero" fill-opacity="1" /><path clip-path="url(#clip270)" d="M158.228 667.186 Q154.617 667.186 152.788 670.751 Q150.983 674.292 150.983 681.422 Q150.983 688.528 152.788 692.093 Q154.617 695.635 158.228 695.635 Q161.862 695.635 163.668 692.093 Q165.497 688.528 165.497 681.422 Q165.497 674.292 163.668 670.751 Q161.862 667.186 158.228 667.186 M158.228 663.482 Q164.038 663.482 167.094 668.089 Q170.172 672.672 170.172 681.422 Q170.172 690.149 167.094 694.755 Q164.038 699.338 158.228 699.338 Q152.418 699.338 149.339 694.755 Q146.284 690.149 146.284 681.422 Q146.284 672.672 149.339 668.089 Q152.418 663.482 158.228 663.482 Z" fill="#000000" fill-rule="nonzero" fill-opacity="1" /><path clip-path="url(#clip270)" d="M188.39 667.186 Q184.779 667.186 182.95 670.751 Q181.145 674.292 181.145 681.422 Q181.145 688.528 182.95 692.093 Q184.779 695.635 188.39 695.635 Q192.024 695.635 193.83 692.093 Q195.658 688.528 195.658 681.422 Q195.658 674.292 193.83 670.751 Q192.024 667.186 188.39 667.186 M188.39 663.482 Q194.2 663.482 197.256 668.089 Q200.334 672.672 200.334 681.422 Q200.334 690.149 197.256 694.755 Q194.2 699.338 188.39 699.338 Q182.58 699.338 179.501 694.755 Q176.446 690.149 176.446 681.422 Q176.446 672.672 179.501 668.089 Q182.58 663.482 188.39 663.482 Z" fill="#000000" fill-rule="nonzero" fill-opacity="1" /><path clip-path="url(#clip270)" d="M218.552 667.186 Q214.941 667.186 213.112 670.751 Q211.307 674.292 211.307 681.422 Q211.307 688.528 213.112 692.093 Q214.941 695.635 218.552 695.635 Q222.186 695.635 223.992 692.093 Q225.82 688.528 225.82 681.422 Q225.82 674.292 223.992 670.751 Q222.186 667.186 218.552 667.186 M218.552 663.482 Q224.362 663.482 227.418 668.089 Q230.496 672.672 230.496 681.422 Q230.496 690.149 227.418 694.755 Q224.362 699.338 218.552 699.338 Q212.742 699.338 209.663 694.755 Q206.607 690.149 206.607 681.422 Q206.607 672.672 209.663 668.089 Q212.742 663.482 218.552 663.482 Z" fill="#000000" fill-rule="nonzero" fill-opacity="1" /><path clip-path="url(#clip270)" d="M128.066 349.346 Q124.733 349.346 122.812 351.129 Q120.913 352.911 120.913 356.036 Q120.913 359.161 122.812 360.944 Q124.733 362.726 128.066 362.726 Q131.4 362.726 133.321 360.944 Q135.242 359.138 135.242 356.036 Q135.242 352.911 133.321 351.129 Q131.423 349.346 128.066 349.346 M123.39 347.356 Q120.381 346.615 118.691 344.555 Q117.025 342.495 117.025 339.532 Q117.025 335.388 119.964 332.981 Q122.927 330.573 128.066 330.573 Q133.228 330.573 136.168 332.981 Q139.108 335.388 139.108 339.532 Q139.108 342.495 137.418 344.555 Q135.751 346.615 132.765 347.356 Q136.145 348.143 138.02 350.434 Q139.918 352.726 139.918 356.036 Q139.918 361.059 136.839 363.745 Q133.784 366.43 128.066 366.43 Q122.349 366.43 119.27 363.745 Q116.214 361.059 116.214 356.036 Q116.214 352.726 118.113 350.434 Q120.011 348.143 123.39 347.356 M121.677 339.972 Q121.677 342.657 123.344 344.161 Q125.034 345.666 128.066 345.666 Q131.075 345.666 132.765 344.161 Q134.478 342.657 134.478 339.972 Q134.478 337.286 132.765 335.782 Q131.075 334.277 128.066 334.277 Q125.034 334.277 123.344 335.782 Q121.677 337.286 121.677 339.972 Z" fill="#000000" fill-rule="nonzero" fill-opacity="1" /><path clip-path="url(#clip270)" d="M148.274 331.198 L166.631 331.198 L166.631 335.134 L152.557 335.134 L152.557 343.606 Q153.575 343.259 154.594 343.096 Q155.612 342.911 156.631 342.911 Q162.418 342.911 165.798 346.083 Q169.177 349.254 169.177 354.671 Q169.177 360.249 165.705 363.351 Q162.233 366.43 155.913 366.43 Q153.737 366.43 151.469 366.059 Q149.224 365.689 146.816 364.948 L146.816 360.249 Q148.899 361.383 151.122 361.939 Q153.344 362.495 155.821 362.495 Q159.825 362.495 162.163 360.388 Q164.501 358.282 164.501 354.671 Q164.501 351.059 162.163 348.953 Q159.825 346.846 155.821 346.846 Q153.946 346.846 152.071 347.263 Q150.219 347.68 148.274 348.559 L148.274 331.198 Z" fill="#000000" fill-rule="nonzero" fill-opacity="1" /><path clip-path="url(#clip270)" d="M188.39 334.277 Q184.779 334.277 182.95 337.842 Q181.145 341.384 181.145 348.513 Q181.145 355.62 182.95 359.184 Q184.779 362.726 188.39 362.726 Q192.024 362.726 193.83 359.184 Q195.658 355.62 195.658 348.513 Q195.658 341.384 193.83 337.842 Q192.024 334.277 188.39 334.277 M188.39 330.573 Q194.2 330.573 197.256 335.18 Q200.334 339.763 200.334 348.513 Q200.334 357.24 197.256 361.846 Q194.2 366.43 188.39 366.43 Q182.58 366.43 179.501 361.846 Q176.446 357.24 176.446 348.513 Q176.446 339.763 179.501 335.18 Q182.58 330.573 188.39 330.573 Z" fill="#000000" fill-rule="nonzero" fill-opacity="1" /><path clip-path="url(#clip270)" d="M218.552 334.277 Q214.941 334.277 213.112 337.842 Q211.307 341.384 211.307 348.513 Q211.307 355.62 213.112 359.184 Q214.941 362.726 218.552 362.726 Q222.186 362.726 223.992 359.184 Q225.82 355.62 225.82 348.513 Q225.82 341.384 223.992 337.842 Q222.186 334.277 218.552 334.277 M218.552 330.573 Q224.362 330.573 227.418 335.18 Q230.496 339.763 230.496 348.513 Q230.496 357.24 227.418 361.846 Q224.362 366.43 218.552 366.43 Q212.742 366.43 209.663 361.846 Q206.607 357.24 206.607 348.513 Q206.607 339.763 209.663 335.18 Q212.742 330.573 218.552 330.573 Z" fill="#000000" fill-rule="nonzero" fill-opacity="1" /><path clip-path="url(#clip270)" d="M17.7787 1240.03 L24.5582 1240.03 Q21.5345 1243.27 20.0386 1246.96 Q18.5426 1250.62 18.5426 1254.76 Q18.5426 1262.91 23.5397 1267.24 Q28.5049 1271.57 37.9262 1271.57 Q47.3156 1271.57 52.3127 1267.24 Q57.2779 1262.91 57.2779 1254.76 Q57.2779 1250.62 55.782 1246.96 Q54.2861 1243.27 51.2623 1240.03 L57.9782 1240.03 Q60.2698 1243.4 61.4156 1247.19 Q62.5615 1250.94 62.5615 1255.14 Q62.5615 1265.93 55.973 1272.14 Q49.3526 1278.35 37.9262 1278.35 Q26.4679 1278.35 19.8794 1272.14 Q13.2591 1265.93 13.2591 1255.14 Q13.2591 1250.88 14.4049 1247.12 Q15.5189 1243.34 17.7787 1240.03 Z" fill="#000000" fill-rule="nonzero" fill-opacity="1" /><path clip-path="url(#clip270)" d="M30.0964 1216.54 Q30.0964 1221.25 33.7885 1223.98 Q37.4488 1226.72 43.8463 1226.72 Q50.2438 1226.72 53.9359 1224.02 Q57.5962 1221.28 57.5962 1216.54 Q57.5962 1211.86 53.9041 1209.12 Q50.212 1206.38 43.8463 1206.38 Q37.5124 1206.38 33.8203 1209.12 Q30.0964 1211.86 30.0964 1216.54 M25.1311 1216.54 Q25.1311 1208.9 30.0964 1204.54 Q35.0616 1200.18 43.8463 1200.18 Q52.5991 1200.18 57.5962 1204.54 Q62.5615 1208.9 62.5615 1216.54 Q62.5615 1224.21 57.5962 1228.57 Q52.5991 1232.9 43.8463 1232.9 Q35.0616 1232.9 30.0964 1228.57 Q25.1311 1224.21 25.1311 1216.54 Z" fill="#000000" fill-rule="nonzero" fill-opacity="1" /><path clip-path="url(#clip270)" d="M47.5702 1191.07 L25.9905 1191.07 L25.9905 1185.22 L47.3474 1185.22 Q52.4082 1185.22 54.9545 1183.24 Q57.4689 1181.27 57.4689 1177.32 Q57.4689 1172.58 54.4452 1169.84 Q51.4215 1167.07 46.2016 1167.07 L25.9905 1167.07 L25.9905 1161.22 L61.6384 1161.22 L61.6384 1167.07 L56.1639 1167.07 Q59.4104 1169.21 61.0019 1172.04 Q62.5615 1174.84 62.5615 1178.56 Q62.5615 1184.71 58.742 1187.89 Q54.9226 1191.07 47.5702 1191.07 M25.1311 1176.34 L25.1311 1176.34 Z" fill="#000000" fill-rule="nonzero" fill-opacity="1" /><path clip-path="url(#clip270)" d="M40.1224 1119.52 L61.6384 1119.52 L61.6384 1125.38 L40.3133 1125.38 Q35.2526 1125.38 32.7381 1127.35 Q30.2237 1129.33 30.2237 1133.27 Q30.2237 1138.02 33.2474 1140.75 Q36.2711 1143.49 41.491 1143.49 L61.6384 1143.49 L61.6384 1149.38 L25.9905 1149.38 L25.9905 1143.49 L31.5287 1143.49 Q28.314 1141.39 26.7225 1138.56 Q25.1311 1135.69 25.1311 1131.97 Q25.1311 1125.82 28.9505 1122.67 Q32.7381 1119.52 40.1224 1119.52 Z" fill="#000000" fill-rule="nonzero" fill-opacity="1" /><path clip-path="url(#clip270)" d="M15.869 1102.05 L25.9905 1102.05 L25.9905 1089.99 L30.542 1089.99 L30.542 1102.05 L49.8937 1102.05 Q54.2542 1102.05 55.4955 1100.87 Q56.7368 1099.66 56.7368 1096 L56.7368 1089.99 L61.6384 1089.99 L61.6384 1096 Q61.6384 1102.78 59.124 1105.36 Q56.5777 1107.94 49.8937 1107.94 L30.542 1107.94 L30.542 1112.23 L25.9905 1112.23 L25.9905 1107.94 L15.869 1107.94 L15.869 1102.05 Z" fill="#000000" fill-rule="nonzero" fill-opacity="1" /><path clip-path="url(#clip270)" d="M30.0964 1047.75 Q30.0964 1052.46 33.7885 1055.2 Q37.4488 1057.93 43.8463 1057.93 Q50.2438 1057.93 53.9359 1055.23 Q57.5962 1052.49 57.5962 1047.75 Q57.5962 1043.07 53.9041 1040.33 Q50.212 1037.6 43.8463 1037.6 Q37.5124 1037.6 33.8203 1040.33 Q30.0964 1043.07 30.0964 1047.75 M25.1311 1047.75 Q25.1311 1040.11 30.0964 1035.75 Q35.0616 1031.39 43.8463 1031.39 Q52.5991 1031.39 57.5962 1035.75 Q62.5615 1040.11 62.5615 1047.75 Q62.5615 1055.42 57.5962 1059.78 Q52.5991 1064.11 43.8463 1064.11 Q35.0616 1064.11 30.0964 1059.78 Q25.1311 1055.42 25.1311 1047.75 Z" fill="#000000" fill-rule="nonzero" fill-opacity="1" /><path clip-path="url(#clip270)" d="M12.1132 1003.64 L16.983 1003.64 L16.983 1009.24 Q16.983 1012.39 18.2562 1013.63 Q19.5293 1014.84 22.8395 1014.84 L25.9905 1014.84 L25.9905 1005.19 L30.542 1005.19 L30.542 1014.84 L61.6384 1014.84 L61.6384 1020.73 L30.542 1020.73 L30.542 1026.33 L25.9905 1026.33 L25.9905 1020.73 L23.5079 1020.73 Q17.5559 1020.73 14.8505 1017.96 Q12.1132 1015.19 12.1132 1009.17 L12.1132 1003.64 Z" fill="#000000" fill-rule="nonzero" fill-opacity="1" /><path clip-path="url(#clip270)" d="M27.0408 955.287 L32.579 955.287 Q31.3059 957.77 30.6693 960.444 Q30.0327 963.117 30.0327 965.982 Q30.0327 970.342 31.3695 972.539 Q32.7063 974.703 35.3799 974.703 Q37.4169 974.703 38.5946 973.143 Q39.7404 971.584 40.7908 966.873 L41.2364 964.868 Q42.5732 958.629 45.0239 956.02 Q47.4429 953.378 51.8034 953.378 Q56.7687 953.378 59.6651 957.324 Q62.5615 961.239 62.5615 968.114 Q62.5615 970.979 61.9886 974.098 Q61.4475 977.186 60.3335 980.623 L54.2861 980.623 Q55.973 977.376 56.8323 974.225 Q57.6599 971.074 57.6599 967.987 Q57.6599 963.849 56.2594 961.621 Q54.8271 959.393 52.249 959.393 Q49.8619 959.393 48.5887 961.017 Q47.3156 962.608 46.1379 968.051 L45.6605 970.088 Q44.5147 975.53 42.1594 977.949 Q39.7722 980.368 35.6345 980.368 Q30.6056 980.368 27.8684 976.804 Q25.1311 973.239 25.1311 966.682 Q25.1311 963.436 25.6085 960.571 Q26.086 957.706 27.0408 955.287 Z" fill="#000000" fill-rule="nonzero" fill-opacity="1" /><path clip-path="url(#clip270)" d="M47.5702 944.657 L25.9905 944.657 L25.9905 938.8 L47.3474 938.8 Q52.4082 938.8 54.9545 936.827 Q57.4689 934.854 57.4689 930.907 Q57.4689 926.164 54.4452 923.427 Q51.4215 920.658 46.2016 920.658 L25.9905 920.658 L25.9905 914.802 L61.6384 914.802 L61.6384 920.658 L56.1639 920.658 Q59.4104 922.791 61.0019 925.623 Q62.5615 928.424 62.5615 932.148 Q62.5615 938.291 58.742 941.474 Q54.9226 944.657 47.5702 944.657 M25.1311 929.92 L25.1311 929.92 Z" fill="#000000" fill-rule="nonzero" fill-opacity="1" /><path clip-path="url(#clip270)" d="M27.0408 880.013 L32.579 880.013 Q31.3059 882.496 30.6693 885.169 Q30.0327 887.843 30.0327 890.707 Q30.0327 895.068 31.3695 897.264 Q32.7063 899.428 35.3799 899.428 Q37.4169 899.428 38.5946 897.869 Q39.7404 896.309 40.7908 891.599 L41.2364 889.593 Q42.5732 883.355 45.0239 880.745 Q47.4429 878.103 51.8034 878.103 Q56.7687 878.103 59.6651 882.05 Q62.5615 885.965 62.5615 892.84 Q62.5615 895.704 61.9886 898.824 Q61.4475 901.911 60.3335 905.349 L54.2861 905.349 Q55.973 902.102 56.8323 898.951 Q57.6599 895.8 57.6599 892.713 Q57.6599 888.575 56.2594 886.347 Q54.8271 884.119 52.249 884.119 Q49.8619 884.119 48.5887 885.742 Q47.3156 887.334 46.1379 892.776 L45.6605 894.813 Q44.5147 900.256 42.1594 902.675 Q39.7722 905.094 35.6345 905.094 Q30.6056 905.094 27.8684 901.529 Q25.1311 897.964 25.1311 891.408 Q25.1311 888.161 25.6085 885.297 Q26.086 882.432 27.0408 880.013 Z" fill="#000000" fill-rule="nonzero" fill-opacity="1" /><path clip-path="url(#clip270)" d="M27.3591 843.124 L32.8336 843.124 Q31.465 845.606 30.7966 848.121 Q30.0964 850.603 30.0964 853.15 Q30.0964 858.847 33.7248 861.998 Q37.3214 865.149 43.8463 865.149 Q50.3711 865.149 53.9996 861.998 Q57.5962 858.847 57.5962 853.15 Q57.5962 850.603 56.9278 848.121 Q56.2276 845.606 54.859 843.124 L60.2698 843.124 Q61.4156 845.575 61.9886 848.216 Q62.5615 850.826 62.5615 853.786 Q62.5615 861.839 57.5007 866.581 Q52.44 871.324 43.8463 871.324 Q35.1253 871.324 30.1282 866.55 Q25.1311 861.743 25.1311 853.404 Q25.1311 850.699 25.704 848.121 Q26.2451 845.543 27.3591 843.124 Z" fill="#000000" fill-rule="nonzero" fill-opacity="1" /><path clip-path="url(#clip270)" d="M42.3504 802.447 L45.2149 802.447 L45.2149 829.374 Q51.2623 828.992 54.4452 825.745 Q57.5962 822.467 57.5962 816.642 Q57.5962 813.269 56.7687 810.118 Q55.9411 806.935 54.2861 803.815 L59.8242 803.815 Q61.161 806.967 61.8612 810.277 Q62.5615 813.587 62.5615 816.992 Q62.5615 825.523 57.5962 830.52 Q52.631 835.485 44.1646 835.485 Q35.4117 835.485 30.2873 830.774 Q25.1311 826.032 25.1311 818.011 Q25.1311 810.818 29.7781 806.648 Q34.3932 802.447 42.3504 802.447 M40.6316 808.303 Q35.8255 808.367 32.9609 811.009 Q30.0964 813.619 30.0964 817.947 Q30.0964 822.849 32.8654 825.809 Q35.6345 828.737 40.6634 829.183 L40.6316 808.303 Z" fill="#000000" fill-rule="nonzero" fill-opacity="1" /><path clip-path="url(#clip270)" d="M56.2912 787.169 L75.1974 787.169 L75.1974 793.057 L25.9905 793.057 L25.9905 787.169 L31.4013 787.169 Q28.2185 785.323 26.6907 782.522 Q25.1311 779.689 25.1311 775.775 Q25.1311 769.282 30.2873 765.239 Q35.4436 761.165 43.8463 761.165 Q52.249 761.165 57.4052 765.239 Q62.5615 769.282 62.5615 775.775 Q62.5615 779.689 61.0337 782.522 Q59.4741 785.323 56.2912 787.169 M43.8463 767.244 Q37.3851 767.244 33.7248 769.918 Q30.0327 772.56 30.0327 777.207 Q30.0327 781.854 33.7248 784.527 Q37.3851 787.169 43.8463 787.169 Q50.3075 787.169 53.9996 784.527 Q57.6599 781.854 57.6599 777.207 Q57.6599 772.56 53.9996 769.918 Q50.3075 767.244 43.8463 767.244 Z" fill="#000000" fill-rule="nonzero" fill-opacity="1" /><path clip-path="url(#clip270)" d="M15.869 745.665 L25.9905 745.665 L25.9905 733.602 L30.542 733.602 L30.542 745.665 L49.8937 745.665 Q54.2542 745.665 55.4955 744.487 Q56.7368 743.278 56.7368 739.617 L56.7368 733.602 L61.6384 733.602 L61.6384 739.617 Q61.6384 746.397 59.124 748.975 Q56.5777 751.553 49.8937 751.553 L30.542 751.553 L30.542 755.85 L25.9905 755.85 L25.9905 751.553 L15.869 751.553 L15.869 745.665 Z" fill="#000000" fill-rule="nonzero" fill-opacity="1" /><path clip-path="url(#clip270)" d="M25.9905 725.899 L25.9905 720.043 L61.6384 720.043 L61.6384 725.899 L25.9905 725.899 M12.1132 725.899 L12.1132 720.043 L19.5293 720.043 L19.5293 725.899 L12.1132 725.899 Z" fill="#000000" fill-rule="nonzero" fill-opacity="1" /><path clip-path="url(#clip270)" d="M43.8463 682.199 Q37.3851 682.199 33.7248 684.872 Q30.0327 687.514 30.0327 692.161 Q30.0327 696.808 33.7248 699.482 Q37.3851 702.123 43.8463 702.123 Q50.3075 702.123 53.9996 699.482 Q57.6599 696.808 57.6599 692.161 Q57.6599 687.514 53.9996 684.872 Q50.3075 682.199 43.8463 682.199 M31.4013 702.123 Q28.2185 700.277 26.6907 697.476 Q25.1311 694.644 25.1311 690.729 Q25.1311 684.236 30.2873 680.193 Q35.4436 676.119 43.8463 676.119 Q52.249 676.119 57.4052 680.193 Q62.5615 684.236 62.5615 690.729 Q62.5615 694.644 61.0337 697.476 Q59.4741 700.277 56.2912 702.123 L61.6384 702.123 L61.6384 708.012 L12.1132 708.012 L12.1132 702.123 L31.4013 702.123 Z" fill="#000000" fill-rule="nonzero" fill-opacity="1" /><path clip-path="url(#clip270)" d="M12.1132 666.412 L12.1132 660.555 L61.6384 660.555 L61.6384 666.412 L12.1132 666.412 Z" fill="#000000" fill-rule="nonzero" fill-opacity="1" /><path clip-path="url(#clip270)" d="M42.3504 617.81 L45.2149 617.81 L45.2149 644.736 Q51.2623 644.355 54.4452 641.108 Q57.5962 637.83 57.5962 632.005 Q57.5962 628.631 56.7687 625.48 Q55.9411 622.297 54.2861 619.178 L59.8242 619.178 Q61.161 622.329 61.8612 625.639 Q62.5615 628.95 62.5615 632.355 Q62.5615 640.885 57.5962 645.882 Q52.631 650.848 44.1646 650.848 Q35.4117 650.848 30.2873 646.137 Q25.1311 641.394 25.1311 633.374 Q25.1311 626.18 29.7781 622.011 Q34.3932 617.81 42.3504 617.81 M40.6316 623.666 Q35.8255 623.73 32.9609 626.371 Q30.0964 628.981 30.0964 633.31 Q30.0964 638.212 32.8654 641.172 Q35.6345 644.1 40.6634 644.546 L40.6316 623.666 Z" fill="#000000" fill-rule="nonzero" fill-opacity="1" /><path clip-path="url(#clip270)" d="M27.0408 585.472 L32.579 585.472 Q31.3059 587.954 30.6693 590.628 Q30.0327 593.302 30.0327 596.166 Q30.0327 600.527 31.3695 602.723 Q32.7063 604.887 35.3799 604.887 Q37.4169 604.887 38.5946 603.328 Q39.7404 601.768 40.7908 597.057 L41.2364 595.052 Q42.5732 588.814 45.0239 586.204 Q47.4429 583.562 51.8034 583.562 Q56.7687 583.562 59.6651 587.509 Q62.5615 591.424 62.5615 598.299 Q62.5615 601.163 61.9886 604.282 Q61.4475 607.37 60.3335 610.807 L54.2861 610.807 Q55.973 607.561 56.8323 604.41 Q57.6599 601.259 57.6599 598.171 Q57.6599 594.034 56.2594 591.806 Q54.8271 589.578 52.249 589.578 Q49.8619 589.578 48.5887 591.201 Q47.3156 592.792 46.1379 598.235 L45.6605 600.272 Q44.5147 605.715 42.1594 608.134 Q39.7722 610.553 35.6345 610.553 Q30.6056 610.553 27.8684 606.988 Q25.1311 603.423 25.1311 596.866 Q25.1311 593.62 25.6085 590.755 Q26.086 587.891 27.0408 585.472 Z" fill="#000000" fill-rule="nonzero" fill-opacity="1" /><path clip-path="url(#clip270)" d="M1306.92 14.0809 L1306.92 22.0612 Q1302.26 19.8332 1298.12 18.7395 Q1293.99 17.6457 1290.14 17.6457 Q1283.46 17.6457 1279.81 20.2383 Q1276.21 22.8309 1276.21 27.611 Q1276.21 31.6214 1278.6 33.6873 Q1281.03 35.7128 1287.75 36.9686 L1292.7 37.9813 Q1301.85 39.7232 1306.19 44.1387 Q1310.56 48.5136 1310.56 55.8863 Q1310.56 64.6767 1304.65 69.2137 Q1298.77 73.7508 1287.39 73.7508 Q1283.1 73.7508 1278.23 72.7785 Q1273.41 71.8063 1268.23 69.9024 L1268.23 61.4765 Q1273.21 64.2716 1277.99 65.6895 Q1282.77 67.1073 1287.39 67.1073 Q1294.4 67.1073 1298.21 64.3527 Q1302.01 61.598 1302.01 56.4939 Q1302.01 52.0379 1299.26 49.5264 Q1296.55 47.0148 1290.31 45.759 L1285.32 44.7868 Q1276.17 42.9639 1272.08 39.075 Q1267.99 35.1862 1267.99 28.2591 Q1267.99 20.2383 1273.62 15.6203 Q1279.29 11.0023 1289.21 11.0023 Q1293.47 11.0023 1297.88 11.7719 Q1302.3 12.5416 1306.92 14.0809 Z" fill="#000000" fill-rule="nonzero" fill-opacity="1" /><path clip-path="url(#clip270)" d="M1357.47 86.3491 L1357.47 92.1419 L1314.37 92.1419 L1314.37 86.3491 L1357.47 86.3491 Z" fill="#000000" fill-rule="nonzero" fill-opacity="1" /><path clip-path="url(#clip270)" d="M1371.85 14.324 L1371.85 27.2059 L1387.2 27.2059 L1387.2 32.9987 L1371.85 32.9987 L1371.85 57.6282 Q1371.85 63.1779 1373.35 64.7578 Q1374.89 66.3376 1379.55 66.3376 L1387.2 66.3376 L1387.2 72.576 L1379.55 72.576 Q1370.92 72.576 1367.64 69.3758 Q1364.36 66.1351 1364.36 57.6282 L1364.36 32.9987 L1358.89 32.9987 L1358.89 27.2059 L1364.36 27.2059 L1364.36 14.324 L1371.85 14.324 Z" fill="#000000" fill-rule="nonzero" fill-opacity="1" /><path clip-path="url(#clip270)" d="M1456.03 28.9478 L1456.03 35.9153 Q1452.87 34.1734 1449.67 33.3227 Q1446.51 32.4315 1443.27 32.4315 Q1436.02 32.4315 1432.01 37.0496 Q1428 41.6271 1428 49.9314 Q1428 58.2358 1432.01 62.8538 Q1436.02 67.4314 1443.27 67.4314 Q1446.51 67.4314 1449.67 66.5807 Q1452.87 65.6895 1456.03 63.9476 L1456.03 70.8341 Q1452.91 72.2924 1449.55 73.0216 Q1446.23 73.7508 1442.46 73.7508 Q1432.21 73.7508 1426.17 67.3098 Q1420.14 60.8689 1420.14 49.9314 Q1420.14 38.832 1426.21 32.472 Q1432.33 26.1121 1442.94 26.1121 Q1446.39 26.1121 1449.67 26.8413 Q1452.95 27.5299 1456.03 28.9478 Z" fill="#000000" fill-rule="nonzero" fill-opacity="1" /><path clip-path="url(#clip270)" d="M1468.22 54.671 L1468.22 27.2059 L1475.68 27.2059 L1475.68 54.3874 Q1475.68 60.8284 1478.19 64.0691 Q1480.7 67.2693 1485.72 67.2693 Q1491.76 67.2693 1495.24 63.421 Q1498.77 59.5726 1498.77 52.9291 L1498.77 27.2059 L1506.22 27.2059 L1506.22 72.576 L1498.77 72.576 L1498.77 65.6084 Q1496.05 69.7404 1492.45 71.7658 Q1488.88 73.7508 1484.14 73.7508 Q1476.32 73.7508 1472.27 68.8897 Q1468.22 64.0286 1468.22 54.671 M1486.98 26.1121 L1486.98 26.1121 Z" fill="#000000" fill-rule="nonzero" fill-opacity="1" /><path clip-path="url(#clip270)" d="M1547.86 34.1734 Q1546.61 33.4443 1545.11 33.1202 Q1543.65 32.7556 1541.87 32.7556 Q1535.55 32.7556 1532.15 36.8875 Q1528.78 40.9789 1528.78 48.6757 L1528.78 72.576 L1521.29 72.576 L1521.29 27.2059 L1528.78 27.2059 L1528.78 34.2544 Q1531.13 30.1225 1534.9 28.1376 Q1538.67 26.1121 1544.06 26.1121 Q1544.82 26.1121 1545.76 26.2337 Q1546.69 26.3147 1547.82 26.5172 L1547.86 34.1734 Z" fill="#000000" fill-rule="nonzero" fill-opacity="1" /><path clip-path="url(#clip270)" d="M1550.33 27.2059 L1558.23 27.2059 L1572.41 65.2844 L1586.59 27.2059 L1594.49 27.2059 L1577.48 72.576 L1567.35 72.576 L1550.33 27.2059 Z" fill="#000000" fill-rule="nonzero" fill-opacity="1" /><path clip-path="url(#clip270)" d="M1643.59 48.0275 L1643.59 51.6733 L1609.32 51.6733 Q1609.8 59.3701 1613.93 63.421 Q1618.11 67.4314 1625.52 67.4314 Q1629.81 67.4314 1633.82 66.3781 Q1637.87 65.3249 1641.84 63.2184 L1641.84 70.267 Q1637.83 71.9684 1633.62 72.8596 Q1629.41 73.7508 1625.07 73.7508 Q1614.22 73.7508 1607.86 67.4314 Q1601.54 61.1119 1601.54 50.3365 Q1601.54 39.1965 1607.53 32.6746 Q1613.57 26.1121 1623.78 26.1121 Q1632.93 26.1121 1638.24 32.0264 Q1643.59 37.9003 1643.59 48.0275 M1636.13 45.84 Q1636.05 39.7232 1632.69 36.0774 Q1629.37 32.4315 1623.86 32.4315 Q1617.62 32.4315 1613.85 35.9558 Q1610.13 39.4801 1609.56 45.8805 L1636.13 45.84 Z" fill="#000000" fill-rule="nonzero" fill-opacity="1" /><polyline clip-path="url(#clip271)" style="stroke:#0000ff; stroke-linecap:round; stroke-linejoin:round; stroke-width:12; stroke-opacity:1; fill:none" points="337.89,173.254 359.183,214.252 380.477,254.914 401.77,295.196 423.063,335.058 444.356,374.461 465.65,413.368 486.943,451.746 508.236,489.562 529.529,526.786 550.823,563.392 572.116,599.355 593.409,634.654 614.702,669.267 635.996,703.178 657.289,736.372 678.582,768.837 699.875,800.562 721.169,831.539 742.462,861.763 763.755,891.228 785.048,919.934 806.342,947.879 827.635,975.066 848.928,1001.5 870.221,1027.18 891.515,1052.11 912.808,1076.31 934.101,1099.77 955.394,1122.52 976.688,1144.55 997.981,1165.89 1019.27,1186.54 1040.57,1206.51 1061.86,1225.83 1083.15,1244.49 1104.45,1262.52 1125.74,1279.93 1147.03,1296.74 1168.33,1312.95 1189.62,1328.6 1210.91,1343.68 1232.21,1358.21 1253.5,1372.22 1274.79,1385.71 1296.09,1398.71 1317.38,1411.22 1338.67,1423.25 1359.97,1434.84 1381.26,1445.98 1402.55,1456.7 1423.85,1467 1445.14,1476.91 1466.43,1486.43 1487.73,1495.58 1509.02,1504.37 1530.31,1512.81 1551.61,1520.92 1572.9,1528.7 1594.19,1536.18 1615.49,1543.35 1636.78,1550.24 1658.07,1556.85 1679.37,1563.19 1700.66,1569.27 1721.95,1575.1 1743.25,1580.7 1764.54,1586.06 1785.83,1591.21 1807.12,1596.14 1828.42,1600.87 1849.71,1605.41 1871,1609.76 1892.3,1613.92 1913.59,1617.92 1934.88,1621.74 1956.18,1625.41 1977.47,1628.92 1998.76,1632.29 2020.06,1635.51 2041.35,1638.6 2062.64,1641.56 2083.94,1644.39 2105.23,1647.11 2126.52,1649.71 2147.82,1652.2 2169.11,1654.58 2190.4,1656.86 2211.7,1659.05 2232.99,1661.14 2254.28,1663.15 2275.58,1665.06 2296.87,1666.9 2318.16,1668.66 2339.46,1670.34 2360.75,1671.96 2382.04,1673.5 2403.34,1674.97 2424.63,1676.39 2445.92,1677.74 2467.22,1679.04 2488.51,1680.28 2509.8,1681.46 2531.1,1682.6 2552.39,1683.69 2573.68,1684.73 "/>
<polyline clip-path="url(#clip271)" style="stroke:#ff0000; stroke-linecap:round; stroke-linejoin:round; stroke-width:12; stroke-opacity:1; fill:none" stroke-dasharray="48, 30" points="337.89,173.254 359.183,180.578 380.477,180.578 401.77,194.56 423.063,217.864 444.356,248.492 465.65,281.782 486.943,320.4 508.236,351.027 529.529,379.658 550.823,426.931 572.116,516.816 593.409,608.699 614.702,686.6 635.996,752.515 657.289,801.786 678.582,813.771 699.875,829.084 721.169,893.003 742.462,992.21 763.755,1060.12 785.048,1091.42 806.342,1112.72 827.635,1122.71 848.928,1148.01 870.221,1174.64 891.515,1197.28 912.808,1217.92 934.101,1245.22 955.394,1253.21 976.688,1253.21 997.981,1258.54 1019.27,1276.51 1040.57,1295.16 1061.86,1314.47 1083.15,1323.79 1104.45,1328.45 1125.74,1328.45 1147.03,1333.77 1168.33,1343.76 1189.62,1351.75 1210.91,1364.4 1232.21,1371.73 1253.5,1375.05 1274.79,1375.72 1296.09,1377.05 1317.38,1379.72 1338.67,1392.37 1359.97,1407.68 1381.26,1411.01 1402.55,1412.34 1423.85,1412.34 1445.14,1421 1466.43,1433.65 1487.73,1448.29 1509.02,1460.28 1530.31,1469.6 1551.61,1472.26 1572.9,1475.59 1594.19,1476.92 1615.49,1481.59 1636.78,1487.58 1658.07,1494.9 1679.37,1502.23 1700.66,1505.56 1721.95,1505.56 1743.25,1512.21 1764.54,1520.2 1785.83,1526.2 1807.12,1536.18 1828.42,1540.18 1849.71,1542.84 1871,1544.17 1892.3,1558.15 1913.59,1577.46 1934.88,1598.77 1956.18,1608.09 1977.47,1618.74 1998.76,1623.4 2020.06,1623.4 2041.35,1625.4 2062.64,1638.05 2083.94,1640.72 2105.23,1646.04 2126.52,1652.7 2147.82,1653.37 2169.11,1653.37 2190.4,1656.7 2211.7,1665.35 2232.99,1672.68 2254.28,1674.67 2275.58,1677.34 2296.87,1678.67 2318.16,1678.67 2339.46,1678.67 2360.75,1678.67 2382.04,1678.67 2403.34,1678.67 2424.63,1678.67 2445.92,1678.67 2467.22,1678.67 2488.51,1679.33 2509.8,1683.99 2531.1,1687.32 2552.39,1687.99 2573.68,1688.65 "/>
<path clip-path="url(#clip270)" d="M2103.65 336.856 L2561.76 336.856 L2561.76 181.336 L2103.65 181.336  Z" fill="#ffffff" fill-rule="evenodd" fill-opacity="1"/>
<polyline clip-path="url(#clip270)" style="stroke:#000000; stroke-linecap:round; stroke-linejoin:round; stroke-width:4; stroke-opacity:1; fill:none" points="2103.65,336.856 2561.76,336.856 2561.76,181.336 2103.65,181.336 2103.65,336.856 "/>
<polyline clip-path="url(#clip270)" style="stroke:#0000ff; stroke-linecap:round; stroke-linejoin:round; stroke-width:12; stroke-opacity:1; fill:none" points="2129.99,233.176 2287.98,233.176 "/>
<path clip-path="url(#clip270)" d="M2314.32 215.896 L2318.99 215.896 L2318.99 250.456 L2314.32 250.456 L2314.32 215.896 Z" fill="#000000" fill-rule="nonzero" fill-opacity="1" /><path clip-path="url(#clip270)" d="M2349.66 234.808 L2349.66 250.456 L2345.4 250.456 L2345.4 234.947 Q2345.4 231.267 2343.97 229.438 Q2342.53 227.609 2339.66 227.609 Q2336.21 227.609 2334.22 229.808 Q2332.23 232.007 2332.23 235.804 L2332.23 250.456 L2327.95 250.456 L2327.95 224.531 L2332.23 224.531 L2332.23 228.558 Q2333.76 226.22 2335.82 225.063 Q2337.9 223.906 2340.61 223.906 Q2345.08 223.906 2347.37 226.683 Q2349.66 229.438 2349.66 234.808 Z" fill="#000000" fill-rule="nonzero" fill-opacity="1" /><path clip-path="url(#clip270)" d="M2371.28 214.438 L2371.28 217.98 L2367.21 217.98 Q2364.92 217.98 2364.01 218.906 Q2363.13 219.831 2363.13 222.239 L2363.13 224.531 L2370.15 224.531 L2370.15 227.841 L2363.13 227.841 L2363.13 250.456 L2358.85 250.456 L2358.85 227.841 L2354.78 227.841 L2354.78 224.531 L2358.85 224.531 L2358.85 222.725 Q2358.85 218.396 2360.87 216.429 Q2362.88 214.438 2367.25 214.438 L2371.28 214.438 Z" fill="#000000" fill-rule="nonzero" fill-opacity="1" /><path clip-path="url(#clip270)" d="M2397.02 236.429 L2397.02 238.512 L2377.44 238.512 Q2377.72 242.91 2380.08 245.225 Q2382.46 247.516 2386.7 247.516 Q2389.15 247.516 2391.44 246.915 Q2393.76 246.313 2396.03 245.109 L2396.03 249.137 Q2393.74 250.109 2391.33 250.618 Q2388.92 251.128 2386.44 251.128 Q2380.24 251.128 2376.61 247.516 Q2373 243.905 2373 237.748 Q2373 231.382 2376.42 227.655 Q2379.87 223.906 2385.7 223.906 Q2390.94 223.906 2393.97 227.285 Q2397.02 230.642 2397.02 236.429 M2392.76 235.179 Q2392.72 231.683 2390.8 229.6 Q2388.9 227.517 2385.75 227.517 Q2382.19 227.517 2380.03 229.53 Q2377.9 231.544 2377.58 235.202 L2392.76 235.179 Z" fill="#000000" fill-rule="nonzero" fill-opacity="1" /><path clip-path="url(#clip270)" d="M2419.04 228.512 Q2418.32 228.095 2417.46 227.91 Q2416.63 227.702 2415.61 227.702 Q2412 227.702 2410.06 230.063 Q2408.13 232.401 2408.13 236.799 L2408.13 250.456 L2403.85 250.456 L2403.85 224.531 L2408.13 224.531 L2408.13 228.558 Q2409.48 226.197 2411.63 225.063 Q2413.78 223.906 2416.86 223.906 Q2417.3 223.906 2417.83 223.975 Q2418.37 224.021 2419.01 224.137 L2419.04 228.512 Z" fill="#000000" fill-rule="nonzero" fill-opacity="1" /><path clip-path="url(#clip270)" d="M2437.69 228.512 Q2436.98 228.095 2436.12 227.91 Q2435.29 227.702 2434.27 227.702 Q2430.66 227.702 2428.71 230.063 Q2426.79 232.401 2426.79 236.799 L2426.79 250.456 L2422.51 250.456 L2422.51 224.531 L2426.79 224.531 L2426.79 228.558 Q2428.13 226.197 2430.29 225.063 Q2432.44 223.906 2435.52 223.906 Q2435.96 223.906 2436.49 223.975 Q2437.02 224.021 2437.67 224.137 L2437.69 228.512 Z" fill="#000000" fill-rule="nonzero" fill-opacity="1" /><path clip-path="url(#clip270)" d="M2463.3 236.429 L2463.3 238.512 L2443.71 238.512 Q2443.99 242.91 2446.35 245.225 Q2448.74 247.516 2452.97 247.516 Q2455.43 247.516 2457.72 246.915 Q2460.03 246.313 2462.3 245.109 L2462.3 249.137 Q2460.01 250.109 2457.6 250.618 Q2455.19 251.128 2452.72 251.128 Q2446.51 251.128 2442.88 247.516 Q2439.27 243.905 2439.27 237.748 Q2439.27 231.382 2442.69 227.655 Q2446.14 223.906 2451.98 223.906 Q2457.21 223.906 2460.24 227.285 Q2463.3 230.642 2463.3 236.429 M2459.04 235.179 Q2458.99 231.683 2457.07 229.6 Q2455.17 227.517 2452.02 227.517 Q2448.46 227.517 2446.31 229.53 Q2444.18 231.544 2443.85 235.202 L2459.04 235.179 Z" fill="#000000" fill-rule="nonzero" fill-opacity="1" /><path clip-path="url(#clip270)" d="M2487.35 228.466 L2487.35 214.438 L2491.61 214.438 L2491.61 250.456 L2487.35 250.456 L2487.35 246.567 Q2486 248.882 2483.94 250.016 Q2481.91 251.128 2479.04 251.128 Q2474.34 251.128 2471.37 247.378 Q2468.43 243.628 2468.43 237.517 Q2468.43 231.405 2471.37 227.655 Q2474.34 223.906 2479.04 223.906 Q2481.91 223.906 2483.94 225.04 Q2486 226.151 2487.35 228.466 M2472.83 237.517 Q2472.83 242.216 2474.75 244.901 Q2476.7 247.563 2480.08 247.563 Q2483.46 247.563 2485.4 244.901 Q2487.35 242.216 2487.35 237.517 Q2487.35 232.817 2485.4 230.155 Q2483.46 227.47 2480.08 227.47 Q2476.7 227.47 2474.75 230.155 Q2472.83 232.817 2472.83 237.517 Z" fill="#000000" fill-rule="nonzero" fill-opacity="1" /><polyline clip-path="url(#clip270)" style="stroke:#ff0000; stroke-linecap:round; stroke-linejoin:round; stroke-width:12; stroke-opacity:1; fill:none" stroke-dasharray="48, 30" points="2129.99,285.016 2287.98,285.016 "/>
<path clip-path="url(#clip270)" d="M2330.33 270.908 Q2325.24 270.908 2322.23 274.704 Q2319.25 278.5 2319.25 285.051 Q2319.25 291.579 2322.23 295.375 Q2325.24 299.171 2330.33 299.171 Q2335.43 299.171 2338.39 295.375 Q2341.38 291.579 2341.38 285.051 Q2341.38 278.5 2338.39 274.704 Q2335.43 270.908 2330.33 270.908 M2330.33 267.111 Q2337.6 267.111 2341.95 271.996 Q2346.31 276.857 2346.31 285.051 Q2346.31 293.222 2341.95 298.106 Q2337.6 302.968 2330.33 302.968 Q2323.04 302.968 2318.67 298.106 Q2314.32 293.245 2314.32 285.051 Q2314.32 276.857 2318.67 271.996 Q2323.04 267.111 2330.33 267.111 Z" fill="#000000" fill-rule="nonzero" fill-opacity="1" /><path clip-path="url(#clip270)" d="M2372.05 289.357 Q2372.05 284.657 2370.1 281.995 Q2368.18 279.31 2364.8 279.31 Q2361.42 279.31 2359.48 281.995 Q2357.56 284.657 2357.56 289.357 Q2357.56 294.056 2359.48 296.741 Q2361.42 299.403 2364.8 299.403 Q2368.18 299.403 2370.1 296.741 Q2372.05 294.056 2372.05 289.357 M2357.56 280.306 Q2358.9 277.991 2360.94 276.88 Q2363 275.746 2365.84 275.746 Q2370.57 275.746 2373.5 279.495 Q2376.47 283.245 2376.47 289.357 Q2376.47 295.468 2373.5 299.218 Q2370.57 302.968 2365.84 302.968 Q2363 302.968 2360.94 301.856 Q2358.9 300.722 2357.56 298.407 L2357.56 302.296 L2353.27 302.296 L2353.27 266.278 L2357.56 266.278 L2357.56 280.306 Z" fill="#000000" fill-rule="nonzero" fill-opacity="1" /><path clip-path="url(#clip270)" d="M2400.06 277.134 L2400.06 281.162 Q2398.25 280.236 2396.31 279.773 Q2394.36 279.31 2392.28 279.31 Q2389.11 279.31 2387.51 280.283 Q2385.94 281.255 2385.94 283.199 Q2385.94 284.681 2387.07 285.537 Q2388.2 286.37 2391.63 287.134 L2393.09 287.458 Q2397.63 288.431 2399.52 290.213 Q2401.44 291.972 2401.44 295.144 Q2401.44 298.755 2398.57 300.861 Q2395.73 302.968 2390.73 302.968 Q2388.64 302.968 2386.38 302.551 Q2384.13 302.157 2381.63 301.347 L2381.63 296.949 Q2383.99 298.176 2386.28 298.801 Q2388.57 299.403 2390.82 299.403 Q2393.83 299.403 2395.45 298.384 Q2397.07 297.343 2397.07 295.468 Q2397.07 293.732 2395.89 292.806 Q2394.73 291.88 2390.77 291.023 L2389.29 290.676 Q2385.33 289.843 2383.57 288.13 Q2381.81 286.394 2381.81 283.384 Q2381.81 279.727 2384.41 277.736 Q2387 275.746 2391.77 275.746 Q2394.13 275.746 2396.21 276.093 Q2398.3 276.44 2400.06 277.134 Z" fill="#000000" fill-rule="nonzero" fill-opacity="1" /><path clip-path="url(#clip270)" d="M2430.4 288.269 L2430.4 290.352 L2410.82 290.352 Q2411.1 294.75 2413.46 297.065 Q2415.84 299.356 2420.08 299.356 Q2422.53 299.356 2424.82 298.755 Q2427.14 298.153 2429.41 296.949 L2429.41 300.977 Q2427.12 301.949 2424.71 302.458 Q2422.3 302.968 2419.82 302.968 Q2413.62 302.968 2409.99 299.356 Q2406.38 295.745 2406.38 289.588 Q2406.38 283.222 2409.8 279.495 Q2413.25 275.746 2419.08 275.746 Q2424.31 275.746 2427.35 279.125 Q2430.4 282.482 2430.4 288.269 M2426.14 287.019 Q2426.1 283.523 2424.18 281.44 Q2422.28 279.357 2419.13 279.357 Q2415.56 279.357 2413.41 281.37 Q2411.28 283.384 2410.96 287.042 L2426.14 287.019 Z" fill="#000000" fill-rule="nonzero" fill-opacity="1" /><path clip-path="url(#clip270)" d="M2452.42 280.352 Q2451.7 279.935 2450.84 279.75 Q2450.01 279.542 2448.99 279.542 Q2445.38 279.542 2443.44 281.903 Q2441.51 284.241 2441.51 288.639 L2441.51 302.296 L2437.23 302.296 L2437.23 276.371 L2441.51 276.371 L2441.51 280.398 Q2442.86 278.037 2445.01 276.903 Q2447.16 275.746 2450.24 275.746 Q2450.68 275.746 2451.21 275.815 Q2451.75 275.861 2452.39 275.977 L2452.42 280.352 Z" fill="#000000" fill-rule="nonzero" fill-opacity="1" /><path clip-path="url(#clip270)" d="M2453.83 276.371 L2458.34 276.371 L2466.44 298.13 L2474.55 276.371 L2479.06 276.371 L2469.34 302.296 L2463.55 302.296 L2453.83 276.371 Z" fill="#000000" fill-rule="nonzero" fill-opacity="1" /><path clip-path="url(#clip270)" d="M2507.12 288.269 L2507.12 290.352 L2487.53 290.352 Q2487.81 294.75 2490.17 297.065 Q2492.56 299.356 2496.79 299.356 Q2499.24 299.356 2501.54 298.755 Q2503.85 298.153 2506.12 296.949 L2506.12 300.977 Q2503.83 301.949 2501.42 302.458 Q2499.01 302.968 2496.54 302.968 Q2490.33 302.968 2486.7 299.356 Q2483.09 295.745 2483.09 289.588 Q2483.09 283.222 2486.51 279.495 Q2489.96 275.746 2495.8 275.746 Q2501.03 275.746 2504.06 279.125 Q2507.12 282.482 2507.12 288.269 M2502.86 287.019 Q2502.81 283.523 2500.89 281.44 Q2498.99 279.357 2495.84 279.357 Q2492.28 279.357 2490.12 281.37 Q2487.99 283.384 2487.67 287.042 L2502.86 287.019 Z" fill="#000000" fill-rule="nonzero" fill-opacity="1" /><path clip-path="url(#clip270)" d="M2531.17 280.306 L2531.17 266.278 L2535.43 266.278 L2535.43 302.296 L2531.17 302.296 L2531.17 298.407 Q2529.82 300.722 2527.76 301.856 Q2525.73 302.968 2522.86 302.968 Q2518.16 302.968 2515.19 299.218 Q2512.25 295.468 2512.25 289.357 Q2512.25 283.245 2515.19 279.495 Q2518.16 275.746 2522.86 275.746 Q2525.73 275.746 2527.76 276.88 Q2529.82 277.991 2531.17 280.306 M2516.65 289.357 Q2516.65 294.056 2518.57 296.741 Q2520.52 299.403 2523.9 299.403 Q2527.28 299.403 2529.22 296.741 Q2531.17 294.056 2531.17 289.357 Q2531.17 284.657 2529.22 281.995 Q2527.28 279.31 2523.9 279.31 Q2520.52 279.31 2518.57 281.995 Q2516.65 284.657 2516.65 289.357 Z" fill="#000000" fill-rule="nonzero" fill-opacity="1" /></svg>
