<?xml version="1.0" encoding="utf-8"?>
<svg xmlns="http://www.w3.org/2000/svg" xmlns:xlink="http://www.w3.org/1999/xlink" width="672" height="480" viewBox="0 0 2688 1920">
<defs>
  <clipPath id="clip270">
    <rect x="0" y="0" width="2688" height="1920"/>
  </clipPath>
</defs>
<path clip-path="url(#clip270)" d="M0 1920 L2688 1920 L2688 -4.26326e-14 L0 -4.26326e-14  Z" fill="#ffffff" fill-rule="evenodd" fill-opacity="1"/>
<defs>
  <clipPath id="clip271">
    <rect x="270" y="127" width="2371" height="1607"/>
  </clipPath>
</defs>
<path clip-path="url(#clip270)" d="M270.724 1734.12 L2640.76 1734.12 L2640.76 127.792 L270.724 127.792  Z" fill="#ffffff" fill-rule="evenodd" fill-opacity="1"/>
<polyline clip-path="url(#clip271)" style="stroke:#000000; stroke-linecap:round; stroke-linejoin:round; stroke-width:2; stroke-opacity:0.1; fill:none" points="337.8,1734.12 337.8,127.792 "/>
<polyline clip-path="url(#clip271)" style="stroke:#000000; stroke-linecap:round; stroke-linejoin:round; stroke-width:2; stroke-opacity:0.1; fill:none" points="870.152,1734.12 870.152,127.792 "/>
<polyline clip-path="url(#clip271)" style="stroke:#000000; stroke-linecap:round; stroke-linejoin:round; stroke-width:2; stroke-opacity:0.1; fill:none" points="1402.5,1734.12 1402.5,127.792 "/>
<polyline clip-path="url(#clip271)" style="stroke:#000000; stroke-linecap:round; stroke-linejoin:round; stroke-width:2; stroke-opacity:0.1; fill:none" points="1934.86,1734.12 1934.86,127.792 "/>
<polyline clip-path="url(#clip271)" style="stroke:#000000; stroke-linecap:round; stroke-linejoin:round; stroke-width:2; stroke-opacity:0.1; fill:none" points="2467.21,1734.12 2467.21,127.792 "/>
<polyline clip-path="url(#clip271)" style="stroke:#000000; stroke-linecap:round; stroke-linejoin:round; stroke-width:2; stroke-opacity:0.1; fill:none" points="270.724,1443.01 2640.76,1443.01 "/>
<polyline clip-path="url(#clip271)" style="stroke:#000000; stroke-linecap:round; stroke-linejoin:round; stroke-width:2; stroke-opacity:0.1; fill:none" points="270.724,1108.48 2640.76,1108.48 "/>
<polyline clip-path="url(#clip271)" style="stroke:#000000; stroke-linecap:round; stroke-linejoin:round; stroke-width:2; stroke-opacity:0.1; fill:none" points="270.724,773.958 2640.76,773.958 "/>
<polyline clip-path="url(#clip271)" style="stroke:#000000; stroke-linecap:round; stroke-linejoin:round; stroke-width:2; stroke-opacity:0.1; fill:none" points="270.724,439.432 2640.76,439.432 "/>
<polyline clip-path="url(#clip270)" style="stroke:#000000; stroke-linecap:round; stroke-linejoin:round; stroke-width:4; stroke-opacity:1; fill:none" points="270.724,1734.12 2640.76,1734.12 "/>
<polyline clip-path="url(#clip270)" style="stroke:#000000; stroke-linecap:round; stroke-linejoin:round; stroke-width:4; stroke-opacity:1; fill:none" points="337.8,1734.12 337.8,1715.22 "/>
<polyline clip-path="url(#clip270)" style="stroke:#000000; stroke-linecap:round; stroke-linejoin:round; stroke-width:4; stroke-opacity:1; fill:none" points="870.152,1734.12 870.152,1715.22 "/>
<polyline clip-path="url(#clip270)" style="stroke:#000000; stroke-linecap:round; stroke-linejoin:round; stroke-width:4; stroke-opacity:1; fill:none" points="1402.5,1734.12 1402.5,1715.22 "/>
<polyline clip-path="url(#clip270)" style="stroke:#000000; stroke-linecap:round; stroke-linejoin:round; stroke-width:4; stroke-opacity:1; fill:none" points="1934.86,1734.12 1934.86,1715.22 "/>
<polyline clip-path="url(#clip270)" style="stroke:#000000; stroke-linecap:round; stroke-linejoin:round; stroke-width:4; stroke-opacity:1; fill:none" points="2467.21,1734.12 2467.21,1715.22 "/>
<path clip-path="url(#clip270)" d="M337.8 1767.34 Q334.189 1767.34 332.36 1770.9 Q330.555 1774.45 330.555 1781.58 Q330.555 1788.68 332.36 1792.25 Q334.189 1795.79 337.8 1795.79 Q341.434 1795.79 343.24 1792.25 Q345.069 1788.68 345.069 1781.58 Q345.069 1774.45 343.24 1770.9 Q341.434 1767.34 337.8 1767.34 M337.8 1763.64 Q343.61 1763.64 346.666 1768.24 Q349.744 1772.83 349.744 1781.58 Q349.744 1790.3 346.666 1794.91 Q343.61 1799.49 337.8 1799.49 Q331.99 1799.49 328.911 1794.91 Q325.856 1790.3 325.856 1781.58 Q325.856 1772.83 328.911 1768.24 Q331.99 1763.64 337.8 1763.64 Z" fill="#000000" fill-rule="nonzero" fill-opacity="1" /><path clip-path="url(#clip270)" d="M849.423 1794.89 L865.743 1794.89 L865.743 1798.82 L843.798 1798.82 L843.798 1794.89 Q846.46 1792.13 851.044 1787.5 Q855.65 1782.85 856.831 1781.51 Q859.076 1778.98 859.956 1777.25 Q860.858 1775.49 860.858 1773.8 Q860.858 1771.04 858.914 1769.31 Q856.993 1767.57 853.891 1767.57 Q851.692 1767.57 849.238 1768.34 Q846.808 1769.1 844.03 1770.65 L844.03 1765.93 Q846.854 1764.79 849.307 1764.21 Q851.761 1763.64 853.798 1763.64 Q859.169 1763.64 862.363 1766.32 Q865.557 1769.01 865.557 1773.5 Q865.557 1775.63 864.747 1777.55 Q863.96 1779.45 861.854 1782.04 Q861.275 1782.71 858.173 1785.93 Q855.071 1789.12 849.423 1794.89 Z" fill="#000000" fill-rule="nonzero" fill-opacity="1" /><path clip-path="url(#clip270)" d="M875.604 1764.26 L893.96 1764.26 L893.96 1768.2 L879.886 1768.2 L879.886 1776.67 Q880.905 1776.32 881.923 1776.16 Q882.942 1775.97 883.96 1775.97 Q889.747 1775.97 893.127 1779.15 Q896.506 1782.32 896.506 1787.73 Q896.506 1793.31 893.034 1796.41 Q889.562 1799.49 883.242 1799.49 Q881.067 1799.49 878.798 1799.12 Q876.553 1798.75 874.145 1798.01 L874.145 1793.31 Q876.229 1794.45 878.451 1795 Q880.673 1795.56 883.15 1795.56 Q887.155 1795.56 889.492 1793.45 Q891.83 1791.34 891.83 1787.73 Q891.83 1784.12 889.492 1782.02 Q887.155 1779.91 883.15 1779.91 Q881.275 1779.91 879.4 1780.33 Q877.548 1780.74 875.604 1781.62 L875.604 1764.26 Z" fill="#000000" fill-rule="nonzero" fill-opacity="1" /><path clip-path="url(#clip270)" d="M1377.2 1764.26 L1395.56 1764.26 L1395.56 1768.2 L1381.49 1768.2 L1381.49 1776.67 Q1382.5 1776.32 1383.52 1776.16 Q1384.54 1775.97 1385.56 1775.97 Q1391.35 1775.97 1394.73 1779.15 Q1398.11 1782.32 1398.11 1787.73 Q1398.11 1793.31 1394.63 1796.41 Q1391.16 1799.49 1384.84 1799.49 Q1382.67 1799.49 1380.4 1799.12 Q1378.15 1798.75 1375.75 1798.01 L1375.75 1793.31 Q1377.83 1794.45 1380.05 1795 Q1382.27 1795.56 1384.75 1795.56 Q1388.75 1795.56 1391.09 1793.45 Q1393.43 1791.34 1393.43 1787.73 Q1393.43 1784.12 1391.09 1782.02 Q1388.75 1779.91 1384.75 1779.91 Q1382.88 1779.91 1381 1780.33 Q1379.15 1780.74 1377.2 1781.62 L1377.2 1764.26 Z" fill="#000000" fill-rule="nonzero" fill-opacity="1" /><path clip-path="url(#clip270)" d="M1417.32 1767.34 Q1413.71 1767.34 1411.88 1770.9 Q1410.07 1774.45 1410.07 1781.58 Q1410.07 1788.68 1411.88 1792.25 Q1413.71 1795.79 1417.32 1795.79 Q1420.95 1795.79 1422.76 1792.25 Q1424.59 1788.68 1424.59 1781.58 Q1424.59 1774.45 1422.76 1770.9 Q1420.95 1767.34 1417.32 1767.34 M1417.32 1763.64 Q1423.13 1763.64 1426.18 1768.24 Q1429.26 1772.83 1429.26 1781.58 Q1429.26 1790.3 1426.18 1794.91 Q1423.13 1799.49 1417.32 1799.49 Q1411.51 1799.49 1408.43 1794.91 Q1405.37 1790.3 1405.37 1781.58 Q1405.37 1772.83 1408.43 1768.24 Q1411.51 1763.64 1417.32 1763.64 Z" fill="#000000" fill-rule="nonzero" fill-opacity="1" /><path clip-path="url(#clip270)" d="M1908.71 1764.26 L1930.93 1764.26 L1930.93 1766.25 L1918.39 1798.82 L1913.5 1798.82 L1925.31 1768.2 L1908.71 1768.2 L1908.71 1764.26 Z" fill="#000000" fill-rule="nonzero" fill-opacity="1" /><path clip-path="url(#clip270)" d="M1940.1 1764.26 L1958.46 1764.26 L1958.46 1768.2 L1944.38 1768.2 L1944.38 1776.67 Q1945.4 1776.32 1946.42 1776.16 Q1947.44 1775.97 1948.46 1775.97 Q1954.24 1775.97 1957.62 1779.15 Q1961 1782.32 1961 1787.73 Q1961 1793.31 1957.53 1796.41 Q1954.06 1799.49 1947.74 1799.49 Q1945.56 1799.49 1943.29 1799.12 Q1941.05 1798.75 1938.64 1798.01 L1938.64 1793.31 Q1940.72 1794.45 1942.95 1795 Q1945.17 1795.56 1947.65 1795.56 Q1951.65 1795.56 1953.99 1793.45 Q1956.33 1791.34 1956.33 1787.73 Q1956.33 1784.12 1953.99 1782.02 Q1951.65 1779.91 1947.65 1779.91 Q1945.77 1779.91 1943.9 1780.33 Q1942.04 1780.74 1940.1 1781.62 L1940.1 1764.26 Z" fill="#000000" fill-rule="nonzero" fill-opacity="1" /><path clip-path="url(#clip270)" d="M2426.82 1794.89 L2434.45 1794.89 L2434.45 1768.52 L2426.14 1770.19 L2426.14 1765.93 L2434.41 1764.26 L2439.08 1764.26 L2439.08 1794.89 L2446.72 1794.89 L2446.72 1798.82 L2426.82 1798.82 L2426.82 1794.89 Z" fill="#000000" fill-rule="nonzero" fill-opacity="1" /><path clip-path="url(#clip270)" d="M2466.17 1767.34 Q2462.56 1767.34 2460.73 1770.9 Q2458.92 1774.45 2458.92 1781.58 Q2458.92 1788.68 2460.73 1792.25 Q2462.56 1795.79 2466.17 1795.79 Q2469.8 1795.79 2471.61 1792.25 Q2473.44 1788.68 2473.44 1781.58 Q2473.44 1774.45 2471.61 1770.9 Q2469.8 1767.34 2466.17 1767.34 M2466.17 1763.64 Q2471.98 1763.64 2475.03 1768.24 Q2478.11 1772.83 2478.11 1781.58 Q2478.11 1790.3 2475.03 1794.91 Q2471.98 1799.49 2466.17 1799.49 Q2460.36 1799.49 2457.28 1794.91 Q2454.22 1790.3 2454.22 1781.58 Q2454.22 1772.83 2457.28 1768.24 Q2460.36 1763.64 2466.17 1763.64 Z" fill="#000000" fill-rule="nonzero" fill-opacity="1" /><path clip-path="url(#clip270)" d="M2496.33 1767.34 Q2492.72 1767.34 2490.89 1770.9 Q2489.08 1774.45 2489.08 1781.58 Q2489.08 1788.68 2490.89 1792.25 Q2492.72 1795.79 2496.33 1795.79 Q2499.96 1795.79 2501.77 1792.25 Q2503.6 1788.68 2503.6 1781.58 Q2503.6 1774.45 2501.77 1770.9 Q2499.96 1767.34 2496.33 1767.34 M2496.33 1763.64 Q2502.14 1763.64 2505.19 1768.24 Q2508.27 1772.83 2508.27 1781.58 Q2508.27 1790.3 2505.19 1794.91 Q2502.14 1799.49 2496.33 1799.49 Q2490.52 1799.49 2487.44 1794.91 Q2484.38 1790.3 2484.38 1781.58 Q2484.38 1772.83 2487.44 1768.24 Q2490.52 1763.64 2496.33 1763.64 Z" fill="#000000" fill-rule="nonzero" fill-opacity="1" /><path clip-path="url(#clip270)" d="M1377.62 1835.78 L1417.82 1835.78 L1417.82 1841.19 L1400.95 1841.19 L1400.95 1883.3 L1394.49 1883.3 L1394.49 1841.19 L1377.62 1841.19 L1377.62 1835.78 Z" fill="#000000" fill-rule="nonzero" fill-opacity="1" /><path clip-path="url(#clip270)" d="M1421.76 1847.65 L1427.62 1847.65 L1427.62 1883.3 L1421.76 1883.3 L1421.76 1847.65 M1421.76 1833.78 L1427.62 1833.78 L1427.62 1841.19 L1421.76 1841.19 L1421.76 1833.78 Z" fill="#000000" fill-rule="nonzero" fill-opacity="1" /><path clip-path="url(#clip270)" d="M1467.63 1854.5 Q1469.82 1850.55 1472.88 1848.67 Q1475.93 1846.79 1480.07 1846.79 Q1485.64 1846.79 1488.67 1850.71 Q1491.69 1854.59 1491.69 1861.78 L1491.69 1883.3 L1485.8 1883.3 L1485.8 1861.98 Q1485.8 1856.85 1483.99 1854.37 Q1482.17 1851.89 1478.45 1851.89 Q1473.9 1851.89 1471.26 1854.91 Q1468.61 1857.93 1468.61 1863.15 L1468.61 1883.3 L1462.73 1883.3 L1462.73 1861.98 Q1462.73 1856.82 1460.91 1854.37 Q1459.1 1851.89 1455.31 1851.89 Q1450.82 1851.89 1448.18 1854.94 Q1445.54 1857.97 1445.54 1863.15 L1445.54 1883.3 L1439.65 1883.3 L1439.65 1847.65 L1445.54 1847.65 L1445.54 1853.19 Q1447.54 1849.91 1450.34 1848.35 Q1453.15 1846.79 1457 1846.79 Q1460.88 1846.79 1463.59 1848.77 Q1466.32 1850.74 1467.63 1854.5 Z" fill="#000000" fill-rule="nonzero" fill-opacity="1" /><path clip-path="url(#clip270)" d="M1533.86 1864.01 L1533.86 1866.88 L1506.94 1866.88 Q1507.32 1872.92 1510.56 1876.11 Q1513.84 1879.26 1519.67 1879.26 Q1523.04 1879.26 1526.19 1878.43 Q1529.38 1877.6 1532.49 1875.95 L1532.49 1881.49 Q1529.34 1882.82 1526.03 1883.52 Q1522.72 1884.22 1519.32 1884.22 Q1510.79 1884.22 1505.79 1879.26 Q1500.82 1874.29 1500.82 1865.83 Q1500.82 1857.07 1505.54 1851.95 Q1510.28 1846.79 1518.3 1846.79 Q1525.49 1846.79 1529.66 1851.44 Q1533.86 1856.06 1533.86 1864.01 M1528.01 1862.29 Q1527.94 1857.49 1525.3 1854.62 Q1522.69 1851.76 1518.36 1851.76 Q1513.46 1851.76 1510.5 1854.53 Q1507.57 1857.3 1507.13 1862.33 L1528.01 1862.29 Z" fill="#000000" fill-rule="nonzero" fill-opacity="1" /><polyline clip-path="url(#clip270)" style="stroke:#000000; stroke-linecap:round; stroke-linejoin:round; stroke-width:4; stroke-opacity:1; fill:none" points="270.724,1734.12 270.724,127.792 "/>
<polyline clip-path="url(#clip270)" style="stroke:#000000; stroke-linecap:round; stroke-linejoin:round; stroke-width:4; stroke-opacity:1; fill:none" points="270.724,1443.01 289.621,1443.01 "/>
<polyline clip-path="url(#clip270)" style="stroke:#000000; stroke-linecap:round; stroke-linejoin:round; stroke-width:4; stroke-opacity:1; fill:none" points="270.724,1108.48 289.621,1108.48 "/>
<polyline clip-path="url(#clip270)" style="stroke:#000000; stroke-linecap:round; stroke-linejoin:round; stroke-width:4; stroke-opacity:1; fill:none" points="270.724,773.958 289.621,773.958 "/>
<polyline clip-path="url(#clip270)" style="stroke:#000000; stroke-linecap:round; stroke-linejoin:round; stroke-width:4; stroke-opacity:1; fill:none" points="270.724,439.432 289.621,439.432 "/>
<path clip-path="url(#clip270)" d="M118.02 1425.73 L136.376 1425.73 L136.376 1429.66 L122.302 1429.66 L122.302 1438.14 Q123.321 1437.79 124.339 1437.63 Q125.358 1437.44 126.376 1437.44 Q132.163 1437.44 135.543 1440.61 Q138.923 1443.78 138.923 1449.2 Q138.923 1454.78 135.45 1457.88 Q131.978 1460.96 125.659 1460.96 Q123.483 1460.96 121.214 1460.59 Q118.969 1460.22 116.562 1459.48 L116.562 1454.78 Q118.645 1455.91 120.867 1456.47 Q123.089 1457.02 125.566 1457.02 Q129.571 1457.02 131.909 1454.92 Q134.247 1452.81 134.247 1449.2 Q134.247 1445.59 131.909 1443.48 Q129.571 1441.38 125.566 1441.38 Q123.691 1441.38 121.816 1441.79 Q119.964 1442.21 118.02 1443.09 L118.02 1425.73 Z" fill="#000000" fill-rule="nonzero" fill-opacity="1" /><path clip-path="url(#clip270)" d="M158.136 1428.81 Q154.524 1428.81 152.696 1432.37 Q150.89 1435.91 150.89 1443.04 Q150.89 1450.15 152.696 1453.71 Q154.524 1457.26 158.136 1457.26 Q161.77 1457.26 163.575 1453.71 Q165.404 1450.15 165.404 1443.04 Q165.404 1435.91 163.575 1432.37 Q161.77 1428.81 158.136 1428.81 M158.136 1425.1 Q163.946 1425.1 167.001 1429.71 Q170.08 1434.29 170.08 1443.04 Q170.08 1451.77 167.001 1456.38 Q163.946 1460.96 158.136 1460.96 Q152.325 1460.96 149.247 1456.38 Q146.191 1451.77 146.191 1443.04 Q146.191 1434.29 149.247 1429.71 Q152.325 1425.1 158.136 1425.1 Z" fill="#000000" fill-rule="nonzero" fill-opacity="1" /><path clip-path="url(#clip270)" d="M188.297 1428.81 Q184.686 1428.81 182.858 1432.37 Q181.052 1435.91 181.052 1443.04 Q181.052 1450.15 182.858 1453.71 Q184.686 1457.26 188.297 1457.26 Q191.932 1457.26 193.737 1453.71 Q195.566 1450.15 195.566 1443.04 Q195.566 1435.91 193.737 1432.37 Q191.932 1428.81 188.297 1428.81 M188.297 1425.1 Q194.108 1425.1 197.163 1429.71 Q200.242 1434.29 200.242 1443.04 Q200.242 1451.77 197.163 1456.38 Q194.108 1460.96 188.297 1460.96 Q182.487 1460.96 179.409 1456.38 Q176.353 1451.77 176.353 1443.04 Q176.353 1434.29 179.409 1429.71 Q182.487 1425.1 188.297 1425.1 Z" fill="#000000" fill-rule="nonzero" fill-opacity="1" /><path clip-path="url(#clip270)" d="M218.459 1428.81 Q214.848 1428.81 213.019 1432.37 Q211.214 1435.91 211.214 1443.04 Q211.214 1450.15 213.019 1453.71 Q214.848 1457.26 218.459 1457.26 Q222.094 1457.26 223.899 1453.71 Q225.728 1450.15 225.728 1443.04 Q225.728 1435.91 223.899 1432.37 Q222.094 1428.81 218.459 1428.81 M218.459 1425.1 Q224.269 1425.1 227.325 1429.71 Q230.404 1434.29 230.404 1443.04 Q230.404 1451.77 227.325 1456.38 Q224.269 1460.96 218.459 1460.96 Q212.649 1460.96 209.57 1456.38 Q206.515 1451.77 206.515 1443.04 Q206.515 1434.29 209.57 1429.71 Q212.649 1425.1 218.459 1425.1 Z" fill="#000000" fill-rule="nonzero" fill-opacity="1" /><path clip-path="url(#clip270)" d="M118.02 1091.2 L136.376 1091.2 L136.376 1095.14 L122.302 1095.14 L122.302 1103.61 Q123.321 1103.26 124.339 1103.1 Q125.358 1102.92 126.376 1102.92 Q132.163 1102.92 135.543 1106.09 Q138.923 1109.26 138.923 1114.68 Q138.923 1120.25 135.45 1123.36 Q131.978 1126.43 125.659 1126.43 Q123.483 1126.43 121.214 1126.06 Q118.969 1125.69 116.562 1124.95 L116.562 1120.25 Q118.645 1121.39 120.867 1121.94 Q123.089 1122.5 125.566 1122.5 Q129.571 1122.5 131.909 1120.39 Q134.247 1118.29 134.247 1114.68 Q134.247 1111.06 131.909 1108.96 Q129.571 1106.85 125.566 1106.85 Q123.691 1106.85 121.816 1107.27 Q119.964 1107.68 118.02 1108.56 L118.02 1091.2 Z" fill="#000000" fill-rule="nonzero" fill-opacity="1" /><path clip-path="url(#clip270)" d="M148.182 1091.2 L166.538 1091.2 L166.538 1095.14 L152.464 1095.14 L152.464 1103.61 Q153.483 1103.26 154.501 1103.1 Q155.52 1102.92 156.538 1102.92 Q162.325 1102.92 165.705 1106.09 Q169.085 1109.26 169.085 1114.68 Q169.085 1120.25 165.612 1123.36 Q162.14 1126.43 155.821 1126.43 Q153.645 1126.43 151.376 1126.06 Q149.131 1125.69 146.724 1124.95 L146.724 1120.25 Q148.807 1121.39 151.029 1121.94 Q153.251 1122.5 155.728 1122.5 Q159.733 1122.5 162.071 1120.39 Q164.409 1118.29 164.409 1114.68 Q164.409 1111.06 162.071 1108.96 Q159.733 1106.85 155.728 1106.85 Q153.853 1106.85 151.978 1107.27 Q150.126 1107.68 148.182 1108.56 L148.182 1091.2 Z" fill="#000000" fill-rule="nonzero" fill-opacity="1" /><path clip-path="url(#clip270)" d="M188.297 1094.28 Q184.686 1094.28 182.858 1097.85 Q181.052 1101.39 181.052 1108.52 Q181.052 1115.62 182.858 1119.19 Q184.686 1122.73 188.297 1122.73 Q191.932 1122.73 193.737 1119.19 Q195.566 1115.62 195.566 1108.52 Q195.566 1101.39 193.737 1097.85 Q191.932 1094.28 188.297 1094.28 M188.297 1090.58 Q194.108 1090.58 197.163 1095.18 Q200.242 1099.77 200.242 1108.52 Q200.242 1117.24 197.163 1121.85 Q194.108 1126.43 188.297 1126.43 Q182.487 1126.43 179.409 1121.85 Q176.353 1117.24 176.353 1108.52 Q176.353 1099.77 179.409 1095.18 Q182.487 1090.58 188.297 1090.58 Z" fill="#000000" fill-rule="nonzero" fill-opacity="1" /><path clip-path="url(#clip270)" d="M218.459 1094.28 Q214.848 1094.28 213.019 1097.85 Q211.214 1101.39 211.214 1108.52 Q211.214 1115.62 213.019 1119.19 Q214.848 1122.73 218.459 1122.73 Q222.094 1122.73 223.899 1119.19 Q225.728 1115.62 225.728 1108.52 Q225.728 1101.39 223.899 1097.85 Q222.094 1094.28 218.459 1094.28 M218.459 1090.58 Q224.269 1090.58 227.325 1095.18 Q230.404 1099.77 230.404 1108.52 Q230.404 1117.24 227.325 1121.85 Q224.269 1126.43 218.459 1126.43 Q212.649 1126.43 209.57 1121.85 Q206.515 1117.24 206.515 1108.52 Q206.515 1099.77 209.57 1095.18 Q212.649 1090.58 218.459 1090.58 Z" fill="#000000" fill-rule="nonzero" fill-opacity="1" /><path clip-path="url(#clip270)" d="M128.552 772.094 Q125.404 772.094 123.552 774.247 Q121.724 776.4 121.724 780.15 Q121.724 783.877 123.552 786.053 Q125.404 788.205 128.552 788.205 Q131.7 788.205 133.529 786.053 Q135.381 783.877 135.381 780.15 Q135.381 776.4 133.529 774.247 Q131.7 772.094 128.552 772.094 M137.835 757.442 L137.835 761.701 Q136.075 760.868 134.27 760.428 Q132.488 759.988 130.728 759.988 Q126.099 759.988 123.645 763.113 Q121.214 766.238 120.867 772.557 Q122.233 770.543 124.293 769.479 Q126.353 768.391 128.83 768.391 Q134.038 768.391 137.048 771.562 Q140.08 774.71 140.08 780.15 Q140.08 785.474 136.932 788.691 Q133.784 791.909 128.552 791.909 Q122.557 791.909 119.386 787.326 Q116.214 782.719 116.214 773.992 Q116.214 765.798 120.103 760.937 Q123.992 756.053 130.543 756.053 Q132.302 756.053 134.085 756.4 Q135.89 756.747 137.835 757.442 Z" fill="#000000" fill-rule="nonzero" fill-opacity="1" /><path clip-path="url(#clip270)" d="M158.136 759.756 Q154.524 759.756 152.696 763.321 Q150.89 766.863 150.89 773.992 Q150.89 781.099 152.696 784.664 Q154.524 788.205 158.136 788.205 Q161.77 788.205 163.575 784.664 Q165.404 781.099 165.404 773.992 Q165.404 766.863 163.575 763.321 Q161.77 759.756 158.136 759.756 M158.136 756.053 Q163.946 756.053 167.001 760.659 Q170.08 765.243 170.08 773.992 Q170.08 782.719 167.001 787.326 Q163.946 791.909 158.136 791.909 Q152.325 791.909 149.247 787.326 Q146.191 782.719 146.191 773.992 Q146.191 765.243 149.247 760.659 Q152.325 756.053 158.136 756.053 Z" fill="#000000" fill-rule="nonzero" fill-opacity="1" /><path clip-path="url(#clip270)" d="M188.297 759.756 Q184.686 759.756 182.858 763.321 Q181.052 766.863 181.052 773.992 Q181.052 781.099 182.858 784.664 Q184.686 788.205 188.297 788.205 Q191.932 788.205 193.737 784.664 Q195.566 781.099 195.566 773.992 Q195.566 766.863 193.737 763.321 Q191.932 759.756 188.297 759.756 M188.297 756.053 Q194.108 756.053 197.163 760.659 Q200.242 765.243 200.242 773.992 Q200.242 782.719 197.163 787.326 Q194.108 791.909 188.297 791.909 Q182.487 791.909 179.409 787.326 Q176.353 782.719 176.353 773.992 Q176.353 765.243 179.409 760.659 Q182.487 756.053 188.297 756.053 Z" fill="#000000" fill-rule="nonzero" fill-opacity="1" /><path clip-path="url(#clip270)" d="M218.459 759.756 Q214.848 759.756 213.019 763.321 Q211.214 766.863 211.214 773.992 Q211.214 781.099 213.019 784.664 Q214.848 788.205 218.459 788.205 Q222.094 788.205 223.899 784.664 Q225.728 781.099 225.728 773.992 Q225.728 766.863 223.899 763.321 Q222.094 759.756 218.459 759.756 M218.459 756.053 Q224.269 756.053 227.325 760.659 Q230.404 765.243 230.404 773.992 Q230.404 782.719 227.325 787.326 Q224.269 791.909 218.459 791.909 Q212.649 791.909 209.57 787.326 Q206.515 782.719 206.515 773.992 Q206.515 765.243 209.57 760.659 Q212.649 756.053 218.459 756.053 Z" fill="#000000" fill-rule="nonzero" fill-opacity="1" /><path clip-path="url(#clip270)" d="M128.552 437.569 Q125.404 437.569 123.552 439.722 Q121.724 441.874 121.724 445.624 Q121.724 449.351 123.552 451.527 Q125.404 453.68 128.552 453.68 Q131.7 453.68 133.529 451.527 Q135.381 449.351 135.381 445.624 Q135.381 441.874 133.529 439.722 Q131.7 437.569 128.552 437.569 M137.835 422.916 L137.835 427.175 Q136.075 426.342 134.27 425.902 Q132.488 425.462 130.728 425.462 Q126.099 425.462 123.645 428.587 Q121.214 431.712 120.867 438.032 Q122.233 436.018 124.293 434.953 Q126.353 433.865 128.83 433.865 Q134.038 433.865 137.048 437.036 Q140.08 440.184 140.08 445.624 Q140.08 450.948 136.932 454.166 Q133.784 457.383 128.552 457.383 Q122.557 457.383 119.386 452.8 Q116.214 448.194 116.214 439.467 Q116.214 431.272 120.103 426.411 Q123.992 421.527 130.543 421.527 Q132.302 421.527 134.085 421.874 Q135.89 422.222 137.835 422.916 Z" fill="#000000" fill-rule="nonzero" fill-opacity="1" /><path clip-path="url(#clip270)" d="M148.182 422.152 L166.538 422.152 L166.538 426.087 L152.464 426.087 L152.464 434.56 Q153.483 434.212 154.501 434.05 Q155.52 433.865 156.538 433.865 Q162.325 433.865 165.705 437.036 Q169.085 440.208 169.085 445.624 Q169.085 451.203 165.612 454.305 Q162.14 457.383 155.821 457.383 Q153.645 457.383 151.376 457.013 Q149.131 456.643 146.724 455.902 L146.724 451.203 Q148.807 452.337 151.029 452.893 Q153.251 453.448 155.728 453.448 Q159.733 453.448 162.071 451.342 Q164.409 449.235 164.409 445.624 Q164.409 442.013 162.071 439.907 Q159.733 437.8 155.728 437.8 Q153.853 437.8 151.978 438.217 Q150.126 438.634 148.182 439.513 L148.182 422.152 Z" fill="#000000" fill-rule="nonzero" fill-opacity="1" /><path clip-path="url(#clip270)" d="M188.297 425.231 Q184.686 425.231 182.858 428.796 Q181.052 432.337 181.052 439.467 Q181.052 446.573 182.858 450.138 Q184.686 453.68 188.297 453.68 Q191.932 453.68 193.737 450.138 Q195.566 446.573 195.566 439.467 Q195.566 432.337 193.737 428.796 Q191.932 425.231 188.297 425.231 M188.297 421.527 Q194.108 421.527 197.163 426.134 Q200.242 430.717 200.242 439.467 Q200.242 448.194 197.163 452.8 Q194.108 457.383 188.297 457.383 Q182.487 457.383 179.409 452.8 Q176.353 448.194 176.353 439.467 Q176.353 430.717 179.409 426.134 Q182.487 421.527 188.297 421.527 Z" fill="#000000" fill-rule="nonzero" fill-opacity="1" /><path clip-path="url(#clip270)" d="M218.459 425.231 Q214.848 425.231 213.019 428.796 Q211.214 432.337 211.214 439.467 Q211.214 446.573 213.019 450.138 Q214.848 453.68 218.459 453.68 Q222.094 453.68 223.899 450.138 Q225.728 446.573 225.728 439.467 Q225.728 432.337 223.899 428.796 Q222.094 425.231 218.459 425.231 M218.459 421.527 Q224.269 421.527 227.325 426.134 Q230.404 430.717 230.404 439.467 Q230.404 448.194 227.325 452.8 Q224.269 457.383 218.459 457.383 Q212.649 457.383 209.57 452.8 Q206.515 448.194 206.515 439.467 Q206.515 430.717 209.57 426.134 Q212.649 421.527 218.459 421.527 Z" fill="#000000" fill-rule="nonzero" fill-opacity="1" /><path clip-path="url(#clip270)" d="M17.7787 1240.03 L24.5582 1240.03 Q21.5345 1243.27 20.0386 1246.96 Q18.5426 1250.62 18.5426 1254.76 Q18.5426 1262.91 23.5397 1267.24 Q28.5049 1271.57 37.9262 1271.57 Q47.3156 1271.57 52.3127 1267.24 Q57.2779 1262.91 57.2779 1254.76 Q57.2779 1250.62 55.782 1246.96 Q54.2861 1243.27 51.2623 1240.03 L57.9782 1240.03 Q60.2698 1243.4 61.4156 1247.19 Q62.5615 1250.94 62.5615 1255.14 Q62.5615 1265.93 55.973 1272.14 Q49.3526 1278.35 37.9262 1278.35 Q26.4679 1278.35 19.8794 1272.14 Q13.2591 1265.93 13.2591 1255.14 Q13.2591 1250.88 14.4049 1247.12 Q15.5189 1243.34 17.7787 1240.03 Z" fill="#000000" fill-rule="nonzero" fill-opacity="1" /><path clip-path="url(#clip270)" d="M30.0964 1216.54 Q30.0964 1221.25 33.7885 1223.98 Q37.4488 1226.72 43.8463 1226.72 Q50.2438 1226.72 53.9359 1224.02 Q57.5962 1221.28 57.5962 1216.54 Q57.5962 1211.86 53.9041 1209.12 Q50.212 1206.38 43.8463 1206.38 Q37.5124 1206.38 33.8203 1209.12 Q30.0964 1211.86 30.0964 1216.54 M25.1311 1216.54 Q25.1311 1208.9 30.0964 1204.54 Q35.0616 1200.18 43.8463 1200.18 Q52.5991 1200.18 57.5962 1204.54 Q62.5615 1208.9 62.5615 1216.54 Q62.5615 1224.21 57.5962 1228.57 Q52.5991 1232.9 43.8463 1232.9 Q35.0616 1232.9 30.0964 1228.57 Q25.1311 1224.21 25.1311 1216.54 Z" fill="#000000" fill-rule="nonzero" fill-opacity="1" /><path clip-path="url(#clip270)" d="M47.5702 1191.07 L25.9905 1191.07 L25.9905 1185.22 L47.3474 1185.22 Q52.4082 1185.22 54.9545 1183.24 Q57.4689 1181.27 57.4689 1177.32 Q57.4689 1172.58 54.4452 1169.84 Q51.4215 1167.07 46.2016 1167.07 L25.9905 1167.07 L25.9905 1161.22 L61.6384 1161.22 L61.6384 1167.07 L56.1639 1167.07 Q59.4104 1169.21 61.0019 1172.04 Q62.5615 1174.84 62.5615 1178.56 Q62.5615 1184.71 58.742 1187.89 Q54.9226 1191.07 47.5702 1191.07 M25.1311 1176.34 L25.1311 1176.34 Z" fill="#000000" fill-rule="nonzero" fill-opacity="1" /><path clip-path="url(#clip270)" d="M40.1224 1119.52 L61.6384 1119.52 L61.6384 1125.38 L40.3133 1125.38 Q35.2526 1125.38 32.7381 1127.35 Q30.2237 1129.33 30.2237 1133.27 Q30.2237 1138.02 33.2474 1140.75 Q36.2711 1143.49 41.491 1143.49 L61.6384 1143.49 L61.6384 1149.38 L25.9905 1149.38 L25.9905 1143.49 L31.5287 1143.49 Q28.314 1141.39 26.7225 1138.56 Q25.1311 1135.69 25.1311 1131.97 Q25.1311 1125.82 28.9505 1122.67 Q32.7381 1119.52 40.1224 1119.52 Z" fill="#000000" fill-rule="nonzero" fill-opacity="1" /><path clip-path="url(#clip270)" d="M15.869 1102.05 L25.9905 1102.05 L25.9905 1089.99 L30.542 1089.99 L30.542 1102.05 L49.8937 1102.05 Q54.2542 1102.05 55.4955 1100.87 Q56.7368 1099.66 56.7368 1096 L56.7368 1089.99 L61.6384 1089.99 L61.6384 1096 Q61.6384 1102.78 59.124 1105.36 Q56.5777 1107.94 49.8937 1107.94 L30.542 1107.94 L30.542 1112.23 L25.9905 1112.23 L25.9905 1107.94 L15.869 1107.94 L15.869 1102.05 Z" fill="#000000" fill-rule="nonzero" fill-opacity="1" /><path clip-path="url(#clip270)" d="M30.0964 1047.75 Q30.0964 1052.46 33.7885 1055.2 Q37.4488 1057.93 43.8463 1057.93 Q50.2438 1057.93 53.9359 1055.23 Q57.5962 1052.49 57.5962 1047.75 Q57.5962 1043.07 53.9041 1040.33 Q50.212 1037.6 43.8463 1037.6 Q37.5124 1037.6 33.8203 1040.33 Q30.0964 1043.07 30.0964 1047.75 M25.1311 1047.75 Q25.1311 1040.11 30.0964 1035.75 Q35.0616 1031.39 43.8463 1031.39 Q52.5991 1031.39 57.5962 1035.75 Q62.5615 1040.11 62.5615 1047.75 Q62.5615 1055.42 57.5962 1059.78 Q52.5991 1064.11 43.8463 1064.11 Q35.0616 1064.11 30.0964 1059.78 Q25.1311 1055.42 25.1311 1047.75 Z" fill="#000000" fill-rule="nonzero" fill-opacity="1" /><path clip-path="url(#clip270)" d="M12.1132 1003.64 L16.983 1003.64 L16.983 1009.24 Q16.983 1012.39 18.2562 1013.63 Q19.5293 1014.84 22.8395 1014.84 L25.9905 1014.84 L25.9905 1005.19 L30.542 1005.19 L30.542 1014.84 L61.6384 1014.84 L61.6384 1020.73 L30.542 1020.73 L30.542 1026.33 L25.9905 1026.33 L25.9905 1020.73 L23.5079 1020.73 Q17.5559 1020.73 14.8505 1017.96 Q12.1132 1015.19 12.1132 1009.17 L12.1132 1003.64 Z" fill="#000000" fill-rule="nonzero" fill-opacity="1" /><path clip-path="url(#clip270)" d="M27.0408 955.287 L32.579 955.287 Q31.3059 957.77 30.6693 960.444 Q30.0327 963.117 30.0327 965.982 Q30.0327 970.342 31.3695 972.539 Q32.7063 974.703 35.3799 974.703 Q37.4169 974.703 38.5946 973.143 Q39.7404 971.584 40.7908 966.873 L41.2364 964.868 Q42.5732 958.629 45.0239 956.02 Q47.4429 953.378 51.8034 953.378 Q56.7687 953.378 59.6651 957.324 Q62.5615 961.239 62.5615 968.114 Q62.5615 970.979 61.9886 974.098 Q61.4475 977.186 60.3335 980.623 L54.2861 980.623 Q55.973 977.376 56.8323 974.225 Q57.6599 971.074 57.6599 967.987 Q57.6599 963.849 56.2594 961.621 Q54.8271 959.393 52.249 959.393 Q49.8619 959.393 48.5887 961.017 Q47.3156 962.608 46.1379 968.051 L45.6605 970.088 Q44.5147 975.53 42.1594 977.949 Q39.7722 980.368 35.6345 980.368 Q30.6056 980.368 27.8684 976.804 Q25.1311 973.239 25.1311 966.682 Q25.1311 963.436 25.6085 960.571 Q26.086 957.706 27.0408 955.287 Z" fill="#000000" fill-rule="nonzero" fill-opacity="1" /><path clip-path="url(#clip270)" d="M47.5702 944.657 L25.9905 944.657 L25.9905 938.8 L47.3474 938.8 Q52.4082 938.8 54.9545 936.827 Q57.4689 934.854 57.4689 930.907 Q57.4689 926.164 54.4452 923.427 Q51.4215 920.658 46.2016 920.658 L25.9905 920.658 L25.9905 914.802 L61.6384 914.802 L61.6384 920.658 L56.1639 920.658 Q59.4104 922.791 61.0019 925.623 Q62.5615 928.424 62.5615 932.148 Q62.5615 938.291 58.742 941.474 Q54.9226 944.657 47.5702 944.657 M25.1311 929.92 L25.1311 929.92 Z" fill="#000000" fill-rule="nonzero" fill-opacity="1" /><path clip-path="url(#clip270)" d="M27.0408 880.013 L32.579 880.013 Q31.3059 882.496 30.6693 885.169 Q30.0327 887.843 30.0327 890.707 Q30.0327 895.068 31.3695 897.264 Q32.7063 899.428 35.3799 899.428 Q37.4169 899.428 38.5946 897.869 Q39.7404 896.309 40.7908 891.599 L41.2364 889.593 Q42.5732 883.355 45.0239 880.745 Q47.4429 878.103 51.8034 878.103 Q56.7687 878.103 59.6651 882.05 Q62.5615 885.965 62.5615 892.84 Q62.5615 895.704 61.9886 898.824 Q61.4475 901.911 60.3335 905.349 L54.2861 905.349 Q55.973 902.102 56.8323 898.951 Q57.6599 895.8 57.6599 892.713 Q57.6599 888.575 56.2594 886.347 Q54.8271 884.119 52.249 884.119 Q49.8619 884.119 48.5887 885.742 Q47.3156 887.334 46.1379 892.776 L45.6605 894.813 Q44.5147 900.256 42.1594 902.675 Q39.7722 905.094 35.6345 905.094 Q30.6056 905.094 27.8684 901.529 Q25.1311 897.964 25.1311 891.408 Q25.1311 888.161 25.6085 885.297 Q26.086 882.432 27.0408 880.013 Z" fill="#000000" fill-rule="nonzero" fill-opacity="1" /><path clip-path="url(#clip270)" d="M27.3591 843.124 L32.8336 843.124 Q31.465 845.606 30.7966 848.121 Q30.0964 850.603 30.0964 853.15 Q30.0964 858.847 33.7248 861.998 Q37.3214 865.149 43.8463 865.149 Q50.3711 865.149 53.9996 861.998 Q57.5962 858.847 57.5962 853.15 Q57.5962 850.603 56.9278 848.121 Q56.2276 845.606 54.859 843.124 L60.2698 843.124 Q61.4156 845.575 61.9886 848.216 Q62.5615 850.826 62.5615 853.786 Q62.5615 861.839 57.5007 866.581 Q52.44 871.324 43.8463 871.324 Q35.1253 871.324 30.1282 866.55 Q25.1311 861.743 25.1311 853.404 Q25.1311 850.699 25.704 848.121 Q26.2451 845.543 27.3591 843.124 Z" fill="#000000" fill-rule="nonzero" fill-opacity="1" /><path clip-path="url(#clip270)" d="M42.3504 802.447 L45.2149 802.447 L45.2149 829.374 Q51.2623 828.992 54.4452 825.745 Q57.5962 822.467 57.5962 816.642 Q57.5962 813.269 56.7687 810.118 Q55.9411 806.935 54.2861 803.815 L59.8242 803.815 Q61.161 806.967 61.8612 810.277 Q62.5615 813.587 62.5615 816.992 Q62.5615 825.523 57.5962 830.52 Q52.631 835.485 44.1646 835.485 Q35.4117 835.485 30.2873 830.774 Q25.1311 826.032 25.1311 818.011 Q25.1311 810.818 29.7781 806.648 Q34.3932 802.447 42.3504 802.447 M40.6316 808.303 Q35.8255 808.367 32.9609 811.009 Q30.0964 813.619 30.0964 817.947 Q30.0964 822.849 32.8654 825.809 Q35.6345 828.737 40.6634 829.183 L40.6316 808.303 Z" fill="#000000" fill-rule="nonzero" fill-opacity="1" /><path clip-path="url(#clip270)" d="M56.2912 787.169 L75.1974 787.169 L75.1974 793.057 L25.9905 793.057 L25.9905 787.169 L31.4013 787.169 Q28.2185 785.323 26.6907 782.522 Q25.1311 779.689 25.1311 775.775 Q25.1311 769.282 30.2873 765.239 Q35.4436 761.165 43.8463 761.165 Q52.249 761.165 57.4052 765.239 Q62.5615 769.282 62.5615 775.775 Q62.5615 779.689 61.0337 782.522 Q59.4741 785.323 56.2912 787.169 M43.8463 767.244 Q37.3851 767.244 33.7248 769.918 Q30.0327 772.56 30.0327 777.207 Q30.0327 781.854 33.7248 784.527 Q37.3851 787.169 43.8463 787.169 Q50.3075 787.169 53.9996 784.527 Q57.6599 781.854 57.6599 777.207 Q57.6599 772.56 53.9996 769.918 Q50.3075 767.244 43.8463 767.244 Z" fill="#000000" fill-rule="nonzero" fill-opacity="1" /><path clip-path="url(#clip270)" d="M15.869 745.665 L25.9905 745.665 L25.9905 733.602 L30.542 733.602 L30.542 745.665 L49.8937 745.665 Q54.2542 745.665 55.4955 744.487 Q56.7368 743.278 56.7368 739.617 L56.7368 733.602 L61.6384 733.602 L61.6384 739.617 Q61.6384 746.397 59.124 748.975 Q56.5777 751.553 49.8937 751.553 L30.542 751.553 L30.542 755.85 L25.9905 755.85 L25.9905 751.553 L15.869 751.553 L15.869 745.665 Z" fill="#000000" fill-rule="nonzero" fill-opacity="1" /><path clip-path="url(#clip270)" d="M25.9905 725.899 L25.9905 720.043 L61.6384 720.043 L61.6384 725.899 L25.9905 725.899 M12.1132 725.899 L12.1132 720.043 L19.5293 720.043 L19.5293 725.899 L12.1132 725.899 Z" fill="#000000" fill-rule="nonzero" fill-opacity="1" /><path clip-path="url(#clip270)" d="M43.8463 682.199 Q37.3851 682.199 33.7248 684.872 Q30.0327 687.514 30.0327 692.161 Q30.0327 696.808 33.7248 699.482 Q37.3851 702.123 43.8463 702.123 Q50.3075 702.123 53.9996 699.482 Q57.6599 696.808 57.6599 692.161 Q57.6599 687.514 53.9996 684.872 Q50.3075 682.199 43.8463 682.199 M31.4013 702.123 Q28.2185 700.277 26.6907 697.476 Q25.1311 694.644 25.1311 690.729 Q25.1311 684.236 30.2873 680.193 Q35.4436 676.119 43.8463 676.119 Q52.249 676.119 57.4052 680.193 Q62.5615 684.236 62.5615 690.729 Q62.5615 694.644 61.0337 697.476 Q59.4741 700.277 56.2912 702.123 L61.6384 702.123 L61.6384 708.012 L12.1132 708.012 L12.1132 702.123 L31.4013 702.123 Z" fill="#000000" fill-rule="nonzero" fill-opacity="1" /><path clip-path="url(#clip270)" d="M12.1132 666.412 L12.1132 660.555 L61.6384 660.555 L61.6384 666.412 L12.1132 666.412 Z" fill="#000000" fill-rule="nonzero" fill-opacity="1" /><path clip-path="url(#clip270)" d="M42.3504 617.81 L45.2149 617.81 L45.2149 644.736 Q51.2623 644.355 54.4452 641.108 Q57.5962 637.83 57.5962 632.005 Q57.5962 628.631 56.7687 625.48 Q55.9411 622.297 54.2861 619.178 L59.8242 619.178 Q61.161 622.329 61.8612 625.639 Q62.5615 628.95 62.5615 632.355 Q62.5615 640.885 57.5962 645.882 Q52.631 650.848 44.1646 650.848 Q35.4117 650.848 30.2873 646.137 Q25.1311 641.394 25.1311 633.374 Q25.1311 626.18 29.7781 622.011 Q34.3932 617.81 42.3504 617.81 M40.6316 623.666 Q35.8255 623.73 32.9609 626.371 Q30.0964 628.981 30.0964 633.31 Q30.0964 638.212 32.8654 641.172 Q35.6345 644.1 40.6634 644.546 L40.6316 623.666 Z" fill="#000000" fill-rule="nonzero" fill-opacity="1" /><path clip-path="url(#clip270)" d="M27.0408 585.472 L32.579 585.472 Q31.3059 587.954 30.6693 590.628 Q30.0327 593.302 30.0327 596.166 Q30.0327 600.527 31.3695 602.723 Q32.7063 604.887 35.3799 604.887 Q37.4169 604.887 38.5946 603.328 Q39.7404 601.768 40.7908 597.057 L41.2364 595.052 Q42.5732 588.814 45.0239 586.204 Q47.4429 583.562 51.8034 583.562 Q56.7687 583.562 59.6651 587.509 Q62.5615 591.424 62.5615 598.299 Q62.5615 601.163 61.9886 604.282 Q61.4475 607.37 60.3335 610.807 L54.2861 610.807 Q55.973 607.561 56.8323 604.41 Q57.6599 601.259 57.6599 598.171 Q57.6599 594.034 56.2594 591.806 Q54.8271 589.578 52.249 589.578 Q49.8619 589.578 48.5887 591.201 Q47.3156 592.792 46.1379 598.235 L45.6605 600.272 Q44.5147 605.715 42.1594 608.134 Q39.7722 610.553 35.6345 610.553 Q30.6056 610.553 27.8684 606.988 Q25.1311 603.423 25.1311 596.866 Q25.1311 593.62 25.6085 590.755 Q26.086 587.891 27.0408 585.472 Z" fill="#000000" fill-rule="nonzero" fill-opacity="1" /><path clip-path="url(#clip270)" d="M1306.87 14.0809 L1306.87 22.0612 Q1302.21 19.8332 1298.08 18.7395 Q1293.95 17.6457 1290.1 17.6457 Q1283.41 17.6457 1279.77 20.2383 Q1276.16 22.8309 1276.16 27.611 Q1276.16 31.6214 1278.55 33.6873 Q1280.98 35.7128 1287.71 36.9686 L1292.65 37.9813 Q1301.81 39.7232 1306.14 44.1387 Q1310.51 48.5136 1310.51 55.8863 Q1310.51 64.6767 1304.6 69.2137 Q1298.73 73.7508 1287.34 73.7508 Q1283.05 73.7508 1278.19 72.7785 Q1273.37 71.8063 1268.18 69.9024 L1268.18 61.4765 Q1273.17 64.2716 1277.95 65.6895 Q1282.73 67.1073 1287.34 67.1073 Q1294.35 67.1073 1298.16 64.3527 Q1301.97 61.598 1301.97 56.4939 Q1301.97 52.0379 1299.21 49.5264 Q1296.5 47.0148 1290.26 45.759 L1285.28 44.7868 Q1276.12 42.9639 1272.03 39.075 Q1267.94 35.1862 1267.94 28.2591 Q1267.94 20.2383 1273.57 15.6203 Q1279.24 11.0023 1289.17 11.0023 Q1293.42 11.0023 1297.84 11.7719 Q1302.25 12.5416 1306.87 14.0809 Z" fill="#000000" fill-rule="nonzero" fill-opacity="1" /><path clip-path="url(#clip270)" d="M1357.42 86.3491 L1357.42 92.1419 L1314.32 92.1419 L1314.32 86.3491 L1357.42 86.3491 Z" fill="#000000" fill-rule="nonzero" fill-opacity="1" /><path clip-path="url(#clip270)" d="M1371.81 14.324 L1371.81 27.2059 L1387.16 27.2059 L1387.16 32.9987 L1371.81 32.9987 L1371.81 57.6282 Q1371.81 63.1779 1373.3 64.7578 Q1374.84 66.3376 1379.5 66.3376 L1387.16 66.3376 L1387.16 72.576 L1379.5 72.576 Q1370.87 72.576 1367.59 69.3758 Q1364.31 66.1351 1364.31 57.6282 L1364.31 32.9987 L1358.84 32.9987 L1358.84 27.2059 L1364.31 27.2059 L1364.31 14.324 L1371.81 14.324 Z" fill="#000000" fill-rule="nonzero" fill-opacity="1" /><path clip-path="url(#clip270)" d="M1455.98 28.9478 L1455.98 35.9153 Q1452.82 34.1734 1449.62 33.3227 Q1446.46 32.4315 1443.22 32.4315 Q1435.97 32.4315 1431.96 37.0496 Q1427.95 41.6271 1427.95 49.9314 Q1427.95 58.2358 1431.96 62.8538 Q1435.97 67.4314 1443.22 67.4314 Q1446.46 67.4314 1449.62 66.5807 Q1452.82 65.6895 1455.98 63.9476 L1455.98 70.8341 Q1452.86 72.2924 1449.5 73.0216 Q1446.18 73.7508 1442.41 73.7508 Q1432.16 73.7508 1426.13 67.3098 Q1420.09 60.8689 1420.09 49.9314 Q1420.09 38.832 1426.17 32.472 Q1432.29 26.1121 1442.9 26.1121 Q1446.34 26.1121 1449.62 26.8413 Q1452.9 27.5299 1455.98 28.9478 Z" fill="#000000" fill-rule="nonzero" fill-opacity="1" /><path clip-path="url(#clip270)" d="M1468.18 54.671 L1468.18 27.2059 L1475.63 27.2059 L1475.63 54.3874 Q1475.63 60.8284 1478.14 64.0691 Q1480.65 67.2693 1485.68 67.2693 Q1491.71 67.2693 1495.2 63.421 Q1498.72 59.5726 1498.72 52.9291 L1498.72 27.2059 L1506.17 27.2059 L1506.17 72.576 L1498.72 72.576 L1498.72 65.6084 Q1496.01 69.7404 1492.4 71.7658 Q1488.84 73.7508 1484.1 73.7508 Q1476.28 73.7508 1472.23 68.8897 Q1468.18 64.0286 1468.18 54.671 M1486.93 26.1121 L1486.93 26.1121 Z" fill="#000000" fill-rule="nonzero" fill-opacity="1" /><path clip-path="url(#clip270)" d="M1547.82 34.1734 Q1546.56 33.4443 1545.06 33.1202 Q1543.6 32.7556 1541.82 32.7556 Q1535.5 32.7556 1532.1 36.8875 Q1528.74 40.9789 1528.74 48.6757 L1528.74 72.576 L1521.24 72.576 L1521.24 27.2059 L1528.74 27.2059 L1528.74 34.2544 Q1531.09 30.1225 1534.85 28.1376 Q1538.62 26.1121 1544.01 26.1121 Q1544.78 26.1121 1545.71 26.2337 Q1546.64 26.3147 1547.78 26.5172 L1547.82 34.1734 Z" fill="#000000" fill-rule="nonzero" fill-opacity="1" /><path clip-path="url(#clip270)" d="M1550.29 27.2059 L1558.19 27.2059 L1572.37 65.2844 L1586.54 27.2059 L1594.44 27.2059 L1577.43 72.576 L1567.3 72.576 L1550.29 27.2059 Z" fill="#000000" fill-rule="nonzero" fill-opacity="1" /><path clip-path="url(#clip270)" d="M1643.54 48.0275 L1643.54 51.6733 L1609.27 51.6733 Q1609.76 59.3701 1613.89 63.421 Q1618.06 67.4314 1625.47 67.4314 Q1629.77 67.4314 1633.78 66.3781 Q1637.83 65.3249 1641.8 63.2184 L1641.8 70.267 Q1637.79 71.9684 1633.57 72.8596 Q1629.36 73.7508 1625.03 73.7508 Q1614.17 73.7508 1607.81 67.4314 Q1601.49 61.1119 1601.49 50.3365 Q1601.49 39.1965 1607.49 32.6746 Q1613.52 26.1121 1623.73 26.1121 Q1632.89 26.1121 1638.19 32.0264 Q1643.54 37.9003 1643.54 48.0275 M1636.09 45.84 Q1636.01 39.7232 1632.64 36.0774 Q1629.32 32.4315 1623.81 32.4315 Q1617.57 32.4315 1613.81 35.9558 Q1610.08 39.4801 1609.51 45.8805 L1636.09 45.84 Z" fill="#000000" fill-rule="nonzero" fill-opacity="1" /><polyline clip-path="url(#clip271)" style="stroke:#0000ff; stroke-linecap:round; stroke-linejoin:round; stroke-width:12; stroke-opacity:1; fill:none" points="337.8,173.254 359.094,213.499 380.388,253.678 401.682,293.728 422.976,333.59 444.27,373.204 465.565,412.513 486.859,451.462 508.153,489.999 529.447,528.074 550.741,565.639 572.035,602.652 593.329,639.071 614.623,674.86 635.917,709.984 657.211,744.413 678.505,778.121 699.8,811.083 721.094,843.279 742.388,874.693 763.682,905.312 784.976,935.124 806.27,964.121 827.564,992.3 848.858,1019.66 870.152,1046.19 891.446,1071.91 912.74,1096.82 934.035,1120.92 955.329,1144.21 976.623,1166.73 997.917,1188.46 1019.21,1209.43 1040.51,1229.65 1061.8,1249.13 1083.09,1267.89 1104.39,1285.96 1125.68,1303.33 1146.98,1320.04 1168.27,1336.09 1189.56,1351.51 1210.86,1366.32 1232.15,1380.53 1253.45,1394.17 1274.74,1407.24 1296.03,1419.78 1317.33,1431.79 1338.62,1443.29 1359.92,1454.32 1381.21,1464.87 1402.5,1474.96 1423.8,1484.63 1445.09,1493.87 1466.39,1502.71 1487.68,1511.16 1508.98,1519.24 1530.27,1526.96 1551.56,1534.34 1572.86,1541.39 1594.15,1548.12 1615.45,1554.55 1636.74,1560.69 1658.03,1566.55 1679.33,1572.14 1700.62,1577.48 1721.92,1582.58 1743.21,1587.44 1764.5,1592.08 1785.8,1596.5 1807.09,1600.72 1828.39,1604.74 1849.68,1608.58 1870.97,1612.24 1892.27,1615.73 1913.56,1619.05 1934.86,1622.22 1956.15,1625.25 1977.44,1628.13 1998.74,1630.87 2020.03,1633.49 2041.33,1635.98 2062.62,1638.35 2083.92,1640.62 2105.21,1642.77 2126.5,1644.82 2147.8,1646.78 2169.09,1648.64 2190.39,1650.42 2211.68,1652.11 2232.97,1653.72 2254.27,1655.26 2275.56,1656.72 2296.86,1658.11 2318.15,1659.43 2339.44,1660.69 2360.74,1661.9 2382.03,1663.04 2403.33,1664.13 2424.62,1665.17 2445.91,1666.15 2467.21,1667.1 2488.5,1667.99 2509.8,1668.84 2531.09,1669.65 2552.39,1670.43 2573.68,1671.16 "/>
<polyline clip-path="url(#clip271)" style="stroke:#ff0000; stroke-linecap:round; stroke-linejoin:round; stroke-width:12; stroke-opacity:1; fill:none" stroke-dasharray="48, 30" points="337.8,173.254 359.094,173.254 380.388,187.304 401.682,210.721 422.976,241.497 444.27,274.95 465.565,313.755 486.859,344.531 508.153,373.3 529.447,420.803 550.741,511.125 572.035,603.454 593.329,681.733 614.623,747.969 635.917,797.479 657.211,809.522 678.505,824.91 699.8,889.139 721.094,988.827 742.388,1057.07 763.682,1088.52 784.976,1109.93 806.27,1119.96 827.564,1145.39 848.858,1172.15 870.152,1194.9 891.446,1215.64 912.74,1243.07 934.035,1251.1 955.329,1251.1 976.623,1256.45 997.917,1274.51 1019.21,1293.25 1040.51,1312.65 1061.8,1322.01 1083.09,1326.7 1104.39,1326.7 1125.68,1332.05 1146.98,1342.09 1168.27,1350.12 1189.56,1362.83 1210.86,1370.19 1232.15,1373.53 1253.45,1374.2 1274.74,1375.54 1296.03,1378.22 1317.33,1390.93 1338.62,1406.32 1359.92,1409.66 1381.21,1411 1402.5,1411 1423.8,1419.7 1445.09,1432.41 1466.39,1447.13 1487.68,1459.17 1508.98,1468.54 1530.27,1471.21 1551.56,1474.56 1572.86,1475.9 1594.15,1480.58 1615.45,1486.6 1636.74,1493.96 1658.03,1501.32 1679.33,1504.67 1700.62,1504.67 1721.92,1511.36 1743.21,1519.39 1764.5,1525.41 1785.8,1535.44 1807.09,1539.46 1828.39,1542.13 1849.68,1543.47 1870.97,1557.52 1892.27,1576.92 1913.56,1598.33 1934.86,1607.7 1956.15,1618.4 1977.44,1623.09 1998.74,1623.09 2020.03,1625.1 2041.33,1637.81 2062.62,1640.48 2083.92,1645.84 2105.21,1652.53 2126.5,1653.2 2147.8,1653.2 2169.09,1656.54 2190.39,1665.24 2211.68,1672.6 2232.97,1674.6 2254.27,1677.28 2275.56,1678.62 2296.86,1678.62 2318.15,1678.62 2339.44,1678.62 2360.74,1678.62 2382.03,1678.62 2403.33,1678.62 2424.62,1678.62 2445.91,1678.62 2467.21,1679.29 2488.5,1683.97 2509.8,1687.32 2531.09,1687.99 2552.39,1688.65 2573.68,1688.65 "/>
<path clip-path="url(#clip270)" d="M2103.64 336.856 L2561.75 336.856 L2561.75 181.336 L2103.64 181.336  Z" fill="#ffffff" fill-rule="evenodd" fill-opacity="1"/>
<polyline clip-path="url(#clip270)" style="stroke:#000000; stroke-linecap:round; stroke-linejoin:round; stroke-width:4; stroke-opacity:1; fill:none" points="2103.64,336.856 2561.75,336.856 2561.75,181.336 2103.64,181.336 2103.64,336.856 "/>
<polyline clip-path="url(#clip270)" style="stroke:#0000ff; stroke-linecap:round; stroke-linejoin:round; stroke-width:12; stroke-opacity:1; fill:none" points="2129.98,233.176 2287.98,233.176 "/>
<path clip-path="url(#clip270)" d="M2314.31 215.896 L2318.99 215.896 L2318.99 250.456 L2314.31 250.456 L2314.31 215.896 Z" fill="#000000" fill-rule="nonzero" fill-opacity="1" /><path clip-path="url(#clip270)" d="M2349.66 234.808 L2349.66 250.456 L2345.4 250.456 L2345.4 234.947 Q2345.4 231.267 2343.96 229.438 Q2342.53 227.609 2339.66 227.609 Q2336.21 227.609 2334.22 229.808 Q2332.23 232.007 2332.23 235.804 L2332.23 250.456 L2327.95 250.456 L2327.95 224.531 L2332.23 224.531 L2332.23 228.558 Q2333.76 226.22 2335.82 225.063 Q2337.9 223.906 2340.61 223.906 Q2345.07 223.906 2347.37 226.683 Q2349.66 229.438 2349.66 234.808 Z" fill="#000000" fill-rule="nonzero" fill-opacity="1" /><path clip-path="url(#clip270)" d="M2371.28 214.438 L2371.28 217.98 L2367.2 217.98 Q2364.91 217.98 2364.01 218.906 Q2363.13 219.831 2363.13 222.239 L2363.13 224.531 L2370.14 224.531 L2370.14 227.841 L2363.13 227.841 L2363.13 250.456 L2358.85 250.456 L2358.85 227.841 L2354.77 227.841 L2354.77 224.531 L2358.85 224.531 L2358.85 222.725 Q2358.85 218.396 2360.86 216.429 Q2362.88 214.438 2367.25 214.438 L2371.28 214.438 Z" fill="#000000" fill-rule="nonzero" fill-opacity="1" /><path clip-path="url(#clip270)" d="M2397.02 236.429 L2397.02 238.512 L2377.44 238.512 Q2377.71 242.91 2380.07 245.225 Q2382.46 247.516 2386.7 247.516 Q2389.15 247.516 2391.44 246.915 Q2393.76 246.313 2396.02 245.109 L2396.02 249.137 Q2393.73 250.109 2391.32 250.618 Q2388.92 251.128 2386.44 251.128 Q2380.24 251.128 2376.6 247.516 Q2372.99 243.905 2372.99 237.748 Q2372.99 231.382 2376.42 227.655 Q2379.87 223.906 2385.7 223.906 Q2390.93 223.906 2393.96 227.285 Q2397.02 230.642 2397.02 236.429 M2392.76 235.179 Q2392.71 231.683 2390.79 229.6 Q2388.89 227.517 2385.75 227.517 Q2382.18 227.517 2380.03 229.53 Q2377.9 231.544 2377.57 235.202 L2392.76 235.179 Z" fill="#000000" fill-rule="nonzero" fill-opacity="1" /><path clip-path="url(#clip270)" d="M2419.03 228.512 Q2418.32 228.095 2417.46 227.91 Q2416.63 227.702 2415.61 227.702 Q2412 227.702 2410.05 230.063 Q2408.13 232.401 2408.13 236.799 L2408.13 250.456 L2403.85 250.456 L2403.85 224.531 L2408.13 224.531 L2408.13 228.558 Q2409.47 226.197 2411.63 225.063 Q2413.78 223.906 2416.86 223.906 Q2417.3 223.906 2417.83 223.975 Q2418.36 224.021 2419.01 224.137 L2419.03 228.512 Z" fill="#000000" fill-rule="nonzero" fill-opacity="1" /><path clip-path="url(#clip270)" d="M2437.69 228.512 Q2436.97 228.095 2436.12 227.91 Q2435.28 227.702 2434.26 227.702 Q2430.65 227.702 2428.71 230.063 Q2426.79 232.401 2426.79 236.799 L2426.79 250.456 L2422.51 250.456 L2422.51 224.531 L2426.79 224.531 L2426.79 228.558 Q2428.13 226.197 2430.28 225.063 Q2432.44 223.906 2435.51 223.906 Q2435.95 223.906 2436.49 223.975 Q2437.02 224.021 2437.67 224.137 L2437.69 228.512 Z" fill="#000000" fill-rule="nonzero" fill-opacity="1" /><path clip-path="url(#clip270)" d="M2463.29 236.429 L2463.29 238.512 L2443.71 238.512 Q2443.99 242.91 2446.35 245.225 Q2448.73 247.516 2452.97 247.516 Q2455.42 247.516 2457.71 246.915 Q2460.03 246.313 2462.3 245.109 L2462.3 249.137 Q2460 250.109 2457.6 250.618 Q2455.19 251.128 2452.71 251.128 Q2446.51 251.128 2442.88 247.516 Q2439.26 243.905 2439.26 237.748 Q2439.26 231.382 2442.69 227.655 Q2446.14 223.906 2451.97 223.906 Q2457.2 223.906 2460.24 227.285 Q2463.29 230.642 2463.29 236.429 M2459.03 235.179 Q2458.99 231.683 2457.07 229.6 Q2455.17 227.517 2452.02 227.517 Q2448.45 227.517 2446.3 229.53 Q2444.17 231.544 2443.85 235.202 L2459.03 235.179 Z" fill="#000000" fill-rule="nonzero" fill-opacity="1" /><path clip-path="url(#clip270)" d="M2487.34 228.466 L2487.34 214.438 L2491.6 214.438 L2491.6 250.456 L2487.34 250.456 L2487.34 246.567 Q2486 248.882 2483.94 250.016 Q2481.9 251.128 2479.03 251.128 Q2474.33 251.128 2471.37 247.378 Q2468.43 243.628 2468.43 237.517 Q2468.43 231.405 2471.37 227.655 Q2474.33 223.906 2479.03 223.906 Q2481.9 223.906 2483.94 225.04 Q2486 226.151 2487.34 228.466 M2472.83 237.517 Q2472.83 242.216 2474.75 244.901 Q2476.69 247.563 2480.07 247.563 Q2483.45 247.563 2485.4 244.901 Q2487.34 242.216 2487.34 237.517 Q2487.34 232.817 2485.4 230.155 Q2483.45 227.47 2480.07 227.47 Q2476.69 227.47 2474.75 230.155 Q2472.83 232.817 2472.83 237.517 Z" fill="#000000" fill-rule="nonzero" fill-opacity="1" /><polyline clip-path="url(#clip270)" style="stroke:#ff0000; stroke-linecap:round; stroke-linejoin:round; stroke-width:12; stroke-opacity:1; fill:none" stroke-dasharray="48, 30" points="2129.98,285.016 2287.98,285.016 "/>
<path clip-path="url(#clip270)" d="M2330.33 270.908 Q2325.24 270.908 2322.23 274.704 Q2319.24 278.5 2319.24 285.051 Q2319.24 291.579 2322.23 295.375 Q2325.24 299.171 2330.33 299.171 Q2335.42 299.171 2338.39 295.375 Q2341.37 291.579 2341.37 285.051 Q2341.37 278.5 2338.39 274.704 Q2335.42 270.908 2330.33 270.908 M2330.33 267.111 Q2337.6 267.111 2341.95 271.996 Q2346.3 276.857 2346.3 285.051 Q2346.3 293.222 2341.95 298.106 Q2337.6 302.968 2330.33 302.968 Q2323.04 302.968 2318.66 298.106 Q2314.31 293.245 2314.31 285.051 Q2314.31 276.857 2318.66 271.996 Q2323.04 267.111 2330.33 267.111 Z" fill="#000000" fill-rule="nonzero" fill-opacity="1" /><path clip-path="url(#clip270)" d="M2372.04 289.357 Q2372.04 284.657 2370.1 281.995 Q2368.18 279.31 2364.8 279.31 Q2361.42 279.31 2359.47 281.995 Q2357.55 284.657 2357.55 289.357 Q2357.55 294.056 2359.47 296.741 Q2361.42 299.403 2364.8 299.403 Q2368.18 299.403 2370.1 296.741 Q2372.04 294.056 2372.04 289.357 M2357.55 280.306 Q2358.89 277.991 2360.93 276.88 Q2362.99 275.746 2365.84 275.746 Q2370.56 275.746 2373.5 279.495 Q2376.46 283.245 2376.46 289.357 Q2376.46 295.468 2373.5 299.218 Q2370.56 302.968 2365.84 302.968 Q2362.99 302.968 2360.93 301.856 Q2358.89 300.722 2357.55 298.407 L2357.55 302.296 L2353.27 302.296 L2353.27 266.278 L2357.55 266.278 L2357.55 280.306 Z" fill="#000000" fill-rule="nonzero" fill-opacity="1" /><path clip-path="url(#clip270)" d="M2400.05 277.134 L2400.05 281.162 Q2398.25 280.236 2396.3 279.773 Q2394.36 279.31 2392.27 279.31 Q2389.1 279.31 2387.51 280.283 Q2385.93 281.255 2385.93 283.199 Q2385.93 284.681 2387.07 285.537 Q2388.2 286.37 2391.63 287.134 L2393.08 287.458 Q2397.62 288.431 2399.52 290.213 Q2401.44 291.972 2401.44 295.144 Q2401.44 298.755 2398.57 300.861 Q2395.72 302.968 2390.72 302.968 Q2388.64 302.968 2386.37 302.551 Q2384.13 302.157 2381.63 301.347 L2381.63 296.949 Q2383.99 298.176 2386.28 298.801 Q2388.57 299.403 2390.82 299.403 Q2393.82 299.403 2395.45 298.384 Q2397.07 297.343 2397.07 295.468 Q2397.07 293.732 2395.88 292.806 Q2394.73 291.88 2390.77 291.023 L2389.29 290.676 Q2385.33 289.843 2383.57 288.13 Q2381.81 286.394 2381.81 283.384 Q2381.81 279.727 2384.4 277.736 Q2387 275.746 2391.76 275.746 Q2394.13 275.746 2396.21 276.093 Q2398.29 276.44 2400.05 277.134 Z" fill="#000000" fill-rule="nonzero" fill-opacity="1" /><path clip-path="url(#clip270)" d="M2430.4 288.269 L2430.4 290.352 L2410.82 290.352 Q2411.09 294.75 2413.45 297.065 Q2415.84 299.356 2420.07 299.356 Q2422.53 299.356 2424.82 298.755 Q2427.13 298.153 2429.4 296.949 L2429.4 300.977 Q2427.11 301.949 2424.7 302.458 Q2422.3 302.968 2419.82 302.968 Q2413.62 302.968 2409.98 299.356 Q2406.37 295.745 2406.37 289.588 Q2406.37 283.222 2409.8 279.495 Q2413.25 275.746 2419.08 275.746 Q2424.31 275.746 2427.34 279.125 Q2430.4 282.482 2430.4 288.269 M2426.14 287.019 Q2426.09 283.523 2424.17 281.44 Q2422.27 279.357 2419.13 279.357 Q2415.56 279.357 2413.41 281.37 Q2411.28 283.384 2410.95 287.042 L2426.14 287.019 Z" fill="#000000" fill-rule="nonzero" fill-opacity="1" /><path clip-path="url(#clip270)" d="M2452.41 280.352 Q2451.69 279.935 2450.84 279.75 Q2450 279.542 2448.99 279.542 Q2445.38 279.542 2443.43 281.903 Q2441.51 284.241 2441.51 288.639 L2441.51 302.296 L2437.23 302.296 L2437.23 276.371 L2441.51 276.371 L2441.51 280.398 Q2442.85 278.037 2445 276.903 Q2447.16 275.746 2450.24 275.746 Q2450.68 275.746 2451.21 275.815 Q2451.74 275.861 2452.39 275.977 L2452.41 280.352 Z" fill="#000000" fill-rule="nonzero" fill-opacity="1" /><path clip-path="url(#clip270)" d="M2453.82 276.371 L2458.34 276.371 L2466.44 298.13 L2474.54 276.371 L2479.06 276.371 L2469.33 302.296 L2463.55 302.296 L2453.82 276.371 Z" fill="#000000" fill-rule="nonzero" fill-opacity="1" /><path clip-path="url(#clip270)" d="M2507.11 288.269 L2507.11 290.352 L2487.53 290.352 Q2487.81 294.75 2490.17 297.065 Q2492.55 299.356 2496.79 299.356 Q2499.24 299.356 2501.53 298.755 Q2503.85 298.153 2506.12 296.949 L2506.12 300.977 Q2503.82 301.949 2501.42 302.458 Q2499.01 302.968 2496.53 302.968 Q2490.33 302.968 2486.69 299.356 Q2483.08 295.745 2483.08 289.588 Q2483.08 283.222 2486.51 279.495 Q2489.96 275.746 2495.79 275.746 Q2501.02 275.746 2504.06 279.125 Q2507.11 282.482 2507.11 288.269 M2502.85 287.019 Q2502.81 283.523 2500.88 281.44 Q2498.99 279.357 2495.84 279.357 Q2492.27 279.357 2490.12 281.37 Q2487.99 283.384 2487.67 287.042 L2502.85 287.019 Z" fill="#000000" fill-rule="nonzero" fill-opacity="1" /><path clip-path="url(#clip270)" d="M2531.16 280.306 L2531.16 266.278 L2535.42 266.278 L2535.42 302.296 L2531.16 302.296 L2531.16 298.407 Q2529.82 300.722 2527.76 301.856 Q2525.72 302.968 2522.85 302.968 Q2518.15 302.968 2515.19 299.218 Q2512.25 295.468 2512.25 289.357 Q2512.25 283.245 2515.19 279.495 Q2518.15 275.746 2522.85 275.746 Q2525.72 275.746 2527.76 276.88 Q2529.82 277.991 2531.16 280.306 M2516.65 289.357 Q2516.65 294.056 2518.57 296.741 Q2520.51 299.403 2523.89 299.403 Q2527.27 299.403 2529.22 296.741 Q2531.16 294.056 2531.16 289.357 Q2531.16 284.657 2529.22 281.995 Q2527.27 279.31 2523.89 279.31 Q2520.51 279.31 2518.57 281.995 Q2516.65 284.657 2516.65 289.357 Z" fill="#000000" fill-rule="nonzero" fill-opacity="1" /></svg>
