<?xml version="1.0" encoding="utf-8"?>
<svg xmlns="http://www.w3.org/2000/svg" xmlns:xlink="http://www.w3.org/1999/xlink" width="672" height="480" viewBox="0 0 2688 1920">
<defs>
  <clipPath id="clip240">
    <rect x="0" y="0" width="2688" height="1920"/>
  </clipPath>
</defs>
<path clip-path="url(#clip240)" d="M0 1920 L2688 1920 L2688 -4.26326e-14 L0 -4.26326e-14  Z" fill="#ffffff" fill-rule="evenodd" fill-opacity="1"/>
<defs>
  <clipPath id="clip241">
    <rect x="241" y="127" width="2400" height="1607"/>
  </clipPath>
</defs>
<path clip-path="url(#clip240)" d="M241.557 1734.12 L2640.76 1734.12 L2640.76 127.792 L241.557 127.792  Z" fill="#ffffff" fill-rule="evenodd" fill-opacity="1"/>
<polyline clip-path="url(#clip241)" style="stroke:#000000; stroke-linecap:round; stroke-linejoin:round; stroke-width:2; stroke-opacity:0.1; fill:none" points="373.517,1734.12 373.517,127.792 "/>
<polyline clip-path="url(#clip241)" style="stroke:#000000; stroke-linecap:round; stroke-linejoin:round; stroke-width:2; stroke-opacity:0.1; fill:none" points="881.917,1734.12 881.917,127.792 "/>
<polyline clip-path="url(#clip241)" style="stroke:#000000; stroke-linecap:round; stroke-linejoin:round; stroke-width:2; stroke-opacity:0.1; fill:none" points="1390.32,1734.12 1390.32,127.792 "/>
<polyline clip-path="url(#clip241)" style="stroke:#000000; stroke-linecap:round; stroke-linejoin:round; stroke-width:2; stroke-opacity:0.1; fill:none" points="1898.72,1734.12 1898.72,127.792 "/>
<polyline clip-path="url(#clip241)" style="stroke:#000000; stroke-linecap:round; stroke-linejoin:round; stroke-width:2; stroke-opacity:0.1; fill:none" points="2407.12,1734.12 2407.12,127.792 "/>
<polyline clip-path="url(#clip241)" style="stroke:#000000; stroke-linecap:round; stroke-linejoin:round; stroke-width:2; stroke-opacity:0.1; fill:none" points="241.557,1734.12 2640.76,1734.12 "/>
<polyline clip-path="url(#clip241)" style="stroke:#000000; stroke-linecap:round; stroke-linejoin:round; stroke-width:2; stroke-opacity:0.1; fill:none" points="241.557,1467.73 2640.76,1467.73 "/>
<polyline clip-path="url(#clip241)" style="stroke:#000000; stroke-linecap:round; stroke-linejoin:round; stroke-width:2; stroke-opacity:0.1; fill:none" points="241.557,1201.34 2640.76,1201.34 "/>
<polyline clip-path="url(#clip241)" style="stroke:#000000; stroke-linecap:round; stroke-linejoin:round; stroke-width:2; stroke-opacity:0.1; fill:none" points="241.557,934.95 2640.76,934.95 "/>
<polyline clip-path="url(#clip241)" style="stroke:#000000; stroke-linecap:round; stroke-linejoin:round; stroke-width:2; stroke-opacity:0.1; fill:none" points="241.557,668.562 2640.76,668.562 "/>
<polyline clip-path="url(#clip241)" style="stroke:#000000; stroke-linecap:round; stroke-linejoin:round; stroke-width:2; stroke-opacity:0.1; fill:none" points="241.557,402.173 2640.76,402.173 "/>
<polyline clip-path="url(#clip241)" style="stroke:#000000; stroke-linecap:round; stroke-linejoin:round; stroke-width:2; stroke-opacity:0.1; fill:none" points="241.557,135.784 2640.76,135.784 "/>
<polyline clip-path="url(#clip240)" style="stroke:#000000; stroke-linecap:round; stroke-linejoin:round; stroke-width:4; stroke-opacity:1; fill:none" points="241.557,1734.12 2640.76,1734.12 "/>
<polyline clip-path="url(#clip240)" style="stroke:#000000; stroke-linecap:round; stroke-linejoin:round; stroke-width:4; stroke-opacity:1; fill:none" points="373.517,1734.12 373.517,1715.22 "/>
<polyline clip-path="url(#clip240)" style="stroke:#000000; stroke-linecap:round; stroke-linejoin:round; stroke-width:4; stroke-opacity:1; fill:none" points="881.917,1734.12 881.917,1715.22 "/>
<polyline clip-path="url(#clip240)" style="stroke:#000000; stroke-linecap:round; stroke-linejoin:round; stroke-width:4; stroke-opacity:1; fill:none" points="1390.32,1734.12 1390.32,1715.22 "/>
<polyline clip-path="url(#clip240)" style="stroke:#000000; stroke-linecap:round; stroke-linejoin:round; stroke-width:4; stroke-opacity:1; fill:none" points="1898.72,1734.12 1898.72,1715.22 "/>
<polyline clip-path="url(#clip240)" style="stroke:#000000; stroke-linecap:round; stroke-linejoin:round; stroke-width:4; stroke-opacity:1; fill:none" points="2407.12,1734.12 2407.12,1715.22 "/>
<path clip-path="url(#clip240)" d="M373.517 1767.34 Q369.906 1767.34 368.078 1770.9 Q366.272 1774.45 366.272 1781.58 Q366.272 1788.68 368.078 1792.25 Q369.906 1795.79 373.517 1795.79 Q377.152 1795.79 378.957 1792.25 Q380.786 1788.68 380.786 1781.58 Q380.786 1774.45 378.957 1770.9 Q377.152 1767.34 373.517 1767.34 M373.517 1763.64 Q379.327 1763.64 382.383 1768.24 Q385.462 1772.83 385.462 1781.58 Q385.462 1790.3 382.383 1794.91 Q379.327 1799.49 373.517 1799.49 Q367.707 1799.49 364.628 1794.91 Q361.573 1790.3 361.573 1781.58 Q361.573 1772.83 364.628 1768.24 Q367.707 1763.64 373.517 1763.64 Z" fill="#000000" fill-rule="nonzero" fill-opacity="1" /><path clip-path="url(#clip240)" d="M856.605 1794.89 L864.243 1794.89 L864.243 1768.52 L855.933 1770.19 L855.933 1765.93 L864.197 1764.26 L868.873 1764.26 L868.873 1794.89 L876.512 1794.89 L876.512 1798.82 L856.605 1798.82 L856.605 1794.89 Z" fill="#000000" fill-rule="nonzero" fill-opacity="1" /><path clip-path="url(#clip240)" d="M895.956 1767.34 Q892.345 1767.34 890.516 1770.9 Q888.711 1774.45 888.711 1781.58 Q888.711 1788.68 890.516 1792.25 Q892.345 1795.79 895.956 1795.79 Q899.59 1795.79 901.396 1792.25 Q903.225 1788.68 903.225 1781.58 Q903.225 1774.45 901.396 1770.9 Q899.59 1767.34 895.956 1767.34 M895.956 1763.64 Q901.766 1763.64 904.822 1768.24 Q907.901 1772.83 907.901 1781.58 Q907.901 1790.3 904.822 1794.91 Q901.766 1799.49 895.956 1799.49 Q890.146 1799.49 887.067 1794.91 Q884.012 1790.3 884.012 1781.58 Q884.012 1772.83 887.067 1768.24 Q890.146 1763.64 895.956 1763.64 Z" fill="#000000" fill-rule="nonzero" fill-opacity="1" /><path clip-path="url(#clip240)" d="M1369.09 1794.89 L1385.41 1794.89 L1385.41 1798.82 L1363.46 1798.82 L1363.46 1794.89 Q1366.13 1792.13 1370.71 1787.5 Q1375.32 1782.85 1376.5 1781.51 Q1378.74 1778.98 1379.62 1777.25 Q1380.52 1775.49 1380.52 1773.8 Q1380.52 1771.04 1378.58 1769.31 Q1376.66 1767.57 1373.56 1767.57 Q1371.36 1767.57 1368.9 1768.34 Q1366.47 1769.1 1363.7 1770.65 L1363.7 1765.93 Q1366.52 1764.79 1368.97 1764.21 Q1371.43 1763.64 1373.46 1763.64 Q1378.84 1763.64 1382.03 1766.32 Q1385.22 1769.01 1385.22 1773.5 Q1385.22 1775.63 1384.41 1777.55 Q1383.63 1779.45 1381.52 1782.04 Q1380.94 1782.71 1377.84 1785.93 Q1374.74 1789.12 1369.09 1794.89 Z" fill="#000000" fill-rule="nonzero" fill-opacity="1" /><path clip-path="url(#clip240)" d="M1405.22 1767.34 Q1401.61 1767.34 1399.78 1770.9 Q1397.98 1774.45 1397.98 1781.58 Q1397.98 1788.68 1399.78 1792.25 Q1401.61 1795.79 1405.22 1795.79 Q1408.86 1795.79 1410.66 1792.25 Q1412.49 1788.68 1412.49 1781.58 Q1412.49 1774.45 1410.66 1770.9 Q1408.86 1767.34 1405.22 1767.34 M1405.22 1763.64 Q1411.03 1763.64 1414.09 1768.24 Q1417.17 1772.83 1417.17 1781.58 Q1417.17 1790.3 1414.09 1794.91 Q1411.03 1799.49 1405.22 1799.49 Q1399.41 1799.49 1396.34 1794.91 Q1393.28 1790.3 1393.28 1781.58 Q1393.28 1772.83 1396.34 1768.24 Q1399.41 1763.64 1405.22 1763.64 Z" fill="#000000" fill-rule="nonzero" fill-opacity="1" /><path clip-path="url(#clip240)" d="M1887.56 1780.19 Q1890.92 1780.9 1892.79 1783.17 Q1894.69 1785.44 1894.69 1788.77 Q1894.69 1793.89 1891.17 1796.69 Q1887.65 1799.49 1881.17 1799.49 Q1878.99 1799.49 1876.68 1799.05 Q1874.39 1798.64 1871.93 1797.78 L1871.93 1793.27 Q1873.88 1794.4 1876.19 1794.98 Q1878.51 1795.56 1881.03 1795.56 Q1885.43 1795.56 1887.72 1793.82 Q1890.04 1792.08 1890.04 1788.77 Q1890.04 1785.72 1887.88 1784.01 Q1885.75 1782.27 1881.93 1782.27 L1877.91 1782.27 L1877.91 1778.43 L1882.12 1778.43 Q1885.57 1778.43 1887.4 1777.06 Q1889.23 1775.67 1889.23 1773.08 Q1889.23 1770.42 1887.33 1769.01 Q1885.45 1767.57 1881.93 1767.57 Q1880.01 1767.57 1877.81 1767.99 Q1875.61 1768.4 1872.98 1769.28 L1872.98 1765.12 Q1875.64 1764.38 1877.95 1764.01 Q1880.29 1763.64 1882.35 1763.64 Q1887.67 1763.64 1890.78 1766.07 Q1893.88 1768.47 1893.88 1772.59 Q1893.88 1775.46 1892.23 1777.46 Q1890.59 1779.42 1887.56 1780.19 Z" fill="#000000" fill-rule="nonzero" fill-opacity="1" /><path clip-path="url(#clip240)" d="M1913.55 1767.34 Q1909.94 1767.34 1908.11 1770.9 Q1906.31 1774.45 1906.31 1781.58 Q1906.31 1788.68 1908.11 1792.25 Q1909.94 1795.79 1913.55 1795.79 Q1917.19 1795.79 1918.99 1792.25 Q1920.82 1788.68 1920.82 1781.58 Q1920.82 1774.45 1918.99 1770.9 Q1917.19 1767.34 1913.55 1767.34 M1913.55 1763.64 Q1919.36 1763.64 1922.42 1768.24 Q1925.5 1772.83 1925.5 1781.58 Q1925.5 1790.3 1922.42 1794.91 Q1919.36 1799.49 1913.55 1799.49 Q1907.74 1799.49 1904.67 1794.91 Q1901.61 1790.3 1901.61 1781.58 Q1901.61 1772.83 1904.67 1768.24 Q1907.74 1763.64 1913.55 1763.64 Z" fill="#000000" fill-rule="nonzero" fill-opacity="1" /><path clip-path="url(#clip240)" d="M2395.29 1768.34 L2383.48 1786.78 L2395.29 1786.78 L2395.29 1768.34 M2394.06 1764.26 L2399.94 1764.26 L2399.94 1786.78 L2404.87 1786.78 L2404.87 1790.67 L2399.94 1790.67 L2399.94 1798.82 L2395.29 1798.82 L2395.29 1790.67 L2379.69 1790.67 L2379.69 1786.16 L2394.06 1764.26 Z" fill="#000000" fill-rule="nonzero" fill-opacity="1" /><path clip-path="url(#clip240)" d="M2422.6 1767.34 Q2418.99 1767.34 2417.16 1770.9 Q2415.36 1774.45 2415.36 1781.58 Q2415.36 1788.68 2417.16 1792.25 Q2418.99 1795.79 2422.6 1795.79 Q2426.24 1795.79 2428.04 1792.25 Q2429.87 1788.68 2429.87 1781.58 Q2429.87 1774.45 2428.04 1770.9 Q2426.24 1767.34 2422.6 1767.34 M2422.6 1763.64 Q2428.41 1763.64 2431.47 1768.24 Q2434.55 1772.83 2434.55 1781.58 Q2434.55 1790.3 2431.47 1794.91 Q2428.41 1799.49 2422.6 1799.49 Q2416.79 1799.49 2413.71 1794.91 Q2410.66 1790.3 2410.66 1781.58 Q2410.66 1772.83 2413.71 1768.24 Q2416.79 1763.64 2422.6 1763.64 Z" fill="#000000" fill-rule="nonzero" fill-opacity="1" /><path clip-path="url(#clip240)" d="M1251.38 1835.78 L1291.58 1835.78 L1291.58 1841.19 L1274.71 1841.19 L1274.71 1883.3 L1268.25 1883.3 L1268.25 1841.19 L1251.38 1841.19 L1251.38 1835.78 Z" fill="#000000" fill-rule="nonzero" fill-opacity="1" /><path clip-path="url(#clip240)" d="M1295.53 1847.65 L1301.38 1847.65 L1301.38 1883.3 L1295.53 1883.3 L1295.53 1847.65 M1295.53 1833.78 L1301.38 1833.78 L1301.38 1841.19 L1295.53 1841.19 L1295.53 1833.78 Z" fill="#000000" fill-rule="nonzero" fill-opacity="1" /><path clip-path="url(#clip240)" d="M1341.39 1854.5 Q1343.59 1850.55 1346.64 1848.67 Q1349.7 1846.79 1353.83 1846.79 Q1359.4 1846.79 1362.43 1850.71 Q1365.45 1854.59 1365.45 1861.78 L1365.45 1883.3 L1359.56 1883.3 L1359.56 1861.98 Q1359.56 1856.85 1357.75 1854.37 Q1355.94 1851.89 1352.21 1851.89 Q1347.66 1851.89 1345.02 1854.91 Q1342.38 1857.93 1342.38 1863.15 L1342.38 1883.3 L1336.49 1883.3 L1336.49 1861.98 Q1336.49 1856.82 1334.67 1854.37 Q1332.86 1851.89 1329.07 1851.89 Q1324.58 1851.89 1321.94 1854.94 Q1319.3 1857.97 1319.3 1863.15 L1319.3 1883.3 L1313.41 1883.3 L1313.41 1847.65 L1319.3 1847.65 L1319.3 1853.19 Q1321.31 1849.91 1324.11 1848.35 Q1326.91 1846.79 1330.76 1846.79 Q1334.64 1846.79 1337.35 1848.77 Q1340.09 1850.74 1341.39 1854.5 Z" fill="#000000" fill-rule="nonzero" fill-opacity="1" /><path clip-path="url(#clip240)" d="M1407.63 1864.01 L1407.63 1866.88 L1380.7 1866.88 Q1381.08 1872.92 1384.33 1876.11 Q1387.61 1879.26 1393.43 1879.26 Q1396.8 1879.26 1399.95 1878.43 Q1403.14 1877.6 1406.26 1875.95 L1406.26 1881.49 Q1403.11 1882.82 1399.8 1883.52 Q1396.49 1884.22 1393.08 1884.22 Q1384.55 1884.22 1379.55 1879.26 Q1374.59 1874.29 1374.59 1865.83 Q1374.59 1857.07 1379.3 1851.95 Q1384.04 1846.79 1392.06 1846.79 Q1399.25 1846.79 1403.42 1851.44 Q1407.63 1856.06 1407.63 1864.01 M1401.77 1862.29 Q1401.71 1857.49 1399.06 1854.62 Q1396.45 1851.76 1392.12 1851.76 Q1387.22 1851.76 1384.26 1854.53 Q1381.33 1857.3 1380.89 1862.33 L1401.77 1862.29 Z" fill="#000000" fill-rule="nonzero" fill-opacity="1" /><path clip-path="url(#clip240)" d="M1452.03 1833.84 Q1447.76 1841.16 1445.69 1848.32 Q1443.62 1855.48 1443.62 1862.84 Q1443.62 1870.19 1445.69 1877.41 Q1447.79 1884.61 1452.03 1891.89 L1446.93 1891.89 Q1442.16 1884.41 1439.77 1877.19 Q1437.42 1869.96 1437.42 1862.84 Q1437.42 1855.74 1439.77 1848.54 Q1442.13 1841.35 1446.93 1833.84 L1452.03 1833.84 Z" fill="#000000" fill-rule="nonzero" fill-opacity="1" /><path clip-path="url(#clip240)" d="M1486.85 1853.06 L1486.85 1833.78 L1492.7 1833.78 L1492.7 1883.3 L1486.85 1883.3 L1486.85 1877.95 Q1485 1881.14 1482.17 1882.7 Q1479.37 1884.22 1475.42 1884.22 Q1468.96 1884.22 1464.88 1879.07 Q1460.84 1873.91 1460.84 1865.51 Q1460.84 1857.11 1464.88 1851.95 Q1468.96 1846.79 1475.42 1846.79 Q1479.37 1846.79 1482.17 1848.35 Q1485 1849.88 1486.85 1853.06 M1466.89 1865.51 Q1466.89 1871.97 1469.53 1875.66 Q1472.21 1879.32 1476.85 1879.32 Q1481.5 1879.32 1484.17 1875.66 Q1486.85 1871.97 1486.85 1865.51 Q1486.85 1859.05 1484.17 1855.39 Q1481.5 1851.7 1476.85 1851.7 Q1472.21 1851.7 1469.53 1855.39 Q1466.89 1859.05 1466.89 1865.51 Z" fill="#000000" fill-rule="nonzero" fill-opacity="1" /><path clip-path="url(#clip240)" d="M1520.97 1865.38 Q1513.87 1865.38 1511.13 1867 Q1508.39 1868.63 1508.39 1872.54 Q1508.39 1875.66 1510.43 1877.51 Q1512.5 1879.32 1516.03 1879.32 Q1520.9 1879.32 1523.83 1875.88 Q1526.79 1872.42 1526.79 1866.69 L1526.79 1865.38 L1520.97 1865.38 M1532.65 1862.96 L1532.65 1883.3 L1526.79 1883.3 L1526.79 1877.89 Q1524.79 1881.14 1521.79 1882.7 Q1518.8 1884.22 1514.47 1884.22 Q1509 1884.22 1505.75 1881.17 Q1502.54 1878.08 1502.54 1872.92 Q1502.54 1866.91 1506.55 1863.85 Q1510.59 1860.8 1518.58 1860.8 L1526.79 1860.8 L1526.79 1860.23 Q1526.79 1856.18 1524.12 1853.99 Q1521.48 1851.76 1516.67 1851.76 Q1513.61 1851.76 1510.72 1852.49 Q1507.82 1853.22 1505.15 1854.69 L1505.15 1849.28 Q1508.36 1848.03 1511.39 1847.43 Q1514.41 1846.79 1517.27 1846.79 Q1525.01 1846.79 1528.83 1850.8 Q1532.65 1854.81 1532.65 1862.96 Z" fill="#000000" fill-rule="nonzero" fill-opacity="1" /><path clip-path="url(#clip240)" d="M1559.54 1886.61 Q1557.06 1892.98 1554.7 1894.92 Q1552.35 1896.86 1548.4 1896.86 L1543.72 1896.86 L1543.72 1891.96 L1547.16 1891.96 Q1549.58 1891.96 1550.92 1890.81 Q1552.25 1889.67 1553.88 1885.4 L1554.93 1882.73 L1540.51 1847.65 L1546.72 1847.65 L1557.86 1875.53 L1569 1847.65 L1575.2 1847.65 L1559.54 1886.61 Z" fill="#000000" fill-rule="nonzero" fill-opacity="1" /><path clip-path="url(#clip240)" d="M1606.01 1848.7 L1606.01 1854.24 Q1603.53 1852.97 1600.86 1852.33 Q1598.18 1851.7 1595.32 1851.7 Q1590.96 1851.7 1588.76 1853.03 Q1586.6 1854.37 1586.6 1857.04 Q1586.6 1859.08 1588.16 1860.26 Q1589.72 1861.4 1594.43 1862.45 L1596.43 1862.9 Q1602.67 1864.24 1605.28 1866.69 Q1607.92 1869.11 1607.92 1873.47 Q1607.92 1878.43 1603.98 1881.33 Q1600.06 1884.22 1593.19 1884.22 Q1590.32 1884.22 1587.2 1883.65 Q1584.11 1883.11 1580.68 1882 L1580.68 1875.95 Q1583.92 1877.64 1587.07 1878.49 Q1590.23 1879.32 1593.31 1879.32 Q1597.45 1879.32 1599.68 1877.92 Q1601.91 1876.49 1601.91 1873.91 Q1601.91 1871.52 1600.28 1870.25 Q1598.69 1868.98 1593.25 1867.8 L1591.21 1867.32 Q1585.77 1866.18 1583.35 1863.82 Q1580.93 1861.43 1580.93 1857.3 Q1580.93 1852.27 1584.5 1849.53 Q1588.06 1846.79 1594.62 1846.79 Q1597.86 1846.79 1600.73 1847.27 Q1603.59 1847.75 1606.01 1848.7 Z" fill="#000000" fill-rule="nonzero" fill-opacity="1" /><path clip-path="url(#clip240)" d="M1616.32 1833.84 L1621.42 1833.84 Q1626.19 1841.35 1628.55 1848.54 Q1630.93 1855.74 1630.93 1862.84 Q1630.93 1869.96 1628.55 1877.19 Q1626.19 1884.41 1621.42 1891.89 L1616.32 1891.89 Q1620.56 1884.61 1622.63 1877.41 Q1624.73 1870.19 1624.73 1862.84 Q1624.73 1855.48 1622.63 1848.32 Q1620.56 1841.16 1616.32 1833.84 Z" fill="#000000" fill-rule="nonzero" fill-opacity="1" /><polyline clip-path="url(#clip240)" style="stroke:#000000; stroke-linecap:round; stroke-linejoin:round; stroke-width:4; stroke-opacity:1; fill:none" points="241.557,1734.12 241.557,127.792 "/>
<polyline clip-path="url(#clip240)" style="stroke:#000000; stroke-linecap:round; stroke-linejoin:round; stroke-width:4; stroke-opacity:1; fill:none" points="241.557,1734.12 260.455,1734.12 "/>
<polyline clip-path="url(#clip240)" style="stroke:#000000; stroke-linecap:round; stroke-linejoin:round; stroke-width:4; stroke-opacity:1; fill:none" points="241.557,1467.73 260.455,1467.73 "/>
<polyline clip-path="url(#clip240)" style="stroke:#000000; stroke-linecap:round; stroke-linejoin:round; stroke-width:4; stroke-opacity:1; fill:none" points="241.557,1201.34 260.455,1201.34 "/>
<polyline clip-path="url(#clip240)" style="stroke:#000000; stroke-linecap:round; stroke-linejoin:round; stroke-width:4; stroke-opacity:1; fill:none" points="241.557,934.95 260.455,934.95 "/>
<polyline clip-path="url(#clip240)" style="stroke:#000000; stroke-linecap:round; stroke-linejoin:round; stroke-width:4; stroke-opacity:1; fill:none" points="241.557,668.562 260.455,668.562 "/>
<polyline clip-path="url(#clip240)" style="stroke:#000000; stroke-linecap:round; stroke-linejoin:round; stroke-width:4; stroke-opacity:1; fill:none" points="241.557,402.173 260.455,402.173 "/>
<polyline clip-path="url(#clip240)" style="stroke:#000000; stroke-linecap:round; stroke-linejoin:round; stroke-width:4; stroke-opacity:1; fill:none" points="241.557,135.784 260.455,135.784 "/>
<path clip-path="url(#clip240)" d="M189.293 1719.92 Q185.682 1719.92 183.853 1723.48 Q182.047 1727.02 182.047 1734.15 Q182.047 1741.26 183.853 1744.82 Q185.682 1748.36 189.293 1748.36 Q192.927 1748.36 194.733 1744.82 Q196.561 1741.26 196.561 1734.15 Q196.561 1727.02 194.733 1723.48 Q192.927 1719.92 189.293 1719.92 M189.293 1716.21 Q195.103 1716.21 198.158 1720.82 Q201.237 1725.4 201.237 1734.15 Q201.237 1742.88 198.158 1747.48 Q195.103 1752.07 189.293 1752.07 Q183.483 1752.07 180.404 1747.48 Q177.348 1742.88 177.348 1734.15 Q177.348 1725.4 180.404 1720.82 Q183.483 1716.21 189.293 1716.21 Z" fill="#000000" fill-rule="nonzero" fill-opacity="1" /><path clip-path="url(#clip240)" d="M119.779 1481.07 L127.418 1481.07 L127.418 1454.71 L119.108 1456.37 L119.108 1452.11 L127.372 1450.45 L132.048 1450.45 L132.048 1481.07 L139.687 1481.07 L139.687 1485.01 L119.779 1485.01 L119.779 1481.07 Z" fill="#000000" fill-rule="nonzero" fill-opacity="1" /><path clip-path="url(#clip240)" d="M159.131 1453.53 Q155.52 1453.53 153.691 1457.09 Q151.886 1460.63 151.886 1467.76 Q151.886 1474.87 153.691 1478.43 Q155.52 1481.98 159.131 1481.98 Q162.765 1481.98 164.571 1478.43 Q166.399 1474.87 166.399 1467.76 Q166.399 1460.63 164.571 1457.09 Q162.765 1453.53 159.131 1453.53 M159.131 1449.82 Q164.941 1449.82 167.997 1454.43 Q171.075 1459.01 171.075 1467.76 Q171.075 1476.49 167.997 1481.1 Q164.941 1485.68 159.131 1485.68 Q153.321 1485.68 150.242 1481.1 Q147.186 1476.49 147.186 1467.76 Q147.186 1459.01 150.242 1454.43 Q153.321 1449.82 159.131 1449.82 Z" fill="#000000" fill-rule="nonzero" fill-opacity="1" /><path clip-path="url(#clip240)" d="M189.293 1453.53 Q185.682 1453.53 183.853 1457.09 Q182.047 1460.63 182.047 1467.76 Q182.047 1474.87 183.853 1478.43 Q185.682 1481.98 189.293 1481.98 Q192.927 1481.98 194.733 1478.43 Q196.561 1474.87 196.561 1467.76 Q196.561 1460.63 194.733 1457.09 Q192.927 1453.53 189.293 1453.53 M189.293 1449.82 Q195.103 1449.82 198.158 1454.43 Q201.237 1459.01 201.237 1467.76 Q201.237 1476.49 198.158 1481.1 Q195.103 1485.68 189.293 1485.68 Q183.483 1485.68 180.404 1481.1 Q177.348 1476.49 177.348 1467.76 Q177.348 1459.01 180.404 1454.43 Q183.483 1449.82 189.293 1449.82 Z" fill="#000000" fill-rule="nonzero" fill-opacity="1" /><path clip-path="url(#clip240)" d="M122.997 1214.68 L139.316 1214.68 L139.316 1218.62 L117.372 1218.62 L117.372 1214.68 Q120.034 1211.93 124.617 1207.3 Q129.224 1202.65 130.404 1201.3 Q132.65 1198.78 133.529 1197.05 Q134.432 1195.29 134.432 1193.6 Q134.432 1190.84 132.488 1189.11 Q130.566 1187.37 127.464 1187.37 Q125.265 1187.37 122.812 1188.13 Q120.381 1188.9 117.603 1190.45 L117.603 1185.73 Q120.427 1184.59 122.881 1184.01 Q125.335 1183.43 127.372 1183.43 Q132.742 1183.43 135.937 1186.12 Q139.131 1188.8 139.131 1193.3 Q139.131 1195.42 138.321 1197.35 Q137.534 1199.24 135.427 1201.84 Q134.849 1202.51 131.747 1205.73 Q128.645 1208.92 122.997 1214.68 Z" fill="#000000" fill-rule="nonzero" fill-opacity="1" /><path clip-path="url(#clip240)" d="M159.131 1187.14 Q155.52 1187.14 153.691 1190.7 Q151.886 1194.24 151.886 1201.37 Q151.886 1208.48 153.691 1212.05 Q155.52 1215.59 159.131 1215.59 Q162.765 1215.59 164.571 1212.05 Q166.399 1208.48 166.399 1201.37 Q166.399 1194.24 164.571 1190.7 Q162.765 1187.14 159.131 1187.14 M159.131 1183.43 Q164.941 1183.43 167.997 1188.04 Q171.075 1192.62 171.075 1201.37 Q171.075 1210.1 167.997 1214.71 Q164.941 1219.29 159.131 1219.29 Q153.321 1219.29 150.242 1214.71 Q147.186 1210.1 147.186 1201.37 Q147.186 1192.62 150.242 1188.04 Q153.321 1183.43 159.131 1183.43 Z" fill="#000000" fill-rule="nonzero" fill-opacity="1" /><path clip-path="url(#clip240)" d="M189.293 1187.14 Q185.682 1187.14 183.853 1190.7 Q182.047 1194.24 182.047 1201.37 Q182.047 1208.48 183.853 1212.05 Q185.682 1215.59 189.293 1215.59 Q192.927 1215.59 194.733 1212.05 Q196.561 1208.48 196.561 1201.37 Q196.561 1194.24 194.733 1190.7 Q192.927 1187.14 189.293 1187.14 M189.293 1183.43 Q195.103 1183.43 198.158 1188.04 Q201.237 1192.62 201.237 1201.37 Q201.237 1210.1 198.158 1214.71 Q195.103 1219.29 189.293 1219.29 Q183.483 1219.29 180.404 1214.71 Q177.348 1210.1 177.348 1201.37 Q177.348 1192.62 180.404 1188.04 Q183.483 1183.43 189.293 1183.43 Z" fill="#000000" fill-rule="nonzero" fill-opacity="1" /><path clip-path="url(#clip240)" d="M133.136 933.596 Q136.492 934.314 138.367 936.582 Q140.265 938.851 140.265 942.184 Q140.265 947.3 136.747 950.101 Q133.228 952.902 126.747 952.902 Q124.571 952.902 122.256 952.462 Q119.964 952.045 117.511 951.189 L117.511 946.675 Q119.455 947.809 121.77 948.388 Q124.085 948.967 126.608 948.967 Q131.006 948.967 133.298 947.23 Q135.612 945.494 135.612 942.184 Q135.612 939.129 133.46 937.416 Q131.33 935.68 127.511 935.68 L123.483 935.68 L123.483 931.837 L127.696 931.837 Q131.145 931.837 132.974 930.471 Q134.802 929.082 134.802 926.49 Q134.802 923.828 132.904 922.416 Q131.029 920.981 127.511 920.981 Q125.589 920.981 123.39 921.397 Q121.191 921.814 118.552 922.694 L118.552 918.527 Q121.214 917.786 123.529 917.416 Q125.867 917.045 127.927 917.045 Q133.251 917.045 136.353 919.476 Q139.455 921.883 139.455 926.004 Q139.455 928.874 137.812 930.865 Q136.168 932.832 133.136 933.596 Z" fill="#000000" fill-rule="nonzero" fill-opacity="1" /><path clip-path="url(#clip240)" d="M159.131 920.749 Q155.52 920.749 153.691 924.314 Q151.886 927.856 151.886 934.985 Q151.886 942.092 153.691 945.656 Q155.52 949.198 159.131 949.198 Q162.765 949.198 164.571 945.656 Q166.399 942.092 166.399 934.985 Q166.399 927.856 164.571 924.314 Q162.765 920.749 159.131 920.749 M159.131 917.045 Q164.941 917.045 167.997 921.652 Q171.075 926.235 171.075 934.985 Q171.075 943.712 167.997 948.318 Q164.941 952.902 159.131 952.902 Q153.321 952.902 150.242 948.318 Q147.186 943.712 147.186 934.985 Q147.186 926.235 150.242 921.652 Q153.321 917.045 159.131 917.045 Z" fill="#000000" fill-rule="nonzero" fill-opacity="1" /><path clip-path="url(#clip240)" d="M189.293 920.749 Q185.682 920.749 183.853 924.314 Q182.047 927.856 182.047 934.985 Q182.047 942.092 183.853 945.656 Q185.682 949.198 189.293 949.198 Q192.927 949.198 194.733 945.656 Q196.561 942.092 196.561 934.985 Q196.561 927.856 194.733 924.314 Q192.927 920.749 189.293 920.749 M189.293 917.045 Q195.103 917.045 198.158 921.652 Q201.237 926.235 201.237 934.985 Q201.237 943.712 198.158 948.318 Q195.103 952.902 189.293 952.902 Q183.483 952.902 180.404 948.318 Q177.348 943.712 177.348 934.985 Q177.348 926.235 180.404 921.652 Q183.483 917.045 189.293 917.045 Z" fill="#000000" fill-rule="nonzero" fill-opacity="1" /><path clip-path="url(#clip240)" d="M131.816 655.356 L120.011 673.805 L131.816 673.805 L131.816 655.356 M130.589 651.282 L136.469 651.282 L136.469 673.805 L141.399 673.805 L141.399 677.693 L136.469 677.693 L136.469 685.842 L131.816 685.842 L131.816 677.693 L116.214 677.693 L116.214 673.18 L130.589 651.282 Z" fill="#000000" fill-rule="nonzero" fill-opacity="1" /><path clip-path="url(#clip240)" d="M159.131 654.36 Q155.52 654.36 153.691 657.925 Q151.886 661.467 151.886 668.596 Q151.886 675.703 153.691 679.267 Q155.52 682.809 159.131 682.809 Q162.765 682.809 164.571 679.267 Q166.399 675.703 166.399 668.596 Q166.399 661.467 164.571 657.925 Q162.765 654.36 159.131 654.36 M159.131 650.657 Q164.941 650.657 167.997 655.263 Q171.075 659.846 171.075 668.596 Q171.075 677.323 167.997 681.93 Q164.941 686.513 159.131 686.513 Q153.321 686.513 150.242 681.93 Q147.186 677.323 147.186 668.596 Q147.186 659.846 150.242 655.263 Q153.321 650.657 159.131 650.657 Z" fill="#000000" fill-rule="nonzero" fill-opacity="1" /><path clip-path="url(#clip240)" d="M189.293 654.36 Q185.682 654.36 183.853 657.925 Q182.047 661.467 182.047 668.596 Q182.047 675.703 183.853 679.267 Q185.682 682.809 189.293 682.809 Q192.927 682.809 194.733 679.267 Q196.561 675.703 196.561 668.596 Q196.561 661.467 194.733 657.925 Q192.927 654.36 189.293 654.36 M189.293 650.657 Q195.103 650.657 198.158 655.263 Q201.237 659.846 201.237 668.596 Q201.237 677.323 198.158 681.93 Q195.103 686.513 189.293 686.513 Q183.483 686.513 180.404 681.93 Q177.348 677.323 177.348 668.596 Q177.348 659.846 180.404 655.263 Q183.483 650.657 189.293 650.657 Z" fill="#000000" fill-rule="nonzero" fill-opacity="1" /><path clip-path="url(#clip240)" d="M119.015 384.893 L137.372 384.893 L137.372 388.828 L123.298 388.828 L123.298 397.3 Q124.316 396.953 125.335 396.791 Q126.353 396.606 127.372 396.606 Q133.159 396.606 136.538 399.777 Q139.918 402.948 139.918 408.365 Q139.918 413.943 136.446 417.045 Q132.974 420.124 126.654 420.124 Q124.478 420.124 122.21 419.754 Q119.964 419.383 117.557 418.642 L117.557 413.943 Q119.64 415.078 121.863 415.633 Q124.085 416.189 126.562 416.189 Q130.566 416.189 132.904 414.082 Q135.242 411.976 135.242 408.365 Q135.242 404.754 132.904 402.647 Q130.566 400.541 126.562 400.541 Q124.687 400.541 122.812 400.957 Q120.96 401.374 119.015 402.254 L119.015 384.893 Z" fill="#000000" fill-rule="nonzero" fill-opacity="1" /><path clip-path="url(#clip240)" d="M159.131 387.971 Q155.52 387.971 153.691 391.536 Q151.886 395.078 151.886 402.207 Q151.886 409.314 153.691 412.879 Q155.52 416.42 159.131 416.42 Q162.765 416.42 164.571 412.879 Q166.399 409.314 166.399 402.207 Q166.399 395.078 164.571 391.536 Q162.765 387.971 159.131 387.971 M159.131 384.268 Q164.941 384.268 167.997 388.874 Q171.075 393.457 171.075 402.207 Q171.075 410.934 167.997 415.541 Q164.941 420.124 159.131 420.124 Q153.321 420.124 150.242 415.541 Q147.186 410.934 147.186 402.207 Q147.186 393.457 150.242 388.874 Q153.321 384.268 159.131 384.268 Z" fill="#000000" fill-rule="nonzero" fill-opacity="1" /><path clip-path="url(#clip240)" d="M189.293 387.971 Q185.682 387.971 183.853 391.536 Q182.047 395.078 182.047 402.207 Q182.047 409.314 183.853 412.879 Q185.682 416.42 189.293 416.42 Q192.927 416.42 194.733 412.879 Q196.561 409.314 196.561 402.207 Q196.561 395.078 194.733 391.536 Q192.927 387.971 189.293 387.971 M189.293 384.268 Q195.103 384.268 198.158 388.874 Q201.237 393.457 201.237 402.207 Q201.237 410.934 198.158 415.541 Q195.103 420.124 189.293 420.124 Q183.483 420.124 180.404 415.541 Q177.348 410.934 177.348 402.207 Q177.348 393.457 180.404 388.874 Q183.483 384.268 189.293 384.268 Z" fill="#000000" fill-rule="nonzero" fill-opacity="1" /><path clip-path="url(#clip240)" d="M129.548 133.92 Q126.4 133.92 124.548 136.073 Q122.719 138.226 122.719 141.976 Q122.719 145.703 124.548 147.879 Q126.4 150.031 129.548 150.031 Q132.696 150.031 134.525 147.879 Q136.376 145.703 136.376 141.976 Q136.376 138.226 134.525 136.073 Q132.696 133.92 129.548 133.92 M138.83 119.268 L138.83 123.527 Q137.071 122.694 135.265 122.254 Q133.483 121.814 131.724 121.814 Q127.094 121.814 124.64 124.939 Q122.21 128.064 121.863 134.383 Q123.228 132.369 125.288 131.305 Q127.349 130.217 129.825 130.217 Q135.034 130.217 138.043 133.388 Q141.075 136.536 141.075 141.976 Q141.075 147.3 137.927 150.518 Q134.779 153.735 129.548 153.735 Q123.552 153.735 120.381 149.152 Q117.21 144.545 117.21 135.819 Q117.21 127.624 121.099 122.763 Q124.988 117.879 131.538 117.879 Q133.298 117.879 135.08 118.226 Q136.886 118.573 138.83 119.268 Z" fill="#000000" fill-rule="nonzero" fill-opacity="1" /><path clip-path="url(#clip240)" d="M159.131 121.582 Q155.52 121.582 153.691 125.147 Q151.886 128.689 151.886 135.819 Q151.886 142.925 153.691 146.49 Q155.52 150.031 159.131 150.031 Q162.765 150.031 164.571 146.49 Q166.399 142.925 166.399 135.819 Q166.399 128.689 164.571 125.147 Q162.765 121.582 159.131 121.582 M159.131 117.879 Q164.941 117.879 167.997 122.485 Q171.075 127.069 171.075 135.819 Q171.075 144.545 167.997 149.152 Q164.941 153.735 159.131 153.735 Q153.321 153.735 150.242 149.152 Q147.186 144.545 147.186 135.819 Q147.186 127.069 150.242 122.485 Q153.321 117.879 159.131 117.879 Z" fill="#000000" fill-rule="nonzero" fill-opacity="1" /><path clip-path="url(#clip240)" d="M189.293 121.582 Q185.682 121.582 183.853 125.147 Q182.047 128.689 182.047 135.819 Q182.047 142.925 183.853 146.49 Q185.682 150.031 189.293 150.031 Q192.927 150.031 194.733 146.49 Q196.561 142.925 196.561 135.819 Q196.561 128.689 194.733 125.147 Q192.927 121.582 189.293 121.582 M189.293 117.879 Q195.103 117.879 198.158 122.485 Q201.237 127.069 201.237 135.819 Q201.237 144.545 198.158 149.152 Q195.103 153.735 189.293 153.735 Q183.483 153.735 180.404 149.152 Q177.348 144.545 177.348 135.819 Q177.348 127.069 180.404 122.485 Q183.483 117.879 189.293 117.879 Z" fill="#000000" fill-rule="nonzero" fill-opacity="1" /><path clip-path="url(#clip240)" d="M14.1184 1095.16 L14.1184 1067.85 L19.5293 1067.85 L19.5293 1088.73 L33.5338 1088.73 L33.5338 1069.89 L38.9447 1069.89 L38.9447 1088.73 L61.6384 1088.73 L61.6384 1095.16 L14.1184 1095.16 Z" fill="#000000" fill-rule="nonzero" fill-opacity="1" /><path clip-path="url(#clip240)" d="M31.465 1042 Q30.8921 1042.99 30.6375 1044.17 Q30.351 1045.31 30.351 1046.71 Q30.351 1051.68 33.5975 1054.35 Q36.8122 1057 42.8596 1057 L61.6384 1057 L61.6384 1062.88 L25.9905 1062.88 L25.9905 1057 L31.5287 1057 Q28.2821 1055.15 26.7225 1052.19 Q25.1311 1049.23 25.1311 1045 Q25.1311 1044.39 25.2266 1043.66 Q25.2903 1042.93 25.4494 1042.04 L31.465 1042 Z" fill="#000000" fill-rule="nonzero" fill-opacity="1" /><path clip-path="url(#clip240)" d="M42.3504 1006.8 L45.2149 1006.8 L45.2149 1033.73 Q51.2623 1033.35 54.4452 1030.1 Q57.5962 1026.82 57.5962 1021 Q57.5962 1017.62 56.7687 1014.47 Q55.9411 1011.29 54.2861 1008.17 L59.8242 1008.17 Q61.161 1011.32 61.8612 1014.63 Q62.5615 1017.94 62.5615 1021.35 Q62.5615 1029.88 57.5962 1034.87 Q52.631 1039.84 44.1646 1039.84 Q35.4117 1039.84 30.2873 1035.13 Q25.1311 1030.39 25.1311 1022.37 Q25.1311 1015.17 29.7781 1011 Q34.3932 1006.8 42.3504 1006.8 M40.6316 1012.66 Q35.8255 1012.72 32.9609 1015.36 Q30.0964 1017.97 30.0964 1022.3 Q30.0964 1027.2 32.8654 1030.16 Q35.6345 1033.09 40.6634 1033.54 L40.6316 1012.66 Z" fill="#000000" fill-rule="nonzero" fill-opacity="1" /><path clip-path="url(#clip240)" d="M43.8463 993.689 Q50.3075 993.689 53.9996 991.047 Q57.6599 988.373 57.6599 983.726 Q57.6599 979.079 53.9996 976.406 Q50.3075 973.732 43.8463 973.732 Q37.3851 973.732 33.7248 976.406 Q30.0327 979.079 30.0327 983.726 Q30.0327 988.373 33.7248 991.047 Q37.3851 993.689 43.8463 993.689 M56.2912 973.732 Q59.4741 975.578 61.0337 978.411 Q62.5615 981.212 62.5615 985.159 Q62.5615 991.62 57.4052 995.694 Q52.249 999.736 43.8463 999.736 Q35.4436 999.736 30.2873 995.694 Q25.1311 991.62 25.1311 985.159 Q25.1311 981.212 26.6907 978.411 Q28.2185 975.578 31.4013 973.732 L25.9905 973.732 L25.9905 967.876 L75.1974 967.876 L75.1974 973.732 L56.2912 973.732 Z" fill="#000000" fill-rule="nonzero" fill-opacity="1" /><path clip-path="url(#clip240)" d="M47.5702 956.417 L25.9905 956.417 L25.9905 950.561 L47.3474 950.561 Q52.4082 950.561 54.9545 948.588 Q57.4689 946.614 57.4689 942.667 Q57.4689 937.925 54.4452 935.188 Q51.4215 932.419 46.2016 932.419 L25.9905 932.419 L25.9905 926.562 L61.6384 926.562 L61.6384 932.419 L56.1639 932.419 Q59.4104 934.551 61.0019 937.384 Q62.5615 940.185 62.5615 943.909 Q62.5615 950.052 58.742 953.235 Q54.9226 956.417 47.5702 956.417 M25.1311 941.681 L25.1311 941.681 Z" fill="#000000" fill-rule="nonzero" fill-opacity="1" /><path clip-path="url(#clip240)" d="M42.3504 884.007 L45.2149 884.007 L45.2149 910.934 Q51.2623 910.552 54.4452 907.306 Q57.5962 904.028 57.5962 898.203 Q57.5962 894.829 56.7687 891.678 Q55.9411 888.495 54.2861 885.376 L59.8242 885.376 Q61.161 888.527 61.8612 891.837 Q62.5615 895.147 62.5615 898.553 Q62.5615 907.083 57.5962 912.08 Q52.631 917.045 44.1646 917.045 Q35.4117 917.045 30.2873 912.335 Q25.1311 907.592 25.1311 899.572 Q25.1311 892.378 29.7781 888.209 Q34.3932 884.007 42.3504 884.007 M40.6316 889.864 Q35.8255 889.928 32.9609 892.569 Q30.0964 895.179 30.0964 899.508 Q30.0964 904.41 32.8654 907.37 Q35.6345 910.298 40.6634 910.743 L40.6316 889.864 Z" fill="#000000" fill-rule="nonzero" fill-opacity="1" /><path clip-path="url(#clip240)" d="M40.1224 844.763 L61.6384 844.763 L61.6384 850.619 L40.3133 850.619 Q35.2526 850.619 32.7381 852.593 Q30.2237 854.566 30.2237 858.513 Q30.2237 863.255 33.2474 865.993 Q36.2711 868.73 41.491 868.73 L61.6384 868.73 L61.6384 874.618 L25.9905 874.618 L25.9905 868.73 L31.5287 868.73 Q28.314 866.629 26.7225 863.796 Q25.1311 860.932 25.1311 857.208 Q25.1311 851.065 28.9505 847.914 Q32.7381 844.763 40.1224 844.763 Z" fill="#000000" fill-rule="nonzero" fill-opacity="1" /><path clip-path="url(#clip240)" d="M27.3591 807.428 L32.8336 807.428 Q31.465 809.911 30.7966 812.425 Q30.0964 814.908 30.0964 817.454 Q30.0964 823.151 33.7248 826.302 Q37.3214 829.453 43.8463 829.453 Q50.3711 829.453 53.9996 826.302 Q57.5962 823.151 57.5962 817.454 Q57.5962 814.908 56.9278 812.425 Q56.2276 809.911 54.859 807.428 L60.2698 807.428 Q61.4156 809.879 61.9886 812.521 Q62.5615 815.131 62.5615 818.091 Q62.5615 826.143 57.5007 830.886 Q52.44 835.628 43.8463 835.628 Q35.1253 835.628 30.1282 830.854 Q25.1311 826.048 25.1311 817.709 Q25.1311 815.003 25.704 812.425 Q26.2451 809.847 27.3591 807.428 Z" fill="#000000" fill-rule="nonzero" fill-opacity="1" /><path clip-path="url(#clip240)" d="M64.9486 782.411 Q71.3143 784.893 73.2559 787.249 Q75.1974 789.604 75.1974 793.551 L75.1974 798.23 L70.2958 798.23 L70.2958 794.792 Q70.2958 792.373 69.15 791.036 Q68.0041 789.7 63.7391 788.076 L61.0655 787.026 L25.9905 801.444 L25.9905 795.238 L53.8723 784.098 L25.9905 772.958 L25.9905 766.751 L64.9486 782.411 Z" fill="#000000" fill-rule="nonzero" fill-opacity="1" /><path clip-path="url(#clip240)" d="M1090.65 44.2197 Q1093.29 45.1109 1095.76 48.0275 Q1098.27 50.9442 1100.78 56.0483 L1109.08 72.576 L1100.29 72.576 L1092.56 57.061 Q1089.56 50.9847 1086.72 48.9997 Q1083.93 47.0148 1079.07 47.0148 L1070.15 47.0148 L1070.15 72.576 L1061.97 72.576 L1061.97 12.096 L1080.44 12.096 Q1090.81 12.096 1095.92 16.4305 Q1101.02 20.7649 1101.02 29.5149 Q1101.02 35.2267 1098.35 38.994 Q1095.72 42.7613 1090.65 44.2197 M1070.15 18.8205 L1070.15 40.2903 L1080.44 40.2903 Q1086.36 40.2903 1089.36 37.5762 Q1092.39 34.8216 1092.39 29.5149 Q1092.39 24.2082 1089.36 21.5346 Q1086.36 18.8205 1080.44 18.8205 L1070.15 18.8205 Z" fill="#000000" fill-rule="nonzero" fill-opacity="1" /><path clip-path="url(#clip240)" d="M1154.37 48.0275 L1154.37 51.6733 L1120.1 51.6733 Q1120.59 59.3701 1124.72 63.421 Q1128.89 67.4314 1136.31 67.4314 Q1140.6 67.4314 1144.61 66.3781 Q1148.66 65.3249 1152.63 63.2184 L1152.63 70.267 Q1148.62 71.9684 1144.41 72.8596 Q1140.19 73.7508 1135.86 73.7508 Q1125 73.7508 1118.64 67.4314 Q1112.32 61.1119 1112.32 50.3365 Q1112.32 39.1965 1118.32 32.6746 Q1124.36 26.1121 1134.56 26.1121 Q1143.72 26.1121 1149.03 32.0264 Q1154.37 37.9003 1154.37 48.0275 M1146.92 45.84 Q1146.84 39.7232 1143.48 36.0774 Q1140.15 32.4315 1134.64 32.4315 Q1128.41 32.4315 1124.64 35.9558 Q1120.91 39.4801 1120.35 45.8805 L1146.92 45.84 Z" fill="#000000" fill-rule="nonzero" fill-opacity="1" /><path clip-path="url(#clip240)" d="M1199.26 28.9478 L1199.26 35.9153 Q1196.1 34.1734 1192.9 33.3227 Q1189.74 32.4315 1186.5 32.4315 Q1179.25 32.4315 1175.23 37.0496 Q1171.22 41.6271 1171.22 49.9314 Q1171.22 58.2358 1175.23 62.8538 Q1179.25 67.4314 1186.5 67.4314 Q1189.74 67.4314 1192.9 66.5807 Q1196.1 65.6895 1199.26 63.9476 L1199.26 70.8341 Q1196.14 72.2924 1192.78 73.0216 Q1189.45 73.7508 1185.69 73.7508 Q1175.44 73.7508 1169.4 67.3098 Q1163.37 60.8689 1163.37 49.9314 Q1163.37 38.832 1169.44 32.472 Q1175.56 26.1121 1186.17 26.1121 Q1189.62 26.1121 1192.9 26.8413 Q1196.18 27.5299 1199.26 28.9478 Z" fill="#000000" fill-rule="nonzero" fill-opacity="1" /><path clip-path="url(#clip240)" d="M1229.8 32.4315 Q1223.81 32.4315 1220.32 37.1306 Q1216.84 41.7891 1216.84 49.9314 Q1216.84 58.0738 1220.28 62.7728 Q1223.76 67.4314 1229.8 67.4314 Q1235.76 67.4314 1239.24 62.7323 Q1242.72 58.0333 1242.72 49.9314 Q1242.72 41.8701 1239.24 37.1711 Q1235.76 32.4315 1229.8 32.4315 M1229.8 26.1121 Q1239.52 26.1121 1245.07 32.4315 Q1250.62 38.7509 1250.62 49.9314 Q1250.62 61.0714 1245.07 67.4314 Q1239.52 73.7508 1229.8 73.7508 Q1220.04 73.7508 1214.49 67.4314 Q1208.98 61.0714 1208.98 49.9314 Q1208.98 38.7509 1214.49 32.4315 Q1220.04 26.1121 1229.8 26.1121 Z" fill="#000000" fill-rule="nonzero" fill-opacity="1" /><path clip-path="url(#clip240)" d="M1257.63 27.2059 L1265.53 27.2059 L1279.71 65.2844 L1293.89 27.2059 L1301.79 27.2059 L1284.77 72.576 L1274.64 72.576 L1257.63 27.2059 Z" fill="#000000" fill-rule="nonzero" fill-opacity="1" /><path clip-path="url(#clip240)" d="M1350.88 48.0275 L1350.88 51.6733 L1316.61 51.6733 Q1317.1 59.3701 1321.23 63.421 Q1325.4 67.4314 1332.82 67.4314 Q1337.11 67.4314 1341.12 66.3781 Q1345.17 65.3249 1349.14 63.2184 L1349.14 70.267 Q1345.13 71.9684 1340.92 72.8596 Q1336.7 73.7508 1332.37 73.7508 Q1321.51 73.7508 1315.15 67.4314 Q1308.83 61.1119 1308.83 50.3365 Q1308.83 39.1965 1314.83 32.6746 Q1320.86 26.1121 1331.07 26.1121 Q1340.23 26.1121 1345.53 32.0264 Q1350.88 37.9003 1350.88 48.0275 M1343.43 45.84 Q1343.35 39.7232 1339.99 36.0774 Q1336.66 32.4315 1331.15 32.4315 Q1324.92 32.4315 1321.15 35.9558 Q1317.42 39.4801 1316.85 45.8805 L1343.43 45.84 Z" fill="#000000" fill-rule="nonzero" fill-opacity="1" /><path clip-path="url(#clip240)" d="M1389.41 34.1734 Q1388.15 33.4443 1386.65 33.1202 Q1385.19 32.7556 1383.41 32.7556 Q1377.09 32.7556 1373.69 36.8875 Q1370.33 40.9789 1370.33 48.6757 L1370.33 72.576 L1362.83 72.576 L1362.83 27.2059 L1370.33 27.2059 L1370.33 34.2544 Q1372.68 30.1225 1376.44 28.1376 Q1380.21 26.1121 1385.6 26.1121 Q1386.37 26.1121 1387.3 26.2337 Q1388.23 26.3147 1389.37 26.5172 L1389.41 34.1734 Z" fill="#000000" fill-rule="nonzero" fill-opacity="1" /><path clip-path="url(#clip240)" d="M1416.1 76.7889 Q1412.94 84.8907 1409.94 87.3618 Q1406.95 89.8329 1401.92 89.8329 L1395.97 89.8329 L1395.97 83.5945 L1400.34 83.5945 Q1403.42 83.5945 1405.12 82.1361 Q1406.83 80.6778 1408.89 75.2496 L1410.23 71.8468 L1391.88 27.2059 L1399.78 27.2059 L1413.95 62.6918 L1428.13 27.2059 L1436.03 27.2059 L1416.1 76.7889 Z" fill="#000000" fill-rule="nonzero" fill-opacity="1" /><path clip-path="url(#clip240)" d="M1472.69 27.2059 L1480.15 27.2059 L1480.15 72.576 L1472.69 72.576 L1472.69 27.2059 M1472.69 9.54393 L1480.15 9.54393 L1480.15 18.9825 L1472.69 18.9825 L1472.69 9.54393 Z" fill="#000000" fill-rule="nonzero" fill-opacity="1" /><path clip-path="url(#clip240)" d="M1533.46 45.1919 L1533.46 72.576 L1526 72.576 L1526 45.4349 Q1526 38.994 1523.49 35.7938 Q1520.98 32.5936 1515.96 32.5936 Q1509.92 32.5936 1506.44 36.4419 Q1502.95 40.2903 1502.95 46.9338 L1502.95 72.576 L1495.46 72.576 L1495.46 27.2059 L1502.95 27.2059 L1502.95 34.2544 Q1505.63 30.163 1509.23 28.1376 Q1512.88 26.1121 1517.62 26.1121 Q1525.44 26.1121 1529.45 30.9732 Q1533.46 35.7938 1533.46 45.1919 Z" fill="#000000" fill-rule="nonzero" fill-opacity="1" /><path clip-path="url(#clip240)" d="M1555.7 14.324 L1555.7 27.2059 L1571.05 27.2059 L1571.05 32.9987 L1555.7 32.9987 L1555.7 57.6282 Q1555.7 63.1779 1557.19 64.7578 Q1558.73 66.3376 1563.39 66.3376 L1571.05 66.3376 L1571.05 72.576 L1563.39 72.576 Q1554.76 72.576 1551.48 69.3758 Q1548.2 66.1351 1548.2 57.6282 L1548.2 32.9987 L1542.73 32.9987 L1542.73 27.2059 L1548.2 27.2059 L1548.2 14.324 L1555.7 14.324 Z" fill="#000000" fill-rule="nonzero" fill-opacity="1" /><path clip-path="url(#clip240)" d="M1619.66 48.0275 L1619.66 51.6733 L1585.39 51.6733 Q1585.88 59.3701 1590.01 63.421 Q1594.18 67.4314 1601.59 67.4314 Q1605.89 67.4314 1609.9 66.3781 Q1613.95 65.3249 1617.92 63.2184 L1617.92 70.267 Q1613.91 71.9684 1609.69 72.8596 Q1605.48 73.7508 1601.15 73.7508 Q1590.29 73.7508 1583.93 67.4314 Q1577.61 61.1119 1577.61 50.3365 Q1577.61 39.1965 1583.61 32.6746 Q1589.64 26.1121 1599.85 26.1121 Q1609.01 26.1121 1614.31 32.0264 Q1619.66 37.9003 1619.66 48.0275 M1612.21 45.84 Q1612.12 39.7232 1608.76 36.0774 Q1605.44 32.4315 1599.93 32.4315 Q1593.69 32.4315 1589.93 35.9558 Q1586.2 39.4801 1585.63 45.8805 L1612.21 45.84 Z" fill="#000000" fill-rule="nonzero" fill-opacity="1" /><path clip-path="url(#clip240)" d="M1658.18 34.1734 Q1656.93 33.4443 1655.43 33.1202 Q1653.97 32.7556 1652.19 32.7556 Q1645.87 32.7556 1642.47 36.8875 Q1639.1 40.9789 1639.1 48.6757 L1639.1 72.576 L1631.61 72.576 L1631.61 27.2059 L1639.1 27.2059 L1639.1 34.2544 Q1641.45 30.1225 1645.22 28.1376 Q1648.99 26.1121 1654.38 26.1121 Q1655.15 26.1121 1656.08 26.2337 Q1657.01 26.3147 1658.14 26.5172 L1658.18 34.1734 Z" fill="#000000" fill-rule="nonzero" fill-opacity="1" /><path clip-path="url(#clip240)" d="M1660.65 27.2059 L1668.55 27.2059 L1682.73 65.2844 L1696.91 27.2059 L1704.81 27.2059 L1687.8 72.576 L1677.67 72.576 L1660.65 27.2059 Z" fill="#000000" fill-rule="nonzero" fill-opacity="1" /><path clip-path="url(#clip240)" d="M1735.72 49.7694 Q1726.68 49.7694 1723.2 51.8354 Q1719.72 53.9013 1719.72 58.8839 Q1719.72 62.8538 1722.31 65.2034 Q1724.94 67.5124 1729.44 67.5124 Q1735.64 67.5124 1739.36 63.1374 Q1743.13 58.7219 1743.13 51.4303 L1743.13 49.7694 L1735.72 49.7694 M1750.58 46.6907 L1750.58 72.576 L1743.13 72.576 L1743.13 65.6895 Q1740.58 69.8214 1736.77 71.8063 Q1732.96 73.7508 1727.45 73.7508 Q1720.49 73.7508 1716.35 69.8619 Q1712.26 65.9325 1712.26 59.3701 Q1712.26 51.7138 1717.37 47.825 Q1722.51 43.9361 1732.68 43.9361 L1743.13 43.9361 L1743.13 43.2069 Q1743.13 38.0623 1739.73 35.2672 Q1736.37 32.4315 1730.25 32.4315 Q1726.36 32.4315 1722.67 33.3632 Q1718.99 34.295 1715.59 36.1584 L1715.59 29.2718 Q1719.68 27.692 1723.52 26.9223 Q1727.37 26.1121 1731.02 26.1121 Q1740.86 26.1121 1745.72 31.2163 Q1750.58 36.3204 1750.58 46.6907 Z" fill="#000000" fill-rule="nonzero" fill-opacity="1" /><path clip-path="url(#clip240)" d="M1765.94 9.54393 L1773.39 9.54393 L1773.39 72.576 L1765.94 72.576 L1765.94 9.54393 Z" fill="#000000" fill-rule="nonzero" fill-opacity="1" /><path clip-path="url(#clip240)" d="M1817.91 28.5427 L1817.91 35.5912 Q1814.75 33.9709 1811.35 33.1607 Q1807.95 32.3505 1804.3 32.3505 Q1798.75 32.3505 1795.95 34.0519 Q1793.2 35.7533 1793.2 39.156 Q1793.2 41.7486 1795.19 43.2475 Q1797.17 44.7058 1803.17 46.0426 L1805.72 46.6097 Q1813.66 48.3111 1816.98 51.4303 Q1820.34 54.509 1820.34 60.0587 Q1820.34 66.3781 1815.32 70.0644 Q1810.34 73.7508 1801.59 73.7508 Q1797.94 73.7508 1793.97 73.0216 Q1790.04 72.3329 1785.67 70.9151 L1785.67 63.2184 Q1789.8 65.3654 1793.81 66.4591 Q1797.82 67.5124 1801.75 67.5124 Q1807.01 67.5124 1809.85 65.73 Q1812.69 63.9071 1812.69 60.6258 Q1812.69 57.5877 1810.62 55.9673 Q1808.59 54.3469 1801.67 52.8481 L1799.07 52.2405 Q1792.15 50.7821 1789.07 47.7845 Q1785.99 44.7463 1785.99 39.4801 Q1785.99 33.0797 1790.53 29.5959 Q1795.06 26.1121 1803.41 26.1121 Q1807.54 26.1121 1811.19 26.7198 Q1814.83 27.3274 1817.91 28.5427 Z" fill="#000000" fill-rule="nonzero" fill-opacity="1" /><path clip-path="url(#clip241)" d="M373.517 127.792 L373.517 1734.12 L475.197 1734.12 L475.197 127.792 L373.517 127.792 L373.517 127.792  Z" fill="#009af9" fill-rule="evenodd" fill-opacity="0.7"/>
<polyline clip-path="url(#clip241)" style="stroke:#000000; stroke-linecap:round; stroke-linejoin:round; stroke-width:4; stroke-opacity:0.7; fill:none" points="373.517,127.792 373.517,1734.12 475.197,1734.12 475.197,127.792 373.517,127.792 "/>
<path clip-path="url(#clip241)" d="M475.197 237.012 L475.197 1734.12 L576.877 1734.12 L576.877 237.012 L475.197 237.012 L475.197 237.012  Z" fill="#009af9" fill-rule="evenodd" fill-opacity="0.7"/>
<polyline clip-path="url(#clip241)" style="stroke:#000000; stroke-linecap:round; stroke-linejoin:round; stroke-width:4; stroke-opacity:0.7; fill:none" points="475.197,237.012 475.197,1734.12 576.877,1734.12 576.877,237.012 475.197,237.012 "/>
<path clip-path="url(#clip241)" d="M576.877 796.428 L576.877 1734.12 L678.557 1734.12 L678.557 796.428 L576.877 796.428 L576.877 796.428  Z" fill="#009af9" fill-rule="evenodd" fill-opacity="0.7"/>
<polyline clip-path="url(#clip241)" style="stroke:#000000; stroke-linecap:round; stroke-linejoin:round; stroke-width:4; stroke-opacity:0.7; fill:none" points="576.877,796.428 576.877,1734.12 678.557,1734.12 678.557,796.428 576.877,796.428 "/>
<path clip-path="url(#clip241)" d="M678.557 1081.46 L678.557 1734.12 L780.237 1734.12 L780.237 1081.46 L678.557 1081.46 L678.557 1081.46  Z" fill="#009af9" fill-rule="evenodd" fill-opacity="0.7"/>
<polyline clip-path="url(#clip241)" style="stroke:#000000; stroke-linecap:round; stroke-linejoin:round; stroke-width:4; stroke-opacity:0.7; fill:none" points="678.557,1081.46 678.557,1734.12 780.237,1734.12 780.237,1081.46 678.557,1081.46 "/>
<path clip-path="url(#clip241)" d="M780.237 1307.89 L780.237 1734.12 L881.917 1734.12 L881.917 1307.89 L780.237 1307.89 L780.237 1307.89  Z" fill="#009af9" fill-rule="evenodd" fill-opacity="0.7"/>
<polyline clip-path="url(#clip241)" style="stroke:#000000; stroke-linecap:round; stroke-linejoin:round; stroke-width:4; stroke-opacity:0.7; fill:none" points="780.237,1307.89 780.237,1734.12 881.917,1734.12 881.917,1307.89 780.237,1307.89 "/>
<path clip-path="url(#clip241)" d="M881.917 1395.8 L881.917 1734.12 L983.597 1734.12 L983.597 1395.8 L881.917 1395.8 L881.917 1395.8  Z" fill="#009af9" fill-rule="evenodd" fill-opacity="0.7"/>
<polyline clip-path="url(#clip241)" style="stroke:#000000; stroke-linecap:round; stroke-linejoin:round; stroke-width:4; stroke-opacity:0.7; fill:none" points="881.917,1395.8 881.917,1734.12 983.597,1734.12 983.597,1395.8 881.917,1395.8 "/>
<path clip-path="url(#clip241)" d="M983.597 1534.33 L983.597 1734.12 L1085.28 1734.12 L1085.28 1534.33 L983.597 1534.33 L983.597 1534.33  Z" fill="#009af9" fill-rule="evenodd" fill-opacity="0.7"/>
<polyline clip-path="url(#clip241)" style="stroke:#000000; stroke-linecap:round; stroke-linejoin:round; stroke-width:4; stroke-opacity:0.7; fill:none" points="983.597,1534.33 983.597,1734.12 1085.28,1734.12 1085.28,1534.33 983.597,1534.33 "/>
<path clip-path="url(#clip241)" d="M1085.28 1600.92 L1085.28 1734.12 L1186.96 1734.12 L1186.96 1600.92 L1085.28 1600.92 L1085.28 1600.92  Z" fill="#009af9" fill-rule="evenodd" fill-opacity="0.7"/>
<polyline clip-path="url(#clip241)" style="stroke:#000000; stroke-linecap:round; stroke-linejoin:round; stroke-width:4; stroke-opacity:0.7; fill:none" points="1085.28,1600.92 1085.28,1734.12 1186.96,1734.12 1186.96,1600.92 1085.28,1600.92 "/>
<path clip-path="url(#clip241)" d="M1186.96 1659.53 L1186.96 1734.12 L1288.64 1734.12 L1288.64 1659.53 L1186.96 1659.53 L1186.96 1659.53  Z" fill="#009af9" fill-rule="evenodd" fill-opacity="0.7"/>
<polyline clip-path="url(#clip241)" style="stroke:#000000; stroke-linecap:round; stroke-linejoin:round; stroke-width:4; stroke-opacity:0.7; fill:none" points="1186.96,1659.53 1186.96,1734.12 1288.64,1734.12 1288.64,1659.53 1186.96,1659.53 "/>
<path clip-path="url(#clip241)" d="M1288.64 1662.19 L1288.64 1734.12 L1390.32 1734.12 L1390.32 1662.19 L1288.64 1662.19 L1288.64 1662.19  Z" fill="#009af9" fill-rule="evenodd" fill-opacity="0.7"/>
<polyline clip-path="url(#clip241)" style="stroke:#000000; stroke-linecap:round; stroke-linejoin:round; stroke-width:4; stroke-opacity:0.7; fill:none" points="1288.64,1662.19 1288.64,1734.12 1390.32,1734.12 1390.32,1662.19 1288.64,1662.19 "/>
<path clip-path="url(#clip241)" d="M1390.32 1694.16 L1390.32 1734.12 L1492 1734.12 L1492 1694.16 L1390.32 1694.16 L1390.32 1694.16  Z" fill="#009af9" fill-rule="evenodd" fill-opacity="0.7"/>
<polyline clip-path="url(#clip241)" style="stroke:#000000; stroke-linecap:round; stroke-linejoin:round; stroke-width:4; stroke-opacity:0.7; fill:none" points="1390.32,1694.16 1390.32,1734.12 1492,1734.12 1492,1694.16 1390.32,1694.16 "/>
<path clip-path="url(#clip241)" d="M1492 1702.15 L1492 1734.12 L1593.68 1734.12 L1593.68 1702.15 L1492 1702.15 L1492 1702.15  Z" fill="#009af9" fill-rule="evenodd" fill-opacity="0.7"/>
<polyline clip-path="url(#clip241)" style="stroke:#000000; stroke-linecap:round; stroke-linejoin:round; stroke-width:4; stroke-opacity:0.7; fill:none" points="1492,1702.15 1492,1734.12 1593.68,1734.12 1593.68,1702.15 1492,1702.15 "/>
<path clip-path="url(#clip241)" d="M1593.68 1715.47 L1593.68 1734.12 L1695.36 1734.12 L1695.36 1715.47 L1593.68 1715.47 L1593.68 1715.47  Z" fill="#009af9" fill-rule="evenodd" fill-opacity="0.7"/>
<polyline clip-path="url(#clip241)" style="stroke:#000000; stroke-linecap:round; stroke-linejoin:round; stroke-width:4; stroke-opacity:0.7; fill:none" points="1593.68,1715.47 1593.68,1734.12 1695.36,1734.12 1695.36,1715.47 1593.68,1715.47 "/>
<path clip-path="url(#clip241)" d="M1695.36 1728.79 L1695.36 1734.12 L1797.04 1734.12 L1797.04 1728.79 L1695.36 1728.79 L1695.36 1728.79  Z" fill="#009af9" fill-rule="evenodd" fill-opacity="0.7"/>
<polyline clip-path="url(#clip241)" style="stroke:#000000; stroke-linecap:round; stroke-linejoin:round; stroke-width:4; stroke-opacity:0.7; fill:none" points="1695.36,1728.79 1695.36,1734.12 1797.04,1734.12 1797.04,1728.79 1695.36,1728.79 "/>
<path clip-path="url(#clip241)" d="M1797.04 1726.13 L1797.04 1734.12 L1898.72 1734.12 L1898.72 1726.13 L1797.04 1726.13 L1797.04 1726.13  Z" fill="#009af9" fill-rule="evenodd" fill-opacity="0.7"/>
<polyline clip-path="url(#clip241)" style="stroke:#000000; stroke-linecap:round; stroke-linejoin:round; stroke-width:4; stroke-opacity:0.7; fill:none" points="1797.04,1726.13 1797.04,1734.12 1898.72,1734.12 1898.72,1726.13 1797.04,1726.13 "/>
<path clip-path="url(#clip241)" d="M1898.72 1726.13 L1898.72 1734.12 L2000.4 1734.12 L2000.4 1726.13 L1898.72 1726.13 L1898.72 1726.13  Z" fill="#009af9" fill-rule="evenodd" fill-opacity="0.7"/>
<polyline clip-path="url(#clip241)" style="stroke:#000000; stroke-linecap:round; stroke-linejoin:round; stroke-width:4; stroke-opacity:0.7; fill:none" points="1898.72,1726.13 1898.72,1734.12 2000.4,1734.12 2000.4,1726.13 1898.72,1726.13 "/>
<path clip-path="url(#clip241)" d="M2000.4 1728.79 L2000.4 1734.12 L2102.08 1734.12 L2102.08 1728.79 L2000.4 1728.79 L2000.4 1728.79  Z" fill="#009af9" fill-rule="evenodd" fill-opacity="0.7"/>
<polyline clip-path="url(#clip241)" style="stroke:#000000; stroke-linecap:round; stroke-linejoin:round; stroke-width:4; stroke-opacity:0.7; fill:none" points="2000.4,1728.79 2000.4,1734.12 2102.08,1734.12 2102.08,1728.79 2000.4,1728.79 "/>
<path clip-path="url(#clip241)" d="M2102.08 1731.45 L2102.08 1734.12 L2203.76 1734.12 L2203.76 1731.45 L2102.08 1731.45 L2102.08 1731.45  Z" fill="#009af9" fill-rule="evenodd" fill-opacity="0.7"/>
<polyline clip-path="url(#clip241)" style="stroke:#000000; stroke-linecap:round; stroke-linejoin:round; stroke-width:4; stroke-opacity:0.7; fill:none" points="2102.08,1731.45 2102.08,1734.12 2203.76,1734.12 2203.76,1731.45 2102.08,1731.45 "/>
<path clip-path="url(#clip241)" d="M2203.76 1731.45 L2203.76 1734.12 L2305.44 1734.12 L2305.44 1731.45 L2203.76 1731.45 L2203.76 1731.45  Z" fill="#009af9" fill-rule="evenodd" fill-opacity="0.7"/>
<polyline clip-path="url(#clip241)" style="stroke:#000000; stroke-linecap:round; stroke-linejoin:round; stroke-width:4; stroke-opacity:0.7; fill:none" points="2203.76,1731.45 2203.76,1734.12 2305.44,1734.12 2305.44,1731.45 2203.76,1731.45 "/>
<path clip-path="url(#clip241)" d="M2305.44 1734.12 L2305.44 1734.12 L2407.12 1734.12 L2407.12 1734.12 L2305.44 1734.12 L2305.44 1734.12  Z" fill="#009af9" fill-rule="evenodd" fill-opacity="0.7"/>
<polyline clip-path="url(#clip241)" style="stroke:#000000; stroke-linecap:round; stroke-linejoin:round; stroke-width:4; stroke-opacity:0.7; fill:none" points="2305.44,1734.12 2305.44,1734.12 2407.12,1734.12 2305.44,1734.12 "/>
<path clip-path="url(#clip241)" d="M2407.12 1731.45 L2407.12 1734.12 L2508.8 1734.12 L2508.8 1731.45 L2407.12 1731.45 L2407.12 1731.45  Z" fill="#009af9" fill-rule="evenodd" fill-opacity="0.7"/>
<polyline clip-path="url(#clip241)" style="stroke:#000000; stroke-linecap:round; stroke-linejoin:round; stroke-width:4; stroke-opacity:0.7; fill:none" points="2407.12,1731.45 2407.12,1734.12 2508.8,1734.12 2508.8,1731.45 2407.12,1731.45 "/>
<circle clip-path="url(#clip241)" style="fill:#009af9; stroke:none; fill-opacity:0" cx="526.037" cy="237.012" r="2"/>
<circle clip-path="url(#clip241)" style="fill:#009af9; stroke:none; fill-opacity:0" cx="627.717" cy="796.428" r="2"/>
<circle clip-path="url(#clip241)" style="fill:#009af9; stroke:none; fill-opacity:0" cx="729.397" cy="1081.46" r="2"/>
<circle clip-path="url(#clip241)" style="fill:#009af9; stroke:none; fill-opacity:0" cx="831.077" cy="1307.89" r="2"/>
<circle clip-path="url(#clip241)" style="fill:#009af9; stroke:none; fill-opacity:0" cx="932.757" cy="1395.8" r="2"/>
<circle clip-path="url(#clip241)" style="fill:#009af9; stroke:none; fill-opacity:0" cx="1034.44" cy="1534.33" r="2"/>
<circle clip-path="url(#clip241)" style="fill:#009af9; stroke:none; fill-opacity:0" cx="1136.12" cy="1600.92" r="2"/>
<circle clip-path="url(#clip241)" style="fill:#009af9; stroke:none; fill-opacity:0" cx="1237.8" cy="1659.53" r="2"/>
<circle clip-path="url(#clip241)" style="fill:#009af9; stroke:none; fill-opacity:0" cx="1339.48" cy="1662.19" r="2"/>
<circle clip-path="url(#clip241)" style="fill:#009af9; stroke:none; fill-opacity:0" cx="1441.16" cy="1694.16" r="2"/>
<circle clip-path="url(#clip241)" style="fill:#009af9; stroke:none; fill-opacity:0" cx="1542.84" cy="1702.15" r="2"/>
<circle clip-path="url(#clip241)" style="fill:#009af9; stroke:none; fill-opacity:0" cx="1644.52" cy="1715.47" r="2"/>
<circle clip-path="url(#clip241)" style="fill:#009af9; stroke:none; fill-opacity:0" cx="1746.2" cy="1728.79" r="2"/>
<circle clip-path="url(#clip241)" style="fill:#009af9; stroke:none; fill-opacity:0" cx="1847.88" cy="1726.13" r="2"/>
<circle clip-path="url(#clip241)" style="fill:#009af9; stroke:none; fill-opacity:0" cx="1949.56" cy="1726.13" r="2"/>
<circle clip-path="url(#clip241)" style="fill:#009af9; stroke:none; fill-opacity:0" cx="2051.24" cy="1728.79" r="2"/>
<circle clip-path="url(#clip241)" style="fill:#009af9; stroke:none; fill-opacity:0" cx="2152.92" cy="1731.45" r="2"/>
<circle clip-path="url(#clip241)" style="fill:#009af9; stroke:none; fill-opacity:0" cx="2254.6" cy="1731.45" r="2"/>
<circle clip-path="url(#clip241)" style="fill:#009af9; stroke:none; fill-opacity:0" cx="2356.28" cy="1734.12" r="2"/>
<circle clip-path="url(#clip241)" style="fill:#009af9; stroke:none; fill-opacity:0" cx="2457.96" cy="1731.45" r="2"/>
<polyline clip-path="url(#clip241)" style="stroke:#ff0000; stroke-linecap:round; stroke-linejoin:round; stroke-width:12; stroke-opacity:1; fill:none" points="373.517,741.903 424.357,904.279 475.197,1040.08 526.037,1153.66 576.877,1248.65 627.717,1328.1 678.557,1394.54 729.397,1450.12 780.237,1496.59 831.077,1535.46 881.917,1567.97 932.757,1595.16 983.597,1617.9 1034.44,1636.92 1085.28,1652.83 1136.12,1666.13 1186.96,1677.26 1237.8,1686.56 1288.64,1694.34 1339.48,1700.85 1390.32,1706.3 1441.16,1710.85 1492,1714.66 1542.84,1717.84 1593.68,1720.51 1644.52,1722.73 1695.36,1724.6 1746.2,1726.15 1797.04,1727.46 1847.88,1728.55 1898.72,1729.46 1949.56,1730.22 2000.4,1730.86 2051.24,1731.39 2102.08,1731.84 2152.92,1732.21 2203.76,1732.52 2254.6,1732.78 2305.44,1733 2356.28,1733.18 2407.12,1733.34 "/>
<path clip-path="url(#clip240)" d="M1654.73 336.856 L2560.78 336.856 L2560.78 181.336 L1654.73 181.336  Z" fill="#ffffff" fill-rule="evenodd" fill-opacity="1"/>
<polyline clip-path="url(#clip240)" style="stroke:#000000; stroke-linecap:round; stroke-linejoin:round; stroke-width:4; stroke-opacity:1; fill:none" points="1654.73,336.856 2560.78,336.856 2560.78,181.336 1654.73,181.336 1654.73,336.856 "/>
<path clip-path="url(#clip240)" d="M1681.39 253.912 L1841.34 253.912 L1841.34 212.44 L1681.39 212.44 L1681.39 253.912  Z" fill="#009af9" fill-rule="evenodd" fill-opacity="0.7"/>
<polyline clip-path="url(#clip240)" style="stroke:#000000; stroke-linecap:round; stroke-linejoin:round; stroke-width:4; stroke-opacity:1; fill:none" points="1681.39,253.912 1841.34,253.912 1841.34,212.44 1681.39,212.44 1681.39,253.912 "/>
<path clip-path="url(#clip240)" d="M1884.01 219.068 Q1878.92 219.068 1875.91 222.864 Q1872.92 226.66 1872.92 233.211 Q1872.92 239.739 1875.91 243.535 Q1878.92 247.331 1884.01 247.331 Q1889.11 247.331 1892.07 243.535 Q1895.05 239.739 1895.05 233.211 Q1895.05 226.66 1892.07 222.864 Q1889.11 219.068 1884.01 219.068 M1884.01 215.271 Q1891.28 215.271 1895.63 220.156 Q1899.98 225.017 1899.98 233.211 Q1899.98 241.382 1895.63 246.266 Q1891.28 251.128 1884.01 251.128 Q1876.72 251.128 1872.35 246.266 Q1867.99 241.405 1867.99 233.211 Q1867.99 225.017 1872.35 220.156 Q1876.72 215.271 1884.01 215.271 Z" fill="#000000" fill-rule="nonzero" fill-opacity="1" /><path clip-path="url(#clip240)" d="M1925.73 237.517 Q1925.73 232.817 1923.78 230.155 Q1921.86 227.47 1918.48 227.47 Q1915.1 227.47 1913.16 230.155 Q1911.23 232.817 1911.23 237.517 Q1911.23 242.216 1913.16 244.901 Q1915.1 247.563 1918.48 247.563 Q1921.86 247.563 1923.78 244.901 Q1925.73 242.216 1925.73 237.517 M1911.23 228.466 Q1912.58 226.151 1914.61 225.04 Q1916.67 223.906 1919.52 223.906 Q1924.24 223.906 1927.18 227.655 Q1930.15 231.405 1930.15 237.517 Q1930.15 243.628 1927.18 247.378 Q1924.24 251.128 1919.52 251.128 Q1916.67 251.128 1914.61 250.016 Q1912.58 248.882 1911.23 246.567 L1911.23 250.456 L1906.95 250.456 L1906.95 214.438 L1911.23 214.438 L1911.23 228.466 Z" fill="#000000" fill-rule="nonzero" fill-opacity="1" /><path clip-path="url(#clip240)" d="M1953.73 225.294 L1953.73 229.322 Q1951.93 228.396 1949.98 227.933 Q1948.04 227.47 1945.96 227.47 Q1942.79 227.47 1941.19 228.443 Q1939.61 229.415 1939.61 231.359 Q1939.61 232.841 1940.75 233.697 Q1941.88 234.53 1945.31 235.294 L1946.77 235.618 Q1951.3 236.591 1953.2 238.373 Q1955.12 240.132 1955.12 243.304 Q1955.12 246.915 1952.25 249.021 Q1949.41 251.128 1944.41 251.128 Q1942.32 251.128 1940.05 250.711 Q1937.81 250.317 1935.31 249.507 L1935.31 245.109 Q1937.67 246.336 1939.96 246.961 Q1942.25 247.563 1944.5 247.563 Q1947.51 247.563 1949.13 246.544 Q1950.75 245.503 1950.75 243.628 Q1950.75 241.892 1949.57 240.966 Q1948.41 240.04 1944.45 239.183 L1942.97 238.836 Q1939.01 238.003 1937.25 236.29 Q1935.49 234.554 1935.49 231.544 Q1935.49 227.887 1938.09 225.896 Q1940.68 223.906 1945.45 223.906 Q1947.81 223.906 1949.89 224.253 Q1951.98 224.6 1953.73 225.294 Z" fill="#000000" fill-rule="nonzero" fill-opacity="1" /><path clip-path="url(#clip240)" d="M1984.08 236.429 L1984.08 238.512 L1964.5 238.512 Q1964.78 242.91 1967.14 245.225 Q1969.52 247.516 1973.76 247.516 Q1976.21 247.516 1978.5 246.915 Q1980.82 246.313 1983.09 245.109 L1983.09 249.137 Q1980.79 250.109 1978.39 250.618 Q1975.98 251.128 1973.5 251.128 Q1967.3 251.128 1963.66 247.516 Q1960.05 243.905 1960.05 237.748 Q1960.05 231.382 1963.48 227.655 Q1966.93 223.906 1972.76 223.906 Q1977.99 223.906 1981.03 227.285 Q1984.08 230.642 1984.08 236.429 M1979.82 235.179 Q1979.78 231.683 1977.85 229.6 Q1975.96 227.517 1972.81 227.517 Q1969.24 227.517 1967.09 229.53 Q1964.96 231.544 1964.64 235.202 L1979.82 235.179 Z" fill="#000000" fill-rule="nonzero" fill-opacity="1" /><path clip-path="url(#clip240)" d="M2006.1 228.512 Q2005.38 228.095 2004.52 227.91 Q2003.69 227.702 2002.67 227.702 Q1999.06 227.702 1997.11 230.063 Q1995.19 232.401 1995.19 236.799 L1995.19 250.456 L1990.91 250.456 L1990.91 224.531 L1995.19 224.531 L1995.19 228.558 Q1996.54 226.197 1998.69 225.063 Q2000.84 223.906 2003.92 223.906 Q2004.36 223.906 2004.89 223.975 Q2005.42 224.021 2006.07 224.137 L2006.1 228.512 Z" fill="#000000" fill-rule="nonzero" fill-opacity="1" /><path clip-path="url(#clip240)" d="M2007.51 224.531 L2012.02 224.531 L2020.12 246.29 L2028.22 224.531 L2032.74 224.531 L2023.02 250.456 L2017.23 250.456 L2007.51 224.531 Z" fill="#000000" fill-rule="nonzero" fill-opacity="1" /><path clip-path="url(#clip240)" d="M2060.79 236.429 L2060.79 238.512 L2041.21 238.512 Q2041.49 242.91 2043.85 245.225 Q2046.23 247.516 2050.47 247.516 Q2052.92 247.516 2055.22 246.915 Q2057.53 246.313 2059.8 245.109 L2059.8 249.137 Q2057.51 250.109 2055.1 250.618 Q2052.69 251.128 2050.22 251.128 Q2044.01 251.128 2040.38 247.516 Q2036.77 243.905 2036.77 237.748 Q2036.77 231.382 2040.19 227.655 Q2043.64 223.906 2049.47 223.906 Q2054.71 223.906 2057.74 227.285 Q2060.79 230.642 2060.79 236.429 M2056.53 235.179 Q2056.49 231.683 2054.57 229.6 Q2052.67 227.517 2049.52 227.517 Q2045.96 227.517 2043.8 229.53 Q2041.67 231.544 2041.35 235.202 L2056.53 235.179 Z" fill="#000000" fill-rule="nonzero" fill-opacity="1" /><path clip-path="url(#clip240)" d="M2084.84 228.466 L2084.84 214.438 L2089.1 214.438 L2089.1 250.456 L2084.84 250.456 L2084.84 246.567 Q2083.5 248.882 2081.44 250.016 Q2079.41 251.128 2076.53 251.128 Q2071.84 251.128 2068.87 247.378 Q2065.93 243.628 2065.93 237.517 Q2065.93 231.405 2068.87 227.655 Q2071.84 223.906 2076.53 223.906 Q2079.41 223.906 2081.44 225.04 Q2083.5 226.151 2084.84 228.466 M2070.33 237.517 Q2070.33 242.216 2072.25 244.901 Q2074.2 247.563 2077.58 247.563 Q2080.96 247.563 2082.9 244.901 Q2084.84 242.216 2084.84 237.517 Q2084.84 232.817 2082.9 230.155 Q2080.96 227.47 2077.58 227.47 Q2074.2 227.47 2072.25 230.155 Q2070.33 232.817 2070.33 237.517 Z" fill="#000000" fill-rule="nonzero" fill-opacity="1" /><path clip-path="url(#clip240)" d="M2127.97 228.512 Q2127.25 228.095 2126.4 227.91 Q2125.56 227.702 2124.54 227.702 Q2120.93 227.702 2118.99 230.063 Q2117.07 232.401 2117.07 236.799 L2117.07 250.456 L2112.78 250.456 L2112.78 224.531 L2117.07 224.531 L2117.07 228.558 Q2118.41 226.197 2120.56 225.063 Q2122.72 223.906 2125.79 223.906 Q2126.23 223.906 2126.77 223.975 Q2127.3 224.021 2127.95 224.137 L2127.97 228.512 Z" fill="#000000" fill-rule="nonzero" fill-opacity="1" /><path clip-path="url(#clip240)" d="M2153.57 236.429 L2153.57 238.512 L2133.99 238.512 Q2134.27 242.91 2136.63 245.225 Q2139.01 247.516 2143.25 247.516 Q2145.7 247.516 2147.99 246.915 Q2150.31 246.313 2152.58 245.109 L2152.58 249.137 Q2150.28 250.109 2147.88 250.618 Q2145.47 251.128 2142.99 251.128 Q2136.79 251.128 2133.15 247.516 Q2129.54 243.905 2129.54 237.748 Q2129.54 231.382 2132.97 227.655 Q2136.42 223.906 2142.25 223.906 Q2147.48 223.906 2150.52 227.285 Q2153.57 230.642 2153.57 236.429 M2149.31 235.179 Q2149.27 231.683 2147.34 229.6 Q2145.45 227.517 2142.3 227.517 Q2138.73 227.517 2136.58 229.53 Q2134.45 231.544 2134.13 235.202 L2149.31 235.179 Z" fill="#000000" fill-rule="nonzero" fill-opacity="1" /><path clip-path="url(#clip240)" d="M2179.22 225.526 L2179.22 229.507 Q2177.41 228.512 2175.59 228.026 Q2173.78 227.517 2171.93 227.517 Q2167.78 227.517 2165.49 230.155 Q2163.2 232.771 2163.2 237.517 Q2163.2 242.262 2165.49 244.901 Q2167.78 247.516 2171.93 247.516 Q2173.78 247.516 2175.59 247.03 Q2177.41 246.521 2179.22 245.526 L2179.22 249.461 Q2177.44 250.294 2175.52 250.711 Q2173.62 251.128 2171.46 251.128 Q2165.61 251.128 2162.16 247.447 Q2158.71 243.767 2158.71 237.517 Q2158.71 231.174 2162.18 227.54 Q2165.68 223.906 2171.74 223.906 Q2173.71 223.906 2175.59 224.322 Q2177.46 224.716 2179.22 225.526 Z" fill="#000000" fill-rule="nonzero" fill-opacity="1" /><path clip-path="url(#clip240)" d="M2196.67 227.517 Q2193.25 227.517 2191.26 230.202 Q2189.27 232.864 2189.27 237.517 Q2189.27 242.169 2191.23 244.854 Q2193.22 247.516 2196.67 247.516 Q2200.08 247.516 2202.07 244.831 Q2204.06 242.146 2204.06 237.517 Q2204.06 232.91 2202.07 230.225 Q2200.08 227.517 2196.67 227.517 M2196.67 223.906 Q2202.23 223.906 2205.4 227.517 Q2208.57 231.128 2208.57 237.517 Q2208.57 243.882 2205.4 247.516 Q2202.23 251.128 2196.67 251.128 Q2191.09 251.128 2187.92 247.516 Q2184.77 243.882 2184.77 237.517 Q2184.77 231.128 2187.92 227.517 Q2191.09 223.906 2196.67 223.906 Z" fill="#000000" fill-rule="nonzero" fill-opacity="1" /><path clip-path="url(#clip240)" d="M2212.58 224.531 L2217.09 224.531 L2225.19 246.29 L2233.29 224.531 L2237.81 224.531 L2228.08 250.456 L2222.3 250.456 L2212.58 224.531 Z" fill="#000000" fill-rule="nonzero" fill-opacity="1" /><path clip-path="url(#clip240)" d="M2265.86 236.429 L2265.86 238.512 L2246.28 238.512 Q2246.56 242.91 2248.92 245.225 Q2251.3 247.516 2255.54 247.516 Q2257.99 247.516 2260.28 246.915 Q2262.6 246.313 2264.87 245.109 L2264.87 249.137 Q2262.58 250.109 2260.17 250.618 Q2257.76 251.128 2255.28 251.128 Q2249.08 251.128 2245.45 247.516 Q2241.83 243.905 2241.83 237.748 Q2241.83 231.382 2245.26 227.655 Q2248.71 223.906 2254.54 223.906 Q2259.77 223.906 2262.81 227.285 Q2265.86 230.642 2265.86 236.429 M2261.6 235.179 Q2261.56 231.683 2259.64 229.6 Q2257.74 227.517 2254.59 227.517 Q2251.02 227.517 2248.87 229.53 Q2246.74 231.544 2246.42 235.202 L2261.6 235.179 Z" fill="#000000" fill-rule="nonzero" fill-opacity="1" /><path clip-path="url(#clip240)" d="M2287.88 228.512 Q2287.16 228.095 2286.3 227.91 Q2285.47 227.702 2284.45 227.702 Q2280.84 227.702 2278.89 230.063 Q2276.97 232.401 2276.97 236.799 L2276.97 250.456 L2272.69 250.456 L2272.69 224.531 L2276.97 224.531 L2276.97 228.558 Q2278.32 226.197 2280.47 225.063 Q2282.62 223.906 2285.7 223.906 Q2286.14 223.906 2286.67 223.975 Q2287.2 224.021 2287.85 224.137 L2287.88 228.512 Z" fill="#000000" fill-rule="nonzero" fill-opacity="1" /><path clip-path="url(#clip240)" d="M2303.13 252.864 Q2301.33 257.493 2299.61 258.905 Q2297.9 260.317 2295.03 260.317 L2291.63 260.317 L2291.63 256.753 L2294.13 256.753 Q2295.89 256.753 2296.86 255.919 Q2297.83 255.086 2299.01 251.984 L2299.77 250.04 L2289.29 224.531 L2293.8 224.531 L2301.9 244.808 L2310.01 224.531 L2314.52 224.531 L2303.13 252.864 Z" fill="#000000" fill-rule="nonzero" fill-opacity="1" /><path clip-path="url(#clip240)" d="M2335.47 224.531 L2339.73 224.531 L2339.73 250.456 L2335.47 250.456 L2335.47 224.531 M2335.47 214.438 L2339.73 214.438 L2339.73 219.831 L2335.47 219.831 L2335.47 214.438 Z" fill="#000000" fill-rule="nonzero" fill-opacity="1" /><path clip-path="url(#clip240)" d="M2370.19 234.808 L2370.19 250.456 L2365.93 250.456 L2365.93 234.947 Q2365.93 231.267 2364.5 229.438 Q2363.06 227.609 2360.19 227.609 Q2356.74 227.609 2354.75 229.808 Q2352.76 232.007 2352.76 235.804 L2352.76 250.456 L2348.48 250.456 L2348.48 224.531 L2352.76 224.531 L2352.76 228.558 Q2354.29 226.22 2356.35 225.063 Q2358.43 223.906 2361.14 223.906 Q2365.61 223.906 2367.9 226.683 Q2370.19 229.438 2370.19 234.808 Z" fill="#000000" fill-rule="nonzero" fill-opacity="1" /><path clip-path="url(#clip240)" d="M2382.9 217.169 L2382.9 224.531 L2391.67 224.531 L2391.67 227.841 L2382.9 227.841 L2382.9 241.915 Q2382.9 245.086 2383.76 245.989 Q2384.63 246.891 2387.3 246.891 L2391.67 246.891 L2391.67 250.456 L2387.3 250.456 Q2382.37 250.456 2380.49 248.628 Q2378.62 246.776 2378.62 241.915 L2378.62 227.841 L2375.49 227.841 L2375.49 224.531 L2378.62 224.531 L2378.62 217.169 L2382.9 217.169 Z" fill="#000000" fill-rule="nonzero" fill-opacity="1" /><path clip-path="url(#clip240)" d="M2419.45 236.429 L2419.45 238.512 L2399.87 238.512 Q2400.14 242.91 2402.51 245.225 Q2404.89 247.516 2409.13 247.516 Q2411.58 247.516 2413.87 246.915 Q2416.19 246.313 2418.45 245.109 L2418.45 249.137 Q2416.16 250.109 2413.76 250.618 Q2411.35 251.128 2408.87 251.128 Q2402.67 251.128 2399.03 247.516 Q2395.42 243.905 2395.42 237.748 Q2395.42 231.382 2398.85 227.655 Q2402.3 223.906 2408.13 223.906 Q2413.36 223.906 2416.39 227.285 Q2419.45 230.642 2419.45 236.429 M2415.19 235.179 Q2415.14 231.683 2413.22 229.6 Q2411.32 227.517 2408.18 227.517 Q2404.61 227.517 2402.46 229.53 Q2400.33 231.544 2400.01 235.202 L2415.19 235.179 Z" fill="#000000" fill-rule="nonzero" fill-opacity="1" /><path clip-path="url(#clip240)" d="M2441.46 228.512 Q2440.75 228.095 2439.89 227.91 Q2439.06 227.702 2438.04 227.702 Q2434.43 227.702 2432.48 230.063 Q2430.56 232.401 2430.56 236.799 L2430.56 250.456 L2426.28 250.456 L2426.28 224.531 L2430.56 224.531 L2430.56 228.558 Q2431.9 226.197 2434.06 225.063 Q2436.21 223.906 2439.29 223.906 Q2439.73 223.906 2440.26 223.975 Q2440.79 224.021 2441.44 224.137 L2441.46 228.512 Z" fill="#000000" fill-rule="nonzero" fill-opacity="1" /><path clip-path="url(#clip240)" d="M2442.88 224.531 L2447.39 224.531 L2455.49 246.29 L2463.59 224.531 L2468.11 224.531 L2458.38 250.456 L2452.6 250.456 L2442.88 224.531 Z" fill="#000000" fill-rule="nonzero" fill-opacity="1" /><path clip-path="url(#clip240)" d="M2485.77 237.424 Q2480.61 237.424 2478.62 238.604 Q2476.63 239.785 2476.63 242.632 Q2476.63 244.901 2478.11 246.243 Q2479.61 247.563 2482.18 247.563 Q2485.72 247.563 2487.85 245.063 Q2490 242.54 2490 238.373 L2490 237.424 L2485.77 237.424 M2494.26 235.665 L2494.26 250.456 L2490 250.456 L2490 246.521 Q2488.55 248.882 2486.37 250.016 Q2484.19 251.128 2481.05 251.128 Q2477.06 251.128 2474.7 248.905 Q2472.37 246.66 2472.37 242.91 Q2472.37 238.535 2475.28 236.313 Q2478.22 234.091 2484.03 234.091 L2490 234.091 L2490 233.674 Q2490 230.734 2488.06 229.137 Q2486.14 227.517 2482.64 227.517 Q2480.42 227.517 2478.31 228.049 Q2476.21 228.581 2474.26 229.646 L2474.26 225.711 Q2476.6 224.808 2478.8 224.368 Q2481 223.906 2483.08 223.906 Q2488.71 223.906 2491.49 226.822 Q2494.26 229.739 2494.26 235.665 Z" fill="#000000" fill-rule="nonzero" fill-opacity="1" /><path clip-path="url(#clip240)" d="M2503.04 214.438 L2507.3 214.438 L2507.3 250.456 L2503.04 250.456 L2503.04 214.438 Z" fill="#000000" fill-rule="nonzero" fill-opacity="1" /><path clip-path="url(#clip240)" d="M2532.74 225.294 L2532.74 229.322 Q2530.93 228.396 2528.99 227.933 Q2527.04 227.47 2524.96 227.47 Q2521.79 227.47 2520.19 228.443 Q2518.62 229.415 2518.62 231.359 Q2518.62 232.841 2519.75 233.697 Q2520.88 234.53 2524.31 235.294 L2525.77 235.618 Q2530.31 236.591 2532.2 238.373 Q2534.12 240.132 2534.12 243.304 Q2534.12 246.915 2531.25 249.021 Q2528.41 251.128 2523.41 251.128 Q2521.32 251.128 2519.06 250.711 Q2516.81 250.317 2514.31 249.507 L2514.31 245.109 Q2516.67 246.336 2518.96 246.961 Q2521.25 247.563 2523.5 247.563 Q2526.51 247.563 2528.13 246.544 Q2529.75 245.503 2529.75 243.628 Q2529.75 241.892 2528.57 240.966 Q2527.41 240.04 2523.45 239.183 L2521.97 238.836 Q2518.01 238.003 2516.25 236.29 Q2514.5 234.554 2514.5 231.544 Q2514.5 227.887 2517.09 225.896 Q2519.68 223.906 2524.45 223.906 Q2526.81 223.906 2528.89 224.253 Q2530.98 224.6 2532.74 225.294 Z" fill="#000000" fill-rule="nonzero" fill-opacity="1" /><polyline clip-path="url(#clip240)" style="stroke:#ff0000; stroke-linecap:round; stroke-linejoin:round; stroke-width:12; stroke-opacity:1; fill:none" points="1681.39,285.016 1841.34,285.016 "/>
<path clip-path="url(#clip240)" d="M1867.99 267.736 L1887.86 267.736 L1887.86 271.671 L1872.67 271.671 L1872.67 281.857 L1886.37 281.857 L1886.37 285.792 L1872.67 285.792 L1872.67 302.296 L1867.99 302.296 L1867.99 267.736 Z" fill="#000000" fill-rule="nonzero" fill-opacity="1" /><path clip-path="url(#clip240)" d="M1891.63 276.371 L1895.89 276.371 L1895.89 302.296 L1891.63 302.296 L1891.63 276.371 M1891.63 266.278 L1895.89 266.278 L1895.89 271.671 L1891.63 271.671 L1891.63 266.278 Z" fill="#000000" fill-rule="nonzero" fill-opacity="1" /><path clip-path="url(#clip240)" d="M1909.01 269.009 L1909.01 276.371 L1917.79 276.371 L1917.79 279.681 L1909.01 279.681 L1909.01 293.755 Q1909.01 296.926 1909.87 297.829 Q1910.75 298.731 1913.41 298.731 L1917.79 298.731 L1917.79 302.296 L1913.41 302.296 Q1908.48 302.296 1906.61 300.468 Q1904.73 298.616 1904.73 293.755 L1904.73 279.681 L1901.61 279.681 L1901.61 276.371 L1904.73 276.371 L1904.73 269.009 L1909.01 269.009 Z" fill="#000000" fill-rule="nonzero" fill-opacity="1" /><path clip-path="url(#clip240)" d="M1927.6 269.009 L1927.6 276.371 L1936.37 276.371 L1936.37 279.681 L1927.6 279.681 L1927.6 293.755 Q1927.6 296.926 1928.46 297.829 Q1929.34 298.731 1932 298.731 L1936.37 298.731 L1936.37 302.296 L1932 302.296 Q1927.07 302.296 1925.19 300.468 Q1923.32 298.616 1923.32 293.755 L1923.32 279.681 L1920.19 279.681 L1920.19 276.371 L1923.32 276.371 L1923.32 269.009 L1927.6 269.009 Z" fill="#000000" fill-rule="nonzero" fill-opacity="1" /><path clip-path="url(#clip240)" d="M1964.15 288.269 L1964.15 290.352 L1944.57 290.352 Q1944.85 294.75 1947.21 297.065 Q1949.59 299.356 1953.83 299.356 Q1956.28 299.356 1958.57 298.755 Q1960.89 298.153 1963.16 296.949 L1963.16 300.977 Q1960.86 301.949 1958.46 302.458 Q1956.05 302.968 1953.57 302.968 Q1947.37 302.968 1943.73 299.356 Q1940.12 295.745 1940.12 289.588 Q1940.12 283.222 1943.55 279.495 Q1947 275.746 1952.83 275.746 Q1958.06 275.746 1961.1 279.125 Q1964.15 282.482 1964.15 288.269 M1959.89 287.019 Q1959.85 283.523 1957.92 281.44 Q1956.03 279.357 1952.88 279.357 Q1949.31 279.357 1947.16 281.37 Q1945.03 283.384 1944.71 287.042 L1959.89 287.019 Z" fill="#000000" fill-rule="nonzero" fill-opacity="1" /><path clip-path="url(#clip240)" d="M1988.2 280.306 L1988.2 266.278 L1992.46 266.278 L1992.46 302.296 L1988.2 302.296 L1988.2 298.407 Q1986.86 300.722 1984.8 301.856 Q1982.76 302.968 1979.89 302.968 Q1975.19 302.968 1972.23 299.218 Q1969.29 295.468 1969.29 289.357 Q1969.29 283.245 1972.23 279.495 Q1975.19 275.746 1979.89 275.746 Q1982.76 275.746 1984.8 276.88 Q1986.86 277.991 1988.2 280.306 M1973.69 289.357 Q1973.69 294.056 1975.61 296.741 Q1977.55 299.403 1980.93 299.403 Q1984.31 299.403 1986.26 296.741 Q1988.2 294.056 1988.2 289.357 Q1988.2 284.657 1986.26 281.995 Q1984.31 279.31 1980.93 279.31 Q1977.55 279.31 1975.61 281.995 Q1973.69 284.657 1973.69 289.357 Z" fill="#000000" fill-rule="nonzero" fill-opacity="1" /></svg>
