<?xml version="1.0" encoding="utf-8"?>
<svg xmlns="http://www.w3.org/2000/svg" xmlns:xlink="http://www.w3.org/1999/xlink" width="672" height="480" viewBox="0 0 2688 1920">
<defs>
  <clipPath id="clip300">
    <rect x="0" y="0" width="2688" height="1920"/>
  </clipPath>
</defs>
<path clip-path="url(#clip300)" d="M0 1920 L2688 1920 L2688 -4.26326e-14 L0 -4.26326e-14  Z" fill="#ffffff" fill-rule="evenodd" fill-opacity="1"/>
<defs>
  <clipPath id="clip301">
    <rect x="316" y="127" width="2326" height="1607"/>
  </clipPath>
</defs>
<path clip-path="url(#clip300)" d="M316.14 1734.12 L2640.76 1734.12 L2640.76 127.792 L316.14 127.792  Z" fill="#ffffff" fill-rule="evenodd" fill-opacity="1"/>
<polyline clip-path="url(#clip301)" style="stroke:#000000; stroke-linecap:round; stroke-linejoin:round; stroke-width:2; stroke-opacity:0.1; fill:none" points="682.717,1734.12 682.717,127.792 "/>
<polyline clip-path="url(#clip301)" style="stroke:#000000; stroke-linecap:round; stroke-linejoin:round; stroke-width:2; stroke-opacity:0.1; fill:none" points="1080.58,1734.12 1080.58,127.792 "/>
<polyline clip-path="url(#clip301)" style="stroke:#000000; stroke-linecap:round; stroke-linejoin:round; stroke-width:2; stroke-opacity:0.1; fill:none" points="1478.45,1734.12 1478.45,127.792 "/>
<polyline clip-path="url(#clip301)" style="stroke:#000000; stroke-linecap:round; stroke-linejoin:round; stroke-width:2; stroke-opacity:0.1; fill:none" points="1876.31,1734.12 1876.31,127.792 "/>
<polyline clip-path="url(#clip301)" style="stroke:#000000; stroke-linecap:round; stroke-linejoin:round; stroke-width:2; stroke-opacity:0.1; fill:none" points="2274.18,1734.12 2274.18,127.792 "/>
<polyline clip-path="url(#clip301)" style="stroke:#000000; stroke-linecap:round; stroke-linejoin:round; stroke-width:2; stroke-opacity:0.1; fill:none" points="316.14,1734.12 2640.76,1734.12 "/>
<polyline clip-path="url(#clip301)" style="stroke:#000000; stroke-linecap:round; stroke-linejoin:round; stroke-width:2; stroke-opacity:0.1; fill:none" points="316.14,1358.81 2640.76,1358.81 "/>
<polyline clip-path="url(#clip301)" style="stroke:#000000; stroke-linecap:round; stroke-linejoin:round; stroke-width:2; stroke-opacity:0.1; fill:none" points="316.14,983.498 2640.76,983.498 "/>
<polyline clip-path="url(#clip301)" style="stroke:#000000; stroke-linecap:round; stroke-linejoin:round; stroke-width:2; stroke-opacity:0.1; fill:none" points="316.14,608.188 2640.76,608.188 "/>
<polyline clip-path="url(#clip301)" style="stroke:#000000; stroke-linecap:round; stroke-linejoin:round; stroke-width:2; stroke-opacity:0.1; fill:none" points="316.14,232.879 2640.76,232.879 "/>
<polyline clip-path="url(#clip300)" style="stroke:#000000; stroke-linecap:round; stroke-linejoin:round; stroke-width:4; stroke-opacity:1; fill:none" points="316.14,1734.12 2640.76,1734.12 "/>
<polyline clip-path="url(#clip300)" style="stroke:#000000; stroke-linecap:round; stroke-linejoin:round; stroke-width:4; stroke-opacity:1; fill:none" points="682.717,1734.12 682.717,1715.22 "/>
<polyline clip-path="url(#clip300)" style="stroke:#000000; stroke-linecap:round; stroke-linejoin:round; stroke-width:4; stroke-opacity:1; fill:none" points="1080.58,1734.12 1080.58,1715.22 "/>
<polyline clip-path="url(#clip300)" style="stroke:#000000; stroke-linecap:round; stroke-linejoin:round; stroke-width:4; stroke-opacity:1; fill:none" points="1478.45,1734.12 1478.45,1715.22 "/>
<polyline clip-path="url(#clip300)" style="stroke:#000000; stroke-linecap:round; stroke-linejoin:round; stroke-width:4; stroke-opacity:1; fill:none" points="1876.31,1734.12 1876.31,1715.22 "/>
<polyline clip-path="url(#clip300)" style="stroke:#000000; stroke-linecap:round; stroke-linejoin:round; stroke-width:4; stroke-opacity:1; fill:none" points="2274.18,1734.12 2274.18,1715.22 "/>
<path clip-path="url(#clip300)" d="M631.329 1794.89 L647.648 1794.89 L647.648 1798.82 L625.704 1798.82 L625.704 1794.89 Q628.366 1792.13 632.949 1787.5 Q637.555 1782.85 638.736 1781.51 Q640.981 1778.98 641.861 1777.25 Q642.764 1775.49 642.764 1773.8 Q642.764 1771.04 640.819 1769.31 Q638.898 1767.57 635.796 1767.57 Q633.597 1767.57 631.143 1768.34 Q628.713 1769.1 625.935 1770.65 L625.935 1765.93 Q628.759 1764.79 631.213 1764.21 Q633.667 1763.64 635.704 1763.64 Q641.074 1763.64 644.268 1766.32 Q647.463 1769.01 647.463 1773.5 Q647.463 1775.63 646.653 1777.55 Q645.866 1779.45 643.759 1782.04 Q643.18 1782.71 640.079 1785.93 Q636.977 1789.12 631.329 1794.89 Z" fill="#000000" fill-rule="nonzero" fill-opacity="1" /><path clip-path="url(#clip300)" d="M658.273 1794.89 L665.912 1794.89 L665.912 1768.52 L657.602 1770.19 L657.602 1765.93 L665.866 1764.26 L670.541 1764.26 L670.541 1794.89 L678.18 1794.89 L678.18 1798.82 L658.273 1798.82 L658.273 1794.89 Z" fill="#000000" fill-rule="nonzero" fill-opacity="1" /><path clip-path="url(#clip300)" d="M687.671 1764.26 L706.027 1764.26 L706.027 1768.2 L691.953 1768.2 L691.953 1776.67 Q692.972 1776.32 693.99 1776.16 Q695.009 1775.97 696.027 1775.97 Q701.814 1775.97 705.194 1779.15 Q708.574 1782.32 708.574 1787.73 Q708.574 1793.31 705.101 1796.41 Q701.629 1799.49 695.31 1799.49 Q693.134 1799.49 690.865 1799.12 Q688.62 1798.75 686.213 1798.01 L686.213 1793.31 Q688.296 1794.45 690.518 1795 Q692.74 1795.56 695.217 1795.56 Q699.222 1795.56 701.56 1793.45 Q703.898 1791.34 703.898 1787.73 Q703.898 1784.12 701.56 1782.02 Q699.222 1779.91 695.217 1779.91 Q693.342 1779.91 691.467 1780.33 Q689.615 1780.74 687.671 1781.62 L687.671 1764.26 Z" fill="#000000" fill-rule="nonzero" fill-opacity="1" /><path clip-path="url(#clip300)" d="M727.786 1767.34 Q724.175 1767.34 722.347 1770.9 Q720.541 1774.45 720.541 1781.58 Q720.541 1788.68 722.347 1792.25 Q724.175 1795.79 727.786 1795.79 Q731.421 1795.79 733.226 1792.25 Q735.055 1788.68 735.055 1781.58 Q735.055 1774.45 733.226 1770.9 Q731.421 1767.34 727.786 1767.34 M727.786 1763.64 Q733.597 1763.64 736.652 1768.24 Q739.731 1772.83 739.731 1781.58 Q739.731 1790.3 736.652 1794.91 Q733.597 1799.49 727.786 1799.49 Q721.976 1799.49 718.898 1794.91 Q715.842 1790.3 715.842 1781.58 Q715.842 1772.83 718.898 1768.24 Q721.976 1763.64 727.786 1763.64 Z" fill="#000000" fill-rule="nonzero" fill-opacity="1" /><path clip-path="url(#clip300)" d="M1029.19 1794.89 L1045.51 1794.89 L1045.51 1798.82 L1023.57 1798.82 L1023.57 1794.89 Q1026.23 1792.13 1030.81 1787.5 Q1035.42 1782.85 1036.6 1781.51 Q1038.85 1778.98 1039.73 1777.25 Q1040.63 1775.49 1040.63 1773.8 Q1040.63 1771.04 1038.68 1769.31 Q1036.76 1767.57 1033.66 1767.57 Q1031.46 1767.57 1029.01 1768.34 Q1026.58 1769.1 1023.8 1770.65 L1023.8 1765.93 Q1026.62 1764.79 1029.08 1764.21 Q1031.53 1763.64 1033.57 1763.64 Q1038.94 1763.64 1042.13 1766.32 Q1045.33 1769.01 1045.33 1773.5 Q1045.33 1775.63 1044.52 1777.55 Q1043.73 1779.45 1041.62 1782.04 Q1041.05 1782.71 1037.94 1785.93 Q1034.84 1789.12 1029.19 1794.89 Z" fill="#000000" fill-rule="nonzero" fill-opacity="1" /><path clip-path="url(#clip300)" d="M1059.36 1794.89 L1075.68 1794.89 L1075.68 1798.82 L1053.73 1798.82 L1053.73 1794.89 Q1056.39 1792.13 1060.98 1787.5 Q1065.58 1782.85 1066.76 1781.51 Q1069.01 1778.98 1069.89 1777.25 Q1070.79 1775.49 1070.79 1773.8 Q1070.79 1771.04 1068.85 1769.31 Q1066.93 1767.57 1063.82 1767.57 Q1061.62 1767.57 1059.17 1768.34 Q1056.74 1769.1 1053.96 1770.65 L1053.96 1765.93 Q1056.79 1764.79 1059.24 1764.21 Q1061.69 1763.64 1063.73 1763.64 Q1069.1 1763.64 1072.3 1766.32 Q1075.49 1769.01 1075.49 1773.5 Q1075.49 1775.63 1074.68 1777.55 Q1073.89 1779.45 1071.79 1782.04 Q1071.21 1782.71 1068.11 1785.93 Q1065 1789.12 1059.36 1794.89 Z" fill="#000000" fill-rule="nonzero" fill-opacity="1" /><path clip-path="url(#clip300)" d="M1095.49 1767.34 Q1091.88 1767.34 1090.05 1770.9 Q1088.24 1774.45 1088.24 1781.58 Q1088.24 1788.68 1090.05 1792.25 Q1091.88 1795.79 1095.49 1795.79 Q1099.12 1795.79 1100.93 1792.25 Q1102.76 1788.68 1102.76 1781.58 Q1102.76 1774.45 1100.93 1770.9 Q1099.12 1767.34 1095.49 1767.34 M1095.49 1763.64 Q1101.3 1763.64 1104.36 1768.24 Q1107.43 1772.83 1107.43 1781.58 Q1107.43 1790.3 1104.36 1794.91 Q1101.3 1799.49 1095.49 1799.49 Q1089.68 1799.49 1086.6 1794.91 Q1083.55 1790.3 1083.55 1781.58 Q1083.55 1772.83 1086.6 1768.24 Q1089.68 1763.64 1095.49 1763.64 Z" fill="#000000" fill-rule="nonzero" fill-opacity="1" /><path clip-path="url(#clip300)" d="M1125.65 1767.34 Q1122.04 1767.34 1120.21 1770.9 Q1118.41 1774.45 1118.41 1781.58 Q1118.41 1788.68 1120.21 1792.25 Q1122.04 1795.79 1125.65 1795.79 Q1129.29 1795.79 1131.09 1792.25 Q1132.92 1788.68 1132.92 1781.58 Q1132.92 1774.45 1131.09 1770.9 Q1129.29 1767.34 1125.65 1767.34 M1125.65 1763.64 Q1131.46 1763.64 1134.52 1768.24 Q1137.6 1772.83 1137.6 1781.58 Q1137.6 1790.3 1134.52 1794.91 Q1131.46 1799.49 1125.65 1799.49 Q1119.84 1799.49 1116.76 1794.91 Q1113.71 1790.3 1113.71 1781.58 Q1113.71 1772.83 1116.76 1768.24 Q1119.84 1763.64 1125.65 1763.64 Z" fill="#000000" fill-rule="nonzero" fill-opacity="1" /><path clip-path="url(#clip300)" d="M1427.06 1794.89 L1443.38 1794.89 L1443.38 1798.82 L1421.43 1798.82 L1421.43 1794.89 Q1424.1 1792.13 1428.68 1787.5 Q1433.29 1782.85 1434.47 1781.51 Q1436.71 1778.98 1437.59 1777.25 Q1438.49 1775.49 1438.49 1773.8 Q1438.49 1771.04 1436.55 1769.31 Q1434.63 1767.57 1431.53 1767.57 Q1429.33 1767.57 1426.87 1768.34 Q1424.44 1769.1 1421.67 1770.65 L1421.67 1765.93 Q1424.49 1764.79 1426.94 1764.21 Q1429.4 1763.64 1431.43 1763.64 Q1436.8 1763.64 1440 1766.32 Q1443.19 1769.01 1443.19 1773.5 Q1443.19 1775.63 1442.38 1777.55 Q1441.6 1779.45 1439.49 1782.04 Q1438.91 1782.71 1435.81 1785.93 Q1432.71 1789.12 1427.06 1794.89 Z" fill="#000000" fill-rule="nonzero" fill-opacity="1" /><path clip-path="url(#clip300)" d="M1457.22 1794.89 L1473.54 1794.89 L1473.54 1798.82 L1451.6 1798.82 L1451.6 1794.89 Q1454.26 1792.13 1458.84 1787.5 Q1463.45 1782.85 1464.63 1781.51 Q1466.87 1778.98 1467.75 1777.25 Q1468.66 1775.49 1468.66 1773.8 Q1468.66 1771.04 1466.71 1769.31 Q1464.79 1767.57 1461.69 1767.57 Q1459.49 1767.57 1457.04 1768.34 Q1454.61 1769.1 1451.83 1770.65 L1451.83 1765.93 Q1454.65 1764.79 1457.11 1764.21 Q1459.56 1763.64 1461.6 1763.64 Q1466.97 1763.64 1470.16 1766.32 Q1473.36 1769.01 1473.36 1773.5 Q1473.36 1775.63 1472.55 1777.55 Q1471.76 1779.45 1469.65 1782.04 Q1469.07 1782.71 1465.97 1785.93 Q1462.87 1789.12 1457.22 1794.89 Z" fill="#000000" fill-rule="nonzero" fill-opacity="1" /><path clip-path="url(#clip300)" d="M1483.4 1764.26 L1501.76 1764.26 L1501.76 1768.2 L1487.68 1768.2 L1487.68 1776.67 Q1488.7 1776.32 1489.72 1776.16 Q1490.74 1775.97 1491.76 1775.97 Q1497.55 1775.97 1500.92 1779.15 Q1504.3 1782.32 1504.3 1787.73 Q1504.3 1793.31 1500.83 1796.41 Q1497.36 1799.49 1491.04 1799.49 Q1488.86 1799.49 1486.6 1799.12 Q1484.35 1798.75 1481.94 1798.01 L1481.94 1793.31 Q1484.03 1794.45 1486.25 1795 Q1488.47 1795.56 1490.95 1795.56 Q1494.95 1795.56 1497.29 1793.45 Q1499.63 1791.34 1499.63 1787.73 Q1499.63 1784.12 1497.29 1782.02 Q1494.95 1779.91 1490.95 1779.91 Q1489.07 1779.91 1487.2 1780.33 Q1485.35 1780.74 1483.4 1781.62 L1483.4 1764.26 Z" fill="#000000" fill-rule="nonzero" fill-opacity="1" /><path clip-path="url(#clip300)" d="M1523.52 1767.34 Q1519.91 1767.34 1518.08 1770.9 Q1516.27 1774.45 1516.27 1781.58 Q1516.27 1788.68 1518.08 1792.25 Q1519.91 1795.79 1523.52 1795.79 Q1527.15 1795.79 1528.96 1792.25 Q1530.79 1788.68 1530.79 1781.58 Q1530.79 1774.45 1528.96 1770.9 Q1527.15 1767.34 1523.52 1767.34 M1523.52 1763.64 Q1529.33 1763.64 1532.38 1768.24 Q1535.46 1772.83 1535.46 1781.58 Q1535.46 1790.3 1532.38 1794.91 Q1529.33 1799.49 1523.52 1799.49 Q1517.71 1799.49 1514.63 1794.91 Q1511.57 1790.3 1511.57 1781.58 Q1511.57 1772.83 1514.63 1768.24 Q1517.71 1763.64 1523.52 1763.64 Z" fill="#000000" fill-rule="nonzero" fill-opacity="1" /><path clip-path="url(#clip300)" d="M1824.92 1794.89 L1841.24 1794.89 L1841.24 1798.82 L1819.3 1798.82 L1819.3 1794.89 Q1821.96 1792.13 1826.55 1787.5 Q1831.15 1782.85 1832.33 1781.51 Q1834.58 1778.98 1835.46 1777.25 Q1836.36 1775.49 1836.36 1773.8 Q1836.36 1771.04 1834.42 1769.31 Q1832.49 1767.57 1829.39 1767.57 Q1827.19 1767.57 1824.74 1768.34 Q1822.31 1769.1 1819.53 1770.65 L1819.53 1765.93 Q1822.36 1764.79 1824.81 1764.21 Q1827.26 1763.64 1829.3 1763.64 Q1834.67 1763.64 1837.86 1766.32 Q1841.06 1769.01 1841.06 1773.5 Q1841.06 1775.63 1840.25 1777.55 Q1839.46 1779.45 1837.36 1782.04 Q1836.78 1782.71 1833.67 1785.93 Q1830.57 1789.12 1824.92 1794.89 Z" fill="#000000" fill-rule="nonzero" fill-opacity="1" /><path clip-path="url(#clip300)" d="M1865.23 1780.19 Q1868.58 1780.9 1870.46 1783.17 Q1872.36 1785.44 1872.36 1788.77 Q1872.36 1793.89 1868.84 1796.69 Q1865.32 1799.49 1858.84 1799.49 Q1856.66 1799.49 1854.35 1799.05 Q1852.05 1798.64 1849.6 1797.78 L1849.6 1793.27 Q1851.54 1794.4 1853.86 1794.98 Q1856.17 1795.56 1858.7 1795.56 Q1863.1 1795.56 1865.39 1793.82 Q1867.7 1792.08 1867.7 1788.77 Q1867.7 1785.72 1865.55 1784.01 Q1863.42 1782.27 1859.6 1782.27 L1855.57 1782.27 L1855.57 1778.43 L1859.79 1778.43 Q1863.23 1778.43 1865.06 1777.06 Q1866.89 1775.67 1866.89 1773.08 Q1866.89 1770.42 1864.99 1769.01 Q1863.12 1767.57 1859.6 1767.57 Q1857.68 1767.57 1855.48 1767.99 Q1853.28 1768.4 1850.64 1769.28 L1850.64 1765.12 Q1853.3 1764.38 1855.62 1764.01 Q1857.96 1763.64 1860.02 1763.64 Q1865.34 1763.64 1868.44 1766.07 Q1871.54 1768.47 1871.54 1772.59 Q1871.54 1775.46 1869.9 1777.46 Q1868.26 1779.42 1865.23 1780.19 Z" fill="#000000" fill-rule="nonzero" fill-opacity="1" /><path clip-path="url(#clip300)" d="M1891.22 1767.34 Q1887.61 1767.34 1885.78 1770.9 Q1883.98 1774.45 1883.98 1781.58 Q1883.98 1788.68 1885.78 1792.25 Q1887.61 1795.79 1891.22 1795.79 Q1894.85 1795.79 1896.66 1792.25 Q1898.49 1788.68 1898.49 1781.58 Q1898.49 1774.45 1896.66 1770.9 Q1894.85 1767.34 1891.22 1767.34 M1891.22 1763.64 Q1897.03 1763.64 1900.09 1768.24 Q1903.17 1772.83 1903.17 1781.58 Q1903.17 1790.3 1900.09 1794.91 Q1897.03 1799.49 1891.22 1799.49 Q1885.41 1799.49 1882.33 1794.91 Q1879.28 1790.3 1879.28 1781.58 Q1879.28 1772.83 1882.33 1768.24 Q1885.41 1763.64 1891.22 1763.64 Z" fill="#000000" fill-rule="nonzero" fill-opacity="1" /><path clip-path="url(#clip300)" d="M1921.38 1767.34 Q1917.77 1767.34 1915.94 1770.9 Q1914.14 1774.45 1914.14 1781.58 Q1914.14 1788.68 1915.94 1792.25 Q1917.77 1795.79 1921.38 1795.79 Q1925.02 1795.79 1926.82 1792.25 Q1928.65 1788.68 1928.65 1781.58 Q1928.65 1774.45 1926.82 1770.9 Q1925.02 1767.34 1921.38 1767.34 M1921.38 1763.64 Q1927.19 1763.64 1930.25 1768.24 Q1933.33 1772.83 1933.33 1781.58 Q1933.33 1790.3 1930.25 1794.91 Q1927.19 1799.49 1921.38 1799.49 Q1915.57 1799.49 1912.49 1794.91 Q1909.44 1790.3 1909.44 1781.58 Q1909.44 1772.83 1912.49 1768.24 Q1915.57 1763.64 1921.38 1763.64 Z" fill="#000000" fill-rule="nonzero" fill-opacity="1" /><path clip-path="url(#clip300)" d="M2222.79 1794.89 L2239.11 1794.89 L2239.11 1798.82 L2217.17 1798.82 L2217.17 1794.89 Q2219.83 1792.13 2224.41 1787.5 Q2229.02 1782.85 2230.2 1781.51 Q2232.44 1778.98 2233.32 1777.25 Q2234.23 1775.49 2234.23 1773.8 Q2234.23 1771.04 2232.28 1769.31 Q2230.36 1767.57 2227.26 1767.57 Q2225.06 1767.57 2222.6 1768.34 Q2220.17 1769.1 2217.4 1770.65 L2217.4 1765.93 Q2220.22 1764.79 2222.67 1764.21 Q2225.13 1763.64 2227.17 1763.64 Q2232.54 1763.64 2235.73 1766.32 Q2238.92 1769.01 2238.92 1773.5 Q2238.92 1775.63 2238.11 1777.55 Q2237.33 1779.45 2235.22 1782.04 Q2234.64 1782.71 2231.54 1785.93 Q2228.44 1789.12 2222.79 1794.89 Z" fill="#000000" fill-rule="nonzero" fill-opacity="1" /><path clip-path="url(#clip300)" d="M2263.09 1780.19 Q2266.45 1780.9 2268.32 1783.17 Q2270.22 1785.44 2270.22 1788.77 Q2270.22 1793.89 2266.7 1796.69 Q2263.18 1799.49 2256.7 1799.49 Q2254.53 1799.49 2252.21 1799.05 Q2249.92 1798.64 2247.47 1797.78 L2247.47 1793.27 Q2249.41 1794.4 2251.73 1794.98 Q2254.04 1795.56 2256.56 1795.56 Q2260.96 1795.56 2263.25 1793.82 Q2265.57 1792.08 2265.57 1788.77 Q2265.57 1785.72 2263.41 1784.01 Q2261.29 1782.27 2257.47 1782.27 L2253.44 1782.27 L2253.44 1778.43 L2257.65 1778.43 Q2261.1 1778.43 2262.93 1777.06 Q2264.76 1775.67 2264.76 1773.08 Q2264.76 1770.42 2262.86 1769.01 Q2260.98 1767.57 2257.47 1767.57 Q2255.54 1767.57 2253.35 1767.99 Q2251.15 1768.4 2248.51 1769.28 L2248.51 1765.12 Q2251.17 1764.38 2253.48 1764.01 Q2255.82 1763.64 2257.88 1763.64 Q2263.21 1763.64 2266.31 1766.07 Q2269.41 1768.47 2269.41 1772.59 Q2269.41 1775.46 2267.77 1777.46 Q2266.12 1779.42 2263.09 1780.19 Z" fill="#000000" fill-rule="nonzero" fill-opacity="1" /><path clip-path="url(#clip300)" d="M2279.13 1764.26 L2297.49 1764.26 L2297.49 1768.2 L2283.41 1768.2 L2283.41 1776.67 Q2284.43 1776.32 2285.45 1776.16 Q2286.47 1775.97 2287.49 1775.97 Q2293.28 1775.97 2296.66 1779.15 Q2300.04 1782.32 2300.04 1787.73 Q2300.04 1793.31 2296.56 1796.41 Q2293.09 1799.49 2286.77 1799.49 Q2284.6 1799.49 2282.33 1799.12 Q2280.08 1798.75 2277.67 1798.01 L2277.67 1793.31 Q2279.76 1794.45 2281.98 1795 Q2284.2 1795.56 2286.68 1795.56 Q2290.68 1795.56 2293.02 1793.45 Q2295.36 1791.34 2295.36 1787.73 Q2295.36 1784.12 2293.02 1782.02 Q2290.68 1779.91 2286.68 1779.91 Q2284.8 1779.91 2282.93 1780.33 Q2281.08 1780.74 2279.13 1781.62 L2279.13 1764.26 Z" fill="#000000" fill-rule="nonzero" fill-opacity="1" /><path clip-path="url(#clip300)" d="M2319.25 1767.34 Q2315.64 1767.34 2313.81 1770.9 Q2312 1774.45 2312 1781.58 Q2312 1788.68 2313.81 1792.25 Q2315.64 1795.79 2319.25 1795.79 Q2322.88 1795.79 2324.69 1792.25 Q2326.52 1788.68 2326.52 1781.58 Q2326.52 1774.45 2324.69 1770.9 Q2322.88 1767.34 2319.25 1767.34 M2319.25 1763.64 Q2325.06 1763.64 2328.11 1768.24 Q2331.19 1772.83 2331.19 1781.58 Q2331.19 1790.3 2328.11 1794.91 Q2325.06 1799.49 2319.25 1799.49 Q2313.44 1799.49 2310.36 1794.91 Q2307.3 1790.3 2307.3 1781.58 Q2307.3 1772.83 2310.36 1768.24 Q2313.44 1763.64 2319.25 1763.64 Z" fill="#000000" fill-rule="nonzero" fill-opacity="1" /><path clip-path="url(#clip300)" d="M1334.71 1835.78 L1362.02 1835.78 L1362.02 1841.19 L1341.14 1841.19 L1341.14 1855.2 L1359.98 1855.2 L1359.98 1860.61 L1341.14 1860.61 L1341.14 1883.3 L1334.71 1883.3 L1334.71 1835.78 Z" fill="#000000" fill-rule="nonzero" fill-opacity="1" /><path clip-path="url(#clip300)" d="M1367.21 1847.65 L1373.06 1847.65 L1373.06 1883.3 L1367.21 1883.3 L1367.21 1847.65 M1367.21 1833.78 L1373.06 1833.78 L1373.06 1841.19 L1367.21 1841.19 L1367.21 1833.78 Z" fill="#000000" fill-rule="nonzero" fill-opacity="1" /><path clip-path="url(#clip300)" d="M1414.95 1861.78 L1414.95 1883.3 L1409.09 1883.3 L1409.09 1861.98 Q1409.09 1856.92 1407.12 1854.4 Q1405.15 1851.89 1401.2 1851.89 Q1396.46 1851.89 1393.72 1854.91 Q1390.98 1857.93 1390.98 1863.15 L1390.98 1883.3 L1385.09 1883.3 L1385.09 1847.65 L1390.98 1847.65 L1390.98 1853.19 Q1393.08 1849.98 1395.92 1848.39 Q1398.78 1846.79 1402.51 1846.79 Q1408.65 1846.79 1411.8 1850.61 Q1414.95 1854.4 1414.95 1861.78 Z" fill="#000000" fill-rule="nonzero" fill-opacity="1" /><path clip-path="url(#clip300)" d="M1442.83 1865.38 Q1435.73 1865.38 1433 1867 Q1430.26 1868.63 1430.26 1872.54 Q1430.26 1875.66 1432.3 1877.51 Q1434.37 1879.32 1437.9 1879.32 Q1442.77 1879.32 1445.7 1875.88 Q1448.66 1872.42 1448.66 1866.69 L1448.66 1865.38 L1442.83 1865.38 M1454.51 1862.96 L1454.51 1883.3 L1448.66 1883.3 L1448.66 1877.89 Q1446.65 1881.14 1443.66 1882.7 Q1440.67 1884.22 1436.34 1884.22 Q1430.86 1884.22 1427.62 1881.17 Q1424.4 1878.08 1424.4 1872.92 Q1424.4 1866.91 1428.41 1863.85 Q1432.46 1860.8 1440.44 1860.8 L1448.66 1860.8 L1448.66 1860.23 Q1448.66 1856.18 1445.98 1853.99 Q1443.34 1851.76 1438.54 1851.76 Q1435.48 1851.76 1432.58 1852.49 Q1429.69 1853.22 1427.01 1854.69 L1427.01 1849.28 Q1430.23 1848.03 1433.25 1847.43 Q1436.28 1846.79 1439.14 1846.79 Q1446.87 1846.79 1450.69 1850.8 Q1454.51 1854.81 1454.51 1862.96 Z" fill="#000000" fill-rule="nonzero" fill-opacity="1" /><path clip-path="url(#clip300)" d="M1466.58 1833.78 L1472.43 1833.78 L1472.43 1883.3 L1466.58 1883.3 L1466.58 1833.78 Z" fill="#000000" fill-rule="nonzero" fill-opacity="1" /><path clip-path="url(#clip300)" d="M1528.13 1848.7 L1528.13 1854.24 Q1525.65 1852.97 1522.98 1852.33 Q1520.3 1851.7 1517.44 1851.7 Q1513.08 1851.7 1510.88 1853.03 Q1508.72 1854.37 1508.72 1857.04 Q1508.72 1859.08 1510.28 1860.26 Q1511.84 1861.4 1516.55 1862.45 L1518.55 1862.9 Q1524.79 1864.24 1527.4 1866.69 Q1530.04 1869.11 1530.04 1873.47 Q1530.04 1878.43 1526.1 1881.33 Q1522.18 1884.22 1515.31 1884.22 Q1512.44 1884.22 1509.32 1883.65 Q1506.23 1883.11 1502.8 1882 L1502.8 1875.95 Q1506.04 1877.64 1509.19 1878.49 Q1512.35 1879.32 1515.43 1879.32 Q1519.57 1879.32 1521.8 1877.92 Q1524.03 1876.49 1524.03 1873.91 Q1524.03 1871.52 1522.4 1870.25 Q1520.81 1868.98 1515.37 1867.8 L1513.33 1867.32 Q1507.89 1866.18 1505.47 1863.82 Q1503.05 1861.43 1503.05 1857.3 Q1503.05 1852.27 1506.62 1849.53 Q1510.18 1846.79 1516.74 1846.79 Q1519.98 1846.79 1522.85 1847.27 Q1525.71 1847.75 1528.13 1848.7 Z" fill="#000000" fill-rule="nonzero" fill-opacity="1" /><path clip-path="url(#clip300)" d="M1539.37 1847.65 L1545.22 1847.65 L1545.22 1883.3 L1539.37 1883.3 L1539.37 1847.65 M1539.37 1833.78 L1545.22 1833.78 L1545.22 1841.19 L1539.37 1841.19 L1539.37 1833.78 Z" fill="#000000" fill-rule="nonzero" fill-opacity="1" /><path clip-path="url(#clip300)" d="M1554.93 1847.65 L1582.75 1847.65 L1582.75 1853 L1560.72 1878.62 L1582.75 1878.62 L1582.75 1883.3 L1554.14 1883.3 L1554.14 1877.95 L1576.16 1852.33 L1554.93 1852.33 L1554.93 1847.65 Z" fill="#000000" fill-rule="nonzero" fill-opacity="1" /><path clip-path="url(#clip300)" d="M1622.19 1864.01 L1622.19 1866.88 L1595.26 1866.88 Q1595.64 1872.92 1598.89 1876.11 Q1602.17 1879.26 1607.99 1879.26 Q1611.36 1879.26 1614.51 1878.43 Q1617.7 1877.6 1620.82 1875.95 L1620.82 1881.49 Q1617.67 1882.82 1614.36 1883.52 Q1611.05 1884.22 1607.64 1884.22 Q1599.11 1884.22 1594.11 1879.26 Q1589.15 1874.29 1589.15 1865.83 Q1589.15 1857.07 1593.86 1851.95 Q1598.6 1846.79 1606.62 1846.79 Q1613.81 1846.79 1617.98 1851.44 Q1622.19 1856.06 1622.19 1864.01 M1616.33 1862.29 Q1616.27 1857.49 1613.62 1854.62 Q1611.01 1851.76 1606.69 1851.76 Q1601.78 1851.76 1598.82 1854.53 Q1595.9 1857.3 1595.45 1862.33 L1616.33 1862.29 Z" fill="#000000" fill-rule="nonzero" fill-opacity="1" /><polyline clip-path="url(#clip300)" style="stroke:#000000; stroke-linecap:round; stroke-linejoin:round; stroke-width:4; stroke-opacity:1; fill:none" points="316.14,1734.12 316.14,127.792 "/>
<polyline clip-path="url(#clip300)" style="stroke:#000000; stroke-linecap:round; stroke-linejoin:round; stroke-width:4; stroke-opacity:1; fill:none" points="316.14,1734.12 335.038,1734.12 "/>
<polyline clip-path="url(#clip300)" style="stroke:#000000; stroke-linecap:round; stroke-linejoin:round; stroke-width:4; stroke-opacity:1; fill:none" points="316.14,1358.81 335.038,1358.81 "/>
<polyline clip-path="url(#clip300)" style="stroke:#000000; stroke-linecap:round; stroke-linejoin:round; stroke-width:4; stroke-opacity:1; fill:none" points="316.14,983.498 335.038,983.498 "/>
<polyline clip-path="url(#clip300)" style="stroke:#000000; stroke-linecap:round; stroke-linejoin:round; stroke-width:4; stroke-opacity:1; fill:none" points="316.14,608.188 335.038,608.188 "/>
<polyline clip-path="url(#clip300)" style="stroke:#000000; stroke-linecap:round; stroke-linejoin:round; stroke-width:4; stroke-opacity:1; fill:none" points="316.14,232.879 335.038,232.879 "/>
<path clip-path="url(#clip300)" d="M128.159 1719.92 Q124.548 1719.92 122.719 1723.48 Q120.913 1727.02 120.913 1734.15 Q120.913 1741.26 122.719 1744.82 Q124.548 1748.36 128.159 1748.36 Q131.793 1748.36 133.599 1744.82 Q135.427 1741.26 135.427 1734.15 Q135.427 1727.02 133.599 1723.48 Q131.793 1719.92 128.159 1719.92 M128.159 1716.21 Q133.969 1716.21 137.025 1720.82 Q140.103 1725.4 140.103 1734.15 Q140.103 1742.88 137.025 1747.48 Q133.969 1752.07 128.159 1752.07 Q122.349 1752.07 119.27 1747.48 Q116.214 1742.88 116.214 1734.15 Q116.214 1725.4 119.27 1720.82 Q122.349 1716.21 128.159 1716.21 Z" fill="#000000" fill-rule="nonzero" fill-opacity="1" /><path clip-path="url(#clip300)" d="M148.321 1745.52 L153.205 1745.52 L153.205 1751.4 L148.321 1751.4 L148.321 1745.52 Z" fill="#000000" fill-rule="nonzero" fill-opacity="1" /><path clip-path="url(#clip300)" d="M173.39 1719.92 Q169.779 1719.92 167.95 1723.48 Q166.145 1727.02 166.145 1734.15 Q166.145 1741.26 167.95 1744.82 Q169.779 1748.36 173.39 1748.36 Q177.024 1748.36 178.83 1744.82 Q180.659 1741.26 180.659 1734.15 Q180.659 1727.02 178.83 1723.48 Q177.024 1719.92 173.39 1719.92 M173.39 1716.21 Q179.2 1716.21 182.256 1720.82 Q185.334 1725.4 185.334 1734.15 Q185.334 1742.88 182.256 1747.48 Q179.2 1752.07 173.39 1752.07 Q167.58 1752.07 164.501 1747.48 Q161.446 1742.88 161.446 1734.15 Q161.446 1725.4 164.501 1720.82 Q167.58 1716.21 173.39 1716.21 Z" fill="#000000" fill-rule="nonzero" fill-opacity="1" /><path clip-path="url(#clip300)" d="M203.552 1719.92 Q199.941 1719.92 198.112 1723.48 Q196.307 1727.02 196.307 1734.15 Q196.307 1741.26 198.112 1744.82 Q199.941 1748.36 203.552 1748.36 Q207.186 1748.36 208.992 1744.82 Q210.82 1741.26 210.82 1734.15 Q210.82 1727.02 208.992 1723.48 Q207.186 1719.92 203.552 1719.92 M203.552 1716.21 Q209.362 1716.21 212.418 1720.82 Q215.496 1725.4 215.496 1734.15 Q215.496 1742.88 212.418 1747.48 Q209.362 1752.07 203.552 1752.07 Q197.742 1752.07 194.663 1747.48 Q191.608 1742.88 191.608 1734.15 Q191.608 1725.4 194.663 1720.82 Q197.742 1716.21 203.552 1716.21 Z" fill="#000000" fill-rule="nonzero" fill-opacity="1" /><path clip-path="url(#clip300)" d="M233.714 1719.92 Q230.103 1719.92 228.274 1723.48 Q226.468 1727.02 226.468 1734.15 Q226.468 1741.26 228.274 1744.82 Q230.103 1748.36 233.714 1748.36 Q237.348 1748.36 239.154 1744.82 Q240.982 1741.26 240.982 1734.15 Q240.982 1727.02 239.154 1723.48 Q237.348 1719.92 233.714 1719.92 M233.714 1716.21 Q239.524 1716.21 242.58 1720.82 Q245.658 1725.4 245.658 1734.15 Q245.658 1742.88 242.58 1747.48 Q239.524 1752.07 233.714 1752.07 Q227.904 1752.07 224.825 1747.48 Q221.769 1742.88 221.769 1734.15 Q221.769 1725.4 224.825 1720.82 Q227.904 1716.21 233.714 1716.21 Z" fill="#000000" fill-rule="nonzero" fill-opacity="1" /><path clip-path="url(#clip300)" d="M263.876 1719.92 Q260.265 1719.92 258.436 1723.48 Q256.63 1727.02 256.63 1734.15 Q256.63 1741.26 258.436 1744.82 Q260.265 1748.36 263.876 1748.36 Q267.51 1748.36 269.315 1744.82 Q271.144 1741.26 271.144 1734.15 Q271.144 1727.02 269.315 1723.48 Q267.51 1719.92 263.876 1719.92 M263.876 1716.21 Q269.686 1716.21 272.741 1720.82 Q275.82 1725.4 275.82 1734.15 Q275.82 1742.88 272.741 1747.48 Q269.686 1752.07 263.876 1752.07 Q258.066 1752.07 254.987 1747.48 Q251.931 1742.88 251.931 1734.15 Q251.931 1725.4 254.987 1720.82 Q258.066 1716.21 263.876 1716.21 Z" fill="#000000" fill-rule="nonzero" fill-opacity="1" /><path clip-path="url(#clip300)" d="M129.154 1344.61 Q125.543 1344.61 123.714 1348.17 Q121.909 1351.71 121.909 1358.84 Q121.909 1365.95 123.714 1369.51 Q125.543 1373.06 129.154 1373.06 Q132.788 1373.06 134.594 1369.51 Q136.423 1365.95 136.423 1358.84 Q136.423 1351.71 134.594 1348.17 Q132.788 1344.61 129.154 1344.61 M129.154 1340.9 Q134.964 1340.9 138.02 1345.51 Q141.099 1350.09 141.099 1358.84 Q141.099 1367.57 138.02 1372.18 Q134.964 1376.76 129.154 1376.76 Q123.344 1376.76 120.265 1372.18 Q117.21 1367.57 117.21 1358.84 Q117.21 1350.09 120.265 1345.51 Q123.344 1340.9 129.154 1340.9 Z" fill="#000000" fill-rule="nonzero" fill-opacity="1" /><path clip-path="url(#clip300)" d="M149.316 1370.21 L154.2 1370.21 L154.2 1376.09 L149.316 1376.09 L149.316 1370.21 Z" fill="#000000" fill-rule="nonzero" fill-opacity="1" /><path clip-path="url(#clip300)" d="M174.385 1344.61 Q170.774 1344.61 168.946 1348.17 Q167.14 1351.71 167.14 1358.84 Q167.14 1365.95 168.946 1369.51 Q170.774 1373.06 174.385 1373.06 Q178.02 1373.06 179.825 1369.51 Q181.654 1365.95 181.654 1358.84 Q181.654 1351.71 179.825 1348.17 Q178.02 1344.61 174.385 1344.61 M174.385 1340.9 Q180.196 1340.9 183.251 1345.51 Q186.33 1350.09 186.33 1358.84 Q186.33 1367.57 183.251 1372.18 Q180.196 1376.76 174.385 1376.76 Q168.575 1376.76 165.497 1372.18 Q162.441 1367.57 162.441 1358.84 Q162.441 1350.09 165.497 1345.51 Q168.575 1340.9 174.385 1340.9 Z" fill="#000000" fill-rule="nonzero" fill-opacity="1" /><path clip-path="url(#clip300)" d="M204.547 1344.61 Q200.936 1344.61 199.108 1348.17 Q197.302 1351.71 197.302 1358.84 Q197.302 1365.95 199.108 1369.51 Q200.936 1373.06 204.547 1373.06 Q208.182 1373.06 209.987 1369.51 Q211.816 1365.95 211.816 1358.84 Q211.816 1351.71 209.987 1348.17 Q208.182 1344.61 204.547 1344.61 M204.547 1340.9 Q210.357 1340.9 213.413 1345.51 Q216.492 1350.09 216.492 1358.84 Q216.492 1367.57 213.413 1372.18 Q210.357 1376.76 204.547 1376.76 Q198.737 1376.76 195.658 1372.18 Q192.603 1367.57 192.603 1358.84 Q192.603 1350.09 195.658 1345.51 Q198.737 1340.9 204.547 1340.9 Z" fill="#000000" fill-rule="nonzero" fill-opacity="1" /><path clip-path="url(#clip300)" d="M228.737 1372.15 L245.056 1372.15 L245.056 1376.09 L223.112 1376.09 L223.112 1372.15 Q225.774 1369.4 230.357 1364.77 Q234.964 1360.12 236.144 1358.77 Q238.39 1356.25 239.269 1354.51 Q240.172 1352.75 240.172 1351.06 Q240.172 1348.31 238.228 1346.57 Q236.306 1344.84 233.205 1344.84 Q231.005 1344.84 228.552 1345.6 Q226.121 1346.37 223.343 1347.92 L223.343 1343.19 Q226.168 1342.06 228.621 1341.48 Q231.075 1340.9 233.112 1340.9 Q238.482 1340.9 241.677 1343.59 Q244.871 1346.27 244.871 1350.76 Q244.871 1352.89 244.061 1354.81 Q243.274 1356.71 241.167 1359.31 Q240.589 1359.98 237.487 1363.19 Q234.385 1366.39 228.737 1372.15 Z" fill="#000000" fill-rule="nonzero" fill-opacity="1" /><path clip-path="url(#clip300)" d="M254.917 1341.53 L273.274 1341.53 L273.274 1345.46 L259.2 1345.46 L259.2 1353.93 Q260.218 1353.59 261.237 1353.43 Q262.255 1353.24 263.274 1353.24 Q269.061 1353.24 272.44 1356.41 Q275.82 1359.58 275.82 1365 Q275.82 1370.58 272.348 1373.68 Q268.876 1376.76 262.556 1376.76 Q260.38 1376.76 258.112 1376.39 Q255.866 1376.02 253.459 1375.28 L253.459 1370.58 Q255.542 1371.71 257.765 1372.27 Q259.987 1372.82 262.464 1372.82 Q266.468 1372.82 268.806 1370.72 Q271.144 1368.61 271.144 1365 Q271.144 1361.39 268.806 1359.28 Q266.468 1357.18 262.464 1357.18 Q260.589 1357.18 258.714 1357.59 Q256.862 1358.01 254.917 1358.89 L254.917 1341.53 Z" fill="#000000" fill-rule="nonzero" fill-opacity="1" /><path clip-path="url(#clip300)" d="M128.159 969.297 Q124.548 969.297 122.719 972.861 Q120.913 976.403 120.913 983.533 Q120.913 990.639 122.719 994.204 Q124.548 997.746 128.159 997.746 Q131.793 997.746 133.599 994.204 Q135.427 990.639 135.427 983.533 Q135.427 976.403 133.599 972.861 Q131.793 969.297 128.159 969.297 M128.159 965.593 Q133.969 965.593 137.025 970.199 Q140.103 974.783 140.103 983.533 Q140.103 992.259 137.025 996.866 Q133.969 1001.45 128.159 1001.45 Q122.349 1001.45 119.27 996.866 Q116.214 992.259 116.214 983.533 Q116.214 974.783 119.27 970.199 Q122.349 965.593 128.159 965.593 Z" fill="#000000" fill-rule="nonzero" fill-opacity="1" /><path clip-path="url(#clip300)" d="M148.321 994.898 L153.205 994.898 L153.205 1000.78 L148.321 1000.78 L148.321 994.898 Z" fill="#000000" fill-rule="nonzero" fill-opacity="1" /><path clip-path="url(#clip300)" d="M173.39 969.297 Q169.779 969.297 167.95 972.861 Q166.145 976.403 166.145 983.533 Q166.145 990.639 167.95 994.204 Q169.779 997.746 173.39 997.746 Q177.024 997.746 178.83 994.204 Q180.659 990.639 180.659 983.533 Q180.659 976.403 178.83 972.861 Q177.024 969.297 173.39 969.297 M173.39 965.593 Q179.2 965.593 182.256 970.199 Q185.334 974.783 185.334 983.533 Q185.334 992.259 182.256 996.866 Q179.2 1001.45 173.39 1001.45 Q167.58 1001.45 164.501 996.866 Q161.446 992.259 161.446 983.533 Q161.446 974.783 164.501 970.199 Q167.58 965.593 173.39 965.593 Z" fill="#000000" fill-rule="nonzero" fill-opacity="1" /><path clip-path="url(#clip300)" d="M203.552 969.297 Q199.941 969.297 198.112 972.861 Q196.307 976.403 196.307 983.533 Q196.307 990.639 198.112 994.204 Q199.941 997.746 203.552 997.746 Q207.186 997.746 208.992 994.204 Q210.82 990.639 210.82 983.533 Q210.82 976.403 208.992 972.861 Q207.186 969.297 203.552 969.297 M203.552 965.593 Q209.362 965.593 212.418 970.199 Q215.496 974.783 215.496 983.533 Q215.496 992.259 212.418 996.866 Q209.362 1001.45 203.552 1001.45 Q197.742 1001.45 194.663 996.866 Q191.608 992.259 191.608 983.533 Q191.608 974.783 194.663 970.199 Q197.742 965.593 203.552 965.593 Z" fill="#000000" fill-rule="nonzero" fill-opacity="1" /><path clip-path="url(#clip300)" d="M223.76 966.218 L242.117 966.218 L242.117 970.153 L228.043 970.153 L228.043 978.625 Q229.061 978.278 230.08 978.116 Q231.098 977.931 232.117 977.931 Q237.904 977.931 241.283 981.102 Q244.663 984.273 244.663 989.69 Q244.663 995.269 241.191 998.37 Q237.718 1001.45 231.399 1001.45 Q229.223 1001.45 226.955 1001.08 Q224.709 1000.71 222.302 999.968 L222.302 995.269 Q224.385 996.403 226.607 996.958 Q228.83 997.514 231.306 997.514 Q235.311 997.514 237.649 995.408 Q239.987 993.301 239.987 989.69 Q239.987 986.079 237.649 983.972 Q235.311 981.866 231.306 981.866 Q229.431 981.866 227.556 982.283 Q225.705 982.699 223.76 983.579 L223.76 966.218 Z" fill="#000000" fill-rule="nonzero" fill-opacity="1" /><path clip-path="url(#clip300)" d="M263.876 969.297 Q260.265 969.297 258.436 972.861 Q256.63 976.403 256.63 983.533 Q256.63 990.639 258.436 994.204 Q260.265 997.746 263.876 997.746 Q267.51 997.746 269.315 994.204 Q271.144 990.639 271.144 983.533 Q271.144 976.403 269.315 972.861 Q267.51 969.297 263.876 969.297 M263.876 965.593 Q269.686 965.593 272.741 970.199 Q275.82 974.783 275.82 983.533 Q275.82 992.259 272.741 996.866 Q269.686 1001.45 263.876 1001.45 Q258.066 1001.45 254.987 996.866 Q251.931 992.259 251.931 983.533 Q251.931 974.783 254.987 970.199 Q258.066 965.593 263.876 965.593 Z" fill="#000000" fill-rule="nonzero" fill-opacity="1" /><path clip-path="url(#clip300)" d="M129.154 593.987 Q125.543 593.987 123.714 597.552 Q121.909 601.093 121.909 608.223 Q121.909 615.33 123.714 618.894 Q125.543 622.436 129.154 622.436 Q132.788 622.436 134.594 618.894 Q136.423 615.33 136.423 608.223 Q136.423 601.093 134.594 597.552 Q132.788 593.987 129.154 593.987 M129.154 590.283 Q134.964 590.283 138.02 594.89 Q141.099 599.473 141.099 608.223 Q141.099 616.95 138.02 621.556 Q134.964 626.14 129.154 626.14 Q123.344 626.14 120.265 621.556 Q117.21 616.95 117.21 608.223 Q117.21 599.473 120.265 594.89 Q123.344 590.283 129.154 590.283 Z" fill="#000000" fill-rule="nonzero" fill-opacity="1" /><path clip-path="url(#clip300)" d="M149.316 619.589 L154.2 619.589 L154.2 625.468 L149.316 625.468 L149.316 619.589 Z" fill="#000000" fill-rule="nonzero" fill-opacity="1" /><path clip-path="url(#clip300)" d="M174.385 593.987 Q170.774 593.987 168.946 597.552 Q167.14 601.093 167.14 608.223 Q167.14 615.33 168.946 618.894 Q170.774 622.436 174.385 622.436 Q178.02 622.436 179.825 618.894 Q181.654 615.33 181.654 608.223 Q181.654 601.093 179.825 597.552 Q178.02 593.987 174.385 593.987 M174.385 590.283 Q180.196 590.283 183.251 594.89 Q186.33 599.473 186.33 608.223 Q186.33 616.95 183.251 621.556 Q180.196 626.14 174.385 626.14 Q168.575 626.14 165.497 621.556 Q162.441 616.95 162.441 608.223 Q162.441 599.473 165.497 594.89 Q168.575 590.283 174.385 590.283 Z" fill="#000000" fill-rule="nonzero" fill-opacity="1" /><path clip-path="url(#clip300)" d="M204.547 593.987 Q200.936 593.987 199.108 597.552 Q197.302 601.093 197.302 608.223 Q197.302 615.33 199.108 618.894 Q200.936 622.436 204.547 622.436 Q208.182 622.436 209.987 618.894 Q211.816 615.33 211.816 608.223 Q211.816 601.093 209.987 597.552 Q208.182 593.987 204.547 593.987 M204.547 590.283 Q210.357 590.283 213.413 594.89 Q216.492 599.473 216.492 608.223 Q216.492 616.95 213.413 621.556 Q210.357 626.14 204.547 626.14 Q198.737 626.14 195.658 621.556 Q192.603 616.95 192.603 608.223 Q192.603 599.473 195.658 594.89 Q198.737 590.283 204.547 590.283 Z" fill="#000000" fill-rule="nonzero" fill-opacity="1" /><path clip-path="url(#clip300)" d="M223.529 590.908 L245.751 590.908 L245.751 592.899 L233.205 625.468 L228.32 625.468 L240.126 594.844 L223.529 594.844 L223.529 590.908 Z" fill="#000000" fill-rule="nonzero" fill-opacity="1" /><path clip-path="url(#clip300)" d="M254.917 590.908 L273.274 590.908 L273.274 594.844 L259.2 594.844 L259.2 603.316 Q260.218 602.968 261.237 602.806 Q262.255 602.621 263.274 602.621 Q269.061 602.621 272.44 605.793 Q275.82 608.964 275.82 614.38 Q275.82 619.959 272.348 623.061 Q268.876 626.14 262.556 626.14 Q260.38 626.14 258.112 625.769 Q255.866 625.399 253.459 624.658 L253.459 619.959 Q255.542 621.093 257.765 621.649 Q259.987 622.204 262.464 622.204 Q266.468 622.204 268.806 620.098 Q271.144 617.992 271.144 614.38 Q271.144 610.769 268.806 608.663 Q266.468 606.556 262.464 606.556 Q260.589 606.556 258.714 606.973 Q256.862 607.39 254.917 608.269 L254.917 590.908 Z" fill="#000000" fill-rule="nonzero" fill-opacity="1" /><path clip-path="url(#clip300)" d="M128.159 218.677 Q124.548 218.677 122.719 222.242 Q120.913 225.784 120.913 232.914 Q120.913 240.02 122.719 243.585 Q124.548 247.126 128.159 247.126 Q131.793 247.126 133.599 243.585 Q135.427 240.02 135.427 232.914 Q135.427 225.784 133.599 222.242 Q131.793 218.677 128.159 218.677 M128.159 214.974 Q133.969 214.974 137.025 219.58 Q140.103 224.164 140.103 232.914 Q140.103 241.64 137.025 246.247 Q133.969 250.83 128.159 250.83 Q122.349 250.83 119.27 246.247 Q116.214 241.64 116.214 232.914 Q116.214 224.164 119.27 219.58 Q122.349 214.974 128.159 214.974 Z" fill="#000000" fill-rule="nonzero" fill-opacity="1" /><path clip-path="url(#clip300)" d="M148.321 244.279 L153.205 244.279 L153.205 250.159 L148.321 250.159 L148.321 244.279 Z" fill="#000000" fill-rule="nonzero" fill-opacity="1" /><path clip-path="url(#clip300)" d="M173.39 218.677 Q169.779 218.677 167.95 222.242 Q166.145 225.784 166.145 232.914 Q166.145 240.02 167.95 243.585 Q169.779 247.126 173.39 247.126 Q177.024 247.126 178.83 243.585 Q180.659 240.02 180.659 232.914 Q180.659 225.784 178.83 222.242 Q177.024 218.677 173.39 218.677 M173.39 214.974 Q179.2 214.974 182.256 219.58 Q185.334 224.164 185.334 232.914 Q185.334 241.64 182.256 246.247 Q179.2 250.83 173.39 250.83 Q167.58 250.83 164.501 246.247 Q161.446 241.64 161.446 232.914 Q161.446 224.164 164.501 219.58 Q167.58 214.974 173.39 214.974 Z" fill="#000000" fill-rule="nonzero" fill-opacity="1" /><path clip-path="url(#clip300)" d="M194.362 246.224 L202.001 246.224 L202.001 219.858 L193.691 221.525 L193.691 217.265 L201.955 215.599 L206.631 215.599 L206.631 246.224 L214.269 246.224 L214.269 250.159 L194.362 250.159 L194.362 246.224 Z" fill="#000000" fill-rule="nonzero" fill-opacity="1" /><path clip-path="url(#clip300)" d="M233.714 218.677 Q230.103 218.677 228.274 222.242 Q226.468 225.784 226.468 232.914 Q226.468 240.02 228.274 243.585 Q230.103 247.126 233.714 247.126 Q237.348 247.126 239.154 243.585 Q240.982 240.02 240.982 232.914 Q240.982 225.784 239.154 222.242 Q237.348 218.677 233.714 218.677 M233.714 214.974 Q239.524 214.974 242.58 219.58 Q245.658 224.164 245.658 232.914 Q245.658 241.64 242.58 246.247 Q239.524 250.83 233.714 250.83 Q227.904 250.83 224.825 246.247 Q221.769 241.64 221.769 232.914 Q221.769 224.164 224.825 219.58 Q227.904 214.974 233.714 214.974 Z" fill="#000000" fill-rule="nonzero" fill-opacity="1" /><path clip-path="url(#clip300)" d="M263.876 218.677 Q260.265 218.677 258.436 222.242 Q256.63 225.784 256.63 232.914 Q256.63 240.02 258.436 243.585 Q260.265 247.126 263.876 247.126 Q267.51 247.126 269.315 243.585 Q271.144 240.02 271.144 232.914 Q271.144 225.784 269.315 222.242 Q267.51 218.677 263.876 218.677 M263.876 214.974 Q269.686 214.974 272.741 219.58 Q275.82 224.164 275.82 232.914 Q275.82 241.64 272.741 246.247 Q269.686 250.83 263.876 250.83 Q258.066 250.83 254.987 246.247 Q251.931 241.64 251.931 232.914 Q251.931 224.164 254.987 219.58 Q258.066 214.974 263.876 214.974 Z" fill="#000000" fill-rule="nonzero" fill-opacity="1" /><path clip-path="url(#clip300)" d="M19.402 1044.26 L56.3549 1044.26 L56.3549 1036.5 Q56.3549 1026.66 51.8989 1022.11 Q47.4429 1017.53 37.8307 1017.53 Q28.2821 1017.53 23.858 1022.11 Q19.402 1026.66 19.402 1036.5 L19.402 1044.26 M14.1184 1050.69 L14.1184 1037.48 Q14.1184 1023.67 19.8794 1017.21 Q25.6085 1010.75 37.8307 1010.75 Q50.1165 1010.75 55.8775 1017.24 Q61.6384 1023.73 61.6384 1037.48 L61.6384 1050.69 L14.1184 1050.69 Z" fill="#000000" fill-rule="nonzero" fill-opacity="1" /><path clip-path="url(#clip300)" d="M42.3504 970.263 L45.2149 970.263 L45.2149 997.19 Q51.2623 996.808 54.4452 993.561 Q57.5962 990.283 57.5962 984.458 Q57.5962 981.084 56.7687 977.933 Q55.9411 974.751 54.2861 971.631 L59.8242 971.631 Q61.161 974.782 61.8612 978.093 Q62.5615 981.403 62.5615 984.808 Q62.5615 993.338 57.5962 998.336 Q52.631 1003.3 44.1646 1003.3 Q35.4117 1003.3 30.2873 998.59 Q25.1311 993.848 25.1311 985.827 Q25.1311 978.634 29.7781 974.464 Q34.3932 970.263 42.3504 970.263 M40.6316 976.119 Q35.8255 976.183 32.9609 978.825 Q30.0964 981.435 30.0964 985.763 Q30.0964 990.665 32.8654 993.625 Q35.6345 996.553 40.6634 996.999 L40.6316 976.119 Z" fill="#000000" fill-rule="nonzero" fill-opacity="1" /><path clip-path="url(#clip300)" d="M40.1224 931.018 L61.6384 931.018 L61.6384 936.875 L40.3133 936.875 Q35.2526 936.875 32.7381 938.848 Q30.2237 940.821 30.2237 944.768 Q30.2237 949.511 33.2474 952.248 Q36.2711 954.985 41.491 954.985 L61.6384 954.985 L61.6384 960.873 L25.9905 960.873 L25.9905 954.985 L31.5287 954.985 Q28.314 952.884 26.7225 950.052 Q25.1311 947.187 25.1311 943.463 Q25.1311 937.32 28.9505 934.169 Q32.7381 931.018 40.1224 931.018 Z" fill="#000000" fill-rule="nonzero" fill-opacity="1" /><path clip-path="url(#clip300)" d="M27.0408 896.612 L32.579 896.612 Q31.3059 899.094 30.6693 901.768 Q30.0327 904.441 30.0327 907.306 Q30.0327 911.666 31.3695 913.863 Q32.7063 916.027 35.3799 916.027 Q37.4169 916.027 38.5946 914.467 Q39.7404 912.908 40.7908 908.197 L41.2364 906.192 Q42.5732 899.954 45.0239 897.344 Q47.4429 894.702 51.8034 894.702 Q56.7687 894.702 59.6651 898.649 Q62.5615 902.564 62.5615 909.438 Q62.5615 912.303 61.9886 915.422 Q61.4475 918.51 60.3335 921.947 L54.2861 921.947 Q55.973 918.701 56.8323 915.55 Q57.6599 912.399 57.6599 909.311 Q57.6599 905.173 56.2594 902.945 Q54.8271 900.717 52.249 900.717 Q49.8619 900.717 48.5887 902.341 Q47.3156 903.932 46.1379 909.375 L45.6605 911.412 Q44.5147 916.855 42.1594 919.273 Q39.7722 921.692 35.6345 921.692 Q30.6056 921.692 27.8684 918.128 Q25.1311 914.563 25.1311 908.006 Q25.1311 904.76 25.6085 901.895 Q26.086 899.031 27.0408 896.612 Z" fill="#000000" fill-rule="nonzero" fill-opacity="1" /><path clip-path="url(#clip300)" d="M25.9905 885.376 L25.9905 879.52 L61.6384 879.52 L61.6384 885.376 L25.9905 885.376 M12.1132 885.376 L12.1132 879.52 L19.5293 879.52 L19.5293 885.376 L12.1132 885.376 Z" fill="#000000" fill-rule="nonzero" fill-opacity="1" /><path clip-path="url(#clip300)" d="M15.869 861.473 L25.9905 861.473 L25.9905 849.41 L30.542 849.41 L30.542 861.473 L49.8937 861.473 Q54.2542 861.473 55.4955 860.295 Q56.7368 859.086 56.7368 855.425 L56.7368 849.41 L61.6384 849.41 L61.6384 855.425 Q61.6384 862.205 59.124 864.783 Q56.5777 867.361 49.8937 867.361 L30.542 867.361 L30.542 871.658 L25.9905 871.658 L25.9905 867.361 L15.869 867.361 L15.869 861.473 Z" fill="#000000" fill-rule="nonzero" fill-opacity="1" /><path clip-path="url(#clip300)" d="M64.9486 826.875 Q71.3143 829.358 73.2559 831.713 Q75.1974 834.069 75.1974 838.015 L75.1974 842.694 L70.2958 842.694 L70.2958 839.257 Q70.2958 836.838 69.15 835.501 Q68.0041 834.164 63.7391 832.541 L61.0655 831.49 L25.9905 845.909 L25.9905 839.702 L53.8723 828.562 L25.9905 817.422 L25.9905 811.216 L64.9486 826.875 Z" fill="#000000" fill-rule="nonzero" fill-opacity="1" /><path clip-path="url(#clip300)" d="M1092.36 12.096 L1127.11 12.096 L1127.11 18.9825 L1100.54 18.9825 L1100.54 36.8065 L1124.52 36.8065 L1124.52 43.6931 L1100.54 43.6931 L1100.54 72.576 L1092.36 72.576 L1092.36 12.096 Z" fill="#000000" fill-rule="nonzero" fill-opacity="1" /><path clip-path="url(#clip300)" d="M1133.72 27.2059 L1141.17 27.2059 L1141.17 72.576 L1133.72 72.576 L1133.72 27.2059 M1133.72 9.54393 L1141.17 9.54393 L1141.17 18.9825 L1133.72 18.9825 L1133.72 9.54393 Z" fill="#000000" fill-rule="nonzero" fill-opacity="1" /><path clip-path="url(#clip300)" d="M1194.48 45.1919 L1194.48 72.576 L1187.03 72.576 L1187.03 45.4349 Q1187.03 38.994 1184.51 35.7938 Q1182 32.5936 1176.98 32.5936 Q1170.94 32.5936 1167.46 36.4419 Q1163.98 40.2903 1163.98 46.9338 L1163.98 72.576 L1156.48 72.576 L1156.48 27.2059 L1163.98 27.2059 L1163.98 34.2544 Q1166.65 30.163 1170.26 28.1376 Q1173.9 26.1121 1178.64 26.1121 Q1186.46 26.1121 1190.47 30.9732 Q1194.48 35.7938 1194.48 45.1919 Z" fill="#000000" fill-rule="nonzero" fill-opacity="1" /><path clip-path="url(#clip300)" d="M1229.97 49.7694 Q1220.93 49.7694 1217.45 51.8354 Q1213.96 53.9013 1213.96 58.8839 Q1213.96 62.8538 1216.56 65.2034 Q1219.19 67.5124 1223.69 67.5124 Q1229.88 67.5124 1233.61 63.1374 Q1237.38 58.7219 1237.38 51.4303 L1237.38 49.7694 L1229.97 49.7694 M1244.83 46.6907 L1244.83 72.576 L1237.38 72.576 L1237.38 65.6895 Q1234.83 69.8214 1231.02 71.8063 Q1227.21 73.7508 1221.7 73.7508 Q1214.73 73.7508 1210.6 69.8619 Q1206.51 65.9325 1206.51 59.3701 Q1206.51 51.7138 1211.61 47.825 Q1216.76 43.9361 1226.93 43.9361 L1237.38 43.9361 L1237.38 43.2069 Q1237.38 38.0623 1233.98 35.2672 Q1230.61 32.4315 1224.5 32.4315 Q1220.61 32.4315 1216.92 33.3632 Q1213.24 34.295 1209.83 36.1584 L1209.83 29.2718 Q1213.92 27.692 1217.77 26.9223 Q1221.62 26.1121 1225.27 26.1121 Q1235.11 26.1121 1239.97 31.2163 Q1244.83 36.3204 1244.83 46.6907 Z" fill="#000000" fill-rule="nonzero" fill-opacity="1" /><path clip-path="url(#clip300)" d="M1260.19 9.54393 L1267.64 9.54393 L1267.64 72.576 L1260.19 72.576 L1260.19 9.54393 Z" fill="#000000" fill-rule="nonzero" fill-opacity="1" /><path clip-path="url(#clip300)" d="M1348.41 48.0275 L1348.41 51.6733 L1314.14 51.6733 Q1314.63 59.3701 1318.76 63.421 Q1322.93 67.4314 1330.35 67.4314 Q1334.64 67.4314 1338.65 66.3781 Q1342.7 65.3249 1346.67 63.2184 L1346.67 70.267 Q1342.66 71.9684 1338.45 72.8596 Q1334.24 73.7508 1329.9 73.7508 Q1319.04 73.7508 1312.68 67.4314 Q1306.37 61.1119 1306.37 50.3365 Q1306.37 39.1965 1312.36 32.6746 Q1318.4 26.1121 1328.61 26.1121 Q1337.76 26.1121 1343.07 32.0264 Q1348.41 37.9003 1348.41 48.0275 M1340.96 45.84 Q1340.88 39.7232 1337.52 36.0774 Q1334.2 32.4315 1328.69 32.4315 Q1322.45 32.4315 1318.68 35.9558 Q1314.95 39.4801 1314.39 45.8805 L1340.96 45.84 Z" fill="#000000" fill-rule="nonzero" fill-opacity="1" /><path clip-path="url(#clip300)" d="M1367.86 65.7705 L1367.86 89.8329 L1360.36 89.8329 L1360.36 27.2059 L1367.86 27.2059 L1367.86 34.0924 Q1370.21 30.0415 1373.77 28.0971 Q1377.38 26.1121 1382.36 26.1121 Q1390.62 26.1121 1395.77 32.6746 Q1400.95 39.2371 1400.95 49.9314 Q1400.95 60.6258 1395.77 67.1883 Q1390.62 73.7508 1382.36 73.7508 Q1377.38 73.7508 1373.77 71.8063 Q1370.21 69.8214 1367.86 65.7705 M1393.22 49.9314 Q1393.22 41.7081 1389.81 37.0496 Q1386.45 32.3505 1380.54 32.3505 Q1374.62 32.3505 1371.22 37.0496 Q1367.86 41.7081 1367.86 49.9314 Q1367.86 58.1548 1371.22 62.8538 Q1374.62 67.5124 1380.54 67.5124 Q1386.45 67.5124 1389.81 62.8538 Q1393.22 58.1548 1393.22 49.9314 Z" fill="#000000" fill-rule="nonzero" fill-opacity="1" /><path clip-path="url(#clip300)" d="M1413.31 27.2059 L1420.76 27.2059 L1420.76 72.576 L1413.31 72.576 L1413.31 27.2059 M1413.31 9.54393 L1420.76 9.54393 L1420.76 18.9825 L1413.31 18.9825 L1413.31 9.54393 Z" fill="#000000" fill-rule="nonzero" fill-opacity="1" /><path clip-path="url(#clip300)" d="M1466.21 34.0924 L1466.21 9.54393 L1473.67 9.54393 L1473.67 72.576 L1466.21 72.576 L1466.21 65.7705 Q1463.86 69.8214 1460.26 71.8063 Q1456.69 73.7508 1451.67 73.7508 Q1443.45 73.7508 1438.26 67.1883 Q1433.12 60.6258 1433.12 49.9314 Q1433.12 39.2371 1438.26 32.6746 Q1443.45 26.1121 1451.67 26.1121 Q1456.69 26.1121 1460.26 28.0971 Q1463.86 30.0415 1466.21 34.0924 M1440.82 49.9314 Q1440.82 58.1548 1444.18 62.8538 Q1447.58 67.5124 1453.49 67.5124 Q1459.41 67.5124 1462.81 62.8538 Q1466.21 58.1548 1466.21 49.9314 Q1466.21 41.7081 1462.81 37.0496 Q1459.41 32.3505 1453.49 32.3505 Q1447.58 32.3505 1444.18 37.0496 Q1440.82 41.7081 1440.82 49.9314 Z" fill="#000000" fill-rule="nonzero" fill-opacity="1" /><path clip-path="url(#clip300)" d="M1527.83 48.0275 L1527.83 51.6733 L1493.56 51.6733 Q1494.04 59.3701 1498.18 63.421 Q1502.35 67.4314 1509.76 67.4314 Q1514.06 67.4314 1518.07 66.3781 Q1522.12 65.3249 1526.09 63.2184 L1526.09 70.267 Q1522.08 71.9684 1517.86 72.8596 Q1513.65 73.7508 1509.32 73.7508 Q1498.46 73.7508 1492.1 67.4314 Q1485.78 61.1119 1485.78 50.3365 Q1485.78 39.1965 1491.78 32.6746 Q1497.81 26.1121 1508.02 26.1121 Q1517.17 26.1121 1522.48 32.0264 Q1527.83 37.9003 1527.83 48.0275 M1520.37 45.84 Q1520.29 39.7232 1516.93 36.0774 Q1513.61 32.4315 1508.1 32.4315 Q1501.86 32.4315 1498.09 35.9558 Q1494.37 39.4801 1493.8 45.8805 L1520.37 45.84 Z" fill="#000000" fill-rule="nonzero" fill-opacity="1" /><path clip-path="url(#clip300)" d="M1575.39 35.9153 Q1578.18 30.8922 1582.07 28.5022 Q1585.96 26.1121 1591.23 26.1121 Q1598.31 26.1121 1602.16 31.0947 Q1606.01 36.0368 1606.01 45.1919 L1606.01 72.576 L1598.52 72.576 L1598.52 45.4349 Q1598.52 38.913 1596.21 35.7533 Q1593.9 32.5936 1589.16 32.5936 Q1583.37 32.5936 1580 36.4419 Q1576.64 40.2903 1576.64 46.9338 L1576.64 72.576 L1569.15 72.576 L1569.15 45.4349 Q1569.15 38.8725 1566.84 35.7533 Q1564.53 32.5936 1559.71 32.5936 Q1554 32.5936 1550.64 36.4824 Q1547.27 40.3308 1547.27 46.9338 L1547.27 72.576 L1539.78 72.576 L1539.78 27.2059 L1547.27 27.2059 L1547.27 34.2544 Q1549.82 30.082 1553.39 28.0971 Q1556.95 26.1121 1561.86 26.1121 Q1566.8 26.1121 1570.24 28.6237 Q1573.73 31.1352 1575.39 35.9153 Z" fill="#000000" fill-rule="nonzero" fill-opacity="1" /><path clip-path="url(#clip300)" d="M1620.88 27.2059 L1628.33 27.2059 L1628.33 72.576 L1620.88 72.576 L1620.88 27.2059 M1620.88 9.54393 L1628.33 9.54393 L1628.33 18.9825 L1620.88 18.9825 L1620.88 9.54393 Z" fill="#000000" fill-rule="nonzero" fill-opacity="1" /><path clip-path="url(#clip300)" d="M1676.58 28.9478 L1676.58 35.9153 Q1673.42 34.1734 1670.22 33.3227 Q1667.06 32.4315 1663.82 32.4315 Q1656.57 32.4315 1652.56 37.0496 Q1648.55 41.6271 1648.55 49.9314 Q1648.55 58.2358 1652.56 62.8538 Q1656.57 67.4314 1663.82 67.4314 Q1667.06 67.4314 1670.22 66.5807 Q1673.42 65.6895 1676.58 63.9476 L1676.58 70.8341 Q1673.46 72.2924 1670.1 73.0216 Q1666.77 73.7508 1663.01 73.7508 Q1652.76 73.7508 1646.72 67.3098 Q1640.69 60.8689 1640.69 49.9314 Q1640.69 38.832 1646.76 32.472 Q1652.88 26.1121 1663.49 26.1121 Q1666.94 26.1121 1670.22 26.8413 Q1673.5 27.5299 1676.58 28.9478 Z" fill="#000000" fill-rule="nonzero" fill-opacity="1" /><path clip-path="url(#clip300)" d="M1744.84 28.5427 L1744.84 35.5912 Q1741.68 33.9709 1738.27 33.1607 Q1734.87 32.3505 1731.22 32.3505 Q1725.67 32.3505 1722.88 34.0519 Q1720.12 35.7533 1720.12 39.156 Q1720.12 41.7486 1722.11 43.2475 Q1724.09 44.7058 1730.09 46.0426 L1732.64 46.6097 Q1740.58 48.3111 1743.9 51.4303 Q1747.27 54.509 1747.27 60.0587 Q1747.27 66.3781 1742.24 70.0644 Q1737.26 73.7508 1728.51 73.7508 Q1724.86 73.7508 1720.89 73.0216 Q1716.97 72.3329 1712.59 70.9151 L1712.59 63.2184 Q1716.72 65.3654 1720.73 66.4591 Q1724.74 67.5124 1728.67 67.5124 Q1733.94 67.5124 1736.77 65.73 Q1739.61 63.9071 1739.61 60.6258 Q1739.61 57.5877 1737.54 55.9673 Q1735.52 54.3469 1728.59 52.8481 L1726 52.2405 Q1719.07 50.7821 1715.99 47.7845 Q1712.91 44.7463 1712.91 39.4801 Q1712.91 33.0797 1717.45 29.5959 Q1721.99 26.1121 1730.33 26.1121 Q1734.47 26.1121 1738.11 26.7198 Q1741.76 27.3274 1744.84 28.5427 Z" fill="#000000" fill-rule="nonzero" fill-opacity="1" /><path clip-path="url(#clip300)" d="M1759.14 27.2059 L1766.59 27.2059 L1766.59 72.576 L1759.14 72.576 L1759.14 27.2059 M1759.14 9.54393 L1766.59 9.54393 L1766.59 18.9825 L1759.14 18.9825 L1759.14 9.54393 Z" fill="#000000" fill-rule="nonzero" fill-opacity="1" /><path clip-path="url(#clip300)" d="M1778.94 27.2059 L1814.35 27.2059 L1814.35 34.0114 L1786.32 66.6212 L1814.35 66.6212 L1814.35 72.576 L1777.93 72.576 L1777.93 65.7705 L1805.96 33.1607 L1778.94 33.1607 L1778.94 27.2059 Z" fill="#000000" fill-rule="nonzero" fill-opacity="1" /><path clip-path="url(#clip300)" d="M1864.54 48.0275 L1864.54 51.6733 L1830.27 51.6733 Q1830.76 59.3701 1834.89 63.421 Q1839.06 67.4314 1846.47 67.4314 Q1850.77 67.4314 1854.78 66.3781 Q1858.83 65.3249 1862.8 63.2184 L1862.8 70.267 Q1858.79 71.9684 1854.57 72.8596 Q1850.36 73.7508 1846.03 73.7508 Q1835.17 73.7508 1828.81 67.4314 Q1822.49 61.1119 1822.49 50.3365 Q1822.49 39.1965 1828.49 32.6746 Q1834.52 26.1121 1844.73 26.1121 Q1853.89 26.1121 1859.19 32.0264 Q1864.54 37.9003 1864.54 48.0275 M1857.09 45.84 Q1857 39.7232 1853.64 36.0774 Q1850.32 32.4315 1844.81 32.4315 Q1838.57 32.4315 1834.81 35.9558 Q1831.08 39.4801 1830.51 45.8805 L1857.09 45.84 Z" fill="#000000" fill-rule="nonzero" fill-opacity="1" /><path clip-path="url(#clip301)" d="M443.998 1711.6 L443.998 1734.12 L603.144 1734.12 L603.144 1711.6 L443.998 1711.6 L443.998 1711.6  Z" fill="#0000ff" fill-rule="evenodd" fill-opacity="0.7"/>
<polyline clip-path="url(#clip301)" style="stroke:#000000; stroke-linecap:round; stroke-linejoin:round; stroke-width:4; stroke-opacity:0.7; fill:none" points="443.998,1711.6 443.998,1734.12 603.144,1734.12 603.144,1711.6 443.998,1711.6 "/>
<path clip-path="url(#clip301)" d="M603.144 1689.08 L603.144 1734.12 L762.29 1734.12 L762.29 1689.08 L603.144 1689.08 L603.144 1689.08  Z" fill="#0000ff" fill-rule="evenodd" fill-opacity="0.7"/>
<polyline clip-path="url(#clip301)" style="stroke:#000000; stroke-linecap:round; stroke-linejoin:round; stroke-width:4; stroke-opacity:0.7; fill:none" points="603.144,1689.08 603.144,1734.12 762.29,1734.12 762.29,1689.08 603.144,1689.08 "/>
<path clip-path="url(#clip301)" d="M762.29 1351.3 L762.29 1734.12 L921.436 1734.12 L921.436 1351.3 L762.29 1351.3 L762.29 1351.3  Z" fill="#0000ff" fill-rule="evenodd" fill-opacity="0.7"/>
<polyline clip-path="url(#clip301)" style="stroke:#000000; stroke-linecap:round; stroke-linejoin:round; stroke-width:4; stroke-opacity:0.7; fill:none" points="762.29,1351.3 762.29,1734.12 921.436,1734.12 921.436,1351.3 762.29,1351.3 "/>
<path clip-path="url(#clip301)" d="M921.436 1051.05 L921.436 1734.12 L1080.58 1734.12 L1080.58 1051.05 L921.436 1051.05 L921.436 1051.05  Z" fill="#0000ff" fill-rule="evenodd" fill-opacity="0.7"/>
<polyline clip-path="url(#clip301)" style="stroke:#000000; stroke-linecap:round; stroke-linejoin:round; stroke-width:4; stroke-opacity:0.7; fill:none" points="921.436,1051.05 921.436,1734.12 1080.58,1734.12 1080.58,1051.05 921.436,1051.05 "/>
<path clip-path="url(#clip301)" d="M1080.58 563.151 L1080.58 1734.12 L1239.73 1734.12 L1239.73 563.151 L1080.58 563.151 L1080.58 563.151  Z" fill="#0000ff" fill-rule="evenodd" fill-opacity="0.7"/>
<polyline clip-path="url(#clip301)" style="stroke:#000000; stroke-linecap:round; stroke-linejoin:round; stroke-width:4; stroke-opacity:0.7; fill:none" points="1080.58,563.151 1080.58,1734.12 1239.73,1734.12 1239.73,563.151 1080.58,563.151 "/>
<path clip-path="url(#clip301)" d="M1239.73 127.792 L1239.73 1734.12 L1398.87 1734.12 L1398.87 127.792 L1239.73 127.792 L1239.73 127.792  Z" fill="#0000ff" fill-rule="evenodd" fill-opacity="0.7"/>
<polyline clip-path="url(#clip301)" style="stroke:#000000; stroke-linecap:round; stroke-linejoin:round; stroke-width:4; stroke-opacity:0.7; fill:none" points="1239.73,127.792 1239.73,1734.12 1398.87,1734.12 1398.87,127.792 1239.73,127.792 "/>
<path clip-path="url(#clip301)" d="M1398.87 322.953 L1398.87 1734.12 L1558.02 1734.12 L1558.02 322.953 L1398.87 322.953 L1398.87 322.953  Z" fill="#0000ff" fill-rule="evenodd" fill-opacity="0.7"/>
<polyline clip-path="url(#clip301)" style="stroke:#000000; stroke-linecap:round; stroke-linejoin:round; stroke-width:4; stroke-opacity:0.7; fill:none" points="1398.87,322.953 1398.87,1734.12 1558.02,1734.12 1558.02,322.953 1398.87,322.953 "/>
<path clip-path="url(#clip301)" d="M1558.02 495.595 L1558.02 1734.12 L1717.17 1734.12 L1717.17 495.595 L1558.02 495.595 L1558.02 495.595  Z" fill="#0000ff" fill-rule="evenodd" fill-opacity="0.7"/>
<polyline clip-path="url(#clip301)" style="stroke:#000000; stroke-linecap:round; stroke-linejoin:round; stroke-width:4; stroke-opacity:0.7; fill:none" points="1558.02,495.595 1558.02,1734.12 1717.17,1734.12 1717.17,495.595 1558.02,495.595 "/>
<path clip-path="url(#clip301)" d="M1717.17 1111.1 L1717.17 1734.12 L1876.31 1734.12 L1876.31 1111.1 L1717.17 1111.1 L1717.17 1111.1  Z" fill="#0000ff" fill-rule="evenodd" fill-opacity="0.7"/>
<polyline clip-path="url(#clip301)" style="stroke:#000000; stroke-linecap:round; stroke-linejoin:round; stroke-width:4; stroke-opacity:0.7; fill:none" points="1717.17,1111.1 1717.17,1734.12 1876.31,1734.12 1876.31,1111.1 1717.17,1111.1 "/>
<path clip-path="url(#clip301)" d="M1876.31 1493.92 L1876.31 1734.12 L2035.46 1734.12 L2035.46 1493.92 L1876.31 1493.92 L1876.31 1493.92  Z" fill="#0000ff" fill-rule="evenodd" fill-opacity="0.7"/>
<polyline clip-path="url(#clip301)" style="stroke:#000000; stroke-linecap:round; stroke-linejoin:round; stroke-width:4; stroke-opacity:0.7; fill:none" points="1876.31,1493.92 1876.31,1734.12 2035.46,1734.12 2035.46,1493.92 1876.31,1493.92 "/>
<path clip-path="url(#clip301)" d="M2035.46 1681.57 L2035.46 1734.12 L2194.61 1734.12 L2194.61 1681.57 L2035.46 1681.57 L2035.46 1681.57  Z" fill="#0000ff" fill-rule="evenodd" fill-opacity="0.7"/>
<polyline clip-path="url(#clip301)" style="stroke:#000000; stroke-linecap:round; stroke-linejoin:round; stroke-width:4; stroke-opacity:0.7; fill:none" points="2035.46,1681.57 2035.46,1734.12 2194.61,1734.12 2194.61,1681.57 2035.46,1681.57 "/>
<path clip-path="url(#clip301)" d="M2194.61 1719.1 L2194.61 1734.12 L2353.75 1734.12 L2353.75 1719.1 L2194.61 1719.1 L2194.61 1719.1  Z" fill="#0000ff" fill-rule="evenodd" fill-opacity="0.7"/>
<polyline clip-path="url(#clip301)" style="stroke:#000000; stroke-linecap:round; stroke-linejoin:round; stroke-width:4; stroke-opacity:0.7; fill:none" points="2194.61,1719.1 2194.61,1734.12 2353.75,1734.12 2353.75,1719.1 2194.61,1719.1 "/>
<path clip-path="url(#clip301)" d="M2353.75 1719.1 L2353.75 1734.12 L2512.9 1734.12 L2512.9 1719.1 L2353.75 1719.1 L2353.75 1719.1  Z" fill="#0000ff" fill-rule="evenodd" fill-opacity="0.7"/>
<polyline clip-path="url(#clip301)" style="stroke:#000000; stroke-linecap:round; stroke-linejoin:round; stroke-width:4; stroke-opacity:0.7; fill:none" points="2353.75,1719.1 2353.75,1734.12 2512.9,1734.12 2512.9,1719.1 2353.75,1719.1 "/>
<circle clip-path="url(#clip301)" style="fill:#0000ff; stroke:none; fill-opacity:0" cx="523.571" cy="1711.6" r="2"/>
<circle clip-path="url(#clip301)" style="fill:#0000ff; stroke:none; fill-opacity:0" cx="682.717" cy="1689.08" r="2"/>
<circle clip-path="url(#clip301)" style="fill:#0000ff; stroke:none; fill-opacity:0" cx="841.863" cy="1351.3" r="2"/>
<circle clip-path="url(#clip301)" style="fill:#0000ff; stroke:none; fill-opacity:0" cx="1001.01" cy="1051.05" r="2"/>
<circle clip-path="url(#clip301)" style="fill:#0000ff; stroke:none; fill-opacity:0" cx="1160.16" cy="563.151" r="2"/>
<circle clip-path="url(#clip301)" style="fill:#0000ff; stroke:none; fill-opacity:0" cx="1478.45" cy="322.953" r="2"/>
<circle clip-path="url(#clip301)" style="fill:#0000ff; stroke:none; fill-opacity:0" cx="1637.59" cy="495.595" r="2"/>
<circle clip-path="url(#clip301)" style="fill:#0000ff; stroke:none; fill-opacity:0" cx="1796.74" cy="1111.1" r="2"/>
<circle clip-path="url(#clip301)" style="fill:#0000ff; stroke:none; fill-opacity:0" cx="1955.89" cy="1493.92" r="2"/>
<circle clip-path="url(#clip301)" style="fill:#0000ff; stroke:none; fill-opacity:0" cx="2115.03" cy="1681.57" r="2"/>
<circle clip-path="url(#clip301)" style="fill:#0000ff; stroke:none; fill-opacity:0" cx="2274.18" cy="1719.1" r="2"/>
<circle clip-path="url(#clip301)" style="fill:#0000ff; stroke:none; fill-opacity:0" cx="2433.32" cy="1719.1" r="2"/>
<polyline clip-path="url(#clip301)" style="stroke:#ff0000; stroke-linecap:round; stroke-linejoin:round; stroke-width:12; stroke-opacity:1; fill:none" stroke-dasharray="48, 30" points="1387.49,3340.44 1387.49,-1478.53 "/>
<polyline clip-path="url(#clip301)" style="stroke:#008000; stroke-linecap:round; stroke-linejoin:round; stroke-width:12; stroke-opacity:1; fill:none" stroke-dasharray="6, 12" points="1597.81,3340.44 1597.81,-1478.53 "/>
<path clip-path="url(#clip300)" d="M1919.03 336.856 L2563.27 336.856 L2563.27 181.336 L1919.03 181.336  Z" fill="#ffffff" fill-rule="evenodd" fill-opacity="1"/>
<polyline clip-path="url(#clip300)" style="stroke:#000000; stroke-linecap:round; stroke-linejoin:round; stroke-width:4; stroke-opacity:1; fill:none" points="1919.03,336.856 2563.27,336.856 2563.27,181.336 1919.03,181.336 1919.03,336.856 "/>
<polyline clip-path="url(#clip300)" style="stroke:#ff0000; stroke-linecap:round; stroke-linejoin:round; stroke-width:12; stroke-opacity:1; fill:none" stroke-dasharray="48, 30" points="1944.86,233.176 2099.83,233.176 "/>
<path clip-path="url(#clip300)" d="M2125.66 215.896 L2132.63 215.896 L2141.45 239.415 L2150.31 215.896 L2157.28 215.896 L2157.28 250.456 L2152.72 250.456 L2152.72 220.109 L2143.81 243.813 L2139.11 243.813 L2130.2 220.109 L2130.2 250.456 L2125.66 250.456 L2125.66 215.896 Z" fill="#000000" fill-rule="nonzero" fill-opacity="1" /><path clip-path="url(#clip300)" d="M2188.55 236.429 L2188.55 238.512 L2168.97 238.512 Q2169.25 242.91 2171.61 245.225 Q2173.99 247.516 2178.23 247.516 Q2180.68 247.516 2182.97 246.915 Q2185.29 246.313 2187.56 245.109 L2187.56 249.137 Q2185.27 250.109 2182.86 250.618 Q2180.45 251.128 2177.97 251.128 Q2171.77 251.128 2168.14 247.516 Q2164.52 243.905 2164.52 237.748 Q2164.52 231.382 2167.95 227.655 Q2171.4 223.906 2177.23 223.906 Q2182.46 223.906 2185.5 227.285 Q2188.55 230.642 2188.55 236.429 M2184.29 235.179 Q2184.25 231.683 2182.33 229.6 Q2180.43 227.517 2177.28 227.517 Q2173.71 227.517 2171.56 229.53 Q2169.43 231.544 2169.11 235.202 L2184.29 235.179 Z" fill="#000000" fill-rule="nonzero" fill-opacity="1" /><path clip-path="url(#clip300)" d="M2207.33 237.424 Q2202.16 237.424 2200.17 238.604 Q2198.18 239.785 2198.18 242.632 Q2198.18 244.901 2199.66 246.243 Q2201.17 247.563 2203.74 247.563 Q2207.28 247.563 2209.41 245.063 Q2211.56 242.54 2211.56 238.373 L2211.56 237.424 L2207.33 237.424 M2215.82 235.665 L2215.82 250.456 L2211.56 250.456 L2211.56 246.521 Q2210.1 248.882 2207.93 250.016 Q2205.75 251.128 2202.6 251.128 Q2198.62 251.128 2196.26 248.905 Q2193.92 246.66 2193.92 242.91 Q2193.92 238.535 2196.84 236.313 Q2199.78 234.091 2205.59 234.091 L2211.56 234.091 L2211.56 233.674 Q2211.56 230.734 2209.62 229.137 Q2207.7 227.517 2204.2 227.517 Q2201.98 227.517 2199.87 228.049 Q2197.77 228.581 2195.82 229.646 L2195.82 225.711 Q2198.16 224.808 2200.36 224.368 Q2202.56 223.906 2204.64 223.906 Q2210.27 223.906 2213.04 226.822 Q2215.82 229.739 2215.82 235.665 Z" fill="#000000" fill-rule="nonzero" fill-opacity="1" /><path clip-path="url(#clip300)" d="M2246.14 234.808 L2246.14 250.456 L2241.89 250.456 L2241.89 234.947 Q2241.89 231.267 2240.45 229.438 Q2239.02 227.609 2236.14 227.609 Q2232.7 227.609 2230.71 229.808 Q2228.71 232.007 2228.71 235.804 L2228.71 250.456 L2224.43 250.456 L2224.43 224.531 L2228.71 224.531 L2228.71 228.558 Q2230.24 226.22 2232.3 225.063 Q2234.39 223.906 2237.09 223.906 Q2241.56 223.906 2243.85 226.683 Q2246.14 229.438 2246.14 234.808 Z" fill="#000000" fill-rule="nonzero" fill-opacity="1" /><path clip-path="url(#clip300)" d="M2270.27 228.929 L2299.94 228.929 L2299.94 232.817 L2270.27 232.817 L2270.27 228.929 M2270.27 238.373 L2299.94 238.373 L2299.94 242.308 L2270.27 242.308 L2270.27 238.373 Z" fill="#000000" fill-rule="nonzero" fill-opacity="1" /><path clip-path="url(#clip300)" d="M2329.13 246.521 L2345.45 246.521 L2345.45 250.456 L2323.51 250.456 L2323.51 246.521 Q2326.17 243.767 2330.75 239.137 Q2335.36 234.484 2336.54 233.142 Q2338.78 230.618 2339.66 228.882 Q2340.57 227.123 2340.57 225.433 Q2340.57 222.679 2338.62 220.943 Q2336.7 219.206 2333.6 219.206 Q2331.4 219.206 2328.95 219.97 Q2326.51 220.734 2323.74 222.285 L2323.74 217.563 Q2326.56 216.429 2329.01 215.85 Q2331.47 215.271 2333.51 215.271 Q2338.88 215.271 2342.07 217.956 Q2345.26 220.642 2345.26 225.132 Q2345.26 227.262 2344.45 229.183 Q2343.67 231.081 2341.56 233.674 Q2340.98 234.345 2337.88 237.563 Q2334.78 240.757 2329.13 246.521 Z" fill="#000000" fill-rule="nonzero" fill-opacity="1" /><path clip-path="url(#clip300)" d="M2359.29 246.521 L2375.61 246.521 L2375.61 250.456 L2353.67 250.456 L2353.67 246.521 Q2356.33 243.767 2360.91 239.137 Q2365.52 234.484 2366.7 233.142 Q2368.95 230.618 2369.82 228.882 Q2370.73 227.123 2370.73 225.433 Q2370.73 222.679 2368.78 220.943 Q2366.86 219.206 2363.76 219.206 Q2361.56 219.206 2359.11 219.97 Q2356.68 220.734 2353.9 222.285 L2353.9 217.563 Q2356.72 216.429 2359.18 215.85 Q2361.63 215.271 2363.67 215.271 Q2369.04 215.271 2372.23 217.956 Q2375.43 220.642 2375.43 225.132 Q2375.43 227.262 2374.62 229.183 Q2373.83 231.081 2371.72 233.674 Q2371.14 234.345 2368.04 237.563 Q2364.94 240.757 2359.29 246.521 Z" fill="#000000" fill-rule="nonzero" fill-opacity="1" /><path clip-path="url(#clip300)" d="M2399.59 231.822 Q2402.95 232.54 2404.82 234.808 Q2406.72 237.077 2406.72 240.41 Q2406.72 245.526 2403.2 248.327 Q2399.69 251.128 2393.2 251.128 Q2391.03 251.128 2388.71 250.688 Q2386.42 250.271 2383.97 249.415 L2383.97 244.901 Q2385.91 246.035 2388.23 246.614 Q2390.54 247.192 2393.07 247.192 Q2397.46 247.192 2399.76 245.456 Q2402.07 243.72 2402.07 240.41 Q2402.07 237.355 2399.92 235.642 Q2397.79 233.905 2393.97 233.905 L2389.94 233.905 L2389.94 230.063 L2394.15 230.063 Q2397.6 230.063 2399.43 228.697 Q2401.26 227.308 2401.26 224.716 Q2401.26 222.054 2399.36 220.642 Q2397.49 219.206 2393.97 219.206 Q2392.05 219.206 2389.85 219.623 Q2387.65 220.04 2385.01 220.919 L2385.01 216.753 Q2387.67 216.012 2389.99 215.642 Q2392.32 215.271 2394.38 215.271 Q2399.71 215.271 2402.81 217.702 Q2405.91 220.109 2405.91 224.23 Q2405.91 227.1 2404.27 229.091 Q2402.63 231.058 2399.59 231.822 Z" fill="#000000" fill-rule="nonzero" fill-opacity="1" /><path clip-path="url(#clip300)" d="M2415.73 249.739 L2415.73 245.479 Q2417.49 246.313 2419.29 246.753 Q2421.1 247.192 2422.83 247.192 Q2427.46 247.192 2429.89 244.091 Q2432.35 240.966 2432.69 234.623 Q2431.35 236.614 2429.29 237.679 Q2427.23 238.743 2424.73 238.743 Q2419.55 238.743 2416.51 235.618 Q2413.51 232.47 2413.51 227.03 Q2413.51 221.706 2416.65 218.489 Q2419.8 215.271 2425.03 215.271 Q2431.03 215.271 2434.18 219.878 Q2437.35 224.461 2437.35 233.211 Q2437.35 241.382 2433.46 246.266 Q2429.59 251.128 2423.04 251.128 Q2421.28 251.128 2419.48 250.78 Q2417.67 250.433 2415.73 249.739 M2425.03 235.086 Q2428.18 235.086 2430.01 232.933 Q2431.86 230.78 2431.86 227.03 Q2431.86 223.304 2430.01 221.151 Q2428.18 218.975 2425.03 218.975 Q2421.88 218.975 2420.03 221.151 Q2418.2 223.304 2418.2 227.03 Q2418.2 230.78 2420.03 232.933 Q2421.88 235.086 2425.03 235.086 Z" fill="#000000" fill-rule="nonzero" fill-opacity="1" /><path clip-path="url(#clip300)" d="M2445.75 244.577 L2450.63 244.577 L2450.63 250.456 L2445.75 250.456 L2445.75 244.577 Z" fill="#000000" fill-rule="nonzero" fill-opacity="1" /><path clip-path="url(#clip300)" d="M2470.82 218.975 Q2467.21 218.975 2465.38 222.54 Q2463.57 226.081 2463.57 233.211 Q2463.57 240.317 2465.38 243.882 Q2467.21 247.424 2470.82 247.424 Q2474.45 247.424 2476.26 243.882 Q2478.09 240.317 2478.09 233.211 Q2478.09 226.081 2476.26 222.54 Q2474.45 218.975 2470.82 218.975 M2470.82 215.271 Q2476.63 215.271 2479.69 219.878 Q2482.76 224.461 2482.76 233.211 Q2482.76 241.938 2479.69 246.544 Q2476.63 251.128 2470.82 251.128 Q2465.01 251.128 2461.93 246.544 Q2458.88 241.938 2458.88 233.211 Q2458.88 224.461 2461.93 219.878 Q2465.01 215.271 2470.82 215.271 Z" fill="#000000" fill-rule="nonzero" fill-opacity="1" /><polyline clip-path="url(#clip300)" style="stroke:#008000; stroke-linecap:round; stroke-linejoin:round; stroke-width:12; stroke-opacity:1; fill:none" stroke-dasharray="6, 12" points="1944.86,285.016 2099.83,285.016 "/>
<path clip-path="url(#clip300)" d="M2141.68 270.908 Q2136.59 270.908 2133.58 274.704 Q2130.59 278.5 2130.59 285.051 Q2130.59 291.579 2133.58 295.375 Q2136.59 299.171 2141.68 299.171 Q2146.77 299.171 2149.73 295.375 Q2152.72 291.579 2152.72 285.051 Q2152.72 278.5 2149.73 274.704 Q2146.77 270.908 2141.68 270.908 M2141.68 267.111 Q2148.95 267.111 2153.3 271.996 Q2157.65 276.857 2157.65 285.051 Q2157.65 293.222 2153.3 298.106 Q2148.95 302.968 2141.68 302.968 Q2134.39 302.968 2130.01 298.106 Q2125.66 293.245 2125.66 285.051 Q2125.66 276.857 2130.01 271.996 Q2134.39 267.111 2141.68 267.111 Z" fill="#000000" fill-rule="nonzero" fill-opacity="1" /><path clip-path="url(#clip300)" d="M2183.39 289.357 Q2183.39 284.657 2181.45 281.995 Q2179.52 279.31 2176.15 279.31 Q2172.77 279.31 2170.82 281.995 Q2168.9 284.657 2168.9 289.357 Q2168.9 294.056 2170.82 296.741 Q2172.77 299.403 2176.15 299.403 Q2179.52 299.403 2181.45 296.741 Q2183.39 294.056 2183.39 289.357 M2168.9 280.306 Q2170.24 277.991 2172.28 276.88 Q2174.34 275.746 2177.19 275.746 Q2181.91 275.746 2184.85 279.495 Q2187.81 283.245 2187.81 289.357 Q2187.81 295.468 2184.85 299.218 Q2181.91 302.968 2177.19 302.968 Q2174.34 302.968 2172.28 301.856 Q2170.24 300.722 2168.9 298.407 L2168.9 302.296 L2164.62 302.296 L2164.62 266.278 L2168.9 266.278 L2168.9 280.306 Z" fill="#000000" fill-rule="nonzero" fill-opacity="1" /><path clip-path="url(#clip300)" d="M2211.4 277.134 L2211.4 281.162 Q2209.59 280.236 2207.65 279.773 Q2205.71 279.31 2203.62 279.31 Q2200.45 279.31 2198.85 280.283 Q2197.28 281.255 2197.28 283.199 Q2197.28 284.681 2198.41 285.537 Q2199.55 286.37 2202.97 287.134 L2204.43 287.458 Q2208.97 288.431 2210.87 290.213 Q2212.79 291.972 2212.79 295.144 Q2212.79 298.755 2209.92 300.861 Q2207.07 302.968 2202.07 302.968 Q2199.99 302.968 2197.72 302.551 Q2195.47 302.157 2192.97 301.347 L2192.97 296.949 Q2195.33 298.176 2197.63 298.801 Q2199.92 299.403 2202.16 299.403 Q2205.17 299.403 2206.79 298.384 Q2208.41 297.343 2208.41 295.468 Q2208.41 293.732 2207.23 292.806 Q2206.08 291.88 2202.12 291.023 L2200.64 290.676 Q2196.68 289.843 2194.92 288.13 Q2193.16 286.394 2193.16 283.384 Q2193.16 279.727 2195.75 277.736 Q2198.34 275.746 2203.11 275.746 Q2205.47 275.746 2207.56 276.093 Q2209.64 276.44 2211.4 277.134 Z" fill="#000000" fill-rule="nonzero" fill-opacity="1" /><path clip-path="url(#clip300)" d="M2241.75 288.269 L2241.75 290.352 L2222.16 290.352 Q2222.44 294.75 2224.8 297.065 Q2227.19 299.356 2231.42 299.356 Q2233.88 299.356 2236.17 298.755 Q2238.48 298.153 2240.75 296.949 L2240.75 300.977 Q2238.46 301.949 2236.05 302.458 Q2233.64 302.968 2231.17 302.968 Q2224.96 302.968 2221.33 299.356 Q2217.72 295.745 2217.72 289.588 Q2217.72 283.222 2221.15 279.495 Q2224.59 275.746 2230.43 275.746 Q2235.66 275.746 2238.69 279.125 Q2241.75 282.482 2241.75 288.269 M2237.49 287.019 Q2237.44 283.523 2235.52 281.44 Q2233.62 279.357 2230.47 279.357 Q2226.91 279.357 2224.76 281.37 Q2222.63 283.384 2222.3 287.042 L2237.49 287.019 Z" fill="#000000" fill-rule="nonzero" fill-opacity="1" /><path clip-path="url(#clip300)" d="M2263.76 280.352 Q2263.04 279.935 2262.19 279.75 Q2261.35 279.542 2260.33 279.542 Q2256.72 279.542 2254.78 281.903 Q2252.86 284.241 2252.86 288.639 L2252.86 302.296 L2248.58 302.296 L2248.58 276.371 L2252.86 276.371 L2252.86 280.398 Q2254.2 278.037 2256.35 276.903 Q2258.51 275.746 2261.58 275.746 Q2262.02 275.746 2262.56 275.815 Q2263.09 275.861 2263.74 275.977 L2263.76 280.352 Z" fill="#000000" fill-rule="nonzero" fill-opacity="1" /><path clip-path="url(#clip300)" d="M2265.17 276.371 L2269.69 276.371 L2277.79 298.13 L2285.89 276.371 L2290.4 276.371 L2280.68 302.296 L2274.89 302.296 L2265.17 276.371 Z" fill="#000000" fill-rule="nonzero" fill-opacity="1" /><path clip-path="url(#clip300)" d="M2318.46 288.269 L2318.46 290.352 L2298.88 290.352 Q2299.15 294.75 2301.51 297.065 Q2303.9 299.356 2308.14 299.356 Q2310.59 299.356 2312.88 298.755 Q2315.2 298.153 2317.46 296.949 L2317.46 300.977 Q2315.17 301.949 2312.76 302.458 Q2310.36 302.968 2307.88 302.968 Q2301.68 302.968 2298.04 299.356 Q2294.43 295.745 2294.43 289.588 Q2294.43 283.222 2297.86 279.495 Q2301.31 275.746 2307.14 275.746 Q2312.37 275.746 2315.4 279.125 Q2318.46 282.482 2318.46 288.269 M2314.2 287.019 Q2314.15 283.523 2312.23 281.44 Q2310.33 279.357 2307.19 279.357 Q2303.62 279.357 2301.47 281.37 Q2299.34 283.384 2299.01 287.042 L2314.2 287.019 Z" fill="#000000" fill-rule="nonzero" fill-opacity="1" /><path clip-path="url(#clip300)" d="M2342.51 280.306 L2342.51 266.278 L2346.77 266.278 L2346.77 302.296 L2342.51 302.296 L2342.51 298.407 Q2341.17 300.722 2339.11 301.856 Q2337.07 302.968 2334.2 302.968 Q2329.5 302.968 2326.54 299.218 Q2323.6 295.468 2323.6 289.357 Q2323.6 283.245 2326.54 279.495 Q2329.5 275.746 2334.2 275.746 Q2337.07 275.746 2339.11 276.88 Q2341.17 277.991 2342.51 280.306 M2328 289.357 Q2328 294.056 2329.92 296.741 Q2331.86 299.403 2335.24 299.403 Q2338.62 299.403 2340.57 296.741 Q2342.51 294.056 2342.51 289.357 Q2342.51 284.657 2340.57 281.995 Q2338.62 279.31 2335.24 279.31 Q2331.86 279.31 2329.92 281.995 Q2328 284.657 2328 289.357 Z" fill="#000000" fill-rule="nonzero" fill-opacity="1" /><path clip-path="url(#clip300)" d="M2371.17 280.769 L2400.84 280.769 L2400.84 284.657 L2371.17 284.657 L2371.17 280.769 M2371.17 290.213 L2400.84 290.213 L2400.84 294.148 L2371.17 294.148 L2371.17 290.213 Z" fill="#000000" fill-rule="nonzero" fill-opacity="1" /><path clip-path="url(#clip300)" d="M2430.03 298.361 L2446.35 298.361 L2446.35 302.296 L2424.41 302.296 L2424.41 298.361 Q2427.07 295.607 2431.65 290.977 Q2436.26 286.324 2437.44 284.982 Q2439.69 282.458 2440.57 280.722 Q2441.47 278.963 2441.47 277.273 Q2441.47 274.519 2439.52 272.783 Q2437.6 271.046 2434.5 271.046 Q2432.3 271.046 2429.85 271.81 Q2427.42 272.574 2424.64 274.125 L2424.64 269.403 Q2427.46 268.269 2429.92 267.69 Q2432.37 267.111 2434.41 267.111 Q2439.78 267.111 2442.97 269.796 Q2446.17 272.482 2446.17 276.972 Q2446.17 279.102 2445.36 281.023 Q2444.57 282.921 2442.46 285.514 Q2441.88 286.185 2438.78 289.403 Q2435.68 292.597 2430.03 298.361 Z" fill="#000000" fill-rule="nonzero" fill-opacity="1" /><path clip-path="url(#clip300)" d="M2460.19 298.361 L2476.51 298.361 L2476.51 302.296 L2454.57 302.296 L2454.57 298.361 Q2457.23 295.607 2461.82 290.977 Q2466.42 286.324 2467.6 284.982 Q2469.85 282.458 2470.73 280.722 Q2471.63 278.963 2471.63 277.273 Q2471.63 274.519 2469.69 272.783 Q2467.76 271.046 2464.66 271.046 Q2462.46 271.046 2460.01 271.81 Q2457.58 272.574 2454.8 274.125 L2454.8 269.403 Q2457.63 268.269 2460.08 267.69 Q2462.53 267.111 2464.57 267.111 Q2469.94 267.111 2473.13 269.796 Q2476.33 272.482 2476.33 276.972 Q2476.33 279.102 2475.52 281.023 Q2474.73 282.921 2472.63 285.514 Q2472.05 286.185 2468.94 289.403 Q2465.84 292.597 2460.19 298.361 Z" fill="#000000" fill-rule="nonzero" fill-opacity="1" /><path clip-path="url(#clip300)" d="M2496.91 283.153 Q2493.76 283.153 2491.91 285.306 Q2490.08 287.458 2490.08 291.208 Q2490.08 294.935 2491.91 297.111 Q2493.76 299.264 2496.91 299.264 Q2500.06 299.264 2501.88 297.111 Q2503.74 294.935 2503.74 291.208 Q2503.74 287.458 2501.88 285.306 Q2500.06 283.153 2496.91 283.153 M2506.19 268.5 L2506.19 272.759 Q2504.43 271.926 2502.63 271.486 Q2500.84 271.046 2499.08 271.046 Q2494.45 271.046 2492 274.171 Q2489.57 277.296 2489.22 283.616 Q2490.59 281.602 2492.65 280.537 Q2494.71 279.449 2497.19 279.449 Q2502.39 279.449 2505.4 282.62 Q2508.44 285.769 2508.44 291.208 Q2508.44 296.532 2505.29 299.75 Q2502.14 302.968 2496.91 302.968 Q2490.91 302.968 2487.74 298.384 Q2484.57 293.778 2484.57 285.051 Q2484.57 276.857 2488.46 271.996 Q2492.35 267.111 2498.9 267.111 Q2500.66 267.111 2502.44 267.459 Q2504.25 267.806 2506.19 268.5 Z" fill="#000000" fill-rule="nonzero" fill-opacity="1" /><path clip-path="url(#clip300)" d="M2516.54 267.736 L2534.89 267.736 L2534.89 271.671 L2520.82 271.671 L2520.82 280.144 Q2521.84 279.796 2522.86 279.634 Q2523.87 279.449 2524.89 279.449 Q2530.68 279.449 2534.06 282.62 Q2537.44 285.792 2537.44 291.208 Q2537.44 296.787 2533.97 299.889 Q2530.5 302.968 2524.18 302.968 Q2522 302.968 2519.73 302.597 Q2517.49 302.227 2515.08 301.486 L2515.08 296.787 Q2517.16 297.921 2519.38 298.477 Q2521.61 299.032 2524.08 299.032 Q2528.09 299.032 2530.43 296.926 Q2532.76 294.819 2532.76 291.208 Q2532.76 287.597 2530.43 285.491 Q2528.09 283.384 2524.08 283.384 Q2522.21 283.384 2520.33 283.801 Q2518.48 284.218 2516.54 285.097 L2516.54 267.736 Z" fill="#000000" fill-rule="nonzero" fill-opacity="1" /></svg>
