<?xml version="1.0" encoding="utf-8"?>
<svg xmlns="http://www.w3.org/2000/svg" xmlns:xlink="http://www.w3.org/1999/xlink" width="672" height="480" viewBox="0 0 2688 1920">
<defs>
  <clipPath id="clip640">
    <rect x="0" y="0" width="2688" height="1920"/>
  </clipPath>
</defs>
<path clip-path="url(#clip640)" d="M0 1920 L2688 1920 L2688 -4.26326e-14 L0 -4.26326e-14  Z" fill="#ffffff" fill-rule="evenodd" fill-opacity="1"/>
<defs>
  <clipPath id="clip641">
    <rect x="225" y="127" width="2416" height="1607"/>
  </clipPath>
</defs>
<path clip-path="url(#clip640)" d="M225.654 1734.12 L2640.76 1734.12 L2640.76 127.792 L225.654 127.792  Z" fill="#ffffff" fill-rule="evenodd" fill-opacity="1"/>
<polyline clip-path="url(#clip641)" style="stroke:#000000; stroke-linecap:round; stroke-linejoin:round; stroke-width:2; stroke-opacity:0.1; fill:none" points="588.786,1734.12 588.786,127.792 "/>
<polyline clip-path="url(#clip641)" style="stroke:#000000; stroke-linecap:round; stroke-linejoin:round; stroke-width:2; stroke-opacity:0.1; fill:none" points="972.613,1734.12 972.613,127.792 "/>
<polyline clip-path="url(#clip641)" style="stroke:#000000; stroke-linecap:round; stroke-linejoin:round; stroke-width:2; stroke-opacity:0.1; fill:none" points="1356.44,1734.12 1356.44,127.792 "/>
<polyline clip-path="url(#clip641)" style="stroke:#000000; stroke-linecap:round; stroke-linejoin:round; stroke-width:2; stroke-opacity:0.1; fill:none" points="1740.27,1734.12 1740.27,127.792 "/>
<polyline clip-path="url(#clip641)" style="stroke:#000000; stroke-linecap:round; stroke-linejoin:round; stroke-width:2; stroke-opacity:0.1; fill:none" points="2124.09,1734.12 2124.09,127.792 "/>
<polyline clip-path="url(#clip641)" style="stroke:#000000; stroke-linecap:round; stroke-linejoin:round; stroke-width:2; stroke-opacity:0.1; fill:none" points="2507.92,1734.12 2507.92,127.792 "/>
<polyline clip-path="url(#clip641)" style="stroke:#000000; stroke-linecap:round; stroke-linejoin:round; stroke-width:2; stroke-opacity:0.1; fill:none" points="225.654,1734.12 2640.76,1734.12 "/>
<polyline clip-path="url(#clip641)" style="stroke:#000000; stroke-linecap:round; stroke-linejoin:round; stroke-width:2; stroke-opacity:0.1; fill:none" points="225.654,1314.69 2640.76,1314.69 "/>
<polyline clip-path="url(#clip641)" style="stroke:#000000; stroke-linecap:round; stroke-linejoin:round; stroke-width:2; stroke-opacity:0.1; fill:none" points="225.654,895.258 2640.76,895.258 "/>
<polyline clip-path="url(#clip641)" style="stroke:#000000; stroke-linecap:round; stroke-linejoin:round; stroke-width:2; stroke-opacity:0.1; fill:none" points="225.654,475.829 2640.76,475.829 "/>
<polyline clip-path="url(#clip640)" style="stroke:#000000; stroke-linecap:round; stroke-linejoin:round; stroke-width:4; stroke-opacity:1; fill:none" points="225.654,1734.12 2640.76,1734.12 "/>
<polyline clip-path="url(#clip640)" style="stroke:#000000; stroke-linecap:round; stroke-linejoin:round; stroke-width:4; stroke-opacity:1; fill:none" points="588.786,1734.12 588.786,1715.22 "/>
<polyline clip-path="url(#clip640)" style="stroke:#000000; stroke-linecap:round; stroke-linejoin:round; stroke-width:4; stroke-opacity:1; fill:none" points="972.613,1734.12 972.613,1715.22 "/>
<polyline clip-path="url(#clip640)" style="stroke:#000000; stroke-linecap:round; stroke-linejoin:round; stroke-width:4; stroke-opacity:1; fill:none" points="1356.44,1734.12 1356.44,1715.22 "/>
<polyline clip-path="url(#clip640)" style="stroke:#000000; stroke-linecap:round; stroke-linejoin:round; stroke-width:4; stroke-opacity:1; fill:none" points="1740.27,1734.12 1740.27,1715.22 "/>
<polyline clip-path="url(#clip640)" style="stroke:#000000; stroke-linecap:round; stroke-linejoin:round; stroke-width:4; stroke-opacity:1; fill:none" points="2124.09,1734.12 2124.09,1715.22 "/>
<polyline clip-path="url(#clip640)" style="stroke:#000000; stroke-linecap:round; stroke-linejoin:round; stroke-width:4; stroke-opacity:1; fill:none" points="2507.92,1734.12 2507.92,1715.22 "/>
<path clip-path="url(#clip640)" d="M555.95 1764.26 L574.306 1764.26 L574.306 1768.2 L560.232 1768.2 L560.232 1776.67 Q561.251 1776.32 562.27 1776.16 Q563.288 1775.97 564.307 1775.97 Q570.094 1775.97 573.473 1779.15 Q576.853 1782.32 576.853 1787.73 Q576.853 1793.31 573.381 1796.41 Q569.908 1799.49 563.589 1799.49 Q561.413 1799.49 559.145 1799.12 Q556.899 1798.75 554.492 1798.01 L554.492 1793.31 Q556.575 1794.45 558.797 1795 Q561.02 1795.56 563.496 1795.56 Q567.501 1795.56 569.839 1793.45 Q572.177 1791.34 572.177 1787.73 Q572.177 1784.12 569.839 1782.02 Q567.501 1779.91 563.496 1779.91 Q561.621 1779.91 559.746 1780.33 Q557.895 1780.74 555.95 1781.62 L555.95 1764.26 Z" fill="#000000" fill-rule="nonzero" fill-opacity="1" /><path clip-path="url(#clip640)" d="M586.066 1792.94 L590.95 1792.94 L590.95 1798.82 L586.066 1798.82 L586.066 1792.94 Z" fill="#000000" fill-rule="nonzero" fill-opacity="1" /><path clip-path="url(#clip640)" d="M611.135 1767.34 Q607.524 1767.34 605.695 1770.9 Q603.89 1774.45 603.89 1781.58 Q603.89 1788.68 605.695 1792.25 Q607.524 1795.79 611.135 1795.79 Q614.769 1795.79 616.575 1792.25 Q618.403 1788.68 618.403 1781.58 Q618.403 1774.45 616.575 1770.9 Q614.769 1767.34 611.135 1767.34 M611.135 1763.64 Q616.945 1763.64 620.001 1768.24 Q623.079 1772.83 623.079 1781.58 Q623.079 1790.3 620.001 1794.91 Q616.945 1799.49 611.135 1799.49 Q605.325 1799.49 602.246 1794.91 Q599.191 1790.3 599.191 1781.58 Q599.191 1772.83 602.246 1768.24 Q605.325 1763.64 611.135 1763.64 Z" fill="#000000" fill-rule="nonzero" fill-opacity="1" /><path clip-path="url(#clip640)" d="M938.932 1764.26 L961.154 1764.26 L961.154 1766.25 L948.608 1798.82 L943.724 1798.82 L955.529 1768.2 L938.932 1768.2 L938.932 1764.26 Z" fill="#000000" fill-rule="nonzero" fill-opacity="1" /><path clip-path="url(#clip640)" d="M970.275 1792.94 L975.159 1792.94 L975.159 1798.82 L970.275 1798.82 L970.275 1792.94 Z" fill="#000000" fill-rule="nonzero" fill-opacity="1" /><path clip-path="url(#clip640)" d="M985.39 1764.26 L1003.75 1764.26 L1003.75 1768.2 L989.673 1768.2 L989.673 1776.67 Q990.691 1776.32 991.71 1776.16 Q992.728 1775.97 993.747 1775.97 Q999.534 1775.97 1002.91 1779.15 Q1006.29 1782.32 1006.29 1787.73 Q1006.29 1793.31 1002.82 1796.41 Q999.349 1799.49 993.029 1799.49 Q990.853 1799.49 988.585 1799.12 Q986.339 1798.75 983.932 1798.01 L983.932 1793.31 Q986.015 1794.45 988.238 1795 Q990.46 1795.56 992.937 1795.56 Q996.941 1795.56 999.279 1793.45 Q1001.62 1791.34 1001.62 1787.73 Q1001.62 1784.12 999.279 1782.02 Q996.941 1779.91 992.937 1779.91 Q991.062 1779.91 989.187 1780.33 Q987.335 1780.74 985.39 1781.62 L985.39 1764.26 Z" fill="#000000" fill-rule="nonzero" fill-opacity="1" /><path clip-path="url(#clip640)" d="M1308.51 1794.89 L1316.15 1794.89 L1316.15 1768.52 L1307.84 1770.19 L1307.84 1765.93 L1316.1 1764.26 L1320.78 1764.26 L1320.78 1794.89 L1328.42 1794.89 L1328.42 1798.82 L1308.51 1798.82 L1308.51 1794.89 Z" fill="#000000" fill-rule="nonzero" fill-opacity="1" /><path clip-path="url(#clip640)" d="M1347.86 1767.34 Q1344.25 1767.34 1342.42 1770.9 Q1340.62 1774.45 1340.62 1781.58 Q1340.62 1788.68 1342.42 1792.25 Q1344.25 1795.79 1347.86 1795.79 Q1351.5 1795.79 1353.3 1792.25 Q1355.13 1788.68 1355.13 1781.58 Q1355.13 1774.45 1353.3 1770.9 Q1351.5 1767.34 1347.86 1767.34 M1347.86 1763.64 Q1353.67 1763.64 1356.73 1768.24 Q1359.81 1772.83 1359.81 1781.58 Q1359.81 1790.3 1356.73 1794.91 Q1353.67 1799.49 1347.86 1799.49 Q1342.05 1799.49 1338.97 1794.91 Q1335.92 1790.3 1335.92 1781.58 Q1335.92 1772.83 1338.97 1768.24 Q1342.05 1763.64 1347.86 1763.64 Z" fill="#000000" fill-rule="nonzero" fill-opacity="1" /><path clip-path="url(#clip640)" d="M1368.03 1792.94 L1372.91 1792.94 L1372.91 1798.82 L1368.03 1798.82 L1368.03 1792.94 Z" fill="#000000" fill-rule="nonzero" fill-opacity="1" /><path clip-path="url(#clip640)" d="M1393.09 1767.34 Q1389.48 1767.34 1387.65 1770.9 Q1385.85 1774.45 1385.85 1781.58 Q1385.85 1788.68 1387.65 1792.25 Q1389.48 1795.79 1393.09 1795.79 Q1396.73 1795.79 1398.53 1792.25 Q1400.36 1788.68 1400.36 1781.58 Q1400.36 1774.45 1398.53 1770.9 Q1396.73 1767.34 1393.09 1767.34 M1393.09 1763.64 Q1398.9 1763.64 1401.96 1768.24 Q1405.04 1772.83 1405.04 1781.58 Q1405.04 1790.3 1401.96 1794.91 Q1398.9 1799.49 1393.09 1799.49 Q1387.28 1799.49 1384.21 1794.91 Q1381.15 1790.3 1381.15 1781.58 Q1381.15 1772.83 1384.21 1768.24 Q1387.28 1763.64 1393.09 1763.64 Z" fill="#000000" fill-rule="nonzero" fill-opacity="1" /><path clip-path="url(#clip640)" d="M1692.84 1794.89 L1700.48 1794.89 L1700.48 1768.52 L1692.17 1770.19 L1692.17 1765.93 L1700.43 1764.26 L1705.1 1764.26 L1705.1 1794.89 L1712.74 1794.89 L1712.74 1798.82 L1692.84 1798.82 L1692.84 1794.89 Z" fill="#000000" fill-rule="nonzero" fill-opacity="1" /><path clip-path="url(#clip640)" d="M1726.22 1794.89 L1742.54 1794.89 L1742.54 1798.82 L1720.59 1798.82 L1720.59 1794.89 Q1723.25 1792.13 1727.84 1787.5 Q1732.44 1782.85 1733.62 1781.51 Q1735.87 1778.98 1736.75 1777.25 Q1737.65 1775.49 1737.65 1773.8 Q1737.65 1771.04 1735.71 1769.31 Q1733.79 1767.57 1730.68 1767.57 Q1728.48 1767.57 1726.03 1768.34 Q1723.6 1769.1 1720.82 1770.65 L1720.82 1765.93 Q1723.65 1764.79 1726.1 1764.21 Q1728.55 1763.64 1730.59 1763.64 Q1735.96 1763.64 1739.16 1766.32 Q1742.35 1769.01 1742.35 1773.5 Q1742.35 1775.63 1741.54 1777.55 Q1740.75 1779.45 1738.65 1782.04 Q1738.07 1782.71 1734.97 1785.93 Q1731.86 1789.12 1726.22 1794.89 Z" fill="#000000" fill-rule="nonzero" fill-opacity="1" /><path clip-path="url(#clip640)" d="M1752.35 1792.94 L1757.23 1792.94 L1757.23 1798.82 L1752.35 1798.82 L1752.35 1792.94 Z" fill="#000000" fill-rule="nonzero" fill-opacity="1" /><path clip-path="url(#clip640)" d="M1767.47 1764.26 L1785.82 1764.26 L1785.82 1768.2 L1771.75 1768.2 L1771.75 1776.67 Q1772.77 1776.32 1773.79 1776.16 Q1774.8 1775.97 1775.82 1775.97 Q1781.61 1775.97 1784.99 1779.15 Q1788.37 1782.32 1788.37 1787.73 Q1788.37 1793.31 1784.9 1796.41 Q1781.42 1799.49 1775.1 1799.49 Q1772.93 1799.49 1770.66 1799.12 Q1768.41 1798.75 1766.01 1798.01 L1766.01 1793.31 Q1768.09 1794.45 1770.31 1795 Q1772.54 1795.56 1775.01 1795.56 Q1779.02 1795.56 1781.35 1793.45 Q1783.69 1791.34 1783.69 1787.73 Q1783.69 1784.12 1781.35 1782.02 Q1779.02 1779.91 1775.01 1779.91 Q1773.14 1779.91 1771.26 1780.33 Q1769.41 1780.74 1767.47 1781.62 L1767.47 1764.26 Z" fill="#000000" fill-rule="nonzero" fill-opacity="1" /><path clip-path="url(#clip640)" d="M2076.17 1794.89 L2083.8 1794.89 L2083.8 1768.52 L2075.49 1770.19 L2075.49 1765.93 L2083.76 1764.26 L2088.43 1764.26 L2088.43 1794.89 L2096.07 1794.89 L2096.07 1798.82 L2076.17 1798.82 L2076.17 1794.89 Z" fill="#000000" fill-rule="nonzero" fill-opacity="1" /><path clip-path="url(#clip640)" d="M2105.56 1764.26 L2123.92 1764.26 L2123.92 1768.2 L2109.85 1768.2 L2109.85 1776.67 Q2110.86 1776.32 2111.88 1776.16 Q2112.9 1775.97 2113.92 1775.97 Q2119.71 1775.97 2123.09 1779.15 Q2126.47 1782.32 2126.47 1787.73 Q2126.47 1793.31 2122.99 1796.41 Q2119.52 1799.49 2113.2 1799.49 Q2111.03 1799.49 2108.76 1799.12 Q2106.51 1798.75 2104.11 1798.01 L2104.11 1793.31 Q2106.19 1794.45 2108.41 1795 Q2110.63 1795.56 2113.11 1795.56 Q2117.11 1795.56 2119.45 1793.45 Q2121.79 1791.34 2121.79 1787.73 Q2121.79 1784.12 2119.45 1782.02 Q2117.11 1779.91 2113.11 1779.91 Q2111.24 1779.91 2109.36 1780.33 Q2107.51 1780.74 2105.56 1781.62 L2105.56 1764.26 Z" fill="#000000" fill-rule="nonzero" fill-opacity="1" /><path clip-path="url(#clip640)" d="M2135.68 1792.94 L2140.56 1792.94 L2140.56 1798.82 L2135.68 1798.82 L2135.68 1792.94 Z" fill="#000000" fill-rule="nonzero" fill-opacity="1" /><path clip-path="url(#clip640)" d="M2160.75 1767.34 Q2157.14 1767.34 2155.31 1770.9 Q2153.5 1774.45 2153.5 1781.58 Q2153.5 1788.68 2155.31 1792.25 Q2157.14 1795.79 2160.75 1795.79 Q2164.38 1795.79 2166.19 1792.25 Q2168.02 1788.68 2168.02 1781.58 Q2168.02 1774.45 2166.19 1770.9 Q2164.38 1767.34 2160.75 1767.34 M2160.75 1763.64 Q2166.56 1763.64 2169.61 1768.24 Q2172.69 1772.83 2172.69 1781.58 Q2172.69 1790.3 2169.61 1794.91 Q2166.56 1799.49 2160.75 1799.49 Q2154.94 1799.49 2151.86 1794.91 Q2148.8 1790.3 2148.8 1781.58 Q2148.8 1772.83 2151.86 1768.24 Q2154.94 1763.64 2160.75 1763.64 Z" fill="#000000" fill-rule="nonzero" fill-opacity="1" /><path clip-path="url(#clip640)" d="M2460.49 1794.89 L2468.13 1794.89 L2468.13 1768.52 L2459.82 1770.19 L2459.82 1765.93 L2468.08 1764.26 L2472.76 1764.26 L2472.76 1794.89 L2480.4 1794.89 L2480.4 1798.82 L2460.49 1798.82 L2460.49 1794.89 Z" fill="#000000" fill-rule="nonzero" fill-opacity="1" /><path clip-path="url(#clip640)" d="M2488.66 1764.26 L2510.88 1764.26 L2510.88 1766.25 L2498.34 1798.82 L2493.45 1798.82 L2505.26 1768.2 L2488.66 1768.2 L2488.66 1764.26 Z" fill="#000000" fill-rule="nonzero" fill-opacity="1" /><path clip-path="url(#clip640)" d="M2520 1792.94 L2524.89 1792.94 L2524.89 1798.82 L2520 1798.82 L2520 1792.94 Z" fill="#000000" fill-rule="nonzero" fill-opacity="1" /><path clip-path="url(#clip640)" d="M2535.12 1764.26 L2553.48 1764.26 L2553.48 1768.2 L2539.4 1768.2 L2539.4 1776.67 Q2540.42 1776.32 2541.44 1776.16 Q2542.46 1775.97 2543.48 1775.97 Q2549.26 1775.97 2552.64 1779.15 Q2556.02 1782.32 2556.02 1787.73 Q2556.02 1793.31 2552.55 1796.41 Q2549.08 1799.49 2542.76 1799.49 Q2540.58 1799.49 2538.31 1799.12 Q2536.07 1798.75 2533.66 1798.01 L2533.66 1793.31 Q2535.74 1794.45 2537.97 1795 Q2540.19 1795.56 2542.67 1795.56 Q2546.67 1795.56 2549.01 1793.45 Q2551.35 1791.34 2551.35 1787.73 Q2551.35 1784.12 2549.01 1782.02 Q2546.67 1779.91 2542.67 1779.91 Q2540.79 1779.91 2538.92 1780.33 Q2537.06 1780.74 2535.12 1781.62 L2535.12 1764.26 Z" fill="#000000" fill-rule="nonzero" fill-opacity="1" /><path clip-path="url(#clip640)" d="M1053.17 1835.78 L1059.6 1835.78 L1059.6 1883.3 L1053.17 1883.3 L1053.17 1835.78 Z" fill="#000000" fill-rule="nonzero" fill-opacity="1" /><path clip-path="url(#clip640)" d="M1101.77 1861.78 L1101.77 1883.3 L1095.92 1883.3 L1095.92 1861.98 Q1095.92 1856.92 1093.94 1854.4 Q1091.97 1851.89 1088.02 1851.89 Q1083.28 1851.89 1080.55 1854.91 Q1077.81 1857.93 1077.81 1863.15 L1077.81 1883.3 L1071.92 1883.3 L1071.92 1847.65 L1077.81 1847.65 L1077.81 1853.19 Q1079.91 1849.98 1082.74 1848.39 Q1085.61 1846.79 1089.33 1846.79 Q1095.47 1846.79 1098.62 1850.61 Q1101.77 1854.4 1101.77 1861.78 Z" fill="#000000" fill-rule="nonzero" fill-opacity="1" /><path clip-path="url(#clip640)" d="M1131.5 1833.78 L1131.5 1838.65 L1125.9 1838.65 Q1122.75 1838.65 1121.51 1839.92 Q1120.3 1841.19 1120.3 1844.5 L1120.3 1847.65 L1129.94 1847.65 L1129.94 1852.2 L1120.3 1852.2 L1120.3 1883.3 L1114.41 1883.3 L1114.41 1852.2 L1108.81 1852.2 L1108.81 1847.65 L1114.41 1847.65 L1114.41 1845.17 Q1114.41 1839.22 1117.18 1836.51 Q1119.95 1833.78 1125.96 1833.78 L1131.5 1833.78 Z" fill="#000000" fill-rule="nonzero" fill-opacity="1" /><path clip-path="url(#clip640)" d="M1166.9 1864.01 L1166.9 1866.88 L1139.97 1866.88 Q1140.35 1872.92 1143.6 1876.11 Q1146.88 1879.26 1152.7 1879.26 Q1156.07 1879.26 1159.23 1878.43 Q1162.41 1877.6 1165.53 1875.95 L1165.53 1881.49 Q1162.38 1882.82 1159.07 1883.52 Q1155.76 1884.22 1152.35 1884.22 Q1143.82 1884.22 1138.82 1879.26 Q1133.86 1874.29 1133.86 1865.83 Q1133.86 1857.07 1138.57 1851.95 Q1143.31 1846.79 1151.33 1846.79 Q1158.52 1846.79 1162.69 1851.44 Q1166.9 1856.06 1166.9 1864.01 M1161.04 1862.29 Q1160.98 1857.49 1158.33 1854.62 Q1155.72 1851.76 1151.4 1851.76 Q1146.49 1851.76 1143.53 1854.53 Q1140.61 1857.3 1140.16 1862.33 L1161.04 1862.29 Z" fill="#000000" fill-rule="nonzero" fill-opacity="1" /><path clip-path="url(#clip640)" d="M1202.16 1849.02 L1202.16 1854.5 Q1199.68 1853.13 1197.16 1852.46 Q1194.68 1851.76 1192.14 1851.76 Q1186.44 1851.76 1183.29 1855.39 Q1180.14 1858.98 1180.14 1865.51 Q1180.14 1872.03 1183.29 1875.66 Q1186.44 1879.26 1192.14 1879.26 Q1194.68 1879.26 1197.16 1878.59 Q1199.68 1877.89 1202.16 1876.52 L1202.16 1881.93 Q1199.71 1883.08 1197.07 1883.65 Q1194.46 1884.22 1191.5 1884.22 Q1183.45 1884.22 1178.7 1879.16 Q1173.96 1874.1 1173.96 1865.51 Q1173.96 1856.79 1178.74 1851.79 Q1183.54 1846.79 1191.88 1846.79 Q1194.59 1846.79 1197.16 1847.37 Q1199.74 1847.91 1202.16 1849.02 Z" fill="#000000" fill-rule="nonzero" fill-opacity="1" /><path clip-path="url(#clip640)" d="M1218.14 1837.53 L1218.14 1847.65 L1230.2 1847.65 L1230.2 1852.2 L1218.14 1852.2 L1218.14 1871.56 Q1218.14 1875.92 1219.32 1877.16 Q1220.53 1878.4 1224.19 1878.4 L1230.2 1878.4 L1230.2 1883.3 L1224.19 1883.3 Q1217.41 1883.3 1214.83 1880.79 Q1212.25 1878.24 1212.25 1871.56 L1212.25 1852.2 L1207.95 1852.2 L1207.95 1847.65 L1212.25 1847.65 L1212.25 1837.53 L1218.14 1837.53 Z" fill="#000000" fill-rule="nonzero" fill-opacity="1" /><path clip-path="url(#clip640)" d="M1237.91 1847.65 L1243.76 1847.65 L1243.76 1883.3 L1237.91 1883.3 L1237.91 1847.65 M1237.91 1833.78 L1243.76 1833.78 L1243.76 1841.19 L1237.91 1841.19 L1237.91 1833.78 Z" fill="#000000" fill-rule="nonzero" fill-opacity="1" /><path clip-path="url(#clip640)" d="M1269.83 1851.76 Q1265.12 1851.76 1262.38 1855.45 Q1259.64 1859.11 1259.64 1865.51 Q1259.64 1871.91 1262.35 1875.6 Q1265.09 1879.26 1269.83 1879.26 Q1274.51 1879.26 1277.25 1875.57 Q1279.98 1871.87 1279.98 1865.51 Q1279.98 1859.17 1277.25 1855.48 Q1274.51 1851.76 1269.83 1851.76 M1269.83 1846.79 Q1277.47 1846.79 1281.83 1851.76 Q1286.19 1856.72 1286.19 1865.51 Q1286.19 1874.26 1281.83 1879.26 Q1277.47 1884.22 1269.83 1884.22 Q1262.16 1884.22 1257.8 1879.26 Q1253.47 1874.26 1253.47 1865.51 Q1253.47 1856.72 1257.8 1851.76 Q1262.16 1846.79 1269.83 1846.79 Z" fill="#000000" fill-rule="nonzero" fill-opacity="1" /><path clip-path="url(#clip640)" d="M1295.29 1869.23 L1295.29 1847.65 L1301.15 1847.65 L1301.15 1869.01 Q1301.15 1874.07 1303.12 1876.62 Q1305.1 1879.13 1309.04 1879.13 Q1313.78 1879.13 1316.52 1876.11 Q1319.29 1873.08 1319.29 1867.86 L1319.29 1847.65 L1325.15 1847.65 L1325.15 1883.3 L1319.29 1883.3 L1319.29 1877.83 Q1317.16 1881.07 1314.33 1882.66 Q1311.52 1884.22 1307.8 1884.22 Q1301.66 1884.22 1298.47 1880.4 Q1295.29 1876.59 1295.29 1869.23 M1310.03 1846.79 L1310.03 1846.79 Z" fill="#000000" fill-rule="nonzero" fill-opacity="1" /><path clip-path="url(#clip640)" d="M1359.94 1848.7 L1359.94 1854.24 Q1357.45 1852.97 1354.78 1852.33 Q1352.11 1851.7 1349.24 1851.7 Q1344.88 1851.7 1342.68 1853.03 Q1340.52 1854.37 1340.52 1857.04 Q1340.52 1859.08 1342.08 1860.26 Q1343.64 1861.4 1348.35 1862.45 L1350.36 1862.9 Q1356.59 1864.24 1359.2 1866.69 Q1361.85 1869.11 1361.85 1873.47 Q1361.85 1878.43 1357.9 1881.33 Q1353.98 1884.22 1347.11 1884.22 Q1344.24 1884.22 1341.13 1883.65 Q1338.04 1883.11 1334.6 1882 L1334.6 1875.95 Q1337.85 1877.64 1341 1878.49 Q1344.15 1879.32 1347.24 1879.32 Q1351.37 1879.32 1353.6 1877.92 Q1355.83 1876.49 1355.83 1873.91 Q1355.83 1871.52 1354.21 1870.25 Q1352.62 1868.98 1347.17 1867.8 L1345.14 1867.32 Q1339.69 1866.18 1337.27 1863.82 Q1334.86 1861.43 1334.86 1857.3 Q1334.86 1852.27 1338.42 1849.53 Q1341.98 1846.79 1348.54 1846.79 Q1351.79 1846.79 1354.65 1847.27 Q1357.52 1847.75 1359.94 1848.7 Z" fill="#000000" fill-rule="nonzero" fill-opacity="1" /><path clip-path="url(#clip640)" d="M1397.56 1877.95 L1397.56 1896.86 L1391.67 1896.86 L1391.67 1847.65 L1397.56 1847.65 L1397.56 1853.06 Q1399.4 1849.88 1402.2 1848.35 Q1405.04 1846.79 1408.95 1846.79 Q1415.44 1846.79 1419.49 1851.95 Q1423.56 1857.11 1423.56 1865.51 Q1423.56 1873.91 1419.49 1879.07 Q1415.44 1884.22 1408.95 1884.22 Q1405.04 1884.22 1402.2 1882.7 Q1399.4 1881.14 1397.56 1877.95 M1417.48 1865.51 Q1417.48 1859.05 1414.81 1855.39 Q1412.17 1851.7 1407.52 1851.7 Q1402.87 1851.7 1400.2 1855.39 Q1397.56 1859.05 1397.56 1865.51 Q1397.56 1871.97 1400.2 1875.66 Q1402.87 1879.32 1407.52 1879.32 Q1412.17 1879.32 1414.81 1875.66 Q1417.48 1871.97 1417.48 1865.51 Z" fill="#000000" fill-rule="nonzero" fill-opacity="1" /><path clip-path="url(#clip640)" d="M1463.76 1864.01 L1463.76 1866.88 L1436.83 1866.88 Q1437.22 1872.92 1440.46 1876.11 Q1443.74 1879.26 1449.57 1879.26 Q1452.94 1879.26 1456.09 1878.43 Q1459.27 1877.6 1462.39 1875.95 L1462.39 1881.49 Q1459.24 1882.82 1455.93 1883.52 Q1452.62 1884.22 1449.21 1884.22 Q1440.68 1884.22 1435.69 1879.26 Q1430.72 1874.29 1430.72 1865.83 Q1430.72 1857.07 1435.43 1851.95 Q1440.18 1846.79 1448.2 1846.79 Q1455.39 1846.79 1459.56 1851.44 Q1463.76 1856.06 1463.76 1864.01 M1457.9 1862.29 Q1457.84 1857.49 1455.2 1854.62 Q1452.59 1851.76 1448.26 1851.76 Q1443.36 1851.76 1440.4 1854.53 Q1437.47 1857.3 1437.02 1862.33 L1457.9 1862.29 Z" fill="#000000" fill-rule="nonzero" fill-opacity="1" /><path clip-path="url(#clip640)" d="M1494.03 1853.13 Q1493.04 1852.55 1491.87 1852.3 Q1490.72 1852.01 1489.32 1852.01 Q1484.35 1852.01 1481.68 1855.26 Q1479.04 1858.47 1479.04 1864.52 L1479.04 1883.3 L1473.15 1883.3 L1473.15 1847.65 L1479.04 1847.65 L1479.04 1853.19 Q1480.88 1849.94 1483.84 1848.39 Q1486.8 1846.79 1491.04 1846.79 Q1491.64 1846.79 1492.37 1846.89 Q1493.11 1846.95 1494 1847.11 L1494.03 1853.13 Z" fill="#000000" fill-rule="nonzero" fill-opacity="1" /><path clip-path="url(#clip640)" d="M1500.17 1847.65 L1506.03 1847.65 L1506.03 1883.3 L1500.17 1883.3 L1500.17 1847.65 M1500.17 1833.78 L1506.03 1833.78 L1506.03 1841.19 L1500.17 1841.19 L1500.17 1833.78 Z" fill="#000000" fill-rule="nonzero" fill-opacity="1" /><path clip-path="url(#clip640)" d="M1532.1 1851.76 Q1527.39 1851.76 1524.65 1855.45 Q1521.91 1859.11 1521.91 1865.51 Q1521.91 1871.91 1524.62 1875.6 Q1527.35 1879.26 1532.1 1879.26 Q1536.78 1879.26 1539.51 1875.57 Q1542.25 1871.87 1542.25 1865.51 Q1542.25 1859.17 1539.51 1855.48 Q1536.78 1851.76 1532.1 1851.76 M1532.1 1846.79 Q1539.74 1846.79 1544.1 1851.76 Q1548.46 1856.72 1548.46 1865.51 Q1548.46 1874.26 1544.1 1879.26 Q1539.74 1884.22 1532.1 1884.22 Q1524.43 1884.22 1520.07 1879.26 Q1515.74 1874.26 1515.74 1865.51 Q1515.74 1856.72 1520.07 1851.76 Q1524.43 1846.79 1532.1 1846.79 Z" fill="#000000" fill-rule="nonzero" fill-opacity="1" /><path clip-path="url(#clip640)" d="M1581.62 1853.06 L1581.62 1833.78 L1587.48 1833.78 L1587.48 1883.3 L1581.62 1883.3 L1581.62 1877.95 Q1579.78 1881.14 1576.94 1882.7 Q1574.14 1884.22 1570.2 1884.22 Q1563.73 1884.22 1559.66 1879.07 Q1555.62 1873.91 1555.62 1865.51 Q1555.62 1857.11 1559.66 1851.95 Q1563.73 1846.79 1570.2 1846.79 Q1574.14 1846.79 1576.94 1848.35 Q1579.78 1849.88 1581.62 1853.06 M1561.67 1865.51 Q1561.67 1871.97 1564.31 1875.66 Q1566.98 1879.32 1571.63 1879.32 Q1576.27 1879.32 1578.95 1875.66 Q1581.62 1871.97 1581.62 1865.51 Q1581.62 1859.05 1578.95 1855.39 Q1576.27 1851.7 1571.63 1851.7 Q1566.98 1851.7 1564.31 1855.39 Q1561.67 1859.05 1561.67 1865.51 Z" fill="#000000" fill-rule="nonzero" fill-opacity="1" /><path clip-path="url(#clip640)" d="M1634.33 1833.84 Q1630.06 1841.16 1628 1848.32 Q1625.93 1855.48 1625.93 1862.84 Q1625.93 1870.19 1628 1877.41 Q1630.1 1884.61 1634.33 1891.89 L1629.24 1891.89 Q1624.46 1884.41 1622.08 1877.19 Q1619.72 1869.96 1619.72 1862.84 Q1619.72 1855.74 1622.08 1848.54 Q1624.43 1841.35 1629.24 1833.84 L1634.33 1833.84 Z" fill="#000000" fill-rule="nonzero" fill-opacity="1" /><path clip-path="url(#clip640)" d="M1669.15 1853.06 L1669.15 1833.78 L1675.01 1833.78 L1675.01 1883.3 L1669.15 1883.3 L1669.15 1877.95 Q1667.3 1881.14 1664.47 1882.7 Q1661.67 1884.22 1657.72 1884.22 Q1651.26 1884.22 1647.19 1879.07 Q1643.15 1873.91 1643.15 1865.51 Q1643.15 1857.11 1647.19 1851.95 Q1651.26 1846.79 1657.72 1846.79 Q1661.67 1846.79 1664.47 1848.35 Q1667.3 1849.88 1669.15 1853.06 M1649.19 1865.51 Q1649.19 1871.97 1651.84 1875.66 Q1654.51 1879.32 1659.16 1879.32 Q1663.8 1879.32 1666.48 1875.66 Q1669.15 1871.97 1669.15 1865.51 Q1669.15 1859.05 1666.48 1855.39 Q1663.8 1851.7 1659.16 1851.7 Q1654.51 1851.7 1651.84 1855.39 Q1649.19 1859.05 1649.19 1865.51 Z" fill="#000000" fill-rule="nonzero" fill-opacity="1" /><path clip-path="url(#clip640)" d="M1703.27 1865.38 Q1696.17 1865.38 1693.44 1867 Q1690.7 1868.63 1690.7 1872.54 Q1690.7 1875.66 1692.74 1877.51 Q1694.8 1879.32 1698.34 1879.32 Q1703.21 1879.32 1706.13 1875.88 Q1709.09 1872.42 1709.09 1866.69 L1709.09 1865.38 L1703.27 1865.38 M1714.95 1862.96 L1714.95 1883.3 L1709.09 1883.3 L1709.09 1877.89 Q1707.09 1881.14 1704.1 1882.7 Q1701.11 1884.22 1696.78 1884.22 Q1691.3 1884.22 1688.06 1881.17 Q1684.84 1878.08 1684.84 1872.92 Q1684.84 1866.91 1688.85 1863.85 Q1692.89 1860.8 1700.88 1860.8 L1709.09 1860.8 L1709.09 1860.23 Q1709.09 1856.18 1706.42 1853.99 Q1703.78 1851.76 1698.97 1851.76 Q1695.92 1851.76 1693.02 1852.49 Q1690.13 1853.22 1687.45 1854.69 L1687.45 1849.28 Q1690.67 1848.03 1693.69 1847.43 Q1696.71 1846.79 1699.58 1846.79 Q1707.31 1846.79 1711.13 1850.8 Q1714.95 1854.81 1714.95 1862.96 Z" fill="#000000" fill-rule="nonzero" fill-opacity="1" /><path clip-path="url(#clip640)" d="M1741.85 1886.61 Q1739.36 1892.98 1737.01 1894.92 Q1734.65 1896.86 1730.71 1896.86 L1726.03 1896.86 L1726.03 1891.96 L1729.47 1891.96 Q1731.88 1891.96 1733.22 1890.81 Q1734.56 1889.67 1736.18 1885.4 L1737.23 1882.73 L1722.81 1847.65 L1729.02 1847.65 L1740.16 1875.53 L1751.3 1847.65 L1757.51 1847.65 L1741.85 1886.61 Z" fill="#000000" fill-rule="nonzero" fill-opacity="1" /><path clip-path="url(#clip640)" d="M1788.32 1848.7 L1788.32 1854.24 Q1785.83 1852.97 1783.16 1852.33 Q1780.49 1851.7 1777.62 1851.7 Q1773.26 1851.7 1771.07 1853.03 Q1768.9 1854.37 1768.9 1857.04 Q1768.9 1859.08 1770.46 1860.26 Q1772.02 1861.4 1776.73 1862.45 L1778.74 1862.9 Q1784.97 1864.24 1787.58 1866.69 Q1790.23 1869.11 1790.23 1873.47 Q1790.23 1878.43 1786.28 1881.33 Q1782.36 1884.22 1775.49 1884.22 Q1772.62 1884.22 1769.51 1883.65 Q1766.42 1883.11 1762.98 1882 L1762.98 1875.95 Q1766.23 1877.64 1769.38 1878.49 Q1772.53 1879.32 1775.62 1879.32 Q1779.75 1879.32 1781.98 1877.92 Q1784.21 1876.49 1784.21 1873.91 Q1784.21 1871.52 1782.59 1870.25 Q1781 1868.98 1775.55 1867.8 L1773.52 1867.32 Q1768.07 1866.18 1765.65 1863.82 Q1763.24 1861.43 1763.24 1857.3 Q1763.24 1852.27 1766.8 1849.53 Q1770.36 1846.79 1776.92 1846.79 Q1780.17 1846.79 1783.03 1847.27 Q1785.9 1847.75 1788.32 1848.7 Z" fill="#000000" fill-rule="nonzero" fill-opacity="1" /><path clip-path="url(#clip640)" d="M1798.63 1833.84 L1803.72 1833.84 Q1808.5 1841.35 1810.85 1848.54 Q1813.24 1855.74 1813.24 1862.84 Q1813.24 1869.96 1810.85 1877.19 Q1808.5 1884.41 1803.72 1891.89 L1798.63 1891.89 Q1802.86 1884.61 1804.93 1877.41 Q1807.03 1870.19 1807.03 1862.84 Q1807.03 1855.48 1804.93 1848.32 Q1802.86 1841.16 1798.63 1833.84 Z" fill="#000000" fill-rule="nonzero" fill-opacity="1" /><polyline clip-path="url(#clip640)" style="stroke:#000000; stroke-linecap:round; stroke-linejoin:round; stroke-width:4; stroke-opacity:1; fill:none" points="225.654,1734.12 225.654,127.792 "/>
<polyline clip-path="url(#clip640)" style="stroke:#000000; stroke-linecap:round; stroke-linejoin:round; stroke-width:4; stroke-opacity:1; fill:none" points="225.654,1734.12 244.552,1734.12 "/>
<polyline clip-path="url(#clip640)" style="stroke:#000000; stroke-linecap:round; stroke-linejoin:round; stroke-width:4; stroke-opacity:1; fill:none" points="225.654,1314.69 244.552,1314.69 "/>
<polyline clip-path="url(#clip640)" style="stroke:#000000; stroke-linecap:round; stroke-linejoin:round; stroke-width:4; stroke-opacity:1; fill:none" points="225.654,895.258 244.552,895.258 "/>
<polyline clip-path="url(#clip640)" style="stroke:#000000; stroke-linecap:round; stroke-linejoin:round; stroke-width:4; stroke-opacity:1; fill:none" points="225.654,475.829 244.552,475.829 "/>
<path clip-path="url(#clip640)" d="M128.159 1719.92 Q124.548 1719.92 122.719 1723.48 Q120.913 1727.02 120.913 1734.15 Q120.913 1741.26 122.719 1744.82 Q124.548 1748.36 128.159 1748.36 Q131.793 1748.36 133.599 1744.82 Q135.427 1741.26 135.427 1734.15 Q135.427 1727.02 133.599 1723.48 Q131.793 1719.92 128.159 1719.92 M128.159 1716.21 Q133.969 1716.21 137.025 1720.82 Q140.103 1725.4 140.103 1734.15 Q140.103 1742.88 137.025 1747.48 Q133.969 1752.07 128.159 1752.07 Q122.349 1752.07 119.27 1747.48 Q116.214 1742.88 116.214 1734.15 Q116.214 1725.4 119.27 1720.82 Q122.349 1716.21 128.159 1716.21 Z" fill="#000000" fill-rule="nonzero" fill-opacity="1" /><path clip-path="url(#clip640)" d="M148.321 1745.52 L153.205 1745.52 L153.205 1751.4 L148.321 1751.4 L148.321 1745.52 Z" fill="#000000" fill-rule="nonzero" fill-opacity="1" /><path clip-path="url(#clip640)" d="M173.39 1719.92 Q169.779 1719.92 167.95 1723.48 Q166.145 1727.02 166.145 1734.15 Q166.145 1741.26 167.95 1744.82 Q169.779 1748.36 173.39 1748.36 Q177.024 1748.36 178.83 1744.82 Q180.659 1741.26 180.659 1734.15 Q180.659 1727.02 178.83 1723.48 Q177.024 1719.92 173.39 1719.92 M173.39 1716.21 Q179.2 1716.21 182.256 1720.82 Q185.334 1725.4 185.334 1734.15 Q185.334 1742.88 182.256 1747.48 Q179.2 1752.07 173.39 1752.07 Q167.58 1752.07 164.501 1747.48 Q161.446 1742.88 161.446 1734.15 Q161.446 1725.4 164.501 1720.82 Q167.58 1716.21 173.39 1716.21 Z" fill="#000000" fill-rule="nonzero" fill-opacity="1" /><path clip-path="url(#clip640)" d="M129.386 1300.49 Q125.775 1300.49 123.946 1304.05 Q122.14 1307.59 122.14 1314.72 Q122.14 1321.83 123.946 1325.39 Q125.775 1328.94 129.386 1328.94 Q133.02 1328.94 134.825 1325.39 Q136.654 1321.83 136.654 1314.72 Q136.654 1307.59 134.825 1304.05 Q133.02 1300.49 129.386 1300.49 M129.386 1296.78 Q135.196 1296.78 138.251 1301.39 Q141.33 1305.97 141.33 1314.72 Q141.33 1323.45 138.251 1328.06 Q135.196 1332.64 129.386 1332.64 Q123.576 1332.64 120.497 1328.06 Q117.441 1323.45 117.441 1314.72 Q117.441 1305.97 120.497 1301.39 Q123.576 1296.78 129.386 1296.78 Z" fill="#000000" fill-rule="nonzero" fill-opacity="1" /><path clip-path="url(#clip640)" d="M149.548 1326.09 L154.432 1326.09 L154.432 1331.97 L149.548 1331.97 L149.548 1326.09 Z" fill="#000000" fill-rule="nonzero" fill-opacity="1" /><path clip-path="url(#clip640)" d="M165.427 1328.03 L173.066 1328.03 L173.066 1301.67 L164.756 1303.33 L164.756 1299.07 L173.02 1297.41 L177.696 1297.41 L177.696 1328.03 L185.334 1328.03 L185.334 1331.97 L165.427 1331.97 L165.427 1328.03 Z" fill="#000000" fill-rule="nonzero" fill-opacity="1" /><path clip-path="url(#clip640)" d="M129.756 881.057 Q126.145 881.057 124.316 884.622 Q122.511 888.164 122.511 895.293 Q122.511 902.4 124.316 905.964 Q126.145 909.506 129.756 909.506 Q133.39 909.506 135.196 905.964 Q137.025 902.4 137.025 895.293 Q137.025 888.164 135.196 884.622 Q133.39 881.057 129.756 881.057 M129.756 877.353 Q135.566 877.353 138.622 881.96 Q141.7 886.543 141.7 895.293 Q141.7 904.02 138.622 908.626 Q135.566 913.21 129.756 913.21 Q123.946 913.21 120.867 908.626 Q117.812 904.02 117.812 895.293 Q117.812 886.543 120.867 881.96 Q123.946 877.353 129.756 877.353 Z" fill="#000000" fill-rule="nonzero" fill-opacity="1" /><path clip-path="url(#clip640)" d="M149.918 906.659 L154.802 906.659 L154.802 912.538 L149.918 912.538 L149.918 906.659 Z" fill="#000000" fill-rule="nonzero" fill-opacity="1" /><path clip-path="url(#clip640)" d="M169.015 908.603 L185.334 908.603 L185.334 912.538 L163.39 912.538 L163.39 908.603 Q166.052 905.849 170.635 901.219 Q175.242 896.566 176.422 895.224 Q178.668 892.701 179.547 890.964 Q180.45 889.205 180.45 887.515 Q180.45 884.761 178.506 883.025 Q176.584 881.289 173.483 881.289 Q171.284 881.289 168.83 882.052 Q166.399 882.816 163.622 884.367 L163.622 879.645 Q166.446 878.511 168.899 877.932 Q171.353 877.353 173.39 877.353 Q178.76 877.353 181.955 880.039 Q185.149 882.724 185.149 887.215 Q185.149 889.344 184.339 891.265 Q183.552 893.164 181.446 895.756 Q180.867 896.427 177.765 899.645 Q174.663 902.839 169.015 908.603 Z" fill="#000000" fill-rule="nonzero" fill-opacity="1" /><path clip-path="url(#clip640)" d="M128.807 461.628 Q125.196 461.628 123.367 465.193 Q121.562 468.734 121.562 475.864 Q121.562 482.97 123.367 486.535 Q125.196 490.077 128.807 490.077 Q132.441 490.077 134.247 486.535 Q136.075 482.97 136.075 475.864 Q136.075 468.734 134.247 465.193 Q132.441 461.628 128.807 461.628 M128.807 457.924 Q134.617 457.924 137.673 462.531 Q140.751 467.114 140.751 475.864 Q140.751 484.591 137.673 489.197 Q134.617 493.78 128.807 493.78 Q122.997 493.78 119.918 489.197 Q116.863 484.591 116.863 475.864 Q116.863 467.114 119.918 462.531 Q122.997 457.924 128.807 457.924 Z" fill="#000000" fill-rule="nonzero" fill-opacity="1" /><path clip-path="url(#clip640)" d="M148.969 487.23 L153.853 487.23 L153.853 493.109 L148.969 493.109 L148.969 487.23 Z" fill="#000000" fill-rule="nonzero" fill-opacity="1" /><path clip-path="url(#clip640)" d="M178.205 474.475 Q181.561 475.193 183.436 477.461 Q185.334 479.73 185.334 483.063 Q185.334 488.179 181.816 490.98 Q178.297 493.78 171.816 493.78 Q169.64 493.78 167.325 493.341 Q165.034 492.924 162.58 492.068 L162.58 487.554 Q164.524 488.688 166.839 489.267 Q169.154 489.845 171.677 489.845 Q176.075 489.845 178.367 488.109 Q180.682 486.373 180.682 483.063 Q180.682 480.007 178.529 478.294 Q176.399 476.558 172.58 476.558 L168.552 476.558 L168.552 472.716 L172.765 472.716 Q176.214 472.716 178.043 471.35 Q179.872 469.961 179.872 467.369 Q179.872 464.707 177.973 463.295 Q176.098 461.859 172.58 461.859 Q170.659 461.859 168.46 462.276 Q166.26 462.693 163.622 463.572 L163.622 459.406 Q166.284 458.665 168.598 458.295 Q170.936 457.924 172.997 457.924 Q178.321 457.924 181.422 460.355 Q184.524 462.762 184.524 466.882 Q184.524 469.753 182.881 471.744 Q181.237 473.711 178.205 474.475 Z" fill="#000000" fill-rule="nonzero" fill-opacity="1" /><path clip-path="url(#clip640)" d="M19.402 1092.64 L37.2578 1092.64 L37.2578 1084.56 Q37.2578 1080.07 34.9343 1077.62 Q32.6108 1075.17 28.314 1075.17 Q24.0489 1075.17 21.7255 1077.62 Q19.402 1080.07 19.402 1084.56 L19.402 1092.64 M14.1184 1099.07 L14.1184 1084.56 Q14.1184 1076.57 17.7469 1072.5 Q21.3435 1068.39 28.314 1068.39 Q35.3481 1068.39 38.9447 1072.5 Q42.5413 1076.57 42.5413 1084.56 L42.5413 1092.64 L61.6384 1092.64 L61.6384 1099.07 L14.1184 1099.07 Z" fill="#000000" fill-rule="nonzero" fill-opacity="1" /><path clip-path="url(#clip640)" d="M31.465 1040.51 Q30.8921 1041.5 30.6375 1042.67 Q30.351 1043.82 30.351 1045.22 Q30.351 1050.18 33.5975 1052.86 Q36.8122 1055.5 42.8596 1055.5 L61.6384 1055.5 L61.6384 1061.39 L25.9905 1061.39 L25.9905 1055.5 L31.5287 1055.5 Q28.2821 1053.65 26.7225 1050.69 Q25.1311 1047.73 25.1311 1043.5 Q25.1311 1042.9 25.2266 1042.16 Q25.2903 1041.43 25.4494 1040.54 L31.465 1040.51 Z" fill="#000000" fill-rule="nonzero" fill-opacity="1" /><path clip-path="url(#clip640)" d="M30.0964 1021.98 Q30.0964 1026.69 33.7885 1029.43 Q37.4488 1032.17 43.8463 1032.17 Q50.2438 1032.17 53.9359 1029.46 Q57.5962 1026.73 57.5962 1021.98 Q57.5962 1017.31 53.9041 1014.57 Q50.212 1011.83 43.8463 1011.83 Q37.5124 1011.83 33.8203 1014.57 Q30.0964 1017.31 30.0964 1021.98 M25.1311 1021.98 Q25.1311 1014.35 30.0964 1009.98 Q35.0616 1005.62 43.8463 1005.62 Q52.5991 1005.62 57.5962 1009.98 Q62.5615 1014.35 62.5615 1021.98 Q62.5615 1029.65 57.5962 1034.02 Q52.5991 1038.34 43.8463 1038.34 Q35.0616 1038.34 30.0964 1034.02 Q25.1311 1029.65 25.1311 1021.98 Z" fill="#000000" fill-rule="nonzero" fill-opacity="1" /><path clip-path="url(#clip640)" d="M43.8463 970.326 Q37.3851 970.326 33.7248 973 Q30.0327 975.642 30.0327 980.289 Q30.0327 984.936 33.7248 987.609 Q37.3851 990.251 43.8463 990.251 Q50.3075 990.251 53.9996 987.609 Q57.6599 984.936 57.6599 980.289 Q57.6599 975.642 53.9996 973 Q50.3075 970.326 43.8463 970.326 M31.4013 990.251 Q28.2185 988.405 26.6907 985.604 Q25.1311 982.771 25.1311 978.856 Q25.1311 972.363 30.2873 968.321 Q35.4436 964.247 43.8463 964.247 Q52.249 964.247 57.4052 968.321 Q62.5615 972.363 62.5615 978.856 Q62.5615 982.771 61.0337 985.604 Q59.4741 988.405 56.2912 990.251 L61.6384 990.251 L61.6384 996.139 L12.1132 996.139 L12.1132 990.251 L31.4013 990.251 Z" fill="#000000" fill-rule="nonzero" fill-opacity="1" /><path clip-path="url(#clip640)" d="M43.719 938.339 Q43.719 945.437 45.3422 948.174 Q46.9655 950.911 50.8804 950.911 Q53.9996 950.911 55.8457 948.874 Q57.6599 946.805 57.6599 943.272 Q57.6599 938.402 54.2224 935.474 Q50.7531 932.514 45.0239 932.514 L43.719 932.514 L43.719 938.339 M41.3 926.658 L61.6384 926.658 L61.6384 932.514 L56.2276 932.514 Q59.4741 934.519 61.0337 937.511 Q62.5615 940.503 62.5615 944.832 Q62.5615 950.306 59.5059 953.553 Q56.4186 956.767 51.2623 956.767 Q45.2467 956.767 42.1912 952.757 Q39.1357 948.715 39.1357 940.726 L39.1357 932.514 L38.5628 932.514 Q34.5205 932.514 32.3244 935.188 Q30.0964 937.83 30.0964 942.636 Q30.0964 945.691 30.8284 948.588 Q31.5605 951.484 33.0246 954.158 L27.6137 954.158 Q26.3724 950.943 25.7677 947.919 Q25.1311 944.895 25.1311 942.031 Q25.1311 934.297 29.1415 930.477 Q33.1519 926.658 41.3 926.658 Z" fill="#000000" fill-rule="nonzero" fill-opacity="1" /><path clip-path="url(#clip640)" d="M43.8463 889.005 Q37.3851 889.005 33.7248 891.678 Q30.0327 894.32 30.0327 898.967 Q30.0327 903.614 33.7248 906.287 Q37.3851 908.929 43.8463 908.929 Q50.3075 908.929 53.9996 906.287 Q57.6599 903.614 57.6599 898.967 Q57.6599 894.32 53.9996 891.678 Q50.3075 889.005 43.8463 889.005 M31.4013 908.929 Q28.2185 907.083 26.6907 904.282 Q25.1311 901.45 25.1311 897.535 Q25.1311 891.042 30.2873 886.999 Q35.4436 882.925 43.8463 882.925 Q52.249 882.925 57.4052 886.999 Q62.5615 891.042 62.5615 897.535 Q62.5615 901.45 61.0337 904.282 Q59.4741 907.083 56.2912 908.929 L61.6384 908.929 L61.6384 914.817 L12.1132 914.817 L12.1132 908.929 L31.4013 908.929 Z" fill="#000000" fill-rule="nonzero" fill-opacity="1" /><path clip-path="url(#clip640)" d="M25.9905 873.218 L25.9905 867.361 L61.6384 867.361 L61.6384 873.218 L25.9905 873.218 M12.1132 873.218 L12.1132 867.361 L19.5293 867.361 L19.5293 873.218 L12.1132 873.218 Z" fill="#000000" fill-rule="nonzero" fill-opacity="1" /><path clip-path="url(#clip640)" d="M12.1132 855.107 L12.1132 849.251 L61.6384 849.251 L61.6384 855.107 L12.1132 855.107 Z" fill="#000000" fill-rule="nonzero" fill-opacity="1" /><path clip-path="url(#clip640)" d="M25.9905 836.997 L25.9905 831.14 L61.6384 831.14 L61.6384 836.997 L25.9905 836.997 M12.1132 836.997 L12.1132 831.14 L19.5293 831.14 L19.5293 836.997 L12.1132 836.997 Z" fill="#000000" fill-rule="nonzero" fill-opacity="1" /><path clip-path="url(#clip640)" d="M15.869 813.093 L25.9905 813.093 L25.9905 801.03 L30.542 801.03 L30.542 813.093 L49.8937 813.093 Q54.2542 813.093 55.4955 811.916 Q56.7368 810.706 56.7368 807.046 L56.7368 801.03 L61.6384 801.03 L61.6384 807.046 Q61.6384 813.826 59.124 816.404 Q56.5777 818.982 49.8937 818.982 L30.542 818.982 L30.542 823.279 L25.9905 823.279 L25.9905 818.982 L15.869 818.982 L15.869 813.093 Z" fill="#000000" fill-rule="nonzero" fill-opacity="1" /><path clip-path="url(#clip640)" d="M64.9486 778.496 Q71.3143 780.979 73.2559 783.334 Q75.1974 785.689 75.1974 789.636 L75.1974 794.315 L70.2958 794.315 L70.2958 790.877 Q70.2958 788.458 69.15 787.121 Q68.0041 785.785 63.7391 784.161 L61.0655 783.111 L25.9905 797.529 L25.9905 791.323 L53.8723 780.183 L25.9905 769.043 L25.9905 762.836 L64.9486 778.496 Z" fill="#000000" fill-rule="nonzero" fill-opacity="1" /><path clip-path="url(#clip640)" d="M603.864 44.2197 Q606.497 45.1109 608.968 48.0275 Q611.479 50.9442 613.991 56.0483 L622.295 72.576 L613.505 72.576 L605.767 57.061 Q602.77 50.9847 599.934 48.9997 Q597.139 47.0148 592.278 47.0148 L583.366 47.0148 L583.366 72.576 L575.183 72.576 L575.183 12.096 L593.655 12.096 Q604.026 12.096 609.13 16.4305 Q614.234 20.7649 614.234 29.5149 Q614.234 35.2267 611.56 38.994 Q608.927 42.7613 603.864 44.2197 M583.366 18.8205 L583.366 40.2903 L593.655 40.2903 Q599.57 40.2903 602.567 37.5762 Q605.605 34.8216 605.605 29.5149 Q605.605 24.2082 602.567 21.5346 Q599.57 18.8205 593.655 18.8205 L583.366 18.8205 Z" fill="#000000" fill-rule="nonzero" fill-opacity="1" /><path clip-path="url(#clip640)" d="M667.584 48.0275 L667.584 51.6733 L633.314 51.6733 Q633.8 59.3701 637.932 63.421 Q642.104 67.4314 649.517 67.4314 Q653.811 67.4314 657.822 66.3781 Q661.873 65.3249 665.842 63.2184 L665.842 70.267 Q661.832 71.9684 657.619 72.8596 Q653.406 73.7508 649.072 73.7508 Q638.215 73.7508 631.855 67.4314 Q625.536 61.1119 625.536 50.3365 Q625.536 39.1965 631.531 32.6746 Q637.567 26.1121 647.775 26.1121 Q656.93 26.1121 662.237 32.0264 Q667.584 37.9003 667.584 48.0275 M660.131 45.84 Q660.05 39.7232 656.687 36.0774 Q653.366 32.4315 647.856 32.4315 Q641.618 32.4315 637.851 35.9558 Q634.124 39.4801 633.557 45.8805 L660.131 45.84 Z" fill="#000000" fill-rule="nonzero" fill-opacity="1" /><path clip-path="url(#clip640)" d="M712.468 28.9478 L712.468 35.9153 Q709.309 34.1734 706.108 33.3227 Q702.949 32.4315 699.708 32.4315 Q692.457 32.4315 688.446 37.0496 Q684.436 41.6271 684.436 49.9314 Q684.436 58.2358 688.446 62.8538 Q692.457 67.4314 699.708 67.4314 Q702.949 67.4314 706.108 66.5807 Q709.309 65.6895 712.468 63.9476 L712.468 70.8341 Q709.349 72.2924 705.987 73.0216 Q702.665 73.7508 698.898 73.7508 Q688.649 73.7508 682.613 67.3098 Q676.577 60.8689 676.577 49.9314 Q676.577 38.832 682.654 32.472 Q688.771 26.1121 699.384 26.1121 Q702.827 26.1121 706.108 26.8413 Q709.39 27.5299 712.468 28.9478 Z" fill="#000000" fill-rule="nonzero" fill-opacity="1" /><path clip-path="url(#clip640)" d="M743.012 32.4315 Q737.017 32.4315 733.533 37.1306 Q730.049 41.7891 730.049 49.9314 Q730.049 58.0738 733.492 62.7728 Q736.976 67.4314 743.012 67.4314 Q748.967 67.4314 752.451 62.7323 Q755.934 58.0333 755.934 49.9314 Q755.934 41.8701 752.451 37.1711 Q748.967 32.4315 743.012 32.4315 M743.012 26.1121 Q752.734 26.1121 758.284 32.4315 Q763.834 38.7509 763.834 49.9314 Q763.834 61.0714 758.284 67.4314 Q752.734 73.7508 743.012 73.7508 Q733.249 73.7508 727.7 67.4314 Q722.19 61.0714 722.19 49.9314 Q722.19 38.7509 727.7 32.4315 Q733.249 26.1121 743.012 26.1121 Z" fill="#000000" fill-rule="nonzero" fill-opacity="1" /><path clip-path="url(#clip640)" d="M770.842 27.2059 L778.741 27.2059 L792.919 65.2844 L807.097 27.2059 L814.997 27.2059 L797.983 72.576 L787.856 72.576 L770.842 27.2059 Z" fill="#000000" fill-rule="nonzero" fill-opacity="1" /><path clip-path="url(#clip640)" d="M864.094 48.0275 L864.094 51.6733 L829.823 51.6733 Q830.309 59.3701 834.441 63.421 Q838.613 67.4314 846.027 67.4314 Q850.321 67.4314 854.331 66.3781 Q858.382 65.3249 862.352 63.2184 L862.352 70.267 Q858.341 71.9684 854.128 72.8596 Q849.915 73.7508 845.581 73.7508 Q834.725 73.7508 828.365 67.4314 Q822.045 61.1119 822.045 50.3365 Q822.045 39.1965 828.041 32.6746 Q834.076 26.1121 844.285 26.1121 Q853.44 26.1121 858.746 32.0264 Q864.094 37.9003 864.094 48.0275 M856.64 45.84 Q856.559 39.7232 853.197 36.0774 Q849.875 32.4315 844.366 32.4315 Q838.127 32.4315 834.36 35.9558 Q830.633 39.4801 830.066 45.8805 L856.64 45.84 Z" fill="#000000" fill-rule="nonzero" fill-opacity="1" /><path clip-path="url(#clip640)" d="M902.618 34.1734 Q901.362 33.4443 899.863 33.1202 Q898.405 32.7556 896.622 32.7556 Q890.303 32.7556 886.9 36.8875 Q883.538 40.9789 883.538 48.6757 L883.538 72.576 L876.044 72.576 L876.044 27.2059 L883.538 27.2059 L883.538 34.2544 Q885.888 30.1225 889.655 28.1376 Q893.422 26.1121 898.81 26.1121 Q899.58 26.1121 900.511 26.2337 Q901.443 26.3147 902.577 26.5172 L902.618 34.1734 Z" fill="#000000" fill-rule="nonzero" fill-opacity="1" /><path clip-path="url(#clip640)" d="M929.313 76.7889 Q926.153 84.8907 923.156 87.3618 Q920.158 89.8329 915.135 89.8329 L909.18 89.8329 L909.18 83.5945 L913.555 83.5945 Q916.634 83.5945 918.335 82.1361 Q920.037 80.6778 922.103 75.2496 L923.439 71.8468 L905.089 27.2059 L912.988 27.2059 L927.166 62.6918 L941.344 27.2059 L949.244 27.2059 L929.313 76.7889 Z" fill="#000000" fill-rule="nonzero" fill-opacity="1" /><path clip-path="url(#clip640)" d="M985.904 27.2059 L993.358 27.2059 L993.358 72.576 L985.904 72.576 L985.904 27.2059 M985.904 9.54393 L993.358 9.54393 L993.358 18.9825 L985.904 18.9825 L985.904 9.54393 Z" fill="#000000" fill-rule="nonzero" fill-opacity="1" /><path clip-path="url(#clip640)" d="M1046.67 45.1919 L1046.67 72.576 L1039.21 72.576 L1039.21 45.4349 Q1039.21 38.994 1036.7 35.7938 Q1034.19 32.5936 1029.17 32.5936 Q1023.13 32.5936 1019.65 36.4419 Q1016.16 40.2903 1016.16 46.9338 L1016.16 72.576 L1008.67 72.576 L1008.67 27.2059 L1016.16 27.2059 L1016.16 34.2544 Q1018.84 30.163 1022.44 28.1376 Q1026.09 26.1121 1030.83 26.1121 Q1038.65 26.1121 1042.66 30.9732 Q1046.67 35.7938 1046.67 45.1919 Z" fill="#000000" fill-rule="nonzero" fill-opacity="1" /><path clip-path="url(#clip640)" d="M1068.91 14.324 L1068.91 27.2059 L1084.26 27.2059 L1084.26 32.9987 L1068.91 32.9987 L1068.91 57.6282 Q1068.91 63.1779 1070.41 64.7578 Q1071.95 66.3376 1076.6 66.3376 L1084.26 66.3376 L1084.26 72.576 L1076.6 72.576 Q1067.98 72.576 1064.69 69.3758 Q1061.41 66.1351 1061.41 57.6282 L1061.41 32.9987 L1055.94 32.9987 L1055.94 27.2059 L1061.41 27.2059 L1061.41 14.324 L1068.91 14.324 Z" fill="#000000" fill-rule="nonzero" fill-opacity="1" /><path clip-path="url(#clip640)" d="M1132.87 48.0275 L1132.87 51.6733 L1098.6 51.6733 Q1099.09 59.3701 1103.22 63.421 Q1107.39 67.4314 1114.8 67.4314 Q1119.1 67.4314 1123.11 66.3781 Q1127.16 65.3249 1131.13 63.2184 L1131.13 70.267 Q1127.12 71.9684 1122.91 72.8596 Q1118.69 73.7508 1114.36 73.7508 Q1103.5 73.7508 1097.14 67.4314 Q1090.82 61.1119 1090.82 50.3365 Q1090.82 39.1965 1096.82 32.6746 Q1102.85 26.1121 1113.06 26.1121 Q1122.22 26.1121 1127.52 32.0264 Q1132.87 37.9003 1132.87 48.0275 M1125.42 45.84 Q1125.34 39.7232 1121.97 36.0774 Q1118.65 32.4315 1113.14 32.4315 Q1106.9 32.4315 1103.14 35.9558 Q1099.41 39.4801 1098.84 45.8805 L1125.42 45.84 Z" fill="#000000" fill-rule="nonzero" fill-opacity="1" /><path clip-path="url(#clip640)" d="M1171.4 34.1734 Q1170.14 33.4443 1168.64 33.1202 Q1167.18 32.7556 1165.4 32.7556 Q1159.08 32.7556 1155.68 36.8875 Q1152.32 40.9789 1152.32 48.6757 L1152.32 72.576 L1144.82 72.576 L1144.82 27.2059 L1152.32 27.2059 L1152.32 34.2544 Q1154.67 30.1225 1158.43 28.1376 Q1162.2 26.1121 1167.59 26.1121 Q1168.36 26.1121 1169.29 26.2337 Q1170.22 26.3147 1171.35 26.5172 L1171.4 34.1734 Z" fill="#000000" fill-rule="nonzero" fill-opacity="1" /><path clip-path="url(#clip640)" d="M1173.87 27.2059 L1181.77 27.2059 L1195.94 65.2844 L1210.12 27.2059 L1218.02 27.2059 L1201.01 72.576 L1190.88 72.576 L1173.87 27.2059 Z" fill="#000000" fill-rule="nonzero" fill-opacity="1" /><path clip-path="url(#clip640)" d="M1248.93 49.7694 Q1239.9 49.7694 1236.41 51.8354 Q1232.93 53.9013 1232.93 58.8839 Q1232.93 62.8538 1235.52 65.2034 Q1238.15 67.5124 1242.65 67.5124 Q1248.85 67.5124 1252.58 63.1374 Q1256.34 58.7219 1256.34 51.4303 L1256.34 49.7694 L1248.93 49.7694 M1263.8 46.6907 L1263.8 72.576 L1256.34 72.576 L1256.34 65.6895 Q1253.79 69.8214 1249.98 71.8063 Q1246.17 73.7508 1240.67 73.7508 Q1233.7 73.7508 1229.57 69.8619 Q1225.47 65.9325 1225.47 59.3701 Q1225.47 51.7138 1230.58 47.825 Q1235.72 43.9361 1245.89 43.9361 L1256.34 43.9361 L1256.34 43.2069 Q1256.34 38.0623 1252.94 35.2672 Q1249.58 32.4315 1243.46 32.4315 Q1239.57 32.4315 1235.89 33.3632 Q1232.2 34.295 1228.8 36.1584 L1228.8 29.2718 Q1232.89 27.692 1236.74 26.9223 Q1240.58 26.1121 1244.23 26.1121 Q1254.07 26.1121 1258.94 31.2163 Q1263.8 36.3204 1263.8 46.6907 Z" fill="#000000" fill-rule="nonzero" fill-opacity="1" /><path clip-path="url(#clip640)" d="M1279.15 9.54393 L1286.6 9.54393 L1286.6 72.576 L1279.15 72.576 L1279.15 9.54393 Z" fill="#000000" fill-rule="nonzero" fill-opacity="1" /><path clip-path="url(#clip640)" d="M1331.12 28.5427 L1331.12 35.5912 Q1327.96 33.9709 1324.56 33.1607 Q1321.16 32.3505 1317.51 32.3505 Q1311.96 32.3505 1309.17 34.0519 Q1306.41 35.7533 1306.41 39.156 Q1306.41 41.7486 1308.4 43.2475 Q1310.38 44.7058 1316.38 46.0426 L1318.93 46.6097 Q1326.87 48.3111 1330.19 51.4303 Q1333.55 54.509 1333.55 60.0587 Q1333.55 66.3781 1328.53 70.0644 Q1323.55 73.7508 1314.8 73.7508 Q1311.15 73.7508 1307.18 73.0216 Q1303.25 72.3329 1298.88 70.9151 L1298.88 63.2184 Q1303.01 65.3654 1307.02 66.4591 Q1311.03 67.5124 1314.96 67.5124 Q1320.23 67.5124 1323.06 65.73 Q1325.9 63.9071 1325.9 60.6258 Q1325.9 57.5877 1323.83 55.9673 Q1321.81 54.3469 1314.88 52.8481 L1312.29 52.2405 Q1305.36 50.7821 1302.28 47.7845 Q1299.2 44.7463 1299.2 39.4801 Q1299.2 33.0797 1303.74 29.5959 Q1308.28 26.1121 1316.62 26.1121 Q1320.75 26.1121 1324.4 26.7198 Q1328.04 27.3274 1331.12 28.5427 Z" fill="#000000" fill-rule="nonzero" fill-opacity="1" /><path clip-path="url(#clip640)" d="M1347.33 62.2867 L1355.87 62.2867 L1355.87 72.576 L1347.33 72.576 L1347.33 62.2867 M1347.33 29.6769 L1355.87 29.6769 L1355.87 39.9662 L1347.33 39.9662 L1347.33 29.6769 Z" fill="#000000" fill-rule="nonzero" fill-opacity="1" /><path clip-path="url(#clip640)" d="M1406.96 65.7705 L1406.96 89.8329 L1399.46 89.8329 L1399.46 27.2059 L1406.96 27.2059 L1406.96 34.0924 Q1409.3 30.0415 1412.87 28.0971 Q1416.47 26.1121 1421.46 26.1121 Q1429.72 26.1121 1434.87 32.6746 Q1440.05 39.2371 1440.05 49.9314 Q1440.05 60.6258 1434.87 67.1883 Q1429.72 73.7508 1421.46 73.7508 Q1416.47 73.7508 1412.87 71.8063 Q1409.3 69.8214 1406.96 65.7705 M1432.31 49.9314 Q1432.31 41.7081 1428.91 37.0496 Q1425.55 32.3505 1419.63 32.3505 Q1413.72 32.3505 1410.32 37.0496 Q1406.96 41.7081 1406.96 49.9314 Q1406.96 58.1548 1410.32 62.8538 Q1413.72 67.5124 1419.63 67.5124 Q1425.55 67.5124 1428.91 62.8538 Q1432.31 58.1548 1432.31 49.9314 Z" fill="#000000" fill-rule="nonzero" fill-opacity="1" /><path clip-path="url(#clip640)" d="M1469.99 32.4315 Q1463.99 32.4315 1460.51 37.1306 Q1457.02 41.7891 1457.02 49.9314 Q1457.02 58.0738 1460.47 62.7728 Q1463.95 67.4314 1469.99 67.4314 Q1475.94 67.4314 1479.43 62.7323 Q1482.91 58.0333 1482.91 49.9314 Q1482.91 41.8701 1479.43 37.1711 Q1475.94 32.4315 1469.99 32.4315 M1469.99 26.1121 Q1479.71 26.1121 1485.26 32.4315 Q1490.81 38.7509 1490.81 49.9314 Q1490.81 61.0714 1485.26 67.4314 Q1479.71 73.7508 1469.99 73.7508 Q1460.22 73.7508 1454.67 67.4314 Q1449.17 61.0714 1449.17 49.9314 Q1449.17 38.7509 1454.67 32.4315 Q1460.22 26.1121 1469.99 26.1121 Z" fill="#000000" fill-rule="nonzero" fill-opacity="1" /><path clip-path="url(#clip640)" d="M1532.09 28.5427 L1532.09 35.5912 Q1528.93 33.9709 1525.53 33.1607 Q1522.12 32.3505 1518.48 32.3505 Q1512.93 32.3505 1510.13 34.0519 Q1507.38 35.7533 1507.38 39.156 Q1507.38 41.7486 1509.36 43.2475 Q1511.35 44.7058 1517.34 46.0426 L1519.89 46.6097 Q1527.83 48.3111 1531.16 51.4303 Q1534.52 54.509 1534.52 60.0587 Q1534.52 66.3781 1529.5 70.0644 Q1524.51 73.7508 1515.76 73.7508 Q1512.12 73.7508 1508.15 73.0216 Q1504.22 72.3329 1499.84 70.9151 L1499.84 63.2184 Q1503.97 65.3654 1507.98 66.4591 Q1512 67.5124 1515.92 67.5124 Q1521.19 67.5124 1524.03 65.73 Q1526.86 63.9071 1526.86 60.6258 Q1526.86 57.5877 1524.8 55.9673 Q1522.77 54.3469 1515.84 52.8481 L1513.25 52.2405 Q1506.32 50.7821 1503.25 47.7845 Q1500.17 44.7463 1500.17 39.4801 Q1500.17 33.0797 1504.7 29.5959 Q1509.24 26.1121 1517.59 26.1121 Q1521.72 26.1121 1525.36 26.7198 Q1529.01 27.3274 1532.09 28.5427 Z" fill="#000000" fill-rule="nonzero" fill-opacity="1" /><path clip-path="url(#clip640)" d="M1553.76 14.324 L1553.76 27.2059 L1569.11 27.2059 L1569.11 32.9987 L1553.76 32.9987 L1553.76 57.6282 Q1553.76 63.1779 1555.26 64.7578 Q1556.8 66.3376 1561.46 66.3376 L1569.11 66.3376 L1569.11 72.576 L1561.46 72.576 Q1552.83 72.576 1549.55 69.3758 Q1546.27 66.1351 1546.27 57.6282 L1546.27 32.9987 L1540.8 32.9987 L1540.8 27.2059 L1546.27 27.2059 L1546.27 14.324 L1553.76 14.324 Z" fill="#000000" fill-rule="nonzero" fill-opacity="1" /><path clip-path="url(#clip640)" d="M1617.72 48.0275 L1617.72 51.6733 L1583.45 51.6733 Q1583.94 59.3701 1588.07 63.421 Q1592.24 67.4314 1599.66 67.4314 Q1603.95 67.4314 1607.96 66.3781 Q1612.01 65.3249 1615.98 63.2184 L1615.98 70.267 Q1611.97 71.9684 1607.76 72.8596 Q1603.55 73.7508 1599.21 73.7508 Q1588.35 73.7508 1581.99 67.4314 Q1575.68 61.1119 1575.68 50.3365 Q1575.68 39.1965 1581.67 32.6746 Q1587.71 26.1121 1597.91 26.1121 Q1607.07 26.1121 1612.38 32.0264 Q1617.72 37.9003 1617.72 48.0275 M1610.27 45.84 Q1610.19 39.7232 1606.83 36.0774 Q1603.51 32.4315 1598 32.4315 Q1591.76 32.4315 1587.99 35.9558 Q1584.26 39.4801 1583.7 45.8805 L1610.27 45.84 Z" fill="#000000" fill-rule="nonzero" fill-opacity="1" /><path clip-path="url(#clip640)" d="M1656.25 34.1734 Q1654.99 33.4443 1653.49 33.1202 Q1652.04 32.7556 1650.25 32.7556 Q1643.93 32.7556 1640.53 36.8875 Q1637.17 40.9789 1637.17 48.6757 L1637.17 72.576 L1629.67 72.576 L1629.67 27.2059 L1637.17 27.2059 L1637.17 34.2544 Q1639.52 30.1225 1643.29 28.1376 Q1647.05 26.1121 1652.44 26.1121 Q1653.21 26.1121 1654.14 26.2337 Q1655.07 26.3147 1656.21 26.5172 L1656.25 34.1734 Z" fill="#000000" fill-rule="nonzero" fill-opacity="1" /><path clip-path="url(#clip640)" d="M1664.07 27.2059 L1671.52 27.2059 L1671.52 72.576 L1664.07 72.576 L1664.07 27.2059 M1664.07 9.54393 L1671.52 9.54393 L1671.52 18.9825 L1664.07 18.9825 L1664.07 9.54393 Z" fill="#000000" fill-rule="nonzero" fill-opacity="1" /><path clip-path="url(#clip640)" d="M1704.7 32.4315 Q1698.7 32.4315 1695.22 37.1306 Q1691.73 41.7891 1691.73 49.9314 Q1691.73 58.0738 1695.18 62.7728 Q1698.66 67.4314 1704.7 67.4314 Q1710.65 67.4314 1714.14 62.7323 Q1717.62 58.0333 1717.62 49.9314 Q1717.62 41.8701 1714.14 37.1711 Q1710.65 32.4315 1704.7 32.4315 M1704.7 26.1121 Q1714.42 26.1121 1719.97 32.4315 Q1725.52 38.7509 1725.52 49.9314 Q1725.52 61.0714 1719.97 67.4314 Q1714.42 73.7508 1704.7 73.7508 Q1694.93 73.7508 1689.38 67.4314 Q1683.88 61.0714 1683.88 49.9314 Q1683.88 38.7509 1689.38 32.4315 Q1694.93 26.1121 1704.7 26.1121 Z" fill="#000000" fill-rule="nonzero" fill-opacity="1" /><path clip-path="url(#clip640)" d="M1764.16 34.1734 Q1762.91 33.4443 1761.41 33.1202 Q1759.95 32.7556 1758.17 32.7556 Q1751.85 32.7556 1748.45 36.8875 Q1745.08 40.9789 1745.08 48.6757 L1745.08 72.576 L1737.59 72.576 L1737.59 27.2059 L1745.08 27.2059 L1745.08 34.2544 Q1747.43 30.1225 1751.2 28.1376 Q1754.97 26.1121 1760.36 26.1121 Q1761.13 26.1121 1762.06 26.2337 Q1762.99 26.3147 1764.12 26.5172 L1764.16 34.1734 Z" fill="#000000" fill-rule="nonzero" fill-opacity="1" /><path clip-path="url(#clip640)" d="M1806.86 18.8205 L1806.86 65.8515 L1816.74 65.8515 Q1829.26 65.8515 1835.05 60.1802 Q1840.89 54.509 1840.89 42.2752 Q1840.89 30.1225 1835.05 24.4918 Q1829.26 18.8205 1816.74 18.8205 L1806.86 18.8205 M1798.68 12.096 L1815.49 12.096 Q1833.07 12.096 1841.29 19.4281 Q1849.52 26.7198 1849.52 42.2752 Q1849.52 57.9117 1841.25 65.2439 Q1832.99 72.576 1815.49 72.576 L1798.68 72.576 L1798.68 12.096 Z" fill="#000000" fill-rule="nonzero" fill-opacity="1" /><path clip-path="url(#clip640)" d="M1870.74 18.8205 L1870.74 41.5461 L1881.03 41.5461 Q1886.74 41.5461 1889.86 38.5889 Q1892.98 35.6318 1892.98 30.163 Q1892.98 24.7348 1889.86 21.7777 Q1886.74 18.8205 1881.03 18.8205 L1870.74 18.8205 M1862.56 12.096 L1881.03 12.096 Q1891.2 12.096 1896.39 16.714 Q1901.61 21.2916 1901.61 30.163 Q1901.61 39.1155 1896.39 43.6931 Q1891.2 48.2706 1881.03 48.2706 L1870.74 48.2706 L1870.74 72.576 L1862.56 72.576 L1862.56 12.096 Z" fill="#000000" fill-rule="nonzero" fill-opacity="1" /><path clip-path="url(#clip640)" d="M1912.59 12.096 L1920.77 12.096 L1920.77 36.8875 L1950.51 36.8875 L1950.51 12.096 L1958.69 12.096 L1958.69 72.576 L1950.51 72.576 L1950.51 43.7741 L1920.77 43.7741 L1920.77 72.576 L1912.59 72.576 L1912.59 12.096 Z" fill="#000000" fill-rule="nonzero" fill-opacity="1" /><path clip-path="url(#clip640)" d="M1995.67 27.2059 L2003.57 27.2059 L2017.75 65.2844 L2031.93 27.2059 L2039.83 27.2059 L2022.81 72.576 L2012.69 72.576 L1995.67 27.2059 Z" fill="#000000" fill-rule="nonzero" fill-opacity="1" /><path clip-path="url(#clip640)" d="M2079.04 28.5427 L2079.04 35.5912 Q2075.88 33.9709 2072.48 33.1607 Q2069.08 32.3505 2065.43 32.3505 Q2059.88 32.3505 2057.08 34.0519 Q2054.33 35.7533 2054.33 39.156 Q2054.33 41.7486 2056.32 43.2475 Q2058.3 44.7058 2064.3 46.0426 L2066.85 46.6097 Q2074.79 48.3111 2078.11 51.4303 Q2081.47 54.509 2081.47 60.0587 Q2081.47 66.3781 2076.45 70.0644 Q2071.47 73.7508 2062.72 73.7508 Q2059.07 73.7508 2055.1 73.0216 Q2051.17 72.3329 2046.8 70.9151 L2046.8 63.2184 Q2050.93 65.3654 2054.94 66.4591 Q2058.95 67.5124 2062.88 67.5124 Q2068.14 67.5124 2070.98 65.73 Q2073.82 63.9071 2073.82 60.6258 Q2073.82 57.5877 2071.75 55.9673 Q2069.72 54.3469 2062.8 52.8481 L2060.2 52.2405 Q2053.28 50.7821 2050.2 47.7845 Q2047.12 44.7463 2047.12 39.4801 Q2047.12 33.0797 2051.66 29.5959 Q2056.19 26.1121 2064.54 26.1121 Q2068.67 26.1121 2072.32 26.7198 Q2075.96 27.3274 2079.04 28.5427 Z" fill="#000000" fill-rule="nonzero" fill-opacity="1" /><path clip-path="url(#clip640)" d="M2149.57 34.0924 L2149.57 9.54393 L2157.02 9.54393 L2157.02 72.576 L2149.57 72.576 L2149.57 65.7705 Q2147.22 69.8214 2143.61 71.8063 Q2140.05 73.7508 2135.02 73.7508 Q2126.8 73.7508 2121.62 67.1883 Q2116.47 60.6258 2116.47 49.9314 Q2116.47 39.2371 2121.62 32.6746 Q2126.8 26.1121 2135.02 26.1121 Q2140.05 26.1121 2143.61 28.0971 Q2147.22 30.0415 2149.57 34.0924 M2124.17 49.9314 Q2124.17 58.1548 2127.53 62.8538 Q2130.93 67.5124 2136.85 67.5124 Q2142.76 67.5124 2146.16 62.8538 Q2149.57 58.1548 2149.57 49.9314 Q2149.57 41.7081 2146.16 37.0496 Q2142.76 32.3505 2136.85 32.3505 Q2130.93 32.3505 2127.53 37.0496 Q2124.17 41.7081 2124.17 49.9314 Z" fill="#000000" fill-rule="nonzero" fill-opacity="1" /><path clip-path="url(#clip640)" d="M2192.99 49.7694 Q2183.96 49.7694 2180.48 51.8354 Q2176.99 53.9013 2176.99 58.8839 Q2176.99 62.8538 2179.58 65.2034 Q2182.22 67.5124 2186.71 67.5124 Q2192.91 67.5124 2196.64 63.1374 Q2200.41 58.7219 2200.41 51.4303 L2200.41 49.7694 L2192.99 49.7694 M2207.86 46.6907 L2207.86 72.576 L2200.41 72.576 L2200.41 65.6895 Q2197.85 69.8214 2194.05 71.8063 Q2190.24 73.7508 2184.73 73.7508 Q2177.76 73.7508 2173.63 69.8619 Q2169.54 65.9325 2169.54 59.3701 Q2169.54 51.7138 2174.64 47.825 Q2179.79 43.9361 2189.95 43.9361 L2200.41 43.9361 L2200.41 43.2069 Q2200.41 38.0623 2197 35.2672 Q2193.64 32.4315 2187.52 32.4315 Q2183.64 32.4315 2179.95 33.3632 Q2176.26 34.295 2172.86 36.1584 L2172.86 29.2718 Q2176.95 27.692 2180.8 26.9223 Q2184.65 26.1121 2188.29 26.1121 Q2198.14 26.1121 2203 31.2163 Q2207.86 36.3204 2207.86 46.6907 Z" fill="#000000" fill-rule="nonzero" fill-opacity="1" /><path clip-path="url(#clip640)" d="M2230.59 14.324 L2230.59 27.2059 L2245.94 27.2059 L2245.94 32.9987 L2230.59 32.9987 L2230.59 57.6282 Q2230.59 63.1779 2232.08 64.7578 Q2233.62 66.3376 2238.28 66.3376 L2245.94 66.3376 L2245.94 72.576 L2238.28 72.576 Q2229.65 72.576 2226.37 69.3758 Q2223.09 66.1351 2223.09 57.6282 L2223.09 32.9987 L2217.62 32.9987 L2217.62 27.2059 L2223.09 27.2059 L2223.09 14.324 L2230.59 14.324 Z" fill="#000000" fill-rule="nonzero" fill-opacity="1" /><path clip-path="url(#clip640)" d="M2276.36 49.7694 Q2267.33 49.7694 2263.84 51.8354 Q2260.36 53.9013 2260.36 58.8839 Q2260.36 62.8538 2262.95 65.2034 Q2265.58 67.5124 2270.08 67.5124 Q2276.28 67.5124 2280.01 63.1374 Q2283.77 58.7219 2283.77 51.4303 L2283.77 49.7694 L2276.36 49.7694 M2291.23 46.6907 L2291.23 72.576 L2283.77 72.576 L2283.77 65.6895 Q2281.22 69.8214 2277.41 71.8063 Q2273.61 73.7508 2268.1 73.7508 Q2261.13 73.7508 2257 69.8619 Q2252.91 65.9325 2252.91 59.3701 Q2252.91 51.7138 2258.01 47.825 Q2263.15 43.9361 2273.32 43.9361 L2283.77 43.9361 L2283.77 43.2069 Q2283.77 38.0623 2280.37 35.2672 Q2277.01 32.4315 2270.89 32.4315 Q2267 32.4315 2263.32 33.3632 Q2259.63 34.295 2256.23 36.1584 L2256.23 29.2718 Q2260.32 27.692 2264.17 26.9223 Q2268.02 26.1121 2271.66 26.1121 Q2281.51 26.1121 2286.37 31.2163 Q2291.23 36.3204 2291.23 46.6907 Z" fill="#000000" fill-rule="nonzero" fill-opacity="1" /><path clip-path="url(#clip641)" d="M358.489 1689.5 L358.489 1734.12 L512.02 1734.12 L512.02 1689.5 L358.489 1689.5 L358.489 1689.5  Z" fill="#808080" fill-rule="evenodd" fill-opacity="0.6"/>
<polyline clip-path="url(#clip641)" style="stroke:#000000; stroke-linecap:round; stroke-linejoin:round; stroke-width:4; stroke-opacity:0.6; fill:none" points="358.489,1689.5 358.489,1734.12 512.02,1734.12 512.02,1689.5 358.489,1689.5 "/>
<path clip-path="url(#clip641)" d="M512.02 1622.57 L512.02 1734.12 L665.551 1734.12 L665.551 1622.57 L512.02 1622.57 L512.02 1622.57  Z" fill="#808080" fill-rule="evenodd" fill-opacity="0.6"/>
<polyline clip-path="url(#clip641)" style="stroke:#000000; stroke-linecap:round; stroke-linejoin:round; stroke-width:4; stroke-opacity:0.6; fill:none" points="512.02,1622.57 512.02,1734.12 665.551,1734.12 665.551,1622.57 512.02,1622.57 "/>
<path clip-path="url(#clip641)" d="M665.551 1087.13 L665.551 1734.12 L819.082 1734.12 L819.082 1087.13 L665.551 1087.13 L665.551 1087.13  Z" fill="#808080" fill-rule="evenodd" fill-opacity="0.6"/>
<polyline clip-path="url(#clip641)" style="stroke:#000000; stroke-linecap:round; stroke-linejoin:round; stroke-width:4; stroke-opacity:0.6; fill:none" points="665.551,1087.13 665.551,1734.12 819.082,1734.12 819.082,1087.13 665.551,1087.13 "/>
<path clip-path="url(#clip641)" d="M819.082 1042.5 L819.082 1734.12 L972.613 1734.12 L972.613 1042.5 L819.082 1042.5 L819.082 1042.5  Z" fill="#808080" fill-rule="evenodd" fill-opacity="0.6"/>
<polyline clip-path="url(#clip641)" style="stroke:#000000; stroke-linecap:round; stroke-linejoin:round; stroke-width:4; stroke-opacity:0.6; fill:none" points="819.082,1042.5 819.082,1734.12 972.613,1734.12 972.613,1042.5 819.082,1042.5 "/>
<path clip-path="url(#clip641)" d="M972.613 127.792 L972.613 1734.12 L1126.14 1734.12 L1126.14 127.792 L972.613 127.792 L972.613 127.792  Z" fill="#808080" fill-rule="evenodd" fill-opacity="0.6"/>
<polyline clip-path="url(#clip641)" style="stroke:#000000; stroke-linecap:round; stroke-linejoin:round; stroke-width:4; stroke-opacity:0.6; fill:none" points="972.613,127.792 972.613,1734.12 1126.14,1734.12 1126.14,127.792 972.613,127.792 "/>
<path clip-path="url(#clip641)" d="M1126.14 1176.37 L1126.14 1734.12 L1279.67 1734.12 L1279.67 1176.37 L1126.14 1176.37 L1126.14 1176.37  Z" fill="#808080" fill-rule="evenodd" fill-opacity="0.6"/>
<polyline clip-path="url(#clip641)" style="stroke:#000000; stroke-linecap:round; stroke-linejoin:round; stroke-width:4; stroke-opacity:0.6; fill:none" points="1126.14,1176.37 1126.14,1734.12 1279.67,1734.12 1279.67,1176.37 1126.14,1176.37 "/>
<path clip-path="url(#clip641)" d="M1279.67 1488.71 L1279.67 1734.12 L1433.21 1734.12 L1433.21 1488.71 L1279.67 1488.71 L1279.67 1488.71  Z" fill="#808080" fill-rule="evenodd" fill-opacity="0.6"/>
<polyline clip-path="url(#clip641)" style="stroke:#000000; stroke-linecap:round; stroke-linejoin:round; stroke-width:4; stroke-opacity:0.6; fill:none" points="1279.67,1488.71 1279.67,1734.12 1433.21,1734.12 1433.21,1488.71 1279.67,1488.71 "/>
<path clip-path="url(#clip641)" d="M1433.21 1600.26 L1433.21 1734.12 L1586.74 1734.12 L1586.74 1600.26 L1433.21 1600.26 L1433.21 1600.26  Z" fill="#808080" fill-rule="evenodd" fill-opacity="0.6"/>
<polyline clip-path="url(#clip641)" style="stroke:#000000; stroke-linecap:round; stroke-linejoin:round; stroke-width:4; stroke-opacity:0.6; fill:none" points="1433.21,1600.26 1433.21,1734.12 1586.74,1734.12 1586.74,1600.26 1433.21,1600.26 "/>
<path clip-path="url(#clip641)" d="M1586.74 1644.88 L1586.74 1734.12 L1740.27 1734.12 L1740.27 1644.88 L1586.74 1644.88 L1586.74 1644.88  Z" fill="#808080" fill-rule="evenodd" fill-opacity="0.6"/>
<polyline clip-path="url(#clip641)" style="stroke:#000000; stroke-linecap:round; stroke-linejoin:round; stroke-width:4; stroke-opacity:0.6; fill:none" points="1586.74,1644.88 1586.74,1734.12 1740.27,1734.12 1740.27,1644.88 1586.74,1644.88 "/>
<path clip-path="url(#clip641)" d="M1740.27 1711.81 L1740.27 1734.12 L1893.8 1734.12 L1893.8 1711.81 L1740.27 1711.81 L1740.27 1711.81  Z" fill="#808080" fill-rule="evenodd" fill-opacity="0.6"/>
<polyline clip-path="url(#clip641)" style="stroke:#000000; stroke-linecap:round; stroke-linejoin:round; stroke-width:4; stroke-opacity:0.6; fill:none" points="1740.27,1711.81 1740.27,1734.12 1893.8,1734.12 1893.8,1711.81 1740.27,1711.81 "/>
<path clip-path="url(#clip641)" d="M1893.8 1734.12 L1893.8 1734.12 L2047.33 1734.12 L2047.33 1734.12 L1893.8 1734.12 L1893.8 1734.12  Z" fill="#808080" fill-rule="evenodd" fill-opacity="0.6"/>
<polyline clip-path="url(#clip641)" style="stroke:#000000; stroke-linecap:round; stroke-linejoin:round; stroke-width:4; stroke-opacity:0.6; fill:none" points="1893.8,1734.12 1893.8,1734.12 2047.33,1734.12 1893.8,1734.12 "/>
<path clip-path="url(#clip641)" d="M2047.33 1711.81 L2047.33 1734.12 L2200.86 1734.12 L2200.86 1711.81 L2047.33 1711.81 L2047.33 1711.81  Z" fill="#808080" fill-rule="evenodd" fill-opacity="0.6"/>
<polyline clip-path="url(#clip641)" style="stroke:#000000; stroke-linecap:round; stroke-linejoin:round; stroke-width:4; stroke-opacity:0.6; fill:none" points="2047.33,1711.81 2047.33,1734.12 2200.86,1734.12 2200.86,1711.81 2047.33,1711.81 "/>
<path clip-path="url(#clip641)" d="M2200.86 1734.12 L2200.86 1734.12 L2354.39 1734.12 L2354.39 1734.12 L2200.86 1734.12 L2200.86 1734.12  Z" fill="#808080" fill-rule="evenodd" fill-opacity="0.6"/>
<polyline clip-path="url(#clip641)" style="stroke:#000000; stroke-linecap:round; stroke-linejoin:round; stroke-width:4; stroke-opacity:0.6; fill:none" points="2200.86,1734.12 2200.86,1734.12 2354.39,1734.12 2200.86,1734.12 "/>
<path clip-path="url(#clip641)" d="M2354.39 1711.81 L2354.39 1734.12 L2507.92 1734.12 L2507.92 1711.81 L2354.39 1711.81 L2354.39 1711.81  Z" fill="#808080" fill-rule="evenodd" fill-opacity="0.6"/>
<polyline clip-path="url(#clip641)" style="stroke:#000000; stroke-linecap:round; stroke-linejoin:round; stroke-width:4; stroke-opacity:0.6; fill:none" points="2354.39,1711.81 2354.39,1734.12 2507.92,1734.12 2507.92,1711.81 2354.39,1711.81 "/>
<circle clip-path="url(#clip641)" style="fill:#808080; stroke:none; fill-opacity:0" cx="435.255" cy="1689.5" r="2"/>
<circle clip-path="url(#clip641)" style="fill:#808080; stroke:none; fill-opacity:0" cx="588.786" cy="1622.57" r="2"/>
<circle clip-path="url(#clip641)" style="fill:#808080; stroke:none; fill-opacity:0" cx="742.316" cy="1087.13" r="2"/>
<circle clip-path="url(#clip641)" style="fill:#808080; stroke:none; fill-opacity:0" cx="895.847" cy="1042.5" r="2"/>
<circle clip-path="url(#clip641)" style="fill:#808080; stroke:none; fill-opacity:0" cx="1202.91" cy="1176.37" r="2"/>
<circle clip-path="url(#clip641)" style="fill:#808080; stroke:none; fill-opacity:0" cx="1356.44" cy="1488.71" r="2"/>
<circle clip-path="url(#clip641)" style="fill:#808080; stroke:none; fill-opacity:0" cx="1509.97" cy="1600.26" r="2"/>
<circle clip-path="url(#clip641)" style="fill:#808080; stroke:none; fill-opacity:0" cx="1663.5" cy="1644.88" r="2"/>
<circle clip-path="url(#clip641)" style="fill:#808080; stroke:none; fill-opacity:0" cx="1817.03" cy="1711.81" r="2"/>
<circle clip-path="url(#clip641)" style="fill:#808080; stroke:none; fill-opacity:0" cx="1970.56" cy="1734.12" r="2"/>
<circle clip-path="url(#clip641)" style="fill:#808080; stroke:none; fill-opacity:0" cx="2124.09" cy="1711.81" r="2"/>
<circle clip-path="url(#clip641)" style="fill:#808080; stroke:none; fill-opacity:0" cx="2277.62" cy="1734.12" r="2"/>
<circle clip-path="url(#clip641)" style="fill:#808080; stroke:none; fill-opacity:0" cx="2431.16" cy="1711.81" r="2"/>
<polyline clip-path="url(#clip641)" style="stroke:#4682b4; stroke-linecap:round; stroke-linejoin:round; stroke-width:8; stroke-opacity:1; fill:none" points="435.255,1514.01 588.786,1275.09 742.316,1135.8 895.847,1110.21 1049.38,1164.86 1202.91,1259.24 1356.44,1362.73 1509.97,1457.5 1663.5,1535.81 1817.03,1596.26 1970.56,1640.68 2124.09,1672.11 2277.62,1693.71 2431.16,1708.19 "/>
<path clip-path="url(#clip640)" d="M1373.89 336.856 L2560.25 336.856 L2560.25 181.336 L1373.89 181.336  Z" fill="#ffffff" fill-rule="evenodd" fill-opacity="1"/>
<polyline clip-path="url(#clip640)" style="stroke:#000000; stroke-linecap:round; stroke-linejoin:round; stroke-width:4; stroke-opacity:1; fill:none" points="1373.89,336.856 2560.25,336.856 2560.25,181.336 1373.89,181.336 1373.89,336.856 "/>
<path clip-path="url(#clip640)" d="M1400.72 253.912 L1561.73 253.912 L1561.73 212.44 L1400.72 212.44 L1400.72 253.912  Z" fill="#808080" fill-rule="evenodd" fill-opacity="0.6"/>
<polyline clip-path="url(#clip640)" style="stroke:#000000; stroke-linecap:round; stroke-linejoin:round; stroke-width:4; stroke-opacity:1; fill:none" points="1400.72,253.912 1561.73,253.912 1561.73,212.44 1400.72,212.44 1400.72,253.912 "/>
<path clip-path="url(#clip640)" d="M1604.58 219.068 Q1599.49 219.068 1596.48 222.864 Q1593.49 226.66 1593.49 233.211 Q1593.49 239.739 1596.48 243.535 Q1599.49 247.331 1604.58 247.331 Q1609.67 247.331 1612.64 243.535 Q1615.62 239.739 1615.62 233.211 Q1615.62 226.66 1612.64 222.864 Q1609.67 219.068 1604.58 219.068 M1604.58 215.271 Q1611.85 215.271 1616.2 220.156 Q1620.55 225.017 1620.55 233.211 Q1620.55 241.382 1616.2 246.266 Q1611.85 251.128 1604.58 251.128 Q1597.29 251.128 1592.91 246.266 Q1588.56 241.405 1588.56 233.211 Q1588.56 225.017 1592.91 220.156 Q1597.29 215.271 1604.58 215.271 Z" fill="#000000" fill-rule="nonzero" fill-opacity="1" /><path clip-path="url(#clip640)" d="M1646.29 237.517 Q1646.29 232.817 1644.35 230.155 Q1642.43 227.47 1639.05 227.47 Q1635.67 227.47 1633.72 230.155 Q1631.8 232.817 1631.8 237.517 Q1631.8 242.216 1633.72 244.901 Q1635.67 247.563 1639.05 247.563 Q1642.43 247.563 1644.35 244.901 Q1646.29 242.216 1646.29 237.517 M1631.8 228.466 Q1633.15 226.151 1635.18 225.04 Q1637.24 223.906 1640.09 223.906 Q1644.81 223.906 1647.75 227.655 Q1650.71 231.405 1650.71 237.517 Q1650.71 243.628 1647.75 247.378 Q1644.81 251.128 1640.09 251.128 Q1637.24 251.128 1635.18 250.016 Q1633.15 248.882 1631.8 246.567 L1631.8 250.456 L1627.52 250.456 L1627.52 214.438 L1631.8 214.438 L1631.8 228.466 Z" fill="#000000" fill-rule="nonzero" fill-opacity="1" /><path clip-path="url(#clip640)" d="M1674.3 225.294 L1674.3 229.322 Q1672.5 228.396 1670.55 227.933 Q1668.61 227.47 1666.52 227.47 Q1663.35 227.47 1661.76 228.443 Q1660.18 229.415 1660.18 231.359 Q1660.18 232.841 1661.32 233.697 Q1662.45 234.53 1665.88 235.294 L1667.33 235.618 Q1671.87 236.591 1673.77 238.373 Q1675.69 240.132 1675.69 243.304 Q1675.69 246.915 1672.82 249.021 Q1669.97 251.128 1664.97 251.128 Q1662.89 251.128 1660.62 250.711 Q1658.38 250.317 1655.88 249.507 L1655.88 245.109 Q1658.24 246.336 1660.53 246.961 Q1662.82 247.563 1665.07 247.563 Q1668.08 247.563 1669.7 246.544 Q1671.32 245.503 1671.32 243.628 Q1671.32 241.892 1670.14 240.966 Q1668.98 240.04 1665.02 239.183 L1663.54 238.836 Q1659.58 238.003 1657.82 236.29 Q1656.06 234.554 1656.06 231.544 Q1656.06 227.887 1658.65 225.896 Q1661.25 223.906 1666.02 223.906 Q1668.38 223.906 1670.46 224.253 Q1672.54 224.6 1674.3 225.294 Z" fill="#000000" fill-rule="nonzero" fill-opacity="1" /><path clip-path="url(#clip640)" d="M1704.65 236.429 L1704.65 238.512 L1685.07 238.512 Q1685.34 242.91 1687.71 245.225 Q1690.09 247.516 1694.33 247.516 Q1696.78 247.516 1699.07 246.915 Q1701.39 246.313 1703.65 245.109 L1703.65 249.137 Q1701.36 250.109 1698.95 250.618 Q1696.55 251.128 1694.07 251.128 Q1687.87 251.128 1684.23 247.516 Q1680.62 243.905 1680.62 237.748 Q1680.62 231.382 1684.05 227.655 Q1687.5 223.906 1693.33 223.906 Q1698.56 223.906 1701.59 227.285 Q1704.65 230.642 1704.65 236.429 M1700.39 235.179 Q1700.34 231.683 1698.42 229.6 Q1696.52 227.517 1693.38 227.517 Q1689.81 227.517 1687.66 229.53 Q1685.53 231.544 1685.21 235.202 L1700.39 235.179 Z" fill="#000000" fill-rule="nonzero" fill-opacity="1" /><path clip-path="url(#clip640)" d="M1726.66 228.512 Q1725.95 228.095 1725.09 227.91 Q1724.26 227.702 1723.24 227.702 Q1719.63 227.702 1717.68 230.063 Q1715.76 232.401 1715.76 236.799 L1715.76 250.456 L1711.48 250.456 L1711.48 224.531 L1715.76 224.531 L1715.76 228.558 Q1717.1 226.197 1719.26 225.063 Q1721.41 223.906 1724.49 223.906 Q1724.93 223.906 1725.46 223.975 Q1725.99 224.021 1726.64 224.137 L1726.66 228.512 Z" fill="#000000" fill-rule="nonzero" fill-opacity="1" /><path clip-path="url(#clip640)" d="M1728.08 224.531 L1732.59 224.531 L1740.69 246.29 L1748.79 224.531 L1753.31 224.531 L1743.58 250.456 L1737.8 250.456 L1728.08 224.531 Z" fill="#000000" fill-rule="nonzero" fill-opacity="1" /><path clip-path="url(#clip640)" d="M1781.36 236.429 L1781.36 238.512 L1761.78 238.512 Q1762.06 242.91 1764.42 245.225 Q1766.8 247.516 1771.04 247.516 Q1773.49 247.516 1775.78 246.915 Q1778.1 246.313 1780.37 245.109 L1780.37 249.137 Q1778.07 250.109 1775.67 250.618 Q1773.26 251.128 1770.78 251.128 Q1764.58 251.128 1760.95 247.516 Q1757.33 243.905 1757.33 237.748 Q1757.33 231.382 1760.76 227.655 Q1764.21 223.906 1770.04 223.906 Q1775.27 223.906 1778.31 227.285 Q1781.36 230.642 1781.36 236.429 M1777.1 235.179 Q1777.06 231.683 1775.14 229.6 Q1773.24 227.517 1770.09 227.517 Q1766.52 227.517 1764.37 229.53 Q1762.24 231.544 1761.92 235.202 L1777.1 235.179 Z" fill="#000000" fill-rule="nonzero" fill-opacity="1" /><path clip-path="url(#clip640)" d="M1805.41 228.466 L1805.41 214.438 L1809.67 214.438 L1809.67 250.456 L1805.41 250.456 L1805.41 246.567 Q1804.07 248.882 1802.01 250.016 Q1799.97 251.128 1797.1 251.128 Q1792.4 251.128 1789.44 247.378 Q1786.5 243.628 1786.5 237.517 Q1786.5 231.405 1789.44 227.655 Q1792.4 223.906 1797.1 223.906 Q1799.97 223.906 1802.01 225.04 Q1804.07 226.151 1805.41 228.466 M1790.9 237.517 Q1790.9 242.216 1792.82 244.901 Q1794.76 247.563 1798.14 247.563 Q1801.52 247.563 1803.47 244.901 Q1805.41 242.216 1805.41 237.517 Q1805.41 232.817 1803.47 230.155 Q1801.52 227.47 1798.14 227.47 Q1794.76 227.47 1792.82 230.155 Q1790.9 232.817 1790.9 237.517 Z" fill="#000000" fill-rule="nonzero" fill-opacity="1" /><path clip-path="url(#clip640)" d="M1843.75 214.484 Q1840.64 219.808 1839.14 225.017 Q1837.63 230.225 1837.63 235.572 Q1837.63 240.919 1839.14 246.174 Q1840.67 251.405 1843.75 256.706 L1840.04 256.706 Q1836.57 251.266 1834.83 246.012 Q1833.12 240.757 1833.12 235.572 Q1833.12 230.41 1834.83 225.179 Q1836.55 219.947 1840.04 214.484 L1843.75 214.484 Z" fill="#000000" fill-rule="nonzero" fill-opacity="1" /><path clip-path="url(#clip640)" d="M1863.79 237.424 Q1858.63 237.424 1856.64 238.604 Q1854.65 239.785 1854.65 242.632 Q1854.65 244.901 1856.13 246.243 Q1857.63 247.563 1860.2 247.563 Q1863.75 247.563 1865.88 245.063 Q1868.03 242.54 1868.03 238.373 L1868.03 237.424 L1863.79 237.424 M1872.29 235.665 L1872.29 250.456 L1868.03 250.456 L1868.03 246.521 Q1866.57 248.882 1864.39 250.016 Q1862.22 251.128 1859.07 251.128 Q1855.09 251.128 1852.73 248.905 Q1850.39 246.66 1850.39 242.91 Q1850.39 238.535 1853.31 236.313 Q1856.25 234.091 1862.06 234.091 L1868.03 234.091 L1868.03 233.674 Q1868.03 230.734 1866.08 229.137 Q1864.16 227.517 1860.67 227.517 Q1858.44 227.517 1856.34 228.049 Q1854.23 228.581 1852.29 229.646 L1852.29 225.711 Q1854.63 224.808 1856.82 224.368 Q1859.02 223.906 1861.11 223.906 Q1866.73 223.906 1869.51 226.822 Q1872.29 229.739 1872.29 235.665 Z" fill="#000000" fill-rule="nonzero" fill-opacity="1" /><path clip-path="url(#clip640)" d="M1881.06 214.438 L1885.32 214.438 L1885.32 250.456 L1881.06 250.456 L1881.06 214.438 Z" fill="#000000" fill-rule="nonzero" fill-opacity="1" /><path clip-path="url(#clip640)" d="M1894.23 214.438 L1898.49 214.438 L1898.49 250.456 L1894.23 250.456 L1894.23 214.438 Z" fill="#000000" fill-rule="nonzero" fill-opacity="1" /><path clip-path="url(#clip640)" d="M1939.53 237.192 Q1939.53 232.563 1937.61 230.017 Q1935.71 227.47 1932.26 227.47 Q1928.84 227.47 1926.92 230.017 Q1925.02 232.563 1925.02 237.192 Q1925.02 241.799 1926.92 244.345 Q1928.84 246.891 1932.26 246.891 Q1935.71 246.891 1937.61 244.345 Q1939.53 241.799 1939.53 237.192 M1943.79 247.239 Q1943.79 253.859 1940.85 257.077 Q1937.91 260.317 1931.85 260.317 Q1929.6 260.317 1927.61 259.97 Q1925.62 259.646 1923.75 258.952 L1923.75 254.808 Q1925.62 255.827 1927.45 256.313 Q1929.28 256.799 1931.18 256.799 Q1935.37 256.799 1937.45 254.6 Q1939.53 252.424 1939.53 248.003 L1939.53 245.896 Q1938.21 248.188 1936.15 249.322 Q1934.09 250.456 1931.22 250.456 Q1926.45 250.456 1923.54 246.822 Q1920.62 243.188 1920.62 237.192 Q1920.62 231.174 1923.54 227.54 Q1926.45 223.906 1931.22 223.906 Q1934.09 223.906 1936.15 225.04 Q1938.21 226.174 1939.53 228.466 L1939.53 224.531 L1943.79 224.531 L1943.79 247.239 Z" fill="#000000" fill-rule="nonzero" fill-opacity="1" /><path clip-path="url(#clip640)" d="M1967.59 228.512 Q1966.87 228.095 1966.01 227.91 Q1965.18 227.702 1964.16 227.702 Q1960.55 227.702 1958.61 230.063 Q1956.69 232.401 1956.69 236.799 L1956.69 250.456 L1952.4 250.456 L1952.4 224.531 L1956.69 224.531 L1956.69 228.558 Q1958.03 226.197 1960.18 225.063 Q1962.33 223.906 1965.41 223.906 Q1965.85 223.906 1966.38 223.975 Q1966.92 224.021 1967.56 224.137 L1967.59 228.512 Z" fill="#000000" fill-rule="nonzero" fill-opacity="1" /><path clip-path="url(#clip640)" d="M1981.06 227.517 Q1977.63 227.517 1975.64 230.202 Q1973.65 232.864 1973.65 237.517 Q1973.65 242.169 1975.62 244.854 Q1977.61 247.516 1981.06 247.516 Q1984.46 247.516 1986.45 244.831 Q1988.44 242.146 1988.44 237.517 Q1988.44 232.91 1986.45 230.225 Q1984.46 227.517 1981.06 227.517 M1981.06 223.906 Q1986.62 223.906 1989.79 227.517 Q1992.96 231.128 1992.96 237.517 Q1992.96 243.882 1989.79 247.516 Q1986.62 251.128 1981.06 251.128 Q1975.48 251.128 1972.31 247.516 Q1969.16 243.882 1969.16 237.517 Q1969.16 231.128 1972.31 227.517 Q1975.48 223.906 1981.06 223.906 Z" fill="#000000" fill-rule="nonzero" fill-opacity="1" /><path clip-path="url(#clip640)" d="M1999.58 240.225 L1999.58 224.531 L2003.84 224.531 L2003.84 240.063 Q2003.84 243.743 2005.27 245.595 Q2006.71 247.424 2009.58 247.424 Q2013.03 247.424 2015.02 245.225 Q2017.03 243.026 2017.03 239.229 L2017.03 224.531 L2021.29 224.531 L2021.29 250.456 L2017.03 250.456 L2017.03 246.475 Q2015.48 248.836 2013.42 249.993 Q2011.38 251.128 2008.68 251.128 Q2004.21 251.128 2001.89 248.35 Q1999.58 245.572 1999.58 240.225 M2010.3 223.906 L2010.3 223.906 Z" fill="#000000" fill-rule="nonzero" fill-opacity="1" /><path clip-path="url(#clip640)" d="M2034.18 246.567 L2034.18 260.317 L2029.9 260.317 L2029.9 224.531 L2034.18 224.531 L2034.18 228.466 Q2035.53 226.151 2037.56 225.04 Q2039.62 223.906 2042.47 223.906 Q2047.19 223.906 2050.13 227.655 Q2053.1 231.405 2053.1 237.517 Q2053.1 243.628 2050.13 247.378 Q2047.19 251.128 2042.47 251.128 Q2039.62 251.128 2037.56 250.016 Q2035.53 248.882 2034.18 246.567 M2048.68 237.517 Q2048.68 232.817 2046.73 230.155 Q2044.81 227.47 2041.43 227.47 Q2038.05 227.47 2036.11 230.155 Q2034.18 232.817 2034.18 237.517 Q2034.18 242.216 2036.11 244.901 Q2038.05 247.563 2041.43 247.563 Q2044.81 247.563 2046.73 244.901 Q2048.68 242.216 2048.68 237.517 Z" fill="#000000" fill-rule="nonzero" fill-opacity="1" /><path clip-path="url(#clip640)" d="M2076.68 225.294 L2076.68 229.322 Q2074.88 228.396 2072.93 227.933 Q2070.99 227.47 2068.91 227.47 Q2065.74 227.47 2064.14 228.443 Q2062.56 229.415 2062.56 231.359 Q2062.56 232.841 2063.7 233.697 Q2064.83 234.53 2068.26 235.294 L2069.72 235.618 Q2074.25 236.591 2076.15 238.373 Q2078.07 240.132 2078.07 243.304 Q2078.07 246.915 2075.2 249.021 Q2072.36 251.128 2067.36 251.128 Q2065.27 251.128 2063 250.711 Q2060.76 250.317 2058.26 249.507 L2058.26 245.109 Q2060.62 246.336 2062.91 246.961 Q2065.2 247.563 2067.45 247.563 Q2070.46 247.563 2072.08 246.544 Q2073.7 245.503 2073.7 243.628 Q2073.7 241.892 2072.52 240.966 Q2071.36 240.04 2067.4 239.183 L2065.92 238.836 Q2061.96 238.003 2060.2 236.29 Q2058.44 234.554 2058.44 231.544 Q2058.44 227.887 2061.04 225.896 Q2063.63 223.906 2068.4 223.906 Q2070.76 223.906 2072.84 224.253 Q2074.93 224.6 2076.68 225.294 Z" fill="#000000" fill-rule="nonzero" fill-opacity="1" /><path clip-path="url(#clip640)" d="M2084.18 214.484 L2087.89 214.484 Q2091.36 219.947 2093.07 225.179 Q2094.81 230.41 2094.81 235.572 Q2094.81 240.757 2093.07 246.012 Q2091.36 251.266 2087.89 256.706 L2084.18 256.706 Q2087.26 251.405 2088.77 246.174 Q2090.3 240.919 2090.3 235.572 Q2090.3 230.225 2088.77 225.017 Q2087.26 219.808 2084.18 214.484 Z" fill="#000000" fill-rule="nonzero" fill-opacity="1" /><polyline clip-path="url(#clip640)" style="stroke:#4682b4; stroke-linecap:round; stroke-linejoin:round; stroke-width:8; stroke-opacity:1; fill:none" points="1400.72,285.016 1561.73,285.016 "/>
<path clip-path="url(#clip640)" d="M1593.24 271.579 L1593.24 298.454 L1598.89 298.454 Q1606.04 298.454 1609.35 295.213 Q1612.68 291.972 1612.68 284.982 Q1612.68 278.037 1609.35 274.82 Q1606.04 271.579 1598.89 271.579 L1593.24 271.579 M1588.56 267.736 L1598.17 267.736 Q1608.21 267.736 1612.91 271.926 Q1617.61 276.093 1617.61 284.982 Q1617.61 293.917 1612.89 298.106 Q1608.17 302.296 1598.17 302.296 L1588.56 302.296 L1588.56 267.736 Z" fill="#000000" fill-rule="nonzero" fill-opacity="1" /><path clip-path="url(#clip640)" d="M1629.74 271.579 L1629.74 284.565 L1635.62 284.565 Q1638.89 284.565 1640.67 282.875 Q1642.45 281.185 1642.45 278.06 Q1642.45 274.958 1640.67 273.269 Q1638.89 271.579 1635.62 271.579 L1629.74 271.579 M1625.07 267.736 L1635.62 267.736 Q1641.43 267.736 1644.4 270.375 Q1647.38 272.991 1647.38 278.06 Q1647.38 283.176 1644.4 285.792 Q1641.43 288.407 1635.62 288.407 L1629.74 288.407 L1629.74 302.296 L1625.07 302.296 L1625.07 267.736 Z" fill="#000000" fill-rule="nonzero" fill-opacity="1" /><path clip-path="url(#clip640)" d="M1653.65 267.736 L1658.33 267.736 L1658.33 281.903 L1675.32 281.903 L1675.32 267.736 L1680 267.736 L1680 302.296 L1675.32 302.296 L1675.32 285.838 L1658.33 285.838 L1658.33 302.296 L1653.65 302.296 L1653.65 267.736 Z" fill="#000000" fill-rule="nonzero" fill-opacity="1" /><path clip-path="url(#clip640)" d="M1686.96 287.412 L1699.44 287.412 L1699.44 291.208 L1686.96 291.208 L1686.96 287.412 Z" fill="#000000" fill-rule="nonzero" fill-opacity="1" /><path clip-path="url(#clip640)" d="M1706.41 267.736 L1712.7 267.736 L1728.03 296.648 L1728.03 267.736 L1732.57 267.736 L1732.57 302.296 L1726.27 302.296 L1710.95 273.384 L1710.95 302.296 L1706.41 302.296 L1706.41 267.736 Z" fill="#000000" fill-rule="nonzero" fill-opacity="1" /><path clip-path="url(#clip640)" d="M1763.86 288.269 L1763.86 290.352 L1744.28 290.352 Q1744.56 294.75 1746.92 297.065 Q1749.3 299.356 1753.54 299.356 Q1755.99 299.356 1758.28 298.755 Q1760.6 298.153 1762.87 296.949 L1762.87 300.977 Q1760.57 301.949 1758.17 302.458 Q1755.76 302.968 1753.28 302.968 Q1747.08 302.968 1743.45 299.356 Q1739.83 295.745 1739.83 289.588 Q1739.83 283.222 1743.26 279.495 Q1746.71 275.746 1752.54 275.746 Q1757.77 275.746 1760.81 279.125 Q1763.86 282.482 1763.86 288.269 M1759.6 287.019 Q1759.56 283.523 1757.64 281.44 Q1755.74 279.357 1752.59 279.357 Q1749.02 279.357 1746.87 281.37 Q1744.74 283.384 1744.42 287.042 L1759.6 287.019 Z" fill="#000000" fill-rule="nonzero" fill-opacity="1" /><path clip-path="url(#clip640)" d="M1787.91 289.032 Q1787.91 284.403 1785.99 281.857 Q1784.09 279.31 1780.64 279.31 Q1777.22 279.31 1775.3 281.857 Q1773.4 284.403 1773.4 289.032 Q1773.4 293.639 1775.3 296.185 Q1777.22 298.731 1780.64 298.731 Q1784.09 298.731 1785.99 296.185 Q1787.91 293.639 1787.91 289.032 M1792.17 299.079 Q1792.17 305.699 1789.23 308.917 Q1786.29 312.157 1780.23 312.157 Q1777.98 312.157 1775.99 311.81 Q1774 311.486 1772.13 310.792 L1772.13 306.648 Q1774 307.667 1775.83 308.153 Q1777.66 308.639 1779.56 308.639 Q1783.75 308.639 1785.83 306.44 Q1787.91 304.264 1787.91 299.843 L1787.91 297.736 Q1786.59 300.028 1784.53 301.162 Q1782.47 302.296 1779.6 302.296 Q1774.83 302.296 1771.92 298.662 Q1769 295.028 1769 289.032 Q1769 283.014 1771.92 279.38 Q1774.83 275.746 1779.6 275.746 Q1782.47 275.746 1784.53 276.88 Q1786.59 278.014 1787.91 280.306 L1787.91 276.371 L1792.17 276.371 L1792.17 299.079 Z" fill="#000000" fill-rule="nonzero" fill-opacity="1" /><path clip-path="url(#clip640)" d="M1805.81 285.792 L1805.81 298.454 L1813.31 298.454 Q1817.08 298.454 1818.88 296.903 Q1820.71 295.329 1820.71 292.111 Q1820.71 288.87 1818.88 287.343 Q1817.08 285.792 1813.31 285.792 L1805.81 285.792 M1805.81 271.579 L1805.81 281.995 L1812.73 281.995 Q1816.15 281.995 1817.82 280.722 Q1819.51 279.426 1819.51 276.787 Q1819.51 274.171 1817.82 272.875 Q1816.15 271.579 1812.73 271.579 L1805.81 271.579 M1801.13 267.736 L1813.07 267.736 Q1818.42 267.736 1821.32 269.958 Q1824.21 272.181 1824.21 276.278 Q1824.21 279.449 1822.73 281.324 Q1821.25 283.199 1818.38 283.662 Q1821.82 284.403 1823.72 286.764 Q1825.64 289.102 1825.64 292.62 Q1825.64 297.25 1822.5 299.773 Q1819.35 302.296 1813.54 302.296 L1801.13 302.296 L1801.13 267.736 Z" fill="#000000" fill-rule="nonzero" fill-opacity="1" /><path clip-path="url(#clip640)" d="M1833.47 276.371 L1837.73 276.371 L1837.73 302.296 L1833.47 302.296 L1833.47 276.371 M1833.47 266.278 L1837.73 266.278 L1837.73 271.671 L1833.47 271.671 L1833.47 266.278 Z" fill="#000000" fill-rule="nonzero" fill-opacity="1" /><path clip-path="url(#clip640)" d="M1868.19 286.648 L1868.19 302.296 L1863.93 302.296 L1863.93 286.787 Q1863.93 283.107 1862.5 281.278 Q1861.06 279.449 1858.19 279.449 Q1854.74 279.449 1852.75 281.648 Q1850.76 283.847 1850.76 287.644 L1850.76 302.296 L1846.48 302.296 L1846.48 276.371 L1850.76 276.371 L1850.76 280.398 Q1852.29 278.06 1854.35 276.903 Q1856.43 275.746 1859.14 275.746 Q1863.61 275.746 1865.9 278.523 Q1868.19 281.278 1868.19 286.648 Z" fill="#000000" fill-rule="nonzero" fill-opacity="1" /><path clip-path="url(#clip640)" d="M1909.09 272.574 L1909.09 285.468 L1921.99 285.468 L1921.99 289.403 L1909.09 289.403 L1909.09 302.296 L1905.2 302.296 L1905.2 289.403 L1892.31 289.403 L1892.31 285.468 L1905.2 285.468 L1905.2 272.574 L1909.09 272.574 Z" fill="#000000" fill-rule="nonzero" fill-opacity="1" /><path clip-path="url(#clip640)" d="M1946.73 267.736 L1953.03 267.736 L1968.35 296.648 L1968.35 267.736 L1972.89 267.736 L1972.89 302.296 L1966.59 302.296 L1951.27 273.384 L1951.27 302.296 L1946.73 302.296 L1946.73 267.736 Z" fill="#000000" fill-rule="nonzero" fill-opacity="1" /><path clip-path="url(#clip640)" d="M1998.58 286.093 Q2000.09 286.602 2001.5 288.269 Q2002.93 289.935 2004.37 292.852 L2009.12 302.296 L2004.09 302.296 L1999.67 293.431 Q1997.96 289.958 1996.34 288.824 Q1994.74 287.69 1991.96 287.69 L1986.87 287.69 L1986.87 302.296 L1982.19 302.296 L1982.19 267.736 L1992.75 267.736 Q1998.68 267.736 2001.59 270.213 Q2004.51 272.69 2004.51 277.69 Q2004.51 280.954 2002.98 283.107 Q2001.48 285.259 1998.58 286.093 M1986.87 271.579 L1986.87 283.847 L1992.75 283.847 Q1996.13 283.847 1997.84 282.296 Q1999.58 280.722 1999.58 277.69 Q1999.58 274.658 1997.84 273.13 Q1996.13 271.579 1992.75 271.579 L1986.87 271.579 Z" fill="#000000" fill-rule="nonzero" fill-opacity="1" /><path clip-path="url(#clip640)" d="M2040.06 279.357 Q2036.64 279.357 2034.65 282.042 Q2032.66 284.704 2032.66 289.357 Q2032.66 294.009 2034.62 296.694 Q2036.62 299.356 2040.06 299.356 Q2043.47 299.356 2045.46 296.671 Q2047.45 293.986 2047.45 289.357 Q2047.45 284.75 2045.46 282.065 Q2043.47 279.357 2040.06 279.357 M2040.06 275.746 Q2045.62 275.746 2048.79 279.357 Q2051.96 282.968 2051.96 289.357 Q2051.96 295.722 2048.79 299.356 Q2045.62 302.968 2040.06 302.968 Q2034.49 302.968 2031.31 299.356 Q2028.17 295.722 2028.17 289.357 Q2028.17 282.968 2031.31 279.357 Q2034.49 275.746 2040.06 275.746 Z" fill="#000000" fill-rule="nonzero" fill-opacity="1" /><path clip-path="url(#clip640)" d="M2072.15 266.278 L2072.15 269.82 L2068.07 269.82 Q2065.78 269.82 2064.88 270.746 Q2064 271.671 2064 274.079 L2064 276.371 L2071.01 276.371 L2071.01 279.681 L2064 279.681 L2064 302.296 L2059.72 302.296 L2059.72 279.681 L2055.64 279.681 L2055.64 276.371 L2059.72 276.371 L2059.72 274.565 Q2059.72 270.236 2061.73 268.269 Q2063.74 266.278 2068.12 266.278 L2072.15 266.278 Z" fill="#000000" fill-rule="nonzero" fill-opacity="1" /><path clip-path="url(#clip640)" d="M2088.84 266.278 L2088.84 269.82 L2084.76 269.82 Q2082.47 269.82 2081.57 270.746 Q2080.69 271.671 2080.69 274.079 L2080.69 276.371 L2087.7 276.371 L2087.7 279.681 L2080.69 279.681 L2080.69 302.296 L2076.41 302.296 L2076.41 279.681 L2072.33 279.681 L2072.33 276.371 L2076.41 276.371 L2076.41 274.565 Q2076.41 270.236 2078.42 268.269 Q2080.43 266.278 2084.81 266.278 L2088.84 266.278 Z" fill="#000000" fill-rule="nonzero" fill-opacity="1" /><path clip-path="url(#clip640)" d="M2108.93 277.134 L2108.93 281.162 Q2107.12 280.236 2105.18 279.773 Q2103.24 279.31 2101.15 279.31 Q2097.98 279.31 2096.38 280.283 Q2094.81 281.255 2094.81 283.199 Q2094.81 284.681 2095.94 285.537 Q2097.08 286.37 2100.5 287.134 L2101.96 287.458 Q2106.5 288.431 2108.4 290.213 Q2110.32 291.972 2110.32 295.144 Q2110.32 298.755 2107.45 300.861 Q2104.6 302.968 2099.6 302.968 Q2097.52 302.968 2095.25 302.551 Q2093 302.157 2090.5 301.347 L2090.5 296.949 Q2092.86 298.176 2095.16 298.801 Q2097.45 299.403 2099.69 299.403 Q2102.7 299.403 2104.32 298.384 Q2105.94 297.343 2105.94 295.468 Q2105.94 293.732 2104.76 292.806 Q2103.61 291.88 2099.65 291.023 L2098.17 290.676 Q2094.21 289.843 2092.45 288.13 Q2090.69 286.394 2090.69 283.384 Q2090.69 279.727 2093.28 277.736 Q2095.87 275.746 2100.64 275.746 Q2103 275.746 2105.09 276.093 Q2107.17 276.44 2108.93 277.134 Z" fill="#000000" fill-rule="nonzero" fill-opacity="1" /><path clip-path="url(#clip640)" d="M2139.28 288.269 L2139.28 290.352 L2119.69 290.352 Q2119.97 294.75 2122.33 297.065 Q2124.72 299.356 2128.95 299.356 Q2131.41 299.356 2133.7 298.755 Q2136.01 298.153 2138.28 296.949 L2138.28 300.977 Q2135.99 301.949 2133.58 302.458 Q2131.17 302.968 2128.7 302.968 Q2122.49 302.968 2118.86 299.356 Q2115.25 295.745 2115.25 289.588 Q2115.25 283.222 2118.67 279.495 Q2122.12 275.746 2127.96 275.746 Q2133.19 275.746 2136.22 279.125 Q2139.28 282.482 2139.28 288.269 M2135.02 287.019 Q2134.97 283.523 2133.05 281.44 Q2131.15 279.357 2128 279.357 Q2124.44 279.357 2122.29 281.37 Q2120.16 283.384 2119.83 287.042 L2135.02 287.019 Z" fill="#000000" fill-rule="nonzero" fill-opacity="1" /><path clip-path="url(#clip640)" d="M2150.48 269.009 L2150.48 276.371 L2159.25 276.371 L2159.25 279.681 L2150.48 279.681 L2150.48 293.755 Q2150.48 296.926 2151.34 297.829 Q2152.22 298.731 2154.88 298.731 L2159.25 298.731 L2159.25 302.296 L2154.88 302.296 Q2149.95 302.296 2148.07 300.468 Q2146.2 298.616 2146.2 293.755 L2146.2 279.681 L2143.07 279.681 L2143.07 276.371 L2146.2 276.371 L2146.2 269.009 L2150.48 269.009 Z" fill="#000000" fill-rule="nonzero" fill-opacity="1" /><path clip-path="url(#clip640)" d="M2190.16 266.324 Q2187.05 271.648 2185.55 276.857 Q2184.04 282.065 2184.04 287.412 Q2184.04 292.759 2185.55 298.014 Q2187.08 303.245 2190.16 308.546 L2186.45 308.546 Q2182.98 303.106 2181.24 297.852 Q2179.53 292.597 2179.53 287.412 Q2179.53 282.25 2181.24 277.019 Q2182.96 271.787 2186.45 266.324 L2190.16 266.324 Z" fill="#000000" fill-rule="nonzero" fill-opacity="1" /><path clip-path="url(#clip640)" d="M2213.44 280.352 Q2212.73 279.935 2211.87 279.75 Q2211.04 279.542 2210.02 279.542 Q2206.41 279.542 2204.46 281.903 Q2202.54 284.241 2202.54 288.639 L2202.54 302.296 L2198.26 302.296 L2198.26 276.371 L2202.54 276.371 L2202.54 280.398 Q2203.88 278.037 2206.04 276.903 Q2208.19 275.746 2211.27 275.746 Q2211.71 275.746 2212.24 275.815 Q2212.77 275.861 2213.42 275.977 L2213.44 280.352 Z" fill="#000000" fill-rule="nonzero" fill-opacity="1" /><path clip-path="url(#clip640)" d="M2218.47 280.769 L2248.14 280.769 L2248.14 284.657 L2218.47 284.657 L2218.47 280.769 M2218.47 290.213 L2248.14 290.213 L2248.14 294.148 L2218.47 294.148 L2218.47 290.213 Z" fill="#000000" fill-rule="nonzero" fill-opacity="1" /><path clip-path="url(#clip640)" d="M2271.08 271.81 L2259.28 290.259 L2271.08 290.259 L2271.08 271.81 M2269.85 267.736 L2275.73 267.736 L2275.73 290.259 L2280.66 290.259 L2280.66 294.148 L2275.73 294.148 L2275.73 302.296 L2271.08 302.296 L2271.08 294.148 L2255.48 294.148 L2255.48 289.634 L2269.85 267.736 Z" fill="#000000" fill-rule="nonzero" fill-opacity="1" /><path clip-path="url(#clip640)" d="M2288.88 296.417 L2293.77 296.417 L2293.77 300.398 L2289.97 307.806 L2286.98 307.806 L2288.88 300.398 L2288.88 296.417 Z" fill="#000000" fill-rule="nonzero" fill-opacity="1" /><path clip-path="url(#clip640)" d="M2322.05 298.407 L2322.05 312.157 L2317.77 312.157 L2317.77 276.371 L2322.05 276.371 L2322.05 280.306 Q2323.4 277.991 2325.43 276.88 Q2327.49 275.746 2330.34 275.746 Q2335.06 275.746 2338 279.495 Q2340.97 283.245 2340.97 289.357 Q2340.97 295.468 2338 299.218 Q2335.06 302.968 2330.34 302.968 Q2327.49 302.968 2325.43 301.856 Q2323.4 300.722 2322.05 298.407 M2336.54 289.357 Q2336.54 284.657 2334.6 281.995 Q2332.68 279.31 2329.3 279.31 Q2325.92 279.31 2323.97 281.995 Q2322.05 284.657 2322.05 289.357 Q2322.05 294.056 2323.97 296.741 Q2325.92 299.403 2329.3 299.403 Q2332.68 299.403 2334.6 296.741 Q2336.54 294.056 2336.54 289.357 Z" fill="#000000" fill-rule="nonzero" fill-opacity="1" /><path clip-path="url(#clip640)" d="M2348.58 280.769 L2378.26 280.769 L2378.26 284.657 L2348.58 284.657 L2348.58 280.769 M2348.58 290.213 L2378.26 290.213 L2378.26 294.148 L2348.58 294.148 L2348.58 290.213 Z" fill="#000000" fill-rule="nonzero" fill-opacity="1" /><path clip-path="url(#clip640)" d="M2398.35 270.815 Q2394.74 270.815 2392.91 274.38 Q2391.1 277.921 2391.1 285.051 Q2391.1 292.157 2392.91 295.722 Q2394.74 299.264 2398.35 299.264 Q2401.98 299.264 2403.79 295.722 Q2405.62 292.157 2405.62 285.051 Q2405.62 277.921 2403.79 274.38 Q2401.98 270.815 2398.35 270.815 M2398.35 267.111 Q2404.16 267.111 2407.22 271.718 Q2410.29 276.301 2410.29 285.051 Q2410.29 293.778 2407.22 298.384 Q2404.16 302.968 2398.35 302.968 Q2392.54 302.968 2389.46 298.384 Q2386.4 293.778 2386.4 285.051 Q2386.4 276.301 2389.46 271.718 Q2392.54 267.111 2398.35 267.111 Z" fill="#000000" fill-rule="nonzero" fill-opacity="1" /><path clip-path="url(#clip640)" d="M2418.51 296.417 L2423.4 296.417 L2423.4 302.296 L2418.51 302.296 L2418.51 296.417 Z" fill="#000000" fill-rule="nonzero" fill-opacity="1" /><path clip-path="url(#clip640)" d="M2446.43 271.81 L2434.62 290.259 L2446.43 290.259 L2446.43 271.81 M2445.2 267.736 L2451.08 267.736 L2451.08 290.259 L2456.01 290.259 L2456.01 294.148 L2451.08 294.148 L2451.08 302.296 L2446.43 302.296 L2446.43 294.148 L2430.83 294.148 L2430.83 289.634 L2445.2 267.736 Z" fill="#000000" fill-rule="nonzero" fill-opacity="1" /><path clip-path="url(#clip640)" d="M2462.56 267.736 L2484.78 267.736 L2484.78 269.727 L2472.24 302.296 L2467.35 302.296 L2479.16 271.671 L2462.56 271.671 L2462.56 267.736 Z" fill="#000000" fill-rule="nonzero" fill-opacity="1" /><path clip-path="url(#clip640)" d="M2494.04 301.579 L2494.04 297.319 Q2495.8 298.153 2497.61 298.593 Q2499.41 299.032 2501.15 299.032 Q2505.78 299.032 2508.21 295.931 Q2510.66 292.806 2511.01 286.463 Q2509.67 288.454 2507.61 289.519 Q2505.55 290.583 2503.05 290.583 Q2497.86 290.583 2494.83 287.458 Q2491.82 284.31 2491.82 278.87 Q2491.82 273.546 2494.97 270.329 Q2498.12 267.111 2503.35 267.111 Q2509.34 267.111 2512.49 271.718 Q2515.66 276.301 2515.66 285.051 Q2515.66 293.222 2511.77 298.106 Q2507.91 302.968 2501.36 302.968 Q2499.6 302.968 2497.79 302.62 Q2495.99 302.273 2494.04 301.579 M2503.35 286.926 Q2506.5 286.926 2508.33 284.773 Q2510.18 282.62 2510.18 278.87 Q2510.18 275.144 2508.33 272.991 Q2506.5 270.815 2503.35 270.815 Q2500.2 270.815 2498.35 272.991 Q2496.52 275.144 2496.52 278.87 Q2496.52 282.62 2498.35 284.773 Q2500.2 286.926 2503.35 286.926 Z" fill="#000000" fill-rule="nonzero" fill-opacity="1" /><path clip-path="url(#clip640)" d="M2522.79 266.324 L2526.5 266.324 Q2529.97 271.787 2531.68 277.019 Q2533.42 282.25 2533.42 287.412 Q2533.42 292.597 2531.68 297.852 Q2529.97 303.106 2526.5 308.546 L2522.79 308.546 Q2525.87 303.245 2527.38 298.014 Q2528.9 292.759 2528.9 287.412 Q2528.9 282.065 2527.38 276.857 Q2525.87 271.648 2522.79 266.324 Z" fill="#000000" fill-rule="nonzero" fill-opacity="1" /></svg>
