<?xml version="1.0" encoding="utf-8"?>
<svg xmlns="http://www.w3.org/2000/svg" xmlns:xlink="http://www.w3.org/1999/xlink" width="672" height="480" viewBox="0 0 2688 1920">
<defs>
  <clipPath id="clip480">
    <rect x="0" y="0" width="2688" height="1920"/>
  </clipPath>
</defs>
<path clip-path="url(#clip480)" d="M0 1920 L2688 1920 L2688 -4.26326e-14 L0 -4.26326e-14  Z" fill="#ffffff" fill-rule="evenodd" fill-opacity="1"/>
<defs>
  <clipPath id="clip481">
    <rect x="537" y="0" width="1883" height="1883"/>
  </clipPath>
</defs>
<path clip-path="url(#clip480)" d="M255.816 1734.12 L2640.76 1734.12 L2640.76 127.792 L255.816 127.792  Z" fill="#ffffff" fill-rule="evenodd" fill-opacity="1"/>
<defs>
  <clipPath id="clip482">
    <rect x="255" y="127" width="2386" height="1607"/>
  </clipPath>
</defs>
<polyline clip-path="url(#clip482)" style="stroke:#000000; stroke-linecap:round; stroke-linejoin:round; stroke-width:2; stroke-opacity:0.1; fill:none" points="326.347,1734.12 326.347,127.792 "/>
<polyline clip-path="url(#clip482)" style="stroke:#000000; stroke-linecap:round; stroke-linejoin:round; stroke-width:2; stroke-opacity:0.1; fill:none" points="932.801,1734.12 932.801,127.792 "/>
<polyline clip-path="url(#clip482)" style="stroke:#000000; stroke-linecap:round; stroke-linejoin:round; stroke-width:2; stroke-opacity:0.1; fill:none" points="1539.25,1734.12 1539.25,127.792 "/>
<polyline clip-path="url(#clip482)" style="stroke:#000000; stroke-linecap:round; stroke-linejoin:round; stroke-width:2; stroke-opacity:0.1; fill:none" points="2145.71,1734.12 2145.71,127.792 "/>
<polyline clip-path="url(#clip482)" style="stroke:#000000; stroke-linecap:round; stroke-linejoin:round; stroke-width:2; stroke-opacity:0.1; fill:none" points="255.816,1734.12 2640.76,1734.12 "/>
<polyline clip-path="url(#clip482)" style="stroke:#000000; stroke-linecap:round; stroke-linejoin:round; stroke-width:2; stroke-opacity:0.1; fill:none" points="255.816,1295.83 2640.76,1295.83 "/>
<polyline clip-path="url(#clip482)" style="stroke:#000000; stroke-linecap:round; stroke-linejoin:round; stroke-width:2; stroke-opacity:0.1; fill:none" points="255.816,857.552 2640.76,857.552 "/>
<polyline clip-path="url(#clip482)" style="stroke:#000000; stroke-linecap:round; stroke-linejoin:round; stroke-width:2; stroke-opacity:0.1; fill:none" points="255.816,419.27 2640.76,419.27 "/>
<polyline clip-path="url(#clip480)" style="stroke:#000000; stroke-linecap:round; stroke-linejoin:round; stroke-width:4; stroke-opacity:1; fill:none" points="255.816,1734.12 2640.76,1734.12 "/>
<polyline clip-path="url(#clip480)" style="stroke:#000000; stroke-linecap:round; stroke-linejoin:round; stroke-width:4; stroke-opacity:1; fill:none" points="326.347,1734.12 326.347,1715.22 "/>
<polyline clip-path="url(#clip480)" style="stroke:#000000; stroke-linecap:round; stroke-linejoin:round; stroke-width:4; stroke-opacity:1; fill:none" points="932.801,1734.12 932.801,1715.22 "/>
<polyline clip-path="url(#clip480)" style="stroke:#000000; stroke-linecap:round; stroke-linejoin:round; stroke-width:4; stroke-opacity:1; fill:none" points="1539.25,1734.12 1539.25,1715.22 "/>
<polyline clip-path="url(#clip480)" style="stroke:#000000; stroke-linecap:round; stroke-linejoin:round; stroke-width:4; stroke-opacity:1; fill:none" points="2145.71,1734.12 2145.71,1715.22 "/>
<path clip-path="url(#clip480)" d="M326.347 1767.34 Q322.736 1767.34 320.907 1770.9 Q319.102 1774.45 319.102 1781.58 Q319.102 1788.68 320.907 1792.25 Q322.736 1795.79 326.347 1795.79 Q329.981 1795.79 331.787 1792.25 Q333.615 1788.68 333.615 1781.58 Q333.615 1774.45 331.787 1770.9 Q329.981 1767.34 326.347 1767.34 M326.347 1763.64 Q332.157 1763.64 335.213 1768.24 Q338.291 1772.83 338.291 1781.58 Q338.291 1790.3 335.213 1794.91 Q332.157 1799.49 326.347 1799.49 Q320.537 1799.49 317.458 1794.91 Q314.402 1790.3 314.402 1781.58 Q314.402 1772.83 317.458 1768.24 Q320.537 1763.64 326.347 1763.64 Z" fill="#000000" fill-rule="nonzero" fill-opacity="1" /><path clip-path="url(#clip480)" d="M907.488 1794.89 L915.127 1794.89 L915.127 1768.52 L906.817 1770.19 L906.817 1765.93 L915.081 1764.26 L919.757 1764.26 L919.757 1794.89 L927.395 1794.89 L927.395 1798.82 L907.488 1798.82 L907.488 1794.89 Z" fill="#000000" fill-rule="nonzero" fill-opacity="1" /><path clip-path="url(#clip480)" d="M946.84 1767.34 Q943.229 1767.34 941.4 1770.9 Q939.594 1774.45 939.594 1781.58 Q939.594 1788.68 941.4 1792.25 Q943.229 1795.79 946.84 1795.79 Q950.474 1795.79 952.28 1792.25 Q954.108 1788.68 954.108 1781.58 Q954.108 1774.45 952.28 1770.9 Q950.474 1767.34 946.84 1767.34 M946.84 1763.64 Q952.65 1763.64 955.705 1768.24 Q958.784 1772.83 958.784 1781.58 Q958.784 1790.3 955.705 1794.91 Q952.65 1799.49 946.84 1799.49 Q941.03 1799.49 937.951 1794.91 Q934.895 1790.3 934.895 1781.58 Q934.895 1772.83 937.951 1768.24 Q941.03 1763.64 946.84 1763.64 Z" fill="#000000" fill-rule="nonzero" fill-opacity="1" /><path clip-path="url(#clip480)" d="M1518.03 1794.89 L1534.35 1794.89 L1534.35 1798.82 L1512.4 1798.82 L1512.4 1794.89 Q1515.06 1792.13 1519.65 1787.5 Q1524.25 1782.85 1525.43 1781.51 Q1527.68 1778.98 1528.56 1777.25 Q1529.46 1775.49 1529.46 1773.8 Q1529.46 1771.04 1527.52 1769.31 Q1525.6 1767.57 1522.49 1767.57 Q1520.3 1767.57 1517.84 1768.34 Q1515.41 1769.1 1512.63 1770.65 L1512.63 1765.93 Q1515.46 1764.79 1517.91 1764.21 Q1520.37 1763.64 1522.4 1763.64 Q1527.77 1763.64 1530.97 1766.32 Q1534.16 1769.01 1534.16 1773.5 Q1534.16 1775.63 1533.35 1777.55 Q1532.56 1779.45 1530.46 1782.04 Q1529.88 1782.71 1526.78 1785.93 Q1523.68 1789.12 1518.03 1794.89 Z" fill="#000000" fill-rule="nonzero" fill-opacity="1" /><path clip-path="url(#clip480)" d="M1554.16 1767.34 Q1550.55 1767.34 1548.72 1770.9 Q1546.92 1774.45 1546.92 1781.58 Q1546.92 1788.68 1548.72 1792.25 Q1550.55 1795.79 1554.16 1795.79 Q1557.8 1795.79 1559.6 1792.25 Q1561.43 1788.68 1561.43 1781.58 Q1561.43 1774.45 1559.6 1770.9 Q1557.8 1767.34 1554.16 1767.34 M1554.16 1763.64 Q1559.97 1763.64 1563.03 1768.24 Q1566.11 1772.83 1566.11 1781.58 Q1566.11 1790.3 1563.03 1794.91 Q1559.97 1799.49 1554.16 1799.49 Q1548.35 1799.49 1545.27 1794.91 Q1542.22 1790.3 1542.22 1781.58 Q1542.22 1772.83 1545.27 1768.24 Q1548.35 1763.64 1554.16 1763.64 Z" fill="#000000" fill-rule="nonzero" fill-opacity="1" /><path clip-path="url(#clip480)" d="M2134.55 1780.19 Q2137.91 1780.9 2139.78 1783.17 Q2141.68 1785.44 2141.68 1788.77 Q2141.68 1793.89 2138.16 1796.69 Q2134.64 1799.49 2128.16 1799.49 Q2125.99 1799.49 2123.67 1799.05 Q2121.38 1798.64 2118.93 1797.78 L2118.93 1793.27 Q2120.87 1794.4 2123.18 1794.98 Q2125.5 1795.56 2128.02 1795.56 Q2132.42 1795.56 2134.71 1793.82 Q2137.03 1792.08 2137.03 1788.77 Q2137.03 1785.72 2134.87 1784.01 Q2132.74 1782.27 2128.93 1782.27 L2124.9 1782.27 L2124.9 1778.43 L2129.11 1778.43 Q2132.56 1778.43 2134.39 1777.06 Q2136.22 1775.67 2136.22 1773.08 Q2136.22 1770.42 2134.32 1769.01 Q2132.44 1767.57 2128.93 1767.57 Q2127 1767.57 2124.81 1767.99 Q2122.61 1768.4 2119.97 1769.28 L2119.97 1765.12 Q2122.63 1764.38 2124.94 1764.01 Q2127.28 1763.64 2129.34 1763.64 Q2134.67 1763.64 2137.77 1766.07 Q2140.87 1768.47 2140.87 1772.59 Q2140.87 1775.46 2139.23 1777.46 Q2137.58 1779.42 2134.55 1780.19 Z" fill="#000000" fill-rule="nonzero" fill-opacity="1" /><path clip-path="url(#clip480)" d="M2160.55 1767.34 Q2156.93 1767.34 2155.11 1770.9 Q2153.3 1774.45 2153.3 1781.58 Q2153.3 1788.68 2155.11 1792.25 Q2156.93 1795.79 2160.55 1795.79 Q2164.18 1795.79 2165.99 1792.25 Q2167.81 1788.68 2167.81 1781.58 Q2167.81 1774.45 2165.99 1770.9 Q2164.18 1767.34 2160.55 1767.34 M2160.55 1763.64 Q2166.36 1763.64 2169.41 1768.24 Q2172.49 1772.83 2172.49 1781.58 Q2172.49 1790.3 2169.41 1794.91 Q2166.36 1799.49 2160.55 1799.49 Q2154.74 1799.49 2151.66 1794.91 Q2148.6 1790.3 2148.6 1781.58 Q2148.6 1772.83 2151.66 1768.24 Q2154.74 1763.64 2160.55 1763.64 Z" fill="#000000" fill-rule="nonzero" fill-opacity="1" /><path clip-path="url(#clip480)" d="M1348.58 1842.02 Q1345.34 1839.79 1337.73 1839.79 Q1329.68 1839.79 1329.68 1843.52 Q1329.68 1846.44 1338.08 1847.97 Q1344.7 1849.15 1348.42 1852.71 Q1352.94 1857.01 1352.94 1865.83 Q1352.94 1874.26 1348.58 1879.23 Q1344.22 1884.22 1336.58 1884.22 Q1328.98 1884.22 1324.58 1879.23 Q1320.22 1874.26 1320.22 1865.51 Q1320.22 1859.02 1324.58 1853.76 Q1326.27 1851.73 1328.66 1850.58 Q1323.69 1848.07 1323.69 1843.58 Q1323.69 1834.92 1337.73 1834.92 Q1344.76 1834.92 1348.58 1837.15 L1348.58 1842.02 M1333.05 1852.17 Q1330.89 1853.1 1329.14 1855.42 Q1326.4 1859.02 1326.4 1865.51 Q1326.4 1871.97 1329.1 1875.6 Q1331.84 1879.26 1336.58 1879.26 Q1341.26 1879.26 1344 1875.57 Q1346.74 1871.87 1346.74 1865.83 Q1346.74 1859.49 1343.84 1856.44 Q1340.75 1853.16 1336.74 1852.81 Q1334.71 1852.62 1333.05 1852.17 Z" fill="#000000" fill-rule="nonzero" fill-opacity="1" /><path clip-path="url(#clip480)" d="M1397.44 1833.84 Q1393.18 1841.16 1391.11 1848.32 Q1389.04 1855.48 1389.04 1862.84 Q1389.04 1870.19 1391.11 1877.41 Q1393.21 1884.61 1397.44 1891.89 L1392.35 1891.89 Q1387.57 1884.41 1385.19 1877.19 Q1382.83 1869.96 1382.83 1862.84 Q1382.83 1855.74 1385.19 1848.54 Q1387.54 1841.35 1392.35 1833.84 L1397.44 1833.84 Z" fill="#000000" fill-rule="nonzero" fill-opacity="1" /><path clip-path="url(#clip480)" d="M1432.26 1853.06 L1432.26 1833.78 L1438.12 1833.78 L1438.12 1883.3 L1432.26 1883.3 L1432.26 1877.95 Q1430.41 1881.14 1427.58 1882.7 Q1424.78 1884.22 1420.83 1884.22 Q1414.37 1884.22 1410.3 1879.07 Q1406.26 1873.91 1406.26 1865.51 Q1406.26 1857.11 1410.3 1851.95 Q1414.37 1846.79 1420.83 1846.79 Q1424.78 1846.79 1427.58 1848.35 Q1430.41 1849.88 1432.26 1853.06 M1412.3 1865.51 Q1412.3 1871.97 1414.95 1875.66 Q1417.62 1879.32 1422.27 1879.32 Q1426.91 1879.32 1429.59 1875.66 Q1432.26 1871.97 1432.26 1865.51 Q1432.26 1859.05 1429.59 1855.39 Q1426.91 1851.7 1422.27 1851.7 Q1417.62 1851.7 1414.95 1855.39 Q1412.3 1859.05 1412.3 1865.51 Z" fill="#000000" fill-rule="nonzero" fill-opacity="1" /><path clip-path="url(#clip480)" d="M1466.38 1865.38 Q1459.28 1865.38 1456.55 1867 Q1453.81 1868.63 1453.81 1872.54 Q1453.81 1875.66 1455.85 1877.51 Q1457.91 1879.32 1461.45 1879.32 Q1466.32 1879.32 1469.25 1875.88 Q1472.21 1872.42 1472.21 1866.69 L1472.21 1865.38 L1466.38 1865.38 M1478.06 1862.96 L1478.06 1883.3 L1472.21 1883.3 L1472.21 1877.89 Q1470.2 1881.14 1467.21 1882.7 Q1464.22 1884.22 1459.89 1884.22 Q1454.41 1884.22 1451.17 1881.17 Q1447.95 1878.08 1447.95 1872.92 Q1447.95 1866.91 1451.96 1863.85 Q1456 1860.8 1463.99 1860.8 L1472.21 1860.8 L1472.21 1860.23 Q1472.21 1856.18 1469.53 1853.99 Q1466.89 1851.76 1462.08 1851.76 Q1459.03 1851.76 1456.13 1852.49 Q1453.24 1853.22 1450.56 1854.69 L1450.56 1849.28 Q1453.78 1848.03 1456.8 1847.43 Q1459.82 1846.79 1462.69 1846.79 Q1470.42 1846.79 1474.24 1850.8 Q1478.06 1854.81 1478.06 1862.96 Z" fill="#000000" fill-rule="nonzero" fill-opacity="1" /><path clip-path="url(#clip480)" d="M1504.96 1886.61 Q1502.47 1892.98 1500.12 1894.92 Q1497.76 1896.86 1493.82 1896.86 L1489.14 1896.86 L1489.14 1891.96 L1492.58 1891.96 Q1494.99 1891.96 1496.33 1890.81 Q1497.67 1889.67 1499.29 1885.4 L1500.34 1882.73 L1485.92 1847.65 L1492.13 1847.65 L1503.27 1875.53 L1514.41 1847.65 L1520.62 1847.65 L1504.96 1886.61 Z" fill="#000000" fill-rule="nonzero" fill-opacity="1" /><path clip-path="url(#clip480)" d="M1551.43 1848.7 L1551.43 1854.24 Q1548.94 1852.97 1546.27 1852.33 Q1543.6 1851.7 1540.73 1851.7 Q1536.37 1851.7 1534.18 1853.03 Q1532.01 1854.37 1532.01 1857.04 Q1532.01 1859.08 1533.57 1860.26 Q1535.13 1861.4 1539.84 1862.45 L1541.85 1862.9 Q1548.08 1864.24 1550.69 1866.69 Q1553.34 1869.11 1553.34 1873.47 Q1553.34 1878.43 1549.39 1881.33 Q1545.47 1884.22 1538.6 1884.22 Q1535.74 1884.22 1532.62 1883.65 Q1529.53 1883.11 1526.09 1882 L1526.09 1875.95 Q1529.34 1877.64 1532.49 1878.49 Q1535.64 1879.32 1538.73 1879.32 Q1542.86 1879.32 1545.09 1877.92 Q1547.32 1876.49 1547.32 1873.91 Q1547.32 1871.52 1545.7 1870.25 Q1544.11 1868.98 1538.66 1867.8 L1536.63 1867.32 Q1531.18 1866.18 1528.76 1863.82 Q1526.35 1861.43 1526.35 1857.3 Q1526.35 1852.27 1529.91 1849.53 Q1533.48 1846.79 1540.03 1846.79 Q1543.28 1846.79 1546.14 1847.27 Q1549.01 1847.75 1551.43 1848.7 Z" fill="#000000" fill-rule="nonzero" fill-opacity="1" /><path clip-path="url(#clip480)" d="M1561.74 1833.84 L1566.83 1833.84 Q1571.61 1841.35 1573.96 1848.54 Q1576.35 1855.74 1576.35 1862.84 Q1576.35 1869.96 1573.96 1877.19 Q1571.61 1884.41 1566.83 1891.89 L1561.74 1891.89 Q1565.97 1884.61 1568.04 1877.41 Q1570.14 1870.19 1570.14 1862.84 Q1570.14 1855.48 1568.04 1848.32 Q1565.97 1841.16 1561.74 1833.84 Z" fill="#000000" fill-rule="nonzero" fill-opacity="1" /><polyline clip-path="url(#clip480)" style="stroke:#000000; stroke-linecap:round; stroke-linejoin:round; stroke-width:4; stroke-opacity:1; fill:none" points="255.816,1734.12 255.816,127.792 "/>
<polyline clip-path="url(#clip480)" style="stroke:#000000; stroke-linecap:round; stroke-linejoin:round; stroke-width:4; stroke-opacity:1; fill:none" points="255.816,1734.12 274.714,1734.12 "/>
<polyline clip-path="url(#clip480)" style="stroke:#000000; stroke-linecap:round; stroke-linejoin:round; stroke-width:4; stroke-opacity:1; fill:none" points="255.816,1295.83 274.714,1295.83 "/>
<polyline clip-path="url(#clip480)" style="stroke:#000000; stroke-linecap:round; stroke-linejoin:round; stroke-width:4; stroke-opacity:1; fill:none" points="255.816,857.552 274.714,857.552 "/>
<polyline clip-path="url(#clip480)" style="stroke:#000000; stroke-linecap:round; stroke-linejoin:round; stroke-width:4; stroke-opacity:1; fill:none" points="255.816,419.27 274.714,419.27 "/>
<path clip-path="url(#clip480)" d="M128.159 1719.92 Q124.548 1719.92 122.719 1723.48 Q120.913 1727.02 120.913 1734.15 Q120.913 1741.26 122.719 1744.82 Q124.548 1748.36 128.159 1748.36 Q131.793 1748.36 133.599 1744.82 Q135.427 1741.26 135.427 1734.15 Q135.427 1727.02 133.599 1723.48 Q131.793 1719.92 128.159 1719.92 M128.159 1716.21 Q133.969 1716.21 137.025 1720.82 Q140.103 1725.4 140.103 1734.15 Q140.103 1742.88 137.025 1747.48 Q133.969 1752.07 128.159 1752.07 Q122.349 1752.07 119.27 1747.48 Q116.214 1742.88 116.214 1734.15 Q116.214 1725.4 119.27 1720.82 Q122.349 1716.21 128.159 1716.21 Z" fill="#000000" fill-rule="nonzero" fill-opacity="1" /><path clip-path="url(#clip480)" d="M148.321 1745.52 L153.205 1745.52 L153.205 1751.4 L148.321 1751.4 L148.321 1745.52 Z" fill="#000000" fill-rule="nonzero" fill-opacity="1" /><path clip-path="url(#clip480)" d="M173.39 1719.92 Q169.779 1719.92 167.95 1723.48 Q166.145 1727.02 166.145 1734.15 Q166.145 1741.26 167.95 1744.82 Q169.779 1748.36 173.39 1748.36 Q177.024 1748.36 178.83 1744.82 Q180.659 1741.26 180.659 1734.15 Q180.659 1727.02 178.83 1723.48 Q177.024 1719.92 173.39 1719.92 M173.39 1716.21 Q179.2 1716.21 182.256 1720.82 Q185.334 1725.4 185.334 1734.15 Q185.334 1742.88 182.256 1747.48 Q179.2 1752.07 173.39 1752.07 Q167.58 1752.07 164.501 1747.48 Q161.446 1742.88 161.446 1734.15 Q161.446 1725.4 164.501 1720.82 Q167.58 1716.21 173.39 1716.21 Z" fill="#000000" fill-rule="nonzero" fill-opacity="1" /><path clip-path="url(#clip480)" d="M203.552 1719.92 Q199.941 1719.92 198.112 1723.48 Q196.307 1727.02 196.307 1734.15 Q196.307 1741.26 198.112 1744.82 Q199.941 1748.36 203.552 1748.36 Q207.186 1748.36 208.992 1744.82 Q210.82 1741.26 210.82 1734.15 Q210.82 1727.02 208.992 1723.48 Q207.186 1719.92 203.552 1719.92 M203.552 1716.21 Q209.362 1716.21 212.418 1720.82 Q215.496 1725.4 215.496 1734.15 Q215.496 1742.88 212.418 1747.48 Q209.362 1752.07 203.552 1752.07 Q197.742 1752.07 194.663 1747.48 Q191.608 1742.88 191.608 1734.15 Q191.608 1725.4 194.663 1720.82 Q197.742 1716.21 203.552 1716.21 Z" fill="#000000" fill-rule="nonzero" fill-opacity="1" /><path clip-path="url(#clip480)" d="M129.154 1281.63 Q125.543 1281.63 123.714 1285.2 Q121.909 1288.74 121.909 1295.87 Q121.909 1302.98 123.714 1306.54 Q125.543 1310.08 129.154 1310.08 Q132.788 1310.08 134.594 1306.54 Q136.423 1302.98 136.423 1295.87 Q136.423 1288.74 134.594 1285.2 Q132.788 1281.63 129.154 1281.63 M129.154 1277.93 Q134.964 1277.93 138.02 1282.54 Q141.099 1287.12 141.099 1295.87 Q141.099 1304.6 138.02 1309.2 Q134.964 1313.79 129.154 1313.79 Q123.344 1313.79 120.265 1309.2 Q117.21 1304.6 117.21 1295.87 Q117.21 1287.12 120.265 1282.54 Q123.344 1277.93 129.154 1277.93 Z" fill="#000000" fill-rule="nonzero" fill-opacity="1" /><path clip-path="url(#clip480)" d="M149.316 1307.24 L154.2 1307.24 L154.2 1313.11 L149.316 1313.11 L149.316 1307.24 Z" fill="#000000" fill-rule="nonzero" fill-opacity="1" /><path clip-path="url(#clip480)" d="M174.385 1281.63 Q170.774 1281.63 168.946 1285.2 Q167.14 1288.74 167.14 1295.87 Q167.14 1302.98 168.946 1306.54 Q170.774 1310.08 174.385 1310.08 Q178.02 1310.08 179.825 1306.54 Q181.654 1302.98 181.654 1295.87 Q181.654 1288.74 179.825 1285.2 Q178.02 1281.63 174.385 1281.63 M174.385 1277.93 Q180.196 1277.93 183.251 1282.54 Q186.33 1287.12 186.33 1295.87 Q186.33 1304.6 183.251 1309.2 Q180.196 1313.79 174.385 1313.79 Q168.575 1313.79 165.497 1309.2 Q162.441 1304.6 162.441 1295.87 Q162.441 1287.12 165.497 1282.54 Q168.575 1277.93 174.385 1277.93 Z" fill="#000000" fill-rule="nonzero" fill-opacity="1" /><path clip-path="url(#clip480)" d="M194.594 1278.55 L212.95 1278.55 L212.95 1282.49 L198.876 1282.49 L198.876 1290.96 Q199.895 1290.61 200.913 1290.45 Q201.932 1290.27 202.95 1290.27 Q208.737 1290.27 212.117 1293.44 Q215.496 1296.61 215.496 1302.03 Q215.496 1307.61 212.024 1310.71 Q208.552 1313.79 202.233 1313.79 Q200.057 1313.79 197.788 1313.42 Q195.543 1313.05 193.135 1312.3 L193.135 1307.61 Q195.219 1308.74 197.441 1309.3 Q199.663 1309.85 202.14 1309.85 Q206.145 1309.85 208.482 1307.74 Q210.82 1305.64 210.82 1302.03 Q210.82 1298.42 208.482 1296.31 Q206.145 1294.2 202.14 1294.2 Q200.265 1294.2 198.39 1294.62 Q196.538 1295.04 194.594 1295.92 L194.594 1278.55 Z" fill="#000000" fill-rule="nonzero" fill-opacity="1" /><path clip-path="url(#clip480)" d="M128.159 843.351 Q124.548 843.351 122.719 846.916 Q120.913 850.458 120.913 857.587 Q120.913 864.694 122.719 868.258 Q124.548 871.8 128.159 871.8 Q131.793 871.8 133.599 868.258 Q135.427 864.694 135.427 857.587 Q135.427 850.458 133.599 846.916 Q131.793 843.351 128.159 843.351 M128.159 839.647 Q133.969 839.647 137.025 844.254 Q140.103 848.837 140.103 857.587 Q140.103 866.314 137.025 870.92 Q133.969 875.504 128.159 875.504 Q122.349 875.504 119.27 870.92 Q116.214 866.314 116.214 857.587 Q116.214 848.837 119.27 844.254 Q122.349 839.647 128.159 839.647 Z" fill="#000000" fill-rule="nonzero" fill-opacity="1" /><path clip-path="url(#clip480)" d="M148.321 868.953 L153.205 868.953 L153.205 874.832 L148.321 874.832 L148.321 868.953 Z" fill="#000000" fill-rule="nonzero" fill-opacity="1" /><path clip-path="url(#clip480)" d="M164.2 870.897 L171.839 870.897 L171.839 844.532 L163.529 846.198 L163.529 841.939 L171.793 840.272 L176.469 840.272 L176.469 870.897 L184.108 870.897 L184.108 874.832 L164.2 874.832 L164.2 870.897 Z" fill="#000000" fill-rule="nonzero" fill-opacity="1" /><path clip-path="url(#clip480)" d="M203.552 843.351 Q199.941 843.351 198.112 846.916 Q196.307 850.458 196.307 857.587 Q196.307 864.694 198.112 868.258 Q199.941 871.8 203.552 871.8 Q207.186 871.8 208.992 868.258 Q210.82 864.694 210.82 857.587 Q210.82 850.458 208.992 846.916 Q207.186 843.351 203.552 843.351 M203.552 839.647 Q209.362 839.647 212.418 844.254 Q215.496 848.837 215.496 857.587 Q215.496 866.314 212.418 870.92 Q209.362 875.504 203.552 875.504 Q197.742 875.504 194.663 870.92 Q191.608 866.314 191.608 857.587 Q191.608 848.837 194.663 844.254 Q197.742 839.647 203.552 839.647 Z" fill="#000000" fill-rule="nonzero" fill-opacity="1" /><path clip-path="url(#clip480)" d="M129.154 405.069 Q125.543 405.069 123.714 408.634 Q121.909 412.175 121.909 419.305 Q121.909 426.411 123.714 429.976 Q125.543 433.518 129.154 433.518 Q132.788 433.518 134.594 429.976 Q136.423 426.411 136.423 419.305 Q136.423 412.175 134.594 408.634 Q132.788 405.069 129.154 405.069 M129.154 401.365 Q134.964 401.365 138.02 405.972 Q141.099 410.555 141.099 419.305 Q141.099 428.032 138.02 432.638 Q134.964 437.221 129.154 437.221 Q123.344 437.221 120.265 432.638 Q117.21 428.032 117.21 419.305 Q117.21 410.555 120.265 405.972 Q123.344 401.365 129.154 401.365 Z" fill="#000000" fill-rule="nonzero" fill-opacity="1" /><path clip-path="url(#clip480)" d="M149.316 430.671 L154.2 430.671 L154.2 436.55 L149.316 436.55 L149.316 430.671 Z" fill="#000000" fill-rule="nonzero" fill-opacity="1" /><path clip-path="url(#clip480)" d="M165.196 432.615 L172.835 432.615 L172.835 406.249 L164.524 407.916 L164.524 403.657 L172.788 401.99 L177.464 401.99 L177.464 432.615 L185.103 432.615 L185.103 436.55 L165.196 436.55 L165.196 432.615 Z" fill="#000000" fill-rule="nonzero" fill-opacity="1" /><path clip-path="url(#clip480)" d="M194.594 401.99 L212.95 401.99 L212.95 405.925 L198.876 405.925 L198.876 414.398 Q199.895 414.05 200.913 413.888 Q201.932 413.703 202.95 413.703 Q208.737 413.703 212.117 416.874 Q215.496 420.046 215.496 425.462 Q215.496 431.041 212.024 434.143 Q208.552 437.221 202.233 437.221 Q200.057 437.221 197.788 436.851 Q195.543 436.481 193.135 435.74 L193.135 431.041 Q195.219 432.175 197.441 432.731 Q199.663 433.286 202.14 433.286 Q206.145 433.286 208.482 431.18 Q210.82 429.073 210.82 425.462 Q210.82 421.851 208.482 419.745 Q206.145 417.638 202.14 417.638 Q200.265 417.638 198.39 418.055 Q196.538 418.472 194.594 419.351 L194.594 401.99 Z" fill="#000000" fill-rule="nonzero" fill-opacity="1" /><path clip-path="url(#clip480)" d="M19.402 1092.64 L37.2578 1092.64 L37.2578 1084.56 Q37.2578 1080.07 34.9343 1077.62 Q32.6108 1075.17 28.314 1075.17 Q24.0489 1075.17 21.7255 1077.62 Q19.402 1080.07 19.402 1084.56 L19.402 1092.64 M14.1184 1099.07 L14.1184 1084.56 Q14.1184 1076.57 17.7469 1072.5 Q21.3435 1068.39 28.314 1068.39 Q35.3481 1068.39 38.9447 1072.5 Q42.5413 1076.57 42.5413 1084.56 L42.5413 1092.64 L61.6384 1092.64 L61.6384 1099.07 L14.1184 1099.07 Z" fill="#000000" fill-rule="nonzero" fill-opacity="1" /><path clip-path="url(#clip480)" d="M31.465 1040.51 Q30.8921 1041.5 30.6375 1042.67 Q30.351 1043.82 30.351 1045.22 Q30.351 1050.18 33.5975 1052.86 Q36.8122 1055.5 42.8596 1055.5 L61.6384 1055.5 L61.6384 1061.39 L25.9905 1061.39 L25.9905 1055.5 L31.5287 1055.5 Q28.2821 1053.65 26.7225 1050.69 Q25.1311 1047.73 25.1311 1043.5 Q25.1311 1042.9 25.2266 1042.16 Q25.2903 1041.43 25.4494 1040.54 L31.465 1040.51 Z" fill="#000000" fill-rule="nonzero" fill-opacity="1" /><path clip-path="url(#clip480)" d="M30.0964 1021.98 Q30.0964 1026.69 33.7885 1029.43 Q37.4488 1032.17 43.8463 1032.17 Q50.2438 1032.17 53.9359 1029.46 Q57.5962 1026.73 57.5962 1021.98 Q57.5962 1017.31 53.9041 1014.57 Q50.212 1011.83 43.8463 1011.83 Q37.5124 1011.83 33.8203 1014.57 Q30.0964 1017.31 30.0964 1021.98 M25.1311 1021.98 Q25.1311 1014.35 30.0964 1009.98 Q35.0616 1005.62 43.8463 1005.62 Q52.5991 1005.62 57.5962 1009.98 Q62.5615 1014.35 62.5615 1021.98 Q62.5615 1029.65 57.5962 1034.02 Q52.5991 1038.34 43.8463 1038.34 Q35.0616 1038.34 30.0964 1034.02 Q25.1311 1029.65 25.1311 1021.98 Z" fill="#000000" fill-rule="nonzero" fill-opacity="1" /><path clip-path="url(#clip480)" d="M43.8463 970.326 Q37.3851 970.326 33.7248 973 Q30.0327 975.642 30.0327 980.289 Q30.0327 984.936 33.7248 987.609 Q37.3851 990.251 43.8463 990.251 Q50.3075 990.251 53.9996 987.609 Q57.6599 984.936 57.6599 980.289 Q57.6599 975.642 53.9996 973 Q50.3075 970.326 43.8463 970.326 M31.4013 990.251 Q28.2185 988.405 26.6907 985.604 Q25.1311 982.771 25.1311 978.856 Q25.1311 972.363 30.2873 968.321 Q35.4436 964.247 43.8463 964.247 Q52.249 964.247 57.4052 968.321 Q62.5615 972.363 62.5615 978.856 Q62.5615 982.771 61.0337 985.604 Q59.4741 988.405 56.2912 990.251 L61.6384 990.251 L61.6384 996.139 L12.1132 996.139 L12.1132 990.251 L31.4013 990.251 Z" fill="#000000" fill-rule="nonzero" fill-opacity="1" /><path clip-path="url(#clip480)" d="M43.719 938.339 Q43.719 945.437 45.3422 948.174 Q46.9655 950.911 50.8804 950.911 Q53.9996 950.911 55.8457 948.874 Q57.6599 946.805 57.6599 943.272 Q57.6599 938.402 54.2224 935.474 Q50.7531 932.514 45.0239 932.514 L43.719 932.514 L43.719 938.339 M41.3 926.658 L61.6384 926.658 L61.6384 932.514 L56.2276 932.514 Q59.4741 934.519 61.0337 937.511 Q62.5615 940.503 62.5615 944.832 Q62.5615 950.306 59.5059 953.553 Q56.4186 956.767 51.2623 956.767 Q45.2467 956.767 42.1912 952.757 Q39.1357 948.715 39.1357 940.726 L39.1357 932.514 L38.5628 932.514 Q34.5205 932.514 32.3244 935.188 Q30.0964 937.83 30.0964 942.636 Q30.0964 945.691 30.8284 948.588 Q31.5605 951.484 33.0246 954.158 L27.6137 954.158 Q26.3724 950.943 25.7677 947.919 Q25.1311 944.895 25.1311 942.031 Q25.1311 934.297 29.1415 930.477 Q33.1519 926.658 41.3 926.658 Z" fill="#000000" fill-rule="nonzero" fill-opacity="1" /><path clip-path="url(#clip480)" d="M43.8463 889.005 Q37.3851 889.005 33.7248 891.678 Q30.0327 894.32 30.0327 898.967 Q30.0327 903.614 33.7248 906.287 Q37.3851 908.929 43.8463 908.929 Q50.3075 908.929 53.9996 906.287 Q57.6599 903.614 57.6599 898.967 Q57.6599 894.32 53.9996 891.678 Q50.3075 889.005 43.8463 889.005 M31.4013 908.929 Q28.2185 907.083 26.6907 904.282 Q25.1311 901.45 25.1311 897.535 Q25.1311 891.042 30.2873 886.999 Q35.4436 882.925 43.8463 882.925 Q52.249 882.925 57.4052 886.999 Q62.5615 891.042 62.5615 897.535 Q62.5615 901.45 61.0337 904.282 Q59.4741 907.083 56.2912 908.929 L61.6384 908.929 L61.6384 914.817 L12.1132 914.817 L12.1132 908.929 L31.4013 908.929 Z" fill="#000000" fill-rule="nonzero" fill-opacity="1" /><path clip-path="url(#clip480)" d="M25.9905 873.218 L25.9905 867.361 L61.6384 867.361 L61.6384 873.218 L25.9905 873.218 M12.1132 873.218 L12.1132 867.361 L19.5293 867.361 L19.5293 873.218 L12.1132 873.218 Z" fill="#000000" fill-rule="nonzero" fill-opacity="1" /><path clip-path="url(#clip480)" d="M12.1132 855.107 L12.1132 849.251 L61.6384 849.251 L61.6384 855.107 L12.1132 855.107 Z" fill="#000000" fill-rule="nonzero" fill-opacity="1" /><path clip-path="url(#clip480)" d="M25.9905 836.997 L25.9905 831.14 L61.6384 831.14 L61.6384 836.997 L25.9905 836.997 M12.1132 836.997 L12.1132 831.14 L19.5293 831.14 L19.5293 836.997 L12.1132 836.997 Z" fill="#000000" fill-rule="nonzero" fill-opacity="1" /><path clip-path="url(#clip480)" d="M15.869 813.093 L25.9905 813.093 L25.9905 801.03 L30.542 801.03 L30.542 813.093 L49.8937 813.093 Q54.2542 813.093 55.4955 811.916 Q56.7368 810.706 56.7368 807.046 L56.7368 801.03 L61.6384 801.03 L61.6384 807.046 Q61.6384 813.826 59.124 816.404 Q56.5777 818.982 49.8937 818.982 L30.542 818.982 L30.542 823.279 L25.9905 823.279 L25.9905 818.982 L15.869 818.982 L15.869 813.093 Z" fill="#000000" fill-rule="nonzero" fill-opacity="1" /><path clip-path="url(#clip480)" d="M64.9486 778.496 Q71.3143 780.979 73.2559 783.334 Q75.1974 785.689 75.1974 789.636 L75.1974 794.315 L70.2958 794.315 L70.2958 790.877 Q70.2958 788.458 69.15 787.121 Q68.0041 785.785 63.7391 784.161 L61.0655 783.111 L25.9905 797.529 L25.9905 791.323 L53.8723 780.183 L25.9905 769.043 L25.9905 762.836 L64.9486 778.496 Z" fill="#000000" fill-rule="nonzero" fill-opacity="1" /><path clip-path="url(#clip480)" d="M770.894 12.096 L779.158 12.096 L791.878 63.2184 L804.557 12.096 L813.752 12.096 L826.472 63.2184 L839.152 12.096 L847.456 12.096 L832.265 72.576 L821.976 72.576 L809.215 20.0763 L796.334 72.576 L786.044 72.576 L770.894 12.096 Z" fill="#000000" fill-rule="nonzero" fill-opacity="1" /><path clip-path="url(#clip480)" d="M873.301 49.7694 Q864.267 49.7694 860.783 51.8354 Q857.3 53.9013 857.3 58.8839 Q857.3 62.8538 859.892 65.2034 Q862.525 67.5124 867.022 67.5124 Q873.22 67.5124 876.947 63.1374 Q880.714 58.7219 880.714 51.4303 L880.714 49.7694 L873.301 49.7694 M888.168 46.6907 L888.168 72.576 L880.714 72.576 L880.714 65.6895 Q878.162 69.8214 874.354 71.8063 Q870.546 73.7508 865.037 73.7508 Q858.069 73.7508 853.937 69.8619 Q849.846 65.9325 849.846 59.3701 Q849.846 51.7138 854.95 47.825 Q860.095 43.9361 870.263 43.9361 L880.714 43.9361 L880.714 43.2069 Q880.714 38.0623 877.311 35.2672 Q873.949 32.4315 867.832 32.4315 Q863.943 32.4315 860.257 33.3632 Q856.571 34.295 853.168 36.1584 L853.168 29.2718 Q857.259 27.692 861.108 26.9223 Q864.956 26.1121 868.602 26.1121 Q878.445 26.1121 883.307 31.2163 Q888.168 36.3204 888.168 46.6907 Z" fill="#000000" fill-rule="nonzero" fill-opacity="1" /><path clip-path="url(#clip480)" d="M898.173 27.2059 L906.073 27.2059 L920.251 65.2844 L934.429 27.2059 L942.328 27.2059 L925.314 72.576 L915.187 72.576 L898.173 27.2059 Z" fill="#000000" fill-rule="nonzero" fill-opacity="1" /><path clip-path="url(#clip480)" d="M991.425 48.0275 L991.425 51.6733 L957.154 51.6733 Q957.641 59.3701 961.773 63.421 Q965.945 67.4314 973.358 67.4314 Q977.652 67.4314 981.662 66.3781 Q985.713 65.3249 989.683 63.2184 L989.683 70.267 Q985.673 71.9684 981.46 72.8596 Q977.247 73.7508 972.913 73.7508 Q962.056 73.7508 955.696 67.4314 Q949.377 61.1119 949.377 50.3365 Q949.377 39.1965 955.372 32.6746 Q961.408 26.1121 971.616 26.1121 Q980.771 26.1121 986.078 32.0264 Q991.425 37.9003 991.425 48.0275 M983.971 45.84 Q983.89 39.7232 980.528 36.0774 Q977.206 32.4315 971.697 32.4315 Q965.459 32.4315 961.691 35.9558 Q957.965 39.4801 957.398 45.8805 L983.971 45.84 Z" fill="#000000" fill-rule="nonzero" fill-opacity="1" /><path clip-path="url(#clip480)" d="M1038.13 65.6895 L1066.69 65.6895 L1066.69 72.576 L1028.29 72.576 L1028.29 65.6895 Q1032.95 60.8689 1040.97 52.7671 Q1049.03 44.6248 1051.09 42.2752 Q1055.02 37.8598 1056.56 34.8216 Q1058.14 31.7429 1058.14 28.7857 Q1058.14 23.9651 1054.74 20.927 Q1051.38 17.8888 1045.95 17.8888 Q1042.1 17.8888 1037.81 19.2256 Q1033.55 20.5624 1028.69 23.2765 L1028.69 15.0127 Q1033.64 13.0277 1037.93 12.015 Q1042.22 11.0023 1045.79 11.0023 Q1055.19 11.0023 1060.78 15.7013 Q1066.37 20.4004 1066.37 28.2591 Q1066.37 31.9859 1064.95 35.3482 Q1063.57 38.6699 1059.89 43.2069 Q1058.87 44.3817 1053.44 50.0125 Q1048.02 55.6027 1038.13 65.6895 Z" fill="#000000" fill-rule="nonzero" fill-opacity="1" /><path clip-path="url(#clip480)" d="M1084.72 62.2867 L1093.26 62.2867 L1093.26 72.576 L1084.72 72.576 L1084.72 62.2867 M1084.72 29.6769 L1093.26 29.6769 L1093.26 39.9662 L1084.72 39.9662 L1084.72 29.6769 Z" fill="#000000" fill-rule="nonzero" fill-opacity="1" /><path clip-path="url(#clip480)" d="M1166.14 44.2197 Q1168.77 45.1109 1171.24 48.0275 Q1173.76 50.9442 1176.27 56.0483 L1184.57 72.576 L1175.78 72.576 L1168.04 57.061 Q1165.05 50.9847 1162.21 48.9997 Q1159.42 47.0148 1154.56 47.0148 L1145.64 47.0148 L1145.64 72.576 L1137.46 72.576 L1137.46 12.096 L1155.93 12.096 Q1166.3 12.096 1171.41 16.4305 Q1176.51 20.7649 1176.51 29.5149 Q1176.51 35.2267 1173.84 38.994 Q1171.2 42.7613 1166.14 44.2197 M1145.64 18.8205 L1145.64 40.2903 L1155.93 40.2903 Q1161.85 40.2903 1164.84 37.5762 Q1167.88 34.8216 1167.88 29.5149 Q1167.88 24.2082 1164.84 21.5346 Q1161.85 18.8205 1155.93 18.8205 L1145.64 18.8205 Z" fill="#000000" fill-rule="nonzero" fill-opacity="1" /><path clip-path="url(#clip480)" d="M1229.86 48.0275 L1229.86 51.6733 L1195.59 51.6733 Q1196.08 59.3701 1200.21 63.421 Q1204.38 67.4314 1211.79 67.4314 Q1216.09 67.4314 1220.1 66.3781 Q1224.15 65.3249 1228.12 63.2184 L1228.12 70.267 Q1224.11 71.9684 1219.9 72.8596 Q1215.68 73.7508 1211.35 73.7508 Q1200.49 73.7508 1194.13 67.4314 Q1187.81 61.1119 1187.81 50.3365 Q1187.81 39.1965 1193.81 32.6746 Q1199.84 26.1121 1210.05 26.1121 Q1219.21 26.1121 1224.51 32.0264 Q1229.86 37.9003 1229.86 48.0275 M1222.41 45.84 Q1222.33 39.7232 1218.96 36.0774 Q1215.64 32.4315 1210.13 32.4315 Q1203.9 32.4315 1200.13 35.9558 Q1196.4 39.4801 1195.83 45.8805 L1222.41 45.84 Z" fill="#000000" fill-rule="nonzero" fill-opacity="1" /><path clip-path="url(#clip480)" d="M1274.75 28.9478 L1274.75 35.9153 Q1271.59 34.1734 1268.39 33.3227 Q1265.23 32.4315 1261.99 32.4315 Q1254.73 32.4315 1250.72 37.0496 Q1246.71 41.6271 1246.71 49.9314 Q1246.71 58.2358 1250.72 62.8538 Q1254.73 67.4314 1261.99 67.4314 Q1265.23 67.4314 1268.39 66.5807 Q1271.59 65.6895 1274.75 63.9476 L1274.75 70.8341 Q1271.63 72.2924 1268.26 73.0216 Q1264.94 73.7508 1261.17 73.7508 Q1250.93 73.7508 1244.89 67.3098 Q1238.85 60.8689 1238.85 49.9314 Q1238.85 38.832 1244.93 32.472 Q1251.05 26.1121 1261.66 26.1121 Q1265.1 26.1121 1268.39 26.8413 Q1271.67 27.5299 1274.75 28.9478 Z" fill="#000000" fill-rule="nonzero" fill-opacity="1" /><path clip-path="url(#clip480)" d="M1305.29 32.4315 Q1299.29 32.4315 1295.81 37.1306 Q1292.33 41.7891 1292.33 49.9314 Q1292.33 58.0738 1295.77 62.7728 Q1299.25 67.4314 1305.29 67.4314 Q1311.24 67.4314 1314.73 62.7323 Q1318.21 58.0333 1318.21 49.9314 Q1318.21 41.8701 1314.73 37.1711 Q1311.24 32.4315 1305.29 32.4315 M1305.29 26.1121 Q1315.01 26.1121 1320.56 32.4315 Q1326.11 38.7509 1326.11 49.9314 Q1326.11 61.0714 1320.56 67.4314 Q1315.01 73.7508 1305.29 73.7508 Q1295.53 73.7508 1289.98 67.4314 Q1284.47 61.0714 1284.47 49.9314 Q1284.47 38.7509 1289.98 32.4315 Q1295.53 26.1121 1305.29 26.1121 Z" fill="#000000" fill-rule="nonzero" fill-opacity="1" /><path clip-path="url(#clip480)" d="M1333.12 27.2059 L1341.02 27.2059 L1355.2 65.2844 L1369.37 27.2059 L1377.27 27.2059 L1360.26 72.576 L1350.13 72.576 L1333.12 27.2059 Z" fill="#000000" fill-rule="nonzero" fill-opacity="1" /><path clip-path="url(#clip480)" d="M1426.37 48.0275 L1426.37 51.6733 L1392.1 51.6733 Q1392.59 59.3701 1396.72 63.421 Q1400.89 67.4314 1408.3 67.4314 Q1412.6 67.4314 1416.61 66.3781 Q1420.66 65.3249 1424.63 63.2184 L1424.63 70.267 Q1420.62 71.9684 1416.41 72.8596 Q1412.19 73.7508 1407.86 73.7508 Q1397 73.7508 1390.64 67.4314 Q1384.32 61.1119 1384.32 50.3365 Q1384.32 39.1965 1390.32 32.6746 Q1396.35 26.1121 1406.56 26.1121 Q1415.72 26.1121 1421.02 32.0264 Q1426.37 37.9003 1426.37 48.0275 M1418.92 45.84 Q1418.84 39.7232 1415.47 36.0774 Q1412.15 32.4315 1406.64 32.4315 Q1400.4 32.4315 1396.64 35.9558 Q1392.91 39.4801 1392.34 45.8805 L1418.92 45.84 Z" fill="#000000" fill-rule="nonzero" fill-opacity="1" /><path clip-path="url(#clip480)" d="M1464.89 34.1734 Q1463.64 33.4443 1462.14 33.1202 Q1460.68 32.7556 1458.9 32.7556 Q1452.58 32.7556 1449.18 36.8875 Q1445.82 40.9789 1445.82 48.6757 L1445.82 72.576 L1438.32 72.576 L1438.32 27.2059 L1445.82 27.2059 L1445.82 34.2544 Q1448.16 30.1225 1451.93 28.1376 Q1455.7 26.1121 1461.09 26.1121 Q1461.86 26.1121 1462.79 26.2337 Q1463.72 26.3147 1464.85 26.5172 L1464.89 34.1734 Z" fill="#000000" fill-rule="nonzero" fill-opacity="1" /><path clip-path="url(#clip480)" d="M1491.59 76.7889 Q1488.43 84.8907 1485.43 87.3618 Q1482.44 89.8329 1477.41 89.8329 L1471.46 89.8329 L1471.46 83.5945 L1475.83 83.5945 Q1478.91 83.5945 1480.61 82.1361 Q1482.31 80.6778 1484.38 75.2496 L1485.72 71.8468 L1467.37 27.2059 L1475.27 27.2059 L1489.44 62.6918 L1503.62 27.2059 L1511.52 27.2059 L1491.59 76.7889 Z" fill="#000000" fill-rule="nonzero" fill-opacity="1" /><path clip-path="url(#clip480)" d="M1548.18 27.2059 L1555.64 27.2059 L1555.64 72.576 L1548.18 72.576 L1548.18 27.2059 M1548.18 9.54393 L1555.64 9.54393 L1555.64 18.9825 L1548.18 18.9825 L1548.18 9.54393 Z" fill="#000000" fill-rule="nonzero" fill-opacity="1" /><path clip-path="url(#clip480)" d="M1608.94 45.1919 L1608.94 72.576 L1601.49 72.576 L1601.49 45.4349 Q1601.49 38.994 1598.98 35.7938 Q1596.47 32.5936 1591.45 32.5936 Q1585.41 32.5936 1581.93 36.4419 Q1578.44 40.2903 1578.44 46.9338 L1578.44 72.576 L1570.95 72.576 L1570.95 27.2059 L1578.44 27.2059 L1578.44 34.2544 Q1581.12 30.163 1584.72 28.1376 Q1588.37 26.1121 1593.11 26.1121 Q1600.92 26.1121 1604.93 30.9732 Q1608.94 35.7938 1608.94 45.1919 Z" fill="#000000" fill-rule="nonzero" fill-opacity="1" /><path clip-path="url(#clip480)" d="M1631.18 14.324 L1631.18 27.2059 L1646.54 27.2059 L1646.54 32.9987 L1631.18 32.9987 L1631.18 57.6282 Q1631.18 63.1779 1632.68 64.7578 Q1634.22 66.3376 1638.88 66.3376 L1646.54 66.3376 L1646.54 72.576 L1638.88 72.576 Q1630.25 72.576 1626.97 69.3758 Q1623.69 66.1351 1623.69 57.6282 L1623.69 32.9987 L1618.22 32.9987 L1618.22 27.2059 L1623.69 27.2059 L1623.69 14.324 L1631.18 14.324 Z" fill="#000000" fill-rule="nonzero" fill-opacity="1" /><path clip-path="url(#clip480)" d="M1695.15 48.0275 L1695.15 51.6733 L1660.88 51.6733 Q1661.36 59.3701 1665.5 63.421 Q1669.67 67.4314 1677.08 67.4314 Q1681.38 67.4314 1685.39 66.3781 Q1689.44 65.3249 1693.41 63.2184 L1693.41 70.267 Q1689.4 71.9684 1685.18 72.8596 Q1680.97 73.7508 1676.64 73.7508 Q1665.78 73.7508 1659.42 67.4314 Q1653.1 61.1119 1653.1 50.3365 Q1653.1 39.1965 1659.1 32.6746 Q1665.13 26.1121 1675.34 26.1121 Q1684.49 26.1121 1689.8 32.0264 Q1695.15 37.9003 1695.15 48.0275 M1687.69 45.84 Q1687.61 39.7232 1684.25 36.0774 Q1680.93 32.4315 1675.42 32.4315 Q1669.18 32.4315 1665.41 35.9558 Q1661.69 39.4801 1661.12 45.8805 L1687.69 45.84 Z" fill="#000000" fill-rule="nonzero" fill-opacity="1" /><path clip-path="url(#clip480)" d="M1733.67 34.1734 Q1732.42 33.4443 1730.92 33.1202 Q1729.46 32.7556 1727.68 32.7556 Q1721.36 32.7556 1717.95 36.8875 Q1714.59 40.9789 1714.59 48.6757 L1714.59 72.576 L1707.1 72.576 L1707.1 27.2059 L1714.59 27.2059 L1714.59 34.2544 Q1716.94 30.1225 1720.71 28.1376 Q1724.48 26.1121 1729.86 26.1121 Q1730.63 26.1121 1731.57 26.2337 Q1732.5 26.3147 1733.63 26.5172 L1733.67 34.1734 Z" fill="#000000" fill-rule="nonzero" fill-opacity="1" /><path clip-path="url(#clip480)" d="M1736.14 27.2059 L1744.04 27.2059 L1758.22 65.2844 L1772.4 27.2059 L1780.3 27.2059 L1763.28 72.576 L1753.16 72.576 L1736.14 27.2059 Z" fill="#000000" fill-rule="nonzero" fill-opacity="1" /><path clip-path="url(#clip480)" d="M1811.21 49.7694 Q1802.17 49.7694 1798.69 51.8354 Q1795.21 53.9013 1795.21 58.8839 Q1795.21 62.8538 1797.8 65.2034 Q1800.43 67.5124 1804.93 67.5124 Q1811.13 67.5124 1814.85 63.1374 Q1818.62 58.7219 1818.62 51.4303 L1818.62 49.7694 L1811.21 49.7694 M1826.07 46.6907 L1826.07 72.576 L1818.62 72.576 L1818.62 65.6895 Q1816.07 69.8214 1812.26 71.8063 Q1808.45 73.7508 1802.94 73.7508 Q1795.98 73.7508 1791.84 69.8619 Q1787.75 65.9325 1787.75 59.3701 Q1787.75 51.7138 1792.86 47.825 Q1798 43.9361 1808.17 43.9361 L1818.62 43.9361 L1818.62 43.2069 Q1818.62 38.0623 1815.22 35.2672 Q1811.85 32.4315 1805.74 32.4315 Q1801.85 32.4315 1798.16 33.3632 Q1794.48 34.295 1791.07 36.1584 L1791.07 29.2718 Q1795.17 27.692 1799.01 26.9223 Q1802.86 26.1121 1806.51 26.1121 Q1816.35 26.1121 1821.21 31.2163 Q1826.07 36.3204 1826.07 46.6907 Z" fill="#000000" fill-rule="nonzero" fill-opacity="1" /><path clip-path="url(#clip480)" d="M1841.43 9.54393 L1848.88 9.54393 L1848.88 72.576 L1841.43 72.576 L1841.43 9.54393 Z" fill="#000000" fill-rule="nonzero" fill-opacity="1" /><path clip-path="url(#clip480)" d="M1923.5 28.9478 L1923.5 35.9153 Q1920.34 34.1734 1917.14 33.3227 Q1913.98 32.4315 1910.74 32.4315 Q1903.49 32.4315 1899.48 37.0496 Q1895.47 41.6271 1895.47 49.9314 Q1895.47 58.2358 1899.48 62.8538 Q1903.49 67.4314 1910.74 67.4314 Q1913.98 67.4314 1917.14 66.5807 Q1920.34 65.6895 1923.5 63.9476 L1923.5 70.8341 Q1920.38 72.2924 1917.02 73.0216 Q1913.69 73.7508 1909.93 73.7508 Q1899.68 73.7508 1893.64 67.3098 Q1887.61 60.8689 1887.61 49.9314 Q1887.61 38.832 1893.68 32.472 Q1899.8 26.1121 1910.41 26.1121 Q1913.86 26.1121 1917.14 26.8413 Q1920.42 27.5299 1923.5 28.9478 Z" fill="#000000" fill-rule="nonzero" fill-opacity="1" /><path clip-path="url(#clip480)" d="M1974.17 45.1919 L1974.17 72.576 L1966.72 72.576 L1966.72 45.4349 Q1966.72 38.994 1964.21 35.7938 Q1961.7 32.5936 1956.67 32.5936 Q1950.64 32.5936 1947.15 36.4419 Q1943.67 40.2903 1943.67 46.9338 L1943.67 72.576 L1936.18 72.576 L1936.18 9.54393 L1943.67 9.54393 L1943.67 34.2544 Q1946.34 30.163 1949.95 28.1376 Q1953.6 26.1121 1958.34 26.1121 Q1966.15 26.1121 1970.16 30.9732 Q1974.17 35.7938 1974.17 45.1919 Z" fill="#000000" fill-rule="nonzero" fill-opacity="1" /><path clip-path="url(#clip480)" d="M2027.85 48.0275 L2027.85 51.6733 L1993.58 51.6733 Q1994.06 59.3701 1998.2 63.421 Q2002.37 67.4314 2009.78 67.4314 Q2014.08 67.4314 2018.09 66.3781 Q2022.14 65.3249 2026.11 63.2184 L2026.11 70.267 Q2022.1 71.9684 2017.88 72.8596 Q2013.67 73.7508 2009.34 73.7508 Q1998.48 73.7508 1992.12 67.4314 Q1985.8 61.1119 1985.8 50.3365 Q1985.8 39.1965 1991.8 32.6746 Q1997.83 26.1121 2008.04 26.1121 Q2017.2 26.1121 2022.5 32.0264 Q2027.85 37.9003 2027.85 48.0275 M2020.4 45.84 Q2020.31 39.7232 2016.95 36.0774 Q2013.63 32.4315 2008.12 32.4315 Q2001.88 32.4315 1998.12 35.9558 Q1994.39 39.4801 1993.82 45.8805 L2020.4 45.84 Z" fill="#000000" fill-rule="nonzero" fill-opacity="1" /><path clip-path="url(#clip480)" d="M2072.73 28.9478 L2072.73 35.9153 Q2069.57 34.1734 2066.37 33.3227 Q2063.21 32.4315 2059.97 32.4315 Q2052.72 32.4315 2048.71 37.0496 Q2044.7 41.6271 2044.7 49.9314 Q2044.7 58.2358 2048.71 62.8538 Q2052.72 67.4314 2059.97 67.4314 Q2063.21 67.4314 2066.37 66.5807 Q2069.57 65.6895 2072.73 63.9476 L2072.73 70.8341 Q2069.61 72.2924 2066.25 73.0216 Q2062.93 73.7508 2059.16 73.7508 Q2048.91 73.7508 2042.88 67.3098 Q2036.84 60.8689 2036.84 49.9314 Q2036.84 38.832 2042.92 32.472 Q2049.04 26.1121 2059.65 26.1121 Q2063.09 26.1121 2066.37 26.8413 Q2069.65 27.5299 2072.73 28.9478 Z" fill="#000000" fill-rule="nonzero" fill-opacity="1" /><path clip-path="url(#clip480)" d="M2085.41 9.54393 L2092.91 9.54393 L2092.91 46.7717 L2115.15 27.2059 L2124.67 27.2059 L2100.6 48.4326 L2125.68 72.576 L2115.96 72.576 L2092.91 50.4176 L2092.91 72.576 L2085.41 72.576 L2085.41 9.54393 Z" fill="#000000" fill-rule="nonzero" fill-opacity="1" /><path clip-path="url(#clip482)" d="M386.992 229.659 L386.992 1734.12 L447.638 1734.12 L447.638 229.659 L386.992 229.659 L386.992 229.659  Z" fill="#009af9" fill-rule="evenodd" fill-opacity="0.5"/>
<polyline clip-path="url(#clip482)" style="stroke:#000000; stroke-linecap:round; stroke-linejoin:round; stroke-width:4; stroke-opacity:0.5; fill:none" points="386.992,229.659 386.992,1734.12 447.638,1734.12 447.638,229.659 386.992,229.659 "/>
<path clip-path="url(#clip482)" d="M447.638 789.168 L447.638 1734.12 L508.283 1734.12 L508.283 789.168 L447.638 789.168 L447.638 789.168  Z" fill="#009af9" fill-rule="evenodd" fill-opacity="0.5"/>
<polyline clip-path="url(#clip482)" style="stroke:#000000; stroke-linecap:round; stroke-linejoin:round; stroke-width:4; stroke-opacity:0.5; fill:none" points="447.638,789.168 447.638,1734.12 508.283,1734.12 508.283,789.168 447.638,789.168 "/>
<path clip-path="url(#clip482)" d="M508.283 938.37 L508.283 1734.12 L568.928 1734.12 L568.928 938.37 L508.283 938.37 L508.283 938.37  Z" fill="#009af9" fill-rule="evenodd" fill-opacity="0.5"/>
<polyline clip-path="url(#clip482)" style="stroke:#000000; stroke-linecap:round; stroke-linejoin:round; stroke-width:4; stroke-opacity:0.5; fill:none" points="508.283,938.37 508.283,1734.12 568.928,1734.12 568.928,938.37 508.283,938.37 "/>
<path clip-path="url(#clip482)" d="M568.928 938.37 L568.928 1734.12 L629.574 1734.12 L629.574 938.37 L568.928 938.37 L568.928 938.37  Z" fill="#009af9" fill-rule="evenodd" fill-opacity="0.5"/>
<polyline clip-path="url(#clip482)" style="stroke:#000000; stroke-linecap:round; stroke-linejoin:round; stroke-width:4; stroke-opacity:0.5; fill:none" points="568.928,938.37 568.928,1734.12 629.574,1734.12 629.574,938.37 568.928,938.37 "/>
<path clip-path="url(#clip482)" d="M629.574 838.902 L629.574 1734.12 L690.219 1734.12 L690.219 838.902 L629.574 838.902 L629.574 838.902  Z" fill="#009af9" fill-rule="evenodd" fill-opacity="0.5"/>
<polyline clip-path="url(#clip482)" style="stroke:#000000; stroke-linecap:round; stroke-linejoin:round; stroke-width:4; stroke-opacity:0.5; fill:none" points="629.574,838.902 629.574,1734.12 690.219,1734.12 690.219,838.902 629.574,838.902 "/>
<path clip-path="url(#clip482)" d="M690.219 876.203 L690.219 1734.12 L750.864 1734.12 L750.864 876.203 L690.219 876.203 L690.219 876.203  Z" fill="#009af9" fill-rule="evenodd" fill-opacity="0.5"/>
<polyline clip-path="url(#clip482)" style="stroke:#000000; stroke-linecap:round; stroke-linejoin:round; stroke-width:4; stroke-opacity:0.5; fill:none" points="690.219,876.203 690.219,1734.12 750.864,1734.12 750.864,876.203 690.219,876.203 "/>
<path clip-path="url(#clip482)" d="M750.864 863.769 L750.864 1734.12 L811.51 1734.12 L811.51 863.769 L750.864 863.769 L750.864 863.769  Z" fill="#009af9" fill-rule="evenodd" fill-opacity="0.5"/>
<polyline clip-path="url(#clip482)" style="stroke:#000000; stroke-linecap:round; stroke-linejoin:round; stroke-width:4; stroke-opacity:0.5; fill:none" points="750.864,863.769 750.864,1734.12 811.51,1734.12 811.51,863.769 750.864,863.769 "/>
<path clip-path="url(#clip482)" d="M811.51 1199.47 L811.51 1734.12 L872.155 1734.12 L872.155 1199.47 L811.51 1199.47 L811.51 1199.47  Z" fill="#009af9" fill-rule="evenodd" fill-opacity="0.5"/>
<polyline clip-path="url(#clip482)" style="stroke:#000000; stroke-linecap:round; stroke-linejoin:round; stroke-width:4; stroke-opacity:0.5; fill:none" points="811.51,1199.47 811.51,1734.12 872.155,1734.12 872.155,1199.47 811.51,1199.47 "/>
<path clip-path="url(#clip482)" d="M872.155 1274.08 L872.155 1734.12 L932.801 1734.12 L932.801 1274.08 L872.155 1274.08 L872.155 1274.08  Z" fill="#009af9" fill-rule="evenodd" fill-opacity="0.5"/>
<polyline clip-path="url(#clip482)" style="stroke:#000000; stroke-linecap:round; stroke-linejoin:round; stroke-width:4; stroke-opacity:0.5; fill:none" points="872.155,1274.08 872.155,1734.12 932.801,1734.12 932.801,1274.08 872.155,1274.08 "/>
<path clip-path="url(#clip482)" d="M932.801 1361.11 L932.801 1734.12 L993.446 1734.12 L993.446 1361.11 L932.801 1361.11 L932.801 1361.11  Z" fill="#009af9" fill-rule="evenodd" fill-opacity="0.5"/>
<polyline clip-path="url(#clip482)" style="stroke:#000000; stroke-linecap:round; stroke-linejoin:round; stroke-width:4; stroke-opacity:0.5; fill:none" points="932.801,1361.11 932.801,1734.12 993.446,1734.12 993.446,1361.11 932.801,1361.11 "/>
<path clip-path="url(#clip482)" d="M993.446 1547.61 L993.446 1734.12 L1054.09 1734.12 L1054.09 1547.61 L993.446 1547.61 L993.446 1547.61  Z" fill="#009af9" fill-rule="evenodd" fill-opacity="0.5"/>
<polyline clip-path="url(#clip482)" style="stroke:#000000; stroke-linecap:round; stroke-linejoin:round; stroke-width:4; stroke-opacity:0.5; fill:none" points="993.446,1547.61 993.446,1734.12 1054.09,1734.12 1054.09,1547.61 993.446,1547.61 "/>
<path clip-path="url(#clip482)" d="M1054.09 1659.52 L1054.09 1734.12 L1114.74 1734.12 L1114.74 1659.52 L1054.09 1659.52 L1054.09 1659.52  Z" fill="#009af9" fill-rule="evenodd" fill-opacity="0.5"/>
<polyline clip-path="url(#clip482)" style="stroke:#000000; stroke-linecap:round; stroke-linejoin:round; stroke-width:4; stroke-opacity:0.5; fill:none" points="1054.09,1659.52 1054.09,1734.12 1114.74,1734.12 1114.74,1659.52 1054.09,1659.52 "/>
<path clip-path="url(#clip482)" d="M1114.74 1597.35 L1114.74 1734.12 L1175.38 1734.12 L1175.38 1597.35 L1114.74 1597.35 L1114.74 1597.35  Z" fill="#009af9" fill-rule="evenodd" fill-opacity="0.5"/>
<polyline clip-path="url(#clip482)" style="stroke:#000000; stroke-linecap:round; stroke-linejoin:round; stroke-width:4; stroke-opacity:0.5; fill:none" points="1114.74,1597.35 1114.74,1734.12 1175.38,1734.12 1175.38,1597.35 1114.74,1597.35 "/>
<path clip-path="url(#clip482)" d="M1175.38 1634.65 L1175.38 1734.12 L1236.03 1734.12 L1236.03 1634.65 L1175.38 1634.65 L1175.38 1634.65  Z" fill="#009af9" fill-rule="evenodd" fill-opacity="0.5"/>
<polyline clip-path="url(#clip482)" style="stroke:#000000; stroke-linecap:round; stroke-linejoin:round; stroke-width:4; stroke-opacity:0.5; fill:none" points="1175.38,1634.65 1175.38,1734.12 1236.03,1734.12 1236.03,1634.65 1175.38,1634.65 "/>
<path clip-path="url(#clip482)" d="M1236.03 1671.95 L1236.03 1734.12 L1296.67 1734.12 L1296.67 1671.95 L1236.03 1671.95 L1236.03 1671.95  Z" fill="#009af9" fill-rule="evenodd" fill-opacity="0.5"/>
<polyline clip-path="url(#clip482)" style="stroke:#000000; stroke-linecap:round; stroke-linejoin:round; stroke-width:4; stroke-opacity:0.5; fill:none" points="1236.03,1671.95 1236.03,1734.12 1296.67,1734.12 1296.67,1671.95 1236.03,1671.95 "/>
<path clip-path="url(#clip482)" d="M1296.67 1709.25 L1296.67 1734.12 L1357.32 1734.12 L1357.32 1709.25 L1296.67 1709.25 L1296.67 1709.25  Z" fill="#009af9" fill-rule="evenodd" fill-opacity="0.5"/>
<polyline clip-path="url(#clip482)" style="stroke:#000000; stroke-linecap:round; stroke-linejoin:round; stroke-width:4; stroke-opacity:0.5; fill:none" points="1296.67,1709.25 1296.67,1734.12 1357.32,1734.12 1357.32,1709.25 1296.67,1709.25 "/>
<path clip-path="url(#clip482)" d="M1357.32 1709.25 L1357.32 1734.12 L1417.96 1734.12 L1417.96 1709.25 L1357.32 1709.25 L1357.32 1709.25  Z" fill="#009af9" fill-rule="evenodd" fill-opacity="0.5"/>
<polyline clip-path="url(#clip482)" style="stroke:#000000; stroke-linecap:round; stroke-linejoin:round; stroke-width:4; stroke-opacity:0.5; fill:none" points="1357.32,1709.25 1357.32,1734.12 1417.96,1734.12 1417.96,1709.25 1357.32,1709.25 "/>
<path clip-path="url(#clip482)" d="M1417.96 1709.25 L1417.96 1734.12 L1478.61 1734.12 L1478.61 1709.25 L1417.96 1709.25 L1417.96 1709.25  Z" fill="#009af9" fill-rule="evenodd" fill-opacity="0.5"/>
<polyline clip-path="url(#clip482)" style="stroke:#000000; stroke-linecap:round; stroke-linejoin:round; stroke-width:4; stroke-opacity:0.5; fill:none" points="1417.96,1709.25 1417.96,1734.12 1478.61,1734.12 1478.61,1709.25 1417.96,1709.25 "/>
<path clip-path="url(#clip482)" d="M1478.61 1709.25 L1478.61 1734.12 L1539.25 1734.12 L1539.25 1709.25 L1478.61 1709.25 L1478.61 1709.25  Z" fill="#009af9" fill-rule="evenodd" fill-opacity="0.5"/>
<polyline clip-path="url(#clip482)" style="stroke:#000000; stroke-linecap:round; stroke-linejoin:round; stroke-width:4; stroke-opacity:0.5; fill:none" points="1478.61,1709.25 1478.61,1734.12 1539.25,1734.12 1539.25,1709.25 1478.61,1709.25 "/>
<path clip-path="url(#clip482)" d="M1539.25 1734.12 L1539.25 1734.12 L1599.9 1734.12 L1599.9 1734.12 L1539.25 1734.12 L1539.25 1734.12  Z" fill="#009af9" fill-rule="evenodd" fill-opacity="0.5"/>
<polyline clip-path="url(#clip482)" style="stroke:#000000; stroke-linecap:round; stroke-linejoin:round; stroke-width:4; stroke-opacity:0.5; fill:none" points="1539.25,1734.12 1539.25,1734.12 1599.9,1734.12 1539.25,1734.12 "/>
<path clip-path="url(#clip482)" d="M1599.9 1734.12 L1599.9 1734.12 L1660.54 1734.12 L1660.54 1734.12 L1599.9 1734.12 L1599.9 1734.12  Z" fill="#009af9" fill-rule="evenodd" fill-opacity="0.5"/>
<polyline clip-path="url(#clip482)" style="stroke:#000000; stroke-linecap:round; stroke-linejoin:round; stroke-width:4; stroke-opacity:0.5; fill:none" points="1599.9,1734.12 1599.9,1734.12 1660.54,1734.12 1599.9,1734.12 "/>
<path clip-path="url(#clip482)" d="M1660.54 1734.12 L1660.54 1734.12 L1721.19 1734.12 L1721.19 1734.12 L1660.54 1734.12 L1660.54 1734.12  Z" fill="#009af9" fill-rule="evenodd" fill-opacity="0.5"/>
<polyline clip-path="url(#clip482)" style="stroke:#000000; stroke-linecap:round; stroke-linejoin:round; stroke-width:4; stroke-opacity:0.5; fill:none" points="1660.54,1734.12 1660.54,1734.12 1721.19,1734.12 1660.54,1734.12 "/>
<path clip-path="url(#clip482)" d="M1721.19 1734.12 L1721.19 1734.12 L1781.84 1734.12 L1781.84 1734.12 L1721.19 1734.12 L1721.19 1734.12  Z" fill="#009af9" fill-rule="evenodd" fill-opacity="0.5"/>
<polyline clip-path="url(#clip482)" style="stroke:#000000; stroke-linecap:round; stroke-linejoin:round; stroke-width:4; stroke-opacity:0.5; fill:none" points="1721.19,1734.12 1721.19,1734.12 1781.84,1734.12 1721.19,1734.12 "/>
<path clip-path="url(#clip482)" d="M1781.84 1721.68 L1781.84 1734.12 L1842.48 1734.12 L1842.48 1721.68 L1781.84 1721.68 L1781.84 1721.68  Z" fill="#009af9" fill-rule="evenodd" fill-opacity="0.5"/>
<polyline clip-path="url(#clip482)" style="stroke:#000000; stroke-linecap:round; stroke-linejoin:round; stroke-width:4; stroke-opacity:0.5; fill:none" points="1781.84,1721.68 1781.84,1734.12 1842.48,1734.12 1842.48,1721.68 1781.84,1721.68 "/>
<path clip-path="url(#clip482)" d="M1842.48 1721.68 L1842.48 1734.12 L1903.13 1734.12 L1903.13 1721.68 L1842.48 1721.68 L1842.48 1721.68  Z" fill="#009af9" fill-rule="evenodd" fill-opacity="0.5"/>
<polyline clip-path="url(#clip482)" style="stroke:#000000; stroke-linecap:round; stroke-linejoin:round; stroke-width:4; stroke-opacity:0.5; fill:none" points="1842.48,1721.68 1842.48,1734.12 1903.13,1734.12 1903.13,1721.68 1842.48,1721.68 "/>
<path clip-path="url(#clip482)" d="M1903.13 1721.68 L1903.13 1734.12 L1963.77 1734.12 L1963.77 1721.68 L1903.13 1721.68 L1903.13 1721.68  Z" fill="#009af9" fill-rule="evenodd" fill-opacity="0.5"/>
<polyline clip-path="url(#clip482)" style="stroke:#000000; stroke-linecap:round; stroke-linejoin:round; stroke-width:4; stroke-opacity:0.5; fill:none" points="1903.13,1721.68 1903.13,1734.12 1963.77,1734.12 1963.77,1721.68 1903.13,1721.68 "/>
<path clip-path="url(#clip482)" d="M1963.77 1734.12 L1963.77 1734.12 L2024.42 1734.12 L2024.42 1734.12 L1963.77 1734.12 L1963.77 1734.12  Z" fill="#009af9" fill-rule="evenodd" fill-opacity="0.5"/>
<polyline clip-path="url(#clip482)" style="stroke:#000000; stroke-linecap:round; stroke-linejoin:round; stroke-width:4; stroke-opacity:0.5; fill:none" points="1963.77,1734.12 1963.77,1734.12 2024.42,1734.12 1963.77,1734.12 "/>
<path clip-path="url(#clip482)" d="M2024.42 1734.12 L2024.42 1734.12 L2085.06 1734.12 L2085.06 1734.12 L2024.42 1734.12 L2024.42 1734.12  Z" fill="#009af9" fill-rule="evenodd" fill-opacity="0.5"/>
<polyline clip-path="url(#clip482)" style="stroke:#000000; stroke-linecap:round; stroke-linejoin:round; stroke-width:4; stroke-opacity:0.5; fill:none" points="2024.42,1734.12 2024.42,1734.12 2085.06,1734.12 2024.42,1734.12 "/>
<path clip-path="url(#clip482)" d="M2085.06 1734.12 L2085.06 1734.12 L2145.71 1734.12 L2145.71 1734.12 L2085.06 1734.12 L2085.06 1734.12  Z" fill="#009af9" fill-rule="evenodd" fill-opacity="0.5"/>
<polyline clip-path="url(#clip482)" style="stroke:#000000; stroke-linecap:round; stroke-linejoin:round; stroke-width:4; stroke-opacity:0.5; fill:none" points="2085.06,1734.12 2085.06,1734.12 2145.71,1734.12 2085.06,1734.12 "/>
<path clip-path="url(#clip482)" d="M2145.71 1734.12 L2145.71 1734.12 L2206.35 1734.12 L2206.35 1734.12 L2145.71 1734.12 L2145.71 1734.12  Z" fill="#009af9" fill-rule="evenodd" fill-opacity="0.5"/>
<polyline clip-path="url(#clip482)" style="stroke:#000000; stroke-linecap:round; stroke-linejoin:round; stroke-width:4; stroke-opacity:0.5; fill:none" points="2145.71,1734.12 2145.71,1734.12 2206.35,1734.12 2145.71,1734.12 "/>
<path clip-path="url(#clip482)" d="M2206.35 1721.68 L2206.35 1734.12 L2267 1734.12 L2267 1721.68 L2206.35 1721.68 L2206.35 1721.68  Z" fill="#009af9" fill-rule="evenodd" fill-opacity="0.5"/>
<polyline clip-path="url(#clip482)" style="stroke:#000000; stroke-linecap:round; stroke-linejoin:round; stroke-width:4; stroke-opacity:0.5; fill:none" points="2206.35,1721.68 2206.35,1734.12 2267,1734.12 2267,1721.68 2206.35,1721.68 "/>
<path clip-path="url(#clip482)" d="M2267 1721.68 L2267 1734.12 L2327.64 1734.12 L2327.64 1721.68 L2267 1721.68 L2267 1721.68  Z" fill="#009af9" fill-rule="evenodd" fill-opacity="0.5"/>
<polyline clip-path="url(#clip482)" style="stroke:#000000; stroke-linecap:round; stroke-linejoin:round; stroke-width:4; stroke-opacity:0.5; fill:none" points="2267,1721.68 2267,1734.12 2327.64,1734.12 2327.64,1721.68 2267,1721.68 "/>
<path clip-path="url(#clip482)" d="M2327.64 1721.68 L2327.64 1734.12 L2388.29 1734.12 L2388.29 1721.68 L2327.64 1721.68 L2327.64 1721.68  Z" fill="#009af9" fill-rule="evenodd" fill-opacity="0.5"/>
<polyline clip-path="url(#clip482)" style="stroke:#000000; stroke-linecap:round; stroke-linejoin:round; stroke-width:4; stroke-opacity:0.5; fill:none" points="2327.64,1721.68 2327.64,1734.12 2388.29,1734.12 2388.29,1721.68 2327.64,1721.68 "/>
<path clip-path="url(#clip482)" d="M2388.29 1734.12 L2388.29 1734.12 L2448.93 1734.12 L2448.93 1734.12 L2388.29 1734.12 L2388.29 1734.12  Z" fill="#009af9" fill-rule="evenodd" fill-opacity="0.5"/>
<polyline clip-path="url(#clip482)" style="stroke:#000000; stroke-linecap:round; stroke-linejoin:round; stroke-width:4; stroke-opacity:0.5; fill:none" points="2388.29,1734.12 2388.29,1734.12 2448.93,1734.12 2388.29,1734.12 "/>
<path clip-path="url(#clip482)" d="M2448.93 1734.12 L2448.93 1734.12 L2509.58 1734.12 L2509.58 1734.12 L2448.93 1734.12 L2448.93 1734.12  Z" fill="#009af9" fill-rule="evenodd" fill-opacity="0.5"/>
<polyline clip-path="url(#clip482)" style="stroke:#000000; stroke-linecap:round; stroke-linejoin:round; stroke-width:4; stroke-opacity:0.5; fill:none" points="2448.93,1734.12 2448.93,1734.12 2509.58,1734.12 2448.93,1734.12 "/>
<circle clip-path="url(#clip482)" style="fill:#009af9; stroke:none; fill-opacity:0" cx="417.315" cy="229.659" r="2"/>
<circle clip-path="url(#clip482)" style="fill:#009af9; stroke:none; fill-opacity:0" cx="477.96" cy="789.168" r="2"/>
<circle clip-path="url(#clip482)" style="fill:#009af9; stroke:none; fill-opacity:0" cx="538.606" cy="938.37" r="2"/>
<circle clip-path="url(#clip482)" style="fill:#009af9; stroke:none; fill-opacity:0" cx="599.251" cy="938.37" r="2"/>
<circle clip-path="url(#clip482)" style="fill:#009af9; stroke:none; fill-opacity:0" cx="659.896" cy="838.902" r="2"/>
<circle clip-path="url(#clip482)" style="fill:#009af9; stroke:none; fill-opacity:0" cx="720.542" cy="876.203" r="2"/>
<circle clip-path="url(#clip482)" style="fill:#009af9; stroke:none; fill-opacity:0" cx="781.187" cy="863.769" r="2"/>
<circle clip-path="url(#clip482)" style="fill:#009af9; stroke:none; fill-opacity:0" cx="841.832" cy="1199.47" r="2"/>
<circle clip-path="url(#clip482)" style="fill:#009af9; stroke:none; fill-opacity:0" cx="902.478" cy="1274.08" r="2"/>
<circle clip-path="url(#clip482)" style="fill:#009af9; stroke:none; fill-opacity:0" cx="963.123" cy="1361.11" r="2"/>
<circle clip-path="url(#clip482)" style="fill:#009af9; stroke:none; fill-opacity:0" cx="1023.77" cy="1547.61" r="2"/>
<circle clip-path="url(#clip482)" style="fill:#009af9; stroke:none; fill-opacity:0" cx="1084.41" cy="1659.52" r="2"/>
<circle clip-path="url(#clip482)" style="fill:#009af9; stroke:none; fill-opacity:0" cx="1145.06" cy="1597.35" r="2"/>
<circle clip-path="url(#clip482)" style="fill:#009af9; stroke:none; fill-opacity:0" cx="1205.7" cy="1634.65" r="2"/>
<circle clip-path="url(#clip482)" style="fill:#009af9; stroke:none; fill-opacity:0" cx="1266.35" cy="1671.95" r="2"/>
<circle clip-path="url(#clip482)" style="fill:#009af9; stroke:none; fill-opacity:0" cx="1327" cy="1709.25" r="2"/>
<circle clip-path="url(#clip482)" style="fill:#009af9; stroke:none; fill-opacity:0" cx="1387.64" cy="1709.25" r="2"/>
<circle clip-path="url(#clip482)" style="fill:#009af9; stroke:none; fill-opacity:0" cx="1448.29" cy="1709.25" r="2"/>
<circle clip-path="url(#clip482)" style="fill:#009af9; stroke:none; fill-opacity:0" cx="1508.93" cy="1709.25" r="2"/>
<circle clip-path="url(#clip482)" style="fill:#009af9; stroke:none; fill-opacity:0" cx="1569.58" cy="1734.12" r="2"/>
<circle clip-path="url(#clip482)" style="fill:#009af9; stroke:none; fill-opacity:0" cx="1630.22" cy="1734.12" r="2"/>
<circle clip-path="url(#clip482)" style="fill:#009af9; stroke:none; fill-opacity:0" cx="1690.87" cy="1734.12" r="2"/>
<circle clip-path="url(#clip482)" style="fill:#009af9; stroke:none; fill-opacity:0" cx="1751.51" cy="1734.12" r="2"/>
<circle clip-path="url(#clip482)" style="fill:#009af9; stroke:none; fill-opacity:0" cx="1812.16" cy="1721.68" r="2"/>
<circle clip-path="url(#clip482)" style="fill:#009af9; stroke:none; fill-opacity:0" cx="1872.8" cy="1721.68" r="2"/>
<circle clip-path="url(#clip482)" style="fill:#009af9; stroke:none; fill-opacity:0" cx="1933.45" cy="1721.68" r="2"/>
<circle clip-path="url(#clip482)" style="fill:#009af9; stroke:none; fill-opacity:0" cx="1994.09" cy="1734.12" r="2"/>
<circle clip-path="url(#clip482)" style="fill:#009af9; stroke:none; fill-opacity:0" cx="2054.74" cy="1734.12" r="2"/>
<circle clip-path="url(#clip482)" style="fill:#009af9; stroke:none; fill-opacity:0" cx="2115.39" cy="1734.12" r="2"/>
<circle clip-path="url(#clip482)" style="fill:#009af9; stroke:none; fill-opacity:0" cx="2176.03" cy="1734.12" r="2"/>
<circle clip-path="url(#clip482)" style="fill:#009af9; stroke:none; fill-opacity:0" cx="2236.68" cy="1721.68" r="2"/>
<circle clip-path="url(#clip482)" style="fill:#009af9; stroke:none; fill-opacity:0" cx="2297.32" cy="1721.68" r="2"/>
<circle clip-path="url(#clip482)" style="fill:#009af9; stroke:none; fill-opacity:0" cx="2357.97" cy="1721.68" r="2"/>
<circle clip-path="url(#clip482)" style="fill:#009af9; stroke:none; fill-opacity:0" cx="2418.61" cy="1734.12" r="2"/>
<circle clip-path="url(#clip482)" style="fill:#009af9; stroke:none; fill-opacity:0" cx="2479.26" cy="1734.12" r="2"/>
<polyline clip-path="url(#clip482)" style="stroke:#ff0000; stroke-linecap:round; stroke-linejoin:round; stroke-width:8; stroke-opacity:1; fill:none" points="386.992,127.792 447.638,422.155 508.283,662.575 568.928,858.938 629.574,1019.32 690.219,1150.31 750.864,1257.29 811.51,1344.67 872.155,1416.04 932.801,1474.33 993.446,1521.93 1054.09,1560.82 1114.74,1592.57 1175.38,1618.51 1236.03,1639.7 1296.67,1657 1357.32,1671.13 1417.96,1682.67 1478.61,1692.1 1539.25,1699.8 1599.9,1706.09 1660.54,1711.23 1721.19,1715.42 1781.84,1718.85 1842.48,1721.64 1903.13,1723.93 1963.77,1725.8 2024.42,1727.32 2085.06,1728.57 2145.71,1729.58 2206.35,1730.41 2267,1731.09 2327.64,1731.65 2388.29,1732.1 2448.93,1732.47 2509.58,1732.77 "/>
<path clip-path="url(#clip480)" d="M1602.37 336.856 L2561.26 336.856 L2561.26 181.336 L1602.37 181.336  Z" fill="#ffffff" fill-rule="evenodd" fill-opacity="1"/>
<polyline clip-path="url(#clip480)" style="stroke:#000000; stroke-linecap:round; stroke-linejoin:round; stroke-width:4; stroke-opacity:1; fill:none" points="1602.37,336.856 2561.26,336.856 2561.26,181.336 1602.37,181.336 1602.37,336.856 "/>
<path clip-path="url(#clip480)" d="M1628.87 253.912 L1787.87 253.912 L1787.87 212.44 L1628.87 212.44 L1628.87 253.912  Z" fill="#009af9" fill-rule="evenodd" fill-opacity="0.5"/>
<polyline clip-path="url(#clip480)" style="stroke:#000000; stroke-linecap:round; stroke-linejoin:round; stroke-width:4; stroke-opacity:1; fill:none" points="1628.87,253.912 1787.87,253.912 1787.87,212.44 1628.87,212.44 1628.87,253.912 "/>
<path clip-path="url(#clip480)" d="M1814.37 215.896 L1836.22 215.896 L1836.22 219.831 L1819.04 219.831 L1819.04 230.063 L1835.5 230.063 L1835.5 233.998 L1819.04 233.998 L1819.04 246.521 L1836.64 246.521 L1836.64 250.456 L1814.37 250.456 L1814.37 215.896 Z" fill="#000000" fill-rule="nonzero" fill-opacity="1" /><path clip-path="url(#clip480)" d="M1864.32 229.507 Q1865.92 226.637 1868.14 225.271 Q1870.36 223.906 1873.37 223.906 Q1877.42 223.906 1879.62 226.753 Q1881.82 229.577 1881.82 234.808 L1881.82 250.456 L1877.54 250.456 L1877.54 234.947 Q1877.54 231.22 1876.22 229.415 Q1874.9 227.609 1872.19 227.609 Q1868.88 227.609 1866.96 229.808 Q1865.04 232.007 1865.04 235.804 L1865.04 250.456 L1860.76 250.456 L1860.76 234.947 Q1860.76 231.197 1859.44 229.415 Q1858.12 227.609 1855.36 227.609 Q1852.1 227.609 1850.18 229.831 Q1848.26 232.03 1848.26 235.804 L1848.26 250.456 L1843.98 250.456 L1843.98 224.531 L1848.26 224.531 L1848.26 228.558 Q1849.72 226.174 1851.75 225.04 Q1853.79 223.906 1856.59 223.906 Q1859.41 223.906 1861.38 225.341 Q1863.37 226.776 1864.32 229.507 Z" fill="#000000" fill-rule="nonzero" fill-opacity="1" /><path clip-path="url(#clip480)" d="M1894.44 246.567 L1894.44 260.317 L1890.16 260.317 L1890.16 224.531 L1894.44 224.531 L1894.44 228.466 Q1895.78 226.151 1897.82 225.04 Q1899.88 223.906 1902.72 223.906 Q1907.45 223.906 1910.39 227.655 Q1913.35 231.405 1913.35 237.517 Q1913.35 243.628 1910.39 247.378 Q1907.45 251.128 1902.72 251.128 Q1899.88 251.128 1897.82 250.016 Q1895.78 248.882 1894.44 246.567 M1908.93 237.517 Q1908.93 232.817 1906.98 230.155 Q1905.06 227.47 1901.68 227.47 Q1898.3 227.47 1896.36 230.155 Q1894.44 232.817 1894.44 237.517 Q1894.44 242.216 1896.36 244.901 Q1898.3 247.563 1901.68 247.563 Q1905.06 247.563 1906.98 244.901 Q1908.93 242.216 1908.93 237.517 Z" fill="#000000" fill-rule="nonzero" fill-opacity="1" /><path clip-path="url(#clip480)" d="M1920.41 224.531 L1924.67 224.531 L1924.67 250.456 L1920.41 250.456 L1920.41 224.531 M1920.41 214.438 L1924.67 214.438 L1924.67 219.831 L1920.41 219.831 L1920.41 214.438 Z" fill="#000000" fill-rule="nonzero" fill-opacity="1" /><path clip-path="url(#clip480)" d="M1948.6 228.512 Q1947.89 228.095 1947.03 227.91 Q1946.2 227.702 1945.18 227.702 Q1941.57 227.702 1939.62 230.063 Q1937.7 232.401 1937.7 236.799 L1937.7 250.456 L1933.42 250.456 L1933.42 224.531 L1937.7 224.531 L1937.7 228.558 Q1939.04 226.197 1941.2 225.063 Q1943.35 223.906 1946.43 223.906 Q1946.87 223.906 1947.4 223.975 Q1947.93 224.021 1948.58 224.137 L1948.6 228.512 Z" fill="#000000" fill-rule="nonzero" fill-opacity="1" /><path clip-path="url(#clip480)" d="M1953.07 224.531 L1957.33 224.531 L1957.33 250.456 L1953.07 250.456 L1953.07 224.531 M1953.07 214.438 L1957.33 214.438 L1957.33 219.831 L1953.07 219.831 L1953.07 214.438 Z" fill="#000000" fill-rule="nonzero" fill-opacity="1" /><path clip-path="url(#clip480)" d="M1984.9 225.526 L1984.9 229.507 Q1983.09 228.512 1981.27 228.026 Q1979.46 227.517 1977.61 227.517 Q1973.47 227.517 1971.17 230.155 Q1968.88 232.771 1968.88 237.517 Q1968.88 242.262 1971.17 244.901 Q1973.47 247.516 1977.61 247.516 Q1979.46 247.516 1981.27 247.03 Q1983.09 246.521 1984.9 245.526 L1984.9 249.461 Q1983.12 250.294 1981.2 250.711 Q1979.3 251.128 1977.15 251.128 Q1971.29 251.128 1967.84 247.447 Q1964.39 243.767 1964.39 237.517 Q1964.39 231.174 1967.86 227.54 Q1971.36 223.906 1977.42 223.906 Q1979.39 223.906 1981.27 224.322 Q1983.14 224.716 1984.9 225.526 Z" fill="#000000" fill-rule="nonzero" fill-opacity="1" /><path clip-path="url(#clip480)" d="M2004.09 237.424 Q1998.93 237.424 1996.94 238.604 Q1994.95 239.785 1994.95 242.632 Q1994.95 244.901 1996.43 246.243 Q1997.93 247.563 2000.5 247.563 Q2004.04 247.563 2006.17 245.063 Q2008.33 242.54 2008.33 238.373 L2008.33 237.424 L2004.09 237.424 M2012.59 235.665 L2012.59 250.456 L2008.33 250.456 L2008.33 246.521 Q2006.87 248.882 2004.69 250.016 Q2002.52 251.128 1999.37 251.128 Q1995.39 251.128 1993.03 248.905 Q1990.69 246.66 1990.69 242.91 Q1990.69 238.535 1993.6 236.313 Q1996.54 234.091 2002.35 234.091 L2008.33 234.091 L2008.33 233.674 Q2008.33 230.734 2006.38 229.137 Q2004.46 227.517 2000.97 227.517 Q1998.74 227.517 1996.64 228.049 Q1994.53 228.581 1992.59 229.646 L1992.59 225.711 Q1994.92 224.808 1997.12 224.368 Q1999.32 223.906 2001.4 223.906 Q2007.03 223.906 2009.81 226.822 Q2012.59 229.739 2012.59 235.665 Z" fill="#000000" fill-rule="nonzero" fill-opacity="1" /><path clip-path="url(#clip480)" d="M2021.36 214.438 L2025.62 214.438 L2025.62 250.456 L2021.36 250.456 L2021.36 214.438 Z" fill="#000000" fill-rule="nonzero" fill-opacity="1" /><path clip-path="url(#clip480)" d="M2068.37 220.433 Q2066.01 218.813 2060.48 218.813 Q2054.62 218.813 2054.62 221.521 Q2054.62 223.651 2060.73 224.762 Q2065.55 225.618 2068.26 228.211 Q2071.54 231.336 2071.54 237.748 Q2071.54 243.882 2068.37 247.493 Q2065.2 251.128 2059.65 251.128 Q2054.11 251.128 2050.92 247.493 Q2047.75 243.882 2047.75 237.517 Q2047.75 232.794 2050.92 228.975 Q2052.15 227.493 2053.88 226.66 Q2050.27 224.831 2050.27 221.568 Q2050.27 215.271 2060.48 215.271 Q2065.59 215.271 2068.37 216.892 L2068.37 220.433 M2057.08 227.818 Q2055.5 228.489 2054.23 230.179 Q2052.24 232.794 2052.24 237.517 Q2052.24 242.216 2054.21 244.854 Q2056.2 247.516 2059.65 247.516 Q2063.05 247.516 2065.04 244.831 Q2067.03 242.146 2067.03 237.748 Q2067.03 233.142 2064.92 230.919 Q2062.68 228.535 2059.76 228.28 Q2058.28 228.142 2057.08 227.818 Z" fill="#000000" fill-rule="nonzero" fill-opacity="1" /><path clip-path="url(#clip480)" d="M2103.9 214.484 Q2100.8 219.808 2099.3 225.017 Q2097.79 230.225 2097.79 235.572 Q2097.79 240.919 2099.3 246.174 Q2100.83 251.405 2103.9 256.706 L2100.2 256.706 Q2096.73 251.266 2094.99 246.012 Q2093.28 240.757 2093.28 235.572 Q2093.28 230.41 2094.99 225.179 Q2096.71 219.947 2100.2 214.484 L2103.9 214.484 Z" fill="#000000" fill-rule="nonzero" fill-opacity="1" /><path clip-path="url(#clip480)" d="M2130.83 225.526 L2130.83 229.507 Q2129.02 228.512 2127.19 228.026 Q2125.39 227.517 2123.53 227.517 Q2119.39 227.517 2117.1 230.155 Q2114.81 232.771 2114.81 237.517 Q2114.81 242.262 2117.1 244.901 Q2119.39 247.516 2123.53 247.516 Q2125.39 247.516 2127.19 247.03 Q2129.02 246.521 2130.83 245.526 L2130.83 249.461 Q2129.04 250.294 2127.12 250.711 Q2125.22 251.128 2123.07 251.128 Q2117.21 251.128 2113.77 247.447 Q2110.32 243.767 2110.32 237.517 Q2110.32 231.174 2113.79 227.54 Q2117.28 223.906 2123.35 223.906 Q2125.32 223.906 2127.19 224.322 Q2129.07 224.716 2130.83 225.526 Z" fill="#000000" fill-rule="nonzero" fill-opacity="1" /><path clip-path="url(#clip480)" d="M2148.28 227.517 Q2144.85 227.517 2142.86 230.202 Q2140.87 232.864 2140.87 237.517 Q2140.87 242.169 2142.84 244.854 Q2144.83 247.516 2148.28 247.516 Q2151.68 247.516 2153.67 244.831 Q2155.66 242.146 2155.66 237.517 Q2155.66 232.91 2153.67 230.225 Q2151.68 227.517 2148.28 227.517 M2148.28 223.906 Q2153.83 223.906 2157.01 227.517 Q2160.18 231.128 2160.18 237.517 Q2160.18 243.882 2157.01 247.516 Q2153.83 251.128 2148.28 251.128 Q2142.7 251.128 2139.53 247.516 Q2136.38 243.882 2136.38 237.517 Q2136.38 231.128 2139.53 227.517 Q2142.7 223.906 2148.28 223.906 Z" fill="#000000" fill-rule="nonzero" fill-opacity="1" /><path clip-path="url(#clip480)" d="M2187.42 229.507 Q2189.02 226.637 2191.24 225.271 Q2193.46 223.906 2196.47 223.906 Q2200.52 223.906 2202.72 226.753 Q2204.92 229.577 2204.92 234.808 L2204.92 250.456 L2200.64 250.456 L2200.64 234.947 Q2200.64 231.22 2199.32 229.415 Q2198 227.609 2195.29 227.609 Q2191.98 227.609 2190.06 229.808 Q2188.14 232.007 2188.14 235.804 L2188.14 250.456 L2183.86 250.456 L2183.86 234.947 Q2183.86 231.197 2182.54 229.415 Q2181.22 227.609 2178.46 227.609 Q2175.2 227.609 2173.28 229.831 Q2171.36 232.03 2171.36 235.804 L2171.36 250.456 L2167.08 250.456 L2167.08 224.531 L2171.36 224.531 L2171.36 228.558 Q2172.82 226.174 2174.85 225.04 Q2176.89 223.906 2179.69 223.906 Q2182.52 223.906 2184.48 225.341 Q2186.47 226.776 2187.42 229.507 Z" fill="#000000" fill-rule="nonzero" fill-opacity="1" /><path clip-path="url(#clip480)" d="M2217.54 246.567 L2217.54 260.317 L2213.26 260.317 L2213.26 224.531 L2217.54 224.531 L2217.54 228.466 Q2218.88 226.151 2220.92 225.04 Q2222.98 223.906 2225.83 223.906 Q2230.55 223.906 2233.49 227.655 Q2236.45 231.405 2236.45 237.517 Q2236.45 243.628 2233.49 247.378 Q2230.55 251.128 2225.83 251.128 Q2222.98 251.128 2220.92 250.016 Q2218.88 248.882 2217.54 246.567 M2232.03 237.517 Q2232.03 232.817 2230.08 230.155 Q2228.16 227.47 2224.78 227.47 Q2221.4 227.47 2219.46 230.155 Q2217.54 232.817 2217.54 237.517 Q2217.54 242.216 2219.46 244.901 Q2221.4 247.563 2224.78 247.563 Q2228.16 247.563 2230.08 244.901 Q2232.03 242.216 2232.03 237.517 Z" fill="#000000" fill-rule="nonzero" fill-opacity="1" /><path clip-path="url(#clip480)" d="M2243.51 214.438 L2247.77 214.438 L2247.77 250.456 L2243.51 250.456 L2243.51 214.438 Z" fill="#000000" fill-rule="nonzero" fill-opacity="1" /><path clip-path="url(#clip480)" d="M2278.86 236.429 L2278.86 238.512 L2259.27 238.512 Q2259.55 242.91 2261.91 245.225 Q2264.3 247.516 2268.53 247.516 Q2270.99 247.516 2273.28 246.915 Q2275.59 246.313 2277.86 245.109 L2277.86 249.137 Q2275.57 250.109 2273.16 250.618 Q2270.76 251.128 2268.28 251.128 Q2262.07 251.128 2258.44 247.516 Q2254.83 243.905 2254.83 237.748 Q2254.83 231.382 2258.26 227.655 Q2261.7 223.906 2267.54 223.906 Q2272.77 223.906 2275.8 227.285 Q2278.86 230.642 2278.86 236.429 M2274.6 235.179 Q2274.55 231.683 2272.63 229.6 Q2270.73 227.517 2267.58 227.517 Q2264.02 227.517 2261.87 229.53 Q2259.74 231.544 2259.41 235.202 L2274.6 235.179 Z" fill="#000000" fill-rule="nonzero" fill-opacity="1" /><path clip-path="url(#clip480)" d="M2290.06 217.169 L2290.06 224.531 L2298.83 224.531 L2298.83 227.841 L2290.06 227.841 L2290.06 241.915 Q2290.06 245.086 2290.92 245.989 Q2291.8 246.891 2294.46 246.891 L2298.83 246.891 L2298.83 250.456 L2294.46 250.456 Q2289.53 250.456 2287.65 248.628 Q2285.78 246.776 2285.78 241.915 L2285.78 227.841 L2282.65 227.841 L2282.65 224.531 L2285.78 224.531 L2285.78 217.169 L2290.06 217.169 Z" fill="#000000" fill-rule="nonzero" fill-opacity="1" /><path clip-path="url(#clip480)" d="M2326.61 236.429 L2326.61 238.512 L2307.03 238.512 Q2307.31 242.91 2309.67 245.225 Q2312.05 247.516 2316.29 247.516 Q2318.74 247.516 2321.03 246.915 Q2323.35 246.313 2325.62 245.109 L2325.62 249.137 Q2323.32 250.109 2320.92 250.618 Q2318.51 251.128 2316.03 251.128 Q2309.83 251.128 2306.2 247.516 Q2302.58 243.905 2302.58 237.748 Q2302.58 231.382 2306.01 227.655 Q2309.46 223.906 2315.29 223.906 Q2320.52 223.906 2323.56 227.285 Q2326.61 230.642 2326.61 236.429 M2322.35 235.179 Q2322.31 231.683 2320.38 229.6 Q2318.49 227.517 2315.34 227.517 Q2311.77 227.517 2309.62 229.53 Q2307.49 231.544 2307.17 235.202 L2322.35 235.179 Z" fill="#000000" fill-rule="nonzero" fill-opacity="1" /><path clip-path="url(#clip480)" d="M2363.69 228.512 Q2362.98 228.095 2362.12 227.91 Q2361.29 227.702 2360.27 227.702 Q2356.66 227.702 2354.71 230.063 Q2352.79 232.401 2352.79 236.799 L2352.79 250.456 L2348.51 250.456 L2348.51 224.531 L2352.79 224.531 L2352.79 228.558 Q2354.13 226.197 2356.29 225.063 Q2358.44 223.906 2361.52 223.906 Q2361.96 223.906 2362.49 223.975 Q2363.02 224.021 2363.67 224.137 L2363.69 228.512 Z" fill="#000000" fill-rule="nonzero" fill-opacity="1" /><path clip-path="url(#clip480)" d="M2389.3 236.429 L2389.3 238.512 L2369.71 238.512 Q2369.99 242.91 2372.35 245.225 Q2374.74 247.516 2378.97 247.516 Q2381.43 247.516 2383.72 246.915 Q2386.03 246.313 2388.3 245.109 L2388.3 249.137 Q2386.01 250.109 2383.6 250.618 Q2381.19 251.128 2378.72 251.128 Q2372.51 251.128 2368.88 247.516 Q2365.27 243.905 2365.27 237.748 Q2365.27 231.382 2368.69 227.655 Q2372.14 223.906 2377.98 223.906 Q2383.21 223.906 2386.24 227.285 Q2389.3 230.642 2389.3 236.429 M2385.04 235.179 Q2384.99 231.683 2383.07 229.6 Q2381.17 227.517 2378.02 227.517 Q2374.46 227.517 2372.31 229.53 Q2370.18 231.544 2369.85 235.202 L2385.04 235.179 Z" fill="#000000" fill-rule="nonzero" fill-opacity="1" /><path clip-path="url(#clip480)" d="M2414.94 225.526 L2414.94 229.507 Q2413.14 228.512 2411.31 228.026 Q2409.5 227.517 2407.65 227.517 Q2403.51 227.517 2401.22 230.155 Q2398.93 232.771 2398.93 237.517 Q2398.93 242.262 2401.22 244.901 Q2403.51 247.516 2407.65 247.516 Q2409.5 247.516 2411.31 247.03 Q2413.14 246.521 2414.94 245.526 L2414.94 249.461 Q2413.16 250.294 2411.24 250.711 Q2409.34 251.128 2407.19 251.128 Q2401.33 251.128 2397.88 247.447 Q2394.44 243.767 2394.44 237.517 Q2394.44 231.174 2397.91 227.54 Q2401.4 223.906 2407.47 223.906 Q2409.44 223.906 2411.31 224.322 Q2413.19 224.716 2414.94 225.526 Z" fill="#000000" fill-rule="nonzero" fill-opacity="1" /><path clip-path="url(#clip480)" d="M2432.4 227.517 Q2428.97 227.517 2426.98 230.202 Q2424.99 232.864 2424.99 237.517 Q2424.99 242.169 2426.96 244.854 Q2428.95 247.516 2432.4 247.516 Q2435.8 247.516 2437.79 244.831 Q2439.78 242.146 2439.78 237.517 Q2439.78 232.91 2437.79 230.225 Q2435.8 227.517 2432.4 227.517 M2432.4 223.906 Q2437.95 223.906 2441.12 227.517 Q2444.3 231.128 2444.3 237.517 Q2444.3 243.882 2441.12 247.516 Q2437.95 251.128 2432.4 251.128 Q2426.82 251.128 2423.65 247.516 Q2420.5 243.882 2420.5 237.517 Q2420.5 231.128 2423.65 227.517 Q2426.82 223.906 2432.4 223.906 Z" fill="#000000" fill-rule="nonzero" fill-opacity="1" /><path clip-path="url(#clip480)" d="M2466.38 228.512 Q2465.66 228.095 2464.81 227.91 Q2463.97 227.702 2462.95 227.702 Q2459.34 227.702 2457.4 230.063 Q2455.48 232.401 2455.48 236.799 L2455.48 250.456 L2451.19 250.456 L2451.19 224.531 L2455.48 224.531 L2455.48 228.558 Q2456.82 226.197 2458.97 225.063 Q2461.12 223.906 2464.2 223.906 Q2464.64 223.906 2465.18 223.975 Q2465.71 224.021 2466.36 224.137 L2466.38 228.512 Z" fill="#000000" fill-rule="nonzero" fill-opacity="1" /><path clip-path="url(#clip480)" d="M2487.07 228.466 L2487.07 214.438 L2491.33 214.438 L2491.33 250.456 L2487.07 250.456 L2487.07 246.567 Q2485.73 248.882 2483.67 250.016 Q2481.63 251.128 2478.76 251.128 Q2474.06 251.128 2471.1 247.378 Q2468.16 243.628 2468.16 237.517 Q2468.16 231.405 2471.1 227.655 Q2474.06 223.906 2478.76 223.906 Q2481.63 223.906 2483.67 225.04 Q2485.73 226.151 2487.07 228.466 M2472.56 237.517 Q2472.56 242.216 2474.48 244.901 Q2476.43 247.563 2479.81 247.563 Q2483.18 247.563 2485.13 244.901 Q2487.07 242.216 2487.07 237.517 Q2487.07 232.817 2485.13 230.155 Q2483.18 227.47 2479.81 227.47 Q2476.43 227.47 2474.48 230.155 Q2472.56 232.817 2472.56 237.517 Z" fill="#000000" fill-rule="nonzero" fill-opacity="1" /><path clip-path="url(#clip480)" d="M2516.63 225.294 L2516.63 229.322 Q2514.83 228.396 2512.88 227.933 Q2510.94 227.47 2508.86 227.47 Q2505.68 227.47 2504.09 228.443 Q2502.51 229.415 2502.51 231.359 Q2502.51 232.841 2503.65 233.697 Q2504.78 234.53 2508.21 235.294 L2509.67 235.618 Q2514.2 236.591 2516.1 238.373 Q2518.02 240.132 2518.02 243.304 Q2518.02 246.915 2515.15 249.021 Q2512.31 251.128 2507.31 251.128 Q2505.22 251.128 2502.95 250.711 Q2500.71 250.317 2498.21 249.507 L2498.21 245.109 Q2500.57 246.336 2502.86 246.961 Q2505.15 247.563 2507.4 247.563 Q2510.41 247.563 2512.03 246.544 Q2513.65 245.503 2513.65 243.628 Q2513.65 241.892 2512.47 240.966 Q2511.31 240.04 2507.35 239.183 L2505.87 238.836 Q2501.91 238.003 2500.15 236.29 Q2498.39 234.554 2498.39 231.544 Q2498.39 227.887 2500.99 225.896 Q2503.58 223.906 2508.35 223.906 Q2510.71 223.906 2512.79 224.253 Q2514.87 224.6 2516.63 225.294 Z" fill="#000000" fill-rule="nonzero" fill-opacity="1" /><path clip-path="url(#clip480)" d="M2524.13 214.484 L2527.84 214.484 Q2531.31 219.947 2533.02 225.179 Q2534.76 230.41 2534.76 235.572 Q2534.76 240.757 2533.02 246.012 Q2531.31 251.266 2527.84 256.706 L2524.13 256.706 Q2527.21 251.405 2528.72 246.174 Q2530.24 240.919 2530.24 235.572 Q2530.24 230.225 2528.72 225.017 Q2527.21 219.808 2524.13 214.484 Z" fill="#000000" fill-rule="nonzero" fill-opacity="1" /><polyline clip-path="url(#clip480)" style="stroke:#ff0000; stroke-linecap:round; stroke-linejoin:round; stroke-width:8; stroke-opacity:1; fill:none" points="1628.87,285.016 1787.87,285.016 "/>
<path clip-path="url(#clip480)" d="M1814.37 267.736 L1834.23 267.736 L1834.23 271.671 L1819.04 271.671 L1819.04 281.857 L1832.75 281.857 L1832.75 285.792 L1819.04 285.792 L1819.04 302.296 L1814.37 302.296 L1814.37 267.736 Z" fill="#000000" fill-rule="nonzero" fill-opacity="1" /><path clip-path="url(#clip480)" d="M1838 276.371 L1842.26 276.371 L1842.26 302.296 L1838 302.296 L1838 276.371 M1838 266.278 L1842.26 266.278 L1842.26 271.671 L1838 271.671 L1838 266.278 Z" fill="#000000" fill-rule="nonzero" fill-opacity="1" /><path clip-path="url(#clip480)" d="M1855.39 269.009 L1855.39 276.371 L1864.16 276.371 L1864.16 279.681 L1855.39 279.681 L1855.39 293.755 Q1855.39 296.926 1856.24 297.829 Q1857.12 298.731 1859.79 298.731 L1864.16 298.731 L1864.16 302.296 L1859.79 302.296 Q1854.85 302.296 1852.98 300.468 Q1851.1 298.616 1851.1 293.755 L1851.1 279.681 L1847.98 279.681 L1847.98 276.371 L1851.1 276.371 L1851.1 269.009 L1855.39 269.009 Z" fill="#000000" fill-rule="nonzero" fill-opacity="1" /><path clip-path="url(#clip480)" d="M1873.98 269.009 L1873.98 276.371 L1882.75 276.371 L1882.75 279.681 L1873.98 279.681 L1873.98 293.755 Q1873.98 296.926 1874.83 297.829 Q1875.71 298.731 1878.37 298.731 L1882.75 298.731 L1882.75 302.296 L1878.37 302.296 Q1873.44 302.296 1871.57 300.468 Q1869.69 298.616 1869.69 293.755 L1869.69 279.681 L1866.57 279.681 L1866.57 276.371 L1869.69 276.371 L1869.69 269.009 L1873.98 269.009 Z" fill="#000000" fill-rule="nonzero" fill-opacity="1" /><path clip-path="url(#clip480)" d="M1910.53 288.269 L1910.53 290.352 L1890.94 290.352 Q1891.22 294.75 1893.58 297.065 Q1895.97 299.356 1900.2 299.356 Q1902.66 299.356 1904.95 298.755 Q1907.26 298.153 1909.53 296.949 L1909.53 300.977 Q1907.24 301.949 1904.83 302.458 Q1902.42 302.968 1899.95 302.968 Q1893.74 302.968 1890.11 299.356 Q1886.5 295.745 1886.5 289.588 Q1886.5 283.222 1889.92 279.495 Q1893.37 275.746 1899.21 275.746 Q1904.44 275.746 1907.47 279.125 Q1910.53 282.482 1910.53 288.269 M1906.27 287.019 Q1906.22 283.523 1904.3 281.44 Q1902.4 279.357 1899.25 279.357 Q1895.69 279.357 1893.54 281.37 Q1891.41 283.384 1891.08 287.042 L1906.27 287.019 Z" fill="#000000" fill-rule="nonzero" fill-opacity="1" /><path clip-path="url(#clip480)" d="M1934.58 280.306 L1934.58 266.278 L1938.84 266.278 L1938.84 302.296 L1934.58 302.296 L1934.58 298.407 Q1933.23 300.722 1931.17 301.856 Q1929.14 302.968 1926.27 302.968 Q1921.57 302.968 1918.6 299.218 Q1915.66 295.468 1915.66 289.357 Q1915.66 283.245 1918.6 279.495 Q1921.57 275.746 1926.27 275.746 Q1929.14 275.746 1931.17 276.88 Q1933.23 277.991 1934.58 280.306 M1920.06 289.357 Q1920.06 294.056 1921.98 296.741 Q1923.93 299.403 1927.31 299.403 Q1930.69 299.403 1932.63 296.741 Q1934.58 294.056 1934.58 289.357 Q1934.58 284.657 1932.63 281.995 Q1930.69 279.31 1927.31 279.31 Q1923.93 279.31 1921.98 281.995 Q1920.06 284.657 1920.06 289.357 Z" fill="#000000" fill-rule="nonzero" fill-opacity="1" /><path clip-path="url(#clip480)" d="M1986.43 297.366 L1986.43 288.083 L1978.79 288.083 L1978.79 284.241 L1991.06 284.241 L1991.06 299.079 Q1988.35 301 1985.09 301.995 Q1981.82 302.968 1978.12 302.968 Q1970.02 302.968 1965.43 298.245 Q1960.87 293.5 1960.87 285.051 Q1960.87 276.579 1965.43 271.857 Q1970.02 267.111 1978.12 267.111 Q1981.5 267.111 1984.53 267.945 Q1987.59 268.778 1990.16 270.398 L1990.16 275.375 Q1987.56 273.176 1984.65 272.065 Q1981.73 270.954 1978.51 270.954 Q1972.17 270.954 1968.97 274.496 Q1965.8 278.037 1965.8 285.051 Q1965.8 292.042 1968.97 295.583 Q1972.17 299.125 1978.51 299.125 Q1980.99 299.125 1982.93 298.708 Q1984.88 298.269 1986.43 297.366 Z" fill="#000000" fill-rule="nonzero" fill-opacity="1" /><path clip-path="url(#clip480)" d="M2021.59 288.269 L2021.59 290.352 L2002.01 290.352 Q2002.28 294.75 2004.65 297.065 Q2007.03 299.356 2011.27 299.356 Q2013.72 299.356 2016.01 298.755 Q2018.33 298.153 2020.59 296.949 L2020.59 300.977 Q2018.3 301.949 2015.9 302.458 Q2013.49 302.968 2011.01 302.968 Q2004.81 302.968 2001.17 299.356 Q1997.56 295.745 1997.56 289.588 Q1997.56 283.222 2000.99 279.495 Q2004.44 275.746 2010.27 275.746 Q2015.5 275.746 2018.53 279.125 Q2021.59 282.482 2021.59 288.269 M2017.33 287.019 Q2017.28 283.523 2015.36 281.44 Q2013.47 279.357 2010.32 279.357 Q2006.75 279.357 2004.6 281.37 Q2002.47 283.384 2002.15 287.042 L2017.33 287.019 Z" fill="#000000" fill-rule="nonzero" fill-opacity="1" /><path clip-path="url(#clip480)" d="M2038.63 279.357 Q2035.2 279.357 2033.21 282.042 Q2031.22 284.704 2031.22 289.357 Q2031.22 294.009 2033.19 296.694 Q2035.18 299.356 2038.63 299.356 Q2042.03 299.356 2044.02 296.671 Q2046.01 293.986 2046.01 289.357 Q2046.01 284.75 2044.02 282.065 Q2042.03 279.357 2038.63 279.357 M2038.63 275.746 Q2044.18 275.746 2047.35 279.357 Q2050.53 282.968 2050.53 289.357 Q2050.53 295.722 2047.35 299.356 Q2044.18 302.968 2038.63 302.968 Q2033.05 302.968 2029.88 299.356 Q2026.73 295.722 2026.73 289.357 Q2026.73 282.968 2029.88 279.357 Q2033.05 275.746 2038.63 275.746 Z" fill="#000000" fill-rule="nonzero" fill-opacity="1" /><path clip-path="url(#clip480)" d="M2077.77 281.347 Q2079.37 278.477 2081.59 277.111 Q2083.81 275.746 2086.82 275.746 Q2090.87 275.746 2093.07 278.593 Q2095.27 281.417 2095.27 286.648 L2095.27 302.296 L2090.99 302.296 L2090.99 286.787 Q2090.99 283.06 2089.67 281.255 Q2088.35 279.449 2085.64 279.449 Q2082.33 279.449 2080.41 281.648 Q2078.49 283.847 2078.49 287.644 L2078.49 302.296 L2074.21 302.296 L2074.21 286.787 Q2074.21 283.037 2072.89 281.255 Q2071.57 279.449 2068.81 279.449 Q2065.55 279.449 2063.63 281.671 Q2061.71 283.87 2061.71 287.644 L2061.71 302.296 L2057.42 302.296 L2057.42 276.371 L2061.71 276.371 L2061.71 280.398 Q2063.16 278.014 2065.2 276.88 Q2067.24 275.746 2070.04 275.746 Q2072.86 275.746 2074.83 277.181 Q2076.82 278.616 2077.77 281.347 Z" fill="#000000" fill-rule="nonzero" fill-opacity="1" /><path clip-path="url(#clip480)" d="M2125.94 288.269 L2125.94 290.352 L2106.36 290.352 Q2106.64 294.75 2109 297.065 Q2111.38 299.356 2115.62 299.356 Q2118.07 299.356 2120.36 298.755 Q2122.68 298.153 2124.95 296.949 L2124.95 300.977 Q2122.65 301.949 2120.25 302.458 Q2117.84 302.968 2115.36 302.968 Q2109.16 302.968 2105.52 299.356 Q2101.91 295.745 2101.91 289.588 Q2101.91 283.222 2105.34 279.495 Q2108.79 275.746 2114.62 275.746 Q2119.85 275.746 2122.89 279.125 Q2125.94 282.482 2125.94 288.269 M2121.68 287.019 Q2121.64 283.523 2119.71 281.44 Q2117.82 279.357 2114.67 279.357 Q2111.1 279.357 2108.95 281.37 Q2106.82 283.384 2106.5 287.042 L2121.68 287.019 Z" fill="#000000" fill-rule="nonzero" fill-opacity="1" /><path clip-path="url(#clip480)" d="M2137.14 269.009 L2137.14 276.371 L2145.92 276.371 L2145.92 279.681 L2137.14 279.681 L2137.14 293.755 Q2137.14 296.926 2138 297.829 Q2138.88 298.731 2141.54 298.731 L2145.92 298.731 L2145.92 302.296 L2141.54 302.296 Q2136.61 302.296 2134.74 300.468 Q2132.86 298.616 2132.86 293.755 L2132.86 279.681 L2129.74 279.681 L2129.74 276.371 L2132.86 276.371 L2132.86 269.009 L2137.14 269.009 Z" fill="#000000" fill-rule="nonzero" fill-opacity="1" /><path clip-path="url(#clip480)" d="M2166.54 280.352 Q2165.83 279.935 2164.97 279.75 Q2164.14 279.542 2163.12 279.542 Q2159.51 279.542 2157.56 281.903 Q2155.64 284.241 2155.64 288.639 L2155.64 302.296 L2151.36 302.296 L2151.36 276.371 L2155.64 276.371 L2155.64 280.398 Q2156.98 278.037 2159.14 276.903 Q2161.29 275.746 2164.37 275.746 Q2164.81 275.746 2165.34 275.815 Q2165.87 275.861 2166.52 275.977 L2166.54 280.352 Z" fill="#000000" fill-rule="nonzero" fill-opacity="1" /><path clip-path="url(#clip480)" d="M2171.01 276.371 L2175.27 276.371 L2175.27 302.296 L2171.01 302.296 L2171.01 276.371 M2171.01 266.278 L2175.27 266.278 L2175.27 271.671 L2171.01 271.671 L2171.01 266.278 Z" fill="#000000" fill-rule="nonzero" fill-opacity="1" /><path clip-path="url(#clip480)" d="M2202.84 277.366 L2202.84 281.347 Q2201.03 280.352 2199.2 279.866 Q2197.4 279.357 2195.55 279.357 Q2191.4 279.357 2189.11 281.995 Q2186.82 284.611 2186.82 289.357 Q2186.82 294.102 2189.11 296.741 Q2191.4 299.356 2195.55 299.356 Q2197.4 299.356 2199.2 298.87 Q2201.03 298.361 2202.84 297.366 L2202.84 301.301 Q2201.06 302.134 2199.14 302.551 Q2197.24 302.968 2195.08 302.968 Q2189.23 302.968 2185.78 299.287 Q2182.33 295.607 2182.33 289.357 Q2182.33 283.014 2185.8 279.38 Q2189.3 275.746 2195.36 275.746 Q2197.33 275.746 2199.2 276.162 Q2201.08 276.556 2202.84 277.366 Z" fill="#000000" fill-rule="nonzero" fill-opacity="1" /><path clip-path="url(#clip480)" d="M2220.48 266.324 Q2217.38 271.648 2215.87 276.857 Q2214.37 282.065 2214.37 287.412 Q2214.37 292.759 2215.87 298.014 Q2217.4 303.245 2220.48 308.546 L2216.77 308.546 Q2213.3 303.106 2211.57 297.852 Q2209.85 292.597 2209.85 287.412 Q2209.85 282.25 2211.57 277.019 Q2213.28 271.787 2216.77 266.324 L2220.48 266.324 Z" fill="#000000" fill-rule="nonzero" fill-opacity="1" /><path clip-path="url(#clip480)" d="M2232.86 298.407 L2232.86 312.157 L2228.58 312.157 L2228.58 276.371 L2232.86 276.371 L2232.86 280.306 Q2234.2 277.991 2236.24 276.88 Q2238.3 275.746 2241.15 275.746 Q2245.87 275.746 2248.81 279.495 Q2251.77 283.245 2251.77 289.357 Q2251.77 295.468 2248.81 299.218 Q2245.87 302.968 2241.15 302.968 Q2238.3 302.968 2236.24 301.856 Q2234.2 300.722 2232.86 298.407 M2247.35 289.357 Q2247.35 284.657 2245.41 281.995 Q2243.49 279.31 2240.11 279.31 Q2236.73 279.31 2234.78 281.995 Q2232.86 284.657 2232.86 289.357 Q2232.86 294.056 2234.78 296.741 Q2236.73 299.403 2240.11 299.403 Q2243.49 299.403 2245.41 296.741 Q2247.35 294.056 2247.35 289.357 Z" fill="#000000" fill-rule="nonzero" fill-opacity="1" /><path clip-path="url(#clip480)" d="M2262.72 280.445 L2268.39 296.463 L2276.5 276.371 L2281.01 276.371 L2270.52 302.296 L2270.52 312.157 L2266.26 312.157 L2266.26 302.296 L2259.46 282.945 Q2258.44 280.028 2256.24 280.028 L2255.11 280.028 L2255.11 276.371 L2256.73 276.371 Q2261.29 276.371 2262.72 280.445 Z" fill="#000000" fill-rule="nonzero" fill-opacity="1" /><path clip-path="url(#clip480)" d="M2286.22 266.324 L2289.92 266.324 Q2293.39 271.787 2295.11 277.019 Q2296.84 282.25 2296.84 287.412 Q2296.84 292.597 2295.11 297.852 Q2293.39 303.106 2289.92 308.546 L2286.22 308.546 Q2289.3 303.245 2290.8 298.014 Q2292.33 292.759 2292.33 287.412 Q2292.33 282.065 2290.8 276.857 Q2289.3 271.648 2286.22 266.324 Z" fill="#000000" fill-rule="nonzero" fill-opacity="1" /></svg>
